M48
; DRILL file {KiCad (5.1.10)-1} date 11/07/21 17:42:42
; FORMAT={-:-/ absolute / inch / decimal}
; #@! TF.CreationDate,2021-11-07T17:42:42-06:00
; #@! TF.GenerationSoftware,Kicad,Pcbnew,(5.1.10)-1
; #@! TF.FileFunction,Plated,1,2,PTH
FMAT,2
INCH
T1C0.0157
T2C0.0197
T3C0.0236
T4C0.0394
T5C0.1260
%
G90
G05
T1
X-3.3513Y-1.6615
X-3.2713Y-2.3915
X-3.2133Y-3.4895
X-3.1513Y-1.7515
X-3.0913Y-2.2115
X-2.9913Y-2.6715
X-2.9813Y-1.9915
X-2.9813Y-3.1115
X-2.8813Y-3.1015
X-2.8613Y-1.7515
X-2.8013Y-1.7515
X-2.7913Y-2.7715
X-2.4713Y-2.7715
X-2.2761Y-1.1004
X-2.2742Y-2.3425
X-2.2643Y-1.7421
X-2.0793Y-1.1063
X-2.0714Y-1.7461
X-2.0576Y-2.3465
X-1.962Y-0.9128
X-1.9572Y-0.8366
X-1.9527Y-1.4845
X-1.9513Y-1.5615
X-1.9498Y-2.1609
X-1.9395Y-2.0886
X-1.8813Y-0.6315
X-1.8713Y-1.2415
X-1.8513Y-1.8715
X-1.4907Y-0.9705
X-1.4613Y-1.6083
X-1.4336Y-2.2087
X-1.3913Y-1.0615
X-1.3913Y-1.2315
X-1.2113Y-1.4915
X-1.1913Y-2.6515
X-1.0313Y-2.9015
X-1.0113Y-1.8015
X-1.0113Y-0.7215
X-0.9913Y-1.1915
X-0.9613Y-2.5215
X-0.9213Y-2.1615
X-0.8913Y-3.2915
X-0.8413Y-3.2115
X-0.8013Y-2.0515
X-0.7313Y-3.1515
X-0.7213Y-2.9715
X-0.7113Y-2.3915
X-0.7013Y-1.9615
X-0.685Y-1.7452
X-0.5713Y-2.0815
X-0.5713Y-2.3415
X-0.5613Y-1.6915
X-0.5113Y-2.7715
X-0.5013Y-2.6515
X-0.4313Y-2.7615
X-0.4213Y-2.9715
X-0.2713Y-1.2015
X-0.2113Y-2.1415
T2
X-0.188Y-0.7579
X-0.188Y-0.8071
X-0.188Y-0.8563
X-0.188Y-0.9055
X-0.188Y-0.9547
X-0.188Y-1.0039
X-0.188Y-1.0531
T3
X-3.4268Y-1.3695
X-3.4268Y-1.4187
X-3.3708Y-3.0737
X-3.3708Y-3.1229
X-3.3704Y-2.6631
X-3.3704Y-2.7123
X-3.3703Y-2.8687
X-3.3703Y-2.9179
X-3.3282Y-0.8698
X-3.3282Y-0.919
X-3.3282Y-0.9682
X-3.3282Y-1.0175
X-3.3282Y-1.0667
X-0.1827Y-2.6596
X-0.1827Y-2.7088
X-0.1827Y-2.8662
X-0.1827Y-2.9154
X-0.1827Y-3.0726
X-0.1827Y-3.1218
X-0.1179Y-1.434
X-0.1179Y-1.4832
X-0.1106Y-2.3928
X-0.1106Y-2.442
T4
X-3.0Y-0.3985
X-3.0Y-0.4985
X-2.9998Y-0.198
X-2.9998Y-0.298
X-2.9Y-0.3985
X-2.9Y-0.4985
X-2.8998Y-0.198
X-2.8998Y-0.298
X-2.8Y-0.3985
X-2.8Y-0.4985
X-2.7998Y-0.198
X-2.7998Y-0.298
X-2.7Y-0.3985
X-2.7Y-0.4985
X-2.6998Y-0.198
X-2.6998Y-0.298
X-2.6Y-0.3985
X-2.6Y-0.4985
X-2.5998Y-0.198
X-2.5998Y-0.298
X-2.5Y-0.3985
X-2.5Y-0.4985
X-2.4998Y-0.198
X-2.4998Y-0.298
X-2.4Y-0.3985
X-2.4Y-0.4985
X-2.3998Y-0.198
X-2.3998Y-0.298
X-2.3Y-0.3985
X-2.3Y-0.4985
X-2.2998Y-0.198
X-2.2998Y-0.298
X-2.2Y-0.3985
X-2.2Y-0.4985
X-2.1998Y-0.198
X-2.1998Y-0.298
X-2.1Y-0.3985
X-2.1Y-0.4985
X-2.0998Y-0.198
X-2.0998Y-0.298
X-2.0Y-0.3985
X-2.0Y-0.4985
X-1.9998Y-0.198
X-1.9998Y-0.298
X-1.9Y-0.3985
X-1.9Y-0.4985
X-1.8998Y-0.198
X-1.8998Y-0.298
X-1.8Y-0.3985
X-1.8Y-0.4985
X-1.7998Y-0.198
X-1.7998Y-0.298
X-1.7Y-0.3985
X-1.7Y-0.4985
X-1.6998Y-0.198
X-1.6998Y-0.298
X-1.6Y-0.3985
X-1.6Y-0.4985
X-1.5998Y-0.198
X-1.5998Y-0.298
X-1.5Y-0.3985
X-1.5Y-0.4985
X-1.4998Y-0.198
X-1.4998Y-0.298
X-1.4Y-0.3985
X-1.4Y-0.4985
X-1.3998Y-0.198
X-1.3998Y-0.298
X-1.3Y-0.3985
X-1.3Y-0.4985
X-1.2998Y-0.198
X-1.2998Y-0.298
X-1.2Y-0.3985
X-1.2Y-0.4985
X-1.1998Y-0.198
X-1.1998Y-0.298
X-1.1Y-0.3985
X-1.1Y-0.4985
X-1.0998Y-0.198
X-1.0998Y-0.298
X-1.0Y-0.3985
X-1.0Y-0.4985
X-0.9998Y-0.198
X-0.9998Y-0.298
X-0.9Y-0.3985
X-0.9Y-0.4985
X-0.8998Y-0.198
X-0.8998Y-0.298
X-0.8Y-0.3985
X-0.8Y-0.4985
X-0.7998Y-0.198
X-0.7998Y-0.298
X-0.7Y-0.3985
X-0.7Y-0.4985
X-0.6998Y-0.198
X-0.6998Y-0.298
X-0.6Y-0.3985
X-0.6Y-0.4985
X-0.5998Y-0.198
X-0.5998Y-0.298
X-0.5Y-0.3985
X-0.5Y-0.4985
X-0.4998Y-0.198
X-0.4998Y-0.298
T5
X-3.35Y-3.5752
X-3.2Y-0.2
X-0.3Y-0.2
X-0.2Y-3.5752
T0
M30
