%FSLAX45Y45*%
G04 Gerber Fmt 4.5, Leading zero omitted, Abs format (unit mm)*
G04 Created by KiCad (PCBNEW (5.1.10)-1) date 2021-11-07 17:42:40*
%MOMM*%
%LPD*%
G01*
G04 APERTURE LIST*
%TA.AperFunction,Profile*%
%ADD10C,0.050000*%
%TD*%
%ADD11C,0.200000*%
%ADD12C,0.300000*%
G04 APERTURE END LIST*
D10*
X-8722000Y-950000D02*
G75*
G02*
X-8797000Y-875000I0J75000D01*
G01*
X-8492000Y-950000D02*
G75*
G02*
X-8417000Y-1025000I0J-75000D01*
G01*
X-8492000Y-1450000D02*
G75*
G03*
X-8417000Y-1375000I0J75000D01*
G01*
X-8722000Y-1450000D02*
G75*
G03*
X-8797000Y-1525000I0J-75000D01*
G01*
X-525000Y-1450000D02*
G75*
G02*
X-600000Y-1375000I0J75000D01*
G01*
X-277000Y-1450000D02*
G75*
G02*
X-202000Y-1525000I0J-75000D01*
G01*
X-275000Y-950000D02*
G75*
G03*
X-200000Y-875000I0J75000D01*
G01*
X-525000Y-950000D02*
G75*
G03*
X-600000Y-1025000I0J-75000D01*
G01*
X-127000Y-3000000D02*
G75*
G02*
X-202000Y-2925000I0J75000D01*
G01*
X-75000Y-3000000D02*
G75*
G02*
X0Y-3075000I0J-75000D01*
G01*
X-75000Y-6589000D02*
G75*
G03*
X0Y-6514000I0J75000D01*
G01*
X-105000Y-6589000D02*
G75*
G03*
X-180000Y-6664000I0J-75000D01*
G01*
X-8917000Y-6589000D02*
G75*
G02*
X-8842000Y-6664000I0J-75000D01*
G01*
X-8942000Y-6589000D02*
G75*
G02*
X-9017000Y-6514000I0J75000D01*
G01*
X-8942000Y-3000000D02*
G75*
G03*
X-9017000Y-3075000I0J-75000D01*
G01*
X-8872000Y-3000000D02*
G75*
G03*
X-8797000Y-2925000I0J75000D01*
G01*
X-8492000Y-8139000D02*
G75*
G02*
X-8417000Y-8214000I0J-75000D01*
G01*
X-8767000Y-8139000D02*
G75*
G02*
X-8842000Y-8064000I0J75000D01*
G01*
X-8767000Y-8639000D02*
G75*
G03*
X-8842000Y-8714000I0J-75000D01*
G01*
X-8492000Y-8639000D02*
G75*
G03*
X-8417000Y-8564000I0J75000D01*
G01*
X-255000Y-8139000D02*
G75*
G03*
X-180000Y-8064000I0J75000D01*
G01*
X-525000Y-8139000D02*
G75*
G03*
X-600000Y-8214000I0J-75000D01*
G01*
X-525000Y-8639000D02*
G75*
G02*
X-600000Y-8564000I0J75000D01*
G01*
X-255000Y-8639000D02*
G75*
G02*
X-180000Y-8714000I0J-75000D01*
G01*
X-8842000Y-8714000D02*
X-8842000Y-9589000D01*
X-8492000Y-8639000D02*
X-8767000Y-8639000D01*
X-8417000Y-8214000D02*
X-8417000Y-8564000D01*
X-8767000Y-8139000D02*
X-8492000Y-8139000D01*
X-8842000Y-6664000D02*
X-8842000Y-8064000D01*
X-8942000Y-6589000D02*
X-8917000Y-6589000D01*
X-9017000Y-3075000D02*
X-9017000Y-6514000D01*
X-8872000Y-3000000D02*
X-8942000Y-3000000D01*
X-8797000Y-1525000D02*
X-8797000Y-2925000D01*
X-8492000Y-1450000D02*
X-8722000Y-1450000D01*
X-8417000Y-1025000D02*
X-8417000Y-1375000D01*
X-8722000Y-950000D02*
X-8492000Y-950000D01*
X-8797000Y0D02*
X-8797000Y-875000D01*
X-180000Y-8714000D02*
X-180000Y-9589000D01*
X-525000Y-8639000D02*
X-255000Y-8639000D01*
X-600000Y-8214000D02*
X-600000Y-8564000D01*
X-255000Y-8139000D02*
X-525000Y-8139000D01*
X-180000Y-6664000D02*
X-180000Y-8064000D01*
X-75000Y-6589000D02*
X-105000Y-6589000D01*
X0Y-3075000D02*
X0Y-6514000D01*
X-127000Y-3000000D02*
X-75000Y-3000000D01*
X-202000Y-1525000D02*
X-202000Y-2925000D01*
X-525000Y-1450000D02*
X-277000Y-1450000D01*
X-600000Y-1025000D02*
X-600000Y-1375000D01*
X-275000Y-950000D02*
X-525000Y-950000D01*
X-200000Y0D02*
X-200000Y-875000D01*
X-180000Y-9589000D02*
X-8842000Y-9589000D01*
X-8797000Y0D02*
X-200000Y0D01*
D11*
X-8532200Y-4200200D02*
X-8492200Y-4240200D01*
X-8492200Y-4200200D02*
X-8532200Y-4240200D01*
X-8329000Y-6054400D02*
X-8289000Y-6094400D01*
X-8289000Y-6054400D02*
X-8329000Y-6094400D01*
X-8181680Y-8843320D02*
X-8141680Y-8883320D01*
X-8141680Y-8843320D02*
X-8181680Y-8883320D01*
X-8024200Y-4428800D02*
X-7984200Y-4468800D01*
X-7984200Y-4428800D02*
X-8024200Y-4468800D01*
X-7871800Y-5597200D02*
X-7831800Y-5637200D01*
X-7831800Y-5597200D02*
X-7871800Y-5637200D01*
X-7617800Y-6765600D02*
X-7577800Y-6805600D01*
X-7577800Y-6765600D02*
X-7617800Y-6805600D01*
X-7592400Y-5038400D02*
X-7552400Y-5078400D01*
X-7552400Y-5038400D02*
X-7592400Y-5078400D01*
X-7592400Y-7883200D02*
X-7552400Y-7923200D01*
X-7552400Y-7883200D02*
X-7592400Y-7923200D01*
X-7338400Y-7857800D02*
X-7298400Y-7897800D01*
X-7298400Y-7857800D02*
X-7338400Y-7897800D01*
X-7287600Y-4428802D02*
X-7247600Y-4468802D01*
X-7247600Y-4428802D02*
X-7287600Y-4468802D01*
X-7135200Y-4428800D02*
X-7095200Y-4468800D01*
X-7095200Y-4428800D02*
X-7135200Y-4468800D01*
X-7109800Y-7019600D02*
X-7069800Y-7059600D01*
X-7069800Y-7019600D02*
X-7109800Y-7059600D01*
X-6297000Y-7019600D02*
X-6257000Y-7059600D01*
X-6257000Y-7019600D02*
X-6297000Y-7059600D01*
X-5801400Y-2775000D02*
X-5761400Y-2815000D01*
X-5761400Y-2775000D02*
X-5801400Y-2815000D01*
X-5796400Y-5930000D02*
X-5756400Y-5970000D01*
X-5756400Y-5930000D02*
X-5796400Y-5970000D01*
X-5771400Y-4405000D02*
X-5731400Y-4445000D01*
X-5731400Y-4405000D02*
X-5771400Y-4445000D01*
X-5301400Y-2790000D02*
X-5261400Y-2830000D01*
X-5261400Y-2790000D02*
X-5301400Y-2830000D01*
X-5281400Y-4415000D02*
X-5241400Y-4455000D01*
X-5241400Y-4415000D02*
X-5281400Y-4455000D01*
X-5246400Y-5940000D02*
X-5206400Y-5980000D01*
X-5206400Y-5940000D02*
X-5246400Y-5980000D01*
X-5003469Y-2298619D02*
X-4963469Y-2338619D01*
X-4963469Y-2298619D02*
X-5003469Y-2338619D01*
X-4991400Y-2105000D02*
X-4951400Y-2145000D01*
X-4951400Y-2105000D02*
X-4991400Y-2145000D01*
X-4979780Y-3750560D02*
X-4939780Y-3790560D01*
X-4939780Y-3750560D02*
X-4979780Y-3790560D01*
X-4976200Y-3946200D02*
X-4936200Y-3986200D01*
X-4936200Y-3946200D02*
X-4976200Y-3986200D01*
X-4972478Y-5468638D02*
X-4932478Y-5508638D01*
X-4932478Y-5468638D02*
X-4972478Y-5508638D01*
X-4946400Y-5285000D02*
X-4906400Y-5325000D01*
X-4906400Y-5285000D02*
X-4946400Y-5325000D01*
X-4798400Y-1584000D02*
X-4758400Y-1624000D01*
X-4758400Y-1584000D02*
X-4798400Y-1624000D01*
X-4773000Y-3133400D02*
X-4733000Y-3173400D01*
X-4733000Y-3133400D02*
X-4773000Y-3173400D01*
X-4722200Y-4733600D02*
X-4682200Y-4773600D01*
X-4682200Y-4733600D02*
X-4722200Y-4773600D01*
X-3806400Y-2445000D02*
X-3766400Y-2485000D01*
X-3766400Y-2445000D02*
X-3806400Y-2485000D01*
X-3731600Y-4065000D02*
X-3691600Y-4105000D01*
X-3691600Y-4065000D02*
X-3731600Y-4105000D01*
X-3661400Y-5590000D02*
X-3621400Y-5630000D01*
X-3621400Y-5590000D02*
X-3661400Y-5630000D01*
X-3553800Y-2676200D02*
X-3513800Y-2716200D01*
X-3513800Y-2676200D02*
X-3553800Y-2716200D01*
X-3553800Y-3108000D02*
X-3513800Y-3148000D01*
X-3513800Y-3108000D02*
X-3553800Y-3148000D01*
X-3096600Y-3768400D02*
X-3056600Y-3808400D01*
X-3056600Y-3768400D02*
X-3096600Y-3808400D01*
X-3045800Y-6714800D02*
X-3005800Y-6754800D01*
X-3005800Y-6714800D02*
X-3045800Y-6754800D01*
X-2639400Y-7349800D02*
X-2599400Y-7389800D01*
X-2599400Y-7349800D02*
X-2639400Y-7389800D01*
X-2588600Y-4555800D02*
X-2548600Y-4595800D01*
X-2548600Y-4555800D02*
X-2588600Y-4595800D01*
X-2588599Y-1812601D02*
X-2548599Y-1852601D01*
X-2548599Y-1812601D02*
X-2588599Y-1852601D01*
X-2537800Y-3006400D02*
X-2497800Y-3046400D01*
X-2497800Y-3006400D02*
X-2537800Y-3046400D01*
X-2461600Y-6384601D02*
X-2421600Y-6424601D01*
X-2421600Y-6384601D02*
X-2461600Y-6424601D01*
X-2360000Y-5470199D02*
X-2320000Y-5510199D01*
X-2320000Y-5470199D02*
X-2360000Y-5510199D01*
X-2283800Y-8340400D02*
X-2243800Y-8380400D01*
X-2243800Y-8340400D02*
X-2283800Y-8380400D01*
X-2156800Y-8137200D02*
X-2116800Y-8177200D01*
X-2116800Y-8137200D02*
X-2156800Y-8177200D01*
X-2055200Y-5190800D02*
X-2015200Y-5230800D01*
X-2015200Y-5190800D02*
X-2055200Y-5230800D01*
X-1877400Y-7984800D02*
X-1837400Y-8024800D01*
X-1837400Y-7984800D02*
X-1877400Y-8024800D01*
X-1852000Y-7527600D02*
X-1812000Y-7567600D01*
X-1812000Y-7527600D02*
X-1852000Y-7567600D01*
X-1826600Y-6054400D02*
X-1786600Y-6094400D01*
X-1786600Y-6054400D02*
X-1826600Y-6094400D01*
X-1801200Y-4962200D02*
X-1761200Y-5002200D01*
X-1761200Y-4962200D02*
X-1801200Y-5002200D01*
X-1759802Y-4412802D02*
X-1719802Y-4452802D01*
X-1719802Y-4412802D02*
X-1759802Y-4452802D01*
X-1471000Y-5267000D02*
X-1431000Y-5307000D01*
X-1431000Y-5267000D02*
X-1471000Y-5307000D01*
X-1471000Y-5927400D02*
X-1431000Y-5967400D01*
X-1431000Y-5927400D02*
X-1471000Y-5967400D01*
X-1445600Y-4276400D02*
X-1405600Y-4316400D01*
X-1405600Y-4276400D02*
X-1445600Y-4316400D01*
X-1318600Y-7019600D02*
X-1278600Y-7059600D01*
X-1278600Y-7019600D02*
X-1318600Y-7059600D01*
X-1293200Y-6714800D02*
X-1253200Y-6754800D01*
X-1253200Y-6714800D02*
X-1293200Y-6754800D01*
X-1115400Y-6994200D02*
X-1075400Y-7034200D01*
X-1075400Y-6994200D02*
X-1115400Y-7034200D01*
X-1090000Y-7527600D02*
X-1050000Y-7567600D01*
X-1050000Y-7527600D02*
X-1090000Y-7567600D01*
X-709000Y-3031800D02*
X-669000Y-3071800D01*
X-669000Y-3031800D02*
X-709000Y-3071800D01*
X-556600Y-5419400D02*
X-516600Y-5459400D01*
X-516600Y-5419400D02*
X-556600Y-5459400D01*
X-452418Y-1924992D02*
G75*
G03*
X-452418Y-1924992I-25000J0D01*
G01*
X-452418Y-2049992D02*
G75*
G03*
X-452418Y-2049992I-25000J0D01*
G01*
X-452418Y-2174992D02*
G75*
G03*
X-452418Y-2174992I-25000J0D01*
G01*
X-452418Y-2299992D02*
G75*
G03*
X-452418Y-2299992I-25000J0D01*
G01*
X-452418Y-2424992D02*
G75*
G03*
X-452418Y-2424992I-25000J0D01*
G01*
X-452418Y-2549992D02*
G75*
G03*
X-452418Y-2549992I-25000J0D01*
G01*
X-452418Y-2674992D02*
G75*
G03*
X-452418Y-2674992I-25000J0D01*
G01*
X-8703970Y-3448488D02*
X-8703970Y-3508488D01*
X-8733970Y-3478488D02*
X-8673970Y-3478488D01*
X-8703970Y-3573488D02*
X-8703970Y-3633488D01*
X-8733970Y-3603488D02*
X-8673970Y-3603488D01*
X-8561730Y-7777188D02*
X-8561730Y-7837188D01*
X-8591730Y-7807188D02*
X-8531730Y-7807188D01*
X-8561730Y-7902188D02*
X-8561730Y-7962188D01*
X-8591730Y-7932188D02*
X-8531730Y-7932188D01*
X-8560714Y-6734232D02*
X-8560714Y-6794232D01*
X-8590714Y-6764232D02*
X-8530714Y-6764232D01*
X-8560714Y-6859232D02*
X-8560714Y-6919232D01*
X-8590714Y-6889232D02*
X-8530714Y-6889232D01*
X-8560460Y-7256456D02*
X-8560460Y-7316456D01*
X-8590460Y-7286456D02*
X-8530460Y-7286456D01*
X-8560460Y-7381456D02*
X-8560460Y-7441456D01*
X-8590460Y-7411456D02*
X-8530460Y-7411456D01*
X-8453600Y-2179340D02*
X-8453600Y-2239340D01*
X-8483600Y-2209340D02*
X-8423600Y-2209340D01*
X-8453600Y-2304340D02*
X-8453600Y-2364340D01*
X-8483600Y-2334340D02*
X-8423600Y-2334340D01*
X-8453600Y-2429340D02*
X-8453600Y-2489340D01*
X-8483600Y-2459340D02*
X-8423600Y-2459340D01*
X-8453600Y-2554340D02*
X-8453600Y-2614340D01*
X-8483600Y-2584340D02*
X-8423600Y-2584340D01*
X-8453600Y-2679340D02*
X-8453600Y-2739340D01*
X-8483600Y-2709340D02*
X-8423600Y-2709340D01*
X-463956Y-6725342D02*
X-463956Y-6785342D01*
X-493956Y-6755342D02*
X-433956Y-6755342D01*
X-463956Y-6850342D02*
X-463956Y-6910342D01*
X-493956Y-6880342D02*
X-433956Y-6880342D01*
X-463956Y-7250138D02*
X-463956Y-7310138D01*
X-493956Y-7280138D02*
X-433956Y-7280138D01*
X-463956Y-7375138D02*
X-463956Y-7435138D01*
X-493956Y-7405138D02*
X-433956Y-7405138D01*
X-463956Y-7774394D02*
X-463956Y-7834394D01*
X-493956Y-7804394D02*
X-433956Y-7804394D01*
X-463956Y-7899394D02*
X-463956Y-7959394D01*
X-493956Y-7929394D02*
X-433956Y-7929394D01*
X-299552Y-3612282D02*
X-299552Y-3672282D01*
X-329552Y-3642282D02*
X-269552Y-3642282D01*
X-299552Y-3737282D02*
X-299552Y-3797282D01*
X-329552Y-3767282D02*
X-269552Y-3767282D01*
X-280822Y-6047702D02*
X-280822Y-6107702D01*
X-310822Y-6077702D02*
X-250822Y-6077702D01*
X-280822Y-6172702D02*
X-280822Y-6232702D01*
X-310822Y-6202702D02*
X-250822Y-6202702D01*
X-7584644Y-1047536D02*
X-7584644Y-976824D01*
X-7655356Y-976824D01*
X-7655356Y-1047536D01*
X-7584644Y-1047536D01*
X-7584644Y-1301536D02*
X-7584644Y-1230824D01*
X-7655356Y-1230824D01*
X-7655356Y-1301536D01*
X-7584644Y-1301536D01*
X-7584034Y-538266D02*
X-7584034Y-467554D01*
X-7654746Y-467554D01*
X-7654746Y-538266D01*
X-7584034Y-538266D01*
X-7584034Y-792266D02*
X-7584034Y-721554D01*
X-7654746Y-721554D01*
X-7654746Y-792266D01*
X-7584034Y-792266D01*
X-7330644Y-1047536D02*
X-7330644Y-976824D01*
X-7401356Y-976824D01*
X-7401356Y-1047536D01*
X-7330644Y-1047536D01*
X-7330644Y-1301536D02*
X-7330644Y-1230824D01*
X-7401356Y-1230824D01*
X-7401356Y-1301536D01*
X-7330644Y-1301536D01*
X-7330034Y-538266D02*
X-7330034Y-467554D01*
X-7400746Y-467554D01*
X-7400746Y-538266D01*
X-7330034Y-538266D01*
X-7330034Y-792266D02*
X-7330034Y-721554D01*
X-7400746Y-721554D01*
X-7400746Y-792266D01*
X-7330034Y-792266D01*
X-7076644Y-1047536D02*
X-7076644Y-976824D01*
X-7147356Y-976824D01*
X-7147356Y-1047536D01*
X-7076644Y-1047536D01*
X-7076644Y-1301536D02*
X-7076644Y-1230824D01*
X-7147356Y-1230824D01*
X-7147356Y-1301536D01*
X-7076644Y-1301536D01*
X-7076034Y-538266D02*
X-7076034Y-467554D01*
X-7146746Y-467554D01*
X-7146746Y-538266D01*
X-7076034Y-538266D01*
X-7076034Y-792266D02*
X-7076034Y-721554D01*
X-7146746Y-721554D01*
X-7146746Y-792266D01*
X-7076034Y-792266D01*
X-6822644Y-1047536D02*
X-6822644Y-976824D01*
X-6893356Y-976824D01*
X-6893356Y-1047536D01*
X-6822644Y-1047536D01*
X-6822644Y-1301536D02*
X-6822644Y-1230824D01*
X-6893356Y-1230824D01*
X-6893356Y-1301536D01*
X-6822644Y-1301536D01*
X-6822034Y-538266D02*
X-6822034Y-467554D01*
X-6892746Y-467554D01*
X-6892746Y-538266D01*
X-6822034Y-538266D01*
X-6822034Y-792266D02*
X-6822034Y-721554D01*
X-6892746Y-721554D01*
X-6892746Y-792266D01*
X-6822034Y-792266D01*
X-6568644Y-1047536D02*
X-6568644Y-976824D01*
X-6639356Y-976824D01*
X-6639356Y-1047536D01*
X-6568644Y-1047536D01*
X-6568644Y-1301536D02*
X-6568644Y-1230824D01*
X-6639356Y-1230824D01*
X-6639356Y-1301536D01*
X-6568644Y-1301536D01*
X-6568034Y-538266D02*
X-6568034Y-467554D01*
X-6638746Y-467554D01*
X-6638746Y-538266D01*
X-6568034Y-538266D01*
X-6568034Y-792266D02*
X-6568034Y-721554D01*
X-6638746Y-721554D01*
X-6638746Y-792266D01*
X-6568034Y-792266D01*
X-6314644Y-1047536D02*
X-6314644Y-976824D01*
X-6385356Y-976824D01*
X-6385356Y-1047536D01*
X-6314644Y-1047536D01*
X-6314644Y-1301536D02*
X-6314644Y-1230824D01*
X-6385356Y-1230824D01*
X-6385356Y-1301536D01*
X-6314644Y-1301536D01*
X-6314034Y-538266D02*
X-6314034Y-467554D01*
X-6384746Y-467554D01*
X-6384746Y-538266D01*
X-6314034Y-538266D01*
X-6314034Y-792266D02*
X-6314034Y-721554D01*
X-6384746Y-721554D01*
X-6384746Y-792266D01*
X-6314034Y-792266D01*
X-6060644Y-1047536D02*
X-6060644Y-976824D01*
X-6131356Y-976824D01*
X-6131356Y-1047536D01*
X-6060644Y-1047536D01*
X-6060644Y-1301536D02*
X-6060644Y-1230824D01*
X-6131356Y-1230824D01*
X-6131356Y-1301536D01*
X-6060644Y-1301536D01*
X-6060034Y-538266D02*
X-6060034Y-467554D01*
X-6130746Y-467554D01*
X-6130746Y-538266D01*
X-6060034Y-538266D01*
X-6060034Y-792266D02*
X-6060034Y-721554D01*
X-6130746Y-721554D01*
X-6130746Y-792266D01*
X-6060034Y-792266D01*
X-5806644Y-1047536D02*
X-5806644Y-976824D01*
X-5877356Y-976824D01*
X-5877356Y-1047536D01*
X-5806644Y-1047536D01*
X-5806644Y-1301536D02*
X-5806644Y-1230824D01*
X-5877356Y-1230824D01*
X-5877356Y-1301536D01*
X-5806644Y-1301536D01*
X-5806034Y-538266D02*
X-5806034Y-467554D01*
X-5876746Y-467554D01*
X-5876746Y-538266D01*
X-5806034Y-538266D01*
X-5806034Y-792266D02*
X-5806034Y-721554D01*
X-5876746Y-721554D01*
X-5876746Y-792266D01*
X-5806034Y-792266D01*
X-5552644Y-1047536D02*
X-5552644Y-976824D01*
X-5623356Y-976824D01*
X-5623356Y-1047536D01*
X-5552644Y-1047536D01*
X-5552644Y-1301536D02*
X-5552644Y-1230824D01*
X-5623356Y-1230824D01*
X-5623356Y-1301536D01*
X-5552644Y-1301536D01*
X-5552034Y-538266D02*
X-5552034Y-467554D01*
X-5622746Y-467554D01*
X-5622746Y-538266D01*
X-5552034Y-538266D01*
X-5552034Y-792266D02*
X-5552034Y-721554D01*
X-5622746Y-721554D01*
X-5622746Y-792266D01*
X-5552034Y-792266D01*
X-5298644Y-1047536D02*
X-5298644Y-976824D01*
X-5369356Y-976824D01*
X-5369356Y-1047536D01*
X-5298644Y-1047536D01*
X-5298644Y-1301536D02*
X-5298644Y-1230824D01*
X-5369356Y-1230824D01*
X-5369356Y-1301536D01*
X-5298644Y-1301536D01*
X-5298034Y-538266D02*
X-5298034Y-467554D01*
X-5368746Y-467554D01*
X-5368746Y-538266D01*
X-5298034Y-538266D01*
X-5298034Y-792266D02*
X-5298034Y-721554D01*
X-5368746Y-721554D01*
X-5368746Y-792266D01*
X-5298034Y-792266D01*
X-5044644Y-1047536D02*
X-5044644Y-976824D01*
X-5115356Y-976824D01*
X-5115356Y-1047536D01*
X-5044644Y-1047536D01*
X-5044644Y-1301536D02*
X-5044644Y-1230824D01*
X-5115356Y-1230824D01*
X-5115356Y-1301536D01*
X-5044644Y-1301536D01*
X-5044034Y-538266D02*
X-5044034Y-467554D01*
X-5114746Y-467554D01*
X-5114746Y-538266D01*
X-5044034Y-538266D01*
X-5044034Y-792266D02*
X-5044034Y-721554D01*
X-5114746Y-721554D01*
X-5114746Y-792266D01*
X-5044034Y-792266D01*
X-4790644Y-1047536D02*
X-4790644Y-976824D01*
X-4861356Y-976824D01*
X-4861356Y-1047536D01*
X-4790644Y-1047536D01*
X-4790644Y-1301536D02*
X-4790644Y-1230824D01*
X-4861356Y-1230824D01*
X-4861356Y-1301536D01*
X-4790644Y-1301536D01*
X-4790034Y-538266D02*
X-4790034Y-467554D01*
X-4860746Y-467554D01*
X-4860746Y-538266D01*
X-4790034Y-538266D01*
X-4790034Y-792266D02*
X-4790034Y-721554D01*
X-4860746Y-721554D01*
X-4860746Y-792266D01*
X-4790034Y-792266D01*
X-4536644Y-1047536D02*
X-4536644Y-976824D01*
X-4607356Y-976824D01*
X-4607356Y-1047536D01*
X-4536644Y-1047536D01*
X-4536644Y-1301536D02*
X-4536644Y-1230824D01*
X-4607356Y-1230824D01*
X-4607356Y-1301536D01*
X-4536644Y-1301536D01*
X-4536034Y-538266D02*
X-4536034Y-467554D01*
X-4606746Y-467554D01*
X-4606746Y-538266D01*
X-4536034Y-538266D01*
X-4536034Y-792266D02*
X-4536034Y-721554D01*
X-4606746Y-721554D01*
X-4606746Y-792266D01*
X-4536034Y-792266D01*
X-4282644Y-1047536D02*
X-4282644Y-976824D01*
X-4353356Y-976824D01*
X-4353356Y-1047536D01*
X-4282644Y-1047536D01*
X-4282644Y-1301536D02*
X-4282644Y-1230824D01*
X-4353356Y-1230824D01*
X-4353356Y-1301536D01*
X-4282644Y-1301536D01*
X-4282034Y-538266D02*
X-4282034Y-467554D01*
X-4352746Y-467554D01*
X-4352746Y-538266D01*
X-4282034Y-538266D01*
X-4282034Y-792266D02*
X-4282034Y-721554D01*
X-4352746Y-721554D01*
X-4352746Y-792266D01*
X-4282034Y-792266D01*
X-4028644Y-1047536D02*
X-4028644Y-976824D01*
X-4099356Y-976824D01*
X-4099356Y-1047536D01*
X-4028644Y-1047536D01*
X-4028644Y-1301536D02*
X-4028644Y-1230824D01*
X-4099356Y-1230824D01*
X-4099356Y-1301536D01*
X-4028644Y-1301536D01*
X-4028034Y-538266D02*
X-4028034Y-467554D01*
X-4098746Y-467554D01*
X-4098746Y-538266D01*
X-4028034Y-538266D01*
X-4028034Y-792266D02*
X-4028034Y-721554D01*
X-4098746Y-721554D01*
X-4098746Y-792266D01*
X-4028034Y-792266D01*
X-3774644Y-1047536D02*
X-3774644Y-976824D01*
X-3845356Y-976824D01*
X-3845356Y-1047536D01*
X-3774644Y-1047536D01*
X-3774644Y-1301536D02*
X-3774644Y-1230824D01*
X-3845356Y-1230824D01*
X-3845356Y-1301536D01*
X-3774644Y-1301536D01*
X-3774034Y-538266D02*
X-3774034Y-467554D01*
X-3844746Y-467554D01*
X-3844746Y-538266D01*
X-3774034Y-538266D01*
X-3774034Y-792266D02*
X-3774034Y-721554D01*
X-3844746Y-721554D01*
X-3844746Y-792266D01*
X-3774034Y-792266D01*
X-3520644Y-1047536D02*
X-3520644Y-976824D01*
X-3591356Y-976824D01*
X-3591356Y-1047536D01*
X-3520644Y-1047536D01*
X-3520644Y-1301536D02*
X-3520644Y-1230824D01*
X-3591356Y-1230824D01*
X-3591356Y-1301536D01*
X-3520644Y-1301536D01*
X-3520034Y-538266D02*
X-3520034Y-467554D01*
X-3590746Y-467554D01*
X-3590746Y-538266D01*
X-3520034Y-538266D01*
X-3520034Y-792266D02*
X-3520034Y-721554D01*
X-3590746Y-721554D01*
X-3590746Y-792266D01*
X-3520034Y-792266D01*
X-3266644Y-1047536D02*
X-3266644Y-976824D01*
X-3337356Y-976824D01*
X-3337356Y-1047536D01*
X-3266644Y-1047536D01*
X-3266644Y-1301536D02*
X-3266644Y-1230824D01*
X-3337356Y-1230824D01*
X-3337356Y-1301536D01*
X-3266644Y-1301536D01*
X-3266034Y-538266D02*
X-3266034Y-467554D01*
X-3336746Y-467554D01*
X-3336746Y-538266D01*
X-3266034Y-538266D01*
X-3266034Y-792266D02*
X-3266034Y-721554D01*
X-3336746Y-721554D01*
X-3336746Y-792266D01*
X-3266034Y-792266D01*
X-3012644Y-1047536D02*
X-3012644Y-976824D01*
X-3083356Y-976824D01*
X-3083356Y-1047536D01*
X-3012644Y-1047536D01*
X-3012644Y-1301536D02*
X-3012644Y-1230824D01*
X-3083356Y-1230824D01*
X-3083356Y-1301536D01*
X-3012644Y-1301536D01*
X-3012034Y-538266D02*
X-3012034Y-467554D01*
X-3082746Y-467554D01*
X-3082746Y-538266D01*
X-3012034Y-538266D01*
X-3012034Y-792266D02*
X-3012034Y-721554D01*
X-3082746Y-721554D01*
X-3082746Y-792266D01*
X-3012034Y-792266D01*
X-2758644Y-1047536D02*
X-2758644Y-976824D01*
X-2829356Y-976824D01*
X-2829356Y-1047536D01*
X-2758644Y-1047536D01*
X-2758644Y-1301536D02*
X-2758644Y-1230824D01*
X-2829356Y-1230824D01*
X-2829356Y-1301536D01*
X-2758644Y-1301536D01*
X-2758034Y-538266D02*
X-2758034Y-467554D01*
X-2828746Y-467554D01*
X-2828746Y-538266D01*
X-2758034Y-538266D01*
X-2758034Y-792266D02*
X-2758034Y-721554D01*
X-2828746Y-721554D01*
X-2828746Y-792266D01*
X-2758034Y-792266D01*
X-2504644Y-1047536D02*
X-2504644Y-976824D01*
X-2575356Y-976824D01*
X-2575356Y-1047536D01*
X-2504644Y-1047536D01*
X-2504644Y-1301536D02*
X-2504644Y-1230824D01*
X-2575356Y-1230824D01*
X-2575356Y-1301536D01*
X-2504644Y-1301536D01*
X-2504034Y-538266D02*
X-2504034Y-467554D01*
X-2574746Y-467554D01*
X-2574746Y-538266D01*
X-2504034Y-538266D01*
X-2504034Y-792266D02*
X-2504034Y-721554D01*
X-2574746Y-721554D01*
X-2574746Y-792266D01*
X-2504034Y-792266D01*
X-2250644Y-1047536D02*
X-2250644Y-976824D01*
X-2321356Y-976824D01*
X-2321356Y-1047536D01*
X-2250644Y-1047536D01*
X-2250644Y-1301536D02*
X-2250644Y-1230824D01*
X-2321356Y-1230824D01*
X-2321356Y-1301536D01*
X-2250644Y-1301536D01*
X-2250034Y-538266D02*
X-2250034Y-467554D01*
X-2320746Y-467554D01*
X-2320746Y-538266D01*
X-2250034Y-538266D01*
X-2250034Y-792266D02*
X-2250034Y-721554D01*
X-2320746Y-721554D01*
X-2320746Y-792266D01*
X-2250034Y-792266D01*
X-1996644Y-1047536D02*
X-1996644Y-976824D01*
X-2067356Y-976824D01*
X-2067356Y-1047536D01*
X-1996644Y-1047536D01*
X-1996644Y-1301536D02*
X-1996644Y-1230824D01*
X-2067356Y-1230824D01*
X-2067356Y-1301536D01*
X-1996644Y-1301536D01*
X-1996034Y-538266D02*
X-1996034Y-467554D01*
X-2066746Y-467554D01*
X-2066746Y-538266D01*
X-1996034Y-538266D01*
X-1996034Y-792266D02*
X-1996034Y-721554D01*
X-2066746Y-721554D01*
X-2066746Y-792266D01*
X-1996034Y-792266D01*
X-1742644Y-1047536D02*
X-1742644Y-976824D01*
X-1813356Y-976824D01*
X-1813356Y-1047536D01*
X-1742644Y-1047536D01*
X-1742644Y-1301536D02*
X-1742644Y-1230824D01*
X-1813356Y-1230824D01*
X-1813356Y-1301536D01*
X-1742644Y-1301536D01*
X-1742034Y-538266D02*
X-1742034Y-467554D01*
X-1812746Y-467554D01*
X-1812746Y-538266D01*
X-1742034Y-538266D01*
X-1742034Y-792266D02*
X-1742034Y-721554D01*
X-1812746Y-721554D01*
X-1812746Y-792266D01*
X-1742034Y-792266D01*
X-1488644Y-1047536D02*
X-1488644Y-976824D01*
X-1559356Y-976824D01*
X-1559356Y-1047536D01*
X-1488644Y-1047536D01*
X-1488644Y-1301536D02*
X-1488644Y-1230824D01*
X-1559356Y-1230824D01*
X-1559356Y-1301536D01*
X-1488644Y-1301536D01*
X-1488034Y-538266D02*
X-1488034Y-467554D01*
X-1558746Y-467554D01*
X-1558746Y-538266D01*
X-1488034Y-538266D01*
X-1488034Y-792266D02*
X-1488034Y-721554D01*
X-1558746Y-721554D01*
X-1558746Y-792266D01*
X-1488034Y-792266D01*
X-1234644Y-1047536D02*
X-1234644Y-976824D01*
X-1305356Y-976824D01*
X-1305356Y-1047536D01*
X-1234644Y-1047536D01*
X-1234644Y-1301536D02*
X-1234644Y-1230824D01*
X-1305356Y-1230824D01*
X-1305356Y-1301536D01*
X-1234644Y-1301536D01*
X-1234034Y-538266D02*
X-1234034Y-467554D01*
X-1304746Y-467554D01*
X-1304746Y-538266D01*
X-1234034Y-538266D01*
X-1234034Y-792266D02*
X-1234034Y-721554D01*
X-1304746Y-721554D01*
X-1304746Y-792266D01*
X-1234034Y-792266D01*
X-8509000Y-9241000D02*
X-8349000Y-9081000D01*
X-8509000Y-8921000D01*
X-8669000Y-9081000D01*
X-8509000Y-9241000D01*
X-8128000Y-668000D02*
X-7968000Y-508000D01*
X-8128000Y-348000D01*
X-8288000Y-508000D01*
X-8128000Y-668000D01*
X-762000Y-668000D02*
X-602000Y-508000D01*
X-762000Y-348000D01*
X-922000Y-508000D01*
X-762000Y-668000D01*
X-508000Y-9241000D02*
X-348000Y-9081000D01*
X-508000Y-8921000D01*
X-668000Y-9081000D01*
X-508000Y-9241000D01*
D12*
X-8733072Y-10057214D02*
X-8733072Y-9757214D01*
X-8661643Y-9757214D01*
X-8618786Y-9771500D01*
X-8590214Y-9800072D01*
X-8575929Y-9828643D01*
X-8561643Y-9885786D01*
X-8561643Y-9928643D01*
X-8575929Y-9985786D01*
X-8590214Y-10014357D01*
X-8618786Y-10042929D01*
X-8661643Y-10057214D01*
X-8733072Y-10057214D01*
X-8433072Y-10057214D02*
X-8433072Y-9857214D01*
X-8433072Y-9914357D02*
X-8418786Y-9885786D01*
X-8404500Y-9871500D01*
X-8375929Y-9857214D01*
X-8347357Y-9857214D01*
X-8247357Y-10057214D02*
X-8247357Y-9857214D01*
X-8247357Y-9757214D02*
X-8261643Y-9771500D01*
X-8247357Y-9785786D01*
X-8233072Y-9771500D01*
X-8247357Y-9757214D01*
X-8247357Y-9785786D01*
X-8061643Y-10057214D02*
X-8090214Y-10042929D01*
X-8104500Y-10014357D01*
X-8104500Y-9757214D01*
X-7904500Y-10057214D02*
X-7933072Y-10042929D01*
X-7947357Y-10014357D01*
X-7947357Y-9757214D01*
X-7561643Y-10057214D02*
X-7561643Y-9757214D01*
X-7461643Y-9971500D01*
X-7361643Y-9757214D01*
X-7361643Y-10057214D01*
X-7090214Y-10057214D02*
X-7090214Y-9900072D01*
X-7104500Y-9871500D01*
X-7133072Y-9857214D01*
X-7190214Y-9857214D01*
X-7218786Y-9871500D01*
X-7090214Y-10042929D02*
X-7118786Y-10057214D01*
X-7190214Y-10057214D01*
X-7218786Y-10042929D01*
X-7233072Y-10014357D01*
X-7233072Y-9985786D01*
X-7218786Y-9957214D01*
X-7190214Y-9942929D01*
X-7118786Y-9942929D01*
X-7090214Y-9928643D01*
X-6947357Y-9857214D02*
X-6947357Y-10157214D01*
X-6947357Y-9871500D02*
X-6918786Y-9857214D01*
X-6861643Y-9857214D01*
X-6833072Y-9871500D01*
X-6818786Y-9885786D01*
X-6804500Y-9914357D01*
X-6804500Y-10000072D01*
X-6818786Y-10028643D01*
X-6833072Y-10042929D01*
X-6861643Y-10057214D01*
X-6918786Y-10057214D01*
X-6947357Y-10042929D01*
X-6675929Y-10028643D02*
X-6661643Y-10042929D01*
X-6675929Y-10057214D01*
X-6690214Y-10042929D01*
X-6675929Y-10028643D01*
X-6675929Y-10057214D01*
X-6675929Y-9871500D02*
X-6661643Y-9885786D01*
X-6675929Y-9900072D01*
X-6690214Y-9885786D01*
X-6675929Y-9871500D01*
X-6675929Y-9900072D01*
X-9059500Y-10531500D02*
X-9019500Y-10571500D01*
X-9019500Y-10531500D02*
X-9059500Y-10571500D01*
X-8675929Y-10387214D02*
X-8647357Y-10387214D01*
X-8618786Y-10401500D01*
X-8604500Y-10415786D01*
X-8590214Y-10444357D01*
X-8575929Y-10501500D01*
X-8575929Y-10572929D01*
X-8590214Y-10630072D01*
X-8604500Y-10658643D01*
X-8618786Y-10672929D01*
X-8647357Y-10687214D01*
X-8675929Y-10687214D01*
X-8704500Y-10672929D01*
X-8718786Y-10658643D01*
X-8733072Y-10630072D01*
X-8747357Y-10572929D01*
X-8747357Y-10501500D01*
X-8733072Y-10444357D01*
X-8718786Y-10415786D01*
X-8704500Y-10401500D01*
X-8675929Y-10387214D01*
X-8447357Y-10658643D02*
X-8433072Y-10672929D01*
X-8447357Y-10687214D01*
X-8461643Y-10672929D01*
X-8447357Y-10658643D01*
X-8447357Y-10687214D01*
X-8175929Y-10487214D02*
X-8175929Y-10687214D01*
X-8247357Y-10372929D02*
X-8318786Y-10587214D01*
X-8133072Y-10587214D01*
X-7961643Y-10387214D02*
X-7933072Y-10387214D01*
X-7904500Y-10401500D01*
X-7890214Y-10415786D01*
X-7875929Y-10444357D01*
X-7861643Y-10501500D01*
X-7861643Y-10572929D01*
X-7875929Y-10630072D01*
X-7890214Y-10658643D01*
X-7904500Y-10672929D01*
X-7933072Y-10687214D01*
X-7961643Y-10687214D01*
X-7990214Y-10672929D01*
X-8004500Y-10658643D01*
X-8018786Y-10630072D01*
X-8033072Y-10572929D01*
X-8033072Y-10501500D01*
X-8018786Y-10444357D01*
X-8004500Y-10415786D01*
X-7990214Y-10401500D01*
X-7961643Y-10387214D01*
X-7675929Y-10387214D02*
X-7647357Y-10387214D01*
X-7618786Y-10401500D01*
X-7604500Y-10415786D01*
X-7590214Y-10444357D01*
X-7575929Y-10501500D01*
X-7575929Y-10572929D01*
X-7590214Y-10630072D01*
X-7604500Y-10658643D01*
X-7618786Y-10672929D01*
X-7647357Y-10687214D01*
X-7675929Y-10687214D01*
X-7704500Y-10672929D01*
X-7718786Y-10658643D01*
X-7733072Y-10630072D01*
X-7747357Y-10572929D01*
X-7747357Y-10501500D01*
X-7733072Y-10444357D01*
X-7718786Y-10415786D01*
X-7704500Y-10401500D01*
X-7675929Y-10387214D01*
X-7447357Y-10687214D02*
X-7447357Y-10487214D01*
X-7447357Y-10515786D02*
X-7433072Y-10501500D01*
X-7404500Y-10487214D01*
X-7361643Y-10487214D01*
X-7333072Y-10501500D01*
X-7318786Y-10530072D01*
X-7318786Y-10687214D01*
X-7318786Y-10530072D02*
X-7304500Y-10501500D01*
X-7275929Y-10487214D01*
X-7233072Y-10487214D01*
X-7204500Y-10501500D01*
X-7190214Y-10530072D01*
X-7190214Y-10687214D01*
X-7047357Y-10687214D02*
X-7047357Y-10487214D01*
X-7047357Y-10515786D02*
X-7033072Y-10501500D01*
X-7004500Y-10487214D01*
X-6961643Y-10487214D01*
X-6933072Y-10501500D01*
X-6918786Y-10530072D01*
X-6918786Y-10687214D01*
X-6918786Y-10530072D02*
X-6904500Y-10501500D01*
X-6875929Y-10487214D01*
X-6833072Y-10487214D01*
X-6804500Y-10501500D01*
X-6790214Y-10530072D01*
X-6790214Y-10687214D01*
X-6204500Y-10372929D02*
X-6461643Y-10758643D01*
X-5818786Y-10387214D02*
X-5790214Y-10387214D01*
X-5761643Y-10401500D01*
X-5747357Y-10415786D01*
X-5733072Y-10444357D01*
X-5718786Y-10501500D01*
X-5718786Y-10572929D01*
X-5733072Y-10630072D01*
X-5747357Y-10658643D01*
X-5761643Y-10672929D01*
X-5790214Y-10687214D01*
X-5818786Y-10687214D01*
X-5847357Y-10672929D01*
X-5861643Y-10658643D01*
X-5875929Y-10630072D01*
X-5890214Y-10572929D01*
X-5890214Y-10501500D01*
X-5875929Y-10444357D01*
X-5861643Y-10415786D01*
X-5847357Y-10401500D01*
X-5818786Y-10387214D01*
X-5590214Y-10658643D02*
X-5575929Y-10672929D01*
X-5590214Y-10687214D01*
X-5604500Y-10672929D01*
X-5590214Y-10658643D01*
X-5590214Y-10687214D01*
X-5390214Y-10387214D02*
X-5361643Y-10387214D01*
X-5333072Y-10401500D01*
X-5318786Y-10415786D01*
X-5304500Y-10444357D01*
X-5290214Y-10501500D01*
X-5290214Y-10572929D01*
X-5304500Y-10630072D01*
X-5318786Y-10658643D01*
X-5333072Y-10672929D01*
X-5361643Y-10687214D01*
X-5390214Y-10687214D01*
X-5418786Y-10672929D01*
X-5433072Y-10658643D01*
X-5447357Y-10630072D01*
X-5461643Y-10572929D01*
X-5461643Y-10501500D01*
X-5447357Y-10444357D01*
X-5433072Y-10415786D01*
X-5418786Y-10401500D01*
X-5390214Y-10387214D01*
X-5004500Y-10687214D02*
X-5175929Y-10687214D01*
X-5090214Y-10687214D02*
X-5090214Y-10387214D01*
X-5118786Y-10430072D01*
X-5147357Y-10458643D01*
X-5175929Y-10472929D01*
X-4733072Y-10387214D02*
X-4875929Y-10387214D01*
X-4890214Y-10530072D01*
X-4875929Y-10515786D01*
X-4847357Y-10501500D01*
X-4775929Y-10501500D01*
X-4747357Y-10515786D01*
X-4733072Y-10530072D01*
X-4718786Y-10558643D01*
X-4718786Y-10630072D01*
X-4733072Y-10658643D01*
X-4747357Y-10672929D01*
X-4775929Y-10687214D01*
X-4847357Y-10687214D01*
X-4875929Y-10672929D01*
X-4890214Y-10658643D01*
X-4618786Y-10387214D02*
X-4418786Y-10387214D01*
X-4547357Y-10687214D01*
X-4318786Y-10387214D02*
X-4318786Y-10444357D01*
X-4204500Y-10387214D02*
X-4204500Y-10444357D01*
X-3761643Y-10801500D02*
X-3775929Y-10787214D01*
X-3804500Y-10744357D01*
X-3818786Y-10715786D01*
X-3833072Y-10672929D01*
X-3847357Y-10601500D01*
X-3847357Y-10544357D01*
X-3833072Y-10472929D01*
X-3818786Y-10430072D01*
X-3804500Y-10401500D01*
X-3775929Y-10358643D01*
X-3761643Y-10344357D01*
X-3504500Y-10387214D02*
X-3647357Y-10387214D01*
X-3661643Y-10530072D01*
X-3647357Y-10515786D01*
X-3618786Y-10501500D01*
X-3547357Y-10501500D01*
X-3518786Y-10515786D01*
X-3504500Y-10530072D01*
X-3490214Y-10558643D01*
X-3490214Y-10630072D01*
X-3504500Y-10658643D01*
X-3518786Y-10672929D01*
X-3547357Y-10687214D01*
X-3618786Y-10687214D01*
X-3647357Y-10672929D01*
X-3661643Y-10658643D01*
X-3318786Y-10515786D02*
X-3347357Y-10501500D01*
X-3361643Y-10487214D01*
X-3375929Y-10458643D01*
X-3375929Y-10444357D01*
X-3361643Y-10415786D01*
X-3347357Y-10401500D01*
X-3318786Y-10387214D01*
X-3261643Y-10387214D01*
X-3233072Y-10401500D01*
X-3218786Y-10415786D01*
X-3204500Y-10444357D01*
X-3204500Y-10458643D01*
X-3218786Y-10487214D01*
X-3233072Y-10501500D01*
X-3261643Y-10515786D01*
X-3318786Y-10515786D01*
X-3347357Y-10530072D01*
X-3361643Y-10544357D01*
X-3375929Y-10572929D01*
X-3375929Y-10630072D01*
X-3361643Y-10658643D01*
X-3347357Y-10672929D01*
X-3318786Y-10687214D01*
X-3261643Y-10687214D01*
X-3233072Y-10672929D01*
X-3218786Y-10658643D01*
X-3204500Y-10630072D01*
X-3204500Y-10572929D01*
X-3218786Y-10544357D01*
X-3233072Y-10530072D01*
X-3261643Y-10515786D01*
X-2847357Y-10687214D02*
X-2847357Y-10387214D01*
X-2718786Y-10687214D02*
X-2718786Y-10530072D01*
X-2733072Y-10501500D01*
X-2761643Y-10487214D01*
X-2804500Y-10487214D01*
X-2833072Y-10501500D01*
X-2847357Y-10515786D01*
X-2533072Y-10687214D02*
X-2561643Y-10672929D01*
X-2575929Y-10658643D01*
X-2590214Y-10630072D01*
X-2590214Y-10544357D01*
X-2575929Y-10515786D01*
X-2561643Y-10501500D01*
X-2533072Y-10487214D01*
X-2490214Y-10487214D01*
X-2461643Y-10501500D01*
X-2447357Y-10515786D01*
X-2433072Y-10544357D01*
X-2433072Y-10630072D01*
X-2447357Y-10658643D01*
X-2461643Y-10672929D01*
X-2490214Y-10687214D01*
X-2533072Y-10687214D01*
X-2261643Y-10687214D02*
X-2290214Y-10672929D01*
X-2304500Y-10644357D01*
X-2304500Y-10387214D01*
X-2033072Y-10672929D02*
X-2061643Y-10687214D01*
X-2118786Y-10687214D01*
X-2147357Y-10672929D01*
X-2161643Y-10644357D01*
X-2161643Y-10530072D01*
X-2147357Y-10501500D01*
X-2118786Y-10487214D01*
X-2061643Y-10487214D01*
X-2033072Y-10501500D01*
X-2018786Y-10530072D01*
X-2018786Y-10558643D01*
X-2161643Y-10587214D01*
X-1904500Y-10672929D02*
X-1875929Y-10687214D01*
X-1818786Y-10687214D01*
X-1790214Y-10672929D01*
X-1775929Y-10644357D01*
X-1775929Y-10630072D01*
X-1790214Y-10601500D01*
X-1818786Y-10587214D01*
X-1861643Y-10587214D01*
X-1890214Y-10572929D01*
X-1904500Y-10544357D01*
X-1904500Y-10530072D01*
X-1890214Y-10501500D01*
X-1861643Y-10487214D01*
X-1818786Y-10487214D01*
X-1790214Y-10501500D01*
X-1675929Y-10801500D02*
X-1661643Y-10787214D01*
X-1633072Y-10744357D01*
X-1618786Y-10715786D01*
X-1604500Y-10672929D01*
X-1590214Y-10601500D01*
X-1590214Y-10544357D01*
X-1604500Y-10472929D01*
X-1618786Y-10430072D01*
X-1633072Y-10401500D01*
X-1661643Y-10358643D01*
X-1675929Y-10344357D01*
X-9019500Y-10947500D02*
G75*
G03*
X-9019500Y-10947500I-25000J0D01*
G01*
X-8675929Y-10783214D02*
X-8647357Y-10783214D01*
X-8618786Y-10797500D01*
X-8604500Y-10811786D01*
X-8590214Y-10840357D01*
X-8575929Y-10897500D01*
X-8575929Y-10968929D01*
X-8590214Y-11026072D01*
X-8604500Y-11054643D01*
X-8618786Y-11068929D01*
X-8647357Y-11083214D01*
X-8675929Y-11083214D01*
X-8704500Y-11068929D01*
X-8718786Y-11054643D01*
X-8733072Y-11026072D01*
X-8747357Y-10968929D01*
X-8747357Y-10897500D01*
X-8733072Y-10840357D01*
X-8718786Y-10811786D01*
X-8704500Y-10797500D01*
X-8675929Y-10783214D01*
X-8447357Y-11054643D02*
X-8433072Y-11068929D01*
X-8447357Y-11083214D01*
X-8461643Y-11068929D01*
X-8447357Y-11054643D01*
X-8447357Y-11083214D01*
X-8161643Y-10783214D02*
X-8304500Y-10783214D01*
X-8318786Y-10926072D01*
X-8304500Y-10911786D01*
X-8275929Y-10897500D01*
X-8204500Y-10897500D01*
X-8175929Y-10911786D01*
X-8161643Y-10926072D01*
X-8147357Y-10954643D01*
X-8147357Y-11026072D01*
X-8161643Y-11054643D01*
X-8175929Y-11068929D01*
X-8204500Y-11083214D01*
X-8275929Y-11083214D01*
X-8304500Y-11068929D01*
X-8318786Y-11054643D01*
X-7961643Y-10783214D02*
X-7933072Y-10783214D01*
X-7904500Y-10797500D01*
X-7890214Y-10811786D01*
X-7875929Y-10840357D01*
X-7861643Y-10897500D01*
X-7861643Y-10968929D01*
X-7875929Y-11026072D01*
X-7890214Y-11054643D01*
X-7904500Y-11068929D01*
X-7933072Y-11083214D01*
X-7961643Y-11083214D01*
X-7990214Y-11068929D01*
X-8004500Y-11054643D01*
X-8018786Y-11026072D01*
X-8033072Y-10968929D01*
X-8033072Y-10897500D01*
X-8018786Y-10840357D01*
X-8004500Y-10811786D01*
X-7990214Y-10797500D01*
X-7961643Y-10783214D01*
X-7675929Y-10783214D02*
X-7647357Y-10783214D01*
X-7618786Y-10797500D01*
X-7604500Y-10811786D01*
X-7590214Y-10840357D01*
X-7575929Y-10897500D01*
X-7575929Y-10968929D01*
X-7590214Y-11026072D01*
X-7604500Y-11054643D01*
X-7618786Y-11068929D01*
X-7647357Y-11083214D01*
X-7675929Y-11083214D01*
X-7704500Y-11068929D01*
X-7718786Y-11054643D01*
X-7733072Y-11026072D01*
X-7747357Y-10968929D01*
X-7747357Y-10897500D01*
X-7733072Y-10840357D01*
X-7718786Y-10811786D01*
X-7704500Y-10797500D01*
X-7675929Y-10783214D01*
X-7447357Y-11083214D02*
X-7447357Y-10883214D01*
X-7447357Y-10911786D02*
X-7433072Y-10897500D01*
X-7404500Y-10883214D01*
X-7361643Y-10883214D01*
X-7333072Y-10897500D01*
X-7318786Y-10926072D01*
X-7318786Y-11083214D01*
X-7318786Y-10926072D02*
X-7304500Y-10897500D01*
X-7275929Y-10883214D01*
X-7233072Y-10883214D01*
X-7204500Y-10897500D01*
X-7190214Y-10926072D01*
X-7190214Y-11083214D01*
X-7047357Y-11083214D02*
X-7047357Y-10883214D01*
X-7047357Y-10911786D02*
X-7033072Y-10897500D01*
X-7004500Y-10883214D01*
X-6961643Y-10883214D01*
X-6933072Y-10897500D01*
X-6918786Y-10926072D01*
X-6918786Y-11083214D01*
X-6918786Y-10926072D02*
X-6904500Y-10897500D01*
X-6875929Y-10883214D01*
X-6833072Y-10883214D01*
X-6804500Y-10897500D01*
X-6790214Y-10926072D01*
X-6790214Y-11083214D01*
X-6204500Y-10768929D02*
X-6461643Y-11154643D01*
X-5818786Y-10783214D02*
X-5790214Y-10783214D01*
X-5761643Y-10797500D01*
X-5747357Y-10811786D01*
X-5733072Y-10840357D01*
X-5718786Y-10897500D01*
X-5718786Y-10968929D01*
X-5733072Y-11026072D01*
X-5747357Y-11054643D01*
X-5761643Y-11068929D01*
X-5790214Y-11083214D01*
X-5818786Y-11083214D01*
X-5847357Y-11068929D01*
X-5861643Y-11054643D01*
X-5875929Y-11026072D01*
X-5890214Y-10968929D01*
X-5890214Y-10897500D01*
X-5875929Y-10840357D01*
X-5861643Y-10811786D01*
X-5847357Y-10797500D01*
X-5818786Y-10783214D01*
X-5590214Y-11054643D02*
X-5575929Y-11068929D01*
X-5590214Y-11083214D01*
X-5604500Y-11068929D01*
X-5590214Y-11054643D01*
X-5590214Y-11083214D01*
X-5390214Y-10783214D02*
X-5361643Y-10783214D01*
X-5333072Y-10797500D01*
X-5318786Y-10811786D01*
X-5304500Y-10840357D01*
X-5290214Y-10897500D01*
X-5290214Y-10968929D01*
X-5304500Y-11026072D01*
X-5318786Y-11054643D01*
X-5333072Y-11068929D01*
X-5361643Y-11083214D01*
X-5390214Y-11083214D01*
X-5418786Y-11068929D01*
X-5433072Y-11054643D01*
X-5447357Y-11026072D01*
X-5461643Y-10968929D01*
X-5461643Y-10897500D01*
X-5447357Y-10840357D01*
X-5433072Y-10811786D01*
X-5418786Y-10797500D01*
X-5390214Y-10783214D01*
X-5004500Y-11083214D02*
X-5175929Y-11083214D01*
X-5090214Y-11083214D02*
X-5090214Y-10783214D01*
X-5118786Y-10826072D01*
X-5147357Y-10854643D01*
X-5175929Y-10868929D01*
X-4861643Y-11083214D02*
X-4804500Y-11083214D01*
X-4775929Y-11068929D01*
X-4761643Y-11054643D01*
X-4733072Y-11011786D01*
X-4718786Y-10954643D01*
X-4718786Y-10840357D01*
X-4733072Y-10811786D01*
X-4747357Y-10797500D01*
X-4775929Y-10783214D01*
X-4833072Y-10783214D01*
X-4861643Y-10797500D01*
X-4875929Y-10811786D01*
X-4890214Y-10840357D01*
X-4890214Y-10911786D01*
X-4875929Y-10940357D01*
X-4861643Y-10954643D01*
X-4833072Y-10968929D01*
X-4775929Y-10968929D01*
X-4747357Y-10954643D01*
X-4733072Y-10940357D01*
X-4718786Y-10911786D01*
X-4618786Y-10783214D02*
X-4418786Y-10783214D01*
X-4547357Y-11083214D01*
X-4318786Y-10783214D02*
X-4318786Y-10840357D01*
X-4204500Y-10783214D02*
X-4204500Y-10840357D01*
X-3761643Y-11197500D02*
X-3775929Y-11183214D01*
X-3804500Y-11140357D01*
X-3818786Y-11111786D01*
X-3833072Y-11068929D01*
X-3847357Y-10997500D01*
X-3847357Y-10940357D01*
X-3833072Y-10868929D01*
X-3818786Y-10826072D01*
X-3804500Y-10797500D01*
X-3775929Y-10754643D01*
X-3761643Y-10740357D01*
X-3675929Y-10783214D02*
X-3475929Y-10783214D01*
X-3604500Y-11083214D01*
X-3133072Y-11083214D02*
X-3133072Y-10783214D01*
X-3004500Y-11083214D02*
X-3004500Y-10926072D01*
X-3018786Y-10897500D01*
X-3047357Y-10883214D01*
X-3090214Y-10883214D01*
X-3118786Y-10897500D01*
X-3133072Y-10911786D01*
X-2818786Y-11083214D02*
X-2847357Y-11068929D01*
X-2861643Y-11054643D01*
X-2875929Y-11026072D01*
X-2875929Y-10940357D01*
X-2861643Y-10911786D01*
X-2847357Y-10897500D01*
X-2818786Y-10883214D01*
X-2775929Y-10883214D01*
X-2747357Y-10897500D01*
X-2733072Y-10911786D01*
X-2718786Y-10940357D01*
X-2718786Y-11026072D01*
X-2733072Y-11054643D01*
X-2747357Y-11068929D01*
X-2775929Y-11083214D01*
X-2818786Y-11083214D01*
X-2547357Y-11083214D02*
X-2575929Y-11068929D01*
X-2590214Y-11040357D01*
X-2590214Y-10783214D01*
X-2318786Y-11068929D02*
X-2347357Y-11083214D01*
X-2404500Y-11083214D01*
X-2433072Y-11068929D01*
X-2447357Y-11040357D01*
X-2447357Y-10926072D01*
X-2433072Y-10897500D01*
X-2404500Y-10883214D01*
X-2347357Y-10883214D01*
X-2318786Y-10897500D01*
X-2304500Y-10926072D01*
X-2304500Y-10954643D01*
X-2447357Y-10983214D01*
X-2190214Y-11068929D02*
X-2161643Y-11083214D01*
X-2104500Y-11083214D01*
X-2075929Y-11068929D01*
X-2061643Y-11040357D01*
X-2061643Y-11026072D01*
X-2075929Y-10997500D01*
X-2104500Y-10983214D01*
X-2147357Y-10983214D01*
X-2175929Y-10968929D01*
X-2190214Y-10940357D01*
X-2190214Y-10926072D01*
X-2175929Y-10897500D01*
X-2147357Y-10883214D01*
X-2104500Y-10883214D01*
X-2075929Y-10897500D01*
X-1961643Y-11197500D02*
X-1947357Y-11183214D01*
X-1918786Y-11140357D01*
X-1904500Y-11111786D01*
X-1890214Y-11068929D01*
X-1875929Y-10997500D01*
X-1875929Y-10940357D01*
X-1890214Y-10868929D01*
X-1904500Y-10826072D01*
X-1918786Y-10797500D01*
X-1947357Y-10754643D01*
X-1961643Y-10740357D01*
X-9049500Y-11313500D02*
X-9049500Y-11373500D01*
X-9079500Y-11343500D02*
X-9019500Y-11343500D01*
X-8675929Y-11179214D02*
X-8647357Y-11179214D01*
X-8618786Y-11193500D01*
X-8604500Y-11207786D01*
X-8590214Y-11236357D01*
X-8575929Y-11293500D01*
X-8575929Y-11364929D01*
X-8590214Y-11422071D01*
X-8604500Y-11450643D01*
X-8618786Y-11464929D01*
X-8647357Y-11479214D01*
X-8675929Y-11479214D01*
X-8704500Y-11464929D01*
X-8718786Y-11450643D01*
X-8733072Y-11422071D01*
X-8747357Y-11364929D01*
X-8747357Y-11293500D01*
X-8733072Y-11236357D01*
X-8718786Y-11207786D01*
X-8704500Y-11193500D01*
X-8675929Y-11179214D01*
X-8447357Y-11450643D02*
X-8433072Y-11464929D01*
X-8447357Y-11479214D01*
X-8461643Y-11464929D01*
X-8447357Y-11450643D01*
X-8447357Y-11479214D01*
X-8175929Y-11179214D02*
X-8233072Y-11179214D01*
X-8261643Y-11193500D01*
X-8275929Y-11207786D01*
X-8304500Y-11250643D01*
X-8318786Y-11307786D01*
X-8318786Y-11422071D01*
X-8304500Y-11450643D01*
X-8290214Y-11464929D01*
X-8261643Y-11479214D01*
X-8204500Y-11479214D01*
X-8175929Y-11464929D01*
X-8161643Y-11450643D01*
X-8147357Y-11422071D01*
X-8147357Y-11350643D01*
X-8161643Y-11322071D01*
X-8175929Y-11307786D01*
X-8204500Y-11293500D01*
X-8261643Y-11293500D01*
X-8290214Y-11307786D01*
X-8304500Y-11322071D01*
X-8318786Y-11350643D01*
X-7961643Y-11179214D02*
X-7933072Y-11179214D01*
X-7904500Y-11193500D01*
X-7890214Y-11207786D01*
X-7875929Y-11236357D01*
X-7861643Y-11293500D01*
X-7861643Y-11364929D01*
X-7875929Y-11422071D01*
X-7890214Y-11450643D01*
X-7904500Y-11464929D01*
X-7933072Y-11479214D01*
X-7961643Y-11479214D01*
X-7990214Y-11464929D01*
X-8004500Y-11450643D01*
X-8018786Y-11422071D01*
X-8033072Y-11364929D01*
X-8033072Y-11293500D01*
X-8018786Y-11236357D01*
X-8004500Y-11207786D01*
X-7990214Y-11193500D01*
X-7961643Y-11179214D01*
X-7675929Y-11179214D02*
X-7647357Y-11179214D01*
X-7618786Y-11193500D01*
X-7604500Y-11207786D01*
X-7590214Y-11236357D01*
X-7575929Y-11293500D01*
X-7575929Y-11364929D01*
X-7590214Y-11422071D01*
X-7604500Y-11450643D01*
X-7618786Y-11464929D01*
X-7647357Y-11479214D01*
X-7675929Y-11479214D01*
X-7704500Y-11464929D01*
X-7718786Y-11450643D01*
X-7733072Y-11422071D01*
X-7747357Y-11364929D01*
X-7747357Y-11293500D01*
X-7733072Y-11236357D01*
X-7718786Y-11207786D01*
X-7704500Y-11193500D01*
X-7675929Y-11179214D01*
X-7447357Y-11479214D02*
X-7447357Y-11279214D01*
X-7447357Y-11307786D02*
X-7433072Y-11293500D01*
X-7404500Y-11279214D01*
X-7361643Y-11279214D01*
X-7333072Y-11293500D01*
X-7318786Y-11322071D01*
X-7318786Y-11479214D01*
X-7318786Y-11322071D02*
X-7304500Y-11293500D01*
X-7275929Y-11279214D01*
X-7233072Y-11279214D01*
X-7204500Y-11293500D01*
X-7190214Y-11322071D01*
X-7190214Y-11479214D01*
X-7047357Y-11479214D02*
X-7047357Y-11279214D01*
X-7047357Y-11307786D02*
X-7033072Y-11293500D01*
X-7004500Y-11279214D01*
X-6961643Y-11279214D01*
X-6933072Y-11293500D01*
X-6918786Y-11322071D01*
X-6918786Y-11479214D01*
X-6918786Y-11322071D02*
X-6904500Y-11293500D01*
X-6875929Y-11279214D01*
X-6833072Y-11279214D01*
X-6804500Y-11293500D01*
X-6790214Y-11322071D01*
X-6790214Y-11479214D01*
X-6204500Y-11164929D02*
X-6461643Y-11550643D01*
X-5818786Y-11179214D02*
X-5790214Y-11179214D01*
X-5761643Y-11193500D01*
X-5747357Y-11207786D01*
X-5733072Y-11236357D01*
X-5718786Y-11293500D01*
X-5718786Y-11364929D01*
X-5733072Y-11422071D01*
X-5747357Y-11450643D01*
X-5761643Y-11464929D01*
X-5790214Y-11479214D01*
X-5818786Y-11479214D01*
X-5847357Y-11464929D01*
X-5861643Y-11450643D01*
X-5875929Y-11422071D01*
X-5890214Y-11364929D01*
X-5890214Y-11293500D01*
X-5875929Y-11236357D01*
X-5861643Y-11207786D01*
X-5847357Y-11193500D01*
X-5818786Y-11179214D01*
X-5590214Y-11450643D02*
X-5575929Y-11464929D01*
X-5590214Y-11479214D01*
X-5604500Y-11464929D01*
X-5590214Y-11450643D01*
X-5590214Y-11479214D01*
X-5390214Y-11179214D02*
X-5361643Y-11179214D01*
X-5333072Y-11193500D01*
X-5318786Y-11207786D01*
X-5304500Y-11236357D01*
X-5290214Y-11293500D01*
X-5290214Y-11364929D01*
X-5304500Y-11422071D01*
X-5318786Y-11450643D01*
X-5333072Y-11464929D01*
X-5361643Y-11479214D01*
X-5390214Y-11479214D01*
X-5418786Y-11464929D01*
X-5433072Y-11450643D01*
X-5447357Y-11422071D01*
X-5461643Y-11364929D01*
X-5461643Y-11293500D01*
X-5447357Y-11236357D01*
X-5433072Y-11207786D01*
X-5418786Y-11193500D01*
X-5390214Y-11179214D01*
X-5175929Y-11207786D02*
X-5161643Y-11193500D01*
X-5133072Y-11179214D01*
X-5061643Y-11179214D01*
X-5033072Y-11193500D01*
X-5018786Y-11207786D01*
X-5004500Y-11236357D01*
X-5004500Y-11264929D01*
X-5018786Y-11307786D01*
X-5190214Y-11479214D01*
X-5004500Y-11479214D01*
X-4904500Y-11179214D02*
X-4718786Y-11179214D01*
X-4818786Y-11293500D01*
X-4775929Y-11293500D01*
X-4747357Y-11307786D01*
X-4733072Y-11322071D01*
X-4718786Y-11350643D01*
X-4718786Y-11422071D01*
X-4733072Y-11450643D01*
X-4747357Y-11464929D01*
X-4775929Y-11479214D01*
X-4861643Y-11479214D01*
X-4890214Y-11464929D01*
X-4904500Y-11450643D01*
X-4461643Y-11179214D02*
X-4518786Y-11179214D01*
X-4547357Y-11193500D01*
X-4561643Y-11207786D01*
X-4590214Y-11250643D01*
X-4604500Y-11307786D01*
X-4604500Y-11422071D01*
X-4590214Y-11450643D01*
X-4575929Y-11464929D01*
X-4547357Y-11479214D01*
X-4490214Y-11479214D01*
X-4461643Y-11464929D01*
X-4447357Y-11450643D01*
X-4433072Y-11422071D01*
X-4433072Y-11350643D01*
X-4447357Y-11322071D01*
X-4461643Y-11307786D01*
X-4490214Y-11293500D01*
X-4547357Y-11293500D01*
X-4575929Y-11307786D01*
X-4590214Y-11322071D01*
X-4604500Y-11350643D01*
X-4318786Y-11179214D02*
X-4318786Y-11236357D01*
X-4204500Y-11179214D02*
X-4204500Y-11236357D01*
X-3761643Y-11593500D02*
X-3775929Y-11579214D01*
X-3804500Y-11536357D01*
X-3818786Y-11507786D01*
X-3833072Y-11464929D01*
X-3847357Y-11393500D01*
X-3847357Y-11336357D01*
X-3833072Y-11264929D01*
X-3818786Y-11222071D01*
X-3804500Y-11193500D01*
X-3775929Y-11150643D01*
X-3761643Y-11136357D01*
X-3661643Y-11207786D02*
X-3647357Y-11193500D01*
X-3618786Y-11179214D01*
X-3547357Y-11179214D01*
X-3518786Y-11193500D01*
X-3504500Y-11207786D01*
X-3490214Y-11236357D01*
X-3490214Y-11264929D01*
X-3504500Y-11307786D01*
X-3675929Y-11479214D01*
X-3490214Y-11479214D01*
X-3390214Y-11179214D02*
X-3204500Y-11179214D01*
X-3304500Y-11293500D01*
X-3261643Y-11293500D01*
X-3233072Y-11307786D01*
X-3218786Y-11322071D01*
X-3204500Y-11350643D01*
X-3204500Y-11422071D01*
X-3218786Y-11450643D01*
X-3233072Y-11464929D01*
X-3261643Y-11479214D01*
X-3347357Y-11479214D01*
X-3375929Y-11464929D01*
X-3390214Y-11450643D01*
X-2847357Y-11479214D02*
X-2847357Y-11179214D01*
X-2718786Y-11479214D02*
X-2718786Y-11322071D01*
X-2733072Y-11293500D01*
X-2761643Y-11279214D01*
X-2804500Y-11279214D01*
X-2833072Y-11293500D01*
X-2847357Y-11307786D01*
X-2533072Y-11479214D02*
X-2561643Y-11464929D01*
X-2575929Y-11450643D01*
X-2590214Y-11422071D01*
X-2590214Y-11336357D01*
X-2575929Y-11307786D01*
X-2561643Y-11293500D01*
X-2533072Y-11279214D01*
X-2490214Y-11279214D01*
X-2461643Y-11293500D01*
X-2447357Y-11307786D01*
X-2433072Y-11336357D01*
X-2433072Y-11422071D01*
X-2447357Y-11450643D01*
X-2461643Y-11464929D01*
X-2490214Y-11479214D01*
X-2533072Y-11479214D01*
X-2261643Y-11479214D02*
X-2290214Y-11464929D01*
X-2304500Y-11436357D01*
X-2304500Y-11179214D01*
X-2033072Y-11464929D02*
X-2061643Y-11479214D01*
X-2118786Y-11479214D01*
X-2147357Y-11464929D01*
X-2161643Y-11436357D01*
X-2161643Y-11322071D01*
X-2147357Y-11293500D01*
X-2118786Y-11279214D01*
X-2061643Y-11279214D01*
X-2033072Y-11293500D01*
X-2018786Y-11322071D01*
X-2018786Y-11350643D01*
X-2161643Y-11379214D01*
X-1904500Y-11464929D02*
X-1875929Y-11479214D01*
X-1818786Y-11479214D01*
X-1790214Y-11464929D01*
X-1775929Y-11436357D01*
X-1775929Y-11422071D01*
X-1790214Y-11393500D01*
X-1818786Y-11379214D01*
X-1861643Y-11379214D01*
X-1890214Y-11364929D01*
X-1904500Y-11336357D01*
X-1904500Y-11322071D01*
X-1890214Y-11293500D01*
X-1861643Y-11279214D01*
X-1818786Y-11279214D01*
X-1790214Y-11293500D01*
X-1675929Y-11593500D02*
X-1661643Y-11579214D01*
X-1633072Y-11536357D01*
X-1618786Y-11507786D01*
X-1604500Y-11464929D01*
X-1590214Y-11393500D01*
X-1590214Y-11336357D01*
X-1604500Y-11264929D01*
X-1618786Y-11222071D01*
X-1633072Y-11193500D01*
X-1661643Y-11150643D01*
X-1675929Y-11136357D01*
X-9034144Y-11774856D02*
X-9034144Y-11704144D01*
X-9104856Y-11704144D01*
X-9104856Y-11774856D01*
X-9034144Y-11774856D01*
X-8575929Y-11875214D02*
X-8747357Y-11875214D01*
X-8661643Y-11875214D02*
X-8661643Y-11575214D01*
X-8690214Y-11618071D01*
X-8718786Y-11646643D01*
X-8747357Y-11660929D01*
X-8447357Y-11846643D02*
X-8433072Y-11860929D01*
X-8447357Y-11875214D01*
X-8461643Y-11860929D01*
X-8447357Y-11846643D01*
X-8447357Y-11875214D01*
X-8247357Y-11575214D02*
X-8218786Y-11575214D01*
X-8190214Y-11589500D01*
X-8175929Y-11603786D01*
X-8161643Y-11632357D01*
X-8147357Y-11689500D01*
X-8147357Y-11760929D01*
X-8161643Y-11818071D01*
X-8175929Y-11846643D01*
X-8190214Y-11860929D01*
X-8218786Y-11875214D01*
X-8247357Y-11875214D01*
X-8275929Y-11860929D01*
X-8290214Y-11846643D01*
X-8304500Y-11818071D01*
X-8318786Y-11760929D01*
X-8318786Y-11689500D01*
X-8304500Y-11632357D01*
X-8290214Y-11603786D01*
X-8275929Y-11589500D01*
X-8247357Y-11575214D01*
X-7961643Y-11575214D02*
X-7933072Y-11575214D01*
X-7904500Y-11589500D01*
X-7890214Y-11603786D01*
X-7875929Y-11632357D01*
X-7861643Y-11689500D01*
X-7861643Y-11760929D01*
X-7875929Y-11818071D01*
X-7890214Y-11846643D01*
X-7904500Y-11860929D01*
X-7933072Y-11875214D01*
X-7961643Y-11875214D01*
X-7990214Y-11860929D01*
X-8004500Y-11846643D01*
X-8018786Y-11818071D01*
X-8033072Y-11760929D01*
X-8033072Y-11689500D01*
X-8018786Y-11632357D01*
X-8004500Y-11603786D01*
X-7990214Y-11589500D01*
X-7961643Y-11575214D01*
X-7675929Y-11575214D02*
X-7647357Y-11575214D01*
X-7618786Y-11589500D01*
X-7604500Y-11603786D01*
X-7590214Y-11632357D01*
X-7575929Y-11689500D01*
X-7575929Y-11760929D01*
X-7590214Y-11818071D01*
X-7604500Y-11846643D01*
X-7618786Y-11860929D01*
X-7647357Y-11875214D01*
X-7675929Y-11875214D01*
X-7704500Y-11860929D01*
X-7718786Y-11846643D01*
X-7733072Y-11818071D01*
X-7747357Y-11760929D01*
X-7747357Y-11689500D01*
X-7733072Y-11632357D01*
X-7718786Y-11603786D01*
X-7704500Y-11589500D01*
X-7675929Y-11575214D01*
X-7447357Y-11875214D02*
X-7447357Y-11675214D01*
X-7447357Y-11703786D02*
X-7433072Y-11689500D01*
X-7404500Y-11675214D01*
X-7361643Y-11675214D01*
X-7333072Y-11689500D01*
X-7318786Y-11718071D01*
X-7318786Y-11875214D01*
X-7318786Y-11718071D02*
X-7304500Y-11689500D01*
X-7275929Y-11675214D01*
X-7233072Y-11675214D01*
X-7204500Y-11689500D01*
X-7190214Y-11718071D01*
X-7190214Y-11875214D01*
X-7047357Y-11875214D02*
X-7047357Y-11675214D01*
X-7047357Y-11703786D02*
X-7033072Y-11689500D01*
X-7004500Y-11675214D01*
X-6961643Y-11675214D01*
X-6933072Y-11689500D01*
X-6918786Y-11718071D01*
X-6918786Y-11875214D01*
X-6918786Y-11718071D02*
X-6904500Y-11689500D01*
X-6875929Y-11675214D01*
X-6833072Y-11675214D01*
X-6804500Y-11689500D01*
X-6790214Y-11718071D01*
X-6790214Y-11875214D01*
X-6204500Y-11560929D02*
X-6461643Y-11946643D01*
X-5818786Y-11575214D02*
X-5790214Y-11575214D01*
X-5761643Y-11589500D01*
X-5747357Y-11603786D01*
X-5733072Y-11632357D01*
X-5718786Y-11689500D01*
X-5718786Y-11760929D01*
X-5733072Y-11818071D01*
X-5747357Y-11846643D01*
X-5761643Y-11860929D01*
X-5790214Y-11875214D01*
X-5818786Y-11875214D01*
X-5847357Y-11860929D01*
X-5861643Y-11846643D01*
X-5875929Y-11818071D01*
X-5890214Y-11760929D01*
X-5890214Y-11689500D01*
X-5875929Y-11632357D01*
X-5861643Y-11603786D01*
X-5847357Y-11589500D01*
X-5818786Y-11575214D01*
X-5590214Y-11846643D02*
X-5575929Y-11860929D01*
X-5590214Y-11875214D01*
X-5604500Y-11860929D01*
X-5590214Y-11846643D01*
X-5590214Y-11875214D01*
X-5390214Y-11575214D02*
X-5361643Y-11575214D01*
X-5333072Y-11589500D01*
X-5318786Y-11603786D01*
X-5304500Y-11632357D01*
X-5290214Y-11689500D01*
X-5290214Y-11760929D01*
X-5304500Y-11818071D01*
X-5318786Y-11846643D01*
X-5333072Y-11860929D01*
X-5361643Y-11875214D01*
X-5390214Y-11875214D01*
X-5418786Y-11860929D01*
X-5433072Y-11846643D01*
X-5447357Y-11818071D01*
X-5461643Y-11760929D01*
X-5461643Y-11689500D01*
X-5447357Y-11632357D01*
X-5433072Y-11603786D01*
X-5418786Y-11589500D01*
X-5390214Y-11575214D01*
X-5190214Y-11575214D02*
X-5004500Y-11575214D01*
X-5104500Y-11689500D01*
X-5061643Y-11689500D01*
X-5033072Y-11703786D01*
X-5018786Y-11718071D01*
X-5004500Y-11746643D01*
X-5004500Y-11818071D01*
X-5018786Y-11846643D01*
X-5033072Y-11860929D01*
X-5061643Y-11875214D01*
X-5147357Y-11875214D01*
X-5175929Y-11860929D01*
X-5190214Y-11846643D01*
X-4861643Y-11875214D02*
X-4804500Y-11875214D01*
X-4775929Y-11860929D01*
X-4761643Y-11846643D01*
X-4733072Y-11803786D01*
X-4718786Y-11746643D01*
X-4718786Y-11632357D01*
X-4733072Y-11603786D01*
X-4747357Y-11589500D01*
X-4775929Y-11575214D01*
X-4833072Y-11575214D01*
X-4861643Y-11589500D01*
X-4875929Y-11603786D01*
X-4890214Y-11632357D01*
X-4890214Y-11703786D01*
X-4875929Y-11732357D01*
X-4861643Y-11746643D01*
X-4833072Y-11760929D01*
X-4775929Y-11760929D01*
X-4747357Y-11746643D01*
X-4733072Y-11732357D01*
X-4718786Y-11703786D01*
X-4461643Y-11675214D02*
X-4461643Y-11875214D01*
X-4533072Y-11560929D02*
X-4604500Y-11775214D01*
X-4418786Y-11775214D01*
X-4318786Y-11575214D02*
X-4318786Y-11632357D01*
X-4204500Y-11575214D02*
X-4204500Y-11632357D01*
X-3761643Y-11989500D02*
X-3775929Y-11975214D01*
X-3804500Y-11932357D01*
X-3818786Y-11903786D01*
X-3833072Y-11860929D01*
X-3847357Y-11789500D01*
X-3847357Y-11732357D01*
X-3833072Y-11660929D01*
X-3818786Y-11618071D01*
X-3804500Y-11589500D01*
X-3775929Y-11546643D01*
X-3761643Y-11532357D01*
X-3490214Y-11875214D02*
X-3661643Y-11875214D01*
X-3575929Y-11875214D02*
X-3575929Y-11575214D01*
X-3604500Y-11618071D01*
X-3633072Y-11646643D01*
X-3661643Y-11660929D01*
X-3304500Y-11575214D02*
X-3275929Y-11575214D01*
X-3247357Y-11589500D01*
X-3233072Y-11603786D01*
X-3218786Y-11632357D01*
X-3204500Y-11689500D01*
X-3204500Y-11760929D01*
X-3218786Y-11818071D01*
X-3233072Y-11846643D01*
X-3247357Y-11860929D01*
X-3275929Y-11875214D01*
X-3304500Y-11875214D01*
X-3333072Y-11860929D01*
X-3347357Y-11846643D01*
X-3361643Y-11818071D01*
X-3375929Y-11760929D01*
X-3375929Y-11689500D01*
X-3361643Y-11632357D01*
X-3347357Y-11603786D01*
X-3333072Y-11589500D01*
X-3304500Y-11575214D01*
X-2947357Y-11675214D02*
X-2947357Y-11875214D01*
X-3018786Y-11560929D02*
X-3090214Y-11775214D01*
X-2904500Y-11775214D01*
X-2561643Y-11875214D02*
X-2561643Y-11575214D01*
X-2433072Y-11875214D02*
X-2433072Y-11718071D01*
X-2447357Y-11689500D01*
X-2475929Y-11675214D01*
X-2518786Y-11675214D01*
X-2547357Y-11689500D01*
X-2561643Y-11703786D01*
X-2247357Y-11875214D02*
X-2275929Y-11860929D01*
X-2290214Y-11846643D01*
X-2304500Y-11818071D01*
X-2304500Y-11732357D01*
X-2290214Y-11703786D01*
X-2275929Y-11689500D01*
X-2247357Y-11675214D01*
X-2204500Y-11675214D01*
X-2175929Y-11689500D01*
X-2161643Y-11703786D01*
X-2147357Y-11732357D01*
X-2147357Y-11818071D01*
X-2161643Y-11846643D01*
X-2175929Y-11860929D01*
X-2204500Y-11875214D01*
X-2247357Y-11875214D01*
X-1975929Y-11875214D02*
X-2004500Y-11860929D01*
X-2018786Y-11832357D01*
X-2018786Y-11575214D01*
X-1747357Y-11860929D02*
X-1775929Y-11875214D01*
X-1833072Y-11875214D01*
X-1861643Y-11860929D01*
X-1875929Y-11832357D01*
X-1875929Y-11718071D01*
X-1861643Y-11689500D01*
X-1833072Y-11675214D01*
X-1775929Y-11675214D01*
X-1747357Y-11689500D01*
X-1733072Y-11718071D01*
X-1733072Y-11746643D01*
X-1875929Y-11775214D01*
X-1618786Y-11860929D02*
X-1590214Y-11875214D01*
X-1533072Y-11875214D01*
X-1504500Y-11860929D01*
X-1490214Y-11832357D01*
X-1490214Y-11818071D01*
X-1504500Y-11789500D01*
X-1533072Y-11775214D01*
X-1575929Y-11775214D01*
X-1604500Y-11760929D01*
X-1618786Y-11732357D01*
X-1618786Y-11718071D01*
X-1604500Y-11689500D01*
X-1575929Y-11675214D01*
X-1533072Y-11675214D01*
X-1504500Y-11689500D01*
X-1390214Y-11989500D02*
X-1375929Y-11975214D01*
X-1347357Y-11932357D01*
X-1333072Y-11903786D01*
X-1318786Y-11860929D01*
X-1304500Y-11789500D01*
X-1304500Y-11732357D01*
X-1318786Y-11660929D01*
X-1333072Y-11618071D01*
X-1347357Y-11589500D01*
X-1375929Y-11546643D01*
X-1390214Y-11532357D01*
X-9179500Y-12295500D02*
X-9019500Y-12135500D01*
X-9179500Y-11975500D01*
X-9339500Y-12135500D01*
X-9179500Y-12295500D01*
X-8761643Y-11971214D02*
X-8575929Y-11971214D01*
X-8675929Y-12085500D01*
X-8633072Y-12085500D01*
X-8604500Y-12099786D01*
X-8590214Y-12114071D01*
X-8575929Y-12142643D01*
X-8575929Y-12214071D01*
X-8590214Y-12242643D01*
X-8604500Y-12256929D01*
X-8633072Y-12271214D01*
X-8718786Y-12271214D01*
X-8747357Y-12256929D01*
X-8761643Y-12242643D01*
X-8447357Y-12242643D02*
X-8433072Y-12256929D01*
X-8447357Y-12271214D01*
X-8461643Y-12256929D01*
X-8447357Y-12242643D01*
X-8447357Y-12271214D01*
X-8318786Y-11999786D02*
X-8304500Y-11985500D01*
X-8275929Y-11971214D01*
X-8204500Y-11971214D01*
X-8175929Y-11985500D01*
X-8161643Y-11999786D01*
X-8147357Y-12028357D01*
X-8147357Y-12056929D01*
X-8161643Y-12099786D01*
X-8333072Y-12271214D01*
X-8147357Y-12271214D01*
X-7961643Y-11971214D02*
X-7933072Y-11971214D01*
X-7904500Y-11985500D01*
X-7890214Y-11999786D01*
X-7875929Y-12028357D01*
X-7861643Y-12085500D01*
X-7861643Y-12156929D01*
X-7875929Y-12214071D01*
X-7890214Y-12242643D01*
X-7904500Y-12256929D01*
X-7933072Y-12271214D01*
X-7961643Y-12271214D01*
X-7990214Y-12256929D01*
X-8004500Y-12242643D01*
X-8018786Y-12214071D01*
X-8033072Y-12156929D01*
X-8033072Y-12085500D01*
X-8018786Y-12028357D01*
X-8004500Y-11999786D01*
X-7990214Y-11985500D01*
X-7961643Y-11971214D01*
X-7675929Y-11971214D02*
X-7647357Y-11971214D01*
X-7618786Y-11985500D01*
X-7604500Y-11999786D01*
X-7590214Y-12028357D01*
X-7575929Y-12085500D01*
X-7575929Y-12156929D01*
X-7590214Y-12214071D01*
X-7604500Y-12242643D01*
X-7618786Y-12256929D01*
X-7647357Y-12271214D01*
X-7675929Y-12271214D01*
X-7704500Y-12256929D01*
X-7718786Y-12242643D01*
X-7733072Y-12214071D01*
X-7747357Y-12156929D01*
X-7747357Y-12085500D01*
X-7733072Y-12028357D01*
X-7718786Y-11999786D01*
X-7704500Y-11985500D01*
X-7675929Y-11971214D01*
X-7447357Y-12271214D02*
X-7447357Y-12071214D01*
X-7447357Y-12099786D02*
X-7433072Y-12085500D01*
X-7404500Y-12071214D01*
X-7361643Y-12071214D01*
X-7333072Y-12085500D01*
X-7318786Y-12114071D01*
X-7318786Y-12271214D01*
X-7318786Y-12114071D02*
X-7304500Y-12085500D01*
X-7275929Y-12071214D01*
X-7233072Y-12071214D01*
X-7204500Y-12085500D01*
X-7190214Y-12114071D01*
X-7190214Y-12271214D01*
X-7047357Y-12271214D02*
X-7047357Y-12071214D01*
X-7047357Y-12099786D02*
X-7033072Y-12085500D01*
X-7004500Y-12071214D01*
X-6961643Y-12071214D01*
X-6933072Y-12085500D01*
X-6918786Y-12114071D01*
X-6918786Y-12271214D01*
X-6918786Y-12114071D02*
X-6904500Y-12085500D01*
X-6875929Y-12071214D01*
X-6833072Y-12071214D01*
X-6804500Y-12085500D01*
X-6790214Y-12114071D01*
X-6790214Y-12271214D01*
X-6204500Y-11956929D02*
X-6461643Y-12342643D01*
X-5818786Y-11971214D02*
X-5790214Y-11971214D01*
X-5761643Y-11985500D01*
X-5747357Y-11999786D01*
X-5733072Y-12028357D01*
X-5718786Y-12085500D01*
X-5718786Y-12156929D01*
X-5733072Y-12214071D01*
X-5747357Y-12242643D01*
X-5761643Y-12256929D01*
X-5790214Y-12271214D01*
X-5818786Y-12271214D01*
X-5847357Y-12256929D01*
X-5861643Y-12242643D01*
X-5875929Y-12214071D01*
X-5890214Y-12156929D01*
X-5890214Y-12085500D01*
X-5875929Y-12028357D01*
X-5861643Y-11999786D01*
X-5847357Y-11985500D01*
X-5818786Y-11971214D01*
X-5590214Y-12242643D02*
X-5575929Y-12256929D01*
X-5590214Y-12271214D01*
X-5604500Y-12256929D01*
X-5590214Y-12242643D01*
X-5590214Y-12271214D01*
X-5290214Y-12271214D02*
X-5461643Y-12271214D01*
X-5375929Y-12271214D02*
X-5375929Y-11971214D01*
X-5404500Y-12014071D01*
X-5433072Y-12042643D01*
X-5461643Y-12056929D01*
X-5175929Y-11999786D02*
X-5161643Y-11985500D01*
X-5133072Y-11971214D01*
X-5061643Y-11971214D01*
X-5033072Y-11985500D01*
X-5018786Y-11999786D01*
X-5004500Y-12028357D01*
X-5004500Y-12056929D01*
X-5018786Y-12099786D01*
X-5190214Y-12271214D01*
X-5004500Y-12271214D01*
X-4747357Y-11971214D02*
X-4804500Y-11971214D01*
X-4833072Y-11985500D01*
X-4847357Y-11999786D01*
X-4875929Y-12042643D01*
X-4890214Y-12099786D01*
X-4890214Y-12214071D01*
X-4875929Y-12242643D01*
X-4861643Y-12256929D01*
X-4833072Y-12271214D01*
X-4775929Y-12271214D01*
X-4747357Y-12256929D01*
X-4733072Y-12242643D01*
X-4718786Y-12214071D01*
X-4718786Y-12142643D01*
X-4733072Y-12114071D01*
X-4747357Y-12099786D01*
X-4775929Y-12085500D01*
X-4833072Y-12085500D01*
X-4861643Y-12099786D01*
X-4875929Y-12114071D01*
X-4890214Y-12142643D01*
X-4533072Y-11971214D02*
X-4504500Y-11971214D01*
X-4475929Y-11985500D01*
X-4461643Y-11999786D01*
X-4447357Y-12028357D01*
X-4433072Y-12085500D01*
X-4433072Y-12156929D01*
X-4447357Y-12214071D01*
X-4461643Y-12242643D01*
X-4475929Y-12256929D01*
X-4504500Y-12271214D01*
X-4533072Y-12271214D01*
X-4561643Y-12256929D01*
X-4575929Y-12242643D01*
X-4590214Y-12214071D01*
X-4604500Y-12156929D01*
X-4604500Y-12085500D01*
X-4590214Y-12028357D01*
X-4575929Y-11999786D01*
X-4561643Y-11985500D01*
X-4533072Y-11971214D01*
X-4318786Y-11971214D02*
X-4318786Y-12028357D01*
X-4204500Y-11971214D02*
X-4204500Y-12028357D01*
X-3761643Y-12385500D02*
X-3775929Y-12371214D01*
X-3804500Y-12328357D01*
X-3818786Y-12299786D01*
X-3833072Y-12256929D01*
X-3847357Y-12185500D01*
X-3847357Y-12128357D01*
X-3833072Y-12056929D01*
X-3818786Y-12014071D01*
X-3804500Y-11985500D01*
X-3775929Y-11942643D01*
X-3761643Y-11928357D01*
X-3518786Y-12071214D02*
X-3518786Y-12271214D01*
X-3590214Y-11956929D02*
X-3661643Y-12171214D01*
X-3475929Y-12171214D01*
X-3133072Y-12271214D02*
X-3133072Y-11971214D01*
X-3004500Y-12271214D02*
X-3004500Y-12114071D01*
X-3018786Y-12085500D01*
X-3047357Y-12071214D01*
X-3090214Y-12071214D01*
X-3118786Y-12085500D01*
X-3133072Y-12099786D01*
X-2818786Y-12271214D02*
X-2847357Y-12256929D01*
X-2861643Y-12242643D01*
X-2875929Y-12214071D01*
X-2875929Y-12128357D01*
X-2861643Y-12099786D01*
X-2847357Y-12085500D01*
X-2818786Y-12071214D01*
X-2775929Y-12071214D01*
X-2747357Y-12085500D01*
X-2733072Y-12099786D01*
X-2718786Y-12128357D01*
X-2718786Y-12214071D01*
X-2733072Y-12242643D01*
X-2747357Y-12256929D01*
X-2775929Y-12271214D01*
X-2818786Y-12271214D01*
X-2547357Y-12271214D02*
X-2575929Y-12256929D01*
X-2590214Y-12228357D01*
X-2590214Y-11971214D01*
X-2318786Y-12256929D02*
X-2347357Y-12271214D01*
X-2404500Y-12271214D01*
X-2433072Y-12256929D01*
X-2447357Y-12228357D01*
X-2447357Y-12114071D01*
X-2433072Y-12085500D01*
X-2404500Y-12071214D01*
X-2347357Y-12071214D01*
X-2318786Y-12085500D01*
X-2304500Y-12114071D01*
X-2304500Y-12142643D01*
X-2447357Y-12171214D01*
X-2190214Y-12256929D02*
X-2161643Y-12271214D01*
X-2104500Y-12271214D01*
X-2075929Y-12256929D01*
X-2061643Y-12228357D01*
X-2061643Y-12214071D01*
X-2075929Y-12185500D01*
X-2104500Y-12171214D01*
X-2147357Y-12171214D01*
X-2175929Y-12156929D01*
X-2190214Y-12128357D01*
X-2190214Y-12114071D01*
X-2175929Y-12085500D01*
X-2147357Y-12071214D01*
X-2104500Y-12071214D01*
X-2075929Y-12085500D01*
X-1961643Y-12385500D02*
X-1947357Y-12371214D01*
X-1918786Y-12328357D01*
X-1904500Y-12299786D01*
X-1890214Y-12256929D01*
X-1875929Y-12185500D01*
X-1875929Y-12128357D01*
X-1890214Y-12056929D01*
X-1904500Y-12014071D01*
X-1918786Y-11985500D01*
X-1947357Y-11942643D01*
X-1961643Y-11928357D01*
M02*
