%TF.GenerationSoftware,KiCad,Pcbnew,(5.1.10)-1*%
%TF.CreationDate,2021-11-07T17:42:01-06:00*%
%TF.ProjectId,RADSAT-SK Timer,52414453-4154-42d5-934b-2054696d6572,rev?*%
%TF.SameCoordinates,PX7735940PY2faf080*%
%TF.FileFunction,Soldermask,Top*%
%TF.FilePolarity,Negative*%
%FSLAX46Y46*%
G04 Gerber Fmt 4.6, Leading zero omitted, Abs format (unit mm)*
G04 Created by KiCad (PCBNEW (5.1.10)-1) date 2021-11-07 17:42:01*
%MOMM*%
%LPD*%
G01*
G04 APERTURE LIST*
%ADD10R,1.900000X5.300000*%
%ADD11R,0.400000X1.500000*%
%ADD12R,1.900000X0.800000*%
%ADD13R,2.000000X0.650000*%
%ADD14R,0.800000X1.900000*%
%ADD15R,3.600000X2.600000*%
%ADD16R,1.800000X0.700000*%
%ADD17R,2.200000X1.600000*%
%ADD18R,3.300000X4.500000*%
%ADD19R,2.540000X2.670000*%
%ADD20R,1.270000X0.762000*%
%ADD21R,0.300000X1.400000*%
%ADD22C,5.700000*%
%ADD23C,3.600000*%
%ADD24O,1.700000X1.700000*%
%ADD25R,1.700000X1.700000*%
%ADD26O,1.400000X0.900000*%
%ADD27R,1.400000X0.900000*%
%ADD28O,1.300000X0.800000*%
G04 APERTURE END LIST*
D10*
%TO.C,L201*%
X-14158000Y-86652000D03*
X-17558000Y-86652000D03*
%TD*%
%TO.C,D205*%
G36*
G01*
X-16386500Y-57170000D02*
X-16861500Y-57170000D01*
G75*
G02*
X-17099000Y-56932500I0J237500D01*
G01*
X-17099000Y-56357500D01*
G75*
G02*
X-16861500Y-56120000I237500J0D01*
G01*
X-16386500Y-56120000D01*
G75*
G02*
X-16149000Y-56357500I0J-237500D01*
G01*
X-16149000Y-56932500D01*
G75*
G02*
X-16386500Y-57170000I-237500J0D01*
G01*
G37*
G36*
G01*
X-16386500Y-58920000D02*
X-16861500Y-58920000D01*
G75*
G02*
X-17099000Y-58682500I0J237500D01*
G01*
X-17099000Y-58107500D01*
G75*
G02*
X-16861500Y-57870000I237500J0D01*
G01*
X-16386500Y-57870000D01*
G75*
G02*
X-16149000Y-58107500I0J-237500D01*
G01*
X-16149000Y-58682500D01*
G75*
G02*
X-16386500Y-58920000I-237500J0D01*
G01*
G37*
%TD*%
%TO.C,R217*%
G36*
G01*
X-19024001Y-57920000D02*
X-18123999Y-57920000D01*
G75*
G02*
X-17874000Y-58169999I0J-249999D01*
G01*
X-17874000Y-58695001D01*
G75*
G02*
X-18123999Y-58945000I-249999J0D01*
G01*
X-19024001Y-58945000D01*
G75*
G02*
X-19274000Y-58695001I0J249999D01*
G01*
X-19274000Y-58169999D01*
G75*
G02*
X-19024001Y-57920000I249999J0D01*
G01*
G37*
G36*
G01*
X-19024001Y-56095000D02*
X-18123999Y-56095000D01*
G75*
G02*
X-17874000Y-56344999I0J-249999D01*
G01*
X-17874000Y-56870001D01*
G75*
G02*
X-18123999Y-57120000I-249999J0D01*
G01*
X-19024001Y-57120000D01*
G75*
G02*
X-19274000Y-56870001I0J249999D01*
G01*
X-19274000Y-56344999D01*
G75*
G02*
X-19024001Y-56095000I249999J0D01*
G01*
G37*
%TD*%
%TO.C,R214*%
G36*
G01*
X-6457119Y-33028160D02*
X-7357121Y-33028160D01*
G75*
G02*
X-7607120Y-32778161I0J249999D01*
G01*
X-7607120Y-32253159D01*
G75*
G02*
X-7357121Y-32003160I249999J0D01*
G01*
X-6457119Y-32003160D01*
G75*
G02*
X-6207120Y-32253159I0J-249999D01*
G01*
X-6207120Y-32778161D01*
G75*
G02*
X-6457119Y-33028160I-249999J0D01*
G01*
G37*
G36*
G01*
X-6457119Y-34853160D02*
X-7357121Y-34853160D01*
G75*
G02*
X-7607120Y-34603161I0J249999D01*
G01*
X-7607120Y-34078159D01*
G75*
G02*
X-7357121Y-33828160I249999J0D01*
G01*
X-6457119Y-33828160D01*
G75*
G02*
X-6207120Y-34078159I0J-249999D01*
G01*
X-6207120Y-34603161D01*
G75*
G02*
X-6457119Y-34853160I-249999J0D01*
G01*
G37*
%TD*%
D11*
%TO.C,D204*%
X-23894999Y-45812999D03*
X-23244999Y-45812999D03*
X-22594999Y-45812999D03*
X-22594999Y-48472999D03*
X-23244999Y-48472999D03*
X-23894999Y-48472999D03*
%TD*%
%TO.C,C102*%
G36*
G01*
X-53822061Y-24690824D02*
X-51772059Y-24690824D01*
G75*
G02*
X-51522060Y-24940823I0J-249999D01*
G01*
X-51522060Y-26690825D01*
G75*
G02*
X-51772059Y-26940824I-249999J0D01*
G01*
X-53822061Y-26940824D01*
G75*
G02*
X-54072060Y-26690825I0J249999D01*
G01*
X-54072060Y-24940823D01*
G75*
G02*
X-53822061Y-24690824I249999J0D01*
G01*
G37*
G36*
G01*
X-53822061Y-18290824D02*
X-51772059Y-18290824D01*
G75*
G02*
X-51522060Y-18540823I0J-249999D01*
G01*
X-51522060Y-20290825D01*
G75*
G02*
X-51772059Y-20540824I-249999J0D01*
G01*
X-53822061Y-20540824D01*
G75*
G02*
X-54072060Y-20290825I0J249999D01*
G01*
X-54072060Y-18540823D01*
G75*
G02*
X-53822061Y-18290824I249999J0D01*
G01*
G37*
%TD*%
%TO.C,C101*%
G36*
G01*
X-58839001Y-24725000D02*
X-56788999Y-24725000D01*
G75*
G02*
X-56539000Y-24974999I0J-249999D01*
G01*
X-56539000Y-26725001D01*
G75*
G02*
X-56788999Y-26975000I-249999J0D01*
G01*
X-58839001Y-26975000D01*
G75*
G02*
X-59089000Y-26725001I0J249999D01*
G01*
X-59089000Y-24974999D01*
G75*
G02*
X-58839001Y-24725000I249999J0D01*
G01*
G37*
G36*
G01*
X-58839001Y-18325000D02*
X-56788999Y-18325000D01*
G75*
G02*
X-56539000Y-18574999I0J-249999D01*
G01*
X-56539000Y-20325001D01*
G75*
G02*
X-56788999Y-20575000I-249999J0D01*
G01*
X-58839001Y-20575000D01*
G75*
G02*
X-59089000Y-20325001I0J249999D01*
G01*
X-59089000Y-18574999D01*
G75*
G02*
X-58839001Y-18325000I249999J0D01*
G01*
G37*
%TD*%
%TO.C,R103*%
G36*
G01*
X-68528600Y-21284799D02*
X-68528600Y-22184801D01*
G75*
G02*
X-68778599Y-22434800I-249999J0D01*
G01*
X-69303601Y-22434800D01*
G75*
G02*
X-69553600Y-22184801I0J249999D01*
G01*
X-69553600Y-21284799D01*
G75*
G02*
X-69303601Y-21034800I249999J0D01*
G01*
X-68778599Y-21034800D01*
G75*
G02*
X-68528600Y-21284799I0J-249999D01*
G01*
G37*
G36*
G01*
X-66703600Y-21284799D02*
X-66703600Y-22184801D01*
G75*
G02*
X-66953599Y-22434800I-249999J0D01*
G01*
X-67478601Y-22434800D01*
G75*
G02*
X-67728600Y-22184801I0J249999D01*
G01*
X-67728600Y-21284799D01*
G75*
G02*
X-67478601Y-21034800I249999J0D01*
G01*
X-66953599Y-21034800D01*
G75*
G02*
X-66703600Y-21284799I0J-249999D01*
G01*
G37*
%TD*%
%TO.C,C104*%
G36*
G01*
X-40139000Y-22350000D02*
X-39189000Y-22350000D01*
G75*
G02*
X-38939000Y-22600000I0J-250000D01*
G01*
X-38939000Y-23100000D01*
G75*
G02*
X-39189000Y-23350000I-250000J0D01*
G01*
X-40139000Y-23350000D01*
G75*
G02*
X-40389000Y-23100000I0J250000D01*
G01*
X-40389000Y-22600000D01*
G75*
G02*
X-40139000Y-22350000I250000J0D01*
G01*
G37*
G36*
G01*
X-40139000Y-20450000D02*
X-39189000Y-20450000D01*
G75*
G02*
X-38939000Y-20700000I0J-250000D01*
G01*
X-38939000Y-21200000D01*
G75*
G02*
X-39189000Y-21450000I-250000J0D01*
G01*
X-40139000Y-21450000D01*
G75*
G02*
X-40389000Y-21200000I0J250000D01*
G01*
X-40389000Y-20700000D01*
G75*
G02*
X-40139000Y-20450000I250000J0D01*
G01*
G37*
%TD*%
%TO.C,R105*%
G36*
G01*
X-57264000Y-17300001D02*
X-57264000Y-16399999D01*
G75*
G02*
X-57014001Y-16150000I249999J0D01*
G01*
X-56488999Y-16150000D01*
G75*
G02*
X-56239000Y-16399999I0J-249999D01*
G01*
X-56239000Y-17300001D01*
G75*
G02*
X-56488999Y-17550000I-249999J0D01*
G01*
X-57014001Y-17550000D01*
G75*
G02*
X-57264000Y-17300001I0J249999D01*
G01*
G37*
G36*
G01*
X-59089000Y-17300001D02*
X-59089000Y-16399999D01*
G75*
G02*
X-58839001Y-16150000I249999J0D01*
G01*
X-58313999Y-16150000D01*
G75*
G02*
X-58064000Y-16399999I0J-249999D01*
G01*
X-58064000Y-17300001D01*
G75*
G02*
X-58313999Y-17550000I-249999J0D01*
G01*
X-58839001Y-17550000D01*
G75*
G02*
X-59089000Y-17300001I0J249999D01*
G01*
G37*
%TD*%
%TO.C,R102*%
G36*
G01*
X-68461160Y-23358423D02*
X-68461160Y-24258425D01*
G75*
G02*
X-68711159Y-24508424I-249999J0D01*
G01*
X-69236161Y-24508424D01*
G75*
G02*
X-69486160Y-24258425I0J249999D01*
G01*
X-69486160Y-23358423D01*
G75*
G02*
X-69236161Y-23108424I249999J0D01*
G01*
X-68711159Y-23108424D01*
G75*
G02*
X-68461160Y-23358423I0J-249999D01*
G01*
G37*
G36*
G01*
X-66636160Y-23358423D02*
X-66636160Y-24258425D01*
G75*
G02*
X-66886159Y-24508424I-249999J0D01*
G01*
X-67411161Y-24508424D01*
G75*
G02*
X-67661160Y-24258425I0J249999D01*
G01*
X-67661160Y-23358423D01*
G75*
G02*
X-67411161Y-23108424I249999J0D01*
G01*
X-66886159Y-23108424D01*
G75*
G02*
X-66636160Y-23358423I0J-249999D01*
G01*
G37*
%TD*%
%TO.C,R101*%
G36*
G01*
X-67627000Y-26299601D02*
X-67627000Y-25399599D01*
G75*
G02*
X-67377001Y-25149600I249999J0D01*
G01*
X-66851999Y-25149600D01*
G75*
G02*
X-66602000Y-25399599I0J-249999D01*
G01*
X-66602000Y-26299601D01*
G75*
G02*
X-66851999Y-26549600I-249999J0D01*
G01*
X-67377001Y-26549600D01*
G75*
G02*
X-67627000Y-26299601I0J249999D01*
G01*
G37*
G36*
G01*
X-69452000Y-26299601D02*
X-69452000Y-25399599D01*
G75*
G02*
X-69202001Y-25149600I249999J0D01*
G01*
X-68676999Y-25149600D01*
G75*
G02*
X-68427000Y-25399599I0J-249999D01*
G01*
X-68427000Y-26299601D01*
G75*
G02*
X-68676999Y-26549600I-249999J0D01*
G01*
X-69202001Y-26549600D01*
G75*
G02*
X-69452000Y-26299601I0J249999D01*
G01*
G37*
%TD*%
%TO.C,R104*%
G36*
G01*
X-60963999Y-17200000D02*
X-61864001Y-17200000D01*
G75*
G02*
X-62114000Y-16950001I0J249999D01*
G01*
X-62114000Y-16424999D01*
G75*
G02*
X-61864001Y-16175000I249999J0D01*
G01*
X-60963999Y-16175000D01*
G75*
G02*
X-60714000Y-16424999I0J-249999D01*
G01*
X-60714000Y-16950001D01*
G75*
G02*
X-60963999Y-17200000I-249999J0D01*
G01*
G37*
G36*
G01*
X-60963999Y-19025000D02*
X-61864001Y-19025000D01*
G75*
G02*
X-62114000Y-18775001I0J249999D01*
G01*
X-62114000Y-18249999D01*
G75*
G02*
X-61864001Y-18000000I249999J0D01*
G01*
X-60963999Y-18000000D01*
G75*
G02*
X-60714000Y-18249999I0J-249999D01*
G01*
X-60714000Y-18775001D01*
G75*
G02*
X-60963999Y-19025000I-249999J0D01*
G01*
G37*
%TD*%
%TO.C,C103*%
G36*
G01*
X-47739000Y-25950000D02*
X-46789000Y-25950000D01*
G75*
G02*
X-46539000Y-26200000I0J-250000D01*
G01*
X-46539000Y-26700000D01*
G75*
G02*
X-46789000Y-26950000I-250000J0D01*
G01*
X-47739000Y-26950000D01*
G75*
G02*
X-47989000Y-26700000I0J250000D01*
G01*
X-47989000Y-26200000D01*
G75*
G02*
X-47739000Y-25950000I250000J0D01*
G01*
G37*
G36*
G01*
X-47739000Y-24050000D02*
X-46789000Y-24050000D01*
G75*
G02*
X-46539000Y-24300000I0J-250000D01*
G01*
X-46539000Y-24800000D01*
G75*
G02*
X-46789000Y-25050000I-250000J0D01*
G01*
X-47739000Y-25050000D01*
G75*
G02*
X-47989000Y-24800000I0J250000D01*
G01*
X-47989000Y-24300000D01*
G75*
G02*
X-47739000Y-24050000I250000J0D01*
G01*
G37*
%TD*%
%TO.C,R109*%
G36*
G01*
X-53964000Y-16399999D02*
X-53964000Y-17300001D01*
G75*
G02*
X-54213999Y-17550000I-249999J0D01*
G01*
X-54739001Y-17550000D01*
G75*
G02*
X-54989000Y-17300001I0J249999D01*
G01*
X-54989000Y-16399999D01*
G75*
G02*
X-54739001Y-16150000I249999J0D01*
G01*
X-54213999Y-16150000D01*
G75*
G02*
X-53964000Y-16399999I0J-249999D01*
G01*
G37*
G36*
G01*
X-52139000Y-16399999D02*
X-52139000Y-17300001D01*
G75*
G02*
X-52388999Y-17550000I-249999J0D01*
G01*
X-52914001Y-17550000D01*
G75*
G02*
X-53164000Y-17300001I0J249999D01*
G01*
X-53164000Y-16399999D01*
G75*
G02*
X-52914001Y-16150000I249999J0D01*
G01*
X-52388999Y-16150000D01*
G75*
G02*
X-52139000Y-16399999I0J-249999D01*
G01*
G37*
%TD*%
%TO.C,R108*%
G36*
G01*
X-44763999Y-25100000D02*
X-45664001Y-25100000D01*
G75*
G02*
X-45914000Y-24850001I0J249999D01*
G01*
X-45914000Y-24324999D01*
G75*
G02*
X-45664001Y-24075000I249999J0D01*
G01*
X-44763999Y-24075000D01*
G75*
G02*
X-44514000Y-24324999I0J-249999D01*
G01*
X-44514000Y-24850001D01*
G75*
G02*
X-44763999Y-25100000I-249999J0D01*
G01*
G37*
G36*
G01*
X-44763999Y-26925000D02*
X-45664001Y-26925000D01*
G75*
G02*
X-45914000Y-26675001I0J249999D01*
G01*
X-45914000Y-26149999D01*
G75*
G02*
X-45664001Y-25900000I249999J0D01*
G01*
X-44763999Y-25900000D01*
G75*
G02*
X-44514000Y-26149999I0J-249999D01*
G01*
X-44514000Y-26675001D01*
G75*
G02*
X-44763999Y-26925000I-249999J0D01*
G01*
G37*
%TD*%
%TO.C,R112*%
G36*
G01*
X-43914000Y-18099999D02*
X-43914000Y-19000001D01*
G75*
G02*
X-44163999Y-19250000I-249999J0D01*
G01*
X-44689001Y-19250000D01*
G75*
G02*
X-44939000Y-19000001I0J249999D01*
G01*
X-44939000Y-18099999D01*
G75*
G02*
X-44689001Y-17850000I249999J0D01*
G01*
X-44163999Y-17850000D01*
G75*
G02*
X-43914000Y-18099999I0J-249999D01*
G01*
G37*
G36*
G01*
X-42089000Y-18099999D02*
X-42089000Y-19000001D01*
G75*
G02*
X-42338999Y-19250000I-249999J0D01*
G01*
X-42864001Y-19250000D01*
G75*
G02*
X-43114000Y-19000001I0J249999D01*
G01*
X-43114000Y-18099999D01*
G75*
G02*
X-42864001Y-17850000I249999J0D01*
G01*
X-42338999Y-17850000D01*
G75*
G02*
X-42089000Y-18099999I0J-249999D01*
G01*
G37*
%TD*%
%TO.C,R107*%
G36*
G01*
X-49764001Y-25887500D02*
X-48863999Y-25887500D01*
G75*
G02*
X-48614000Y-26137499I0J-249999D01*
G01*
X-48614000Y-26662501D01*
G75*
G02*
X-48863999Y-26912500I-249999J0D01*
G01*
X-49764001Y-26912500D01*
G75*
G02*
X-50014000Y-26662501I0J249999D01*
G01*
X-50014000Y-26137499D01*
G75*
G02*
X-49764001Y-25887500I249999J0D01*
G01*
G37*
G36*
G01*
X-49764001Y-24062500D02*
X-48863999Y-24062500D01*
G75*
G02*
X-48614000Y-24312499I0J-249999D01*
G01*
X-48614000Y-24837501D01*
G75*
G02*
X-48863999Y-25087500I-249999J0D01*
G01*
X-49764001Y-25087500D01*
G75*
G02*
X-50014000Y-24837501I0J249999D01*
G01*
X-50014000Y-24312499D01*
G75*
G02*
X-49764001Y-24062500I249999J0D01*
G01*
G37*
%TD*%
%TO.C,R106*%
G36*
G01*
X-47014001Y-18250000D02*
X-46113999Y-18250000D01*
G75*
G02*
X-45864000Y-18499999I0J-249999D01*
G01*
X-45864000Y-19025001D01*
G75*
G02*
X-46113999Y-19275000I-249999J0D01*
G01*
X-47014001Y-19275000D01*
G75*
G02*
X-47264000Y-19025001I0J249999D01*
G01*
X-47264000Y-18499999D01*
G75*
G02*
X-47014001Y-18250000I249999J0D01*
G01*
G37*
G36*
G01*
X-47014001Y-16425000D02*
X-46113999Y-16425000D01*
G75*
G02*
X-45864000Y-16674999I0J-249999D01*
G01*
X-45864000Y-17200001D01*
G75*
G02*
X-46113999Y-17450000I-249999J0D01*
G01*
X-47014001Y-17450000D01*
G75*
G02*
X-47264000Y-17200001I0J249999D01*
G01*
X-47264000Y-16674999D01*
G75*
G02*
X-47014001Y-16425000I249999J0D01*
G01*
G37*
%TD*%
%TO.C,R111*%
G36*
G01*
X-42114001Y-22300000D02*
X-41213999Y-22300000D01*
G75*
G02*
X-40964000Y-22549999I0J-249999D01*
G01*
X-40964000Y-23075001D01*
G75*
G02*
X-41213999Y-23325000I-249999J0D01*
G01*
X-42114001Y-23325000D01*
G75*
G02*
X-42364000Y-23075001I0J249999D01*
G01*
X-42364000Y-22549999D01*
G75*
G02*
X-42114001Y-22300000I249999J0D01*
G01*
G37*
G36*
G01*
X-42114001Y-20475000D02*
X-41213999Y-20475000D01*
G75*
G02*
X-40964000Y-20724999I0J-249999D01*
G01*
X-40964000Y-21250001D01*
G75*
G02*
X-41213999Y-21500000I-249999J0D01*
G01*
X-42114001Y-21500000D01*
G75*
G02*
X-42364000Y-21250001I0J249999D01*
G01*
X-42364000Y-20724999D01*
G75*
G02*
X-42114001Y-20475000I249999J0D01*
G01*
G37*
%TD*%
%TO.C,R110*%
G36*
G01*
X-48363999Y-17400000D02*
X-49264001Y-17400000D01*
G75*
G02*
X-49514000Y-17150001I0J249999D01*
G01*
X-49514000Y-16624999D01*
G75*
G02*
X-49264001Y-16375000I249999J0D01*
G01*
X-48363999Y-16375000D01*
G75*
G02*
X-48114000Y-16624999I0J-249999D01*
G01*
X-48114000Y-17150001D01*
G75*
G02*
X-48363999Y-17400000I-249999J0D01*
G01*
G37*
G36*
G01*
X-48363999Y-19225000D02*
X-49264001Y-19225000D01*
G75*
G02*
X-49514000Y-18975001I0J249999D01*
G01*
X-49514000Y-18449999D01*
G75*
G02*
X-49264001Y-18200000I249999J0D01*
G01*
X-48363999Y-18200000D01*
G75*
G02*
X-48114000Y-18449999I0J-249999D01*
G01*
X-48114000Y-18975001D01*
G75*
G02*
X-48363999Y-19225000I-249999J0D01*
G01*
G37*
%TD*%
D12*
%TO.C,Q107*%
X-42814000Y-25550000D03*
X-39814000Y-24600000D03*
X-39814000Y-26500000D03*
%TD*%
%TO.C,Q104*%
X-61795060Y-21317824D03*
X-64795060Y-22267824D03*
X-64795060Y-20367824D03*
%TD*%
D13*
%TO.C,U101*%
X-44354000Y-20650000D03*
X-44354000Y-22550000D03*
X-47774000Y-22550000D03*
X-47774000Y-21600000D03*
X-47774000Y-20650000D03*
%TD*%
D12*
%TO.C,Q101*%
X-61777200Y-25062200D03*
X-64777200Y-26012200D03*
X-64777200Y-24112200D03*
%TD*%
%TO.C,R221*%
G36*
G01*
X-80799500Y-62325999D02*
X-80799500Y-63226001D01*
G75*
G02*
X-81049499Y-63476000I-249999J0D01*
G01*
X-81574501Y-63476000D01*
G75*
G02*
X-81824500Y-63226001I0J249999D01*
G01*
X-81824500Y-62325999D01*
G75*
G02*
X-81574501Y-62076000I249999J0D01*
G01*
X-81049499Y-62076000D01*
G75*
G02*
X-80799500Y-62325999I0J-249999D01*
G01*
G37*
G36*
G01*
X-78974500Y-62325999D02*
X-78974500Y-63226001D01*
G75*
G02*
X-79224499Y-63476000I-249999J0D01*
G01*
X-79749501Y-63476000D01*
G75*
G02*
X-79999500Y-63226001I0J249999D01*
G01*
X-79999500Y-62325999D01*
G75*
G02*
X-79749501Y-62076000I249999J0D01*
G01*
X-79224499Y-62076000D01*
G75*
G02*
X-78974500Y-62325999I0J-249999D01*
G01*
G37*
%TD*%
%TO.C,R220*%
G36*
G01*
X-75273999Y-54248000D02*
X-76174001Y-54248000D01*
G75*
G02*
X-76424000Y-53998001I0J249999D01*
G01*
X-76424000Y-53472999D01*
G75*
G02*
X-76174001Y-53223000I249999J0D01*
G01*
X-75273999Y-53223000D01*
G75*
G02*
X-75024000Y-53472999I0J-249999D01*
G01*
X-75024000Y-53998001D01*
G75*
G02*
X-75273999Y-54248000I-249999J0D01*
G01*
G37*
G36*
G01*
X-75273999Y-56073000D02*
X-76174001Y-56073000D01*
G75*
G02*
X-76424000Y-55823001I0J249999D01*
G01*
X-76424000Y-55297999D01*
G75*
G02*
X-76174001Y-55048000I249999J0D01*
G01*
X-75273999Y-55048000D01*
G75*
G02*
X-75024000Y-55297999I0J-249999D01*
G01*
X-75024000Y-55823001D01*
G75*
G02*
X-75273999Y-56073000I-249999J0D01*
G01*
G37*
%TD*%
D14*
%TO.C,Q207*%
X-76740000Y-61228000D03*
X-77690000Y-58228000D03*
X-75790000Y-58228000D03*
%TD*%
%TO.C,C107*%
G36*
G01*
X-53647941Y-40872400D02*
X-51597939Y-40872400D01*
G75*
G02*
X-51347940Y-41122399I0J-249999D01*
G01*
X-51347940Y-42872401D01*
G75*
G02*
X-51597939Y-43122400I-249999J0D01*
G01*
X-53647941Y-43122400D01*
G75*
G02*
X-53897940Y-42872401I0J249999D01*
G01*
X-53897940Y-41122399D01*
G75*
G02*
X-53647941Y-40872400I249999J0D01*
G01*
G37*
G36*
G01*
X-53647941Y-34472400D02*
X-51597939Y-34472400D01*
G75*
G02*
X-51347940Y-34722399I0J-249999D01*
G01*
X-51347940Y-36472401D01*
G75*
G02*
X-51597939Y-36722400I-249999J0D01*
G01*
X-53647941Y-36722400D01*
G75*
G02*
X-53897940Y-36472401I0J249999D01*
G01*
X-53897940Y-34722399D01*
G75*
G02*
X-53647941Y-34472400I249999J0D01*
G01*
G37*
%TD*%
%TO.C,R137*%
G36*
G01*
X-28301999Y-36473000D02*
X-29202001Y-36473000D01*
G75*
G02*
X-29452000Y-36223001I0J249999D01*
G01*
X-29452000Y-35697999D01*
G75*
G02*
X-29202001Y-35448000I249999J0D01*
G01*
X-28301999Y-35448000D01*
G75*
G02*
X-28052000Y-35697999I0J-249999D01*
G01*
X-28052000Y-36223001D01*
G75*
G02*
X-28301999Y-36473000I-249999J0D01*
G01*
G37*
G36*
G01*
X-28301999Y-34648000D02*
X-29202001Y-34648000D01*
G75*
G02*
X-29452000Y-34398001I0J249999D01*
G01*
X-29452000Y-33872999D01*
G75*
G02*
X-29202001Y-33623000I249999J0D01*
G01*
X-28301999Y-33623000D01*
G75*
G02*
X-28052000Y-33872999I0J-249999D01*
G01*
X-28052000Y-34398001D01*
G75*
G02*
X-28301999Y-34648000I-249999J0D01*
G01*
G37*
%TD*%
%TO.C,C114*%
G36*
G01*
X-33377000Y-33578000D02*
X-32427000Y-33578000D01*
G75*
G02*
X-32177000Y-33828000I0J-250000D01*
G01*
X-32177000Y-34328000D01*
G75*
G02*
X-32427000Y-34578000I-250000J0D01*
G01*
X-33377000Y-34578000D01*
G75*
G02*
X-33627000Y-34328000I0J250000D01*
G01*
X-33627000Y-33828000D01*
G75*
G02*
X-33377000Y-33578000I250000J0D01*
G01*
G37*
G36*
G01*
X-33377000Y-35478000D02*
X-32427000Y-35478000D01*
G75*
G02*
X-32177000Y-35728000I0J-250000D01*
G01*
X-32177000Y-36228000D01*
G75*
G02*
X-32427000Y-36478000I-250000J0D01*
G01*
X-33377000Y-36478000D01*
G75*
G02*
X-33627000Y-36228000I0J250000D01*
G01*
X-33627000Y-35728000D01*
G75*
G02*
X-33377000Y-35478000I250000J0D01*
G01*
G37*
%TD*%
%TO.C,C113*%
G36*
G01*
X-31267000Y-33588000D02*
X-30317000Y-33588000D01*
G75*
G02*
X-30067000Y-33838000I0J-250000D01*
G01*
X-30067000Y-34338000D01*
G75*
G02*
X-30317000Y-34588000I-250000J0D01*
G01*
X-31267000Y-34588000D01*
G75*
G02*
X-31517000Y-34338000I0J250000D01*
G01*
X-31517000Y-33838000D01*
G75*
G02*
X-31267000Y-33588000I250000J0D01*
G01*
G37*
G36*
G01*
X-31267000Y-35488000D02*
X-30317000Y-35488000D01*
G75*
G02*
X-30067000Y-35738000I0J-250000D01*
G01*
X-30067000Y-36238000D01*
G75*
G02*
X-30317000Y-36488000I-250000J0D01*
G01*
X-31267000Y-36488000D01*
G75*
G02*
X-31517000Y-36238000I0J250000D01*
G01*
X-31517000Y-35738000D01*
G75*
G02*
X-31267000Y-35488000I250000J0D01*
G01*
G37*
%TD*%
D15*
%TO.C,BT201*%
X-61169800Y-64331200D03*
X-61169800Y-93631200D03*
%TD*%
%TO.C,BT202*%
X-38386000Y-64379820D03*
X-38386000Y-93679820D03*
%TD*%
D16*
%TO.C,J203*%
X-5292000Y-46150000D03*
X-5292000Y-47400000D03*
X-5292000Y-48650000D03*
D17*
X-2592000Y-50900000D03*
X-2592000Y-43900000D03*
%TD*%
%TO.C,R209*%
G36*
G01*
X-19786001Y-47174000D02*
X-18885999Y-47174000D01*
G75*
G02*
X-18636000Y-47423999I0J-249999D01*
G01*
X-18636000Y-47949001D01*
G75*
G02*
X-18885999Y-48199000I-249999J0D01*
G01*
X-19786001Y-48199000D01*
G75*
G02*
X-20036000Y-47949001I0J249999D01*
G01*
X-20036000Y-47423999D01*
G75*
G02*
X-19786001Y-47174000I249999J0D01*
G01*
G37*
G36*
G01*
X-19786001Y-45349000D02*
X-18885999Y-45349000D01*
G75*
G02*
X-18636000Y-45598999I0J-249999D01*
G01*
X-18636000Y-46124001D01*
G75*
G02*
X-18885999Y-46374000I-249999J0D01*
G01*
X-19786001Y-46374000D01*
G75*
G02*
X-20036000Y-46124001I0J249999D01*
G01*
X-20036000Y-45598999D01*
G75*
G02*
X-19786001Y-45349000I249999J0D01*
G01*
G37*
%TD*%
%TO.C,D206*%
G36*
G01*
X-17160500Y-46386000D02*
X-17635500Y-46386000D01*
G75*
G02*
X-17873000Y-46148500I0J237500D01*
G01*
X-17873000Y-45573500D01*
G75*
G02*
X-17635500Y-45336000I237500J0D01*
G01*
X-17160500Y-45336000D01*
G75*
G02*
X-16923000Y-45573500I0J-237500D01*
G01*
X-16923000Y-46148500D01*
G75*
G02*
X-17160500Y-46386000I-237500J0D01*
G01*
G37*
G36*
G01*
X-17160500Y-48136000D02*
X-17635500Y-48136000D01*
G75*
G02*
X-17873000Y-47898500I0J237500D01*
G01*
X-17873000Y-47323500D01*
G75*
G02*
X-17635500Y-47086000I237500J0D01*
G01*
X-17160500Y-47086000D01*
G75*
G02*
X-16923000Y-47323500I0J-237500D01*
G01*
X-16923000Y-47898500D01*
G75*
G02*
X-17160500Y-48136000I-237500J0D01*
G01*
G37*
%TD*%
D18*
%TO.C,D201*%
X-75978000Y-91306000D03*
X-75978000Y-82506000D03*
%TD*%
%TO.C,C108*%
G36*
G01*
X-53289801Y-56290600D02*
X-51239799Y-56290600D01*
G75*
G02*
X-50989800Y-56540599I0J-249999D01*
G01*
X-50989800Y-58290601D01*
G75*
G02*
X-51239799Y-58540600I-249999J0D01*
G01*
X-53289801Y-58540600D01*
G75*
G02*
X-53539800Y-58290601I0J249999D01*
G01*
X-53539800Y-56540599D01*
G75*
G02*
X-53289801Y-56290600I249999J0D01*
G01*
G37*
G36*
G01*
X-53289801Y-49890600D02*
X-51239799Y-49890600D01*
G75*
G02*
X-50989800Y-50140599I0J-249999D01*
G01*
X-50989800Y-51890601D01*
G75*
G02*
X-51239799Y-52140600I-249999J0D01*
G01*
X-53289801Y-52140600D01*
G75*
G02*
X-53539800Y-51890601I0J249999D01*
G01*
X-53539800Y-50140599D01*
G75*
G02*
X-53289801Y-49890600I249999J0D01*
G01*
G37*
%TD*%
%TO.C,C106*%
G36*
G01*
X-58750801Y-56239800D02*
X-56700799Y-56239800D01*
G75*
G02*
X-56450800Y-56489799I0J-249999D01*
G01*
X-56450800Y-58239801D01*
G75*
G02*
X-56700799Y-58489800I-249999J0D01*
G01*
X-58750801Y-58489800D01*
G75*
G02*
X-59000800Y-58239801I0J249999D01*
G01*
X-59000800Y-56489799D01*
G75*
G02*
X-58750801Y-56239800I249999J0D01*
G01*
G37*
G36*
G01*
X-58750801Y-49839800D02*
X-56700799Y-49839800D01*
G75*
G02*
X-56450800Y-50089799I0J-249999D01*
G01*
X-56450800Y-51839801D01*
G75*
G02*
X-56700799Y-52089800I-249999J0D01*
G01*
X-58750801Y-52089800D01*
G75*
G02*
X-59000800Y-51839801I0J249999D01*
G01*
X-59000800Y-50089799D01*
G75*
G02*
X-58750801Y-49839800I249999J0D01*
G01*
G37*
%TD*%
%TO.C,C105*%
G36*
G01*
X-58524741Y-40872800D02*
X-56474739Y-40872800D01*
G75*
G02*
X-56224740Y-41122799I0J-249999D01*
G01*
X-56224740Y-42872801D01*
G75*
G02*
X-56474739Y-43122800I-249999J0D01*
G01*
X-58524741Y-43122800D01*
G75*
G02*
X-58774740Y-42872801I0J249999D01*
G01*
X-58774740Y-41122799D01*
G75*
G02*
X-58524741Y-40872800I249999J0D01*
G01*
G37*
G36*
G01*
X-58524741Y-34472800D02*
X-56474739Y-34472800D01*
G75*
G02*
X-56224740Y-34722799I0J-249999D01*
G01*
X-56224740Y-36472801D01*
G75*
G02*
X-56474739Y-36722800I-249999J0D01*
G01*
X-58524741Y-36722800D01*
G75*
G02*
X-58774740Y-36472801I0J249999D01*
G01*
X-58774740Y-34722799D01*
G75*
G02*
X-58524741Y-34472800I249999J0D01*
G01*
G37*
%TD*%
%TO.C,U260*%
G36*
G01*
X-82350100Y-36609980D02*
X-82350100Y-36884980D01*
G75*
G02*
X-82487600Y-37022480I-137500J0D01*
G01*
X-83662600Y-37022480D01*
G75*
G02*
X-83800100Y-36884980I0J137500D01*
G01*
X-83800100Y-36609980D01*
G75*
G02*
X-83662600Y-36472480I137500J0D01*
G01*
X-82487600Y-36472480D01*
G75*
G02*
X-82350100Y-36609980I0J-137500D01*
G01*
G37*
G36*
G01*
X-82350100Y-34069980D02*
X-82350100Y-34344980D01*
G75*
G02*
X-82487600Y-34482480I-137500J0D01*
G01*
X-83662600Y-34482480D01*
G75*
G02*
X-83800100Y-34344980I0J137500D01*
G01*
X-83800100Y-34069980D01*
G75*
G02*
X-83662600Y-33932480I137500J0D01*
G01*
X-82487600Y-33932480D01*
G75*
G02*
X-82350100Y-34069980I0J-137500D01*
G01*
G37*
G36*
G01*
X-76850100Y-34069980D02*
X-76850100Y-34344980D01*
G75*
G02*
X-76987600Y-34482480I-137500J0D01*
G01*
X-78162600Y-34482480D01*
G75*
G02*
X-78300100Y-34344980I0J137500D01*
G01*
X-78300100Y-34069980D01*
G75*
G02*
X-78162600Y-33932480I137500J0D01*
G01*
X-76987600Y-33932480D01*
G75*
G02*
X-76850100Y-34069980I0J-137500D01*
G01*
G37*
G36*
G01*
X-76850100Y-36609980D02*
X-76850100Y-36884980D01*
G75*
G02*
X-76987600Y-37022480I-137500J0D01*
G01*
X-78162600Y-37022480D01*
G75*
G02*
X-78300100Y-36884980I0J137500D01*
G01*
X-78300100Y-36609980D01*
G75*
G02*
X-78162600Y-36472480I137500J0D01*
G01*
X-76987600Y-36472480D01*
G75*
G02*
X-76850100Y-36609980I0J-137500D01*
G01*
G37*
%TD*%
%TO.C,U250*%
G36*
G01*
X-7711680Y-36354580D02*
X-7711680Y-36079580D01*
G75*
G02*
X-7574180Y-35942080I137500J0D01*
G01*
X-6399180Y-35942080D01*
G75*
G02*
X-6261680Y-36079580I0J-137500D01*
G01*
X-6261680Y-36354580D01*
G75*
G02*
X-6399180Y-36492080I-137500J0D01*
G01*
X-7574180Y-36492080D01*
G75*
G02*
X-7711680Y-36354580I0J137500D01*
G01*
G37*
G36*
G01*
X-7711680Y-38894580D02*
X-7711680Y-38619580D01*
G75*
G02*
X-7574180Y-38482080I137500J0D01*
G01*
X-6399180Y-38482080D01*
G75*
G02*
X-6261680Y-38619580I0J-137500D01*
G01*
X-6261680Y-38894580D01*
G75*
G02*
X-6399180Y-39032080I-137500J0D01*
G01*
X-7574180Y-39032080D01*
G75*
G02*
X-7711680Y-38894580I0J137500D01*
G01*
G37*
G36*
G01*
X-13211680Y-38894580D02*
X-13211680Y-38619580D01*
G75*
G02*
X-13074180Y-38482080I137500J0D01*
G01*
X-11899180Y-38482080D01*
G75*
G02*
X-11761680Y-38619580I0J-137500D01*
G01*
X-11761680Y-38894580D01*
G75*
G02*
X-11899180Y-39032080I-137500J0D01*
G01*
X-13074180Y-39032080D01*
G75*
G02*
X-13211680Y-38894580I0J137500D01*
G01*
G37*
G36*
G01*
X-13211680Y-36354580D02*
X-13211680Y-36079580D01*
G75*
G02*
X-13074180Y-35942080I137500J0D01*
G01*
X-11899180Y-35942080D01*
G75*
G02*
X-11761680Y-36079580I0J-137500D01*
G01*
X-11761680Y-36354580D01*
G75*
G02*
X-11899180Y-36492080I-137500J0D01*
G01*
X-13074180Y-36492080D01*
G75*
G02*
X-13211680Y-36354580I0J137500D01*
G01*
G37*
%TD*%
%TO.C,U240*%
G36*
G01*
X-7471380Y-60519880D02*
X-7471380Y-60244880D01*
G75*
G02*
X-7333880Y-60107380I137500J0D01*
G01*
X-6158880Y-60107380D01*
G75*
G02*
X-6021380Y-60244880I0J-137500D01*
G01*
X-6021380Y-60519880D01*
G75*
G02*
X-6158880Y-60657380I-137500J0D01*
G01*
X-7333880Y-60657380D01*
G75*
G02*
X-7471380Y-60519880I0J137500D01*
G01*
G37*
G36*
G01*
X-7471380Y-63059880D02*
X-7471380Y-62784880D01*
G75*
G02*
X-7333880Y-62647380I137500J0D01*
G01*
X-6158880Y-62647380D01*
G75*
G02*
X-6021380Y-62784880I0J-137500D01*
G01*
X-6021380Y-63059880D01*
G75*
G02*
X-6158880Y-63197380I-137500J0D01*
G01*
X-7333880Y-63197380D01*
G75*
G02*
X-7471380Y-63059880I0J137500D01*
G01*
G37*
G36*
G01*
X-12971380Y-63059880D02*
X-12971380Y-62784880D01*
G75*
G02*
X-12833880Y-62647380I137500J0D01*
G01*
X-11658880Y-62647380D01*
G75*
G02*
X-11521380Y-62784880I0J-137500D01*
G01*
X-11521380Y-63059880D01*
G75*
G02*
X-11658880Y-63197380I-137500J0D01*
G01*
X-12833880Y-63197380D01*
G75*
G02*
X-12971380Y-63059880I0J137500D01*
G01*
G37*
G36*
G01*
X-12971380Y-60519880D02*
X-12971380Y-60244880D01*
G75*
G02*
X-12833880Y-60107380I137500J0D01*
G01*
X-11658880Y-60107380D01*
G75*
G02*
X-11521380Y-60244880I0J-137500D01*
G01*
X-11521380Y-60519880D01*
G75*
G02*
X-11658880Y-60657380I-137500J0D01*
G01*
X-12833880Y-60657380D01*
G75*
G02*
X-12971380Y-60519880I0J137500D01*
G01*
G37*
%TD*%
%TO.C,R216*%
G36*
G01*
X-83564021Y-39969420D02*
X-82664019Y-39969420D01*
G75*
G02*
X-82414020Y-40219419I0J-249999D01*
G01*
X-82414020Y-40744421D01*
G75*
G02*
X-82664019Y-40994420I-249999J0D01*
G01*
X-83564021Y-40994420D01*
G75*
G02*
X-83814020Y-40744421I0J249999D01*
G01*
X-83814020Y-40219419D01*
G75*
G02*
X-83564021Y-39969420I249999J0D01*
G01*
G37*
G36*
G01*
X-83564021Y-38144420D02*
X-82664019Y-38144420D01*
G75*
G02*
X-82414020Y-38394419I0J-249999D01*
G01*
X-82414020Y-38919421D01*
G75*
G02*
X-82664019Y-39169420I-249999J0D01*
G01*
X-83564021Y-39169420D01*
G75*
G02*
X-83814020Y-38919421I0J249999D01*
G01*
X-83814020Y-38394419D01*
G75*
G02*
X-83564021Y-38144420I249999J0D01*
G01*
G37*
%TD*%
%TO.C,R215*%
G36*
G01*
X-77060779Y-39182120D02*
X-77960781Y-39182120D01*
G75*
G02*
X-78210780Y-38932121I0J249999D01*
G01*
X-78210780Y-38407119D01*
G75*
G02*
X-77960781Y-38157120I249999J0D01*
G01*
X-77060779Y-38157120D01*
G75*
G02*
X-76810780Y-38407119I0J-249999D01*
G01*
X-76810780Y-38932121D01*
G75*
G02*
X-77060779Y-39182120I-249999J0D01*
G01*
G37*
G36*
G01*
X-77060779Y-41007120D02*
X-77960781Y-41007120D01*
G75*
G02*
X-78210780Y-40757121I0J249999D01*
G01*
X-78210780Y-40232119D01*
G75*
G02*
X-77960781Y-39982120I249999J0D01*
G01*
X-77060779Y-39982120D01*
G75*
G02*
X-76810780Y-40232119I0J-249999D01*
G01*
X-76810780Y-40757121D01*
G75*
G02*
X-77060779Y-41007120I-249999J0D01*
G01*
G37*
%TD*%
%TO.C,R213*%
G36*
G01*
X-12937501Y-33838320D02*
X-12037499Y-33838320D01*
G75*
G02*
X-11787500Y-34088319I0J-249999D01*
G01*
X-11787500Y-34613321D01*
G75*
G02*
X-12037499Y-34863320I-249999J0D01*
G01*
X-12937501Y-34863320D01*
G75*
G02*
X-13187500Y-34613321I0J249999D01*
G01*
X-13187500Y-34088319D01*
G75*
G02*
X-12937501Y-33838320I249999J0D01*
G01*
G37*
G36*
G01*
X-12937501Y-32013320D02*
X-12037499Y-32013320D01*
G75*
G02*
X-11787500Y-32263319I0J-249999D01*
G01*
X-11787500Y-32788321D01*
G75*
G02*
X-12037499Y-33038320I-249999J0D01*
G01*
X-12937501Y-33038320D01*
G75*
G02*
X-13187500Y-32788321I0J249999D01*
G01*
X-13187500Y-32263319D01*
G75*
G02*
X-12937501Y-32013320I249999J0D01*
G01*
G37*
%TD*%
%TO.C,R212*%
G36*
G01*
X-6224439Y-57084240D02*
X-7124441Y-57084240D01*
G75*
G02*
X-7374440Y-56834241I0J249999D01*
G01*
X-7374440Y-56309239D01*
G75*
G02*
X-7124441Y-56059240I249999J0D01*
G01*
X-6224439Y-56059240D01*
G75*
G02*
X-5974440Y-56309239I0J-249999D01*
G01*
X-5974440Y-56834241D01*
G75*
G02*
X-6224439Y-57084240I-249999J0D01*
G01*
G37*
G36*
G01*
X-6224439Y-58909240D02*
X-7124441Y-58909240D01*
G75*
G02*
X-7374440Y-58659241I0J249999D01*
G01*
X-7374440Y-58134239D01*
G75*
G02*
X-7124441Y-57884240I249999J0D01*
G01*
X-6224439Y-57884240D01*
G75*
G02*
X-5974440Y-58134239I0J-249999D01*
G01*
X-5974440Y-58659241D01*
G75*
G02*
X-6224439Y-58909240I-249999J0D01*
G01*
G37*
%TD*%
%TO.C,R211*%
G36*
G01*
X-12740381Y-57863920D02*
X-11840379Y-57863920D01*
G75*
G02*
X-11590380Y-58113919I0J-249999D01*
G01*
X-11590380Y-58638921D01*
G75*
G02*
X-11840379Y-58888920I-249999J0D01*
G01*
X-12740381Y-58888920D01*
G75*
G02*
X-12990380Y-58638921I0J249999D01*
G01*
X-12990380Y-58113919D01*
G75*
G02*
X-12740381Y-57863920I249999J0D01*
G01*
G37*
G36*
G01*
X-12740381Y-56038920D02*
X-11840379Y-56038920D01*
G75*
G02*
X-11590380Y-56288919I0J-249999D01*
G01*
X-11590380Y-56813921D01*
G75*
G02*
X-11840379Y-57063920I-249999J0D01*
G01*
X-12740381Y-57063920D01*
G75*
G02*
X-12990380Y-56813921I0J249999D01*
G01*
X-12990380Y-56288919D01*
G75*
G02*
X-12740381Y-56038920I249999J0D01*
G01*
G37*
%TD*%
D14*
%TO.C,Q206*%
X-80322560Y-42077800D03*
X-81272560Y-39077800D03*
X-79372560Y-39077800D03*
%TD*%
%TO.C,Q205*%
X-9703660Y-30917240D03*
X-8753660Y-33917240D03*
X-10653660Y-33917240D03*
%TD*%
%TO.C,Q204*%
X-9478600Y-54965700D03*
X-8528600Y-57965700D03*
X-10428600Y-57965700D03*
%TD*%
%TO.C,U230*%
G36*
G01*
X-9437000Y-45895500D02*
X-9437000Y-45620500D01*
G75*
G02*
X-9299500Y-45483000I137500J0D01*
G01*
X-8124500Y-45483000D01*
G75*
G02*
X-7987000Y-45620500I0J-137500D01*
G01*
X-7987000Y-45895500D01*
G75*
G02*
X-8124500Y-46033000I-137500J0D01*
G01*
X-9299500Y-46033000D01*
G75*
G02*
X-9437000Y-45895500I0J137500D01*
G01*
G37*
G36*
G01*
X-9437000Y-48435500D02*
X-9437000Y-48160500D01*
G75*
G02*
X-9299500Y-48023000I137500J0D01*
G01*
X-8124500Y-48023000D01*
G75*
G02*
X-7987000Y-48160500I0J-137500D01*
G01*
X-7987000Y-48435500D01*
G75*
G02*
X-8124500Y-48573000I-137500J0D01*
G01*
X-9299500Y-48573000D01*
G75*
G02*
X-9437000Y-48435500I0J137500D01*
G01*
G37*
G36*
G01*
X-14937000Y-48435500D02*
X-14937000Y-48160500D01*
G75*
G02*
X-14799500Y-48023000I137500J0D01*
G01*
X-13624500Y-48023000D01*
G75*
G02*
X-13487000Y-48160500I0J-137500D01*
G01*
X-13487000Y-48435500D01*
G75*
G02*
X-13624500Y-48573000I-137500J0D01*
G01*
X-14799500Y-48573000D01*
G75*
G02*
X-14937000Y-48435500I0J137500D01*
G01*
G37*
G36*
G01*
X-14937000Y-45895500D02*
X-14937000Y-45620500D01*
G75*
G02*
X-14799500Y-45483000I137500J0D01*
G01*
X-13624500Y-45483000D01*
G75*
G02*
X-13487000Y-45620500I0J-137500D01*
G01*
X-13487000Y-45895500D01*
G75*
G02*
X-13624500Y-46033000I-137500J0D01*
G01*
X-14799500Y-46033000D01*
G75*
G02*
X-14937000Y-45895500I0J137500D01*
G01*
G37*
%TD*%
%TO.C,R210*%
G36*
G01*
X-11862000Y-43021999D02*
X-11862000Y-43922001D01*
G75*
G02*
X-12111999Y-44172000I-249999J0D01*
G01*
X-12637001Y-44172000D01*
G75*
G02*
X-12887000Y-43922001I0J249999D01*
G01*
X-12887000Y-43021999D01*
G75*
G02*
X-12637001Y-42772000I249999J0D01*
G01*
X-12111999Y-42772000D01*
G75*
G02*
X-11862000Y-43021999I0J-249999D01*
G01*
G37*
G36*
G01*
X-10037000Y-43021999D02*
X-10037000Y-43922001D01*
G75*
G02*
X-10286999Y-44172000I-249999J0D01*
G01*
X-10812001Y-44172000D01*
G75*
G02*
X-11062000Y-43922001I0J249999D01*
G01*
X-11062000Y-43021999D01*
G75*
G02*
X-10812001Y-42772000I249999J0D01*
G01*
X-10286999Y-42772000D01*
G75*
G02*
X-10037000Y-43021999I0J-249999D01*
G01*
G37*
%TD*%
D13*
%TO.C,U103*%
X-43704000Y-52450000D03*
X-43704000Y-54350000D03*
X-47124000Y-54350000D03*
X-47124000Y-53400000D03*
X-47124000Y-52450000D03*
%TD*%
%TO.C,U102*%
X-44281000Y-36781000D03*
X-44281000Y-38681000D03*
X-47701000Y-38681000D03*
X-47701000Y-37731000D03*
X-47701000Y-36781000D03*
%TD*%
D14*
%TO.C,Q202*%
X-80550000Y-55180000D03*
X-79600000Y-58180000D03*
X-81500000Y-58180000D03*
%TD*%
%TO.C,Q201*%
X-24416000Y-73952000D03*
X-25366000Y-70952000D03*
X-23466000Y-70952000D03*
%TD*%
D12*
%TO.C,Q109*%
X-41445800Y-57035000D03*
X-38445800Y-56085000D03*
X-38445800Y-57985000D03*
%TD*%
%TO.C,Q108*%
X-42715800Y-41769600D03*
X-39715800Y-40819600D03*
X-39715800Y-42719600D03*
%TD*%
%TO.C,Q106*%
X-61763000Y-53352000D03*
X-64763000Y-54302000D03*
X-64763000Y-52402000D03*
%TD*%
%TO.C,Q105*%
X-61225340Y-36001800D03*
X-64225340Y-36951800D03*
X-64225340Y-35051800D03*
%TD*%
%TO.C,Q103*%
X-61763000Y-57085800D03*
X-64763000Y-58035800D03*
X-64763000Y-56135800D03*
%TD*%
%TO.C,Q102*%
X-61232140Y-39610600D03*
X-64232140Y-40560600D03*
X-64232140Y-38660600D03*
%TD*%
D19*
%TO.C,D203*%
X-15272000Y-79857500D03*
D20*
X-15272000Y-82208500D03*
%TD*%
%TO.C,C208*%
G36*
G01*
X-13356000Y-77592001D02*
X-13356000Y-75391999D01*
G75*
G02*
X-13106001Y-75142000I249999J0D01*
G01*
X-12280999Y-75142000D01*
G75*
G02*
X-12031000Y-75391999I0J-249999D01*
G01*
X-12031000Y-77592001D01*
G75*
G02*
X-12280999Y-77842000I-249999J0D01*
G01*
X-13106001Y-77842000D01*
G75*
G02*
X-13356000Y-77592001I0J249999D01*
G01*
G37*
G36*
G01*
X-16481000Y-77592001D02*
X-16481000Y-75391999D01*
G75*
G02*
X-16231001Y-75142000I249999J0D01*
G01*
X-15405999Y-75142000D01*
G75*
G02*
X-15156000Y-75391999I0J-249999D01*
G01*
X-15156000Y-77592001D01*
G75*
G02*
X-15405999Y-77842000I-249999J0D01*
G01*
X-16231001Y-77842000D01*
G75*
G02*
X-16481000Y-77592001I0J249999D01*
G01*
G37*
%TD*%
%TO.C,R204*%
G36*
G01*
X-24866001Y-66026500D02*
X-23965999Y-66026500D01*
G75*
G02*
X-23716000Y-66276499I0J-249999D01*
G01*
X-23716000Y-66801501D01*
G75*
G02*
X-23965999Y-67051500I-249999J0D01*
G01*
X-24866001Y-67051500D01*
G75*
G02*
X-25116000Y-66801501I0J249999D01*
G01*
X-25116000Y-66276499D01*
G75*
G02*
X-24866001Y-66026500I249999J0D01*
G01*
G37*
G36*
G01*
X-24866001Y-67851500D02*
X-23965999Y-67851500D01*
G75*
G02*
X-23716000Y-68101499I0J-249999D01*
G01*
X-23716000Y-68626501D01*
G75*
G02*
X-23965999Y-68876500I-249999J0D01*
G01*
X-24866001Y-68876500D01*
G75*
G02*
X-25116000Y-68626501I0J249999D01*
G01*
X-25116000Y-68101499D01*
G75*
G02*
X-24866001Y-67851500I249999J0D01*
G01*
G37*
%TD*%
%TO.C,C204*%
G36*
G01*
X-22204000Y-81097000D02*
X-22204000Y-82047000D01*
G75*
G02*
X-22454000Y-82297000I-250000J0D01*
G01*
X-22954000Y-82297000D01*
G75*
G02*
X-23204000Y-82047000I0J250000D01*
G01*
X-23204000Y-81097000D01*
G75*
G02*
X-22954000Y-80847000I250000J0D01*
G01*
X-22454000Y-80847000D01*
G75*
G02*
X-22204000Y-81097000I0J-250000D01*
G01*
G37*
G36*
G01*
X-24104000Y-81097000D02*
X-24104000Y-82047000D01*
G75*
G02*
X-24354000Y-82297000I-250000J0D01*
G01*
X-24854000Y-82297000D01*
G75*
G02*
X-25104000Y-82047000I0J250000D01*
G01*
X-25104000Y-81097000D01*
G75*
G02*
X-24854000Y-80847000I250000J0D01*
G01*
X-24354000Y-80847000D01*
G75*
G02*
X-24104000Y-81097000I0J-250000D01*
G01*
G37*
%TD*%
%TO.C,C205*%
G36*
G01*
X-22138000Y-76779000D02*
X-22138000Y-77729000D01*
G75*
G02*
X-22388000Y-77979000I-250000J0D01*
G01*
X-22888000Y-77979000D01*
G75*
G02*
X-23138000Y-77729000I0J250000D01*
G01*
X-23138000Y-76779000D01*
G75*
G02*
X-22888000Y-76529000I250000J0D01*
G01*
X-22388000Y-76529000D01*
G75*
G02*
X-22138000Y-76779000I0J-250000D01*
G01*
G37*
G36*
G01*
X-24038000Y-76779000D02*
X-24038000Y-77729000D01*
G75*
G02*
X-24288000Y-77979000I-250000J0D01*
G01*
X-24788000Y-77979000D01*
G75*
G02*
X-25038000Y-77729000I0J250000D01*
G01*
X-25038000Y-76779000D01*
G75*
G02*
X-24788000Y-76529000I250000J0D01*
G01*
X-24288000Y-76529000D01*
G75*
G02*
X-24038000Y-76779000I0J-250000D01*
G01*
G37*
%TD*%
%TO.C,R114*%
G36*
G01*
X-67585500Y-58297801D02*
X-67585500Y-57397799D01*
G75*
G02*
X-67335501Y-57147800I249999J0D01*
G01*
X-66810499Y-57147800D01*
G75*
G02*
X-66560500Y-57397799I0J-249999D01*
G01*
X-66560500Y-58297801D01*
G75*
G02*
X-66810499Y-58547800I-249999J0D01*
G01*
X-67335501Y-58547800D01*
G75*
G02*
X-67585500Y-58297801I0J249999D01*
G01*
G37*
G36*
G01*
X-69410500Y-58297801D02*
X-69410500Y-57397799D01*
G75*
G02*
X-69160501Y-57147800I249999J0D01*
G01*
X-68635499Y-57147800D01*
G75*
G02*
X-68385500Y-57397799I0J-249999D01*
G01*
X-68385500Y-58297801D01*
G75*
G02*
X-68635499Y-58547800I-249999J0D01*
G01*
X-69160501Y-58547800D01*
G75*
G02*
X-69410500Y-58297801I0J249999D01*
G01*
G37*
%TD*%
%TO.C,C111*%
G36*
G01*
X-40014400Y-38587400D02*
X-39064400Y-38587400D01*
G75*
G02*
X-38814400Y-38837400I0J-250000D01*
G01*
X-38814400Y-39337400D01*
G75*
G02*
X-39064400Y-39587400I-250000J0D01*
G01*
X-40014400Y-39587400D01*
G75*
G02*
X-40264400Y-39337400I0J250000D01*
G01*
X-40264400Y-38837400D01*
G75*
G02*
X-40014400Y-38587400I250000J0D01*
G01*
G37*
G36*
G01*
X-40014400Y-36687400D02*
X-39064400Y-36687400D01*
G75*
G02*
X-38814400Y-36937400I0J-250000D01*
G01*
X-38814400Y-37437400D01*
G75*
G02*
X-39064400Y-37687400I-250000J0D01*
G01*
X-40014400Y-37687400D01*
G75*
G02*
X-40264400Y-37437400I0J250000D01*
G01*
X-40264400Y-36937400D01*
G75*
G02*
X-40014400Y-36687400I250000J0D01*
G01*
G37*
%TD*%
%TO.C,C109*%
G36*
G01*
X-47502740Y-42118600D02*
X-46552740Y-42118600D01*
G75*
G02*
X-46302740Y-42368600I0J-250000D01*
G01*
X-46302740Y-42868600D01*
G75*
G02*
X-46552740Y-43118600I-250000J0D01*
G01*
X-47502740Y-43118600D01*
G75*
G02*
X-47752740Y-42868600I0J250000D01*
G01*
X-47752740Y-42368600D01*
G75*
G02*
X-47502740Y-42118600I250000J0D01*
G01*
G37*
G36*
G01*
X-47502740Y-40218600D02*
X-46552740Y-40218600D01*
G75*
G02*
X-46302740Y-40468600I0J-250000D01*
G01*
X-46302740Y-40968600D01*
G75*
G02*
X-46552740Y-41218600I-250000J0D01*
G01*
X-47502740Y-41218600D01*
G75*
G02*
X-47752740Y-40968600I0J250000D01*
G01*
X-47752740Y-40468600D01*
G75*
G02*
X-47502740Y-40218600I250000J0D01*
G01*
G37*
%TD*%
%TO.C,C112*%
G36*
G01*
X-38760400Y-53827400D02*
X-37810400Y-53827400D01*
G75*
G02*
X-37560400Y-54077400I0J-250000D01*
G01*
X-37560400Y-54577400D01*
G75*
G02*
X-37810400Y-54827400I-250000J0D01*
G01*
X-38760400Y-54827400D01*
G75*
G02*
X-39010400Y-54577400I0J250000D01*
G01*
X-39010400Y-54077400D01*
G75*
G02*
X-38760400Y-53827400I250000J0D01*
G01*
G37*
G36*
G01*
X-38760400Y-51927400D02*
X-37810400Y-51927400D01*
G75*
G02*
X-37560400Y-52177400I0J-250000D01*
G01*
X-37560400Y-52677400D01*
G75*
G02*
X-37810400Y-52927400I-250000J0D01*
G01*
X-38760400Y-52927400D01*
G75*
G02*
X-39010400Y-52677400I0J250000D01*
G01*
X-39010400Y-52177400D01*
G75*
G02*
X-38760400Y-51927400I250000J0D01*
G01*
G37*
%TD*%
%TO.C,C110*%
G36*
G01*
X-46618400Y-57510400D02*
X-45668400Y-57510400D01*
G75*
G02*
X-45418400Y-57760400I0J-250000D01*
G01*
X-45418400Y-58260400D01*
G75*
G02*
X-45668400Y-58510400I-250000J0D01*
G01*
X-46618400Y-58510400D01*
G75*
G02*
X-46868400Y-58260400I0J250000D01*
G01*
X-46868400Y-57760400D01*
G75*
G02*
X-46618400Y-57510400I250000J0D01*
G01*
G37*
G36*
G01*
X-46618400Y-55610400D02*
X-45668400Y-55610400D01*
G75*
G02*
X-45418400Y-55860400I0J-250000D01*
G01*
X-45418400Y-56360400D01*
G75*
G02*
X-45668400Y-56610400I-250000J0D01*
G01*
X-46618400Y-56610400D01*
G75*
G02*
X-46868400Y-56360400I0J250000D01*
G01*
X-46868400Y-55860400D01*
G75*
G02*
X-46618400Y-55610400I250000J0D01*
G01*
G37*
%TD*%
%TO.C,C207*%
G36*
G01*
X-21843000Y-71994000D02*
X-20893000Y-71994000D01*
G75*
G02*
X-20643000Y-72244000I0J-250000D01*
G01*
X-20643000Y-72744000D01*
G75*
G02*
X-20893000Y-72994000I-250000J0D01*
G01*
X-21843000Y-72994000D01*
G75*
G02*
X-22093000Y-72744000I0J250000D01*
G01*
X-22093000Y-72244000D01*
G75*
G02*
X-21843000Y-71994000I250000J0D01*
G01*
G37*
G36*
G01*
X-21843000Y-73894000D02*
X-20893000Y-73894000D01*
G75*
G02*
X-20643000Y-74144000I0J-250000D01*
G01*
X-20643000Y-74644000D01*
G75*
G02*
X-20893000Y-74894000I-250000J0D01*
G01*
X-21843000Y-74894000D01*
G75*
G02*
X-22093000Y-74644000I0J250000D01*
G01*
X-22093000Y-74144000D01*
G75*
G02*
X-21843000Y-73894000I250000J0D01*
G01*
G37*
%TD*%
%TO.C,R113*%
G36*
G01*
X-66927000Y-40822601D02*
X-66927000Y-39922599D01*
G75*
G02*
X-66677001Y-39672600I249999J0D01*
G01*
X-66151999Y-39672600D01*
G75*
G02*
X-65902000Y-39922599I0J-249999D01*
G01*
X-65902000Y-40822601D01*
G75*
G02*
X-66151999Y-41072600I-249999J0D01*
G01*
X-66677001Y-41072600D01*
G75*
G02*
X-66927000Y-40822601I0J249999D01*
G01*
G37*
G36*
G01*
X-68752000Y-40822601D02*
X-68752000Y-39922599D01*
G75*
G02*
X-68502001Y-39672600I249999J0D01*
G01*
X-67976999Y-39672600D01*
G75*
G02*
X-67727000Y-39922599I0J-249999D01*
G01*
X-67727000Y-40822601D01*
G75*
G02*
X-67976999Y-41072600I-249999J0D01*
G01*
X-68502001Y-41072600D01*
G75*
G02*
X-68752000Y-40822601I0J249999D01*
G01*
G37*
%TD*%
%TO.C,R116*%
G36*
G01*
X-68387400Y-55340399D02*
X-68387400Y-56240401D01*
G75*
G02*
X-68637399Y-56490400I-249999J0D01*
G01*
X-69162401Y-56490400D01*
G75*
G02*
X-69412400Y-56240401I0J249999D01*
G01*
X-69412400Y-55340399D01*
G75*
G02*
X-69162401Y-55090400I249999J0D01*
G01*
X-68637399Y-55090400D01*
G75*
G02*
X-68387400Y-55340399I0J-249999D01*
G01*
G37*
G36*
G01*
X-66562400Y-55340399D02*
X-66562400Y-56240401D01*
G75*
G02*
X-66812399Y-56490400I-249999J0D01*
G01*
X-67337401Y-56490400D01*
G75*
G02*
X-67587400Y-56240401I0J249999D01*
G01*
X-67587400Y-55340399D01*
G75*
G02*
X-67337401Y-55090400I249999J0D01*
G01*
X-66812399Y-55090400D01*
G75*
G02*
X-66562400Y-55340399I0J-249999D01*
G01*
G37*
%TD*%
%TO.C,R115*%
G36*
G01*
X-67739100Y-37866339D02*
X-67739100Y-38766341D01*
G75*
G02*
X-67989099Y-39016340I-249999J0D01*
G01*
X-68514101Y-39016340D01*
G75*
G02*
X-68764100Y-38766341I0J249999D01*
G01*
X-68764100Y-37866339D01*
G75*
G02*
X-68514101Y-37616340I249999J0D01*
G01*
X-67989099Y-37616340D01*
G75*
G02*
X-67739100Y-37866339I0J-249999D01*
G01*
G37*
G36*
G01*
X-65914100Y-37866339D02*
X-65914100Y-38766341D01*
G75*
G02*
X-66164099Y-39016340I-249999J0D01*
G01*
X-66689101Y-39016340D01*
G75*
G02*
X-66939100Y-38766341I0J249999D01*
G01*
X-66939100Y-37866339D01*
G75*
G02*
X-66689101Y-37616340I249999J0D01*
G01*
X-66164099Y-37616340D01*
G75*
G02*
X-65914100Y-37866339I0J-249999D01*
G01*
G37*
%TD*%
%TO.C,R117*%
G36*
G01*
X-67752400Y-35782399D02*
X-67752400Y-36682401D01*
G75*
G02*
X-68002399Y-36932400I-249999J0D01*
G01*
X-68527401Y-36932400D01*
G75*
G02*
X-68777400Y-36682401I0J249999D01*
G01*
X-68777400Y-35782399D01*
G75*
G02*
X-68527401Y-35532400I249999J0D01*
G01*
X-68002399Y-35532400D01*
G75*
G02*
X-67752400Y-35782399I0J-249999D01*
G01*
G37*
G36*
G01*
X-65927400Y-35782399D02*
X-65927400Y-36682401D01*
G75*
G02*
X-66177399Y-36932400I-249999J0D01*
G01*
X-66702401Y-36932400D01*
G75*
G02*
X-66952400Y-36682401I0J249999D01*
G01*
X-66952400Y-35782399D01*
G75*
G02*
X-66702401Y-35532400I249999J0D01*
G01*
X-66177399Y-35532400D01*
G75*
G02*
X-65927400Y-35782399I0J-249999D01*
G01*
G37*
%TD*%
%TO.C,R119*%
G36*
G01*
X-58420540Y-33609001D02*
X-58420540Y-32708999D01*
G75*
G02*
X-58170541Y-32459000I249999J0D01*
G01*
X-57645539Y-32459000D01*
G75*
G02*
X-57395540Y-32708999I0J-249999D01*
G01*
X-57395540Y-33609001D01*
G75*
G02*
X-57645539Y-33859000I-249999J0D01*
G01*
X-58170541Y-33859000D01*
G75*
G02*
X-58420540Y-33609001I0J249999D01*
G01*
G37*
G36*
G01*
X-60245540Y-33609001D02*
X-60245540Y-32708999D01*
G75*
G02*
X-59995541Y-32459000I249999J0D01*
G01*
X-59470539Y-32459000D01*
G75*
G02*
X-59220540Y-32708999I0J-249999D01*
G01*
X-59220540Y-33609001D01*
G75*
G02*
X-59470539Y-33859000I-249999J0D01*
G01*
X-59995541Y-33859000D01*
G75*
G02*
X-60245540Y-33609001I0J249999D01*
G01*
G37*
%TD*%
%TO.C,R120*%
G36*
G01*
X-60907999Y-49269000D02*
X-61808001Y-49269000D01*
G75*
G02*
X-62058000Y-49019001I0J249999D01*
G01*
X-62058000Y-48493999D01*
G75*
G02*
X-61808001Y-48244000I249999J0D01*
G01*
X-60907999Y-48244000D01*
G75*
G02*
X-60658000Y-48493999I0J-249999D01*
G01*
X-60658000Y-49019001D01*
G75*
G02*
X-60907999Y-49269000I-249999J0D01*
G01*
G37*
G36*
G01*
X-60907999Y-51094000D02*
X-61808001Y-51094000D01*
G75*
G02*
X-62058000Y-50844001I0J249999D01*
G01*
X-62058000Y-50318999D01*
G75*
G02*
X-61808001Y-50069000I249999J0D01*
G01*
X-60907999Y-50069000D01*
G75*
G02*
X-60658000Y-50318999I0J-249999D01*
G01*
X-60658000Y-50844001D01*
G75*
G02*
X-60907999Y-51094000I-249999J0D01*
G01*
G37*
%TD*%
%TO.C,R121*%
G36*
G01*
X-54968040Y-33609001D02*
X-54968040Y-32708999D01*
G75*
G02*
X-54718041Y-32459000I249999J0D01*
G01*
X-54193039Y-32459000D01*
G75*
G02*
X-53943040Y-32708999I0J-249999D01*
G01*
X-53943040Y-33609001D01*
G75*
G02*
X-54193039Y-33859000I-249999J0D01*
G01*
X-54718041Y-33859000D01*
G75*
G02*
X-54968040Y-33609001I0J249999D01*
G01*
G37*
G36*
G01*
X-56793040Y-33609001D02*
X-56793040Y-32708999D01*
G75*
G02*
X-56543041Y-32459000I249999J0D01*
G01*
X-56018039Y-32459000D01*
G75*
G02*
X-55768040Y-32708999I0J-249999D01*
G01*
X-55768040Y-33609001D01*
G75*
G02*
X-56018039Y-33859000I-249999J0D01*
G01*
X-56543041Y-33859000D01*
G75*
G02*
X-56793040Y-33609001I0J249999D01*
G01*
G37*
%TD*%
%TO.C,R122*%
G36*
G01*
X-57630600Y-48747401D02*
X-57630600Y-47847399D01*
G75*
G02*
X-57380601Y-47597400I249999J0D01*
G01*
X-56855599Y-47597400D01*
G75*
G02*
X-56605600Y-47847399I0J-249999D01*
G01*
X-56605600Y-48747401D01*
G75*
G02*
X-56855599Y-48997400I-249999J0D01*
G01*
X-57380601Y-48997400D01*
G75*
G02*
X-57630600Y-48747401I0J249999D01*
G01*
G37*
G36*
G01*
X-59455600Y-48747401D02*
X-59455600Y-47847399D01*
G75*
G02*
X-59205601Y-47597400I249999J0D01*
G01*
X-58680599Y-47597400D01*
G75*
G02*
X-58430600Y-47847399I0J-249999D01*
G01*
X-58430600Y-48747401D01*
G75*
G02*
X-58680599Y-48997400I-249999J0D01*
G01*
X-59205601Y-48997400D01*
G75*
G02*
X-59455600Y-48747401I0J249999D01*
G01*
G37*
%TD*%
%TO.C,R118*%
G36*
G01*
X-68385500Y-53257599D02*
X-68385500Y-54157601D01*
G75*
G02*
X-68635499Y-54407600I-249999J0D01*
G01*
X-69160501Y-54407600D01*
G75*
G02*
X-69410500Y-54157601I0J249999D01*
G01*
X-69410500Y-53257599D01*
G75*
G02*
X-69160501Y-53007600I249999J0D01*
G01*
X-68635499Y-53007600D01*
G75*
G02*
X-68385500Y-53257599I0J-249999D01*
G01*
G37*
G36*
G01*
X-66560500Y-53257599D02*
X-66560500Y-54157601D01*
G75*
G02*
X-66810499Y-54407600I-249999J0D01*
G01*
X-67335501Y-54407600D01*
G75*
G02*
X-67585500Y-54157601I0J249999D01*
G01*
X-67585500Y-53257599D01*
G75*
G02*
X-67335501Y-53007600I249999J0D01*
G01*
X-66810499Y-53007600D01*
G75*
G02*
X-66560500Y-53257599I0J-249999D01*
G01*
G37*
%TD*%
%TO.C,R123*%
G36*
G01*
X-46796601Y-34397200D02*
X-45896599Y-34397200D01*
G75*
G02*
X-45646600Y-34647199I0J-249999D01*
G01*
X-45646600Y-35172201D01*
G75*
G02*
X-45896599Y-35422200I-249999J0D01*
G01*
X-46796601Y-35422200D01*
G75*
G02*
X-47046600Y-35172201I0J249999D01*
G01*
X-47046600Y-34647199D01*
G75*
G02*
X-46796601Y-34397200I249999J0D01*
G01*
G37*
G36*
G01*
X-46796601Y-32572200D02*
X-45896599Y-32572200D01*
G75*
G02*
X-45646600Y-32822199I0J-249999D01*
G01*
X-45646600Y-33347201D01*
G75*
G02*
X-45896599Y-33597200I-249999J0D01*
G01*
X-46796601Y-33597200D01*
G75*
G02*
X-47046600Y-33347201I0J249999D01*
G01*
X-47046600Y-32822199D01*
G75*
G02*
X-46796601Y-32572200I249999J0D01*
G01*
G37*
%TD*%
%TO.C,R124*%
G36*
G01*
X-49577741Y-42068600D02*
X-48677739Y-42068600D01*
G75*
G02*
X-48427740Y-42318599I0J-249999D01*
G01*
X-48427740Y-42843601D01*
G75*
G02*
X-48677739Y-43093600I-249999J0D01*
G01*
X-49577741Y-43093600D01*
G75*
G02*
X-49827740Y-42843601I0J249999D01*
G01*
X-49827740Y-42318599D01*
G75*
G02*
X-49577741Y-42068600I249999J0D01*
G01*
G37*
G36*
G01*
X-49577741Y-40243600D02*
X-48677739Y-40243600D01*
G75*
G02*
X-48427740Y-40493599I0J-249999D01*
G01*
X-48427740Y-41018601D01*
G75*
G02*
X-48677739Y-41268600I-249999J0D01*
G01*
X-49577741Y-41268600D01*
G75*
G02*
X-49827740Y-41018601I0J249999D01*
G01*
X-49827740Y-40493599D01*
G75*
G02*
X-49577741Y-40243600I249999J0D01*
G01*
G37*
%TD*%
%TO.C,R125*%
G36*
G01*
X-46364801Y-50250000D02*
X-45464799Y-50250000D01*
G75*
G02*
X-45214800Y-50499999I0J-249999D01*
G01*
X-45214800Y-51025001D01*
G75*
G02*
X-45464799Y-51275000I-249999J0D01*
G01*
X-46364801Y-51275000D01*
G75*
G02*
X-46614800Y-51025001I0J249999D01*
G01*
X-46614800Y-50499999D01*
G75*
G02*
X-46364801Y-50250000I249999J0D01*
G01*
G37*
G36*
G01*
X-46364801Y-48425000D02*
X-45464799Y-48425000D01*
G75*
G02*
X-45214800Y-48674999I0J-249999D01*
G01*
X-45214800Y-49200001D01*
G75*
G02*
X-45464799Y-49450000I-249999J0D01*
G01*
X-46364801Y-49450000D01*
G75*
G02*
X-46614800Y-49200001I0J249999D01*
G01*
X-46614800Y-48674999D01*
G75*
G02*
X-46364801Y-48425000I249999J0D01*
G01*
G37*
%TD*%
%TO.C,R126*%
G36*
G01*
X-48752401Y-57462300D02*
X-47852399Y-57462300D01*
G75*
G02*
X-47602400Y-57712299I0J-249999D01*
G01*
X-47602400Y-58237301D01*
G75*
G02*
X-47852399Y-58487300I-249999J0D01*
G01*
X-48752401Y-58487300D01*
G75*
G02*
X-49002400Y-58237301I0J249999D01*
G01*
X-49002400Y-57712299D01*
G75*
G02*
X-48752401Y-57462300I249999J0D01*
G01*
G37*
G36*
G01*
X-48752401Y-55637300D02*
X-47852399Y-55637300D01*
G75*
G02*
X-47602400Y-55887299I0J-249999D01*
G01*
X-47602400Y-56412301D01*
G75*
G02*
X-47852399Y-56662300I-249999J0D01*
G01*
X-48752401Y-56662300D01*
G75*
G02*
X-49002400Y-56412301I0J249999D01*
G01*
X-49002400Y-55887299D01*
G75*
G02*
X-48752401Y-55637300I249999J0D01*
G01*
G37*
%TD*%
%TO.C,R127*%
G36*
G01*
X-44575799Y-41268000D02*
X-45475801Y-41268000D01*
G75*
G02*
X-45725800Y-41018001I0J249999D01*
G01*
X-45725800Y-40492999D01*
G75*
G02*
X-45475801Y-40243000I249999J0D01*
G01*
X-44575799Y-40243000D01*
G75*
G02*
X-44325800Y-40492999I0J-249999D01*
G01*
X-44325800Y-41018001D01*
G75*
G02*
X-44575799Y-41268000I-249999J0D01*
G01*
G37*
G36*
G01*
X-44575799Y-43093000D02*
X-45475801Y-43093000D01*
G75*
G02*
X-45725800Y-42843001I0J249999D01*
G01*
X-45725800Y-42317999D01*
G75*
G02*
X-45475801Y-42068000I249999J0D01*
G01*
X-44575799Y-42068000D01*
G75*
G02*
X-44325800Y-42317999I0J-249999D01*
G01*
X-44325800Y-42843001D01*
G75*
G02*
X-44575799Y-43093000I-249999J0D01*
G01*
G37*
%TD*%
%TO.C,R128*%
G36*
G01*
X-43483599Y-56660400D02*
X-44383601Y-56660400D01*
G75*
G02*
X-44633600Y-56410401I0J249999D01*
G01*
X-44633600Y-55885399D01*
G75*
G02*
X-44383601Y-55635400I249999J0D01*
G01*
X-43483599Y-55635400D01*
G75*
G02*
X-43233600Y-55885399I0J-249999D01*
G01*
X-43233600Y-56410401D01*
G75*
G02*
X-43483599Y-56660400I-249999J0D01*
G01*
G37*
G36*
G01*
X-43483599Y-58485400D02*
X-44383601Y-58485400D01*
G75*
G02*
X-44633600Y-58235401I0J249999D01*
G01*
X-44633600Y-57710399D01*
G75*
G02*
X-44383601Y-57460400I249999J0D01*
G01*
X-43483599Y-57460400D01*
G75*
G02*
X-43233600Y-57710399I0J-249999D01*
G01*
X-43233600Y-58235401D01*
G75*
G02*
X-43483599Y-58485400I-249999J0D01*
G01*
G37*
%TD*%
%TO.C,R129*%
G36*
G01*
X-52311740Y-32720999D02*
X-52311740Y-33621001D01*
G75*
G02*
X-52561739Y-33871000I-249999J0D01*
G01*
X-53086741Y-33871000D01*
G75*
G02*
X-53336740Y-33621001I0J249999D01*
G01*
X-53336740Y-32720999D01*
G75*
G02*
X-53086741Y-32471000I249999J0D01*
G01*
X-52561739Y-32471000D01*
G75*
G02*
X-52311740Y-32720999I0J-249999D01*
G01*
G37*
G36*
G01*
X-50486740Y-32720999D02*
X-50486740Y-33621001D01*
G75*
G02*
X-50736739Y-33871000I-249999J0D01*
G01*
X-51261741Y-33871000D01*
G75*
G02*
X-51511740Y-33621001I0J249999D01*
G01*
X-51511740Y-32720999D01*
G75*
G02*
X-51261741Y-32471000I249999J0D01*
G01*
X-50736739Y-32471000D01*
G75*
G02*
X-50486740Y-32720999I0J-249999D01*
G01*
G37*
%TD*%
%TO.C,R130*%
G36*
G01*
X-53909400Y-47745799D02*
X-53909400Y-48645801D01*
G75*
G02*
X-54159399Y-48895800I-249999J0D01*
G01*
X-54684401Y-48895800D01*
G75*
G02*
X-54934400Y-48645801I0J249999D01*
G01*
X-54934400Y-47745799D01*
G75*
G02*
X-54684401Y-47495800I249999J0D01*
G01*
X-54159399Y-47495800D01*
G75*
G02*
X-53909400Y-47745799I0J-249999D01*
G01*
G37*
G36*
G01*
X-52084400Y-47745799D02*
X-52084400Y-48645801D01*
G75*
G02*
X-52334399Y-48895800I-249999J0D01*
G01*
X-52859401Y-48895800D01*
G75*
G02*
X-53109400Y-48645801I0J249999D01*
G01*
X-53109400Y-47745799D01*
G75*
G02*
X-52859401Y-47495800I249999J0D01*
G01*
X-52334399Y-47495800D01*
G75*
G02*
X-52084400Y-47745799I0J-249999D01*
G01*
G37*
%TD*%
%TO.C,R131*%
G36*
G01*
X-48131799Y-33597200D02*
X-49031801Y-33597200D01*
G75*
G02*
X-49281800Y-33347201I0J249999D01*
G01*
X-49281800Y-32822199D01*
G75*
G02*
X-49031801Y-32572200I249999J0D01*
G01*
X-48131799Y-32572200D01*
G75*
G02*
X-47881800Y-32822199I0J-249999D01*
G01*
X-47881800Y-33347201D01*
G75*
G02*
X-48131799Y-33597200I-249999J0D01*
G01*
G37*
G36*
G01*
X-48131799Y-35422200D02*
X-49031801Y-35422200D01*
G75*
G02*
X-49281800Y-35172201I0J249999D01*
G01*
X-49281800Y-34647199D01*
G75*
G02*
X-49031801Y-34397200I249999J0D01*
G01*
X-48131799Y-34397200D01*
G75*
G02*
X-47881800Y-34647199I0J-249999D01*
G01*
X-47881800Y-35172201D01*
G75*
G02*
X-48131799Y-35422200I-249999J0D01*
G01*
G37*
%TD*%
%TO.C,R208*%
G36*
G01*
X-12592001Y-71257000D02*
X-11691999Y-71257000D01*
G75*
G02*
X-11442000Y-71506999I0J-249999D01*
G01*
X-11442000Y-72032001D01*
G75*
G02*
X-11691999Y-72282000I-249999J0D01*
G01*
X-12592001Y-72282000D01*
G75*
G02*
X-12842000Y-72032001I0J249999D01*
G01*
X-12842000Y-71506999D01*
G75*
G02*
X-12592001Y-71257000I249999J0D01*
G01*
G37*
G36*
G01*
X-12592001Y-73082000D02*
X-11691999Y-73082000D01*
G75*
G02*
X-11442000Y-73331999I0J-249999D01*
G01*
X-11442000Y-73857001D01*
G75*
G02*
X-11691999Y-74107000I-249999J0D01*
G01*
X-12592001Y-74107000D01*
G75*
G02*
X-12842000Y-73857001I0J249999D01*
G01*
X-12842000Y-73331999D01*
G75*
G02*
X-12592001Y-73082000I249999J0D01*
G01*
G37*
%TD*%
%TO.C,R203*%
G36*
G01*
X-25049000Y-79828001D02*
X-25049000Y-78927999D01*
G75*
G02*
X-24799001Y-78678000I249999J0D01*
G01*
X-24273999Y-78678000D01*
G75*
G02*
X-24024000Y-78927999I0J-249999D01*
G01*
X-24024000Y-79828001D01*
G75*
G02*
X-24273999Y-80078000I-249999J0D01*
G01*
X-24799001Y-80078000D01*
G75*
G02*
X-25049000Y-79828001I0J249999D01*
G01*
G37*
G36*
G01*
X-23224000Y-79828001D02*
X-23224000Y-78927999D01*
G75*
G02*
X-22974001Y-78678000I249999J0D01*
G01*
X-22448999Y-78678000D01*
G75*
G02*
X-22199000Y-78927999I0J-249999D01*
G01*
X-22199000Y-79828001D01*
G75*
G02*
X-22448999Y-80078000I-249999J0D01*
G01*
X-22974001Y-80078000D01*
G75*
G02*
X-23224000Y-79828001I0J249999D01*
G01*
G37*
%TD*%
%TO.C,R134*%
G36*
G01*
X-41021401Y-53726600D02*
X-40121399Y-53726600D01*
G75*
G02*
X-39871400Y-53976599I0J-249999D01*
G01*
X-39871400Y-54501601D01*
G75*
G02*
X-40121399Y-54751600I-249999J0D01*
G01*
X-41021401Y-54751600D01*
G75*
G02*
X-41271400Y-54501601I0J249999D01*
G01*
X-41271400Y-53976599D01*
G75*
G02*
X-41021401Y-53726600I249999J0D01*
G01*
G37*
G36*
G01*
X-41021401Y-51901600D02*
X-40121399Y-51901600D01*
G75*
G02*
X-39871400Y-52151599I0J-249999D01*
G01*
X-39871400Y-52676601D01*
G75*
G02*
X-40121399Y-52926600I-249999J0D01*
G01*
X-41021401Y-52926600D01*
G75*
G02*
X-41271400Y-52676601I0J249999D01*
G01*
X-41271400Y-52151599D01*
G75*
G02*
X-41021401Y-51901600I249999J0D01*
G01*
G37*
%TD*%
%TO.C,R132*%
G36*
G01*
X-47572999Y-49472200D02*
X-48473001Y-49472200D01*
G75*
G02*
X-48723000Y-49222201I0J249999D01*
G01*
X-48723000Y-48697199D01*
G75*
G02*
X-48473001Y-48447200I249999J0D01*
G01*
X-47572999Y-48447200D01*
G75*
G02*
X-47323000Y-48697199I0J-249999D01*
G01*
X-47323000Y-49222201D01*
G75*
G02*
X-47572999Y-49472200I-249999J0D01*
G01*
G37*
G36*
G01*
X-47572999Y-51297200D02*
X-48473001Y-51297200D01*
G75*
G02*
X-48723000Y-51047201I0J249999D01*
G01*
X-48723000Y-50522199D01*
G75*
G02*
X-48473001Y-50272200I249999J0D01*
G01*
X-47572999Y-50272200D01*
G75*
G02*
X-47323000Y-50522199I0J-249999D01*
G01*
X-47323000Y-51047201D01*
G75*
G02*
X-47572999Y-51297200I-249999J0D01*
G01*
G37*
%TD*%
%TO.C,R205*%
G36*
G01*
X-21056001Y-83449000D02*
X-20155999Y-83449000D01*
G75*
G02*
X-19906000Y-83698999I0J-249999D01*
G01*
X-19906000Y-84224001D01*
G75*
G02*
X-20155999Y-84474000I-249999J0D01*
G01*
X-21056001Y-84474000D01*
G75*
G02*
X-21306000Y-84224001I0J249999D01*
G01*
X-21306000Y-83698999D01*
G75*
G02*
X-21056001Y-83449000I249999J0D01*
G01*
G37*
G36*
G01*
X-21056001Y-85274000D02*
X-20155999Y-85274000D01*
G75*
G02*
X-19906000Y-85523999I0J-249999D01*
G01*
X-19906000Y-86049001D01*
G75*
G02*
X-20155999Y-86299000I-249999J0D01*
G01*
X-21056001Y-86299000D01*
G75*
G02*
X-21306000Y-86049001I0J249999D01*
G01*
X-21306000Y-85523999D01*
G75*
G02*
X-21056001Y-85274000I249999J0D01*
G01*
G37*
%TD*%
%TO.C,R136*%
G36*
G01*
X-43514000Y-50149999D02*
X-43514000Y-51050001D01*
G75*
G02*
X-43763999Y-51300000I-249999J0D01*
G01*
X-44289001Y-51300000D01*
G75*
G02*
X-44539000Y-51050001I0J249999D01*
G01*
X-44539000Y-50149999D01*
G75*
G02*
X-44289001Y-49900000I249999J0D01*
G01*
X-43763999Y-49900000D01*
G75*
G02*
X-43514000Y-50149999I0J-249999D01*
G01*
G37*
G36*
G01*
X-41689000Y-50149999D02*
X-41689000Y-51050001D01*
G75*
G02*
X-41938999Y-51300000I-249999J0D01*
G01*
X-42464001Y-51300000D01*
G75*
G02*
X-42714000Y-51050001I0J249999D01*
G01*
X-42714000Y-50149999D01*
G75*
G02*
X-42464001Y-49900000I249999J0D01*
G01*
X-41938999Y-49900000D01*
G75*
G02*
X-41689000Y-50149999I0J-249999D01*
G01*
G37*
%TD*%
%TO.C,R135*%
G36*
G01*
X-43901800Y-34156799D02*
X-43901800Y-35056801D01*
G75*
G02*
X-44151799Y-35306800I-249999J0D01*
G01*
X-44676801Y-35306800D01*
G75*
G02*
X-44926800Y-35056801I0J249999D01*
G01*
X-44926800Y-34156799D01*
G75*
G02*
X-44676801Y-33906800I249999J0D01*
G01*
X-44151799Y-33906800D01*
G75*
G02*
X-43901800Y-34156799I0J-249999D01*
G01*
G37*
G36*
G01*
X-42076800Y-34156799D02*
X-42076800Y-35056801D01*
G75*
G02*
X-42326799Y-35306800I-249999J0D01*
G01*
X-42851801Y-35306800D01*
G75*
G02*
X-43101800Y-35056801I0J249999D01*
G01*
X-43101800Y-34156799D01*
G75*
G02*
X-42851801Y-33906800I249999J0D01*
G01*
X-42326799Y-33906800D01*
G75*
G02*
X-42076800Y-34156799I0J-249999D01*
G01*
G37*
%TD*%
D21*
%TO.C,U202*%
X-20026000Y-81802000D03*
X-19526000Y-81802000D03*
X-19026000Y-81802000D03*
X-18526000Y-81802000D03*
X-18026000Y-81802000D03*
X-18026000Y-77402000D03*
X-18526000Y-77402000D03*
X-19026000Y-77402000D03*
X-19526000Y-77402000D03*
X-20026000Y-77402000D03*
%TD*%
%TO.C,R206*%
G36*
G01*
X-18885999Y-74869000D02*
X-19786001Y-74869000D01*
G75*
G02*
X-20036000Y-74619001I0J249999D01*
G01*
X-20036000Y-74093999D01*
G75*
G02*
X-19786001Y-73844000I249999J0D01*
G01*
X-18885999Y-73844000D01*
G75*
G02*
X-18636000Y-74093999I0J-249999D01*
G01*
X-18636000Y-74619001D01*
G75*
G02*
X-18885999Y-74869000I-249999J0D01*
G01*
G37*
G36*
G01*
X-18885999Y-73044000D02*
X-19786001Y-73044000D01*
G75*
G02*
X-20036000Y-72794001I0J249999D01*
G01*
X-20036000Y-72268999D01*
G75*
G02*
X-19786001Y-72019000I249999J0D01*
G01*
X-18885999Y-72019000D01*
G75*
G02*
X-18636000Y-72268999I0J-249999D01*
G01*
X-18636000Y-72794001D01*
G75*
G02*
X-18885999Y-73044000I-249999J0D01*
G01*
G37*
%TD*%
%TO.C,R133*%
G36*
G01*
X-42072201Y-38562800D02*
X-41172199Y-38562800D01*
G75*
G02*
X-40922200Y-38812799I0J-249999D01*
G01*
X-40922200Y-39337801D01*
G75*
G02*
X-41172199Y-39587800I-249999J0D01*
G01*
X-42072201Y-39587800D01*
G75*
G02*
X-42322200Y-39337801I0J249999D01*
G01*
X-42322200Y-38812799D01*
G75*
G02*
X-42072201Y-38562800I249999J0D01*
G01*
G37*
G36*
G01*
X-42072201Y-36737800D02*
X-41172199Y-36737800D01*
G75*
G02*
X-40922200Y-36987799I0J-249999D01*
G01*
X-40922200Y-37512801D01*
G75*
G02*
X-41172199Y-37762800I-249999J0D01*
G01*
X-42072201Y-37762800D01*
G75*
G02*
X-42322200Y-37512801I0J249999D01*
G01*
X-42322200Y-36987799D01*
G75*
G02*
X-42072201Y-36737800I249999J0D01*
G01*
G37*
%TD*%
%TO.C,R207*%
G36*
G01*
X-13805999Y-74107000D02*
X-14706001Y-74107000D01*
G75*
G02*
X-14956000Y-73857001I0J249999D01*
G01*
X-14956000Y-73331999D01*
G75*
G02*
X-14706001Y-73082000I249999J0D01*
G01*
X-13805999Y-73082000D01*
G75*
G02*
X-13556000Y-73331999I0J-249999D01*
G01*
X-13556000Y-73857001D01*
G75*
G02*
X-13805999Y-74107000I-249999J0D01*
G01*
G37*
G36*
G01*
X-13805999Y-72282000D02*
X-14706001Y-72282000D01*
G75*
G02*
X-14956000Y-72032001I0J249999D01*
G01*
X-14956000Y-71506999D01*
G75*
G02*
X-14706001Y-71257000I249999J0D01*
G01*
X-13805999Y-71257000D01*
G75*
G02*
X-13556000Y-71506999I0J-249999D01*
G01*
X-13556000Y-72032001D01*
G75*
G02*
X-13805999Y-72282000I-249999J0D01*
G01*
G37*
%TD*%
D22*
%TO.C,H104*%
X-85090000Y-90810000D03*
D23*
X-85090000Y-90810000D03*
%TD*%
D22*
%TO.C,H103*%
X-5080000Y-90810000D03*
D23*
X-5080000Y-90810000D03*
%TD*%
D22*
%TO.C,H102*%
X-81280000Y-5080000D03*
D23*
X-81280000Y-5080000D03*
%TD*%
D22*
%TO.C,H101*%
X-7620000Y-5080000D03*
D23*
X-7620000Y-5080000D03*
%TD*%
D24*
%TO.C,J101*%
X-12693900Y-5029100D03*
X-12693900Y-7569100D03*
X-15233900Y-5029100D03*
X-15233900Y-7569100D03*
X-17773900Y-5029100D03*
X-17773900Y-7569100D03*
X-20313900Y-5029100D03*
X-20313900Y-7569100D03*
X-22853900Y-5029100D03*
X-22853900Y-7569100D03*
X-25393900Y-5029100D03*
X-25393900Y-7569100D03*
X-27933900Y-5029100D03*
X-27933900Y-7569100D03*
X-30473900Y-5029100D03*
X-30473900Y-7569100D03*
X-33013900Y-5029100D03*
X-33013900Y-7569100D03*
X-35553900Y-5029100D03*
X-35553900Y-7569100D03*
X-38093900Y-5029100D03*
X-38093900Y-7569100D03*
X-40633900Y-5029100D03*
X-40633900Y-7569100D03*
X-43173900Y-5029100D03*
X-43173900Y-7569100D03*
X-45713900Y-5029100D03*
X-45713900Y-7569100D03*
X-48253900Y-5029100D03*
X-48253900Y-7569100D03*
X-50793900Y-5029100D03*
X-50793900Y-7569100D03*
X-53333900Y-5029100D03*
X-53333900Y-7569100D03*
X-55873900Y-5029100D03*
X-55873900Y-7569100D03*
X-58413900Y-5029100D03*
X-58413900Y-7569100D03*
X-60953900Y-5029100D03*
X-60953900Y-7569100D03*
X-63493900Y-5029100D03*
X-63493900Y-7569100D03*
X-66033900Y-5029100D03*
X-66033900Y-7569100D03*
X-68573900Y-5029100D03*
X-68573900Y-7569100D03*
X-71113900Y-5029100D03*
X-71113900Y-7569100D03*
X-73653900Y-5029100D03*
X-73653900Y-7569100D03*
X-76193900Y-5029100D03*
D25*
X-76193900Y-7569100D03*
%TD*%
D24*
%TO.C,J103*%
X-12700000Y-10121800D03*
X-12700000Y-12661800D03*
X-15240000Y-10121800D03*
X-15240000Y-12661800D03*
X-17780000Y-10121800D03*
X-17780000Y-12661800D03*
X-20320000Y-10121800D03*
X-20320000Y-12661800D03*
X-22860000Y-10121800D03*
X-22860000Y-12661800D03*
X-25400000Y-10121800D03*
X-25400000Y-12661800D03*
X-27940000Y-10121800D03*
X-27940000Y-12661800D03*
X-30480000Y-10121800D03*
X-30480000Y-12661800D03*
X-33020000Y-10121800D03*
X-33020000Y-12661800D03*
X-35560000Y-10121800D03*
X-35560000Y-12661800D03*
X-38100000Y-10121800D03*
X-38100000Y-12661800D03*
X-40640000Y-10121800D03*
X-40640000Y-12661800D03*
X-43180000Y-10121800D03*
X-43180000Y-12661800D03*
X-45720000Y-10121800D03*
X-45720000Y-12661800D03*
X-48260000Y-10121800D03*
X-48260000Y-12661800D03*
X-50800000Y-10121800D03*
X-50800000Y-12661800D03*
X-53340000Y-10121800D03*
X-53340000Y-12661800D03*
X-55880000Y-10121800D03*
X-55880000Y-12661800D03*
X-58420000Y-10121800D03*
X-58420000Y-12661800D03*
X-60960000Y-10121800D03*
X-60960000Y-12661800D03*
X-63500000Y-10121800D03*
X-63500000Y-12661800D03*
X-66040000Y-10121800D03*
X-66040000Y-12661800D03*
X-68580000Y-10121800D03*
X-68580000Y-12661800D03*
X-71120000Y-10121800D03*
X-71120000Y-12661800D03*
X-73660000Y-10121800D03*
X-73660000Y-12661800D03*
X-76200000Y-10121800D03*
D25*
X-76200000Y-12661800D03*
%TD*%
%TO.C,U104*%
G36*
G01*
X-26401586Y-32617096D02*
X-26401586Y-32817096D01*
G75*
G02*
X-26501586Y-32917096I-100000J0D01*
G01*
X-27776586Y-32917096D01*
G75*
G02*
X-27876586Y-32817096I0J100000D01*
G01*
X-27876586Y-32617096D01*
G75*
G02*
X-27776586Y-32517096I100000J0D01*
G01*
X-26501586Y-32517096D01*
G75*
G02*
X-26401586Y-32617096I0J-100000D01*
G01*
G37*
G36*
G01*
X-26401586Y-31967096D02*
X-26401586Y-32167096D01*
G75*
G02*
X-26501586Y-32267096I-100000J0D01*
G01*
X-27776586Y-32267096D01*
G75*
G02*
X-27876586Y-32167096I0J100000D01*
G01*
X-27876586Y-31967096D01*
G75*
G02*
X-27776586Y-31867096I100000J0D01*
G01*
X-26501586Y-31867096D01*
G75*
G02*
X-26401586Y-31967096I0J-100000D01*
G01*
G37*
G36*
G01*
X-26401586Y-31317096D02*
X-26401586Y-31517096D01*
G75*
G02*
X-26501586Y-31617096I-100000J0D01*
G01*
X-27776586Y-31617096D01*
G75*
G02*
X-27876586Y-31517096I0J100000D01*
G01*
X-27876586Y-31317096D01*
G75*
G02*
X-27776586Y-31217096I100000J0D01*
G01*
X-26501586Y-31217096D01*
G75*
G02*
X-26401586Y-31317096I0J-100000D01*
G01*
G37*
G36*
G01*
X-26401586Y-30667096D02*
X-26401586Y-30867096D01*
G75*
G02*
X-26501586Y-30967096I-100000J0D01*
G01*
X-27776586Y-30967096D01*
G75*
G02*
X-27876586Y-30867096I0J100000D01*
G01*
X-27876586Y-30667096D01*
G75*
G02*
X-27776586Y-30567096I100000J0D01*
G01*
X-26501586Y-30567096D01*
G75*
G02*
X-26401586Y-30667096I0J-100000D01*
G01*
G37*
G36*
G01*
X-26401586Y-30017096D02*
X-26401586Y-30217096D01*
G75*
G02*
X-26501586Y-30317096I-100000J0D01*
G01*
X-27776586Y-30317096D01*
G75*
G02*
X-27876586Y-30217096I0J100000D01*
G01*
X-27876586Y-30017096D01*
G75*
G02*
X-27776586Y-29917096I100000J0D01*
G01*
X-26501586Y-29917096D01*
G75*
G02*
X-26401586Y-30017096I0J-100000D01*
G01*
G37*
G36*
G01*
X-26401586Y-29367096D02*
X-26401586Y-29567096D01*
G75*
G02*
X-26501586Y-29667096I-100000J0D01*
G01*
X-27776586Y-29667096D01*
G75*
G02*
X-27876586Y-29567096I0J100000D01*
G01*
X-27876586Y-29367096D01*
G75*
G02*
X-27776586Y-29267096I100000J0D01*
G01*
X-26501586Y-29267096D01*
G75*
G02*
X-26401586Y-29367096I0J-100000D01*
G01*
G37*
G36*
G01*
X-26401586Y-28717096D02*
X-26401586Y-28917096D01*
G75*
G02*
X-26501586Y-29017096I-100000J0D01*
G01*
X-27776586Y-29017096D01*
G75*
G02*
X-27876586Y-28917096I0J100000D01*
G01*
X-27876586Y-28717096D01*
G75*
G02*
X-27776586Y-28617096I100000J0D01*
G01*
X-26501586Y-28617096D01*
G75*
G02*
X-26401586Y-28717096I0J-100000D01*
G01*
G37*
G36*
G01*
X-26401586Y-28067096D02*
X-26401586Y-28267096D01*
G75*
G02*
X-26501586Y-28367096I-100000J0D01*
G01*
X-27776586Y-28367096D01*
G75*
G02*
X-27876586Y-28267096I0J100000D01*
G01*
X-27876586Y-28067096D01*
G75*
G02*
X-27776586Y-27967096I100000J0D01*
G01*
X-26501586Y-27967096D01*
G75*
G02*
X-26401586Y-28067096I0J-100000D01*
G01*
G37*
G36*
G01*
X-32126586Y-28067096D02*
X-32126586Y-28267096D01*
G75*
G02*
X-32226586Y-28367096I-100000J0D01*
G01*
X-33501586Y-28367096D01*
G75*
G02*
X-33601586Y-28267096I0J100000D01*
G01*
X-33601586Y-28067096D01*
G75*
G02*
X-33501586Y-27967096I100000J0D01*
G01*
X-32226586Y-27967096D01*
G75*
G02*
X-32126586Y-28067096I0J-100000D01*
G01*
G37*
G36*
G01*
X-32126586Y-28717096D02*
X-32126586Y-28917096D01*
G75*
G02*
X-32226586Y-29017096I-100000J0D01*
G01*
X-33501586Y-29017096D01*
G75*
G02*
X-33601586Y-28917096I0J100000D01*
G01*
X-33601586Y-28717096D01*
G75*
G02*
X-33501586Y-28617096I100000J0D01*
G01*
X-32226586Y-28617096D01*
G75*
G02*
X-32126586Y-28717096I0J-100000D01*
G01*
G37*
G36*
G01*
X-32126586Y-29367096D02*
X-32126586Y-29567096D01*
G75*
G02*
X-32226586Y-29667096I-100000J0D01*
G01*
X-33501586Y-29667096D01*
G75*
G02*
X-33601586Y-29567096I0J100000D01*
G01*
X-33601586Y-29367096D01*
G75*
G02*
X-33501586Y-29267096I100000J0D01*
G01*
X-32226586Y-29267096D01*
G75*
G02*
X-32126586Y-29367096I0J-100000D01*
G01*
G37*
G36*
G01*
X-32126586Y-30017096D02*
X-32126586Y-30217096D01*
G75*
G02*
X-32226586Y-30317096I-100000J0D01*
G01*
X-33501586Y-30317096D01*
G75*
G02*
X-33601586Y-30217096I0J100000D01*
G01*
X-33601586Y-30017096D01*
G75*
G02*
X-33501586Y-29917096I100000J0D01*
G01*
X-32226586Y-29917096D01*
G75*
G02*
X-32126586Y-30017096I0J-100000D01*
G01*
G37*
G36*
G01*
X-32126586Y-30667096D02*
X-32126586Y-30867096D01*
G75*
G02*
X-32226586Y-30967096I-100000J0D01*
G01*
X-33501586Y-30967096D01*
G75*
G02*
X-33601586Y-30867096I0J100000D01*
G01*
X-33601586Y-30667096D01*
G75*
G02*
X-33501586Y-30567096I100000J0D01*
G01*
X-32226586Y-30567096D01*
G75*
G02*
X-32126586Y-30667096I0J-100000D01*
G01*
G37*
G36*
G01*
X-32126586Y-31317096D02*
X-32126586Y-31517096D01*
G75*
G02*
X-32226586Y-31617096I-100000J0D01*
G01*
X-33501586Y-31617096D01*
G75*
G02*
X-33601586Y-31517096I0J100000D01*
G01*
X-33601586Y-31317096D01*
G75*
G02*
X-33501586Y-31217096I100000J0D01*
G01*
X-32226586Y-31217096D01*
G75*
G02*
X-32126586Y-31317096I0J-100000D01*
G01*
G37*
G36*
G01*
X-32126586Y-31967096D02*
X-32126586Y-32167096D01*
G75*
G02*
X-32226586Y-32267096I-100000J0D01*
G01*
X-33501586Y-32267096D01*
G75*
G02*
X-33601586Y-32167096I0J100000D01*
G01*
X-33601586Y-31967096D01*
G75*
G02*
X-33501586Y-31867096I100000J0D01*
G01*
X-32226586Y-31867096D01*
G75*
G02*
X-32126586Y-31967096I0J-100000D01*
G01*
G37*
G36*
G01*
X-32126586Y-32617096D02*
X-32126586Y-32817096D01*
G75*
G02*
X-32226586Y-32917096I-100000J0D01*
G01*
X-33501586Y-32917096D01*
G75*
G02*
X-33601586Y-32817096I0J100000D01*
G01*
X-33601586Y-32617096D01*
G75*
G02*
X-33501586Y-32517096I100000J0D01*
G01*
X-32226586Y-32517096D01*
G75*
G02*
X-32126586Y-32617096I0J-100000D01*
G01*
G37*
%TD*%
D26*
%TO.C,J204*%
X-2808220Y-62027020D03*
D27*
X-2808220Y-60777020D03*
%TD*%
%TO.C,SW202*%
X-4639560Y-72801380D03*
D26*
X-4639560Y-74051380D03*
%TD*%
%TO.C,SW203*%
X-85607140Y-67642320D03*
D27*
X-85607140Y-68892320D03*
%TD*%
D26*
%TO.C,SW204*%
X-85604600Y-72864560D03*
D27*
X-85604600Y-74114560D03*
%TD*%
%TO.C,SW205*%
X-85617300Y-79321880D03*
D26*
X-85617300Y-78071880D03*
%TD*%
D27*
%TO.C,SW206*%
X-4639560Y-78043940D03*
D26*
X-4639560Y-79293940D03*
%TD*%
%TO.C,J201*%
G36*
G01*
X-5224180Y-18849920D02*
X-4324180Y-18849920D01*
G75*
G02*
X-4124180Y-19049920I0J-200000D01*
G01*
X-4124180Y-19449920D01*
G75*
G02*
X-4324180Y-19649920I-200000J0D01*
G01*
X-5224180Y-19649920D01*
G75*
G02*
X-5424180Y-19449920I0J200000D01*
G01*
X-5424180Y-19049920D01*
G75*
G02*
X-5224180Y-18849920I200000J0D01*
G01*
G37*
D28*
X-4774180Y-20499920D03*
X-4774180Y-21749920D03*
X-4774180Y-22999920D03*
X-4774180Y-24249920D03*
X-4774180Y-25499920D03*
X-4774180Y-26749920D03*
%TD*%
%TO.C,J202*%
G36*
G01*
X-84061000Y-27543400D02*
X-85011000Y-27543400D01*
G75*
G02*
X-85236000Y-27318400I0J225000D01*
G01*
X-85236000Y-26868400D01*
G75*
G02*
X-85011000Y-26643400I225000J0D01*
G01*
X-84061000Y-26643400D01*
G75*
G02*
X-83836000Y-26868400I0J-225000D01*
G01*
X-83836000Y-27318400D01*
G75*
G02*
X-84061000Y-27543400I-225000J0D01*
G01*
G37*
D26*
X-84536000Y-25843400D03*
X-84536000Y-24593400D03*
X-84536000Y-23343400D03*
X-84536000Y-22093400D03*
%TD*%
%TO.C,J205*%
X-2995520Y-37672820D03*
G36*
G01*
X-3470520Y-35972820D02*
X-2520520Y-35972820D01*
G75*
G02*
X-2295520Y-36197820I0J-225000D01*
G01*
X-2295520Y-36647820D01*
G75*
G02*
X-2520520Y-36872820I-225000J0D01*
G01*
X-3470520Y-36872820D01*
G75*
G02*
X-3695520Y-36647820I0J225000D01*
G01*
X-3695520Y-36197820D01*
G75*
G02*
X-3470520Y-35972820I225000J0D01*
G01*
G37*
%TD*%
%TO.C,J206*%
G36*
G01*
X-86564700Y-36484880D02*
X-87514700Y-36484880D01*
G75*
G02*
X-87739700Y-36259880I0J225000D01*
G01*
X-87739700Y-35809880D01*
G75*
G02*
X-87514700Y-35584880I225000J0D01*
G01*
X-86564700Y-35584880D01*
G75*
G02*
X-86339700Y-35809880I0J-225000D01*
G01*
X-86339700Y-36259880D01*
G75*
G02*
X-86564700Y-36484880I-225000J0D01*
G01*
G37*
X-87039700Y-34784880D03*
%TD*%
%TO.C,R201*%
G36*
G01*
X-82066801Y-84893000D02*
X-81166799Y-84893000D01*
G75*
G02*
X-80916800Y-85142999I0J-249999D01*
G01*
X-80916800Y-85668001D01*
G75*
G02*
X-81166799Y-85918000I-249999J0D01*
G01*
X-82066801Y-85918000D01*
G75*
G02*
X-82316800Y-85668001I0J249999D01*
G01*
X-82316800Y-85142999D01*
G75*
G02*
X-82066801Y-84893000I249999J0D01*
G01*
G37*
G36*
G01*
X-82066801Y-83068000D02*
X-81166799Y-83068000D01*
G75*
G02*
X-80916800Y-83317999I0J-249999D01*
G01*
X-80916800Y-83843001D01*
G75*
G02*
X-81166799Y-84093000I-249999J0D01*
G01*
X-82066801Y-84093000D01*
G75*
G02*
X-82316800Y-83843001I0J249999D01*
G01*
X-82316800Y-83317999D01*
G75*
G02*
X-82066801Y-83068000I249999J0D01*
G01*
G37*
%TD*%
%TO.C,R202*%
G36*
G01*
X-78974500Y-60293999D02*
X-78974500Y-61194001D01*
G75*
G02*
X-79224499Y-61444000I-249999J0D01*
G01*
X-79749501Y-61444000D01*
G75*
G02*
X-79999500Y-61194001I0J249999D01*
G01*
X-79999500Y-60293999D01*
G75*
G02*
X-79749501Y-60044000I249999J0D01*
G01*
X-79224499Y-60044000D01*
G75*
G02*
X-78974500Y-60293999I0J-249999D01*
G01*
G37*
G36*
G01*
X-80799500Y-60293999D02*
X-80799500Y-61194001D01*
G75*
G02*
X-81049499Y-61444000I-249999J0D01*
G01*
X-81574501Y-61444000D01*
G75*
G02*
X-81824500Y-61194001I0J249999D01*
G01*
X-81824500Y-60293999D01*
G75*
G02*
X-81574501Y-60044000I249999J0D01*
G01*
X-81049499Y-60044000D01*
G75*
G02*
X-80799500Y-60293999I0J-249999D01*
G01*
G37*
%TD*%
%TO.C,SW201*%
G36*
G01*
X-5114560Y-67103420D02*
X-4164560Y-67103420D01*
G75*
G02*
X-3939560Y-67328420I0J-225000D01*
G01*
X-3939560Y-67778420D01*
G75*
G02*
X-4164560Y-68003420I-225000J0D01*
G01*
X-5114560Y-68003420D01*
G75*
G02*
X-5339560Y-67778420I0J225000D01*
G01*
X-5339560Y-67328420D01*
G75*
G02*
X-5114560Y-67103420I225000J0D01*
G01*
G37*
X-4639560Y-68803420D03*
%TD*%
M02*
