%TF.GenerationSoftware,KiCad,Pcbnew,(5.1.12)-1*%
%TF.CreationDate,2023-02-07T17:32:02-05:00*%
%TF.ProjectId,RADSAT-SK Timer 2,52414453-4154-42d5-934b-2054696d6572,rev?*%
%TF.SameCoordinates,PX7735940PY2faf080*%
%TF.FileFunction,Paste,Top*%
%TF.FilePolarity,Positive*%
%FSLAX46Y46*%
G04 Gerber Fmt 4.6, Leading zero omitted, Abs format (unit mm)*
G04 Created by KiCad (PCBNEW (5.1.12)-1) date 2023-02-07 17:32:02*
%MOMM*%
%LPD*%
G01*
G04 APERTURE LIST*
%ADD10R,0.900000X0.800000*%
%ADD11R,1.200000X0.900000*%
%ADD12R,1.800000X1.000000*%
%ADD13R,3.600000X2.600000*%
%ADD14R,0.800000X1.900000*%
%ADD15R,0.400000X1.500000*%
%ADD16R,1.800000X0.700000*%
%ADD17R,2.200000X1.600000*%
G04 APERTURE END LIST*
%TO.C,R113*%
G36*
G01*
X-72622800Y-49754300D02*
X-71372800Y-49754300D01*
G75*
G02*
X-71122800Y-50004300I0J-250000D01*
G01*
X-71122800Y-50804300D01*
G75*
G02*
X-71372800Y-51054300I-250000J0D01*
G01*
X-72622800Y-51054300D01*
G75*
G02*
X-72872800Y-50804300I0J250000D01*
G01*
X-72872800Y-50004300D01*
G75*
G02*
X-72622800Y-49754300I250000J0D01*
G01*
G37*
G36*
G01*
X-72622800Y-46654300D02*
X-71372800Y-46654300D01*
G75*
G02*
X-71122800Y-46904300I0J-250000D01*
G01*
X-71122800Y-47704300D01*
G75*
G02*
X-71372800Y-47954300I-250000J0D01*
G01*
X-72622800Y-47954300D01*
G75*
G02*
X-72872800Y-47704300I0J250000D01*
G01*
X-72872800Y-46904300D01*
G75*
G02*
X-72622800Y-46654300I250000J0D01*
G01*
G37*
%TD*%
%TO.C,R112*%
G36*
G01*
X-62693600Y-37009400D02*
X-63943600Y-37009400D01*
G75*
G02*
X-64193600Y-36759400I0J250000D01*
G01*
X-64193600Y-35959400D01*
G75*
G02*
X-63943600Y-35709400I250000J0D01*
G01*
X-62693600Y-35709400D01*
G75*
G02*
X-62443600Y-35959400I0J-250000D01*
G01*
X-62443600Y-36759400D01*
G75*
G02*
X-62693600Y-37009400I-250000J0D01*
G01*
G37*
G36*
G01*
X-62693600Y-40109400D02*
X-63943600Y-40109400D01*
G75*
G02*
X-64193600Y-39859400I0J250000D01*
G01*
X-64193600Y-39059400D01*
G75*
G02*
X-63943600Y-38809400I250000J0D01*
G01*
X-62693600Y-38809400D01*
G75*
G02*
X-62443600Y-39059400I0J-250000D01*
G01*
X-62443600Y-39859400D01*
G75*
G02*
X-62693600Y-40109400I-250000J0D01*
G01*
G37*
%TD*%
%TO.C,R111*%
G36*
G01*
X-41690400Y-27565700D02*
X-42940400Y-27565700D01*
G75*
G02*
X-43190400Y-27315700I0J250000D01*
G01*
X-43190400Y-26515700D01*
G75*
G02*
X-42940400Y-26265700I250000J0D01*
G01*
X-41690400Y-26265700D01*
G75*
G02*
X-41440400Y-26515700I0J-250000D01*
G01*
X-41440400Y-27315700D01*
G75*
G02*
X-41690400Y-27565700I-250000J0D01*
G01*
G37*
G36*
G01*
X-41690400Y-30665700D02*
X-42940400Y-30665700D01*
G75*
G02*
X-43190400Y-30415700I0J250000D01*
G01*
X-43190400Y-29615700D01*
G75*
G02*
X-42940400Y-29365700I250000J0D01*
G01*
X-41690400Y-29365700D01*
G75*
G02*
X-41440400Y-29615700I0J-250000D01*
G01*
X-41440400Y-30415700D01*
G75*
G02*
X-41690400Y-30665700I-250000J0D01*
G01*
G37*
%TD*%
%TO.C,R108*%
G36*
G01*
X-65129500Y-55486000D02*
X-66379500Y-55486000D01*
G75*
G02*
X-66629500Y-55236000I0J250000D01*
G01*
X-66629500Y-54436000D01*
G75*
G02*
X-66379500Y-54186000I250000J0D01*
G01*
X-65129500Y-54186000D01*
G75*
G02*
X-64879500Y-54436000I0J-250000D01*
G01*
X-64879500Y-55236000D01*
G75*
G02*
X-65129500Y-55486000I-250000J0D01*
G01*
G37*
G36*
G01*
X-65129500Y-58586000D02*
X-66379500Y-58586000D01*
G75*
G02*
X-66629500Y-58336000I0J250000D01*
G01*
X-66629500Y-57536000D01*
G75*
G02*
X-66379500Y-57286000I250000J0D01*
G01*
X-65129500Y-57286000D01*
G75*
G02*
X-64879500Y-57536000I0J-250000D01*
G01*
X-64879500Y-58336000D01*
G75*
G02*
X-65129500Y-58586000I-250000J0D01*
G01*
G37*
%TD*%
%TO.C,R107*%
G36*
G01*
X-40160000Y-44498300D02*
X-40160000Y-43248300D01*
G75*
G02*
X-39910000Y-42998300I250000J0D01*
G01*
X-39110000Y-42998300D01*
G75*
G02*
X-38860000Y-43248300I0J-250000D01*
G01*
X-38860000Y-44498300D01*
G75*
G02*
X-39110000Y-44748300I-250000J0D01*
G01*
X-39910000Y-44748300D01*
G75*
G02*
X-40160000Y-44498300I0J250000D01*
G01*
G37*
G36*
G01*
X-43260000Y-44498300D02*
X-43260000Y-43248300D01*
G75*
G02*
X-43010000Y-42998300I250000J0D01*
G01*
X-42210000Y-42998300D01*
G75*
G02*
X-41960000Y-43248300I0J-250000D01*
G01*
X-41960000Y-44498300D01*
G75*
G02*
X-42210000Y-44748300I-250000J0D01*
G01*
X-43010000Y-44748300D01*
G75*
G02*
X-43260000Y-44498300I0J250000D01*
G01*
G37*
%TD*%
%TO.C,R105*%
G36*
G01*
X-63776000Y-54733000D02*
X-62526000Y-54733000D01*
G75*
G02*
X-62276000Y-54983000I0J-250000D01*
G01*
X-62276000Y-55783000D01*
G75*
G02*
X-62526000Y-56033000I-250000J0D01*
G01*
X-63776000Y-56033000D01*
G75*
G02*
X-64026000Y-55783000I0J250000D01*
G01*
X-64026000Y-54983000D01*
G75*
G02*
X-63776000Y-54733000I250000J0D01*
G01*
G37*
G36*
G01*
X-63776000Y-51633000D02*
X-62526000Y-51633000D01*
G75*
G02*
X-62276000Y-51883000I0J-250000D01*
G01*
X-62276000Y-52683000D01*
G75*
G02*
X-62526000Y-52933000I-250000J0D01*
G01*
X-63776000Y-52933000D01*
G75*
G02*
X-64026000Y-52683000I0J250000D01*
G01*
X-64026000Y-51883000D01*
G75*
G02*
X-63776000Y-51633000I250000J0D01*
G01*
G37*
%TD*%
%TO.C,R104*%
G36*
G01*
X-40011400Y-48262600D02*
X-40011400Y-47012600D01*
G75*
G02*
X-39761400Y-46762600I250000J0D01*
G01*
X-38961400Y-46762600D01*
G75*
G02*
X-38711400Y-47012600I0J-250000D01*
G01*
X-38711400Y-48262600D01*
G75*
G02*
X-38961400Y-48512600I-250000J0D01*
G01*
X-39761400Y-48512600D01*
G75*
G02*
X-40011400Y-48262600I0J250000D01*
G01*
G37*
G36*
G01*
X-43111400Y-48262600D02*
X-43111400Y-47012600D01*
G75*
G02*
X-42861400Y-46762600I250000J0D01*
G01*
X-42061400Y-46762600D01*
G75*
G02*
X-41811400Y-47012600I0J-250000D01*
G01*
X-41811400Y-48262600D01*
G75*
G02*
X-42061400Y-48512600I-250000J0D01*
G01*
X-42861400Y-48512600D01*
G75*
G02*
X-43111400Y-48262600I0J250000D01*
G01*
G37*
%TD*%
D10*
%TO.C,Q102*%
X-67369200Y-50688000D03*
X-65369200Y-49738000D03*
X-65369200Y-51638000D03*
%TD*%
D11*
%TO.C,D102*%
X-46816300Y-52000000D03*
X-46816300Y-48700000D03*
%TD*%
%TO.C,D101*%
X-43582800Y-19950100D03*
X-43582800Y-23250100D03*
%TD*%
%TO.C,C104*%
G36*
G01*
X-60783501Y-50254600D02*
X-59483499Y-50254600D01*
G75*
G02*
X-59233500Y-50504599I0J-249999D01*
G01*
X-59233500Y-51154601D01*
G75*
G02*
X-59483499Y-51404600I-249999J0D01*
G01*
X-60783501Y-51404600D01*
G75*
G02*
X-61033500Y-51154601I0J249999D01*
G01*
X-61033500Y-50504599D01*
G75*
G02*
X-60783501Y-50254600I249999J0D01*
G01*
G37*
G36*
G01*
X-60783501Y-47304600D02*
X-59483499Y-47304600D01*
G75*
G02*
X-59233500Y-47554599I0J-249999D01*
G01*
X-59233500Y-48204601D01*
G75*
G02*
X-59483499Y-48454600I-249999J0D01*
G01*
X-60783501Y-48454600D01*
G75*
G02*
X-61033500Y-48204601I0J249999D01*
G01*
X-61033500Y-47554599D01*
G75*
G02*
X-60783501Y-47304600I249999J0D01*
G01*
G37*
%TD*%
%TO.C,C103*%
G36*
G01*
X-56927801Y-50341000D02*
X-55627799Y-50341000D01*
G75*
G02*
X-55377800Y-50590999I0J-249999D01*
G01*
X-55377800Y-51241001D01*
G75*
G02*
X-55627799Y-51491000I-249999J0D01*
G01*
X-56927801Y-51491000D01*
G75*
G02*
X-57177800Y-51241001I0J249999D01*
G01*
X-57177800Y-50590999D01*
G75*
G02*
X-56927801Y-50341000I249999J0D01*
G01*
G37*
G36*
G01*
X-56927801Y-47391000D02*
X-55627799Y-47391000D01*
G75*
G02*
X-55377800Y-47640999I0J-249999D01*
G01*
X-55377800Y-48291001D01*
G75*
G02*
X-55627799Y-48541000I-249999J0D01*
G01*
X-56927801Y-48541000D01*
G75*
G02*
X-57177800Y-48291001I0J249999D01*
G01*
X-57177800Y-47640999D01*
G75*
G02*
X-56927801Y-47391000I249999J0D01*
G01*
G37*
%TD*%
D10*
%TO.C,Q101*%
X-54608200Y-33992700D03*
X-52608200Y-33042700D03*
X-52608200Y-34942700D03*
%TD*%
%TO.C,U101*%
G36*
G01*
X-44434900Y-33456900D02*
X-44434900Y-33156900D01*
G75*
G02*
X-44284900Y-33006900I150000J0D01*
G01*
X-42634900Y-33006900D01*
G75*
G02*
X-42484900Y-33156900I0J-150000D01*
G01*
X-42484900Y-33456900D01*
G75*
G02*
X-42634900Y-33606900I-150000J0D01*
G01*
X-44284900Y-33606900D01*
G75*
G02*
X-44434900Y-33456900I0J150000D01*
G01*
G37*
G36*
G01*
X-44434900Y-34726900D02*
X-44434900Y-34426900D01*
G75*
G02*
X-44284900Y-34276900I150000J0D01*
G01*
X-42634900Y-34276900D01*
G75*
G02*
X-42484900Y-34426900I0J-150000D01*
G01*
X-42484900Y-34726900D01*
G75*
G02*
X-42634900Y-34876900I-150000J0D01*
G01*
X-44284900Y-34876900D01*
G75*
G02*
X-44434900Y-34726900I0J150000D01*
G01*
G37*
G36*
G01*
X-44434900Y-35996900D02*
X-44434900Y-35696900D01*
G75*
G02*
X-44284900Y-35546900I150000J0D01*
G01*
X-42634900Y-35546900D01*
G75*
G02*
X-42484900Y-35696900I0J-150000D01*
G01*
X-42484900Y-35996900D01*
G75*
G02*
X-42634900Y-36146900I-150000J0D01*
G01*
X-44284900Y-36146900D01*
G75*
G02*
X-44434900Y-35996900I0J150000D01*
G01*
G37*
G36*
G01*
X-44434900Y-37266900D02*
X-44434900Y-36966900D01*
G75*
G02*
X-44284900Y-36816900I150000J0D01*
G01*
X-42634900Y-36816900D01*
G75*
G02*
X-42484900Y-36966900I0J-150000D01*
G01*
X-42484900Y-37266900D01*
G75*
G02*
X-42634900Y-37416900I-150000J0D01*
G01*
X-44284900Y-37416900D01*
G75*
G02*
X-44434900Y-37266900I0J150000D01*
G01*
G37*
G36*
G01*
X-49384900Y-37266900D02*
X-49384900Y-36966900D01*
G75*
G02*
X-49234900Y-36816900I150000J0D01*
G01*
X-47584900Y-36816900D01*
G75*
G02*
X-47434900Y-36966900I0J-150000D01*
G01*
X-47434900Y-37266900D01*
G75*
G02*
X-47584900Y-37416900I-150000J0D01*
G01*
X-49234900Y-37416900D01*
G75*
G02*
X-49384900Y-37266900I0J150000D01*
G01*
G37*
G36*
G01*
X-49384900Y-35996900D02*
X-49384900Y-35696900D01*
G75*
G02*
X-49234900Y-35546900I150000J0D01*
G01*
X-47584900Y-35546900D01*
G75*
G02*
X-47434900Y-35696900I0J-150000D01*
G01*
X-47434900Y-35996900D01*
G75*
G02*
X-47584900Y-36146900I-150000J0D01*
G01*
X-49234900Y-36146900D01*
G75*
G02*
X-49384900Y-35996900I0J150000D01*
G01*
G37*
G36*
G01*
X-49384900Y-34726900D02*
X-49384900Y-34426900D01*
G75*
G02*
X-49234900Y-34276900I150000J0D01*
G01*
X-47584900Y-34276900D01*
G75*
G02*
X-47434900Y-34426900I0J-150000D01*
G01*
X-47434900Y-34726900D01*
G75*
G02*
X-47584900Y-34876900I-150000J0D01*
G01*
X-49234900Y-34876900D01*
G75*
G02*
X-49384900Y-34726900I0J150000D01*
G01*
G37*
G36*
G01*
X-49384900Y-33456900D02*
X-49384900Y-33156900D01*
G75*
G02*
X-49234900Y-33006900I150000J0D01*
G01*
X-47584900Y-33006900D01*
G75*
G02*
X-47434900Y-33156900I0J-150000D01*
G01*
X-47434900Y-33456900D01*
G75*
G02*
X-47584900Y-33606900I-150000J0D01*
G01*
X-49234900Y-33606900D01*
G75*
G02*
X-49384900Y-33456900I0J150000D01*
G01*
G37*
%TD*%
%TO.C,R103*%
G36*
G01*
X-60258200Y-33479500D02*
X-60258200Y-34729500D01*
G75*
G02*
X-60508200Y-34979500I-250000J0D01*
G01*
X-61308200Y-34979500D01*
G75*
G02*
X-61558200Y-34729500I0J250000D01*
G01*
X-61558200Y-33479500D01*
G75*
G02*
X-61308200Y-33229500I250000J0D01*
G01*
X-60508200Y-33229500D01*
G75*
G02*
X-60258200Y-33479500I0J-250000D01*
G01*
G37*
G36*
G01*
X-57158200Y-33479500D02*
X-57158200Y-34729500D01*
G75*
G02*
X-57408200Y-34979500I-250000J0D01*
G01*
X-58208200Y-34979500D01*
G75*
G02*
X-58458200Y-34729500I0J250000D01*
G01*
X-58458200Y-33479500D01*
G75*
G02*
X-58208200Y-33229500I250000J0D01*
G01*
X-57408200Y-33229500D01*
G75*
G02*
X-57158200Y-33479500I0J-250000D01*
G01*
G37*
%TD*%
%TO.C,R102*%
G36*
G01*
X-40839800Y-34923200D02*
X-39589800Y-34923200D01*
G75*
G02*
X-39339800Y-35173200I0J-250000D01*
G01*
X-39339800Y-35973200D01*
G75*
G02*
X-39589800Y-36223200I-250000J0D01*
G01*
X-40839800Y-36223200D01*
G75*
G02*
X-41089800Y-35973200I0J250000D01*
G01*
X-41089800Y-35173200D01*
G75*
G02*
X-40839800Y-34923200I250000J0D01*
G01*
G37*
G36*
G01*
X-40839800Y-31823200D02*
X-39589800Y-31823200D01*
G75*
G02*
X-39339800Y-32073200I0J-250000D01*
G01*
X-39339800Y-32873200D01*
G75*
G02*
X-39589800Y-33123200I-250000J0D01*
G01*
X-40839800Y-33123200D01*
G75*
G02*
X-41089800Y-32873200I0J250000D01*
G01*
X-41089800Y-32073200D01*
G75*
G02*
X-40839800Y-31823200I250000J0D01*
G01*
G37*
%TD*%
%TO.C,R101*%
G36*
G01*
X-53224800Y-40407100D02*
X-51974800Y-40407100D01*
G75*
G02*
X-51724800Y-40657100I0J-250000D01*
G01*
X-51724800Y-41457100D01*
G75*
G02*
X-51974800Y-41707100I-250000J0D01*
G01*
X-53224800Y-41707100D01*
G75*
G02*
X-53474800Y-41457100I0J250000D01*
G01*
X-53474800Y-40657100D01*
G75*
G02*
X-53224800Y-40407100I250000J0D01*
G01*
G37*
G36*
G01*
X-53224800Y-37307100D02*
X-51974800Y-37307100D01*
G75*
G02*
X-51724800Y-37557100I0J-250000D01*
G01*
X-51724800Y-38357100D01*
G75*
G02*
X-51974800Y-38607100I-250000J0D01*
G01*
X-53224800Y-38607100D01*
G75*
G02*
X-53474800Y-38357100I0J250000D01*
G01*
X-53474800Y-37557100D01*
G75*
G02*
X-53224800Y-37307100I250000J0D01*
G01*
G37*
%TD*%
%TO.C,C102*%
G36*
G01*
X-40887701Y-40026100D02*
X-39587699Y-40026100D01*
G75*
G02*
X-39337700Y-40276099I0J-249999D01*
G01*
X-39337700Y-40926101D01*
G75*
G02*
X-39587699Y-41176100I-249999J0D01*
G01*
X-40887701Y-41176100D01*
G75*
G02*
X-41137700Y-40926101I0J249999D01*
G01*
X-41137700Y-40276099D01*
G75*
G02*
X-40887701Y-40026100I249999J0D01*
G01*
G37*
G36*
G01*
X-40887701Y-37076100D02*
X-39587699Y-37076100D01*
G75*
G02*
X-39337700Y-37326099I0J-249999D01*
G01*
X-39337700Y-37976101D01*
G75*
G02*
X-39587699Y-38226100I-249999J0D01*
G01*
X-40887701Y-38226100D01*
G75*
G02*
X-41137700Y-37976101I0J249999D01*
G01*
X-41137700Y-37326099D01*
G75*
G02*
X-40887701Y-37076100I249999J0D01*
G01*
G37*
%TD*%
%TO.C,C101*%
G36*
G01*
X-46687600Y-39593699D02*
X-46687600Y-40893701D01*
G75*
G02*
X-46937599Y-41143700I-249999J0D01*
G01*
X-47587601Y-41143700D01*
G75*
G02*
X-47837600Y-40893701I0J249999D01*
G01*
X-47837600Y-39593699D01*
G75*
G02*
X-47587601Y-39343700I249999J0D01*
G01*
X-46937599Y-39343700D01*
G75*
G02*
X-46687600Y-39593699I0J-249999D01*
G01*
G37*
G36*
G01*
X-43737600Y-39593699D02*
X-43737600Y-40893701D01*
G75*
G02*
X-43987599Y-41143700I-249999J0D01*
G01*
X-44637601Y-41143700D01*
G75*
G02*
X-44887600Y-40893701I0J249999D01*
G01*
X-44887600Y-39593699D01*
G75*
G02*
X-44637601Y-39343700I249999J0D01*
G01*
X-43987599Y-39343700D01*
G75*
G02*
X-43737600Y-39593699I0J-249999D01*
G01*
G37*
%TD*%
D12*
%TO.C,TP116*%
X-18710000Y-30140000D03*
%TD*%
%TO.C,TP110*%
X-70500000Y-21120000D03*
%TD*%
%TO.C,TP109*%
X-18140000Y-35590000D03*
%TD*%
%TO.C,TP108*%
X-67720000Y-20190000D03*
%TD*%
%TO.C,TP107*%
X-8300000Y-26800000D03*
%TD*%
%TO.C,TP106*%
X-28230000Y-19660000D03*
%TD*%
%TO.C,TP105*%
X-9350000Y-12670000D03*
%TD*%
%TO.C,TP104*%
X-26770000Y-15310000D03*
%TD*%
%TO.C,TP103*%
X-13770000Y-65230000D03*
%TD*%
%TO.C,TP102*%
X-24870000Y-54640000D03*
%TD*%
%TO.C,TP101*%
X-35490000Y-48450000D03*
%TD*%
%TO.C,R110*%
G36*
G01*
X-23119998Y-47690000D02*
X-24020002Y-47690000D01*
G75*
G02*
X-24270000Y-47440002I0J249998D01*
G01*
X-24270000Y-46914998D01*
G75*
G02*
X-24020002Y-46665000I249998J0D01*
G01*
X-23119998Y-46665000D01*
G75*
G02*
X-22870000Y-46914998I0J-249998D01*
G01*
X-22870000Y-47440002D01*
G75*
G02*
X-23119998Y-47690000I-249998J0D01*
G01*
G37*
G36*
G01*
X-23119998Y-49515000D02*
X-24020002Y-49515000D01*
G75*
G02*
X-24270000Y-49265002I0J249998D01*
G01*
X-24270000Y-48739998D01*
G75*
G02*
X-24020002Y-48490000I249998J0D01*
G01*
X-23119998Y-48490000D01*
G75*
G02*
X-22870000Y-48739998I0J-249998D01*
G01*
X-22870000Y-49265002D01*
G75*
G02*
X-23119998Y-49515000I-249998J0D01*
G01*
G37*
%TD*%
%TO.C,R109*%
G36*
G01*
X-27350002Y-62058000D02*
X-26449998Y-62058000D01*
G75*
G02*
X-26200000Y-62307998I0J-249998D01*
G01*
X-26200000Y-62833002D01*
G75*
G02*
X-26449998Y-63083000I-249998J0D01*
G01*
X-27350002Y-63083000D01*
G75*
G02*
X-27600000Y-62833002I0J249998D01*
G01*
X-27600000Y-62307998D01*
G75*
G02*
X-27350002Y-62058000I249998J0D01*
G01*
G37*
G36*
G01*
X-27350002Y-60233000D02*
X-26449998Y-60233000D01*
G75*
G02*
X-26200000Y-60482998I0J-249998D01*
G01*
X-26200000Y-61008002D01*
G75*
G02*
X-26449998Y-61258000I-249998J0D01*
G01*
X-27350002Y-61258000D01*
G75*
G02*
X-27600000Y-61008002I0J249998D01*
G01*
X-27600000Y-60482998D01*
G75*
G02*
X-27350002Y-60233000I249998J0D01*
G01*
G37*
%TD*%
%TO.C,R106*%
G36*
G01*
X-38110000Y-52089998D02*
X-38110000Y-52990002D01*
G75*
G02*
X-38359998Y-53240000I-249998J0D01*
G01*
X-38885002Y-53240000D01*
G75*
G02*
X-39135000Y-52990002I0J249998D01*
G01*
X-39135000Y-52089998D01*
G75*
G02*
X-38885002Y-51840000I249998J0D01*
G01*
X-38359998Y-51840000D01*
G75*
G02*
X-38110000Y-52089998I0J-249998D01*
G01*
G37*
G36*
G01*
X-36285000Y-52089998D02*
X-36285000Y-52990002D01*
G75*
G02*
X-36534998Y-53240000I-249998J0D01*
G01*
X-37060002Y-53240000D01*
G75*
G02*
X-37310000Y-52990002I0J249998D01*
G01*
X-37310000Y-52089998D01*
G75*
G02*
X-37060002Y-51840000I249998J0D01*
G01*
X-36534998Y-51840000D01*
G75*
G02*
X-36285000Y-52089998I0J-249998D01*
G01*
G37*
%TD*%
D13*
%TO.C,BT203*%
X-21630000Y-64510000D03*
X-21630000Y-93810000D03*
%TD*%
%TO.C,R215*%
G36*
G01*
X-77060798Y-39182100D02*
X-77960802Y-39182100D01*
G75*
G02*
X-78210800Y-38932102I0J249998D01*
G01*
X-78210800Y-38407098D01*
G75*
G02*
X-77960802Y-38157100I249998J0D01*
G01*
X-77060798Y-38157100D01*
G75*
G02*
X-76810800Y-38407098I0J-249998D01*
G01*
X-76810800Y-38932102D01*
G75*
G02*
X-77060798Y-39182100I-249998J0D01*
G01*
G37*
G36*
G01*
X-77060798Y-41007100D02*
X-77960802Y-41007100D01*
G75*
G02*
X-78210800Y-40757102I0J249998D01*
G01*
X-78210800Y-40232098D01*
G75*
G02*
X-77960802Y-39982100I249998J0D01*
G01*
X-77060798Y-39982100D01*
G75*
G02*
X-76810800Y-40232098I0J-249998D01*
G01*
X-76810800Y-40757102D01*
G75*
G02*
X-77060798Y-41007100I-249998J0D01*
G01*
G37*
%TD*%
D14*
%TO.C,Q206*%
X-80322600Y-42077800D03*
X-81272600Y-39077800D03*
X-79372600Y-39077800D03*
%TD*%
%TO.C,Q204*%
X-9479000Y-54966000D03*
X-8529000Y-57966000D03*
X-10429000Y-57966000D03*
%TD*%
%TO.C,R210*%
G36*
G01*
X-11862000Y-43021998D02*
X-11862000Y-43922002D01*
G75*
G02*
X-12111998Y-44172000I-249998J0D01*
G01*
X-12637002Y-44172000D01*
G75*
G02*
X-12887000Y-43922002I0J249998D01*
G01*
X-12887000Y-43021998D01*
G75*
G02*
X-12637002Y-42772000I249998J0D01*
G01*
X-12111998Y-42772000D01*
G75*
G02*
X-11862000Y-43021998I0J-249998D01*
G01*
G37*
G36*
G01*
X-10037000Y-43021998D02*
X-10037000Y-43922002D01*
G75*
G02*
X-10286998Y-44172000I-249998J0D01*
G01*
X-10812002Y-44172000D01*
G75*
G02*
X-11062000Y-43922002I0J249998D01*
G01*
X-11062000Y-43021998D01*
G75*
G02*
X-10812002Y-42772000I249998J0D01*
G01*
X-10286998Y-42772000D01*
G75*
G02*
X-10037000Y-43021998I0J-249998D01*
G01*
G37*
%TD*%
D15*
%TO.C,D204*%
X-30230000Y-45630000D03*
X-29580000Y-45630000D03*
X-28930000Y-45630000D03*
X-28930000Y-48290000D03*
X-29580000Y-48290000D03*
X-30230000Y-48290000D03*
%TD*%
%TO.C,R211*%
G36*
G01*
X-12740002Y-57864000D02*
X-11839998Y-57864000D01*
G75*
G02*
X-11590000Y-58113998I0J-249998D01*
G01*
X-11590000Y-58639002D01*
G75*
G02*
X-11839998Y-58889000I-249998J0D01*
G01*
X-12740002Y-58889000D01*
G75*
G02*
X-12990000Y-58639002I0J249998D01*
G01*
X-12990000Y-58113998D01*
G75*
G02*
X-12740002Y-57864000I249998J0D01*
G01*
G37*
G36*
G01*
X-12740002Y-56039000D02*
X-11839998Y-56039000D01*
G75*
G02*
X-11590000Y-56288998I0J-249998D01*
G01*
X-11590000Y-56814002D01*
G75*
G02*
X-11839998Y-57064000I-249998J0D01*
G01*
X-12740002Y-57064000D01*
G75*
G02*
X-12990000Y-56814002I0J249998D01*
G01*
X-12990000Y-56288998D01*
G75*
G02*
X-12740002Y-56039000I249998J0D01*
G01*
G37*
%TD*%
%TO.C,R214*%
G36*
G01*
X-6456998Y-33028200D02*
X-7357002Y-33028200D01*
G75*
G02*
X-7607000Y-32778202I0J249998D01*
G01*
X-7607000Y-32253198D01*
G75*
G02*
X-7357002Y-32003200I249998J0D01*
G01*
X-6456998Y-32003200D01*
G75*
G02*
X-6207000Y-32253198I0J-249998D01*
G01*
X-6207000Y-32778202D01*
G75*
G02*
X-6456998Y-33028200I-249998J0D01*
G01*
G37*
G36*
G01*
X-6456998Y-34853200D02*
X-7357002Y-34853200D01*
G75*
G02*
X-7607000Y-34603202I0J249998D01*
G01*
X-7607000Y-34078198D01*
G75*
G02*
X-7357002Y-33828200I249998J0D01*
G01*
X-6456998Y-33828200D01*
G75*
G02*
X-6207000Y-34078198I0J-249998D01*
G01*
X-6207000Y-34603202D01*
G75*
G02*
X-6456998Y-34853200I-249998J0D01*
G01*
G37*
%TD*%
%TO.C,U260*%
G36*
G01*
X-82350100Y-36610000D02*
X-82350100Y-36885000D01*
G75*
G02*
X-82487600Y-37022500I-137500J0D01*
G01*
X-83662600Y-37022500D01*
G75*
G02*
X-83800100Y-36885000I0J137500D01*
G01*
X-83800100Y-36610000D01*
G75*
G02*
X-83662600Y-36472500I137500J0D01*
G01*
X-82487600Y-36472500D01*
G75*
G02*
X-82350100Y-36610000I0J-137500D01*
G01*
G37*
G36*
G01*
X-82350100Y-34070000D02*
X-82350100Y-34345000D01*
G75*
G02*
X-82487600Y-34482500I-137500J0D01*
G01*
X-83662600Y-34482500D01*
G75*
G02*
X-83800100Y-34345000I0J137500D01*
G01*
X-83800100Y-34070000D01*
G75*
G02*
X-83662600Y-33932500I137500J0D01*
G01*
X-82487600Y-33932500D01*
G75*
G02*
X-82350100Y-34070000I0J-137500D01*
G01*
G37*
G36*
G01*
X-76850100Y-34070000D02*
X-76850100Y-34345000D01*
G75*
G02*
X-76987600Y-34482500I-137500J0D01*
G01*
X-78162600Y-34482500D01*
G75*
G02*
X-78300100Y-34345000I0J137500D01*
G01*
X-78300100Y-34070000D01*
G75*
G02*
X-78162600Y-33932500I137500J0D01*
G01*
X-76987600Y-33932500D01*
G75*
G02*
X-76850100Y-34070000I0J-137500D01*
G01*
G37*
G36*
G01*
X-76850100Y-36610000D02*
X-76850100Y-36885000D01*
G75*
G02*
X-76987600Y-37022500I-137500J0D01*
G01*
X-78162600Y-37022500D01*
G75*
G02*
X-78300100Y-36885000I0J137500D01*
G01*
X-78300100Y-36610000D01*
G75*
G02*
X-78162600Y-36472500I137500J0D01*
G01*
X-76987600Y-36472500D01*
G75*
G02*
X-76850100Y-36610000I0J-137500D01*
G01*
G37*
%TD*%
%TO.C,U240*%
G36*
G01*
X-7471000Y-60519500D02*
X-7471000Y-60244500D01*
G75*
G02*
X-7333500Y-60107000I137500J0D01*
G01*
X-6158500Y-60107000D01*
G75*
G02*
X-6021000Y-60244500I0J-137500D01*
G01*
X-6021000Y-60519500D01*
G75*
G02*
X-6158500Y-60657000I-137500J0D01*
G01*
X-7333500Y-60657000D01*
G75*
G02*
X-7471000Y-60519500I0J137500D01*
G01*
G37*
G36*
G01*
X-7471000Y-63059500D02*
X-7471000Y-62784500D01*
G75*
G02*
X-7333500Y-62647000I137500J0D01*
G01*
X-6158500Y-62647000D01*
G75*
G02*
X-6021000Y-62784500I0J-137500D01*
G01*
X-6021000Y-63059500D01*
G75*
G02*
X-6158500Y-63197000I-137500J0D01*
G01*
X-7333500Y-63197000D01*
G75*
G02*
X-7471000Y-63059500I0J137500D01*
G01*
G37*
G36*
G01*
X-12971000Y-63059500D02*
X-12971000Y-62784500D01*
G75*
G02*
X-12833500Y-62647000I137500J0D01*
G01*
X-11658500Y-62647000D01*
G75*
G02*
X-11521000Y-62784500I0J-137500D01*
G01*
X-11521000Y-63059500D01*
G75*
G02*
X-11658500Y-63197000I-137500J0D01*
G01*
X-12833500Y-63197000D01*
G75*
G02*
X-12971000Y-63059500I0J137500D01*
G01*
G37*
G36*
G01*
X-12971000Y-60519500D02*
X-12971000Y-60244500D01*
G75*
G02*
X-12833500Y-60107000I137500J0D01*
G01*
X-11658500Y-60107000D01*
G75*
G02*
X-11521000Y-60244500I0J-137500D01*
G01*
X-11521000Y-60519500D01*
G75*
G02*
X-11658500Y-60657000I-137500J0D01*
G01*
X-12833500Y-60657000D01*
G75*
G02*
X-12971000Y-60519500I0J137500D01*
G01*
G37*
%TD*%
%TO.C,R213*%
G36*
G01*
X-12938002Y-33838300D02*
X-12037998Y-33838300D01*
G75*
G02*
X-11788000Y-34088298I0J-249998D01*
G01*
X-11788000Y-34613302D01*
G75*
G02*
X-12037998Y-34863300I-249998J0D01*
G01*
X-12938002Y-34863300D01*
G75*
G02*
X-13188000Y-34613302I0J249998D01*
G01*
X-13188000Y-34088298D01*
G75*
G02*
X-12938002Y-33838300I249998J0D01*
G01*
G37*
G36*
G01*
X-12938002Y-32013300D02*
X-12037998Y-32013300D01*
G75*
G02*
X-11788000Y-32263298I0J-249998D01*
G01*
X-11788000Y-32788302D01*
G75*
G02*
X-12037998Y-33038300I-249998J0D01*
G01*
X-12938002Y-33038300D01*
G75*
G02*
X-13188000Y-32788302I0J249998D01*
G01*
X-13188000Y-32263298D01*
G75*
G02*
X-12938002Y-32013300I249998J0D01*
G01*
G37*
%TD*%
%TO.C,R216*%
G36*
G01*
X-83564002Y-39969400D02*
X-82663998Y-39969400D01*
G75*
G02*
X-82414000Y-40219398I0J-249998D01*
G01*
X-82414000Y-40744402D01*
G75*
G02*
X-82663998Y-40994400I-249998J0D01*
G01*
X-83564002Y-40994400D01*
G75*
G02*
X-83814000Y-40744402I0J249998D01*
G01*
X-83814000Y-40219398D01*
G75*
G02*
X-83564002Y-39969400I249998J0D01*
G01*
G37*
G36*
G01*
X-83564002Y-38144400D02*
X-82663998Y-38144400D01*
G75*
G02*
X-82414000Y-38394398I0J-249998D01*
G01*
X-82414000Y-38919402D01*
G75*
G02*
X-82663998Y-39169400I-249998J0D01*
G01*
X-83564002Y-39169400D01*
G75*
G02*
X-83814000Y-38919402I0J249998D01*
G01*
X-83814000Y-38394398D01*
G75*
G02*
X-83564002Y-38144400I249998J0D01*
G01*
G37*
%TD*%
%TO.C,U250*%
G36*
G01*
X-7712000Y-36354600D02*
X-7712000Y-36079600D01*
G75*
G02*
X-7574500Y-35942100I137500J0D01*
G01*
X-6399500Y-35942100D01*
G75*
G02*
X-6262000Y-36079600I0J-137500D01*
G01*
X-6262000Y-36354600D01*
G75*
G02*
X-6399500Y-36492100I-137500J0D01*
G01*
X-7574500Y-36492100D01*
G75*
G02*
X-7712000Y-36354600I0J137500D01*
G01*
G37*
G36*
G01*
X-7712000Y-38894600D02*
X-7712000Y-38619600D01*
G75*
G02*
X-7574500Y-38482100I137500J0D01*
G01*
X-6399500Y-38482100D01*
G75*
G02*
X-6262000Y-38619600I0J-137500D01*
G01*
X-6262000Y-38894600D01*
G75*
G02*
X-6399500Y-39032100I-137500J0D01*
G01*
X-7574500Y-39032100D01*
G75*
G02*
X-7712000Y-38894600I0J137500D01*
G01*
G37*
G36*
G01*
X-13212000Y-38894600D02*
X-13212000Y-38619600D01*
G75*
G02*
X-13074500Y-38482100I137500J0D01*
G01*
X-11899500Y-38482100D01*
G75*
G02*
X-11762000Y-38619600I0J-137500D01*
G01*
X-11762000Y-38894600D01*
G75*
G02*
X-11899500Y-39032100I-137500J0D01*
G01*
X-13074500Y-39032100D01*
G75*
G02*
X-13212000Y-38894600I0J137500D01*
G01*
G37*
G36*
G01*
X-13212000Y-36354600D02*
X-13212000Y-36079600D01*
G75*
G02*
X-13074500Y-35942100I137500J0D01*
G01*
X-11899500Y-35942100D01*
G75*
G02*
X-11762000Y-36079600I0J-137500D01*
G01*
X-11762000Y-36354600D01*
G75*
G02*
X-11899500Y-36492100I-137500J0D01*
G01*
X-13074500Y-36492100D01*
G75*
G02*
X-13212000Y-36354600I0J137500D01*
G01*
G37*
%TD*%
%TO.C,R212*%
G36*
G01*
X-6223998Y-57084000D02*
X-7124002Y-57084000D01*
G75*
G02*
X-7374000Y-56834002I0J249998D01*
G01*
X-7374000Y-56308998D01*
G75*
G02*
X-7124002Y-56059000I249998J0D01*
G01*
X-6223998Y-56059000D01*
G75*
G02*
X-5974000Y-56308998I0J-249998D01*
G01*
X-5974000Y-56834002D01*
G75*
G02*
X-6223998Y-57084000I-249998J0D01*
G01*
G37*
G36*
G01*
X-6223998Y-58909000D02*
X-7124002Y-58909000D01*
G75*
G02*
X-7374000Y-58659002I0J249998D01*
G01*
X-7374000Y-58133998D01*
G75*
G02*
X-7124002Y-57884000I249998J0D01*
G01*
X-6223998Y-57884000D01*
G75*
G02*
X-5974000Y-58133998I0J-249998D01*
G01*
X-5974000Y-58659002D01*
G75*
G02*
X-6223998Y-58909000I-249998J0D01*
G01*
G37*
%TD*%
D14*
%TO.C,Q205*%
X-9704000Y-30917200D03*
X-8754000Y-33917200D03*
X-10654000Y-33917200D03*
%TD*%
%TO.C,U230*%
G36*
G01*
X-9437000Y-45895500D02*
X-9437000Y-45620500D01*
G75*
G02*
X-9299500Y-45483000I137500J0D01*
G01*
X-8124500Y-45483000D01*
G75*
G02*
X-7987000Y-45620500I0J-137500D01*
G01*
X-7987000Y-45895500D01*
G75*
G02*
X-8124500Y-46033000I-137500J0D01*
G01*
X-9299500Y-46033000D01*
G75*
G02*
X-9437000Y-45895500I0J137500D01*
G01*
G37*
G36*
G01*
X-9437000Y-48435500D02*
X-9437000Y-48160500D01*
G75*
G02*
X-9299500Y-48023000I137500J0D01*
G01*
X-8124500Y-48023000D01*
G75*
G02*
X-7987000Y-48160500I0J-137500D01*
G01*
X-7987000Y-48435500D01*
G75*
G02*
X-8124500Y-48573000I-137500J0D01*
G01*
X-9299500Y-48573000D01*
G75*
G02*
X-9437000Y-48435500I0J137500D01*
G01*
G37*
G36*
G01*
X-14937000Y-48435500D02*
X-14937000Y-48160500D01*
G75*
G02*
X-14799500Y-48023000I137500J0D01*
G01*
X-13624500Y-48023000D01*
G75*
G02*
X-13487000Y-48160500I0J-137500D01*
G01*
X-13487000Y-48435500D01*
G75*
G02*
X-13624500Y-48573000I-137500J0D01*
G01*
X-14799500Y-48573000D01*
G75*
G02*
X-14937000Y-48435500I0J137500D01*
G01*
G37*
G36*
G01*
X-14937000Y-45895500D02*
X-14937000Y-45620500D01*
G75*
G02*
X-14799500Y-45483000I137500J0D01*
G01*
X-13624500Y-45483000D01*
G75*
G02*
X-13487000Y-45620500I0J-137500D01*
G01*
X-13487000Y-45895500D01*
G75*
G02*
X-13624500Y-46033000I-137500J0D01*
G01*
X-14799500Y-46033000D01*
G75*
G02*
X-14937000Y-45895500I0J137500D01*
G01*
G37*
%TD*%
D16*
%TO.C,J203*%
X-5292000Y-46150000D03*
X-5292000Y-47400000D03*
X-5292000Y-48650000D03*
D17*
X-2592000Y-50900000D03*
X-2592000Y-43900000D03*
%TD*%
D13*
%TO.C,BT201*%
X-69130000Y-64510000D03*
X-69130000Y-93810000D03*
%TD*%
%TO.C,BT202*%
X-45610000Y-64280000D03*
X-45610000Y-93580000D03*
%TD*%
M02*
