%TF.GenerationSoftware,KiCad,Pcbnew,(5.1.12)-1*%
%TF.CreationDate,2023-02-07T17:32:02-05:00*%
%TF.ProjectId,RADSAT-SK Timer 2,52414453-4154-42d5-934b-2054696d6572,rev?*%
%TF.SameCoordinates,PX7735940PY2faf080*%
%TF.FileFunction,Copper,L2,Bot*%
%TF.FilePolarity,Positive*%
%FSLAX46Y46*%
G04 Gerber Fmt 4.6, Leading zero omitted, Abs format (unit mm)*
G04 Created by KiCad (PCBNEW (5.1.12)-1) date 2023-02-07 17:32:02*
%MOMM*%
%LPD*%
G01*
G04 APERTURE LIST*
%TA.AperFunction,ComponentPad*%
%ADD10O,1.400000X0.900000*%
%TD*%
%TA.AperFunction,ComponentPad*%
%ADD11O,1.700000X1.700000*%
%TD*%
%TA.AperFunction,ComponentPad*%
%ADD12R,1.700000X1.700000*%
%TD*%
%TA.AperFunction,ConnectorPad*%
%ADD13C,5.700000*%
%TD*%
%TA.AperFunction,ComponentPad*%
%ADD14C,3.600000*%
%TD*%
%TA.AperFunction,ComponentPad*%
%ADD15O,1.300000X0.800000*%
%TD*%
%TA.AperFunction,ComponentPad*%
%ADD16R,1.400000X0.900000*%
%TD*%
%TA.AperFunction,ViaPad*%
%ADD17C,0.800000*%
%TD*%
%TA.AperFunction,Conductor*%
%ADD18C,0.350000*%
%TD*%
%TA.AperFunction,Conductor*%
%ADD19C,0.600000*%
%TD*%
%TA.AperFunction,Conductor*%
%ADD20C,0.250000*%
%TD*%
%TA.AperFunction,Conductor*%
%ADD21C,0.254000*%
%TD*%
%TA.AperFunction,Conductor*%
%ADD22C,0.100000*%
%TD*%
G04 APERTURE END LIST*
D10*
%TO.P,J202,5*%
%TO.N,Net-(BT201-Pad2)*%
X-5310000Y-24920000D03*
%TO.P,J202,4*%
%TO.N,InhibV+*%
X-5310000Y-23670000D03*
%TO.P,J202,3*%
%TO.N,Net-(J202-Pad3)*%
X-5310000Y-22420000D03*
%TO.P,J202,2*%
%TO.N,Net-(D204-Pad6)*%
X-5310000Y-21170000D03*
%TO.P,J202,1*%
%TO.N,USB_Charge*%
%TA.AperFunction,ComponentPad*%
G36*
G01*
X-5785000Y-19470000D02*
X-4835000Y-19470000D01*
G75*
G02*
X-4610000Y-19695000I0J-225000D01*
G01*
X-4610000Y-20145000D01*
G75*
G02*
X-4835000Y-20370000I-225000J0D01*
G01*
X-5785000Y-20370000D01*
G75*
G02*
X-6010000Y-20145000I0J225000D01*
G01*
X-6010000Y-19695000D01*
G75*
G02*
X-5785000Y-19470000I225000J0D01*
G01*
G37*
%TD.AperFunction*%
%TD*%
D11*
%TO.P,J207,52*%
%TO.N,Net-(J207-Pad52)*%
X-12620000Y-7350000D03*
%TO.P,J207,51*%
%TO.N,Net-(J207-Pad51)*%
X-12620000Y-4810000D03*
%TO.P,J207,50*%
%TO.N,Net-(J207-Pad50)*%
X-15160000Y-7350000D03*
%TO.P,J207,49*%
%TO.N,Net-(J207-Pad49)*%
X-15160000Y-4810000D03*
%TO.P,J207,48*%
%TO.N,Net-(J207-Pad48)*%
X-17700000Y-7350000D03*
%TO.P,J207,47*%
%TO.N,Net-(J207-Pad47)*%
X-17700000Y-4810000D03*
%TO.P,J207,46*%
%TO.N,Net-(J207-Pad46)*%
X-20240000Y-7350000D03*
%TO.P,J207,45*%
%TO.N,Net-(J207-Pad45)*%
X-20240000Y-4810000D03*
%TO.P,J207,44*%
%TO.N,Net-(J207-Pad44)*%
X-22780000Y-7350000D03*
%TO.P,J207,43*%
%TO.N,Net-(J207-Pad43)*%
X-22780000Y-4810000D03*
%TO.P,J207,42*%
%TO.N,Net-(J207-Pad42)*%
X-25320000Y-7350000D03*
%TO.P,J207,41*%
%TO.N,Net-(J207-Pad41)*%
X-25320000Y-4810000D03*
%TO.P,J207,40*%
%TO.N,Net-(J207-Pad40)*%
X-27860000Y-7350000D03*
%TO.P,J207,39*%
%TO.N,Net-(J207-Pad39)*%
X-27860000Y-4810000D03*
%TO.P,J207,38*%
%TO.N,Net-(J207-Pad38)*%
X-30400000Y-7350000D03*
%TO.P,J207,37*%
%TO.N,Net-(J207-Pad37)*%
X-30400000Y-4810000D03*
%TO.P,J207,36*%
%TO.N,Net-(J207-Pad36)*%
X-32940000Y-7350000D03*
%TO.P,J207,35*%
%TO.N,Net-(J207-Pad35)*%
X-32940000Y-4810000D03*
%TO.P,J207,34*%
%TO.N,Net-(J207-Pad34)*%
X-35480000Y-7350000D03*
%TO.P,J207,33*%
%TO.N,Net-(J207-Pad33)*%
X-35480000Y-4810000D03*
%TO.P,J207,32*%
%TO.N,GND*%
X-38020000Y-7350000D03*
%TO.P,J207,31*%
%TO.N,Net-(J207-Pad31)*%
X-38020000Y-4810000D03*
%TO.P,J207,30*%
%TO.N,GND*%
X-40560000Y-7350000D03*
%TO.P,J207,29*%
X-40560000Y-4810000D03*
%TO.P,J207,28*%
%TO.N,+3V3*%
X-43100000Y-7350000D03*
%TO.P,J207,27*%
X-43100000Y-4810000D03*
%TO.P,J207,26*%
%TO.N,+5V*%
X-45640000Y-7350000D03*
%TO.P,J207,25*%
X-45640000Y-4810000D03*
%TO.P,J207,24*%
%TO.N,Net-(J207-Pad24)*%
X-48180000Y-7350000D03*
%TO.P,J207,23*%
%TO.N,Net-(J207-Pad23)*%
X-48180000Y-4810000D03*
%TO.P,J207,22*%
%TO.N,Net-(J207-Pad22)*%
X-50720000Y-7350000D03*
%TO.P,J207,21*%
%TO.N,Net-(J207-Pad21)*%
X-50720000Y-4810000D03*
%TO.P,J207,20*%
%TO.N,Net-(J207-Pad20)*%
X-53260000Y-7350000D03*
%TO.P,J207,19*%
%TO.N,Net-(J207-Pad19)*%
X-53260000Y-4810000D03*
%TO.P,J207,18*%
%TO.N,Net-(J207-Pad18)*%
X-55800000Y-7350000D03*
%TO.P,J207,17*%
%TO.N,Net-(J207-Pad17)*%
X-55800000Y-4810000D03*
%TO.P,J207,16*%
%TO.N,Net-(J207-Pad16)*%
X-58340000Y-7350000D03*
%TO.P,J207,15*%
%TO.N,Net-(J207-Pad15)*%
X-58340000Y-4810000D03*
%TO.P,J207,14*%
%TO.N,Net-(J207-Pad14)*%
X-60880000Y-7350000D03*
%TO.P,J207,13*%
%TO.N,Net-(J207-Pad13)*%
X-60880000Y-4810000D03*
%TO.P,J207,12*%
%TO.N,Net-(J207-Pad12)*%
X-63420000Y-7350000D03*
%TO.P,J207,11*%
%TO.N,Net-(J207-Pad11)*%
X-63420000Y-4810000D03*
%TO.P,J207,10*%
%TO.N,Net-(J207-Pad10)*%
X-65960000Y-7350000D03*
%TO.P,J207,9*%
%TO.N,Net-(J207-Pad9)*%
X-65960000Y-4810000D03*
%TO.P,J207,8*%
%TO.N,Net-(J207-Pad8)*%
X-68500000Y-7350000D03*
%TO.P,J207,7*%
%TO.N,Net-(J207-Pad7)*%
X-68500000Y-4810000D03*
%TO.P,J207,6*%
%TO.N,Net-(J207-Pad6)*%
X-71040000Y-7350000D03*
%TO.P,J207,5*%
%TO.N,Net-(J207-Pad5)*%
X-71040000Y-4810000D03*
%TO.P,J207,4*%
%TO.N,Net-(J207-Pad4)*%
X-73580000Y-7350000D03*
%TO.P,J207,3*%
%TO.N,Net-(J207-Pad3)*%
X-73580000Y-4810000D03*
%TO.P,J207,2*%
%TO.N,Net-(J207-Pad2)*%
X-76120000Y-7350000D03*
D12*
%TO.P,J207,1*%
%TO.N,Net-(J207-Pad1)*%
X-76120000Y-4810000D03*
%TD*%
D11*
%TO.P,J208,52*%
%TO.N,Net-(J208-Pad52)*%
X-12620000Y-12620000D03*
%TO.P,J208,51*%
%TO.N,Net-(J208-Pad51)*%
X-12620000Y-10080000D03*
%TO.P,J208,50*%
%TO.N,Net-(J208-Pad50)*%
X-15160000Y-12620000D03*
%TO.P,J208,49*%
%TO.N,Net-(J208-Pad49)*%
X-15160000Y-10080000D03*
%TO.P,J208,48*%
%TO.N,Net-(J208-Pad48)*%
X-17700000Y-12620000D03*
%TO.P,J208,47*%
%TO.N,Net-(J208-Pad47)*%
X-17700000Y-10080000D03*
%TO.P,J208,46*%
%TO.N,Net-(J208-Pad46)*%
X-20240000Y-12620000D03*
%TO.P,J208,45*%
%TO.N,Net-(J208-Pad45)*%
X-20240000Y-10080000D03*
%TO.P,J208,44*%
%TO.N,I2C_CLK*%
X-22780000Y-12620000D03*
%TO.P,J208,43*%
%TO.N,Net-(J208-Pad43)*%
X-22780000Y-10080000D03*
%TO.P,J208,42*%
%TO.N,I2C_DATA*%
X-25320000Y-12620000D03*
%TO.P,J208,41*%
%TO.N,Net-(J208-Pad41)*%
X-25320000Y-10080000D03*
%TO.P,J208,40*%
%TO.N,Net-(J208-Pad40)*%
X-27860000Y-12620000D03*
%TO.P,J208,39*%
%TO.N,Net-(J208-Pad39)*%
X-27860000Y-10080000D03*
%TO.P,J208,38*%
%TO.N,Net-(J208-Pad38)*%
X-30400000Y-12620000D03*
%TO.P,J208,37*%
%TO.N,Net-(J208-Pad37)*%
X-30400000Y-10080000D03*
%TO.P,J208,36*%
%TO.N,Net-(J208-Pad36)*%
X-32940000Y-12620000D03*
%TO.P,J208,35*%
%TO.N,Net-(J208-Pad35)*%
X-32940000Y-10080000D03*
%TO.P,J208,34*%
%TO.N,Net-(J208-Pad34)*%
X-35480000Y-12620000D03*
%TO.P,J208,33*%
%TO.N,Net-(J208-Pad33)*%
X-35480000Y-10080000D03*
%TO.P,J208,32*%
%TO.N,Net-(J208-Pad32)*%
X-38020000Y-12620000D03*
%TO.P,J208,31*%
%TO.N,USB_Charge*%
X-38020000Y-10080000D03*
%TO.P,J208,30*%
%TO.N,Net-(J208-Pad30)*%
X-40560000Y-12620000D03*
%TO.P,J208,29*%
%TO.N,Net-(J208-Pad29)*%
X-40560000Y-10080000D03*
%TO.P,J208,28*%
%TO.N,Net-(J208-Pad28)*%
X-43100000Y-12620000D03*
%TO.P,J208,27*%
%TO.N,Net-(J208-Pad27)*%
X-43100000Y-10080000D03*
%TO.P,J208,26*%
%TO.N,Net-(J208-Pad26)*%
X-45640000Y-12620000D03*
%TO.P,J208,25*%
%TO.N,Net-(J208-Pad25)*%
X-45640000Y-10080000D03*
%TO.P,J208,24*%
%TO.N,Net-(J208-Pad24)*%
X-48180000Y-12620000D03*
%TO.P,J208,23*%
%TO.N,Net-(J208-Pad23)*%
X-48180000Y-10080000D03*
%TO.P,J208,22*%
%TO.N,Net-(J208-Pad22)*%
X-50720000Y-12620000D03*
%TO.P,J208,21*%
%TO.N,Net-(J208-Pad21)*%
X-50720000Y-10080000D03*
%TO.P,J208,20*%
%TO.N,Net-(J208-Pad20)*%
X-53260000Y-12620000D03*
%TO.P,J208,19*%
%TO.N,Net-(J208-Pad19)*%
X-53260000Y-10080000D03*
%TO.P,J208,18*%
%TO.N,Net-(J208-Pad18)*%
X-55800000Y-12620000D03*
%TO.P,J208,17*%
%TO.N,Net-(J208-Pad17)*%
X-55800000Y-10080000D03*
%TO.P,J208,16*%
%TO.N,Net-(J208-Pad16)*%
X-58340000Y-12620000D03*
%TO.P,J208,15*%
%TO.N,Net-(J208-Pad15)*%
X-58340000Y-10080000D03*
%TO.P,J208,14*%
%TO.N,Net-(J208-Pad14)*%
X-60880000Y-12620000D03*
%TO.P,J208,13*%
%TO.N,Net-(J208-Pad13)*%
X-60880000Y-10080000D03*
%TO.P,J208,12*%
%TO.N,Net-(J208-Pad12)*%
X-63420000Y-12620000D03*
%TO.P,J208,11*%
%TO.N,Net-(J208-Pad11)*%
X-63420000Y-10080000D03*
%TO.P,J208,10*%
%TO.N,Net-(J208-Pad10)*%
X-65960000Y-12620000D03*
%TO.P,J208,9*%
%TO.N,Net-(J208-Pad9)*%
X-65960000Y-10080000D03*
%TO.P,J208,8*%
%TO.N,Net-(J208-Pad8)*%
X-68500000Y-12620000D03*
%TO.P,J208,7*%
%TO.N,Net-(J208-Pad7)*%
X-68500000Y-10080000D03*
%TO.P,J208,6*%
%TO.N,Net-(J208-Pad6)*%
X-71040000Y-12620000D03*
%TO.P,J208,5*%
%TO.N,Net-(J208-Pad5)*%
X-71040000Y-10080000D03*
%TO.P,J208,4*%
%TO.N,Net-(J208-Pad4)*%
X-73580000Y-12620000D03*
%TO.P,J208,3*%
%TO.N,Net-(J208-Pad3)*%
X-73580000Y-10080000D03*
%TO.P,J208,2*%
%TO.N,Net-(J208-Pad2)*%
X-76120000Y-12620000D03*
D12*
%TO.P,J208,1*%
%TO.N,Net-(J208-Pad1)*%
X-76120000Y-10080000D03*
%TD*%
D13*
%TO.P,H102,1*%
%TO.N,N/C*%
X-7650000Y-5070000D03*
D14*
X-7650000Y-5070000D03*
%TD*%
%TO.P,J201,1*%
%TO.N,+3V3*%
%TA.AperFunction,ComponentPad*%
G36*
G01*
X-86040000Y-17170000D02*
X-85140000Y-17170000D01*
G75*
G02*
X-84940000Y-17370000I0J-200000D01*
G01*
X-84940000Y-17770000D01*
G75*
G02*
X-85140000Y-17970000I-200000J0D01*
G01*
X-86040000Y-17970000D01*
G75*
G02*
X-86240000Y-17770000I0J200000D01*
G01*
X-86240000Y-17370000D01*
G75*
G02*
X-86040000Y-17170000I200000J0D01*
G01*
G37*
%TD.AperFunction*%
D15*
%TO.P,J201,2*%
X-85590000Y-18820000D03*
%TO.P,J201,3*%
%TO.N,I2C_DATA*%
X-85590000Y-20070000D03*
%TO.P,J201,4*%
%TO.N,I2C_CLK*%
X-85590000Y-21320000D03*
%TO.P,J201,5*%
%TO.N,GND*%
X-85590000Y-22570000D03*
%TO.P,J201,6*%
X-85590000Y-23820000D03*
%TO.P,J201,7*%
X-85590000Y-25070000D03*
%TD*%
%TO.P,SW201,1*%
%TO.N,Net-(SW201-Pad1)*%
%TA.AperFunction,ComponentPad*%
G36*
G01*
X-9815000Y-66950000D02*
X-8865000Y-66950000D01*
G75*
G02*
X-8640000Y-67175000I0J-225000D01*
G01*
X-8640000Y-67625000D01*
G75*
G02*
X-8865000Y-67850000I-225000J0D01*
G01*
X-9815000Y-67850000D01*
G75*
G02*
X-10040000Y-67625000I0J225000D01*
G01*
X-10040000Y-67175000D01*
G75*
G02*
X-9815000Y-66950000I225000J0D01*
G01*
G37*
%TD.AperFunction*%
D10*
%TO.P,SW201,2*%
%TO.N,+BATT*%
X-9340000Y-68650000D03*
%TD*%
D13*
%TO.P,H103,1*%
%TO.N,N/C*%
X-5120000Y-90760000D03*
D14*
X-5120000Y-90760000D03*
%TD*%
D10*
%TO.P,SW206,2*%
%TO.N,GND*%
X-6140000Y-78220000D03*
%TO.P,SW206,1*%
%TO.N,Net-(J202-Pad3)*%
%TA.AperFunction,ComponentPad*%
G36*
G01*
X-5665000Y-79920000D02*
X-6615000Y-79920000D01*
G75*
G02*
X-6840000Y-79695000I0J225000D01*
G01*
X-6840000Y-79245000D01*
G75*
G02*
X-6615000Y-79020000I225000J0D01*
G01*
X-5665000Y-79020000D01*
G75*
G02*
X-5440000Y-79245000I0J-225000D01*
G01*
X-5440000Y-79695000D01*
G75*
G02*
X-5665000Y-79920000I-225000J0D01*
G01*
G37*
%TD.AperFunction*%
%TD*%
D16*
%TO.P,SW202,1*%
%TO.N,Net-(SW201-Pad1)*%
X-8060000Y-73040000D03*
D10*
%TO.P,SW202,2*%
%TO.N,+BATT*%
X-8060000Y-74290000D03*
%TD*%
%TO.P,J205,2*%
%TO.N,Net-(J205-Pad2)*%
X-2996000Y-37672800D03*
%TO.P,J205,1*%
%TO.N,Net-(J205-Pad1)*%
%TA.AperFunction,ComponentPad*%
G36*
G01*
X-3471000Y-35972800D02*
X-2521000Y-35972800D01*
G75*
G02*
X-2296000Y-36197800I0J-225000D01*
G01*
X-2296000Y-36647800D01*
G75*
G02*
X-2521000Y-36872800I-225000J0D01*
G01*
X-3471000Y-36872800D01*
G75*
G02*
X-3696000Y-36647800I0J225000D01*
G01*
X-3696000Y-36197800D01*
G75*
G02*
X-3471000Y-35972800I225000J0D01*
G01*
G37*
%TD.AperFunction*%
%TD*%
%TO.P,SW204,2*%
%TO.N,Net-(SW201-Pad1)*%
X-82090000Y-73040000D03*
D16*
%TO.P,SW204,1*%
%TO.N,A*%
X-82090000Y-74290000D03*
%TD*%
D10*
%TO.P,SW203,2*%
%TO.N,Net-(SW201-Pad1)*%
X-81820000Y-66530000D03*
D16*
%TO.P,SW203,1*%
%TO.N,A*%
X-81820000Y-67780000D03*
%TD*%
D10*
%TO.P,SW205,2*%
%TO.N,GND*%
X-84680000Y-79460000D03*
%TO.P,SW205,1*%
%TO.N,Net-(J202-Pad3)*%
%TA.AperFunction,ComponentPad*%
G36*
G01*
X-85155000Y-77760000D02*
X-84205000Y-77760000D01*
G75*
G02*
X-83980000Y-77985000I0J-225000D01*
G01*
X-83980000Y-78435000D01*
G75*
G02*
X-84205000Y-78660000I-225000J0D01*
G01*
X-85155000Y-78660000D01*
G75*
G02*
X-85380000Y-78435000I0J225000D01*
G01*
X-85380000Y-77985000D01*
G75*
G02*
X-85155000Y-77760000I225000J0D01*
G01*
G37*
%TD.AperFunction*%
%TD*%
D13*
%TO.P,H104,1*%
%TO.N,N/C*%
X-85120000Y-90860000D03*
D14*
X-85120000Y-90860000D03*
%TD*%
%TO.P,J206,1*%
%TO.N,Net-(J206-Pad1)*%
%TA.AperFunction,ComponentPad*%
G36*
G01*
X-86564700Y-36484900D02*
X-87514700Y-36484900D01*
G75*
G02*
X-87739700Y-36259900I0J225000D01*
G01*
X-87739700Y-35809900D01*
G75*
G02*
X-87514700Y-35584900I225000J0D01*
G01*
X-86564700Y-35584900D01*
G75*
G02*
X-86339700Y-35809900I0J-225000D01*
G01*
X-86339700Y-36259900D01*
G75*
G02*
X-86564700Y-36484900I-225000J0D01*
G01*
G37*
%TD.AperFunction*%
D10*
%TO.P,J206,2*%
%TO.N,Net-(J206-Pad2)*%
X-87039700Y-34784900D03*
%TD*%
%TO.P,J204,2*%
%TO.N,Net-(J204-Pad2)*%
X-2808000Y-62027000D03*
D16*
%TO.P,J204,1*%
%TO.N,Net-(J204-Pad1)*%
X-2808000Y-60777000D03*
%TD*%
D13*
%TO.P,H101,1*%
%TO.N,N/C*%
X-81270000Y-5070000D03*
D14*
X-81270000Y-5070000D03*
%TD*%
D17*
%TO.N,+BATT*%
X-30489140Y-49867720D03*
%TO.N,InhibV+*%
X-26875100Y-59366700D03*
X-75701400Y-36740600D03*
%TO.N,Net-(D204-Pad6)*%
X-30555900Y-43529800D03*
%TO.N,GND*%
X-8298000Y-25554700D03*
X-26800900Y-63724900D03*
X-40164500Y-39180500D03*
X-81567100Y-41103700D03*
X-8630500Y-32104800D03*
X-45787600Y-40257800D03*
X-52342900Y-31645700D03*
X-9274400Y-59912800D03*
X-67257000Y-52399200D03*
X-63496500Y-56794000D03*
X-52942600Y-39507100D03*
X-49013400Y-31827500D03*
X-41012300Y-52669300D03*
X-12212700Y-44815500D03*
%TO.N,+5V*%
X-27972800Y-22652600D03*
%TD*%
D18*
%TO.N,+BATT*%
X-9041456Y-68650000D02*
X-9340000Y-68650000D01*
X-8264990Y-67873534D02*
X-9041456Y-68650000D01*
X-8264990Y-66926466D02*
X-8264990Y-67873534D01*
X-8616466Y-66574990D02*
X-8264990Y-66926466D01*
X-13781870Y-66574990D02*
X-8616466Y-66574990D01*
X-30489140Y-49867720D02*
X-13781870Y-66574990D01*
X-9340000Y-69934998D02*
X-6854440Y-72420558D01*
X-9340000Y-68650000D02*
X-9340000Y-69934998D01*
X-7010000Y-74290000D02*
X-8060000Y-74290000D01*
X-6854440Y-74134440D02*
X-7010000Y-74290000D01*
X-6854440Y-72420558D02*
X-6854440Y-74134440D01*
D19*
%TO.N,InhibV+*%
X-31491600Y-36740600D02*
X-18421000Y-23670000D01*
X-18421000Y-23670000D02*
X-5310000Y-23670000D01*
X-75701400Y-36740600D02*
X-31491600Y-36740600D01*
X-26875100Y-59366700D02*
X-31491600Y-54750200D01*
X-31491600Y-54750200D02*
X-31491600Y-36740600D01*
D20*
%TO.N,Net-(D204-Pad6)*%
X-5310000Y-21170000D02*
X-4284700Y-21170000D01*
X-30555900Y-43529800D02*
X-22569800Y-43529800D01*
X-22569800Y-43529800D02*
X-4284700Y-25244700D01*
X-4284700Y-25244700D02*
X-4284700Y-21170000D01*
%TO.N,Net-(J202-Pad3)*%
X-84680000Y-78210000D02*
X-84440000Y-78210000D01*
X-84440000Y-78210000D02*
X-83180000Y-79470000D01*
X-83180000Y-79470000D02*
X-6140000Y-79470000D01*
D19*
%TO.N,+5V*%
X-27972800Y-22652600D02*
X-20709000Y-22652600D01*
X-20709000Y-22652600D02*
X-11263200Y-13206800D01*
X-11263200Y-13206800D02*
X-11263200Y-9430800D01*
X-11263200Y-9430800D02*
X-11964400Y-8729600D01*
X-11964400Y-8729600D02*
X-44260400Y-8729600D01*
X-44260400Y-8729600D02*
X-45640000Y-7350000D01*
X-45640000Y-4810000D02*
X-45640000Y-7350000D01*
D20*
%TO.N,Net-(SW201-Pad1)*%
X-8060000Y-73040000D02*
X-8060000Y-72264700D01*
X-10411500Y-67400000D02*
X-9340000Y-67400000D01*
X-80776000Y-67400000D02*
X-10411500Y-67400000D01*
X-10411500Y-67400000D02*
X-10411500Y-69913200D01*
X-10411500Y-69913200D02*
X-8060000Y-72264700D01*
X-81820000Y-66530000D02*
X-80794700Y-66530000D01*
X-82090000Y-73040000D02*
X-82090000Y-72264700D01*
X-80776000Y-67400000D02*
X-80776000Y-70950700D01*
X-80776000Y-70950700D02*
X-82090000Y-72264700D01*
X-80794700Y-66530000D02*
X-80794700Y-67381300D01*
X-80794700Y-67381300D02*
X-80776000Y-67400000D01*
%TD*%
D21*
%TO.N,GND*%
X-2659999Y-8717709D02*
X-2664819Y-8766868D01*
X-2669717Y-8783091D01*
X-2677674Y-8798055D01*
X-2688385Y-8811188D01*
X-2701441Y-8821989D01*
X-2716348Y-8830049D01*
X-2732541Y-8835062D01*
X-2779525Y-8840000D01*
X-5282419Y-8840000D01*
X-5310501Y-8842766D01*
X-5315057Y-8842734D01*
X-5324228Y-8843634D01*
X-5469800Y-8858935D01*
X-5528383Y-8870961D01*
X-5587152Y-8882171D01*
X-5595974Y-8884835D01*
X-5735803Y-8928119D01*
X-5790933Y-8951294D01*
X-5846412Y-8973708D01*
X-5854549Y-8978035D01*
X-5983306Y-9047654D01*
X-6032863Y-9081081D01*
X-6082953Y-9113858D01*
X-6090094Y-9119683D01*
X-6202877Y-9212985D01*
X-6244999Y-9255402D01*
X-6287768Y-9297284D01*
X-6293641Y-9304385D01*
X-6386154Y-9417816D01*
X-6419246Y-9467625D01*
X-6453053Y-9516997D01*
X-6457436Y-9525103D01*
X-6526155Y-9654345D01*
X-6548945Y-9709638D01*
X-6572517Y-9764636D01*
X-6575242Y-9773440D01*
X-6617548Y-9913566D01*
X-6629164Y-9972232D01*
X-6641603Y-10030753D01*
X-6642566Y-10039917D01*
X-6656850Y-10185594D01*
X-6656850Y-10185599D01*
X-6660000Y-10217582D01*
X-6659999Y-13782419D01*
X-6657234Y-13810492D01*
X-6657266Y-13815057D01*
X-6656366Y-13824228D01*
X-6641065Y-13969800D01*
X-6629046Y-14028352D01*
X-6617829Y-14087152D01*
X-6615165Y-14095974D01*
X-6571881Y-14235803D01*
X-6548706Y-14290933D01*
X-6526292Y-14346412D01*
X-6521965Y-14354548D01*
X-6452347Y-14483306D01*
X-6418902Y-14532890D01*
X-6386142Y-14582953D01*
X-6380317Y-14590094D01*
X-6287015Y-14702877D01*
X-6244579Y-14745018D01*
X-6202716Y-14787767D01*
X-6195616Y-14793641D01*
X-6082184Y-14886154D01*
X-6032375Y-14919246D01*
X-5983003Y-14953053D01*
X-5974896Y-14957436D01*
X-5845655Y-15026155D01*
X-5790374Y-15048940D01*
X-5735364Y-15072517D01*
X-5726561Y-15075242D01*
X-5586434Y-15117548D01*
X-5527768Y-15129164D01*
X-5469247Y-15141603D01*
X-5460082Y-15142566D01*
X-5314406Y-15156850D01*
X-5314402Y-15156850D01*
X-5282419Y-15160000D01*
X-2802281Y-15160000D01*
X-2753133Y-15164819D01*
X-2736908Y-15169718D01*
X-2721947Y-15177672D01*
X-2708811Y-15188386D01*
X-2698012Y-15201441D01*
X-2689951Y-15216349D01*
X-2684938Y-15232541D01*
X-2680000Y-15279525D01*
X-2679999Y-29282419D01*
X-2677234Y-29310492D01*
X-2677266Y-29315057D01*
X-2676366Y-29324228D01*
X-2661065Y-29469800D01*
X-2649046Y-29528352D01*
X-2637829Y-29587152D01*
X-2635165Y-29595974D01*
X-2591881Y-29735803D01*
X-2568706Y-29790933D01*
X-2546292Y-29846412D01*
X-2541965Y-29854548D01*
X-2472347Y-29983306D01*
X-2438902Y-30032890D01*
X-2406142Y-30082953D01*
X-2400317Y-30090094D01*
X-2307015Y-30202877D01*
X-2264579Y-30245018D01*
X-2222716Y-30287767D01*
X-2215616Y-30293641D01*
X-2102184Y-30386154D01*
X-2052375Y-30419246D01*
X-2003003Y-30453053D01*
X-1994896Y-30457436D01*
X-1865655Y-30526155D01*
X-1810374Y-30548940D01*
X-1755364Y-30572517D01*
X-1746561Y-30575242D01*
X-1606434Y-30617548D01*
X-1547768Y-30629164D01*
X-1489247Y-30641603D01*
X-1480082Y-30642566D01*
X-1334406Y-30656850D01*
X-1334402Y-30656850D01*
X-1302419Y-30660000D01*
X-782281Y-30660000D01*
X-733133Y-30664819D01*
X-716908Y-30669718D01*
X-701947Y-30677672D01*
X-688811Y-30688386D01*
X-678012Y-30701441D01*
X-669951Y-30716349D01*
X-664938Y-30732541D01*
X-660000Y-30779525D01*
X-659999Y-65107708D01*
X-664819Y-65156868D01*
X-669717Y-65173091D01*
X-677674Y-65188055D01*
X-688385Y-65201188D01*
X-701441Y-65211989D01*
X-716348Y-65220049D01*
X-732541Y-65225062D01*
X-779525Y-65230000D01*
X-1082419Y-65230000D01*
X-1110501Y-65232766D01*
X-1115057Y-65232734D01*
X-1124228Y-65233634D01*
X-1269800Y-65248935D01*
X-1328383Y-65260961D01*
X-1387152Y-65272171D01*
X-1395974Y-65274835D01*
X-1535803Y-65318119D01*
X-1590933Y-65341294D01*
X-1646412Y-65363708D01*
X-1654549Y-65368035D01*
X-1783306Y-65437654D01*
X-1832863Y-65471081D01*
X-1882953Y-65503858D01*
X-1890094Y-65509683D01*
X-2002877Y-65602985D01*
X-2044999Y-65645402D01*
X-2087768Y-65687284D01*
X-2093641Y-65694385D01*
X-2186154Y-65807816D01*
X-2219246Y-65857625D01*
X-2253053Y-65906997D01*
X-2257436Y-65915103D01*
X-2326155Y-66044345D01*
X-2348945Y-66099638D01*
X-2372517Y-66154636D01*
X-2375242Y-66163440D01*
X-2417548Y-66303566D01*
X-2429164Y-66362232D01*
X-2441603Y-66420753D01*
X-2442566Y-66429917D01*
X-2456850Y-66575594D01*
X-2456850Y-66575599D01*
X-2460000Y-66607582D01*
X-2459999Y-80607708D01*
X-2464819Y-80656868D01*
X-2469717Y-80673091D01*
X-2477674Y-80688055D01*
X-2488385Y-80701188D01*
X-2501441Y-80711989D01*
X-2516348Y-80720049D01*
X-2532541Y-80725062D01*
X-2579525Y-80730000D01*
X-5282419Y-80730000D01*
X-5310501Y-80732766D01*
X-5315057Y-80732734D01*
X-5324228Y-80733634D01*
X-5469800Y-80748935D01*
X-5528383Y-80760961D01*
X-5587152Y-80772171D01*
X-5595974Y-80774835D01*
X-5735803Y-80818119D01*
X-5790933Y-80841294D01*
X-5846412Y-80863708D01*
X-5854549Y-80868035D01*
X-5983306Y-80937654D01*
X-6032863Y-80971081D01*
X-6082953Y-81003858D01*
X-6090094Y-81009683D01*
X-6202877Y-81102985D01*
X-6244999Y-81145402D01*
X-6287768Y-81187284D01*
X-6293641Y-81194385D01*
X-6386154Y-81307816D01*
X-6419246Y-81357625D01*
X-6453053Y-81406997D01*
X-6457436Y-81415103D01*
X-6526155Y-81544345D01*
X-6548945Y-81599638D01*
X-6572517Y-81654636D01*
X-6575242Y-81663440D01*
X-6617548Y-81803566D01*
X-6629164Y-81862232D01*
X-6641603Y-81920753D01*
X-6642566Y-81929917D01*
X-6656850Y-82075594D01*
X-6656850Y-82075599D01*
X-6660000Y-82107582D01*
X-6659999Y-85672419D01*
X-6657234Y-85700492D01*
X-6657266Y-85705057D01*
X-6656366Y-85714228D01*
X-6641065Y-85859800D01*
X-6629046Y-85918352D01*
X-6617829Y-85977152D01*
X-6615165Y-85985974D01*
X-6571881Y-86125803D01*
X-6548706Y-86180933D01*
X-6526292Y-86236412D01*
X-6521965Y-86244548D01*
X-6452347Y-86373306D01*
X-6418902Y-86422890D01*
X-6386142Y-86472953D01*
X-6380317Y-86480094D01*
X-6287015Y-86592877D01*
X-6244579Y-86635018D01*
X-6202716Y-86677767D01*
X-6195616Y-86683641D01*
X-6082184Y-86776154D01*
X-6032375Y-86809246D01*
X-5983003Y-86843053D01*
X-5974896Y-86847436D01*
X-5845655Y-86916155D01*
X-5790374Y-86938940D01*
X-5735364Y-86962517D01*
X-5726561Y-86965242D01*
X-5586434Y-87007548D01*
X-5527768Y-87019164D01*
X-5469247Y-87031603D01*
X-5460082Y-87032566D01*
X-5314406Y-87046850D01*
X-5314402Y-87046850D01*
X-5282419Y-87050000D01*
X-2582281Y-87050000D01*
X-2533133Y-87054819D01*
X-2516908Y-87059718D01*
X-2501947Y-87067672D01*
X-2488811Y-87078386D01*
X-2478012Y-87091441D01*
X-2469951Y-87106349D01*
X-2464938Y-87122541D01*
X-2460000Y-87169525D01*
X-2460000Y-88491466D01*
X-2898442Y-88053024D01*
X-3469234Y-87671633D01*
X-4103463Y-87408927D01*
X-4776758Y-87275000D01*
X-5463242Y-87275000D01*
X-6136537Y-87408927D01*
X-6770766Y-87671633D01*
X-7341558Y-88053024D01*
X-7826976Y-88538442D01*
X-8208367Y-89109234D01*
X-8471073Y-89743463D01*
X-8605000Y-90416758D01*
X-8605000Y-91103242D01*
X-8471073Y-91776537D01*
X-8208367Y-92410766D01*
X-7826976Y-92981558D01*
X-7341558Y-93466976D01*
X-6770766Y-93848367D01*
X-6136537Y-94111073D01*
X-5463242Y-94245000D01*
X-4776758Y-94245000D01*
X-4103463Y-94111073D01*
X-3469234Y-93848367D01*
X-2898442Y-93466976D01*
X-2459999Y-93028533D01*
X-2459999Y-95230000D01*
X-87760000Y-95230000D01*
X-87760000Y-93148534D01*
X-87341558Y-93566976D01*
X-86770766Y-93948367D01*
X-86136537Y-94211073D01*
X-85463242Y-94345000D01*
X-84776758Y-94345000D01*
X-84103463Y-94211073D01*
X-83469234Y-93948367D01*
X-82898442Y-93566976D01*
X-82413024Y-93081558D01*
X-82031633Y-92510766D01*
X-81768927Y-91876537D01*
X-81635000Y-91203242D01*
X-81635000Y-90516758D01*
X-81768927Y-89843463D01*
X-82031633Y-89209234D01*
X-82413024Y-88638442D01*
X-82898442Y-88153024D01*
X-83469234Y-87771633D01*
X-84103463Y-87508927D01*
X-84776758Y-87375000D01*
X-85463242Y-87375000D01*
X-86136537Y-87508927D01*
X-86770766Y-87771633D01*
X-87341558Y-88153024D01*
X-87760000Y-88571466D01*
X-87760000Y-87172281D01*
X-87755181Y-87123133D01*
X-87750282Y-87106908D01*
X-87742328Y-87091947D01*
X-87731614Y-87078811D01*
X-87718559Y-87068012D01*
X-87703651Y-87059951D01*
X-87687459Y-87054938D01*
X-87640475Y-87050000D01*
X-84887581Y-87050000D01*
X-84859499Y-87047234D01*
X-84854943Y-87047266D01*
X-84845772Y-87046366D01*
X-84700200Y-87031065D01*
X-84641648Y-87019046D01*
X-84582848Y-87007829D01*
X-84574026Y-87005165D01*
X-84434197Y-86961881D01*
X-84379067Y-86938706D01*
X-84323588Y-86916292D01*
X-84315452Y-86911965D01*
X-84186694Y-86842347D01*
X-84137110Y-86808902D01*
X-84087047Y-86776142D01*
X-84079906Y-86770317D01*
X-83967123Y-86677015D01*
X-83924982Y-86634579D01*
X-83882233Y-86592716D01*
X-83876359Y-86585616D01*
X-83783846Y-86472184D01*
X-83750754Y-86422375D01*
X-83716947Y-86373003D01*
X-83712564Y-86364896D01*
X-83643845Y-86235655D01*
X-83621060Y-86180374D01*
X-83597483Y-86125364D01*
X-83594758Y-86116561D01*
X-83552452Y-85976434D01*
X-83540836Y-85917768D01*
X-83528397Y-85859247D01*
X-83527434Y-85850082D01*
X-83513150Y-85704406D01*
X-83513150Y-85704402D01*
X-83510000Y-85672419D01*
X-83510000Y-82107581D01*
X-83512766Y-82079499D01*
X-83512734Y-82074943D01*
X-83513634Y-82065772D01*
X-83528935Y-81920200D01*
X-83540961Y-81861617D01*
X-83552171Y-81802848D01*
X-83554835Y-81794026D01*
X-83598119Y-81654197D01*
X-83621294Y-81599067D01*
X-83643708Y-81543588D01*
X-83648035Y-81535451D01*
X-83717654Y-81406694D01*
X-83751081Y-81357137D01*
X-83783858Y-81307047D01*
X-83789683Y-81299906D01*
X-83882985Y-81187123D01*
X-83925402Y-81145001D01*
X-83967284Y-81102232D01*
X-83974385Y-81096359D01*
X-84087816Y-81003846D01*
X-84137625Y-80970754D01*
X-84186997Y-80936947D01*
X-84195103Y-80932564D01*
X-84324345Y-80863845D01*
X-84379638Y-80841055D01*
X-84434636Y-80817483D01*
X-84443440Y-80814758D01*
X-84583566Y-80772452D01*
X-84642232Y-80760836D01*
X-84700753Y-80748397D01*
X-84709917Y-80747434D01*
X-84855594Y-80733150D01*
X-84855598Y-80733150D01*
X-84887581Y-80730000D01*
X-87637719Y-80730000D01*
X-87686868Y-80725181D01*
X-87703091Y-80720283D01*
X-87718055Y-80712326D01*
X-87731188Y-80701615D01*
X-87741989Y-80688559D01*
X-87750049Y-80673652D01*
X-87755062Y-80657459D01*
X-87760000Y-80610475D01*
X-87760000Y-79754001D01*
X-85974408Y-79754001D01*
X-85963279Y-79834563D01*
X-85870351Y-80028949D01*
X-85741286Y-80201470D01*
X-85581044Y-80345497D01*
X-85395782Y-80455495D01*
X-85192621Y-80527236D01*
X-84979367Y-80557964D01*
X-84807000Y-80393419D01*
X-84807000Y-79587000D01*
X-85847502Y-79587000D01*
X-85974408Y-79754001D01*
X-87760000Y-79754001D01*
X-87760000Y-77985000D01*
X-86018072Y-77985000D01*
X-86018072Y-78435000D01*
X-86001488Y-78603377D01*
X-85952375Y-78765283D01*
X-85877338Y-78905666D01*
X-85963279Y-79085437D01*
X-85974408Y-79165999D01*
X-85847502Y-79333000D01*
X-84807000Y-79333000D01*
X-84807000Y-79313000D01*
X-84553000Y-79313000D01*
X-84553000Y-79333000D01*
X-84533000Y-79333000D01*
X-84533000Y-79587000D01*
X-84553000Y-79587000D01*
X-84553000Y-80393419D01*
X-84380633Y-80557964D01*
X-84167379Y-80527236D01*
X-83964218Y-80455495D01*
X-83778956Y-80345497D01*
X-83618714Y-80201470D01*
X-83563021Y-80127026D01*
X-83510328Y-80155191D01*
X-83472247Y-80175546D01*
X-83328986Y-80219003D01*
X-83217333Y-80230000D01*
X-83217324Y-80230000D01*
X-83180001Y-80233676D01*
X-83142678Y-80230000D01*
X-7287068Y-80230000D01*
X-7225284Y-80305284D01*
X-7094497Y-80412618D01*
X-6945283Y-80492375D01*
X-6783377Y-80541488D01*
X-6615000Y-80558072D01*
X-5665000Y-80558072D01*
X-5496623Y-80541488D01*
X-5334717Y-80492375D01*
X-5185503Y-80412618D01*
X-5054716Y-80305284D01*
X-4947382Y-80174497D01*
X-4867625Y-80025283D01*
X-4818512Y-79863377D01*
X-4801928Y-79695000D01*
X-4801928Y-79245000D01*
X-4818512Y-79076623D01*
X-4867625Y-78914717D01*
X-4942662Y-78774334D01*
X-4856721Y-78594563D01*
X-4845592Y-78514001D01*
X-4972498Y-78347000D01*
X-6013000Y-78347000D01*
X-6013000Y-78367000D01*
X-6267000Y-78367000D01*
X-6267000Y-78347000D01*
X-7307502Y-78347000D01*
X-7434408Y-78514001D01*
X-7423279Y-78594563D01*
X-7368093Y-78710000D01*
X-82865198Y-78710000D01*
X-83341928Y-78233271D01*
X-83341928Y-77985000D01*
X-83347739Y-77925999D01*
X-7434408Y-77925999D01*
X-7307502Y-78093000D01*
X-6267000Y-78093000D01*
X-6267000Y-77286581D01*
X-6013000Y-77286581D01*
X-6013000Y-78093000D01*
X-4972498Y-78093000D01*
X-4845592Y-77925999D01*
X-4856721Y-77845437D01*
X-4949649Y-77651051D01*
X-5078714Y-77478530D01*
X-5238956Y-77334503D01*
X-5424218Y-77224505D01*
X-5627379Y-77152764D01*
X-5840633Y-77122036D01*
X-6013000Y-77286581D01*
X-6267000Y-77286581D01*
X-6439367Y-77122036D01*
X-6652621Y-77152764D01*
X-6855782Y-77224505D01*
X-7041044Y-77334503D01*
X-7201286Y-77478530D01*
X-7330351Y-77651051D01*
X-7423279Y-77845437D01*
X-7434408Y-77925999D01*
X-83347739Y-77925999D01*
X-83358512Y-77816623D01*
X-83407625Y-77654717D01*
X-83487382Y-77505503D01*
X-83594716Y-77374716D01*
X-83725503Y-77267382D01*
X-83874717Y-77187625D01*
X-84036623Y-77138512D01*
X-84205000Y-77121928D01*
X-85155000Y-77121928D01*
X-85323377Y-77138512D01*
X-85485283Y-77187625D01*
X-85634497Y-77267382D01*
X-85765284Y-77374716D01*
X-85872618Y-77505503D01*
X-85952375Y-77654717D01*
X-86001488Y-77816623D01*
X-86018072Y-77985000D01*
X-87760000Y-77985000D01*
X-87760000Y-73040000D01*
X-83430249Y-73040000D01*
X-83409300Y-73252697D01*
X-83347259Y-73457220D01*
X-83326338Y-73496360D01*
X-83379502Y-73595820D01*
X-83415812Y-73715518D01*
X-83428072Y-73840000D01*
X-83428072Y-74740000D01*
X-83415812Y-74864482D01*
X-83379502Y-74984180D01*
X-83320537Y-75094494D01*
X-83241185Y-75191185D01*
X-83144494Y-75270537D01*
X-83034180Y-75329502D01*
X-82914482Y-75365812D01*
X-82790000Y-75378072D01*
X-81390000Y-75378072D01*
X-81265518Y-75365812D01*
X-81145820Y-75329502D01*
X-81035506Y-75270537D01*
X-80938815Y-75191185D01*
X-80859463Y-75094494D01*
X-80800498Y-74984180D01*
X-80764188Y-74864482D01*
X-80751928Y-74740000D01*
X-80751928Y-73840000D01*
X-80764188Y-73715518D01*
X-80800498Y-73595820D01*
X-80853662Y-73496360D01*
X-80832741Y-73457220D01*
X-80770700Y-73252697D01*
X-80749751Y-73040000D01*
X-80770700Y-72827303D01*
X-80832741Y-72622780D01*
X-80933491Y-72434290D01*
X-81046765Y-72296266D01*
X-80264997Y-71514499D01*
X-80235999Y-71490701D01*
X-80141026Y-71374976D01*
X-80070454Y-71242947D01*
X-80026997Y-71099686D01*
X-80016000Y-70988033D01*
X-80012323Y-70950700D01*
X-80016000Y-70913367D01*
X-80016000Y-68160000D01*
X-11171500Y-68160000D01*
X-11171499Y-69875868D01*
X-11175176Y-69913200D01*
X-11160502Y-70062185D01*
X-11117046Y-70205446D01*
X-11046474Y-70337476D01*
X-10975299Y-70424202D01*
X-10951500Y-70453201D01*
X-10922502Y-70476999D01*
X-9233498Y-72166004D01*
X-9290537Y-72235506D01*
X-9349502Y-72345820D01*
X-9385812Y-72465518D01*
X-9398072Y-72590000D01*
X-9398072Y-73490000D01*
X-9385812Y-73614482D01*
X-9349502Y-73734180D01*
X-9296338Y-73833640D01*
X-9317259Y-73872780D01*
X-9379300Y-74077303D01*
X-9400249Y-74290000D01*
X-9379300Y-74502697D01*
X-9317259Y-74707220D01*
X-9216509Y-74895710D01*
X-9080922Y-75060922D01*
X-8915710Y-75196509D01*
X-8727220Y-75297259D01*
X-8522697Y-75359300D01*
X-8363294Y-75375000D01*
X-7756706Y-75375000D01*
X-7597303Y-75359300D01*
X-7392780Y-75297259D01*
X-7204290Y-75196509D01*
X-7086694Y-75100000D01*
X-7049788Y-75100000D01*
X-7010000Y-75103919D01*
X-6970212Y-75100000D01*
X-6970209Y-75100000D01*
X-6851212Y-75088280D01*
X-6698527Y-75041963D01*
X-6557811Y-74966749D01*
X-6434472Y-74865528D01*
X-6409100Y-74834612D01*
X-6309828Y-74735340D01*
X-6278912Y-74709968D01*
X-6177691Y-74586629D01*
X-6102477Y-74445913D01*
X-6056160Y-74293228D01*
X-6044440Y-74174231D01*
X-6044440Y-74174229D01*
X-6040521Y-74134441D01*
X-6044440Y-74094653D01*
X-6044440Y-72460346D01*
X-6040521Y-72420558D01*
X-6047882Y-72345820D01*
X-6056160Y-72261770D01*
X-6100466Y-72115713D01*
X-6102477Y-72109084D01*
X-6177691Y-71968369D01*
X-6253547Y-71875938D01*
X-6278912Y-71845030D01*
X-6309821Y-71819664D01*
X-8530000Y-69599486D01*
X-8530000Y-69580942D01*
X-8484290Y-69556509D01*
X-8319078Y-69420922D01*
X-8183491Y-69255710D01*
X-8082741Y-69067220D01*
X-8020700Y-68862697D01*
X-8011092Y-68765149D01*
X-7720372Y-68474429D01*
X-7689462Y-68449062D01*
X-7588241Y-68325723D01*
X-7513027Y-68185007D01*
X-7466710Y-68032322D01*
X-7454990Y-67913325D01*
X-7454990Y-67913322D01*
X-7451071Y-67873534D01*
X-7454990Y-67833746D01*
X-7454990Y-66966253D01*
X-7451071Y-66926465D01*
X-7455427Y-66882240D01*
X-7466710Y-66767678D01*
X-7513027Y-66614993D01*
X-7588241Y-66474277D01*
X-7689462Y-66350938D01*
X-7720376Y-66325568D01*
X-8015566Y-66030378D01*
X-8040938Y-65999462D01*
X-8164277Y-65898241D01*
X-8304993Y-65823027D01*
X-8457678Y-65776710D01*
X-8576675Y-65764990D01*
X-8576678Y-65764990D01*
X-8616466Y-65761071D01*
X-8656254Y-65764990D01*
X-13446357Y-65764990D01*
X-17184347Y-62027000D01*
X-4148249Y-62027000D01*
X-4127300Y-62239697D01*
X-4065259Y-62444220D01*
X-3964509Y-62632710D01*
X-3828922Y-62797922D01*
X-3663710Y-62933509D01*
X-3475220Y-63034259D01*
X-3270697Y-63096300D01*
X-3111294Y-63112000D01*
X-2504706Y-63112000D01*
X-2345303Y-63096300D01*
X-2140780Y-63034259D01*
X-1952290Y-62933509D01*
X-1787078Y-62797922D01*
X-1651491Y-62632710D01*
X-1550741Y-62444220D01*
X-1488700Y-62239697D01*
X-1467751Y-62027000D01*
X-1488700Y-61814303D01*
X-1550741Y-61609780D01*
X-1571662Y-61570640D01*
X-1518498Y-61471180D01*
X-1482188Y-61351482D01*
X-1469928Y-61227000D01*
X-1469928Y-60327000D01*
X-1482188Y-60202518D01*
X-1518498Y-60082820D01*
X-1577463Y-59972506D01*
X-1656815Y-59875815D01*
X-1753506Y-59796463D01*
X-1863820Y-59737498D01*
X-1983518Y-59701188D01*
X-2108000Y-59688928D01*
X-3508000Y-59688928D01*
X-3632482Y-59701188D01*
X-3752180Y-59737498D01*
X-3862494Y-59796463D01*
X-3959185Y-59875815D01*
X-4038537Y-59972506D01*
X-4097502Y-60082820D01*
X-4133812Y-60202518D01*
X-4146072Y-60327000D01*
X-4146072Y-61227000D01*
X-4133812Y-61351482D01*
X-4097502Y-61471180D01*
X-4044338Y-61570640D01*
X-4065259Y-61609780D01*
X-4127300Y-61814303D01*
X-4148249Y-62027000D01*
X-17184347Y-62027000D01*
X-29456269Y-49755079D01*
X-29493914Y-49565822D01*
X-29571935Y-49377464D01*
X-29685203Y-49207946D01*
X-29829366Y-49063783D01*
X-29998884Y-48950515D01*
X-30187242Y-48872494D01*
X-30387201Y-48832720D01*
X-30556600Y-48832720D01*
X-30556600Y-44564800D01*
X-30453961Y-44564800D01*
X-30254002Y-44525026D01*
X-30065644Y-44447005D01*
X-29896126Y-44333737D01*
X-29852189Y-44289800D01*
X-22607122Y-44289800D01*
X-22569800Y-44293476D01*
X-22532478Y-44289800D01*
X-22532467Y-44289800D01*
X-22420814Y-44278803D01*
X-22277553Y-44235346D01*
X-22145524Y-44164774D01*
X-22029799Y-44069801D01*
X-22005996Y-44040797D01*
X-15637999Y-37672800D01*
X-4336249Y-37672800D01*
X-4315300Y-37885497D01*
X-4253259Y-38090020D01*
X-4152509Y-38278510D01*
X-4016922Y-38443722D01*
X-3851710Y-38579309D01*
X-3663220Y-38680059D01*
X-3458697Y-38742100D01*
X-3299294Y-38757800D01*
X-2692706Y-38757800D01*
X-2533303Y-38742100D01*
X-2328780Y-38680059D01*
X-2140290Y-38579309D01*
X-1975078Y-38443722D01*
X-1839491Y-38278510D01*
X-1738741Y-38090020D01*
X-1676700Y-37885497D01*
X-1655751Y-37672800D01*
X-1676700Y-37460103D01*
X-1738741Y-37255580D01*
X-1805761Y-37130195D01*
X-1803382Y-37127297D01*
X-1723625Y-36978083D01*
X-1674512Y-36816177D01*
X-1657928Y-36647800D01*
X-1657928Y-36197800D01*
X-1674512Y-36029423D01*
X-1723625Y-35867517D01*
X-1803382Y-35718303D01*
X-1910716Y-35587516D01*
X-2041503Y-35480182D01*
X-2190717Y-35400425D01*
X-2352623Y-35351312D01*
X-2521000Y-35334728D01*
X-3471000Y-35334728D01*
X-3639377Y-35351312D01*
X-3801283Y-35400425D01*
X-3950497Y-35480182D01*
X-4081284Y-35587516D01*
X-4188618Y-35718303D01*
X-4268375Y-35867517D01*
X-4317488Y-36029423D01*
X-4334072Y-36197800D01*
X-4334072Y-36647800D01*
X-4317488Y-36816177D01*
X-4268375Y-36978083D01*
X-4188618Y-37127297D01*
X-4186239Y-37130195D01*
X-4253259Y-37255580D01*
X-4315300Y-37460103D01*
X-4336249Y-37672800D01*
X-15637999Y-37672800D01*
X-3773690Y-25808493D01*
X-3744699Y-25784701D01*
X-3720905Y-25755708D01*
X-3720901Y-25755704D01*
X-3649727Y-25668977D01*
X-3649726Y-25668976D01*
X-3579154Y-25536947D01*
X-3535697Y-25393686D01*
X-3524700Y-25282033D01*
X-3524700Y-25282024D01*
X-3521024Y-25244701D01*
X-3524700Y-25207378D01*
X-3524700Y-21207333D01*
X-3521023Y-21170000D01*
X-3535697Y-21021014D01*
X-3579154Y-20877753D01*
X-3649726Y-20745724D01*
X-3744699Y-20629999D01*
X-3860424Y-20535026D01*
X-3992453Y-20464454D01*
X-4030811Y-20452819D01*
X-3988512Y-20313377D01*
X-3971928Y-20145000D01*
X-3971928Y-19695000D01*
X-3988512Y-19526623D01*
X-4037625Y-19364717D01*
X-4117382Y-19215503D01*
X-4224716Y-19084716D01*
X-4355503Y-18977382D01*
X-4504717Y-18897625D01*
X-4666623Y-18848512D01*
X-4835000Y-18831928D01*
X-5785000Y-18831928D01*
X-5953377Y-18848512D01*
X-6115283Y-18897625D01*
X-6264497Y-18977382D01*
X-6395284Y-19084716D01*
X-6502618Y-19215503D01*
X-6582375Y-19364717D01*
X-6631488Y-19526623D01*
X-6648072Y-19695000D01*
X-6648072Y-20145000D01*
X-6631488Y-20313377D01*
X-6582375Y-20475283D01*
X-6502618Y-20624497D01*
X-6500239Y-20627395D01*
X-6567259Y-20752780D01*
X-6629300Y-20957303D01*
X-6650249Y-21170000D01*
X-6629300Y-21382697D01*
X-6567259Y-21587220D01*
X-6466509Y-21775710D01*
X-6450678Y-21795000D01*
X-6466509Y-21814290D01*
X-6567259Y-22002780D01*
X-6629300Y-22207303D01*
X-6650249Y-22420000D01*
X-6629300Y-22632697D01*
X-6598267Y-22735000D01*
X-18375065Y-22735000D01*
X-18421000Y-22730476D01*
X-18604292Y-22748528D01*
X-18708172Y-22780041D01*
X-18780540Y-22801993D01*
X-18942972Y-22888814D01*
X-19085344Y-23005656D01*
X-19114630Y-23041341D01*
X-31878889Y-35805600D01*
X-75254105Y-35805600D01*
X-75399502Y-35745374D01*
X-75599461Y-35705600D01*
X-75803339Y-35705600D01*
X-76003298Y-35745374D01*
X-76191656Y-35823395D01*
X-76361174Y-35936663D01*
X-76505337Y-36080826D01*
X-76618605Y-36250344D01*
X-76696626Y-36438702D01*
X-76736400Y-36638661D01*
X-76736400Y-36842539D01*
X-76696626Y-37042498D01*
X-76618605Y-37230856D01*
X-76505337Y-37400374D01*
X-76361174Y-37544537D01*
X-76191656Y-37657805D01*
X-76003298Y-37735826D01*
X-75803339Y-37775600D01*
X-75599461Y-37775600D01*
X-75399502Y-37735826D01*
X-75254105Y-37675600D01*
X-32426599Y-37675600D01*
X-32426600Y-54704268D01*
X-32431124Y-54750200D01*
X-32426600Y-54796131D01*
X-32413071Y-54933491D01*
X-32359607Y-55109739D01*
X-32272786Y-55272171D01*
X-32155944Y-55414544D01*
X-32120259Y-55443830D01*
X-27852531Y-59711558D01*
X-27792305Y-59856956D01*
X-27679037Y-60026474D01*
X-27534874Y-60170637D01*
X-27365356Y-60283905D01*
X-27176998Y-60361926D01*
X-26977039Y-60401700D01*
X-26773161Y-60401700D01*
X-26573202Y-60361926D01*
X-26384844Y-60283905D01*
X-26215326Y-60170637D01*
X-26071163Y-60026474D01*
X-25957895Y-59856956D01*
X-25879874Y-59668598D01*
X-25840100Y-59468639D01*
X-25840100Y-59264761D01*
X-25879874Y-59064802D01*
X-25957895Y-58876444D01*
X-26071163Y-58706926D01*
X-26215326Y-58562763D01*
X-26384844Y-58449495D01*
X-26530242Y-58389269D01*
X-30556600Y-54362911D01*
X-30556600Y-50945772D01*
X-14862373Y-66640000D01*
X-80034700Y-66640000D01*
X-80034700Y-66567333D01*
X-80031023Y-66530000D01*
X-80042273Y-66415773D01*
X-80045697Y-66381014D01*
X-80089154Y-66237753D01*
X-80159726Y-66105724D01*
X-80254699Y-65989999D01*
X-80268920Y-65978328D01*
X-80370424Y-65895026D01*
X-80502453Y-65824454D01*
X-80645714Y-65780997D01*
X-80757367Y-65770000D01*
X-80792994Y-65766491D01*
X-80799078Y-65759078D01*
X-80964290Y-65623491D01*
X-81152780Y-65522741D01*
X-81357303Y-65460700D01*
X-81516706Y-65445000D01*
X-82123294Y-65445000D01*
X-82282697Y-65460700D01*
X-82487220Y-65522741D01*
X-82675710Y-65623491D01*
X-82840922Y-65759078D01*
X-82976509Y-65924290D01*
X-83077259Y-66112780D01*
X-83139300Y-66317303D01*
X-83160249Y-66530000D01*
X-83139300Y-66742697D01*
X-83077259Y-66947220D01*
X-83056338Y-66986360D01*
X-83109502Y-67085820D01*
X-83145812Y-67205518D01*
X-83158072Y-67330000D01*
X-83158072Y-68230000D01*
X-83145812Y-68354482D01*
X-83109502Y-68474180D01*
X-83050537Y-68584494D01*
X-82971185Y-68681185D01*
X-82874494Y-68760537D01*
X-82764180Y-68819502D01*
X-82644482Y-68855812D01*
X-82520000Y-68868072D01*
X-81536000Y-68868072D01*
X-81535999Y-70635897D01*
X-82601002Y-71700901D01*
X-82630000Y-71724699D01*
X-82653798Y-71753697D01*
X-82653799Y-71753698D01*
X-82724974Y-71840424D01*
X-82795546Y-71972454D01*
X-82810683Y-72022356D01*
X-82824789Y-72068857D01*
X-82945710Y-72133491D01*
X-83110922Y-72269078D01*
X-83246509Y-72434290D01*
X-83347259Y-72622780D01*
X-83409300Y-72827303D01*
X-83430249Y-73040000D01*
X-87760000Y-73040000D01*
X-87760000Y-66607581D01*
X-87762766Y-66579499D01*
X-87762734Y-66574943D01*
X-87763634Y-66565772D01*
X-87778935Y-66420200D01*
X-87790961Y-66361617D01*
X-87802171Y-66302848D01*
X-87804835Y-66294026D01*
X-87848119Y-66154197D01*
X-87871294Y-66099067D01*
X-87893708Y-66043588D01*
X-87898035Y-66035451D01*
X-87967654Y-65906694D01*
X-88001081Y-65857137D01*
X-88033858Y-65807047D01*
X-88039683Y-65799906D01*
X-88132985Y-65687123D01*
X-88175402Y-65645001D01*
X-88217284Y-65602232D01*
X-88224385Y-65596359D01*
X-88337816Y-65503846D01*
X-88387625Y-65470754D01*
X-88436997Y-65436947D01*
X-88445103Y-65432564D01*
X-88574345Y-65363845D01*
X-88629638Y-65341055D01*
X-88684636Y-65317483D01*
X-88693440Y-65314758D01*
X-88833566Y-65272452D01*
X-88892232Y-65260836D01*
X-88950753Y-65248397D01*
X-88959917Y-65247434D01*
X-89105594Y-65233150D01*
X-89105598Y-65233150D01*
X-89137581Y-65230000D01*
X-89387719Y-65230000D01*
X-89436868Y-65225181D01*
X-89453091Y-65220283D01*
X-89468055Y-65212326D01*
X-89481188Y-65201615D01*
X-89491989Y-65188559D01*
X-89500049Y-65173652D01*
X-89505062Y-65157459D01*
X-89510000Y-65110475D01*
X-89510000Y-34784900D01*
X-88379949Y-34784900D01*
X-88359000Y-34997597D01*
X-88296959Y-35202120D01*
X-88229939Y-35327505D01*
X-88232318Y-35330403D01*
X-88312075Y-35479617D01*
X-88361188Y-35641523D01*
X-88377772Y-35809900D01*
X-88377772Y-36259900D01*
X-88361188Y-36428277D01*
X-88312075Y-36590183D01*
X-88232318Y-36739397D01*
X-88124984Y-36870184D01*
X-87994197Y-36977518D01*
X-87844983Y-37057275D01*
X-87683077Y-37106388D01*
X-87514700Y-37122972D01*
X-86564700Y-37122972D01*
X-86396323Y-37106388D01*
X-86234417Y-37057275D01*
X-86085203Y-36977518D01*
X-85954416Y-36870184D01*
X-85847082Y-36739397D01*
X-85767325Y-36590183D01*
X-85718212Y-36428277D01*
X-85701628Y-36259900D01*
X-85701628Y-35809900D01*
X-85718212Y-35641523D01*
X-85767325Y-35479617D01*
X-85847082Y-35330403D01*
X-85849461Y-35327505D01*
X-85782441Y-35202120D01*
X-85720400Y-34997597D01*
X-85699451Y-34784900D01*
X-85720400Y-34572203D01*
X-85782441Y-34367680D01*
X-85883191Y-34179190D01*
X-86018778Y-34013978D01*
X-86183990Y-33878391D01*
X-86372480Y-33777641D01*
X-86577003Y-33715600D01*
X-86736406Y-33699900D01*
X-87342994Y-33699900D01*
X-87502397Y-33715600D01*
X-87706920Y-33777641D01*
X-87895410Y-33878391D01*
X-88060622Y-34013978D01*
X-88196209Y-34179190D01*
X-88296959Y-34367680D01*
X-88359000Y-34572203D01*
X-88379949Y-34784900D01*
X-89510000Y-34784900D01*
X-89510000Y-30782281D01*
X-89505181Y-30733133D01*
X-89500282Y-30716908D01*
X-89492328Y-30701947D01*
X-89481614Y-30688811D01*
X-89468559Y-30678012D01*
X-89453651Y-30669951D01*
X-89437459Y-30664938D01*
X-89390475Y-30660000D01*
X-88687581Y-30660000D01*
X-88659499Y-30657234D01*
X-88654943Y-30657266D01*
X-88645772Y-30656366D01*
X-88500200Y-30641065D01*
X-88441648Y-30629046D01*
X-88382848Y-30617829D01*
X-88374026Y-30615165D01*
X-88234197Y-30571881D01*
X-88179067Y-30548706D01*
X-88123588Y-30526292D01*
X-88115452Y-30521965D01*
X-87986694Y-30452347D01*
X-87937110Y-30418902D01*
X-87887047Y-30386142D01*
X-87879906Y-30380317D01*
X-87767123Y-30287015D01*
X-87724982Y-30244579D01*
X-87682233Y-30202716D01*
X-87676359Y-30195616D01*
X-87583846Y-30082184D01*
X-87550754Y-30032375D01*
X-87516947Y-29983003D01*
X-87512564Y-29974896D01*
X-87443845Y-29845655D01*
X-87421060Y-29790374D01*
X-87397483Y-29735364D01*
X-87394758Y-29726561D01*
X-87352452Y-29586434D01*
X-87340836Y-29527768D01*
X-87328397Y-29469247D01*
X-87327434Y-29460082D01*
X-87313150Y-29314406D01*
X-87313150Y-29314402D01*
X-87310000Y-29282419D01*
X-87310000Y-25356123D01*
X-86834666Y-25356123D01*
X-86824994Y-25432972D01*
X-86735255Y-25618160D01*
X-86611112Y-25782283D01*
X-86457336Y-25919033D01*
X-86279836Y-26023155D01*
X-86085433Y-26090648D01*
X-85881599Y-26118918D01*
X-85717000Y-25953762D01*
X-85717000Y-25197000D01*
X-85463000Y-25197000D01*
X-85463000Y-25953762D01*
X-85298401Y-26118918D01*
X-85094567Y-26090648D01*
X-84900164Y-26023155D01*
X-84722664Y-25919033D01*
X-84568888Y-25782283D01*
X-84444745Y-25618160D01*
X-84355006Y-25432972D01*
X-84345334Y-25356123D01*
X-84473002Y-25197000D01*
X-85463000Y-25197000D01*
X-85717000Y-25197000D01*
X-86706998Y-25197000D01*
X-86834666Y-25356123D01*
X-87310000Y-25356123D01*
X-87310000Y-24106123D01*
X-86834666Y-24106123D01*
X-86824994Y-24182972D01*
X-86735255Y-24368160D01*
X-86677133Y-24445000D01*
X-86735255Y-24521840D01*
X-86824994Y-24707028D01*
X-86834666Y-24783877D01*
X-86706998Y-24943000D01*
X-85717000Y-24943000D01*
X-85717000Y-23947000D01*
X-85463000Y-23947000D01*
X-85463000Y-24943000D01*
X-84473002Y-24943000D01*
X-84345334Y-24783877D01*
X-84355006Y-24707028D01*
X-84444745Y-24521840D01*
X-84502867Y-24445000D01*
X-84444745Y-24368160D01*
X-84355006Y-24182972D01*
X-84345334Y-24106123D01*
X-84473002Y-23947000D01*
X-85463000Y-23947000D01*
X-85717000Y-23947000D01*
X-86706998Y-23947000D01*
X-86834666Y-24106123D01*
X-87310000Y-24106123D01*
X-87310000Y-22856123D01*
X-86834666Y-22856123D01*
X-86824994Y-22932972D01*
X-86735255Y-23118160D01*
X-86677133Y-23195000D01*
X-86735255Y-23271840D01*
X-86824994Y-23457028D01*
X-86834666Y-23533877D01*
X-86706998Y-23693000D01*
X-85717000Y-23693000D01*
X-85717000Y-22697000D01*
X-85463000Y-22697000D01*
X-85463000Y-23693000D01*
X-84473002Y-23693000D01*
X-84345334Y-23533877D01*
X-84355006Y-23457028D01*
X-84444745Y-23271840D01*
X-84502867Y-23195000D01*
X-84444745Y-23118160D01*
X-84355006Y-22932972D01*
X-84345334Y-22856123D01*
X-84473002Y-22697000D01*
X-85463000Y-22697000D01*
X-85717000Y-22697000D01*
X-86706998Y-22697000D01*
X-86834666Y-22856123D01*
X-87310000Y-22856123D01*
X-87310000Y-18820000D01*
X-86880007Y-18820000D01*
X-86860024Y-19022895D01*
X-86800841Y-19217993D01*
X-86704734Y-19397797D01*
X-86665996Y-19445000D01*
X-86704734Y-19492203D01*
X-86800841Y-19672007D01*
X-86860024Y-19867105D01*
X-86880007Y-20070000D01*
X-86860024Y-20272895D01*
X-86800841Y-20467993D01*
X-86704734Y-20647797D01*
X-86665996Y-20695000D01*
X-86704734Y-20742203D01*
X-86800841Y-20922007D01*
X-86860024Y-21117105D01*
X-86880007Y-21320000D01*
X-86860024Y-21522895D01*
X-86800841Y-21717993D01*
X-86704734Y-21897797D01*
X-86671791Y-21937938D01*
X-86735255Y-22021840D01*
X-86824994Y-22207028D01*
X-86834666Y-22283877D01*
X-86706998Y-22443000D01*
X-85717000Y-22443000D01*
X-85717000Y-22423000D01*
X-85463000Y-22423000D01*
X-85463000Y-22443000D01*
X-84473002Y-22443000D01*
X-84345334Y-22283877D01*
X-84355006Y-22207028D01*
X-84444745Y-22021840D01*
X-84508209Y-21937938D01*
X-84475266Y-21897797D01*
X-84379159Y-21717993D01*
X-84319976Y-21522895D01*
X-84299993Y-21320000D01*
X-84319976Y-21117105D01*
X-84379159Y-20922007D01*
X-84475266Y-20742203D01*
X-84514004Y-20695000D01*
X-84475266Y-20647797D01*
X-84379159Y-20467993D01*
X-84319976Y-20272895D01*
X-84299993Y-20070000D01*
X-84319976Y-19867105D01*
X-84379159Y-19672007D01*
X-84475266Y-19492203D01*
X-84514004Y-19445000D01*
X-84475266Y-19397797D01*
X-84379159Y-19217993D01*
X-84319976Y-19022895D01*
X-84299993Y-18820000D01*
X-84319976Y-18617105D01*
X-84379159Y-18422007D01*
X-84464741Y-18261894D01*
X-84443169Y-18235608D01*
X-84365722Y-18090716D01*
X-84318031Y-17933500D01*
X-84301928Y-17770000D01*
X-84301928Y-17370000D01*
X-84318031Y-17206500D01*
X-84365722Y-17049284D01*
X-84443169Y-16904392D01*
X-84547394Y-16777394D01*
X-84674392Y-16673169D01*
X-84819284Y-16595722D01*
X-84976500Y-16548031D01*
X-85140000Y-16531928D01*
X-86040000Y-16531928D01*
X-86203500Y-16548031D01*
X-86360716Y-16595722D01*
X-86505608Y-16673169D01*
X-86632606Y-16777394D01*
X-86736831Y-16904392D01*
X-86814278Y-17049284D01*
X-86861969Y-17206500D01*
X-86878072Y-17370000D01*
X-86878072Y-17770000D01*
X-86861969Y-17933500D01*
X-86814278Y-18090716D01*
X-86736831Y-18235608D01*
X-86715259Y-18261894D01*
X-86800841Y-18422007D01*
X-86860024Y-18617105D01*
X-86880007Y-18820000D01*
X-87310000Y-18820000D01*
X-87310000Y-15282281D01*
X-87305181Y-15233133D01*
X-87300282Y-15216908D01*
X-87292328Y-15201947D01*
X-87281614Y-15188811D01*
X-87268559Y-15178012D01*
X-87253651Y-15169951D01*
X-87237459Y-15164938D01*
X-87190475Y-15160000D01*
X-84887581Y-15160000D01*
X-84859499Y-15157234D01*
X-84854943Y-15157266D01*
X-84845772Y-15156366D01*
X-84700200Y-15141065D01*
X-84641648Y-15129046D01*
X-84582848Y-15117829D01*
X-84574026Y-15115165D01*
X-84434197Y-15071881D01*
X-84379067Y-15048706D01*
X-84323588Y-15026292D01*
X-84315452Y-15021965D01*
X-84186694Y-14952347D01*
X-84137110Y-14918902D01*
X-84087047Y-14886142D01*
X-84079906Y-14880317D01*
X-83967123Y-14787015D01*
X-83924982Y-14744579D01*
X-83882233Y-14702716D01*
X-83876359Y-14695616D01*
X-83783846Y-14582184D01*
X-83750754Y-14532375D01*
X-83716947Y-14483003D01*
X-83712564Y-14474896D01*
X-83643845Y-14345655D01*
X-83621060Y-14290374D01*
X-83597483Y-14235364D01*
X-83594758Y-14226561D01*
X-83552452Y-14086434D01*
X-83540836Y-14027768D01*
X-83528397Y-13969247D01*
X-83527434Y-13960082D01*
X-83513150Y-13814406D01*
X-83513150Y-13814402D01*
X-83510000Y-13782419D01*
X-83510000Y-10217581D01*
X-83512766Y-10189499D01*
X-83512734Y-10184943D01*
X-83513634Y-10175772D01*
X-83528935Y-10030200D01*
X-83540961Y-9971617D01*
X-83552171Y-9912848D01*
X-83554835Y-9904026D01*
X-83598119Y-9764197D01*
X-83621294Y-9709067D01*
X-83643708Y-9653588D01*
X-83648035Y-9645451D01*
X-83717654Y-9516694D01*
X-83751081Y-9467137D01*
X-83783858Y-9417047D01*
X-83789683Y-9409906D01*
X-83882985Y-9297123D01*
X-83925402Y-9255001D01*
X-83967284Y-9212232D01*
X-83974385Y-9206359D01*
X-84087816Y-9113846D01*
X-84137625Y-9080754D01*
X-84186997Y-9046947D01*
X-84195103Y-9042564D01*
X-84324345Y-8973845D01*
X-84379638Y-8951055D01*
X-84434636Y-8927483D01*
X-84443440Y-8924758D01*
X-84583566Y-8882452D01*
X-84642232Y-8870836D01*
X-84700753Y-8858397D01*
X-84709917Y-8857434D01*
X-84855594Y-8843150D01*
X-84855598Y-8843150D01*
X-84887581Y-8840000D01*
X-87187719Y-8840000D01*
X-87236868Y-8835181D01*
X-87253091Y-8830283D01*
X-87268055Y-8822326D01*
X-87281188Y-8811615D01*
X-87291989Y-8798559D01*
X-87300049Y-8783652D01*
X-87305062Y-8767459D01*
X-87310000Y-8720475D01*
X-87310000Y-4726758D01*
X-84755000Y-4726758D01*
X-84755000Y-5413242D01*
X-84621073Y-6086537D01*
X-84358367Y-6720766D01*
X-83976976Y-7291558D01*
X-83491558Y-7776976D01*
X-82920766Y-8158367D01*
X-82286537Y-8421073D01*
X-81613242Y-8555000D01*
X-80926758Y-8555000D01*
X-80253463Y-8421073D01*
X-79619234Y-8158367D01*
X-79048442Y-7776976D01*
X-78563024Y-7291558D01*
X-78181633Y-6720766D01*
X-77918927Y-6086537D01*
X-77785000Y-5413242D01*
X-77785000Y-4726758D01*
X-77918927Y-4053463D01*
X-77957640Y-3960000D01*
X-77608072Y-3960000D01*
X-77608072Y-5660000D01*
X-77595812Y-5784482D01*
X-77559502Y-5904180D01*
X-77500537Y-6014494D01*
X-77421185Y-6111185D01*
X-77324494Y-6190537D01*
X-77214180Y-6249502D01*
X-77141620Y-6271513D01*
X-77273475Y-6403368D01*
X-77435990Y-6646589D01*
X-77547932Y-6916842D01*
X-77605000Y-7203740D01*
X-77605000Y-7496260D01*
X-77547932Y-7783158D01*
X-77435990Y-8053411D01*
X-77273475Y-8296632D01*
X-77066632Y-8503475D01*
X-76934253Y-8591928D01*
X-76970000Y-8591928D01*
X-77094482Y-8604188D01*
X-77214180Y-8640498D01*
X-77324494Y-8699463D01*
X-77421185Y-8778815D01*
X-77500537Y-8875506D01*
X-77559502Y-8985820D01*
X-77595812Y-9105518D01*
X-77608072Y-9230000D01*
X-77608072Y-10930000D01*
X-77595812Y-11054482D01*
X-77559502Y-11174180D01*
X-77500537Y-11284494D01*
X-77421185Y-11381185D01*
X-77324494Y-11460537D01*
X-77214180Y-11519502D01*
X-77141620Y-11541513D01*
X-77273475Y-11673368D01*
X-77435990Y-11916589D01*
X-77547932Y-12186842D01*
X-77605000Y-12473740D01*
X-77605000Y-12766260D01*
X-77547932Y-13053158D01*
X-77435990Y-13323411D01*
X-77273475Y-13566632D01*
X-77066632Y-13773475D01*
X-76823411Y-13935990D01*
X-76553158Y-14047932D01*
X-76266260Y-14105000D01*
X-75973740Y-14105000D01*
X-75686842Y-14047932D01*
X-75416589Y-13935990D01*
X-75173368Y-13773475D01*
X-74966525Y-13566632D01*
X-74850000Y-13392240D01*
X-74733475Y-13566632D01*
X-74526632Y-13773475D01*
X-74283411Y-13935990D01*
X-74013158Y-14047932D01*
X-73726260Y-14105000D01*
X-73433740Y-14105000D01*
X-73146842Y-14047932D01*
X-72876589Y-13935990D01*
X-72633368Y-13773475D01*
X-72426525Y-13566632D01*
X-72310000Y-13392240D01*
X-72193475Y-13566632D01*
X-71986632Y-13773475D01*
X-71743411Y-13935990D01*
X-71473158Y-14047932D01*
X-71186260Y-14105000D01*
X-70893740Y-14105000D01*
X-70606842Y-14047932D01*
X-70336589Y-13935990D01*
X-70093368Y-13773475D01*
X-69886525Y-13566632D01*
X-69770000Y-13392240D01*
X-69653475Y-13566632D01*
X-69446632Y-13773475D01*
X-69203411Y-13935990D01*
X-68933158Y-14047932D01*
X-68646260Y-14105000D01*
X-68353740Y-14105000D01*
X-68066842Y-14047932D01*
X-67796589Y-13935990D01*
X-67553368Y-13773475D01*
X-67346525Y-13566632D01*
X-67230000Y-13392240D01*
X-67113475Y-13566632D01*
X-66906632Y-13773475D01*
X-66663411Y-13935990D01*
X-66393158Y-14047932D01*
X-66106260Y-14105000D01*
X-65813740Y-14105000D01*
X-65526842Y-14047932D01*
X-65256589Y-13935990D01*
X-65013368Y-13773475D01*
X-64806525Y-13566632D01*
X-64690000Y-13392240D01*
X-64573475Y-13566632D01*
X-64366632Y-13773475D01*
X-64123411Y-13935990D01*
X-63853158Y-14047932D01*
X-63566260Y-14105000D01*
X-63273740Y-14105000D01*
X-62986842Y-14047932D01*
X-62716589Y-13935990D01*
X-62473368Y-13773475D01*
X-62266525Y-13566632D01*
X-62150000Y-13392240D01*
X-62033475Y-13566632D01*
X-61826632Y-13773475D01*
X-61583411Y-13935990D01*
X-61313158Y-14047932D01*
X-61026260Y-14105000D01*
X-60733740Y-14105000D01*
X-60446842Y-14047932D01*
X-60176589Y-13935990D01*
X-59933368Y-13773475D01*
X-59726525Y-13566632D01*
X-59610000Y-13392240D01*
X-59493475Y-13566632D01*
X-59286632Y-13773475D01*
X-59043411Y-13935990D01*
X-58773158Y-14047932D01*
X-58486260Y-14105000D01*
X-58193740Y-14105000D01*
X-57906842Y-14047932D01*
X-57636589Y-13935990D01*
X-57393368Y-13773475D01*
X-57186525Y-13566632D01*
X-57070000Y-13392240D01*
X-56953475Y-13566632D01*
X-56746632Y-13773475D01*
X-56503411Y-13935990D01*
X-56233158Y-14047932D01*
X-55946260Y-14105000D01*
X-55653740Y-14105000D01*
X-55366842Y-14047932D01*
X-55096589Y-13935990D01*
X-54853368Y-13773475D01*
X-54646525Y-13566632D01*
X-54530000Y-13392240D01*
X-54413475Y-13566632D01*
X-54206632Y-13773475D01*
X-53963411Y-13935990D01*
X-53693158Y-14047932D01*
X-53406260Y-14105000D01*
X-53113740Y-14105000D01*
X-52826842Y-14047932D01*
X-52556589Y-13935990D01*
X-52313368Y-13773475D01*
X-52106525Y-13566632D01*
X-51990000Y-13392240D01*
X-51873475Y-13566632D01*
X-51666632Y-13773475D01*
X-51423411Y-13935990D01*
X-51153158Y-14047932D01*
X-50866260Y-14105000D01*
X-50573740Y-14105000D01*
X-50286842Y-14047932D01*
X-50016589Y-13935990D01*
X-49773368Y-13773475D01*
X-49566525Y-13566632D01*
X-49450000Y-13392240D01*
X-49333475Y-13566632D01*
X-49126632Y-13773475D01*
X-48883411Y-13935990D01*
X-48613158Y-14047932D01*
X-48326260Y-14105000D01*
X-48033740Y-14105000D01*
X-47746842Y-14047932D01*
X-47476589Y-13935990D01*
X-47233368Y-13773475D01*
X-47026525Y-13566632D01*
X-46910000Y-13392240D01*
X-46793475Y-13566632D01*
X-46586632Y-13773475D01*
X-46343411Y-13935990D01*
X-46073158Y-14047932D01*
X-45786260Y-14105000D01*
X-45493740Y-14105000D01*
X-45206842Y-14047932D01*
X-44936589Y-13935990D01*
X-44693368Y-13773475D01*
X-44486525Y-13566632D01*
X-44370000Y-13392240D01*
X-44253475Y-13566632D01*
X-44046632Y-13773475D01*
X-43803411Y-13935990D01*
X-43533158Y-14047932D01*
X-43246260Y-14105000D01*
X-42953740Y-14105000D01*
X-42666842Y-14047932D01*
X-42396589Y-13935990D01*
X-42153368Y-13773475D01*
X-41946525Y-13566632D01*
X-41830000Y-13392240D01*
X-41713475Y-13566632D01*
X-41506632Y-13773475D01*
X-41263411Y-13935990D01*
X-40993158Y-14047932D01*
X-40706260Y-14105000D01*
X-40413740Y-14105000D01*
X-40126842Y-14047932D01*
X-39856589Y-13935990D01*
X-39613368Y-13773475D01*
X-39406525Y-13566632D01*
X-39290000Y-13392240D01*
X-39173475Y-13566632D01*
X-38966632Y-13773475D01*
X-38723411Y-13935990D01*
X-38453158Y-14047932D01*
X-38166260Y-14105000D01*
X-37873740Y-14105000D01*
X-37586842Y-14047932D01*
X-37316589Y-13935990D01*
X-37073368Y-13773475D01*
X-36866525Y-13566632D01*
X-36750000Y-13392240D01*
X-36633475Y-13566632D01*
X-36426632Y-13773475D01*
X-36183411Y-13935990D01*
X-35913158Y-14047932D01*
X-35626260Y-14105000D01*
X-35333740Y-14105000D01*
X-35046842Y-14047932D01*
X-34776589Y-13935990D01*
X-34533368Y-13773475D01*
X-34326525Y-13566632D01*
X-34210000Y-13392240D01*
X-34093475Y-13566632D01*
X-33886632Y-13773475D01*
X-33643411Y-13935990D01*
X-33373158Y-14047932D01*
X-33086260Y-14105000D01*
X-32793740Y-14105000D01*
X-32506842Y-14047932D01*
X-32236589Y-13935990D01*
X-31993368Y-13773475D01*
X-31786525Y-13566632D01*
X-31670000Y-13392240D01*
X-31553475Y-13566632D01*
X-31346632Y-13773475D01*
X-31103411Y-13935990D01*
X-30833158Y-14047932D01*
X-30546260Y-14105000D01*
X-30253740Y-14105000D01*
X-29966842Y-14047932D01*
X-29696589Y-13935990D01*
X-29453368Y-13773475D01*
X-29246525Y-13566632D01*
X-29130000Y-13392240D01*
X-29013475Y-13566632D01*
X-28806632Y-13773475D01*
X-28563411Y-13935990D01*
X-28293158Y-14047932D01*
X-28006260Y-14105000D01*
X-27713740Y-14105000D01*
X-27426842Y-14047932D01*
X-27156589Y-13935990D01*
X-26913368Y-13773475D01*
X-26706525Y-13566632D01*
X-26590000Y-13392240D01*
X-26473475Y-13566632D01*
X-26266632Y-13773475D01*
X-26023411Y-13935990D01*
X-25753158Y-14047932D01*
X-25466260Y-14105000D01*
X-25173740Y-14105000D01*
X-24886842Y-14047932D01*
X-24616589Y-13935990D01*
X-24373368Y-13773475D01*
X-24166525Y-13566632D01*
X-24050000Y-13392240D01*
X-23933475Y-13566632D01*
X-23726632Y-13773475D01*
X-23483411Y-13935990D01*
X-23213158Y-14047932D01*
X-22926260Y-14105000D01*
X-22633740Y-14105000D01*
X-22346842Y-14047932D01*
X-22076589Y-13935990D01*
X-21833368Y-13773475D01*
X-21626525Y-13566632D01*
X-21510000Y-13392240D01*
X-21393475Y-13566632D01*
X-21186632Y-13773475D01*
X-20943411Y-13935990D01*
X-20673158Y-14047932D01*
X-20386260Y-14105000D01*
X-20093740Y-14105000D01*
X-19806842Y-14047932D01*
X-19536589Y-13935990D01*
X-19293368Y-13773475D01*
X-19086525Y-13566632D01*
X-18970000Y-13392240D01*
X-18853475Y-13566632D01*
X-18646632Y-13773475D01*
X-18403411Y-13935990D01*
X-18133158Y-14047932D01*
X-17846260Y-14105000D01*
X-17553740Y-14105000D01*
X-17266842Y-14047932D01*
X-16996589Y-13935990D01*
X-16753368Y-13773475D01*
X-16546525Y-13566632D01*
X-16430000Y-13392240D01*
X-16313475Y-13566632D01*
X-16106632Y-13773475D01*
X-15863411Y-13935990D01*
X-15593158Y-14047932D01*
X-15306260Y-14105000D01*
X-15013740Y-14105000D01*
X-14726842Y-14047932D01*
X-14456589Y-13935990D01*
X-14213368Y-13773475D01*
X-14006525Y-13566632D01*
X-13890000Y-13392240D01*
X-13773475Y-13566632D01*
X-13566632Y-13773475D01*
X-13323411Y-13935990D01*
X-13317237Y-13938547D01*
X-21096289Y-21717600D01*
X-27525505Y-21717600D01*
X-27670902Y-21657374D01*
X-27870861Y-21617600D01*
X-28074739Y-21617600D01*
X-28274698Y-21657374D01*
X-28463056Y-21735395D01*
X-28632574Y-21848663D01*
X-28776737Y-21992826D01*
X-28890005Y-22162344D01*
X-28968026Y-22350702D01*
X-29007800Y-22550661D01*
X-29007800Y-22754539D01*
X-28968026Y-22954498D01*
X-28890005Y-23142856D01*
X-28776737Y-23312374D01*
X-28632574Y-23456537D01*
X-28463056Y-23569805D01*
X-28274698Y-23647826D01*
X-28074739Y-23687600D01*
X-27870861Y-23687600D01*
X-27670902Y-23647826D01*
X-27525505Y-23587600D01*
X-20754932Y-23587600D01*
X-20709000Y-23592124D01*
X-20663068Y-23587600D01*
X-20525708Y-23574071D01*
X-20349460Y-23520607D01*
X-20187028Y-23433786D01*
X-20044656Y-23316944D01*
X-20015370Y-23281259D01*
X-10634534Y-13900424D01*
X-10598856Y-13871144D01*
X-10482014Y-13728772D01*
X-10395193Y-13566340D01*
X-10341729Y-13390092D01*
X-10341655Y-13389346D01*
X-10339917Y-13371690D01*
X-10328200Y-13252732D01*
X-10328200Y-13252726D01*
X-10323677Y-13206801D01*
X-10328200Y-13160876D01*
X-10328200Y-9476735D01*
X-10323676Y-9430800D01*
X-10341728Y-9247508D01*
X-10395193Y-9071259D01*
X-10429657Y-9006782D01*
X-10482014Y-8908828D01*
X-10598856Y-8766456D01*
X-10634541Y-8737170D01*
X-11270770Y-8100941D01*
X-11300056Y-8065256D01*
X-11307721Y-8058965D01*
X-11304010Y-8053411D01*
X-11192068Y-7783158D01*
X-11135000Y-7496260D01*
X-11135000Y-7203740D01*
X-11192068Y-6916842D01*
X-11304010Y-6646589D01*
X-11466525Y-6403368D01*
X-11673368Y-6196525D01*
X-11847760Y-6080000D01*
X-11673368Y-5963475D01*
X-11466525Y-5756632D01*
X-11304010Y-5513411D01*
X-11192068Y-5243158D01*
X-11135000Y-4956260D01*
X-11135000Y-5413242D01*
X-11001073Y-6086537D01*
X-10738367Y-6720766D01*
X-10356976Y-7291558D01*
X-9871558Y-7776976D01*
X-9300766Y-8158367D01*
X-8666537Y-8421073D01*
X-7993242Y-8555000D01*
X-7306758Y-8555000D01*
X-6633463Y-8421073D01*
X-5999234Y-8158367D01*
X-5428442Y-7776976D01*
X-4943024Y-7291558D01*
X-4561633Y-6720766D01*
X-4298927Y-6086537D01*
X-4165000Y-5413242D01*
X-4165000Y-4726758D01*
X-4298927Y-4053463D01*
X-4561633Y-3419234D01*
X-4943024Y-2848442D01*
X-5428442Y-2363024D01*
X-5999234Y-1981633D01*
X-6633463Y-1718927D01*
X-7306758Y-1585000D01*
X-7993242Y-1585000D01*
X-8666537Y-1718927D01*
X-9300766Y-1981633D01*
X-9871558Y-2363024D01*
X-10356976Y-2848442D01*
X-10738367Y-3419234D01*
X-11001073Y-4053463D01*
X-11135000Y-4726758D01*
X-11135000Y-4663740D01*
X-11192068Y-4376842D01*
X-11304010Y-4106589D01*
X-11466525Y-3863368D01*
X-11673368Y-3656525D01*
X-11916589Y-3494010D01*
X-12186842Y-3382068D01*
X-12473740Y-3325000D01*
X-12766260Y-3325000D01*
X-13053158Y-3382068D01*
X-13323411Y-3494010D01*
X-13566632Y-3656525D01*
X-13773475Y-3863368D01*
X-13890000Y-4037760D01*
X-14006525Y-3863368D01*
X-14213368Y-3656525D01*
X-14456589Y-3494010D01*
X-14726842Y-3382068D01*
X-15013740Y-3325000D01*
X-15306260Y-3325000D01*
X-15593158Y-3382068D01*
X-15863411Y-3494010D01*
X-16106632Y-3656525D01*
X-16313475Y-3863368D01*
X-16430000Y-4037760D01*
X-16546525Y-3863368D01*
X-16753368Y-3656525D01*
X-16996589Y-3494010D01*
X-17266842Y-3382068D01*
X-17553740Y-3325000D01*
X-17846260Y-3325000D01*
X-18133158Y-3382068D01*
X-18403411Y-3494010D01*
X-18646632Y-3656525D01*
X-18853475Y-3863368D01*
X-18970000Y-4037760D01*
X-19086525Y-3863368D01*
X-19293368Y-3656525D01*
X-19536589Y-3494010D01*
X-19806842Y-3382068D01*
X-20093740Y-3325000D01*
X-20386260Y-3325000D01*
X-20673158Y-3382068D01*
X-20943411Y-3494010D01*
X-21186632Y-3656525D01*
X-21393475Y-3863368D01*
X-21510000Y-4037760D01*
X-21626525Y-3863368D01*
X-21833368Y-3656525D01*
X-22076589Y-3494010D01*
X-22346842Y-3382068D01*
X-22633740Y-3325000D01*
X-22926260Y-3325000D01*
X-23213158Y-3382068D01*
X-23483411Y-3494010D01*
X-23726632Y-3656525D01*
X-23933475Y-3863368D01*
X-24050000Y-4037760D01*
X-24166525Y-3863368D01*
X-24373368Y-3656525D01*
X-24616589Y-3494010D01*
X-24886842Y-3382068D01*
X-25173740Y-3325000D01*
X-25466260Y-3325000D01*
X-25753158Y-3382068D01*
X-26023411Y-3494010D01*
X-26266632Y-3656525D01*
X-26473475Y-3863368D01*
X-26590000Y-4037760D01*
X-26706525Y-3863368D01*
X-26913368Y-3656525D01*
X-27156589Y-3494010D01*
X-27426842Y-3382068D01*
X-27713740Y-3325000D01*
X-28006260Y-3325000D01*
X-28293158Y-3382068D01*
X-28563411Y-3494010D01*
X-28806632Y-3656525D01*
X-29013475Y-3863368D01*
X-29130000Y-4037760D01*
X-29246525Y-3863368D01*
X-29453368Y-3656525D01*
X-29696589Y-3494010D01*
X-29966842Y-3382068D01*
X-30253740Y-3325000D01*
X-30546260Y-3325000D01*
X-30833158Y-3382068D01*
X-31103411Y-3494010D01*
X-31346632Y-3656525D01*
X-31553475Y-3863368D01*
X-31670000Y-4037760D01*
X-31786525Y-3863368D01*
X-31993368Y-3656525D01*
X-32236589Y-3494010D01*
X-32506842Y-3382068D01*
X-32793740Y-3325000D01*
X-33086260Y-3325000D01*
X-33373158Y-3382068D01*
X-33643411Y-3494010D01*
X-33886632Y-3656525D01*
X-34093475Y-3863368D01*
X-34210000Y-4037760D01*
X-34326525Y-3863368D01*
X-34533368Y-3656525D01*
X-34776589Y-3494010D01*
X-35046842Y-3382068D01*
X-35333740Y-3325000D01*
X-35626260Y-3325000D01*
X-35913158Y-3382068D01*
X-36183411Y-3494010D01*
X-36426632Y-3656525D01*
X-36633475Y-3863368D01*
X-36750000Y-4037760D01*
X-36866525Y-3863368D01*
X-37073368Y-3656525D01*
X-37316589Y-3494010D01*
X-37586842Y-3382068D01*
X-37873740Y-3325000D01*
X-38166260Y-3325000D01*
X-38453158Y-3382068D01*
X-38723411Y-3494010D01*
X-38966632Y-3656525D01*
X-39173475Y-3863368D01*
X-39295195Y-4045534D01*
X-39364822Y-3928645D01*
X-39559731Y-3712412D01*
X-39793080Y-3538359D01*
X-40055901Y-3413175D01*
X-40203110Y-3368524D01*
X-40433000Y-3489845D01*
X-40433000Y-4683000D01*
X-40413000Y-4683000D01*
X-40413000Y-4937000D01*
X-40433000Y-4937000D01*
X-40433000Y-7223000D01*
X-38147000Y-7223000D01*
X-38147000Y-7203000D01*
X-37893000Y-7203000D01*
X-37893000Y-7223000D01*
X-37873000Y-7223000D01*
X-37873000Y-7477000D01*
X-37893000Y-7477000D01*
X-37893000Y-7497000D01*
X-38147000Y-7497000D01*
X-38147000Y-7477000D01*
X-40433000Y-7477000D01*
X-40433000Y-7497000D01*
X-40687000Y-7497000D01*
X-40687000Y-7477000D01*
X-40707000Y-7477000D01*
X-40707000Y-7223000D01*
X-40687000Y-7223000D01*
X-40687000Y-4937000D01*
X-40707000Y-4937000D01*
X-40707000Y-4683000D01*
X-40687000Y-4683000D01*
X-40687000Y-3489845D01*
X-40916890Y-3368524D01*
X-41064099Y-3413175D01*
X-41326920Y-3538359D01*
X-41560269Y-3712412D01*
X-41755178Y-3928645D01*
X-41824805Y-4045534D01*
X-41946525Y-3863368D01*
X-42153368Y-3656525D01*
X-42396589Y-3494010D01*
X-42666842Y-3382068D01*
X-42953740Y-3325000D01*
X-43246260Y-3325000D01*
X-43533158Y-3382068D01*
X-43803411Y-3494010D01*
X-44046632Y-3656525D01*
X-44253475Y-3863368D01*
X-44370000Y-4037760D01*
X-44486525Y-3863368D01*
X-44693368Y-3656525D01*
X-44936589Y-3494010D01*
X-45206842Y-3382068D01*
X-45493740Y-3325000D01*
X-45786260Y-3325000D01*
X-46073158Y-3382068D01*
X-46343411Y-3494010D01*
X-46586632Y-3656525D01*
X-46793475Y-3863368D01*
X-46910000Y-4037760D01*
X-47026525Y-3863368D01*
X-47233368Y-3656525D01*
X-47476589Y-3494010D01*
X-47746842Y-3382068D01*
X-48033740Y-3325000D01*
X-48326260Y-3325000D01*
X-48613158Y-3382068D01*
X-48883411Y-3494010D01*
X-49126632Y-3656525D01*
X-49333475Y-3863368D01*
X-49450000Y-4037760D01*
X-49566525Y-3863368D01*
X-49773368Y-3656525D01*
X-50016589Y-3494010D01*
X-50286842Y-3382068D01*
X-50573740Y-3325000D01*
X-50866260Y-3325000D01*
X-51153158Y-3382068D01*
X-51423411Y-3494010D01*
X-51666632Y-3656525D01*
X-51873475Y-3863368D01*
X-51990000Y-4037760D01*
X-52106525Y-3863368D01*
X-52313368Y-3656525D01*
X-52556589Y-3494010D01*
X-52826842Y-3382068D01*
X-53113740Y-3325000D01*
X-53406260Y-3325000D01*
X-53693158Y-3382068D01*
X-53963411Y-3494010D01*
X-54206632Y-3656525D01*
X-54413475Y-3863368D01*
X-54530000Y-4037760D01*
X-54646525Y-3863368D01*
X-54853368Y-3656525D01*
X-55096589Y-3494010D01*
X-55366842Y-3382068D01*
X-55653740Y-3325000D01*
X-55946260Y-3325000D01*
X-56233158Y-3382068D01*
X-56503411Y-3494010D01*
X-56746632Y-3656525D01*
X-56953475Y-3863368D01*
X-57070000Y-4037760D01*
X-57186525Y-3863368D01*
X-57393368Y-3656525D01*
X-57636589Y-3494010D01*
X-57906842Y-3382068D01*
X-58193740Y-3325000D01*
X-58486260Y-3325000D01*
X-58773158Y-3382068D01*
X-59043411Y-3494010D01*
X-59286632Y-3656525D01*
X-59493475Y-3863368D01*
X-59610000Y-4037760D01*
X-59726525Y-3863368D01*
X-59933368Y-3656525D01*
X-60176589Y-3494010D01*
X-60446842Y-3382068D01*
X-60733740Y-3325000D01*
X-61026260Y-3325000D01*
X-61313158Y-3382068D01*
X-61583411Y-3494010D01*
X-61826632Y-3656525D01*
X-62033475Y-3863368D01*
X-62150000Y-4037760D01*
X-62266525Y-3863368D01*
X-62473368Y-3656525D01*
X-62716589Y-3494010D01*
X-62986842Y-3382068D01*
X-63273740Y-3325000D01*
X-63566260Y-3325000D01*
X-63853158Y-3382068D01*
X-64123411Y-3494010D01*
X-64366632Y-3656525D01*
X-64573475Y-3863368D01*
X-64690000Y-4037760D01*
X-64806525Y-3863368D01*
X-65013368Y-3656525D01*
X-65256589Y-3494010D01*
X-65526842Y-3382068D01*
X-65813740Y-3325000D01*
X-66106260Y-3325000D01*
X-66393158Y-3382068D01*
X-66663411Y-3494010D01*
X-66906632Y-3656525D01*
X-67113475Y-3863368D01*
X-67230000Y-4037760D01*
X-67346525Y-3863368D01*
X-67553368Y-3656525D01*
X-67796589Y-3494010D01*
X-68066842Y-3382068D01*
X-68353740Y-3325000D01*
X-68646260Y-3325000D01*
X-68933158Y-3382068D01*
X-69203411Y-3494010D01*
X-69446632Y-3656525D01*
X-69653475Y-3863368D01*
X-69770000Y-4037760D01*
X-69886525Y-3863368D01*
X-70093368Y-3656525D01*
X-70336589Y-3494010D01*
X-70606842Y-3382068D01*
X-70893740Y-3325000D01*
X-71186260Y-3325000D01*
X-71473158Y-3382068D01*
X-71743411Y-3494010D01*
X-71986632Y-3656525D01*
X-72193475Y-3863368D01*
X-72310000Y-4037760D01*
X-72426525Y-3863368D01*
X-72633368Y-3656525D01*
X-72876589Y-3494010D01*
X-73146842Y-3382068D01*
X-73433740Y-3325000D01*
X-73726260Y-3325000D01*
X-74013158Y-3382068D01*
X-74283411Y-3494010D01*
X-74526632Y-3656525D01*
X-74658487Y-3788380D01*
X-74680498Y-3715820D01*
X-74739463Y-3605506D01*
X-74818815Y-3508815D01*
X-74915506Y-3429463D01*
X-75025820Y-3370498D01*
X-75145518Y-3334188D01*
X-75270000Y-3321928D01*
X-76970000Y-3321928D01*
X-77094482Y-3334188D01*
X-77214180Y-3370498D01*
X-77324494Y-3429463D01*
X-77421185Y-3508815D01*
X-77500537Y-3605506D01*
X-77559502Y-3715820D01*
X-77595812Y-3835518D01*
X-77608072Y-3960000D01*
X-77957640Y-3960000D01*
X-78181633Y-3419234D01*
X-78563024Y-2848442D01*
X-79048442Y-2363024D01*
X-79619234Y-1981633D01*
X-80253463Y-1718927D01*
X-80926758Y-1585000D01*
X-81613242Y-1585000D01*
X-82286537Y-1718927D01*
X-82920766Y-1981633D01*
X-83491558Y-2363024D01*
X-83976976Y-2848442D01*
X-84358367Y-3419234D01*
X-84621073Y-4053463D01*
X-84755000Y-4726758D01*
X-87310000Y-4726758D01*
X-87310000Y-660000D01*
X-2660000Y-660000D01*
X-2659999Y-8717709D01*
%TA.AperFunction,Conductor*%
D22*
G36*
X-2659999Y-8717709D02*
G01*
X-2664819Y-8766868D01*
X-2669717Y-8783091D01*
X-2677674Y-8798055D01*
X-2688385Y-8811188D01*
X-2701441Y-8821989D01*
X-2716348Y-8830049D01*
X-2732541Y-8835062D01*
X-2779525Y-8840000D01*
X-5282419Y-8840000D01*
X-5310501Y-8842766D01*
X-5315057Y-8842734D01*
X-5324228Y-8843634D01*
X-5469800Y-8858935D01*
X-5528383Y-8870961D01*
X-5587152Y-8882171D01*
X-5595974Y-8884835D01*
X-5735803Y-8928119D01*
X-5790933Y-8951294D01*
X-5846412Y-8973708D01*
X-5854549Y-8978035D01*
X-5983306Y-9047654D01*
X-6032863Y-9081081D01*
X-6082953Y-9113858D01*
X-6090094Y-9119683D01*
X-6202877Y-9212985D01*
X-6244999Y-9255402D01*
X-6287768Y-9297284D01*
X-6293641Y-9304385D01*
X-6386154Y-9417816D01*
X-6419246Y-9467625D01*
X-6453053Y-9516997D01*
X-6457436Y-9525103D01*
X-6526155Y-9654345D01*
X-6548945Y-9709638D01*
X-6572517Y-9764636D01*
X-6575242Y-9773440D01*
X-6617548Y-9913566D01*
X-6629164Y-9972232D01*
X-6641603Y-10030753D01*
X-6642566Y-10039917D01*
X-6656850Y-10185594D01*
X-6656850Y-10185599D01*
X-6660000Y-10217582D01*
X-6659999Y-13782419D01*
X-6657234Y-13810492D01*
X-6657266Y-13815057D01*
X-6656366Y-13824228D01*
X-6641065Y-13969800D01*
X-6629046Y-14028352D01*
X-6617829Y-14087152D01*
X-6615165Y-14095974D01*
X-6571881Y-14235803D01*
X-6548706Y-14290933D01*
X-6526292Y-14346412D01*
X-6521965Y-14354548D01*
X-6452347Y-14483306D01*
X-6418902Y-14532890D01*
X-6386142Y-14582953D01*
X-6380317Y-14590094D01*
X-6287015Y-14702877D01*
X-6244579Y-14745018D01*
X-6202716Y-14787767D01*
X-6195616Y-14793641D01*
X-6082184Y-14886154D01*
X-6032375Y-14919246D01*
X-5983003Y-14953053D01*
X-5974896Y-14957436D01*
X-5845655Y-15026155D01*
X-5790374Y-15048940D01*
X-5735364Y-15072517D01*
X-5726561Y-15075242D01*
X-5586434Y-15117548D01*
X-5527768Y-15129164D01*
X-5469247Y-15141603D01*
X-5460082Y-15142566D01*
X-5314406Y-15156850D01*
X-5314402Y-15156850D01*
X-5282419Y-15160000D01*
X-2802281Y-15160000D01*
X-2753133Y-15164819D01*
X-2736908Y-15169718D01*
X-2721947Y-15177672D01*
X-2708811Y-15188386D01*
X-2698012Y-15201441D01*
X-2689951Y-15216349D01*
X-2684938Y-15232541D01*
X-2680000Y-15279525D01*
X-2679999Y-29282419D01*
X-2677234Y-29310492D01*
X-2677266Y-29315057D01*
X-2676366Y-29324228D01*
X-2661065Y-29469800D01*
X-2649046Y-29528352D01*
X-2637829Y-29587152D01*
X-2635165Y-29595974D01*
X-2591881Y-29735803D01*
X-2568706Y-29790933D01*
X-2546292Y-29846412D01*
X-2541965Y-29854548D01*
X-2472347Y-29983306D01*
X-2438902Y-30032890D01*
X-2406142Y-30082953D01*
X-2400317Y-30090094D01*
X-2307015Y-30202877D01*
X-2264579Y-30245018D01*
X-2222716Y-30287767D01*
X-2215616Y-30293641D01*
X-2102184Y-30386154D01*
X-2052375Y-30419246D01*
X-2003003Y-30453053D01*
X-1994896Y-30457436D01*
X-1865655Y-30526155D01*
X-1810374Y-30548940D01*
X-1755364Y-30572517D01*
X-1746561Y-30575242D01*
X-1606434Y-30617548D01*
X-1547768Y-30629164D01*
X-1489247Y-30641603D01*
X-1480082Y-30642566D01*
X-1334406Y-30656850D01*
X-1334402Y-30656850D01*
X-1302419Y-30660000D01*
X-782281Y-30660000D01*
X-733133Y-30664819D01*
X-716908Y-30669718D01*
X-701947Y-30677672D01*
X-688811Y-30688386D01*
X-678012Y-30701441D01*
X-669951Y-30716349D01*
X-664938Y-30732541D01*
X-660000Y-30779525D01*
X-659999Y-65107708D01*
X-664819Y-65156868D01*
X-669717Y-65173091D01*
X-677674Y-65188055D01*
X-688385Y-65201188D01*
X-701441Y-65211989D01*
X-716348Y-65220049D01*
X-732541Y-65225062D01*
X-779525Y-65230000D01*
X-1082419Y-65230000D01*
X-1110501Y-65232766D01*
X-1115057Y-65232734D01*
X-1124228Y-65233634D01*
X-1269800Y-65248935D01*
X-1328383Y-65260961D01*
X-1387152Y-65272171D01*
X-1395974Y-65274835D01*
X-1535803Y-65318119D01*
X-1590933Y-65341294D01*
X-1646412Y-65363708D01*
X-1654549Y-65368035D01*
X-1783306Y-65437654D01*
X-1832863Y-65471081D01*
X-1882953Y-65503858D01*
X-1890094Y-65509683D01*
X-2002877Y-65602985D01*
X-2044999Y-65645402D01*
X-2087768Y-65687284D01*
X-2093641Y-65694385D01*
X-2186154Y-65807816D01*
X-2219246Y-65857625D01*
X-2253053Y-65906997D01*
X-2257436Y-65915103D01*
X-2326155Y-66044345D01*
X-2348945Y-66099638D01*
X-2372517Y-66154636D01*
X-2375242Y-66163440D01*
X-2417548Y-66303566D01*
X-2429164Y-66362232D01*
X-2441603Y-66420753D01*
X-2442566Y-66429917D01*
X-2456850Y-66575594D01*
X-2456850Y-66575599D01*
X-2460000Y-66607582D01*
X-2459999Y-80607708D01*
X-2464819Y-80656868D01*
X-2469717Y-80673091D01*
X-2477674Y-80688055D01*
X-2488385Y-80701188D01*
X-2501441Y-80711989D01*
X-2516348Y-80720049D01*
X-2532541Y-80725062D01*
X-2579525Y-80730000D01*
X-5282419Y-80730000D01*
X-5310501Y-80732766D01*
X-5315057Y-80732734D01*
X-5324228Y-80733634D01*
X-5469800Y-80748935D01*
X-5528383Y-80760961D01*
X-5587152Y-80772171D01*
X-5595974Y-80774835D01*
X-5735803Y-80818119D01*
X-5790933Y-80841294D01*
X-5846412Y-80863708D01*
X-5854549Y-80868035D01*
X-5983306Y-80937654D01*
X-6032863Y-80971081D01*
X-6082953Y-81003858D01*
X-6090094Y-81009683D01*
X-6202877Y-81102985D01*
X-6244999Y-81145402D01*
X-6287768Y-81187284D01*
X-6293641Y-81194385D01*
X-6386154Y-81307816D01*
X-6419246Y-81357625D01*
X-6453053Y-81406997D01*
X-6457436Y-81415103D01*
X-6526155Y-81544345D01*
X-6548945Y-81599638D01*
X-6572517Y-81654636D01*
X-6575242Y-81663440D01*
X-6617548Y-81803566D01*
X-6629164Y-81862232D01*
X-6641603Y-81920753D01*
X-6642566Y-81929917D01*
X-6656850Y-82075594D01*
X-6656850Y-82075599D01*
X-6660000Y-82107582D01*
X-6659999Y-85672419D01*
X-6657234Y-85700492D01*
X-6657266Y-85705057D01*
X-6656366Y-85714228D01*
X-6641065Y-85859800D01*
X-6629046Y-85918352D01*
X-6617829Y-85977152D01*
X-6615165Y-85985974D01*
X-6571881Y-86125803D01*
X-6548706Y-86180933D01*
X-6526292Y-86236412D01*
X-6521965Y-86244548D01*
X-6452347Y-86373306D01*
X-6418902Y-86422890D01*
X-6386142Y-86472953D01*
X-6380317Y-86480094D01*
X-6287015Y-86592877D01*
X-6244579Y-86635018D01*
X-6202716Y-86677767D01*
X-6195616Y-86683641D01*
X-6082184Y-86776154D01*
X-6032375Y-86809246D01*
X-5983003Y-86843053D01*
X-5974896Y-86847436D01*
X-5845655Y-86916155D01*
X-5790374Y-86938940D01*
X-5735364Y-86962517D01*
X-5726561Y-86965242D01*
X-5586434Y-87007548D01*
X-5527768Y-87019164D01*
X-5469247Y-87031603D01*
X-5460082Y-87032566D01*
X-5314406Y-87046850D01*
X-5314402Y-87046850D01*
X-5282419Y-87050000D01*
X-2582281Y-87050000D01*
X-2533133Y-87054819D01*
X-2516908Y-87059718D01*
X-2501947Y-87067672D01*
X-2488811Y-87078386D01*
X-2478012Y-87091441D01*
X-2469951Y-87106349D01*
X-2464938Y-87122541D01*
X-2460000Y-87169525D01*
X-2460000Y-88491466D01*
X-2898442Y-88053024D01*
X-3469234Y-87671633D01*
X-4103463Y-87408927D01*
X-4776758Y-87275000D01*
X-5463242Y-87275000D01*
X-6136537Y-87408927D01*
X-6770766Y-87671633D01*
X-7341558Y-88053024D01*
X-7826976Y-88538442D01*
X-8208367Y-89109234D01*
X-8471073Y-89743463D01*
X-8605000Y-90416758D01*
X-8605000Y-91103242D01*
X-8471073Y-91776537D01*
X-8208367Y-92410766D01*
X-7826976Y-92981558D01*
X-7341558Y-93466976D01*
X-6770766Y-93848367D01*
X-6136537Y-94111073D01*
X-5463242Y-94245000D01*
X-4776758Y-94245000D01*
X-4103463Y-94111073D01*
X-3469234Y-93848367D01*
X-2898442Y-93466976D01*
X-2459999Y-93028533D01*
X-2459999Y-95230000D01*
X-87760000Y-95230000D01*
X-87760000Y-93148534D01*
X-87341558Y-93566976D01*
X-86770766Y-93948367D01*
X-86136537Y-94211073D01*
X-85463242Y-94345000D01*
X-84776758Y-94345000D01*
X-84103463Y-94211073D01*
X-83469234Y-93948367D01*
X-82898442Y-93566976D01*
X-82413024Y-93081558D01*
X-82031633Y-92510766D01*
X-81768927Y-91876537D01*
X-81635000Y-91203242D01*
X-81635000Y-90516758D01*
X-81768927Y-89843463D01*
X-82031633Y-89209234D01*
X-82413024Y-88638442D01*
X-82898442Y-88153024D01*
X-83469234Y-87771633D01*
X-84103463Y-87508927D01*
X-84776758Y-87375000D01*
X-85463242Y-87375000D01*
X-86136537Y-87508927D01*
X-86770766Y-87771633D01*
X-87341558Y-88153024D01*
X-87760000Y-88571466D01*
X-87760000Y-87172281D01*
X-87755181Y-87123133D01*
X-87750282Y-87106908D01*
X-87742328Y-87091947D01*
X-87731614Y-87078811D01*
X-87718559Y-87068012D01*
X-87703651Y-87059951D01*
X-87687459Y-87054938D01*
X-87640475Y-87050000D01*
X-84887581Y-87050000D01*
X-84859499Y-87047234D01*
X-84854943Y-87047266D01*
X-84845772Y-87046366D01*
X-84700200Y-87031065D01*
X-84641648Y-87019046D01*
X-84582848Y-87007829D01*
X-84574026Y-87005165D01*
X-84434197Y-86961881D01*
X-84379067Y-86938706D01*
X-84323588Y-86916292D01*
X-84315452Y-86911965D01*
X-84186694Y-86842347D01*
X-84137110Y-86808902D01*
X-84087047Y-86776142D01*
X-84079906Y-86770317D01*
X-83967123Y-86677015D01*
X-83924982Y-86634579D01*
X-83882233Y-86592716D01*
X-83876359Y-86585616D01*
X-83783846Y-86472184D01*
X-83750754Y-86422375D01*
X-83716947Y-86373003D01*
X-83712564Y-86364896D01*
X-83643845Y-86235655D01*
X-83621060Y-86180374D01*
X-83597483Y-86125364D01*
X-83594758Y-86116561D01*
X-83552452Y-85976434D01*
X-83540836Y-85917768D01*
X-83528397Y-85859247D01*
X-83527434Y-85850082D01*
X-83513150Y-85704406D01*
X-83513150Y-85704402D01*
X-83510000Y-85672419D01*
X-83510000Y-82107581D01*
X-83512766Y-82079499D01*
X-83512734Y-82074943D01*
X-83513634Y-82065772D01*
X-83528935Y-81920200D01*
X-83540961Y-81861617D01*
X-83552171Y-81802848D01*
X-83554835Y-81794026D01*
X-83598119Y-81654197D01*
X-83621294Y-81599067D01*
X-83643708Y-81543588D01*
X-83648035Y-81535451D01*
X-83717654Y-81406694D01*
X-83751081Y-81357137D01*
X-83783858Y-81307047D01*
X-83789683Y-81299906D01*
X-83882985Y-81187123D01*
X-83925402Y-81145001D01*
X-83967284Y-81102232D01*
X-83974385Y-81096359D01*
X-84087816Y-81003846D01*
X-84137625Y-80970754D01*
X-84186997Y-80936947D01*
X-84195103Y-80932564D01*
X-84324345Y-80863845D01*
X-84379638Y-80841055D01*
X-84434636Y-80817483D01*
X-84443440Y-80814758D01*
X-84583566Y-80772452D01*
X-84642232Y-80760836D01*
X-84700753Y-80748397D01*
X-84709917Y-80747434D01*
X-84855594Y-80733150D01*
X-84855598Y-80733150D01*
X-84887581Y-80730000D01*
X-87637719Y-80730000D01*
X-87686868Y-80725181D01*
X-87703091Y-80720283D01*
X-87718055Y-80712326D01*
X-87731188Y-80701615D01*
X-87741989Y-80688559D01*
X-87750049Y-80673652D01*
X-87755062Y-80657459D01*
X-87760000Y-80610475D01*
X-87760000Y-79754001D01*
X-85974408Y-79754001D01*
X-85963279Y-79834563D01*
X-85870351Y-80028949D01*
X-85741286Y-80201470D01*
X-85581044Y-80345497D01*
X-85395782Y-80455495D01*
X-85192621Y-80527236D01*
X-84979367Y-80557964D01*
X-84807000Y-80393419D01*
X-84807000Y-79587000D01*
X-85847502Y-79587000D01*
X-85974408Y-79754001D01*
X-87760000Y-79754001D01*
X-87760000Y-77985000D01*
X-86018072Y-77985000D01*
X-86018072Y-78435000D01*
X-86001488Y-78603377D01*
X-85952375Y-78765283D01*
X-85877338Y-78905666D01*
X-85963279Y-79085437D01*
X-85974408Y-79165999D01*
X-85847502Y-79333000D01*
X-84807000Y-79333000D01*
X-84807000Y-79313000D01*
X-84553000Y-79313000D01*
X-84553000Y-79333000D01*
X-84533000Y-79333000D01*
X-84533000Y-79587000D01*
X-84553000Y-79587000D01*
X-84553000Y-80393419D01*
X-84380633Y-80557964D01*
X-84167379Y-80527236D01*
X-83964218Y-80455495D01*
X-83778956Y-80345497D01*
X-83618714Y-80201470D01*
X-83563021Y-80127026D01*
X-83510328Y-80155191D01*
X-83472247Y-80175546D01*
X-83328986Y-80219003D01*
X-83217333Y-80230000D01*
X-83217324Y-80230000D01*
X-83180001Y-80233676D01*
X-83142678Y-80230000D01*
X-7287068Y-80230000D01*
X-7225284Y-80305284D01*
X-7094497Y-80412618D01*
X-6945283Y-80492375D01*
X-6783377Y-80541488D01*
X-6615000Y-80558072D01*
X-5665000Y-80558072D01*
X-5496623Y-80541488D01*
X-5334717Y-80492375D01*
X-5185503Y-80412618D01*
X-5054716Y-80305284D01*
X-4947382Y-80174497D01*
X-4867625Y-80025283D01*
X-4818512Y-79863377D01*
X-4801928Y-79695000D01*
X-4801928Y-79245000D01*
X-4818512Y-79076623D01*
X-4867625Y-78914717D01*
X-4942662Y-78774334D01*
X-4856721Y-78594563D01*
X-4845592Y-78514001D01*
X-4972498Y-78347000D01*
X-6013000Y-78347000D01*
X-6013000Y-78367000D01*
X-6267000Y-78367000D01*
X-6267000Y-78347000D01*
X-7307502Y-78347000D01*
X-7434408Y-78514001D01*
X-7423279Y-78594563D01*
X-7368093Y-78710000D01*
X-82865198Y-78710000D01*
X-83341928Y-78233271D01*
X-83341928Y-77985000D01*
X-83347739Y-77925999D01*
X-7434408Y-77925999D01*
X-7307502Y-78093000D01*
X-6267000Y-78093000D01*
X-6267000Y-77286581D01*
X-6013000Y-77286581D01*
X-6013000Y-78093000D01*
X-4972498Y-78093000D01*
X-4845592Y-77925999D01*
X-4856721Y-77845437D01*
X-4949649Y-77651051D01*
X-5078714Y-77478530D01*
X-5238956Y-77334503D01*
X-5424218Y-77224505D01*
X-5627379Y-77152764D01*
X-5840633Y-77122036D01*
X-6013000Y-77286581D01*
X-6267000Y-77286581D01*
X-6439367Y-77122036D01*
X-6652621Y-77152764D01*
X-6855782Y-77224505D01*
X-7041044Y-77334503D01*
X-7201286Y-77478530D01*
X-7330351Y-77651051D01*
X-7423279Y-77845437D01*
X-7434408Y-77925999D01*
X-83347739Y-77925999D01*
X-83358512Y-77816623D01*
X-83407625Y-77654717D01*
X-83487382Y-77505503D01*
X-83594716Y-77374716D01*
X-83725503Y-77267382D01*
X-83874717Y-77187625D01*
X-84036623Y-77138512D01*
X-84205000Y-77121928D01*
X-85155000Y-77121928D01*
X-85323377Y-77138512D01*
X-85485283Y-77187625D01*
X-85634497Y-77267382D01*
X-85765284Y-77374716D01*
X-85872618Y-77505503D01*
X-85952375Y-77654717D01*
X-86001488Y-77816623D01*
X-86018072Y-77985000D01*
X-87760000Y-77985000D01*
X-87760000Y-73040000D01*
X-83430249Y-73040000D01*
X-83409300Y-73252697D01*
X-83347259Y-73457220D01*
X-83326338Y-73496360D01*
X-83379502Y-73595820D01*
X-83415812Y-73715518D01*
X-83428072Y-73840000D01*
X-83428072Y-74740000D01*
X-83415812Y-74864482D01*
X-83379502Y-74984180D01*
X-83320537Y-75094494D01*
X-83241185Y-75191185D01*
X-83144494Y-75270537D01*
X-83034180Y-75329502D01*
X-82914482Y-75365812D01*
X-82790000Y-75378072D01*
X-81390000Y-75378072D01*
X-81265518Y-75365812D01*
X-81145820Y-75329502D01*
X-81035506Y-75270537D01*
X-80938815Y-75191185D01*
X-80859463Y-75094494D01*
X-80800498Y-74984180D01*
X-80764188Y-74864482D01*
X-80751928Y-74740000D01*
X-80751928Y-73840000D01*
X-80764188Y-73715518D01*
X-80800498Y-73595820D01*
X-80853662Y-73496360D01*
X-80832741Y-73457220D01*
X-80770700Y-73252697D01*
X-80749751Y-73040000D01*
X-80770700Y-72827303D01*
X-80832741Y-72622780D01*
X-80933491Y-72434290D01*
X-81046765Y-72296266D01*
X-80264997Y-71514499D01*
X-80235999Y-71490701D01*
X-80141026Y-71374976D01*
X-80070454Y-71242947D01*
X-80026997Y-71099686D01*
X-80016000Y-70988033D01*
X-80012323Y-70950700D01*
X-80016000Y-70913367D01*
X-80016000Y-68160000D01*
X-11171500Y-68160000D01*
X-11171499Y-69875868D01*
X-11175176Y-69913200D01*
X-11160502Y-70062185D01*
X-11117046Y-70205446D01*
X-11046474Y-70337476D01*
X-10975299Y-70424202D01*
X-10951500Y-70453201D01*
X-10922502Y-70476999D01*
X-9233498Y-72166004D01*
X-9290537Y-72235506D01*
X-9349502Y-72345820D01*
X-9385812Y-72465518D01*
X-9398072Y-72590000D01*
X-9398072Y-73490000D01*
X-9385812Y-73614482D01*
X-9349502Y-73734180D01*
X-9296338Y-73833640D01*
X-9317259Y-73872780D01*
X-9379300Y-74077303D01*
X-9400249Y-74290000D01*
X-9379300Y-74502697D01*
X-9317259Y-74707220D01*
X-9216509Y-74895710D01*
X-9080922Y-75060922D01*
X-8915710Y-75196509D01*
X-8727220Y-75297259D01*
X-8522697Y-75359300D01*
X-8363294Y-75375000D01*
X-7756706Y-75375000D01*
X-7597303Y-75359300D01*
X-7392780Y-75297259D01*
X-7204290Y-75196509D01*
X-7086694Y-75100000D01*
X-7049788Y-75100000D01*
X-7010000Y-75103919D01*
X-6970212Y-75100000D01*
X-6970209Y-75100000D01*
X-6851212Y-75088280D01*
X-6698527Y-75041963D01*
X-6557811Y-74966749D01*
X-6434472Y-74865528D01*
X-6409100Y-74834612D01*
X-6309828Y-74735340D01*
X-6278912Y-74709968D01*
X-6177691Y-74586629D01*
X-6102477Y-74445913D01*
X-6056160Y-74293228D01*
X-6044440Y-74174231D01*
X-6044440Y-74174229D01*
X-6040521Y-74134441D01*
X-6044440Y-74094653D01*
X-6044440Y-72460346D01*
X-6040521Y-72420558D01*
X-6047882Y-72345820D01*
X-6056160Y-72261770D01*
X-6100466Y-72115713D01*
X-6102477Y-72109084D01*
X-6177691Y-71968369D01*
X-6253547Y-71875938D01*
X-6278912Y-71845030D01*
X-6309821Y-71819664D01*
X-8530000Y-69599486D01*
X-8530000Y-69580942D01*
X-8484290Y-69556509D01*
X-8319078Y-69420922D01*
X-8183491Y-69255710D01*
X-8082741Y-69067220D01*
X-8020700Y-68862697D01*
X-8011092Y-68765149D01*
X-7720372Y-68474429D01*
X-7689462Y-68449062D01*
X-7588241Y-68325723D01*
X-7513027Y-68185007D01*
X-7466710Y-68032322D01*
X-7454990Y-67913325D01*
X-7454990Y-67913322D01*
X-7451071Y-67873534D01*
X-7454990Y-67833746D01*
X-7454990Y-66966253D01*
X-7451071Y-66926465D01*
X-7455427Y-66882240D01*
X-7466710Y-66767678D01*
X-7513027Y-66614993D01*
X-7588241Y-66474277D01*
X-7689462Y-66350938D01*
X-7720376Y-66325568D01*
X-8015566Y-66030378D01*
X-8040938Y-65999462D01*
X-8164277Y-65898241D01*
X-8304993Y-65823027D01*
X-8457678Y-65776710D01*
X-8576675Y-65764990D01*
X-8576678Y-65764990D01*
X-8616466Y-65761071D01*
X-8656254Y-65764990D01*
X-13446357Y-65764990D01*
X-17184347Y-62027000D01*
X-4148249Y-62027000D01*
X-4127300Y-62239697D01*
X-4065259Y-62444220D01*
X-3964509Y-62632710D01*
X-3828922Y-62797922D01*
X-3663710Y-62933509D01*
X-3475220Y-63034259D01*
X-3270697Y-63096300D01*
X-3111294Y-63112000D01*
X-2504706Y-63112000D01*
X-2345303Y-63096300D01*
X-2140780Y-63034259D01*
X-1952290Y-62933509D01*
X-1787078Y-62797922D01*
X-1651491Y-62632710D01*
X-1550741Y-62444220D01*
X-1488700Y-62239697D01*
X-1467751Y-62027000D01*
X-1488700Y-61814303D01*
X-1550741Y-61609780D01*
X-1571662Y-61570640D01*
X-1518498Y-61471180D01*
X-1482188Y-61351482D01*
X-1469928Y-61227000D01*
X-1469928Y-60327000D01*
X-1482188Y-60202518D01*
X-1518498Y-60082820D01*
X-1577463Y-59972506D01*
X-1656815Y-59875815D01*
X-1753506Y-59796463D01*
X-1863820Y-59737498D01*
X-1983518Y-59701188D01*
X-2108000Y-59688928D01*
X-3508000Y-59688928D01*
X-3632482Y-59701188D01*
X-3752180Y-59737498D01*
X-3862494Y-59796463D01*
X-3959185Y-59875815D01*
X-4038537Y-59972506D01*
X-4097502Y-60082820D01*
X-4133812Y-60202518D01*
X-4146072Y-60327000D01*
X-4146072Y-61227000D01*
X-4133812Y-61351482D01*
X-4097502Y-61471180D01*
X-4044338Y-61570640D01*
X-4065259Y-61609780D01*
X-4127300Y-61814303D01*
X-4148249Y-62027000D01*
X-17184347Y-62027000D01*
X-29456269Y-49755079D01*
X-29493914Y-49565822D01*
X-29571935Y-49377464D01*
X-29685203Y-49207946D01*
X-29829366Y-49063783D01*
X-29998884Y-48950515D01*
X-30187242Y-48872494D01*
X-30387201Y-48832720D01*
X-30556600Y-48832720D01*
X-30556600Y-44564800D01*
X-30453961Y-44564800D01*
X-30254002Y-44525026D01*
X-30065644Y-44447005D01*
X-29896126Y-44333737D01*
X-29852189Y-44289800D01*
X-22607122Y-44289800D01*
X-22569800Y-44293476D01*
X-22532478Y-44289800D01*
X-22532467Y-44289800D01*
X-22420814Y-44278803D01*
X-22277553Y-44235346D01*
X-22145524Y-44164774D01*
X-22029799Y-44069801D01*
X-22005996Y-44040797D01*
X-15637999Y-37672800D01*
X-4336249Y-37672800D01*
X-4315300Y-37885497D01*
X-4253259Y-38090020D01*
X-4152509Y-38278510D01*
X-4016922Y-38443722D01*
X-3851710Y-38579309D01*
X-3663220Y-38680059D01*
X-3458697Y-38742100D01*
X-3299294Y-38757800D01*
X-2692706Y-38757800D01*
X-2533303Y-38742100D01*
X-2328780Y-38680059D01*
X-2140290Y-38579309D01*
X-1975078Y-38443722D01*
X-1839491Y-38278510D01*
X-1738741Y-38090020D01*
X-1676700Y-37885497D01*
X-1655751Y-37672800D01*
X-1676700Y-37460103D01*
X-1738741Y-37255580D01*
X-1805761Y-37130195D01*
X-1803382Y-37127297D01*
X-1723625Y-36978083D01*
X-1674512Y-36816177D01*
X-1657928Y-36647800D01*
X-1657928Y-36197800D01*
X-1674512Y-36029423D01*
X-1723625Y-35867517D01*
X-1803382Y-35718303D01*
X-1910716Y-35587516D01*
X-2041503Y-35480182D01*
X-2190717Y-35400425D01*
X-2352623Y-35351312D01*
X-2521000Y-35334728D01*
X-3471000Y-35334728D01*
X-3639377Y-35351312D01*
X-3801283Y-35400425D01*
X-3950497Y-35480182D01*
X-4081284Y-35587516D01*
X-4188618Y-35718303D01*
X-4268375Y-35867517D01*
X-4317488Y-36029423D01*
X-4334072Y-36197800D01*
X-4334072Y-36647800D01*
X-4317488Y-36816177D01*
X-4268375Y-36978083D01*
X-4188618Y-37127297D01*
X-4186239Y-37130195D01*
X-4253259Y-37255580D01*
X-4315300Y-37460103D01*
X-4336249Y-37672800D01*
X-15637999Y-37672800D01*
X-3773690Y-25808493D01*
X-3744699Y-25784701D01*
X-3720905Y-25755708D01*
X-3720901Y-25755704D01*
X-3649727Y-25668977D01*
X-3649726Y-25668976D01*
X-3579154Y-25536947D01*
X-3535697Y-25393686D01*
X-3524700Y-25282033D01*
X-3524700Y-25282024D01*
X-3521024Y-25244701D01*
X-3524700Y-25207378D01*
X-3524700Y-21207333D01*
X-3521023Y-21170000D01*
X-3535697Y-21021014D01*
X-3579154Y-20877753D01*
X-3649726Y-20745724D01*
X-3744699Y-20629999D01*
X-3860424Y-20535026D01*
X-3992453Y-20464454D01*
X-4030811Y-20452819D01*
X-3988512Y-20313377D01*
X-3971928Y-20145000D01*
X-3971928Y-19695000D01*
X-3988512Y-19526623D01*
X-4037625Y-19364717D01*
X-4117382Y-19215503D01*
X-4224716Y-19084716D01*
X-4355503Y-18977382D01*
X-4504717Y-18897625D01*
X-4666623Y-18848512D01*
X-4835000Y-18831928D01*
X-5785000Y-18831928D01*
X-5953377Y-18848512D01*
X-6115283Y-18897625D01*
X-6264497Y-18977382D01*
X-6395284Y-19084716D01*
X-6502618Y-19215503D01*
X-6582375Y-19364717D01*
X-6631488Y-19526623D01*
X-6648072Y-19695000D01*
X-6648072Y-20145000D01*
X-6631488Y-20313377D01*
X-6582375Y-20475283D01*
X-6502618Y-20624497D01*
X-6500239Y-20627395D01*
X-6567259Y-20752780D01*
X-6629300Y-20957303D01*
X-6650249Y-21170000D01*
X-6629300Y-21382697D01*
X-6567259Y-21587220D01*
X-6466509Y-21775710D01*
X-6450678Y-21795000D01*
X-6466509Y-21814290D01*
X-6567259Y-22002780D01*
X-6629300Y-22207303D01*
X-6650249Y-22420000D01*
X-6629300Y-22632697D01*
X-6598267Y-22735000D01*
X-18375065Y-22735000D01*
X-18421000Y-22730476D01*
X-18604292Y-22748528D01*
X-18708172Y-22780041D01*
X-18780540Y-22801993D01*
X-18942972Y-22888814D01*
X-19085344Y-23005656D01*
X-19114630Y-23041341D01*
X-31878889Y-35805600D01*
X-75254105Y-35805600D01*
X-75399502Y-35745374D01*
X-75599461Y-35705600D01*
X-75803339Y-35705600D01*
X-76003298Y-35745374D01*
X-76191656Y-35823395D01*
X-76361174Y-35936663D01*
X-76505337Y-36080826D01*
X-76618605Y-36250344D01*
X-76696626Y-36438702D01*
X-76736400Y-36638661D01*
X-76736400Y-36842539D01*
X-76696626Y-37042498D01*
X-76618605Y-37230856D01*
X-76505337Y-37400374D01*
X-76361174Y-37544537D01*
X-76191656Y-37657805D01*
X-76003298Y-37735826D01*
X-75803339Y-37775600D01*
X-75599461Y-37775600D01*
X-75399502Y-37735826D01*
X-75254105Y-37675600D01*
X-32426599Y-37675600D01*
X-32426600Y-54704268D01*
X-32431124Y-54750200D01*
X-32426600Y-54796131D01*
X-32413071Y-54933491D01*
X-32359607Y-55109739D01*
X-32272786Y-55272171D01*
X-32155944Y-55414544D01*
X-32120259Y-55443830D01*
X-27852531Y-59711558D01*
X-27792305Y-59856956D01*
X-27679037Y-60026474D01*
X-27534874Y-60170637D01*
X-27365356Y-60283905D01*
X-27176998Y-60361926D01*
X-26977039Y-60401700D01*
X-26773161Y-60401700D01*
X-26573202Y-60361926D01*
X-26384844Y-60283905D01*
X-26215326Y-60170637D01*
X-26071163Y-60026474D01*
X-25957895Y-59856956D01*
X-25879874Y-59668598D01*
X-25840100Y-59468639D01*
X-25840100Y-59264761D01*
X-25879874Y-59064802D01*
X-25957895Y-58876444D01*
X-26071163Y-58706926D01*
X-26215326Y-58562763D01*
X-26384844Y-58449495D01*
X-26530242Y-58389269D01*
X-30556600Y-54362911D01*
X-30556600Y-50945772D01*
X-14862373Y-66640000D01*
X-80034700Y-66640000D01*
X-80034700Y-66567333D01*
X-80031023Y-66530000D01*
X-80042273Y-66415773D01*
X-80045697Y-66381014D01*
X-80089154Y-66237753D01*
X-80159726Y-66105724D01*
X-80254699Y-65989999D01*
X-80268920Y-65978328D01*
X-80370424Y-65895026D01*
X-80502453Y-65824454D01*
X-80645714Y-65780997D01*
X-80757367Y-65770000D01*
X-80792994Y-65766491D01*
X-80799078Y-65759078D01*
X-80964290Y-65623491D01*
X-81152780Y-65522741D01*
X-81357303Y-65460700D01*
X-81516706Y-65445000D01*
X-82123294Y-65445000D01*
X-82282697Y-65460700D01*
X-82487220Y-65522741D01*
X-82675710Y-65623491D01*
X-82840922Y-65759078D01*
X-82976509Y-65924290D01*
X-83077259Y-66112780D01*
X-83139300Y-66317303D01*
X-83160249Y-66530000D01*
X-83139300Y-66742697D01*
X-83077259Y-66947220D01*
X-83056338Y-66986360D01*
X-83109502Y-67085820D01*
X-83145812Y-67205518D01*
X-83158072Y-67330000D01*
X-83158072Y-68230000D01*
X-83145812Y-68354482D01*
X-83109502Y-68474180D01*
X-83050537Y-68584494D01*
X-82971185Y-68681185D01*
X-82874494Y-68760537D01*
X-82764180Y-68819502D01*
X-82644482Y-68855812D01*
X-82520000Y-68868072D01*
X-81536000Y-68868072D01*
X-81535999Y-70635897D01*
X-82601002Y-71700901D01*
X-82630000Y-71724699D01*
X-82653798Y-71753697D01*
X-82653799Y-71753698D01*
X-82724974Y-71840424D01*
X-82795546Y-71972454D01*
X-82810683Y-72022356D01*
X-82824789Y-72068857D01*
X-82945710Y-72133491D01*
X-83110922Y-72269078D01*
X-83246509Y-72434290D01*
X-83347259Y-72622780D01*
X-83409300Y-72827303D01*
X-83430249Y-73040000D01*
X-87760000Y-73040000D01*
X-87760000Y-66607581D01*
X-87762766Y-66579499D01*
X-87762734Y-66574943D01*
X-87763634Y-66565772D01*
X-87778935Y-66420200D01*
X-87790961Y-66361617D01*
X-87802171Y-66302848D01*
X-87804835Y-66294026D01*
X-87848119Y-66154197D01*
X-87871294Y-66099067D01*
X-87893708Y-66043588D01*
X-87898035Y-66035451D01*
X-87967654Y-65906694D01*
X-88001081Y-65857137D01*
X-88033858Y-65807047D01*
X-88039683Y-65799906D01*
X-88132985Y-65687123D01*
X-88175402Y-65645001D01*
X-88217284Y-65602232D01*
X-88224385Y-65596359D01*
X-88337816Y-65503846D01*
X-88387625Y-65470754D01*
X-88436997Y-65436947D01*
X-88445103Y-65432564D01*
X-88574345Y-65363845D01*
X-88629638Y-65341055D01*
X-88684636Y-65317483D01*
X-88693440Y-65314758D01*
X-88833566Y-65272452D01*
X-88892232Y-65260836D01*
X-88950753Y-65248397D01*
X-88959917Y-65247434D01*
X-89105594Y-65233150D01*
X-89105598Y-65233150D01*
X-89137581Y-65230000D01*
X-89387719Y-65230000D01*
X-89436868Y-65225181D01*
X-89453091Y-65220283D01*
X-89468055Y-65212326D01*
X-89481188Y-65201615D01*
X-89491989Y-65188559D01*
X-89500049Y-65173652D01*
X-89505062Y-65157459D01*
X-89510000Y-65110475D01*
X-89510000Y-34784900D01*
X-88379949Y-34784900D01*
X-88359000Y-34997597D01*
X-88296959Y-35202120D01*
X-88229939Y-35327505D01*
X-88232318Y-35330403D01*
X-88312075Y-35479617D01*
X-88361188Y-35641523D01*
X-88377772Y-35809900D01*
X-88377772Y-36259900D01*
X-88361188Y-36428277D01*
X-88312075Y-36590183D01*
X-88232318Y-36739397D01*
X-88124984Y-36870184D01*
X-87994197Y-36977518D01*
X-87844983Y-37057275D01*
X-87683077Y-37106388D01*
X-87514700Y-37122972D01*
X-86564700Y-37122972D01*
X-86396323Y-37106388D01*
X-86234417Y-37057275D01*
X-86085203Y-36977518D01*
X-85954416Y-36870184D01*
X-85847082Y-36739397D01*
X-85767325Y-36590183D01*
X-85718212Y-36428277D01*
X-85701628Y-36259900D01*
X-85701628Y-35809900D01*
X-85718212Y-35641523D01*
X-85767325Y-35479617D01*
X-85847082Y-35330403D01*
X-85849461Y-35327505D01*
X-85782441Y-35202120D01*
X-85720400Y-34997597D01*
X-85699451Y-34784900D01*
X-85720400Y-34572203D01*
X-85782441Y-34367680D01*
X-85883191Y-34179190D01*
X-86018778Y-34013978D01*
X-86183990Y-33878391D01*
X-86372480Y-33777641D01*
X-86577003Y-33715600D01*
X-86736406Y-33699900D01*
X-87342994Y-33699900D01*
X-87502397Y-33715600D01*
X-87706920Y-33777641D01*
X-87895410Y-33878391D01*
X-88060622Y-34013978D01*
X-88196209Y-34179190D01*
X-88296959Y-34367680D01*
X-88359000Y-34572203D01*
X-88379949Y-34784900D01*
X-89510000Y-34784900D01*
X-89510000Y-30782281D01*
X-89505181Y-30733133D01*
X-89500282Y-30716908D01*
X-89492328Y-30701947D01*
X-89481614Y-30688811D01*
X-89468559Y-30678012D01*
X-89453651Y-30669951D01*
X-89437459Y-30664938D01*
X-89390475Y-30660000D01*
X-88687581Y-30660000D01*
X-88659499Y-30657234D01*
X-88654943Y-30657266D01*
X-88645772Y-30656366D01*
X-88500200Y-30641065D01*
X-88441648Y-30629046D01*
X-88382848Y-30617829D01*
X-88374026Y-30615165D01*
X-88234197Y-30571881D01*
X-88179067Y-30548706D01*
X-88123588Y-30526292D01*
X-88115452Y-30521965D01*
X-87986694Y-30452347D01*
X-87937110Y-30418902D01*
X-87887047Y-30386142D01*
X-87879906Y-30380317D01*
X-87767123Y-30287015D01*
X-87724982Y-30244579D01*
X-87682233Y-30202716D01*
X-87676359Y-30195616D01*
X-87583846Y-30082184D01*
X-87550754Y-30032375D01*
X-87516947Y-29983003D01*
X-87512564Y-29974896D01*
X-87443845Y-29845655D01*
X-87421060Y-29790374D01*
X-87397483Y-29735364D01*
X-87394758Y-29726561D01*
X-87352452Y-29586434D01*
X-87340836Y-29527768D01*
X-87328397Y-29469247D01*
X-87327434Y-29460082D01*
X-87313150Y-29314406D01*
X-87313150Y-29314402D01*
X-87310000Y-29282419D01*
X-87310000Y-25356123D01*
X-86834666Y-25356123D01*
X-86824994Y-25432972D01*
X-86735255Y-25618160D01*
X-86611112Y-25782283D01*
X-86457336Y-25919033D01*
X-86279836Y-26023155D01*
X-86085433Y-26090648D01*
X-85881599Y-26118918D01*
X-85717000Y-25953762D01*
X-85717000Y-25197000D01*
X-85463000Y-25197000D01*
X-85463000Y-25953762D01*
X-85298401Y-26118918D01*
X-85094567Y-26090648D01*
X-84900164Y-26023155D01*
X-84722664Y-25919033D01*
X-84568888Y-25782283D01*
X-84444745Y-25618160D01*
X-84355006Y-25432972D01*
X-84345334Y-25356123D01*
X-84473002Y-25197000D01*
X-85463000Y-25197000D01*
X-85717000Y-25197000D01*
X-86706998Y-25197000D01*
X-86834666Y-25356123D01*
X-87310000Y-25356123D01*
X-87310000Y-24106123D01*
X-86834666Y-24106123D01*
X-86824994Y-24182972D01*
X-86735255Y-24368160D01*
X-86677133Y-24445000D01*
X-86735255Y-24521840D01*
X-86824994Y-24707028D01*
X-86834666Y-24783877D01*
X-86706998Y-24943000D01*
X-85717000Y-24943000D01*
X-85717000Y-23947000D01*
X-85463000Y-23947000D01*
X-85463000Y-24943000D01*
X-84473002Y-24943000D01*
X-84345334Y-24783877D01*
X-84355006Y-24707028D01*
X-84444745Y-24521840D01*
X-84502867Y-24445000D01*
X-84444745Y-24368160D01*
X-84355006Y-24182972D01*
X-84345334Y-24106123D01*
X-84473002Y-23947000D01*
X-85463000Y-23947000D01*
X-85717000Y-23947000D01*
X-86706998Y-23947000D01*
X-86834666Y-24106123D01*
X-87310000Y-24106123D01*
X-87310000Y-22856123D01*
X-86834666Y-22856123D01*
X-86824994Y-22932972D01*
X-86735255Y-23118160D01*
X-86677133Y-23195000D01*
X-86735255Y-23271840D01*
X-86824994Y-23457028D01*
X-86834666Y-23533877D01*
X-86706998Y-23693000D01*
X-85717000Y-23693000D01*
X-85717000Y-22697000D01*
X-85463000Y-22697000D01*
X-85463000Y-23693000D01*
X-84473002Y-23693000D01*
X-84345334Y-23533877D01*
X-84355006Y-23457028D01*
X-84444745Y-23271840D01*
X-84502867Y-23195000D01*
X-84444745Y-23118160D01*
X-84355006Y-22932972D01*
X-84345334Y-22856123D01*
X-84473002Y-22697000D01*
X-85463000Y-22697000D01*
X-85717000Y-22697000D01*
X-86706998Y-22697000D01*
X-86834666Y-22856123D01*
X-87310000Y-22856123D01*
X-87310000Y-18820000D01*
X-86880007Y-18820000D01*
X-86860024Y-19022895D01*
X-86800841Y-19217993D01*
X-86704734Y-19397797D01*
X-86665996Y-19445000D01*
X-86704734Y-19492203D01*
X-86800841Y-19672007D01*
X-86860024Y-19867105D01*
X-86880007Y-20070000D01*
X-86860024Y-20272895D01*
X-86800841Y-20467993D01*
X-86704734Y-20647797D01*
X-86665996Y-20695000D01*
X-86704734Y-20742203D01*
X-86800841Y-20922007D01*
X-86860024Y-21117105D01*
X-86880007Y-21320000D01*
X-86860024Y-21522895D01*
X-86800841Y-21717993D01*
X-86704734Y-21897797D01*
X-86671791Y-21937938D01*
X-86735255Y-22021840D01*
X-86824994Y-22207028D01*
X-86834666Y-22283877D01*
X-86706998Y-22443000D01*
X-85717000Y-22443000D01*
X-85717000Y-22423000D01*
X-85463000Y-22423000D01*
X-85463000Y-22443000D01*
X-84473002Y-22443000D01*
X-84345334Y-22283877D01*
X-84355006Y-22207028D01*
X-84444745Y-22021840D01*
X-84508209Y-21937938D01*
X-84475266Y-21897797D01*
X-84379159Y-21717993D01*
X-84319976Y-21522895D01*
X-84299993Y-21320000D01*
X-84319976Y-21117105D01*
X-84379159Y-20922007D01*
X-84475266Y-20742203D01*
X-84514004Y-20695000D01*
X-84475266Y-20647797D01*
X-84379159Y-20467993D01*
X-84319976Y-20272895D01*
X-84299993Y-20070000D01*
X-84319976Y-19867105D01*
X-84379159Y-19672007D01*
X-84475266Y-19492203D01*
X-84514004Y-19445000D01*
X-84475266Y-19397797D01*
X-84379159Y-19217993D01*
X-84319976Y-19022895D01*
X-84299993Y-18820000D01*
X-84319976Y-18617105D01*
X-84379159Y-18422007D01*
X-84464741Y-18261894D01*
X-84443169Y-18235608D01*
X-84365722Y-18090716D01*
X-84318031Y-17933500D01*
X-84301928Y-17770000D01*
X-84301928Y-17370000D01*
X-84318031Y-17206500D01*
X-84365722Y-17049284D01*
X-84443169Y-16904392D01*
X-84547394Y-16777394D01*
X-84674392Y-16673169D01*
X-84819284Y-16595722D01*
X-84976500Y-16548031D01*
X-85140000Y-16531928D01*
X-86040000Y-16531928D01*
X-86203500Y-16548031D01*
X-86360716Y-16595722D01*
X-86505608Y-16673169D01*
X-86632606Y-16777394D01*
X-86736831Y-16904392D01*
X-86814278Y-17049284D01*
X-86861969Y-17206500D01*
X-86878072Y-17370000D01*
X-86878072Y-17770000D01*
X-86861969Y-17933500D01*
X-86814278Y-18090716D01*
X-86736831Y-18235608D01*
X-86715259Y-18261894D01*
X-86800841Y-18422007D01*
X-86860024Y-18617105D01*
X-86880007Y-18820000D01*
X-87310000Y-18820000D01*
X-87310000Y-15282281D01*
X-87305181Y-15233133D01*
X-87300282Y-15216908D01*
X-87292328Y-15201947D01*
X-87281614Y-15188811D01*
X-87268559Y-15178012D01*
X-87253651Y-15169951D01*
X-87237459Y-15164938D01*
X-87190475Y-15160000D01*
X-84887581Y-15160000D01*
X-84859499Y-15157234D01*
X-84854943Y-15157266D01*
X-84845772Y-15156366D01*
X-84700200Y-15141065D01*
X-84641648Y-15129046D01*
X-84582848Y-15117829D01*
X-84574026Y-15115165D01*
X-84434197Y-15071881D01*
X-84379067Y-15048706D01*
X-84323588Y-15026292D01*
X-84315452Y-15021965D01*
X-84186694Y-14952347D01*
X-84137110Y-14918902D01*
X-84087047Y-14886142D01*
X-84079906Y-14880317D01*
X-83967123Y-14787015D01*
X-83924982Y-14744579D01*
X-83882233Y-14702716D01*
X-83876359Y-14695616D01*
X-83783846Y-14582184D01*
X-83750754Y-14532375D01*
X-83716947Y-14483003D01*
X-83712564Y-14474896D01*
X-83643845Y-14345655D01*
X-83621060Y-14290374D01*
X-83597483Y-14235364D01*
X-83594758Y-14226561D01*
X-83552452Y-14086434D01*
X-83540836Y-14027768D01*
X-83528397Y-13969247D01*
X-83527434Y-13960082D01*
X-83513150Y-13814406D01*
X-83513150Y-13814402D01*
X-83510000Y-13782419D01*
X-83510000Y-10217581D01*
X-83512766Y-10189499D01*
X-83512734Y-10184943D01*
X-83513634Y-10175772D01*
X-83528935Y-10030200D01*
X-83540961Y-9971617D01*
X-83552171Y-9912848D01*
X-83554835Y-9904026D01*
X-83598119Y-9764197D01*
X-83621294Y-9709067D01*
X-83643708Y-9653588D01*
X-83648035Y-9645451D01*
X-83717654Y-9516694D01*
X-83751081Y-9467137D01*
X-83783858Y-9417047D01*
X-83789683Y-9409906D01*
X-83882985Y-9297123D01*
X-83925402Y-9255001D01*
X-83967284Y-9212232D01*
X-83974385Y-9206359D01*
X-84087816Y-9113846D01*
X-84137625Y-9080754D01*
X-84186997Y-9046947D01*
X-84195103Y-9042564D01*
X-84324345Y-8973845D01*
X-84379638Y-8951055D01*
X-84434636Y-8927483D01*
X-84443440Y-8924758D01*
X-84583566Y-8882452D01*
X-84642232Y-8870836D01*
X-84700753Y-8858397D01*
X-84709917Y-8857434D01*
X-84855594Y-8843150D01*
X-84855598Y-8843150D01*
X-84887581Y-8840000D01*
X-87187719Y-8840000D01*
X-87236868Y-8835181D01*
X-87253091Y-8830283D01*
X-87268055Y-8822326D01*
X-87281188Y-8811615D01*
X-87291989Y-8798559D01*
X-87300049Y-8783652D01*
X-87305062Y-8767459D01*
X-87310000Y-8720475D01*
X-87310000Y-4726758D01*
X-84755000Y-4726758D01*
X-84755000Y-5413242D01*
X-84621073Y-6086537D01*
X-84358367Y-6720766D01*
X-83976976Y-7291558D01*
X-83491558Y-7776976D01*
X-82920766Y-8158367D01*
X-82286537Y-8421073D01*
X-81613242Y-8555000D01*
X-80926758Y-8555000D01*
X-80253463Y-8421073D01*
X-79619234Y-8158367D01*
X-79048442Y-7776976D01*
X-78563024Y-7291558D01*
X-78181633Y-6720766D01*
X-77918927Y-6086537D01*
X-77785000Y-5413242D01*
X-77785000Y-4726758D01*
X-77918927Y-4053463D01*
X-77957640Y-3960000D01*
X-77608072Y-3960000D01*
X-77608072Y-5660000D01*
X-77595812Y-5784482D01*
X-77559502Y-5904180D01*
X-77500537Y-6014494D01*
X-77421185Y-6111185D01*
X-77324494Y-6190537D01*
X-77214180Y-6249502D01*
X-77141620Y-6271513D01*
X-77273475Y-6403368D01*
X-77435990Y-6646589D01*
X-77547932Y-6916842D01*
X-77605000Y-7203740D01*
X-77605000Y-7496260D01*
X-77547932Y-7783158D01*
X-77435990Y-8053411D01*
X-77273475Y-8296632D01*
X-77066632Y-8503475D01*
X-76934253Y-8591928D01*
X-76970000Y-8591928D01*
X-77094482Y-8604188D01*
X-77214180Y-8640498D01*
X-77324494Y-8699463D01*
X-77421185Y-8778815D01*
X-77500537Y-8875506D01*
X-77559502Y-8985820D01*
X-77595812Y-9105518D01*
X-77608072Y-9230000D01*
X-77608072Y-10930000D01*
X-77595812Y-11054482D01*
X-77559502Y-11174180D01*
X-77500537Y-11284494D01*
X-77421185Y-11381185D01*
X-77324494Y-11460537D01*
X-77214180Y-11519502D01*
X-77141620Y-11541513D01*
X-77273475Y-11673368D01*
X-77435990Y-11916589D01*
X-77547932Y-12186842D01*
X-77605000Y-12473740D01*
X-77605000Y-12766260D01*
X-77547932Y-13053158D01*
X-77435990Y-13323411D01*
X-77273475Y-13566632D01*
X-77066632Y-13773475D01*
X-76823411Y-13935990D01*
X-76553158Y-14047932D01*
X-76266260Y-14105000D01*
X-75973740Y-14105000D01*
X-75686842Y-14047932D01*
X-75416589Y-13935990D01*
X-75173368Y-13773475D01*
X-74966525Y-13566632D01*
X-74850000Y-13392240D01*
X-74733475Y-13566632D01*
X-74526632Y-13773475D01*
X-74283411Y-13935990D01*
X-74013158Y-14047932D01*
X-73726260Y-14105000D01*
X-73433740Y-14105000D01*
X-73146842Y-14047932D01*
X-72876589Y-13935990D01*
X-72633368Y-13773475D01*
X-72426525Y-13566632D01*
X-72310000Y-13392240D01*
X-72193475Y-13566632D01*
X-71986632Y-13773475D01*
X-71743411Y-13935990D01*
X-71473158Y-14047932D01*
X-71186260Y-14105000D01*
X-70893740Y-14105000D01*
X-70606842Y-14047932D01*
X-70336589Y-13935990D01*
X-70093368Y-13773475D01*
X-69886525Y-13566632D01*
X-69770000Y-13392240D01*
X-69653475Y-13566632D01*
X-69446632Y-13773475D01*
X-69203411Y-13935990D01*
X-68933158Y-14047932D01*
X-68646260Y-14105000D01*
X-68353740Y-14105000D01*
X-68066842Y-14047932D01*
X-67796589Y-13935990D01*
X-67553368Y-13773475D01*
X-67346525Y-13566632D01*
X-67230000Y-13392240D01*
X-67113475Y-13566632D01*
X-66906632Y-13773475D01*
X-66663411Y-13935990D01*
X-66393158Y-14047932D01*
X-66106260Y-14105000D01*
X-65813740Y-14105000D01*
X-65526842Y-14047932D01*
X-65256589Y-13935990D01*
X-65013368Y-13773475D01*
X-64806525Y-13566632D01*
X-64690000Y-13392240D01*
X-64573475Y-13566632D01*
X-64366632Y-13773475D01*
X-64123411Y-13935990D01*
X-63853158Y-14047932D01*
X-63566260Y-14105000D01*
X-63273740Y-14105000D01*
X-62986842Y-14047932D01*
X-62716589Y-13935990D01*
X-62473368Y-13773475D01*
X-62266525Y-13566632D01*
X-62150000Y-13392240D01*
X-62033475Y-13566632D01*
X-61826632Y-13773475D01*
X-61583411Y-13935990D01*
X-61313158Y-14047932D01*
X-61026260Y-14105000D01*
X-60733740Y-14105000D01*
X-60446842Y-14047932D01*
X-60176589Y-13935990D01*
X-59933368Y-13773475D01*
X-59726525Y-13566632D01*
X-59610000Y-13392240D01*
X-59493475Y-13566632D01*
X-59286632Y-13773475D01*
X-59043411Y-13935990D01*
X-58773158Y-14047932D01*
X-58486260Y-14105000D01*
X-58193740Y-14105000D01*
X-57906842Y-14047932D01*
X-57636589Y-13935990D01*
X-57393368Y-13773475D01*
X-57186525Y-13566632D01*
X-57070000Y-13392240D01*
X-56953475Y-13566632D01*
X-56746632Y-13773475D01*
X-56503411Y-13935990D01*
X-56233158Y-14047932D01*
X-55946260Y-14105000D01*
X-55653740Y-14105000D01*
X-55366842Y-14047932D01*
X-55096589Y-13935990D01*
X-54853368Y-13773475D01*
X-54646525Y-13566632D01*
X-54530000Y-13392240D01*
X-54413475Y-13566632D01*
X-54206632Y-13773475D01*
X-53963411Y-13935990D01*
X-53693158Y-14047932D01*
X-53406260Y-14105000D01*
X-53113740Y-14105000D01*
X-52826842Y-14047932D01*
X-52556589Y-13935990D01*
X-52313368Y-13773475D01*
X-52106525Y-13566632D01*
X-51990000Y-13392240D01*
X-51873475Y-13566632D01*
X-51666632Y-13773475D01*
X-51423411Y-13935990D01*
X-51153158Y-14047932D01*
X-50866260Y-14105000D01*
X-50573740Y-14105000D01*
X-50286842Y-14047932D01*
X-50016589Y-13935990D01*
X-49773368Y-13773475D01*
X-49566525Y-13566632D01*
X-49450000Y-13392240D01*
X-49333475Y-13566632D01*
X-49126632Y-13773475D01*
X-48883411Y-13935990D01*
X-48613158Y-14047932D01*
X-48326260Y-14105000D01*
X-48033740Y-14105000D01*
X-47746842Y-14047932D01*
X-47476589Y-13935990D01*
X-47233368Y-13773475D01*
X-47026525Y-13566632D01*
X-46910000Y-13392240D01*
X-46793475Y-13566632D01*
X-46586632Y-13773475D01*
X-46343411Y-13935990D01*
X-46073158Y-14047932D01*
X-45786260Y-14105000D01*
X-45493740Y-14105000D01*
X-45206842Y-14047932D01*
X-44936589Y-13935990D01*
X-44693368Y-13773475D01*
X-44486525Y-13566632D01*
X-44370000Y-13392240D01*
X-44253475Y-13566632D01*
X-44046632Y-13773475D01*
X-43803411Y-13935990D01*
X-43533158Y-14047932D01*
X-43246260Y-14105000D01*
X-42953740Y-14105000D01*
X-42666842Y-14047932D01*
X-42396589Y-13935990D01*
X-42153368Y-13773475D01*
X-41946525Y-13566632D01*
X-41830000Y-13392240D01*
X-41713475Y-13566632D01*
X-41506632Y-13773475D01*
X-41263411Y-13935990D01*
X-40993158Y-14047932D01*
X-40706260Y-14105000D01*
X-40413740Y-14105000D01*
X-40126842Y-14047932D01*
X-39856589Y-13935990D01*
X-39613368Y-13773475D01*
X-39406525Y-13566632D01*
X-39290000Y-13392240D01*
X-39173475Y-13566632D01*
X-38966632Y-13773475D01*
X-38723411Y-13935990D01*
X-38453158Y-14047932D01*
X-38166260Y-14105000D01*
X-37873740Y-14105000D01*
X-37586842Y-14047932D01*
X-37316589Y-13935990D01*
X-37073368Y-13773475D01*
X-36866525Y-13566632D01*
X-36750000Y-13392240D01*
X-36633475Y-13566632D01*
X-36426632Y-13773475D01*
X-36183411Y-13935990D01*
X-35913158Y-14047932D01*
X-35626260Y-14105000D01*
X-35333740Y-14105000D01*
X-35046842Y-14047932D01*
X-34776589Y-13935990D01*
X-34533368Y-13773475D01*
X-34326525Y-13566632D01*
X-34210000Y-13392240D01*
X-34093475Y-13566632D01*
X-33886632Y-13773475D01*
X-33643411Y-13935990D01*
X-33373158Y-14047932D01*
X-33086260Y-14105000D01*
X-32793740Y-14105000D01*
X-32506842Y-14047932D01*
X-32236589Y-13935990D01*
X-31993368Y-13773475D01*
X-31786525Y-13566632D01*
X-31670000Y-13392240D01*
X-31553475Y-13566632D01*
X-31346632Y-13773475D01*
X-31103411Y-13935990D01*
X-30833158Y-14047932D01*
X-30546260Y-14105000D01*
X-30253740Y-14105000D01*
X-29966842Y-14047932D01*
X-29696589Y-13935990D01*
X-29453368Y-13773475D01*
X-29246525Y-13566632D01*
X-29130000Y-13392240D01*
X-29013475Y-13566632D01*
X-28806632Y-13773475D01*
X-28563411Y-13935990D01*
X-28293158Y-14047932D01*
X-28006260Y-14105000D01*
X-27713740Y-14105000D01*
X-27426842Y-14047932D01*
X-27156589Y-13935990D01*
X-26913368Y-13773475D01*
X-26706525Y-13566632D01*
X-26590000Y-13392240D01*
X-26473475Y-13566632D01*
X-26266632Y-13773475D01*
X-26023411Y-13935990D01*
X-25753158Y-14047932D01*
X-25466260Y-14105000D01*
X-25173740Y-14105000D01*
X-24886842Y-14047932D01*
X-24616589Y-13935990D01*
X-24373368Y-13773475D01*
X-24166525Y-13566632D01*
X-24050000Y-13392240D01*
X-23933475Y-13566632D01*
X-23726632Y-13773475D01*
X-23483411Y-13935990D01*
X-23213158Y-14047932D01*
X-22926260Y-14105000D01*
X-22633740Y-14105000D01*
X-22346842Y-14047932D01*
X-22076589Y-13935990D01*
X-21833368Y-13773475D01*
X-21626525Y-13566632D01*
X-21510000Y-13392240D01*
X-21393475Y-13566632D01*
X-21186632Y-13773475D01*
X-20943411Y-13935990D01*
X-20673158Y-14047932D01*
X-20386260Y-14105000D01*
X-20093740Y-14105000D01*
X-19806842Y-14047932D01*
X-19536589Y-13935990D01*
X-19293368Y-13773475D01*
X-19086525Y-13566632D01*
X-18970000Y-13392240D01*
X-18853475Y-13566632D01*
X-18646632Y-13773475D01*
X-18403411Y-13935990D01*
X-18133158Y-14047932D01*
X-17846260Y-14105000D01*
X-17553740Y-14105000D01*
X-17266842Y-14047932D01*
X-16996589Y-13935990D01*
X-16753368Y-13773475D01*
X-16546525Y-13566632D01*
X-16430000Y-13392240D01*
X-16313475Y-13566632D01*
X-16106632Y-13773475D01*
X-15863411Y-13935990D01*
X-15593158Y-14047932D01*
X-15306260Y-14105000D01*
X-15013740Y-14105000D01*
X-14726842Y-14047932D01*
X-14456589Y-13935990D01*
X-14213368Y-13773475D01*
X-14006525Y-13566632D01*
X-13890000Y-13392240D01*
X-13773475Y-13566632D01*
X-13566632Y-13773475D01*
X-13323411Y-13935990D01*
X-13317237Y-13938547D01*
X-21096289Y-21717600D01*
X-27525505Y-21717600D01*
X-27670902Y-21657374D01*
X-27870861Y-21617600D01*
X-28074739Y-21617600D01*
X-28274698Y-21657374D01*
X-28463056Y-21735395D01*
X-28632574Y-21848663D01*
X-28776737Y-21992826D01*
X-28890005Y-22162344D01*
X-28968026Y-22350702D01*
X-29007800Y-22550661D01*
X-29007800Y-22754539D01*
X-28968026Y-22954498D01*
X-28890005Y-23142856D01*
X-28776737Y-23312374D01*
X-28632574Y-23456537D01*
X-28463056Y-23569805D01*
X-28274698Y-23647826D01*
X-28074739Y-23687600D01*
X-27870861Y-23687600D01*
X-27670902Y-23647826D01*
X-27525505Y-23587600D01*
X-20754932Y-23587600D01*
X-20709000Y-23592124D01*
X-20663068Y-23587600D01*
X-20525708Y-23574071D01*
X-20349460Y-23520607D01*
X-20187028Y-23433786D01*
X-20044656Y-23316944D01*
X-20015370Y-23281259D01*
X-10634534Y-13900424D01*
X-10598856Y-13871144D01*
X-10482014Y-13728772D01*
X-10395193Y-13566340D01*
X-10341729Y-13390092D01*
X-10341655Y-13389346D01*
X-10339917Y-13371690D01*
X-10328200Y-13252732D01*
X-10328200Y-13252726D01*
X-10323677Y-13206801D01*
X-10328200Y-13160876D01*
X-10328200Y-9476735D01*
X-10323676Y-9430800D01*
X-10341728Y-9247508D01*
X-10395193Y-9071259D01*
X-10429657Y-9006782D01*
X-10482014Y-8908828D01*
X-10598856Y-8766456D01*
X-10634541Y-8737170D01*
X-11270770Y-8100941D01*
X-11300056Y-8065256D01*
X-11307721Y-8058965D01*
X-11304010Y-8053411D01*
X-11192068Y-7783158D01*
X-11135000Y-7496260D01*
X-11135000Y-7203740D01*
X-11192068Y-6916842D01*
X-11304010Y-6646589D01*
X-11466525Y-6403368D01*
X-11673368Y-6196525D01*
X-11847760Y-6080000D01*
X-11673368Y-5963475D01*
X-11466525Y-5756632D01*
X-11304010Y-5513411D01*
X-11192068Y-5243158D01*
X-11135000Y-4956260D01*
X-11135000Y-5413242D01*
X-11001073Y-6086537D01*
X-10738367Y-6720766D01*
X-10356976Y-7291558D01*
X-9871558Y-7776976D01*
X-9300766Y-8158367D01*
X-8666537Y-8421073D01*
X-7993242Y-8555000D01*
X-7306758Y-8555000D01*
X-6633463Y-8421073D01*
X-5999234Y-8158367D01*
X-5428442Y-7776976D01*
X-4943024Y-7291558D01*
X-4561633Y-6720766D01*
X-4298927Y-6086537D01*
X-4165000Y-5413242D01*
X-4165000Y-4726758D01*
X-4298927Y-4053463D01*
X-4561633Y-3419234D01*
X-4943024Y-2848442D01*
X-5428442Y-2363024D01*
X-5999234Y-1981633D01*
X-6633463Y-1718927D01*
X-7306758Y-1585000D01*
X-7993242Y-1585000D01*
X-8666537Y-1718927D01*
X-9300766Y-1981633D01*
X-9871558Y-2363024D01*
X-10356976Y-2848442D01*
X-10738367Y-3419234D01*
X-11001073Y-4053463D01*
X-11135000Y-4726758D01*
X-11135000Y-4663740D01*
X-11192068Y-4376842D01*
X-11304010Y-4106589D01*
X-11466525Y-3863368D01*
X-11673368Y-3656525D01*
X-11916589Y-3494010D01*
X-12186842Y-3382068D01*
X-12473740Y-3325000D01*
X-12766260Y-3325000D01*
X-13053158Y-3382068D01*
X-13323411Y-3494010D01*
X-13566632Y-3656525D01*
X-13773475Y-3863368D01*
X-13890000Y-4037760D01*
X-14006525Y-3863368D01*
X-14213368Y-3656525D01*
X-14456589Y-3494010D01*
X-14726842Y-3382068D01*
X-15013740Y-3325000D01*
X-15306260Y-3325000D01*
X-15593158Y-3382068D01*
X-15863411Y-3494010D01*
X-16106632Y-3656525D01*
X-16313475Y-3863368D01*
X-16430000Y-4037760D01*
X-16546525Y-3863368D01*
X-16753368Y-3656525D01*
X-16996589Y-3494010D01*
X-17266842Y-3382068D01*
X-17553740Y-3325000D01*
X-17846260Y-3325000D01*
X-18133158Y-3382068D01*
X-18403411Y-3494010D01*
X-18646632Y-3656525D01*
X-18853475Y-3863368D01*
X-18970000Y-4037760D01*
X-19086525Y-3863368D01*
X-19293368Y-3656525D01*
X-19536589Y-3494010D01*
X-19806842Y-3382068D01*
X-20093740Y-3325000D01*
X-20386260Y-3325000D01*
X-20673158Y-3382068D01*
X-20943411Y-3494010D01*
X-21186632Y-3656525D01*
X-21393475Y-3863368D01*
X-21510000Y-4037760D01*
X-21626525Y-3863368D01*
X-21833368Y-3656525D01*
X-22076589Y-3494010D01*
X-22346842Y-3382068D01*
X-22633740Y-3325000D01*
X-22926260Y-3325000D01*
X-23213158Y-3382068D01*
X-23483411Y-3494010D01*
X-23726632Y-3656525D01*
X-23933475Y-3863368D01*
X-24050000Y-4037760D01*
X-24166525Y-3863368D01*
X-24373368Y-3656525D01*
X-24616589Y-3494010D01*
X-24886842Y-3382068D01*
X-25173740Y-3325000D01*
X-25466260Y-3325000D01*
X-25753158Y-3382068D01*
X-26023411Y-3494010D01*
X-26266632Y-3656525D01*
X-26473475Y-3863368D01*
X-26590000Y-4037760D01*
X-26706525Y-3863368D01*
X-26913368Y-3656525D01*
X-27156589Y-3494010D01*
X-27426842Y-3382068D01*
X-27713740Y-3325000D01*
X-28006260Y-3325000D01*
X-28293158Y-3382068D01*
X-28563411Y-3494010D01*
X-28806632Y-3656525D01*
X-29013475Y-3863368D01*
X-29130000Y-4037760D01*
X-29246525Y-3863368D01*
X-29453368Y-3656525D01*
X-29696589Y-3494010D01*
X-29966842Y-3382068D01*
X-30253740Y-3325000D01*
X-30546260Y-3325000D01*
X-30833158Y-3382068D01*
X-31103411Y-3494010D01*
X-31346632Y-3656525D01*
X-31553475Y-3863368D01*
X-31670000Y-4037760D01*
X-31786525Y-3863368D01*
X-31993368Y-3656525D01*
X-32236589Y-3494010D01*
X-32506842Y-3382068D01*
X-32793740Y-3325000D01*
X-33086260Y-3325000D01*
X-33373158Y-3382068D01*
X-33643411Y-3494010D01*
X-33886632Y-3656525D01*
X-34093475Y-3863368D01*
X-34210000Y-4037760D01*
X-34326525Y-3863368D01*
X-34533368Y-3656525D01*
X-34776589Y-3494010D01*
X-35046842Y-3382068D01*
X-35333740Y-3325000D01*
X-35626260Y-3325000D01*
X-35913158Y-3382068D01*
X-36183411Y-3494010D01*
X-36426632Y-3656525D01*
X-36633475Y-3863368D01*
X-36750000Y-4037760D01*
X-36866525Y-3863368D01*
X-37073368Y-3656525D01*
X-37316589Y-3494010D01*
X-37586842Y-3382068D01*
X-37873740Y-3325000D01*
X-38166260Y-3325000D01*
X-38453158Y-3382068D01*
X-38723411Y-3494010D01*
X-38966632Y-3656525D01*
X-39173475Y-3863368D01*
X-39295195Y-4045534D01*
X-39364822Y-3928645D01*
X-39559731Y-3712412D01*
X-39793080Y-3538359D01*
X-40055901Y-3413175D01*
X-40203110Y-3368524D01*
X-40433000Y-3489845D01*
X-40433000Y-4683000D01*
X-40413000Y-4683000D01*
X-40413000Y-4937000D01*
X-40433000Y-4937000D01*
X-40433000Y-7223000D01*
X-38147000Y-7223000D01*
X-38147000Y-7203000D01*
X-37893000Y-7203000D01*
X-37893000Y-7223000D01*
X-37873000Y-7223000D01*
X-37873000Y-7477000D01*
X-37893000Y-7477000D01*
X-37893000Y-7497000D01*
X-38147000Y-7497000D01*
X-38147000Y-7477000D01*
X-40433000Y-7477000D01*
X-40433000Y-7497000D01*
X-40687000Y-7497000D01*
X-40687000Y-7477000D01*
X-40707000Y-7477000D01*
X-40707000Y-7223000D01*
X-40687000Y-7223000D01*
X-40687000Y-4937000D01*
X-40707000Y-4937000D01*
X-40707000Y-4683000D01*
X-40687000Y-4683000D01*
X-40687000Y-3489845D01*
X-40916890Y-3368524D01*
X-41064099Y-3413175D01*
X-41326920Y-3538359D01*
X-41560269Y-3712412D01*
X-41755178Y-3928645D01*
X-41824805Y-4045534D01*
X-41946525Y-3863368D01*
X-42153368Y-3656525D01*
X-42396589Y-3494010D01*
X-42666842Y-3382068D01*
X-42953740Y-3325000D01*
X-43246260Y-3325000D01*
X-43533158Y-3382068D01*
X-43803411Y-3494010D01*
X-44046632Y-3656525D01*
X-44253475Y-3863368D01*
X-44370000Y-4037760D01*
X-44486525Y-3863368D01*
X-44693368Y-3656525D01*
X-44936589Y-3494010D01*
X-45206842Y-3382068D01*
X-45493740Y-3325000D01*
X-45786260Y-3325000D01*
X-46073158Y-3382068D01*
X-46343411Y-3494010D01*
X-46586632Y-3656525D01*
X-46793475Y-3863368D01*
X-46910000Y-4037760D01*
X-47026525Y-3863368D01*
X-47233368Y-3656525D01*
X-47476589Y-3494010D01*
X-47746842Y-3382068D01*
X-48033740Y-3325000D01*
X-48326260Y-3325000D01*
X-48613158Y-3382068D01*
X-48883411Y-3494010D01*
X-49126632Y-3656525D01*
X-49333475Y-3863368D01*
X-49450000Y-4037760D01*
X-49566525Y-3863368D01*
X-49773368Y-3656525D01*
X-50016589Y-3494010D01*
X-50286842Y-3382068D01*
X-50573740Y-3325000D01*
X-50866260Y-3325000D01*
X-51153158Y-3382068D01*
X-51423411Y-3494010D01*
X-51666632Y-3656525D01*
X-51873475Y-3863368D01*
X-51990000Y-4037760D01*
X-52106525Y-3863368D01*
X-52313368Y-3656525D01*
X-52556589Y-3494010D01*
X-52826842Y-3382068D01*
X-53113740Y-3325000D01*
X-53406260Y-3325000D01*
X-53693158Y-3382068D01*
X-53963411Y-3494010D01*
X-54206632Y-3656525D01*
X-54413475Y-3863368D01*
X-54530000Y-4037760D01*
X-54646525Y-3863368D01*
X-54853368Y-3656525D01*
X-55096589Y-3494010D01*
X-55366842Y-3382068D01*
X-55653740Y-3325000D01*
X-55946260Y-3325000D01*
X-56233158Y-3382068D01*
X-56503411Y-3494010D01*
X-56746632Y-3656525D01*
X-56953475Y-3863368D01*
X-57070000Y-4037760D01*
X-57186525Y-3863368D01*
X-57393368Y-3656525D01*
X-57636589Y-3494010D01*
X-57906842Y-3382068D01*
X-58193740Y-3325000D01*
X-58486260Y-3325000D01*
X-58773158Y-3382068D01*
X-59043411Y-3494010D01*
X-59286632Y-3656525D01*
X-59493475Y-3863368D01*
X-59610000Y-4037760D01*
X-59726525Y-3863368D01*
X-59933368Y-3656525D01*
X-60176589Y-3494010D01*
X-60446842Y-3382068D01*
X-60733740Y-3325000D01*
X-61026260Y-3325000D01*
X-61313158Y-3382068D01*
X-61583411Y-3494010D01*
X-61826632Y-3656525D01*
X-62033475Y-3863368D01*
X-62150000Y-4037760D01*
X-62266525Y-3863368D01*
X-62473368Y-3656525D01*
X-62716589Y-3494010D01*
X-62986842Y-3382068D01*
X-63273740Y-3325000D01*
X-63566260Y-3325000D01*
X-63853158Y-3382068D01*
X-64123411Y-3494010D01*
X-64366632Y-3656525D01*
X-64573475Y-3863368D01*
X-64690000Y-4037760D01*
X-64806525Y-3863368D01*
X-65013368Y-3656525D01*
X-65256589Y-3494010D01*
X-65526842Y-3382068D01*
X-65813740Y-3325000D01*
X-66106260Y-3325000D01*
X-66393158Y-3382068D01*
X-66663411Y-3494010D01*
X-66906632Y-3656525D01*
X-67113475Y-3863368D01*
X-67230000Y-4037760D01*
X-67346525Y-3863368D01*
X-67553368Y-3656525D01*
X-67796589Y-3494010D01*
X-68066842Y-3382068D01*
X-68353740Y-3325000D01*
X-68646260Y-3325000D01*
X-68933158Y-3382068D01*
X-69203411Y-3494010D01*
X-69446632Y-3656525D01*
X-69653475Y-3863368D01*
X-69770000Y-4037760D01*
X-69886525Y-3863368D01*
X-70093368Y-3656525D01*
X-70336589Y-3494010D01*
X-70606842Y-3382068D01*
X-70893740Y-3325000D01*
X-71186260Y-3325000D01*
X-71473158Y-3382068D01*
X-71743411Y-3494010D01*
X-71986632Y-3656525D01*
X-72193475Y-3863368D01*
X-72310000Y-4037760D01*
X-72426525Y-3863368D01*
X-72633368Y-3656525D01*
X-72876589Y-3494010D01*
X-73146842Y-3382068D01*
X-73433740Y-3325000D01*
X-73726260Y-3325000D01*
X-74013158Y-3382068D01*
X-74283411Y-3494010D01*
X-74526632Y-3656525D01*
X-74658487Y-3788380D01*
X-74680498Y-3715820D01*
X-74739463Y-3605506D01*
X-74818815Y-3508815D01*
X-74915506Y-3429463D01*
X-75025820Y-3370498D01*
X-75145518Y-3334188D01*
X-75270000Y-3321928D01*
X-76970000Y-3321928D01*
X-77094482Y-3334188D01*
X-77214180Y-3370498D01*
X-77324494Y-3429463D01*
X-77421185Y-3508815D01*
X-77500537Y-3605506D01*
X-77559502Y-3715820D01*
X-77595812Y-3835518D01*
X-77608072Y-3960000D01*
X-77957640Y-3960000D01*
X-78181633Y-3419234D01*
X-78563024Y-2848442D01*
X-79048442Y-2363024D01*
X-79619234Y-1981633D01*
X-80253463Y-1718927D01*
X-80926758Y-1585000D01*
X-81613242Y-1585000D01*
X-82286537Y-1718927D01*
X-82920766Y-1981633D01*
X-83491558Y-2363024D01*
X-83976976Y-2848442D01*
X-84358367Y-3419234D01*
X-84621073Y-4053463D01*
X-84755000Y-4726758D01*
X-87310000Y-4726758D01*
X-87310000Y-660000D01*
X-2660000Y-660000D01*
X-2659999Y-8717709D01*
G37*
%TD.AperFunction*%
D21*
X-6629300Y-24707303D02*
X-6650249Y-24920000D01*
X-6629300Y-25132697D01*
X-6567259Y-25337220D01*
X-6466509Y-25525710D01*
X-6330922Y-25690922D01*
X-6165710Y-25826509D01*
X-6019476Y-25904673D01*
X-22884601Y-42769800D01*
X-29852189Y-42769800D01*
X-29896126Y-42725863D01*
X-30065644Y-42612595D01*
X-30254002Y-42534574D01*
X-30453961Y-42494800D01*
X-30556600Y-42494800D01*
X-30556600Y-37127889D01*
X-18033711Y-24605000D01*
X-6598267Y-24605000D01*
X-6629300Y-24707303D01*
%TA.AperFunction,Conductor*%
D22*
G36*
X-6629300Y-24707303D02*
G01*
X-6650249Y-24920000D01*
X-6629300Y-25132697D01*
X-6567259Y-25337220D01*
X-6466509Y-25525710D01*
X-6330922Y-25690922D01*
X-6165710Y-25826509D01*
X-6019476Y-25904673D01*
X-22884601Y-42769800D01*
X-29852189Y-42769800D01*
X-29896126Y-42725863D01*
X-30065644Y-42612595D01*
X-30254002Y-42534574D01*
X-30453961Y-42494800D01*
X-30556600Y-42494800D01*
X-30556600Y-37127889D01*
X-18033711Y-24605000D01*
X-6598267Y-24605000D01*
X-6629300Y-24707303D01*
G37*
%TD.AperFunction*%
%TD*%
M02*
