%TF.GenerationSoftware,KiCad,Pcbnew,(5.1.12)-1*%
%TF.CreationDate,2023-02-07T17:32:02-05:00*%
%TF.ProjectId,RADSAT-SK Timer 2,52414453-4154-42d5-934b-2054696d6572,rev?*%
%TF.SameCoordinates,PX7735940PY2faf080*%
%TF.FileFunction,Copper,L1,Top*%
%TF.FilePolarity,Positive*%
%FSLAX46Y46*%
G04 Gerber Fmt 4.6, Leading zero omitted, Abs format (unit mm)*
G04 Created by KiCad (PCBNEW (5.1.12)-1) date 2023-02-07 17:32:02*
%MOMM*%
%LPD*%
G01*
G04 APERTURE LIST*
%TA.AperFunction,SMDPad,CuDef*%
%ADD10R,0.900000X0.800000*%
%TD*%
%TA.AperFunction,SMDPad,CuDef*%
%ADD11R,1.200000X0.900000*%
%TD*%
%TA.AperFunction,SMDPad,CuDef*%
%ADD12R,1.800000X1.000000*%
%TD*%
%TA.AperFunction,ComponentPad*%
%ADD13O,1.400000X0.900000*%
%TD*%
%TA.AperFunction,SMDPad,CuDef*%
%ADD14R,3.600000X2.600000*%
%TD*%
%TA.AperFunction,ComponentPad*%
%ADD15O,1.700000X1.700000*%
%TD*%
%TA.AperFunction,ComponentPad*%
%ADD16R,1.700000X1.700000*%
%TD*%
%TA.AperFunction,SMDPad,CuDef*%
%ADD17R,0.800000X1.900000*%
%TD*%
%TA.AperFunction,ConnectorPad*%
%ADD18C,5.700000*%
%TD*%
%TA.AperFunction,ComponentPad*%
%ADD19C,3.600000*%
%TD*%
%TA.AperFunction,SMDPad,CuDef*%
%ADD20R,0.400000X1.500000*%
%TD*%
%TA.AperFunction,ComponentPad*%
%ADD21O,1.300000X0.800000*%
%TD*%
%TA.AperFunction,ComponentPad*%
%ADD22R,1.400000X0.900000*%
%TD*%
%TA.AperFunction,SMDPad,CuDef*%
%ADD23R,1.800000X0.700000*%
%TD*%
%TA.AperFunction,SMDPad,CuDef*%
%ADD24R,2.200000X1.600000*%
%TD*%
%TA.AperFunction,ViaPad*%
%ADD25C,0.800000*%
%TD*%
%TA.AperFunction,Conductor*%
%ADD26C,0.250000*%
%TD*%
%TA.AperFunction,Conductor*%
%ADD27C,0.350000*%
%TD*%
%TA.AperFunction,Conductor*%
%ADD28C,0.600000*%
%TD*%
%TA.AperFunction,Conductor*%
%ADD29C,0.399800*%
%TD*%
%TA.AperFunction,Conductor*%
%ADD30C,0.254000*%
%TD*%
%TA.AperFunction,Conductor*%
%ADD31C,0.100000*%
%TD*%
G04 APERTURE END LIST*
%TO.P,R113,2*%
%TO.N,Net-(C103-Pad1)*%
%TA.AperFunction,SMDPad,CuDef*%
G36*
G01*
X-72622800Y-49754300D02*
X-71372800Y-49754300D01*
G75*
G02*
X-71122800Y-50004300I0J-250000D01*
G01*
X-71122800Y-50804300D01*
G75*
G02*
X-71372800Y-51054300I-250000J0D01*
G01*
X-72622800Y-51054300D01*
G75*
G02*
X-72872800Y-50804300I0J250000D01*
G01*
X-72872800Y-50004300D01*
G75*
G02*
X-72622800Y-49754300I250000J0D01*
G01*
G37*
%TD.AperFunction*%
%TO.P,R113,1*%
%TO.N,Inhib_EN*%
%TA.AperFunction,SMDPad,CuDef*%
G36*
G01*
X-72622800Y-46654300D02*
X-71372800Y-46654300D01*
G75*
G02*
X-71122800Y-46904300I0J-250000D01*
G01*
X-71122800Y-47704300D01*
G75*
G02*
X-71372800Y-47954300I-250000J0D01*
G01*
X-72622800Y-47954300D01*
G75*
G02*
X-72872800Y-47704300I0J250000D01*
G01*
X-72872800Y-46904300D01*
G75*
G02*
X-72622800Y-46654300I250000J0D01*
G01*
G37*
%TD.AperFunction*%
%TD*%
%TO.P,R112,2*%
%TO.N,Net-(Q101-Pad3)*%
%TA.AperFunction,SMDPad,CuDef*%
G36*
G01*
X-62693600Y-37009400D02*
X-63943600Y-37009400D01*
G75*
G02*
X-64193600Y-36759400I0J250000D01*
G01*
X-64193600Y-35959400D01*
G75*
G02*
X-63943600Y-35709400I250000J0D01*
G01*
X-62693600Y-35709400D01*
G75*
G02*
X-62443600Y-35959400I0J-250000D01*
G01*
X-62443600Y-36759400D01*
G75*
G02*
X-62693600Y-37009400I-250000J0D01*
G01*
G37*
%TD.AperFunction*%
%TO.P,R112,1*%
%TO.N,Inhib_EN*%
%TA.AperFunction,SMDPad,CuDef*%
G36*
G01*
X-62693600Y-40109400D02*
X-63943600Y-40109400D01*
G75*
G02*
X-64193600Y-39859400I0J250000D01*
G01*
X-64193600Y-39059400D01*
G75*
G02*
X-63943600Y-38809400I250000J0D01*
G01*
X-62693600Y-38809400D01*
G75*
G02*
X-62443600Y-39059400I0J-250000D01*
G01*
X-62443600Y-39859400D01*
G75*
G02*
X-62693600Y-40109400I-250000J0D01*
G01*
G37*
%TD.AperFunction*%
%TD*%
%TO.P,R111,2*%
%TO.N,Inhib_EN*%
%TA.AperFunction,SMDPad,CuDef*%
G36*
G01*
X-41690400Y-27565700D02*
X-42940400Y-27565700D01*
G75*
G02*
X-43190400Y-27315700I0J250000D01*
G01*
X-43190400Y-26515700D01*
G75*
G02*
X-42940400Y-26265700I250000J0D01*
G01*
X-41690400Y-26265700D01*
G75*
G02*
X-41440400Y-26515700I0J-250000D01*
G01*
X-41440400Y-27315700D01*
G75*
G02*
X-41690400Y-27565700I-250000J0D01*
G01*
G37*
%TD.AperFunction*%
%TO.P,R111,1*%
%TO.N,Net-(D102-Pad1)*%
%TA.AperFunction,SMDPad,CuDef*%
G36*
G01*
X-41690400Y-30665700D02*
X-42940400Y-30665700D01*
G75*
G02*
X-43190400Y-30415700I0J250000D01*
G01*
X-43190400Y-29615700D01*
G75*
G02*
X-42940400Y-29365700I250000J0D01*
G01*
X-41690400Y-29365700D01*
G75*
G02*
X-41440400Y-29615700I0J-250000D01*
G01*
X-41440400Y-30415700D01*
G75*
G02*
X-41690400Y-30665700I-250000J0D01*
G01*
G37*
%TD.AperFunction*%
%TD*%
%TO.P,R108,2*%
%TO.N,Net-(Q102-Pad1)*%
%TA.AperFunction,SMDPad,CuDef*%
G36*
G01*
X-65129500Y-55486000D02*
X-66379500Y-55486000D01*
G75*
G02*
X-66629500Y-55236000I0J250000D01*
G01*
X-66629500Y-54436000D01*
G75*
G02*
X-66379500Y-54186000I250000J0D01*
G01*
X-65129500Y-54186000D01*
G75*
G02*
X-64879500Y-54436000I0J-250000D01*
G01*
X-64879500Y-55236000D01*
G75*
G02*
X-65129500Y-55486000I-250000J0D01*
G01*
G37*
%TD.AperFunction*%
%TO.P,R108,1*%
%TO.N,Net-(C103-Pad2)*%
%TA.AperFunction,SMDPad,CuDef*%
G36*
G01*
X-65129500Y-58586000D02*
X-66379500Y-58586000D01*
G75*
G02*
X-66629500Y-58336000I0J250000D01*
G01*
X-66629500Y-57536000D01*
G75*
G02*
X-66379500Y-57286000I250000J0D01*
G01*
X-65129500Y-57286000D01*
G75*
G02*
X-64879500Y-57536000I0J-250000D01*
G01*
X-64879500Y-58336000D01*
G75*
G02*
X-65129500Y-58586000I-250000J0D01*
G01*
G37*
%TD.AperFunction*%
%TD*%
%TO.P,R107,2*%
%TO.N,+BATT*%
%TA.AperFunction,SMDPad,CuDef*%
G36*
G01*
X-40160000Y-44498300D02*
X-40160000Y-43248300D01*
G75*
G02*
X-39910000Y-42998300I250000J0D01*
G01*
X-39110000Y-42998300D01*
G75*
G02*
X-38860000Y-43248300I0J-250000D01*
G01*
X-38860000Y-44498300D01*
G75*
G02*
X-39110000Y-44748300I-250000J0D01*
G01*
X-39910000Y-44748300D01*
G75*
G02*
X-40160000Y-44498300I0J250000D01*
G01*
G37*
%TD.AperFunction*%
%TO.P,R107,1*%
%TO.N,Net-(C103-Pad1)*%
%TA.AperFunction,SMDPad,CuDef*%
G36*
G01*
X-43260000Y-44498300D02*
X-43260000Y-43248300D01*
G75*
G02*
X-43010000Y-42998300I250000J0D01*
G01*
X-42210000Y-42998300D01*
G75*
G02*
X-41960000Y-43248300I0J-250000D01*
G01*
X-41960000Y-44498300D01*
G75*
G02*
X-42210000Y-44748300I-250000J0D01*
G01*
X-43010000Y-44748300D01*
G75*
G02*
X-43260000Y-44498300I0J250000D01*
G01*
G37*
%TD.AperFunction*%
%TD*%
%TO.P,R105,2*%
%TO.N,GND*%
%TA.AperFunction,SMDPad,CuDef*%
G36*
G01*
X-63776000Y-54733000D02*
X-62526000Y-54733000D01*
G75*
G02*
X-62276000Y-54983000I0J-250000D01*
G01*
X-62276000Y-55783000D01*
G75*
G02*
X-62526000Y-56033000I-250000J0D01*
G01*
X-63776000Y-56033000D01*
G75*
G02*
X-64026000Y-55783000I0J250000D01*
G01*
X-64026000Y-54983000D01*
G75*
G02*
X-63776000Y-54733000I250000J0D01*
G01*
G37*
%TD.AperFunction*%
%TO.P,R105,1*%
%TO.N,Net-(C103-Pad2)*%
%TA.AperFunction,SMDPad,CuDef*%
G36*
G01*
X-63776000Y-51633000D02*
X-62526000Y-51633000D01*
G75*
G02*
X-62276000Y-51883000I0J-250000D01*
G01*
X-62276000Y-52683000D01*
G75*
G02*
X-62526000Y-52933000I-250000J0D01*
G01*
X-63776000Y-52933000D01*
G75*
G02*
X-64026000Y-52683000I0J250000D01*
G01*
X-64026000Y-51883000D01*
G75*
G02*
X-63776000Y-51633000I250000J0D01*
G01*
G37*
%TD.AperFunction*%
%TD*%
%TO.P,R104,2*%
%TO.N,+BATT*%
%TA.AperFunction,SMDPad,CuDef*%
G36*
G01*
X-40011400Y-48262600D02*
X-40011400Y-47012600D01*
G75*
G02*
X-39761400Y-46762600I250000J0D01*
G01*
X-38961400Y-46762600D01*
G75*
G02*
X-38711400Y-47012600I0J-250000D01*
G01*
X-38711400Y-48262600D01*
G75*
G02*
X-38961400Y-48512600I-250000J0D01*
G01*
X-39761400Y-48512600D01*
G75*
G02*
X-40011400Y-48262600I0J250000D01*
G01*
G37*
%TD.AperFunction*%
%TO.P,R104,1*%
%TO.N,Net-(D102-Pad2)*%
%TA.AperFunction,SMDPad,CuDef*%
G36*
G01*
X-43111400Y-48262600D02*
X-43111400Y-47012600D01*
G75*
G02*
X-42861400Y-46762600I250000J0D01*
G01*
X-42061400Y-46762600D01*
G75*
G02*
X-41811400Y-47012600I0J-250000D01*
G01*
X-41811400Y-48262600D01*
G75*
G02*
X-42061400Y-48512600I-250000J0D01*
G01*
X-42861400Y-48512600D01*
G75*
G02*
X-43111400Y-48262600I0J250000D01*
G01*
G37*
%TD.AperFunction*%
%TD*%
D10*
%TO.P,Q102,3*%
%TO.N,GND*%
X-67369200Y-50688000D03*
%TO.P,Q102,2*%
%TO.N,Net-(C103-Pad1)*%
X-65369200Y-49738000D03*
%TO.P,Q102,1*%
%TO.N,Net-(Q102-Pad1)*%
X-65369200Y-51638000D03*
%TD*%
D11*
%TO.P,D102,2*%
%TO.N,Net-(D102-Pad2)*%
X-46816300Y-52000000D03*
%TO.P,D102,1*%
%TO.N,Net-(D102-Pad1)*%
X-46816300Y-48700000D03*
%TD*%
%TO.P,D101,2*%
%TO.N,+5V*%
X-43582800Y-19950100D03*
%TO.P,D101,1*%
%TO.N,Inhib_EN*%
X-43582800Y-23250100D03*
%TD*%
%TO.P,C104,2*%
%TO.N,Net-(C103-Pad2)*%
%TA.AperFunction,SMDPad,CuDef*%
G36*
G01*
X-60783501Y-50254600D02*
X-59483499Y-50254600D01*
G75*
G02*
X-59233500Y-50504599I0J-249999D01*
G01*
X-59233500Y-51154601D01*
G75*
G02*
X-59483499Y-51404600I-249999J0D01*
G01*
X-60783501Y-51404600D01*
G75*
G02*
X-61033500Y-51154601I0J249999D01*
G01*
X-61033500Y-50504599D01*
G75*
G02*
X-60783501Y-50254600I249999J0D01*
G01*
G37*
%TD.AperFunction*%
%TO.P,C104,1*%
%TO.N,Net-(C103-Pad1)*%
%TA.AperFunction,SMDPad,CuDef*%
G36*
G01*
X-60783501Y-47304600D02*
X-59483499Y-47304600D01*
G75*
G02*
X-59233500Y-47554599I0J-249999D01*
G01*
X-59233500Y-48204601D01*
G75*
G02*
X-59483499Y-48454600I-249999J0D01*
G01*
X-60783501Y-48454600D01*
G75*
G02*
X-61033500Y-48204601I0J249999D01*
G01*
X-61033500Y-47554599D01*
G75*
G02*
X-60783501Y-47304600I249999J0D01*
G01*
G37*
%TD.AperFunction*%
%TD*%
%TO.P,C103,2*%
%TO.N,Net-(C103-Pad2)*%
%TA.AperFunction,SMDPad,CuDef*%
G36*
G01*
X-56927801Y-50341000D02*
X-55627799Y-50341000D01*
G75*
G02*
X-55377800Y-50590999I0J-249999D01*
G01*
X-55377800Y-51241001D01*
G75*
G02*
X-55627799Y-51491000I-249999J0D01*
G01*
X-56927801Y-51491000D01*
G75*
G02*
X-57177800Y-51241001I0J249999D01*
G01*
X-57177800Y-50590999D01*
G75*
G02*
X-56927801Y-50341000I249999J0D01*
G01*
G37*
%TD.AperFunction*%
%TO.P,C103,1*%
%TO.N,Net-(C103-Pad1)*%
%TA.AperFunction,SMDPad,CuDef*%
G36*
G01*
X-56927801Y-47391000D02*
X-55627799Y-47391000D01*
G75*
G02*
X-55377800Y-47640999I0J-249999D01*
G01*
X-55377800Y-48291001D01*
G75*
G02*
X-55627799Y-48541000I-249999J0D01*
G01*
X-56927801Y-48541000D01*
G75*
G02*
X-57177800Y-48291001I0J249999D01*
G01*
X-57177800Y-47640999D01*
G75*
G02*
X-56927801Y-47391000I249999J0D01*
G01*
G37*
%TD.AperFunction*%
%TD*%
D10*
%TO.P,Q101,3*%
%TO.N,Net-(Q101-Pad3)*%
X-54608200Y-33992700D03*
%TO.P,Q101,2*%
%TO.N,GND*%
X-52608200Y-33042700D03*
%TO.P,Q101,1*%
%TO.N,Net-(Q101-Pad1)*%
X-52608200Y-34942700D03*
%TD*%
%TO.P,U101,8*%
%TO.N,Net-(D102-Pad1)*%
%TA.AperFunction,SMDPad,CuDef*%
G36*
G01*
X-44434900Y-33456900D02*
X-44434900Y-33156900D01*
G75*
G02*
X-44284900Y-33006900I150000J0D01*
G01*
X-42634900Y-33006900D01*
G75*
G02*
X-42484900Y-33156900I0J-150000D01*
G01*
X-42484900Y-33456900D01*
G75*
G02*
X-42634900Y-33606900I-150000J0D01*
G01*
X-44284900Y-33606900D01*
G75*
G02*
X-44434900Y-33456900I0J150000D01*
G01*
G37*
%TD.AperFunction*%
%TO.P,U101,7*%
%TO.N,Net-(C102-Pad1)*%
%TA.AperFunction,SMDPad,CuDef*%
G36*
G01*
X-44434900Y-34726900D02*
X-44434900Y-34426900D01*
G75*
G02*
X-44284900Y-34276900I150000J0D01*
G01*
X-42634900Y-34276900D01*
G75*
G02*
X-42484900Y-34426900I0J-150000D01*
G01*
X-42484900Y-34726900D01*
G75*
G02*
X-42634900Y-34876900I-150000J0D01*
G01*
X-44284900Y-34876900D01*
G75*
G02*
X-44434900Y-34726900I0J150000D01*
G01*
G37*
%TD.AperFunction*%
%TO.P,U101,6*%
%TA.AperFunction,SMDPad,CuDef*%
G36*
G01*
X-44434900Y-35996900D02*
X-44434900Y-35696900D01*
G75*
G02*
X-44284900Y-35546900I150000J0D01*
G01*
X-42634900Y-35546900D01*
G75*
G02*
X-42484900Y-35696900I0J-150000D01*
G01*
X-42484900Y-35996900D01*
G75*
G02*
X-42634900Y-36146900I-150000J0D01*
G01*
X-44284900Y-36146900D01*
G75*
G02*
X-44434900Y-35996900I0J150000D01*
G01*
G37*
%TD.AperFunction*%
%TO.P,U101,5*%
%TO.N,Net-(C101-Pad1)*%
%TA.AperFunction,SMDPad,CuDef*%
G36*
G01*
X-44434900Y-37266900D02*
X-44434900Y-36966900D01*
G75*
G02*
X-44284900Y-36816900I150000J0D01*
G01*
X-42634900Y-36816900D01*
G75*
G02*
X-42484900Y-36966900I0J-150000D01*
G01*
X-42484900Y-37266900D01*
G75*
G02*
X-42634900Y-37416900I-150000J0D01*
G01*
X-44284900Y-37416900D01*
G75*
G02*
X-44434900Y-37266900I0J150000D01*
G01*
G37*
%TD.AperFunction*%
%TO.P,U101,4*%
%TO.N,Net-(D102-Pad1)*%
%TA.AperFunction,SMDPad,CuDef*%
G36*
G01*
X-49384900Y-37266900D02*
X-49384900Y-36966900D01*
G75*
G02*
X-49234900Y-36816900I150000J0D01*
G01*
X-47584900Y-36816900D01*
G75*
G02*
X-47434900Y-36966900I0J-150000D01*
G01*
X-47434900Y-37266900D01*
G75*
G02*
X-47584900Y-37416900I-150000J0D01*
G01*
X-49234900Y-37416900D01*
G75*
G02*
X-49384900Y-37266900I0J150000D01*
G01*
G37*
%TD.AperFunction*%
%TO.P,U101,3*%
%TO.N,Net-(Q101-Pad1)*%
%TA.AperFunction,SMDPad,CuDef*%
G36*
G01*
X-49384900Y-35996900D02*
X-49384900Y-35696900D01*
G75*
G02*
X-49234900Y-35546900I150000J0D01*
G01*
X-47584900Y-35546900D01*
G75*
G02*
X-47434900Y-35696900I0J-150000D01*
G01*
X-47434900Y-35996900D01*
G75*
G02*
X-47584900Y-36146900I-150000J0D01*
G01*
X-49234900Y-36146900D01*
G75*
G02*
X-49384900Y-35996900I0J150000D01*
G01*
G37*
%TD.AperFunction*%
%TO.P,U101,2*%
%TO.N,GND*%
%TA.AperFunction,SMDPad,CuDef*%
G36*
G01*
X-49384900Y-34726900D02*
X-49384900Y-34426900D01*
G75*
G02*
X-49234900Y-34276900I150000J0D01*
G01*
X-47584900Y-34276900D01*
G75*
G02*
X-47434900Y-34426900I0J-150000D01*
G01*
X-47434900Y-34726900D01*
G75*
G02*
X-47584900Y-34876900I-150000J0D01*
G01*
X-49234900Y-34876900D01*
G75*
G02*
X-49384900Y-34726900I0J150000D01*
G01*
G37*
%TD.AperFunction*%
%TO.P,U101,1*%
%TA.AperFunction,SMDPad,CuDef*%
G36*
G01*
X-49384900Y-33456900D02*
X-49384900Y-33156900D01*
G75*
G02*
X-49234900Y-33006900I150000J0D01*
G01*
X-47584900Y-33006900D01*
G75*
G02*
X-47434900Y-33156900I0J-150000D01*
G01*
X-47434900Y-33456900D01*
G75*
G02*
X-47584900Y-33606900I-150000J0D01*
G01*
X-49234900Y-33606900D01*
G75*
G02*
X-49384900Y-33456900I0J150000D01*
G01*
G37*
%TD.AperFunction*%
%TD*%
%TO.P,R103,2*%
%TO.N,Net-(D102-Pad1)*%
%TA.AperFunction,SMDPad,CuDef*%
G36*
G01*
X-60258200Y-33479500D02*
X-60258200Y-34729500D01*
G75*
G02*
X-60508200Y-34979500I-250000J0D01*
G01*
X-61308200Y-34979500D01*
G75*
G02*
X-61558200Y-34729500I0J250000D01*
G01*
X-61558200Y-33479500D01*
G75*
G02*
X-61308200Y-33229500I250000J0D01*
G01*
X-60508200Y-33229500D01*
G75*
G02*
X-60258200Y-33479500I0J-250000D01*
G01*
G37*
%TD.AperFunction*%
%TO.P,R103,1*%
%TO.N,Net-(Q101-Pad3)*%
%TA.AperFunction,SMDPad,CuDef*%
G36*
G01*
X-57158200Y-33479500D02*
X-57158200Y-34729500D01*
G75*
G02*
X-57408200Y-34979500I-250000J0D01*
G01*
X-58208200Y-34979500D01*
G75*
G02*
X-58458200Y-34729500I0J250000D01*
G01*
X-58458200Y-33479500D01*
G75*
G02*
X-58208200Y-33229500I250000J0D01*
G01*
X-57408200Y-33229500D01*
G75*
G02*
X-57158200Y-33479500I0J-250000D01*
G01*
G37*
%TD.AperFunction*%
%TD*%
%TO.P,R102,2*%
%TO.N,Net-(C102-Pad1)*%
%TA.AperFunction,SMDPad,CuDef*%
G36*
G01*
X-40839800Y-34923200D02*
X-39589800Y-34923200D01*
G75*
G02*
X-39339800Y-35173200I0J-250000D01*
G01*
X-39339800Y-35973200D01*
G75*
G02*
X-39589800Y-36223200I-250000J0D01*
G01*
X-40839800Y-36223200D01*
G75*
G02*
X-41089800Y-35973200I0J250000D01*
G01*
X-41089800Y-35173200D01*
G75*
G02*
X-40839800Y-34923200I250000J0D01*
G01*
G37*
%TD.AperFunction*%
%TO.P,R102,1*%
%TO.N,Net-(D102-Pad1)*%
%TA.AperFunction,SMDPad,CuDef*%
G36*
G01*
X-40839800Y-31823200D02*
X-39589800Y-31823200D01*
G75*
G02*
X-39339800Y-32073200I0J-250000D01*
G01*
X-39339800Y-32873200D01*
G75*
G02*
X-39589800Y-33123200I-250000J0D01*
G01*
X-40839800Y-33123200D01*
G75*
G02*
X-41089800Y-32873200I0J250000D01*
G01*
X-41089800Y-32073200D01*
G75*
G02*
X-40839800Y-31823200I250000J0D01*
G01*
G37*
%TD.AperFunction*%
%TD*%
%TO.P,R101,2*%
%TO.N,GND*%
%TA.AperFunction,SMDPad,CuDef*%
G36*
G01*
X-53224800Y-40407100D02*
X-51974800Y-40407100D01*
G75*
G02*
X-51724800Y-40657100I0J-250000D01*
G01*
X-51724800Y-41457100D01*
G75*
G02*
X-51974800Y-41707100I-250000J0D01*
G01*
X-53224800Y-41707100D01*
G75*
G02*
X-53474800Y-41457100I0J250000D01*
G01*
X-53474800Y-40657100D01*
G75*
G02*
X-53224800Y-40407100I250000J0D01*
G01*
G37*
%TD.AperFunction*%
%TO.P,R101,1*%
%TO.N,Inhib_EN*%
%TA.AperFunction,SMDPad,CuDef*%
G36*
G01*
X-53224800Y-37307100D02*
X-51974800Y-37307100D01*
G75*
G02*
X-51724800Y-37557100I0J-250000D01*
G01*
X-51724800Y-38357100D01*
G75*
G02*
X-51974800Y-38607100I-250000J0D01*
G01*
X-53224800Y-38607100D01*
G75*
G02*
X-53474800Y-38357100I0J250000D01*
G01*
X-53474800Y-37557100D01*
G75*
G02*
X-53224800Y-37307100I250000J0D01*
G01*
G37*
%TD.AperFunction*%
%TD*%
%TO.P,C102,2*%
%TO.N,GND*%
%TA.AperFunction,SMDPad,CuDef*%
G36*
G01*
X-40887701Y-40026100D02*
X-39587699Y-40026100D01*
G75*
G02*
X-39337700Y-40276099I0J-249999D01*
G01*
X-39337700Y-40926101D01*
G75*
G02*
X-39587699Y-41176100I-249999J0D01*
G01*
X-40887701Y-41176100D01*
G75*
G02*
X-41137700Y-40926101I0J249999D01*
G01*
X-41137700Y-40276099D01*
G75*
G02*
X-40887701Y-40026100I249999J0D01*
G01*
G37*
%TD.AperFunction*%
%TO.P,C102,1*%
%TO.N,Net-(C102-Pad1)*%
%TA.AperFunction,SMDPad,CuDef*%
G36*
G01*
X-40887701Y-37076100D02*
X-39587699Y-37076100D01*
G75*
G02*
X-39337700Y-37326099I0J-249999D01*
G01*
X-39337700Y-37976101D01*
G75*
G02*
X-39587699Y-38226100I-249999J0D01*
G01*
X-40887701Y-38226100D01*
G75*
G02*
X-41137700Y-37976101I0J249999D01*
G01*
X-41137700Y-37326099D01*
G75*
G02*
X-40887701Y-37076100I249999J0D01*
G01*
G37*
%TD.AperFunction*%
%TD*%
%TO.P,C101,2*%
%TO.N,GND*%
%TA.AperFunction,SMDPad,CuDef*%
G36*
G01*
X-46687600Y-39593699D02*
X-46687600Y-40893701D01*
G75*
G02*
X-46937599Y-41143700I-249999J0D01*
G01*
X-47587601Y-41143700D01*
G75*
G02*
X-47837600Y-40893701I0J249999D01*
G01*
X-47837600Y-39593699D01*
G75*
G02*
X-47587601Y-39343700I249999J0D01*
G01*
X-46937599Y-39343700D01*
G75*
G02*
X-46687600Y-39593699I0J-249999D01*
G01*
G37*
%TD.AperFunction*%
%TO.P,C101,1*%
%TO.N,Net-(C101-Pad1)*%
%TA.AperFunction,SMDPad,CuDef*%
G36*
G01*
X-43737600Y-39593699D02*
X-43737600Y-40893701D01*
G75*
G02*
X-43987599Y-41143700I-249999J0D01*
G01*
X-44637601Y-41143700D01*
G75*
G02*
X-44887600Y-40893701I0J249999D01*
G01*
X-44887600Y-39593699D01*
G75*
G02*
X-44637601Y-39343700I249999J0D01*
G01*
X-43987599Y-39343700D01*
G75*
G02*
X-43737600Y-39593699I0J-249999D01*
G01*
G37*
%TD.AperFunction*%
%TD*%
D12*
%TO.P,TP116,1*%
%TO.N,/Inhib_in*%
X-18710000Y-30140000D03*
%TD*%
%TO.P,TP110,1*%
%TO.N,I2C_DATA*%
X-70500000Y-21120000D03*
%TD*%
%TO.P,TP109,1*%
%TO.N,InhibV+*%
X-18140000Y-35590000D03*
%TD*%
%TO.P,TP108,1*%
%TO.N,I2C_CLK*%
X-67720000Y-20190000D03*
%TD*%
%TO.P,TP107,1*%
%TO.N,GND*%
X-8300000Y-26800000D03*
%TD*%
%TO.P,TP106,1*%
%TO.N,Net-(D204-Pad6)*%
X-28230000Y-19660000D03*
%TD*%
%TO.P,TP105,1*%
%TO.N,+3V3*%
X-9350000Y-12670000D03*
%TD*%
%TO.P,TP104,1*%
%TO.N,USB_Charge*%
X-26770000Y-15310000D03*
%TD*%
%TO.P,TP103,1*%
%TO.N,Net-(SW201-Pad1)*%
X-13770000Y-65230000D03*
%TD*%
%TO.P,TP102,1*%
%TO.N,+5V*%
X-24870000Y-54640000D03*
%TD*%
%TO.P,TP101,1*%
%TO.N,+BATT*%
X-35490000Y-48450000D03*
%TD*%
D13*
%TO.P,J202,5*%
%TO.N,Net-(BT201-Pad2)*%
X-5310000Y-24920000D03*
%TO.P,J202,4*%
%TO.N,InhibV+*%
X-5310000Y-23670000D03*
%TO.P,J202,3*%
%TO.N,Net-(J202-Pad3)*%
X-5310000Y-22420000D03*
%TO.P,J202,2*%
%TO.N,Net-(D204-Pad6)*%
X-5310000Y-21170000D03*
%TO.P,J202,1*%
%TO.N,USB_Charge*%
%TA.AperFunction,ComponentPad*%
G36*
G01*
X-5785000Y-19470000D02*
X-4835000Y-19470000D01*
G75*
G02*
X-4610000Y-19695000I0J-225000D01*
G01*
X-4610000Y-20145000D01*
G75*
G02*
X-4835000Y-20370000I-225000J0D01*
G01*
X-5785000Y-20370000D01*
G75*
G02*
X-6010000Y-20145000I0J225000D01*
G01*
X-6010000Y-19695000D01*
G75*
G02*
X-5785000Y-19470000I225000J0D01*
G01*
G37*
%TD.AperFunction*%
%TD*%
%TO.P,R110,2*%
%TO.N,+5V*%
%TA.AperFunction,SMDPad,CuDef*%
G36*
G01*
X-23119998Y-47690000D02*
X-24020002Y-47690000D01*
G75*
G02*
X-24270000Y-47440002I0J249998D01*
G01*
X-24270000Y-46914998D01*
G75*
G02*
X-24020002Y-46665000I249998J0D01*
G01*
X-23119998Y-46665000D01*
G75*
G02*
X-22870000Y-46914998I0J-249998D01*
G01*
X-22870000Y-47440002D01*
G75*
G02*
X-23119998Y-47690000I-249998J0D01*
G01*
G37*
%TD.AperFunction*%
%TO.P,R110,1*%
%TO.N,Net-(D204-Pad2)*%
%TA.AperFunction,SMDPad,CuDef*%
G36*
G01*
X-23119998Y-49515000D02*
X-24020002Y-49515000D01*
G75*
G02*
X-24270000Y-49265002I0J249998D01*
G01*
X-24270000Y-48739998D01*
G75*
G02*
X-24020002Y-48490000I249998J0D01*
G01*
X-23119998Y-48490000D01*
G75*
G02*
X-22870000Y-48739998I0J-249998D01*
G01*
X-22870000Y-49265002D01*
G75*
G02*
X-23119998Y-49515000I-249998J0D01*
G01*
G37*
%TD.AperFunction*%
%TD*%
%TO.P,R109,2*%
%TO.N,GND*%
%TA.AperFunction,SMDPad,CuDef*%
G36*
G01*
X-27350002Y-62058000D02*
X-26449998Y-62058000D01*
G75*
G02*
X-26200000Y-62307998I0J-249998D01*
G01*
X-26200000Y-62833002D01*
G75*
G02*
X-26449998Y-63083000I-249998J0D01*
G01*
X-27350002Y-63083000D01*
G75*
G02*
X-27600000Y-62833002I0J249998D01*
G01*
X-27600000Y-62307998D01*
G75*
G02*
X-27350002Y-62058000I249998J0D01*
G01*
G37*
%TD.AperFunction*%
%TO.P,R109,1*%
%TO.N,InhibV+*%
%TA.AperFunction,SMDPad,CuDef*%
G36*
G01*
X-27350002Y-60233000D02*
X-26449998Y-60233000D01*
G75*
G02*
X-26200000Y-60482998I0J-249998D01*
G01*
X-26200000Y-61008002D01*
G75*
G02*
X-26449998Y-61258000I-249998J0D01*
G01*
X-27350002Y-61258000D01*
G75*
G02*
X-27600000Y-61008002I0J249998D01*
G01*
X-27600000Y-60482998D01*
G75*
G02*
X-27350002Y-60233000I249998J0D01*
G01*
G37*
%TD.AperFunction*%
%TD*%
%TO.P,R106,2*%
%TO.N,GND*%
%TA.AperFunction,SMDPad,CuDef*%
G36*
G01*
X-38110000Y-52089998D02*
X-38110000Y-52990002D01*
G75*
G02*
X-38359998Y-53240000I-249998J0D01*
G01*
X-38885002Y-53240000D01*
G75*
G02*
X-39135000Y-52990002I0J249998D01*
G01*
X-39135000Y-52089998D01*
G75*
G02*
X-38885002Y-51840000I249998J0D01*
G01*
X-38359998Y-51840000D01*
G75*
G02*
X-38110000Y-52089998I0J-249998D01*
G01*
G37*
%TD.AperFunction*%
%TO.P,R106,1*%
%TO.N,/Inhib_in*%
%TA.AperFunction,SMDPad,CuDef*%
G36*
G01*
X-36285000Y-52089998D02*
X-36285000Y-52990002D01*
G75*
G02*
X-36534998Y-53240000I-249998J0D01*
G01*
X-37060002Y-53240000D01*
G75*
G02*
X-37310000Y-52990002I0J249998D01*
G01*
X-37310000Y-52089998D01*
G75*
G02*
X-37060002Y-51840000I249998J0D01*
G01*
X-36534998Y-51840000D01*
G75*
G02*
X-36285000Y-52089998I0J-249998D01*
G01*
G37*
%TD.AperFunction*%
%TD*%
D14*
%TO.P,BT203,1*%
%TO.N,A*%
X-21630000Y-64510000D03*
%TO.P,BT203,2*%
%TO.N,Net-(BT201-Pad2)*%
X-21630000Y-93810000D03*
%TD*%
D15*
%TO.P,J207,52*%
%TO.N,Net-(J207-Pad52)*%
X-12620000Y-7350000D03*
%TO.P,J207,51*%
%TO.N,Net-(J207-Pad51)*%
X-12620000Y-4810000D03*
%TO.P,J207,50*%
%TO.N,Net-(J207-Pad50)*%
X-15160000Y-7350000D03*
%TO.P,J207,49*%
%TO.N,Net-(J207-Pad49)*%
X-15160000Y-4810000D03*
%TO.P,J207,48*%
%TO.N,Net-(J207-Pad48)*%
X-17700000Y-7350000D03*
%TO.P,J207,47*%
%TO.N,Net-(J207-Pad47)*%
X-17700000Y-4810000D03*
%TO.P,J207,46*%
%TO.N,Net-(J207-Pad46)*%
X-20240000Y-7350000D03*
%TO.P,J207,45*%
%TO.N,Net-(J207-Pad45)*%
X-20240000Y-4810000D03*
%TO.P,J207,44*%
%TO.N,Net-(J207-Pad44)*%
X-22780000Y-7350000D03*
%TO.P,J207,43*%
%TO.N,Net-(J207-Pad43)*%
X-22780000Y-4810000D03*
%TO.P,J207,42*%
%TO.N,Net-(J207-Pad42)*%
X-25320000Y-7350000D03*
%TO.P,J207,41*%
%TO.N,Net-(J207-Pad41)*%
X-25320000Y-4810000D03*
%TO.P,J207,40*%
%TO.N,Net-(J207-Pad40)*%
X-27860000Y-7350000D03*
%TO.P,J207,39*%
%TO.N,Net-(J207-Pad39)*%
X-27860000Y-4810000D03*
%TO.P,J207,38*%
%TO.N,Net-(J207-Pad38)*%
X-30400000Y-7350000D03*
%TO.P,J207,37*%
%TO.N,Net-(J207-Pad37)*%
X-30400000Y-4810000D03*
%TO.P,J207,36*%
%TO.N,Net-(J207-Pad36)*%
X-32940000Y-7350000D03*
%TO.P,J207,35*%
%TO.N,Net-(J207-Pad35)*%
X-32940000Y-4810000D03*
%TO.P,J207,34*%
%TO.N,Net-(J207-Pad34)*%
X-35480000Y-7350000D03*
%TO.P,J207,33*%
%TO.N,Net-(J207-Pad33)*%
X-35480000Y-4810000D03*
%TO.P,J207,32*%
%TO.N,GND*%
X-38020000Y-7350000D03*
%TO.P,J207,31*%
%TO.N,Net-(J207-Pad31)*%
X-38020000Y-4810000D03*
%TO.P,J207,30*%
%TO.N,GND*%
X-40560000Y-7350000D03*
%TO.P,J207,29*%
X-40560000Y-4810000D03*
%TO.P,J207,28*%
%TO.N,+3V3*%
X-43100000Y-7350000D03*
%TO.P,J207,27*%
X-43100000Y-4810000D03*
%TO.P,J207,26*%
%TO.N,+5V*%
X-45640000Y-7350000D03*
%TO.P,J207,25*%
X-45640000Y-4810000D03*
%TO.P,J207,24*%
%TO.N,Net-(J207-Pad24)*%
X-48180000Y-7350000D03*
%TO.P,J207,23*%
%TO.N,Net-(J207-Pad23)*%
X-48180000Y-4810000D03*
%TO.P,J207,22*%
%TO.N,Net-(J207-Pad22)*%
X-50720000Y-7350000D03*
%TO.P,J207,21*%
%TO.N,Net-(J207-Pad21)*%
X-50720000Y-4810000D03*
%TO.P,J207,20*%
%TO.N,Net-(J207-Pad20)*%
X-53260000Y-7350000D03*
%TO.P,J207,19*%
%TO.N,Net-(J207-Pad19)*%
X-53260000Y-4810000D03*
%TO.P,J207,18*%
%TO.N,Net-(J207-Pad18)*%
X-55800000Y-7350000D03*
%TO.P,J207,17*%
%TO.N,Net-(J207-Pad17)*%
X-55800000Y-4810000D03*
%TO.P,J207,16*%
%TO.N,Net-(J207-Pad16)*%
X-58340000Y-7350000D03*
%TO.P,J207,15*%
%TO.N,Net-(J207-Pad15)*%
X-58340000Y-4810000D03*
%TO.P,J207,14*%
%TO.N,Net-(J207-Pad14)*%
X-60880000Y-7350000D03*
%TO.P,J207,13*%
%TO.N,Net-(J207-Pad13)*%
X-60880000Y-4810000D03*
%TO.P,J207,12*%
%TO.N,Net-(J207-Pad12)*%
X-63420000Y-7350000D03*
%TO.P,J207,11*%
%TO.N,Net-(J207-Pad11)*%
X-63420000Y-4810000D03*
%TO.P,J207,10*%
%TO.N,Net-(J207-Pad10)*%
X-65960000Y-7350000D03*
%TO.P,J207,9*%
%TO.N,Net-(J207-Pad9)*%
X-65960000Y-4810000D03*
%TO.P,J207,8*%
%TO.N,Net-(J207-Pad8)*%
X-68500000Y-7350000D03*
%TO.P,J207,7*%
%TO.N,Net-(J207-Pad7)*%
X-68500000Y-4810000D03*
%TO.P,J207,6*%
%TO.N,Net-(J207-Pad6)*%
X-71040000Y-7350000D03*
%TO.P,J207,5*%
%TO.N,Net-(J207-Pad5)*%
X-71040000Y-4810000D03*
%TO.P,J207,4*%
%TO.N,Net-(J207-Pad4)*%
X-73580000Y-7350000D03*
%TO.P,J207,3*%
%TO.N,Net-(J207-Pad3)*%
X-73580000Y-4810000D03*
%TO.P,J207,2*%
%TO.N,Net-(J207-Pad2)*%
X-76120000Y-7350000D03*
D16*
%TO.P,J207,1*%
%TO.N,Net-(J207-Pad1)*%
X-76120000Y-4810000D03*
%TD*%
%TO.P,R215,2*%
%TO.N,Net-(Q204-Pad1)*%
%TA.AperFunction,SMDPad,CuDef*%
G36*
G01*
X-77060798Y-39182100D02*
X-77960802Y-39182100D01*
G75*
G02*
X-78210800Y-38932102I0J249998D01*
G01*
X-78210800Y-38407098D01*
G75*
G02*
X-77960802Y-38157100I249998J0D01*
G01*
X-77060798Y-38157100D01*
G75*
G02*
X-76810800Y-38407098I0J-249998D01*
G01*
X-76810800Y-38932102D01*
G75*
G02*
X-77060798Y-39182100I-249998J0D01*
G01*
G37*
%TD.AperFunction*%
%TO.P,R215,1*%
%TO.N,/Inhib_in*%
%TA.AperFunction,SMDPad,CuDef*%
G36*
G01*
X-77060798Y-41007100D02*
X-77960802Y-41007100D01*
G75*
G02*
X-78210800Y-40757102I0J249998D01*
G01*
X-78210800Y-40232098D01*
G75*
G02*
X-77960802Y-39982100I249998J0D01*
G01*
X-77060798Y-39982100D01*
G75*
G02*
X-76810800Y-40232098I0J-249998D01*
G01*
X-76810800Y-40757102D01*
G75*
G02*
X-77060798Y-41007100I-249998J0D01*
G01*
G37*
%TD.AperFunction*%
%TD*%
D17*
%TO.P,Q206,3*%
%TO.N,Net-(Q206-Pad3)*%
X-80322600Y-42077800D03*
%TO.P,Q206,2*%
%TO.N,GND*%
X-81272600Y-39077800D03*
%TO.P,Q206,1*%
%TO.N,Net-(Q206-Pad1)*%
X-79372600Y-39077800D03*
%TD*%
%TO.P,Q204,3*%
%TO.N,Net-(Q204-Pad3)*%
X-9479000Y-54966000D03*
%TO.P,Q204,2*%
%TO.N,GND*%
X-8529000Y-57966000D03*
%TO.P,Q204,1*%
%TO.N,Net-(Q204-Pad1)*%
X-10429000Y-57966000D03*
%TD*%
%TO.P,R210,2*%
%TO.N,GND*%
%TA.AperFunction,SMDPad,CuDef*%
G36*
G01*
X-11862000Y-43021998D02*
X-11862000Y-43922002D01*
G75*
G02*
X-12111998Y-44172000I-249998J0D01*
G01*
X-12637002Y-44172000D01*
G75*
G02*
X-12887000Y-43922002I0J249998D01*
G01*
X-12887000Y-43021998D01*
G75*
G02*
X-12637002Y-42772000I249998J0D01*
G01*
X-12111998Y-42772000D01*
G75*
G02*
X-11862000Y-43021998I0J-249998D01*
G01*
G37*
%TD.AperFunction*%
%TO.P,R210,1*%
%TO.N,Net-(R210-Pad1)*%
%TA.AperFunction,SMDPad,CuDef*%
G36*
G01*
X-10037000Y-43021998D02*
X-10037000Y-43922002D01*
G75*
G02*
X-10286998Y-44172000I-249998J0D01*
G01*
X-10812002Y-44172000D01*
G75*
G02*
X-11062000Y-43922002I0J249998D01*
G01*
X-11062000Y-43021998D01*
G75*
G02*
X-10812002Y-42772000I249998J0D01*
G01*
X-10286998Y-42772000D01*
G75*
G02*
X-10037000Y-43021998I0J-249998D01*
G01*
G37*
%TD.AperFunction*%
%TD*%
D15*
%TO.P,J208,52*%
%TO.N,Net-(J208-Pad52)*%
X-12620000Y-12620000D03*
%TO.P,J208,51*%
%TO.N,Net-(J208-Pad51)*%
X-12620000Y-10080000D03*
%TO.P,J208,50*%
%TO.N,Net-(J208-Pad50)*%
X-15160000Y-12620000D03*
%TO.P,J208,49*%
%TO.N,Net-(J208-Pad49)*%
X-15160000Y-10080000D03*
%TO.P,J208,48*%
%TO.N,Net-(J208-Pad48)*%
X-17700000Y-12620000D03*
%TO.P,J208,47*%
%TO.N,Net-(J208-Pad47)*%
X-17700000Y-10080000D03*
%TO.P,J208,46*%
%TO.N,Net-(J208-Pad46)*%
X-20240000Y-12620000D03*
%TO.P,J208,45*%
%TO.N,Net-(J208-Pad45)*%
X-20240000Y-10080000D03*
%TO.P,J208,44*%
%TO.N,I2C_CLK*%
X-22780000Y-12620000D03*
%TO.P,J208,43*%
%TO.N,Net-(J208-Pad43)*%
X-22780000Y-10080000D03*
%TO.P,J208,42*%
%TO.N,I2C_DATA*%
X-25320000Y-12620000D03*
%TO.P,J208,41*%
%TO.N,Net-(J208-Pad41)*%
X-25320000Y-10080000D03*
%TO.P,J208,40*%
%TO.N,Net-(J208-Pad40)*%
X-27860000Y-12620000D03*
%TO.P,J208,39*%
%TO.N,Net-(J208-Pad39)*%
X-27860000Y-10080000D03*
%TO.P,J208,38*%
%TO.N,Net-(J208-Pad38)*%
X-30400000Y-12620000D03*
%TO.P,J208,37*%
%TO.N,Net-(J208-Pad37)*%
X-30400000Y-10080000D03*
%TO.P,J208,36*%
%TO.N,Net-(J208-Pad36)*%
X-32940000Y-12620000D03*
%TO.P,J208,35*%
%TO.N,Net-(J208-Pad35)*%
X-32940000Y-10080000D03*
%TO.P,J208,34*%
%TO.N,Net-(J208-Pad34)*%
X-35480000Y-12620000D03*
%TO.P,J208,33*%
%TO.N,Net-(J208-Pad33)*%
X-35480000Y-10080000D03*
%TO.P,J208,32*%
%TO.N,Net-(J208-Pad32)*%
X-38020000Y-12620000D03*
%TO.P,J208,31*%
%TO.N,USB_Charge*%
X-38020000Y-10080000D03*
%TO.P,J208,30*%
%TO.N,Net-(J208-Pad30)*%
X-40560000Y-12620000D03*
%TO.P,J208,29*%
%TO.N,Net-(J208-Pad29)*%
X-40560000Y-10080000D03*
%TO.P,J208,28*%
%TO.N,Net-(J208-Pad28)*%
X-43100000Y-12620000D03*
%TO.P,J208,27*%
%TO.N,Net-(J208-Pad27)*%
X-43100000Y-10080000D03*
%TO.P,J208,26*%
%TO.N,Net-(J208-Pad26)*%
X-45640000Y-12620000D03*
%TO.P,J208,25*%
%TO.N,Net-(J208-Pad25)*%
X-45640000Y-10080000D03*
%TO.P,J208,24*%
%TO.N,Net-(J208-Pad24)*%
X-48180000Y-12620000D03*
%TO.P,J208,23*%
%TO.N,Net-(J208-Pad23)*%
X-48180000Y-10080000D03*
%TO.P,J208,22*%
%TO.N,Net-(J208-Pad22)*%
X-50720000Y-12620000D03*
%TO.P,J208,21*%
%TO.N,Net-(J208-Pad21)*%
X-50720000Y-10080000D03*
%TO.P,J208,20*%
%TO.N,Net-(J208-Pad20)*%
X-53260000Y-12620000D03*
%TO.P,J208,19*%
%TO.N,Net-(J208-Pad19)*%
X-53260000Y-10080000D03*
%TO.P,J208,18*%
%TO.N,Net-(J208-Pad18)*%
X-55800000Y-12620000D03*
%TO.P,J208,17*%
%TO.N,Net-(J208-Pad17)*%
X-55800000Y-10080000D03*
%TO.P,J208,16*%
%TO.N,Net-(J208-Pad16)*%
X-58340000Y-12620000D03*
%TO.P,J208,15*%
%TO.N,Net-(J208-Pad15)*%
X-58340000Y-10080000D03*
%TO.P,J208,14*%
%TO.N,Net-(J208-Pad14)*%
X-60880000Y-12620000D03*
%TO.P,J208,13*%
%TO.N,Net-(J208-Pad13)*%
X-60880000Y-10080000D03*
%TO.P,J208,12*%
%TO.N,Net-(J208-Pad12)*%
X-63420000Y-12620000D03*
%TO.P,J208,11*%
%TO.N,Net-(J208-Pad11)*%
X-63420000Y-10080000D03*
%TO.P,J208,10*%
%TO.N,Net-(J208-Pad10)*%
X-65960000Y-12620000D03*
%TO.P,J208,9*%
%TO.N,Net-(J208-Pad9)*%
X-65960000Y-10080000D03*
%TO.P,J208,8*%
%TO.N,Net-(J208-Pad8)*%
X-68500000Y-12620000D03*
%TO.P,J208,7*%
%TO.N,Net-(J208-Pad7)*%
X-68500000Y-10080000D03*
%TO.P,J208,6*%
%TO.N,Net-(J208-Pad6)*%
X-71040000Y-12620000D03*
%TO.P,J208,5*%
%TO.N,Net-(J208-Pad5)*%
X-71040000Y-10080000D03*
%TO.P,J208,4*%
%TO.N,Net-(J208-Pad4)*%
X-73580000Y-12620000D03*
%TO.P,J208,3*%
%TO.N,Net-(J208-Pad3)*%
X-73580000Y-10080000D03*
%TO.P,J208,2*%
%TO.N,Net-(J208-Pad2)*%
X-76120000Y-12620000D03*
D16*
%TO.P,J208,1*%
%TO.N,Net-(J208-Pad1)*%
X-76120000Y-10080000D03*
%TD*%
D18*
%TO.P,H102,1*%
%TO.N,N/C*%
X-7650000Y-5070000D03*
D19*
X-7650000Y-5070000D03*
%TD*%
D20*
%TO.P,D204,6*%
%TO.N,Net-(D204-Pad6)*%
X-30230000Y-45630000D03*
%TO.P,D204,5*%
%TO.N,Inhib_EN*%
X-29580000Y-45630000D03*
%TO.P,D204,4*%
%TO.N,+5V*%
X-28930000Y-45630000D03*
%TO.P,D204,3*%
%TO.N,/Inhib_in*%
X-28930000Y-48290000D03*
%TO.P,D204,2*%
%TO.N,Net-(D204-Pad2)*%
X-29580000Y-48290000D03*
%TO.P,D204,1*%
%TO.N,+BATT*%
X-30230000Y-48290000D03*
%TD*%
%TO.P,R211,2*%
%TO.N,Net-(Q206-Pad1)*%
%TA.AperFunction,SMDPad,CuDef*%
G36*
G01*
X-12740002Y-57864000D02*
X-11839998Y-57864000D01*
G75*
G02*
X-11590000Y-58113998I0J-249998D01*
G01*
X-11590000Y-58639002D01*
G75*
G02*
X-11839998Y-58889000I-249998J0D01*
G01*
X-12740002Y-58889000D01*
G75*
G02*
X-12990000Y-58639002I0J249998D01*
G01*
X-12990000Y-58113998D01*
G75*
G02*
X-12740002Y-57864000I249998J0D01*
G01*
G37*
%TD.AperFunction*%
%TO.P,R211,1*%
%TO.N,/Inhib_in*%
%TA.AperFunction,SMDPad,CuDef*%
G36*
G01*
X-12740002Y-56039000D02*
X-11839998Y-56039000D01*
G75*
G02*
X-11590000Y-56288998I0J-249998D01*
G01*
X-11590000Y-56814002D01*
G75*
G02*
X-11839998Y-57064000I-249998J0D01*
G01*
X-12740002Y-57064000D01*
G75*
G02*
X-12990000Y-56814002I0J249998D01*
G01*
X-12990000Y-56288998D01*
G75*
G02*
X-12740002Y-56039000I249998J0D01*
G01*
G37*
%TD.AperFunction*%
%TD*%
%TO.P,R214,2*%
%TO.N,Net-(Q205-Pad3)*%
%TA.AperFunction,SMDPad,CuDef*%
G36*
G01*
X-6456998Y-33028200D02*
X-7357002Y-33028200D01*
G75*
G02*
X-7607000Y-32778202I0J249998D01*
G01*
X-7607000Y-32253198D01*
G75*
G02*
X-7357002Y-32003200I249998J0D01*
G01*
X-6456998Y-32003200D01*
G75*
G02*
X-6207000Y-32253198I0J-249998D01*
G01*
X-6207000Y-32778202D01*
G75*
G02*
X-6456998Y-33028200I-249998J0D01*
G01*
G37*
%TD.AperFunction*%
%TO.P,R214,1*%
%TO.N,Net-(R214-Pad1)*%
%TA.AperFunction,SMDPad,CuDef*%
G36*
G01*
X-6456998Y-34853200D02*
X-7357002Y-34853200D01*
G75*
G02*
X-7607000Y-34603202I0J249998D01*
G01*
X-7607000Y-34078198D01*
G75*
G02*
X-7357002Y-33828200I249998J0D01*
G01*
X-6456998Y-33828200D01*
G75*
G02*
X-6207000Y-34078198I0J-249998D01*
G01*
X-6207000Y-34603202D01*
G75*
G02*
X-6456998Y-34853200I-249998J0D01*
G01*
G37*
%TD.AperFunction*%
%TD*%
%TO.P,U260,4*%
%TO.N,Net-(J206-Pad1)*%
%TA.AperFunction,SMDPad,CuDef*%
G36*
G01*
X-82350100Y-36610000D02*
X-82350100Y-36885000D01*
G75*
G02*
X-82487600Y-37022500I-137500J0D01*
G01*
X-83662600Y-37022500D01*
G75*
G02*
X-83800100Y-36885000I0J137500D01*
G01*
X-83800100Y-36610000D01*
G75*
G02*
X-83662600Y-36472500I137500J0D01*
G01*
X-82487600Y-36472500D01*
G75*
G02*
X-82350100Y-36610000I0J-137500D01*
G01*
G37*
%TD.AperFunction*%
%TO.P,U260,3*%
%TO.N,Net-(J206-Pad2)*%
%TA.AperFunction,SMDPad,CuDef*%
G36*
G01*
X-82350100Y-34070000D02*
X-82350100Y-34345000D01*
G75*
G02*
X-82487600Y-34482500I-137500J0D01*
G01*
X-83662600Y-34482500D01*
G75*
G02*
X-83800100Y-34345000I0J137500D01*
G01*
X-83800100Y-34070000D01*
G75*
G02*
X-83662600Y-33932500I137500J0D01*
G01*
X-82487600Y-33932500D01*
G75*
G02*
X-82350100Y-34070000I0J-137500D01*
G01*
G37*
%TD.AperFunction*%
%TO.P,U260,2*%
%TO.N,Net-(R216-Pad1)*%
%TA.AperFunction,SMDPad,CuDef*%
G36*
G01*
X-76850100Y-34070000D02*
X-76850100Y-34345000D01*
G75*
G02*
X-76987600Y-34482500I-137500J0D01*
G01*
X-78162600Y-34482500D01*
G75*
G02*
X-78300100Y-34345000I0J137500D01*
G01*
X-78300100Y-34070000D01*
G75*
G02*
X-78162600Y-33932500I137500J0D01*
G01*
X-76987600Y-33932500D01*
G75*
G02*
X-76850100Y-34070000I0J-137500D01*
G01*
G37*
%TD.AperFunction*%
%TO.P,U260,1*%
%TO.N,InhibV+*%
%TA.AperFunction,SMDPad,CuDef*%
G36*
G01*
X-76850100Y-36610000D02*
X-76850100Y-36885000D01*
G75*
G02*
X-76987600Y-37022500I-137500J0D01*
G01*
X-78162600Y-37022500D01*
G75*
G02*
X-78300100Y-36885000I0J137500D01*
G01*
X-78300100Y-36610000D01*
G75*
G02*
X-78162600Y-36472500I137500J0D01*
G01*
X-76987600Y-36472500D01*
G75*
G02*
X-76850100Y-36610000I0J-137500D01*
G01*
G37*
%TD.AperFunction*%
%TD*%
%TO.P,U240,4*%
%TO.N,Net-(J204-Pad1)*%
%TA.AperFunction,SMDPad,CuDef*%
G36*
G01*
X-7471000Y-60519500D02*
X-7471000Y-60244500D01*
G75*
G02*
X-7333500Y-60107000I137500J0D01*
G01*
X-6158500Y-60107000D01*
G75*
G02*
X-6021000Y-60244500I0J-137500D01*
G01*
X-6021000Y-60519500D01*
G75*
G02*
X-6158500Y-60657000I-137500J0D01*
G01*
X-7333500Y-60657000D01*
G75*
G02*
X-7471000Y-60519500I0J137500D01*
G01*
G37*
%TD.AperFunction*%
%TO.P,U240,3*%
%TO.N,Net-(J204-Pad2)*%
%TA.AperFunction,SMDPad,CuDef*%
G36*
G01*
X-7471000Y-63059500D02*
X-7471000Y-62784500D01*
G75*
G02*
X-7333500Y-62647000I137500J0D01*
G01*
X-6158500Y-62647000D01*
G75*
G02*
X-6021000Y-62784500I0J-137500D01*
G01*
X-6021000Y-63059500D01*
G75*
G02*
X-6158500Y-63197000I-137500J0D01*
G01*
X-7333500Y-63197000D01*
G75*
G02*
X-7471000Y-63059500I0J137500D01*
G01*
G37*
%TD.AperFunction*%
%TO.P,U240,2*%
%TO.N,Net-(R212-Pad1)*%
%TA.AperFunction,SMDPad,CuDef*%
G36*
G01*
X-12971000Y-63059500D02*
X-12971000Y-62784500D01*
G75*
G02*
X-12833500Y-62647000I137500J0D01*
G01*
X-11658500Y-62647000D01*
G75*
G02*
X-11521000Y-62784500I0J-137500D01*
G01*
X-11521000Y-63059500D01*
G75*
G02*
X-11658500Y-63197000I-137500J0D01*
G01*
X-12833500Y-63197000D01*
G75*
G02*
X-12971000Y-63059500I0J137500D01*
G01*
G37*
%TD.AperFunction*%
%TO.P,U240,1*%
%TO.N,InhibV+*%
%TA.AperFunction,SMDPad,CuDef*%
G36*
G01*
X-12971000Y-60519500D02*
X-12971000Y-60244500D01*
G75*
G02*
X-12833500Y-60107000I137500J0D01*
G01*
X-11658500Y-60107000D01*
G75*
G02*
X-11521000Y-60244500I0J-137500D01*
G01*
X-11521000Y-60519500D01*
G75*
G02*
X-11658500Y-60657000I-137500J0D01*
G01*
X-12833500Y-60657000D01*
G75*
G02*
X-12971000Y-60519500I0J137500D01*
G01*
G37*
%TD.AperFunction*%
%TD*%
%TO.P,R213,2*%
%TO.N,Net-(Q205-Pad1)*%
%TA.AperFunction,SMDPad,CuDef*%
G36*
G01*
X-12938002Y-33838300D02*
X-12037998Y-33838300D01*
G75*
G02*
X-11788000Y-34088298I0J-249998D01*
G01*
X-11788000Y-34613302D01*
G75*
G02*
X-12037998Y-34863300I-249998J0D01*
G01*
X-12938002Y-34863300D01*
G75*
G02*
X-13188000Y-34613302I0J249998D01*
G01*
X-13188000Y-34088298D01*
G75*
G02*
X-12938002Y-33838300I249998J0D01*
G01*
G37*
%TD.AperFunction*%
%TO.P,R213,1*%
%TO.N,/Inhib_in*%
%TA.AperFunction,SMDPad,CuDef*%
G36*
G01*
X-12938002Y-32013300D02*
X-12037998Y-32013300D01*
G75*
G02*
X-11788000Y-32263298I0J-249998D01*
G01*
X-11788000Y-32788302D01*
G75*
G02*
X-12037998Y-33038300I-249998J0D01*
G01*
X-12938002Y-33038300D01*
G75*
G02*
X-13188000Y-32788302I0J249998D01*
G01*
X-13188000Y-32263298D01*
G75*
G02*
X-12938002Y-32013300I249998J0D01*
G01*
G37*
%TD.AperFunction*%
%TD*%
%TO.P,R216,2*%
%TO.N,Net-(Q204-Pad3)*%
%TA.AperFunction,SMDPad,CuDef*%
G36*
G01*
X-83564002Y-39969400D02*
X-82663998Y-39969400D01*
G75*
G02*
X-82414000Y-40219398I0J-249998D01*
G01*
X-82414000Y-40744402D01*
G75*
G02*
X-82663998Y-40994400I-249998J0D01*
G01*
X-83564002Y-40994400D01*
G75*
G02*
X-83814000Y-40744402I0J249998D01*
G01*
X-83814000Y-40219398D01*
G75*
G02*
X-83564002Y-39969400I249998J0D01*
G01*
G37*
%TD.AperFunction*%
%TO.P,R216,1*%
%TO.N,Net-(R216-Pad1)*%
%TA.AperFunction,SMDPad,CuDef*%
G36*
G01*
X-83564002Y-38144400D02*
X-82663998Y-38144400D01*
G75*
G02*
X-82414000Y-38394398I0J-249998D01*
G01*
X-82414000Y-38919402D01*
G75*
G02*
X-82663998Y-39169400I-249998J0D01*
G01*
X-83564002Y-39169400D01*
G75*
G02*
X-83814000Y-38919402I0J249998D01*
G01*
X-83814000Y-38394398D01*
G75*
G02*
X-83564002Y-38144400I249998J0D01*
G01*
G37*
%TD.AperFunction*%
%TD*%
%TO.P,U250,4*%
%TO.N,Net-(J205-Pad1)*%
%TA.AperFunction,SMDPad,CuDef*%
G36*
G01*
X-7712000Y-36354600D02*
X-7712000Y-36079600D01*
G75*
G02*
X-7574500Y-35942100I137500J0D01*
G01*
X-6399500Y-35942100D01*
G75*
G02*
X-6262000Y-36079600I0J-137500D01*
G01*
X-6262000Y-36354600D01*
G75*
G02*
X-6399500Y-36492100I-137500J0D01*
G01*
X-7574500Y-36492100D01*
G75*
G02*
X-7712000Y-36354600I0J137500D01*
G01*
G37*
%TD.AperFunction*%
%TO.P,U250,3*%
%TO.N,Net-(J205-Pad2)*%
%TA.AperFunction,SMDPad,CuDef*%
G36*
G01*
X-7712000Y-38894600D02*
X-7712000Y-38619600D01*
G75*
G02*
X-7574500Y-38482100I137500J0D01*
G01*
X-6399500Y-38482100D01*
G75*
G02*
X-6262000Y-38619600I0J-137500D01*
G01*
X-6262000Y-38894600D01*
G75*
G02*
X-6399500Y-39032100I-137500J0D01*
G01*
X-7574500Y-39032100D01*
G75*
G02*
X-7712000Y-38894600I0J137500D01*
G01*
G37*
%TD.AperFunction*%
%TO.P,U250,2*%
%TO.N,Net-(R214-Pad1)*%
%TA.AperFunction,SMDPad,CuDef*%
G36*
G01*
X-13212000Y-38894600D02*
X-13212000Y-38619600D01*
G75*
G02*
X-13074500Y-38482100I137500J0D01*
G01*
X-11899500Y-38482100D01*
G75*
G02*
X-11762000Y-38619600I0J-137500D01*
G01*
X-11762000Y-38894600D01*
G75*
G02*
X-11899500Y-39032100I-137500J0D01*
G01*
X-13074500Y-39032100D01*
G75*
G02*
X-13212000Y-38894600I0J137500D01*
G01*
G37*
%TD.AperFunction*%
%TO.P,U250,1*%
%TO.N,InhibV+*%
%TA.AperFunction,SMDPad,CuDef*%
G36*
G01*
X-13212000Y-36354600D02*
X-13212000Y-36079600D01*
G75*
G02*
X-13074500Y-35942100I137500J0D01*
G01*
X-11899500Y-35942100D01*
G75*
G02*
X-11762000Y-36079600I0J-137500D01*
G01*
X-11762000Y-36354600D01*
G75*
G02*
X-11899500Y-36492100I-137500J0D01*
G01*
X-13074500Y-36492100D01*
G75*
G02*
X-13212000Y-36354600I0J137500D01*
G01*
G37*
%TD.AperFunction*%
%TD*%
%TO.P,R212,2*%
%TO.N,Net-(Q206-Pad3)*%
%TA.AperFunction,SMDPad,CuDef*%
G36*
G01*
X-6223998Y-57084000D02*
X-7124002Y-57084000D01*
G75*
G02*
X-7374000Y-56834002I0J249998D01*
G01*
X-7374000Y-56308998D01*
G75*
G02*
X-7124002Y-56059000I249998J0D01*
G01*
X-6223998Y-56059000D01*
G75*
G02*
X-5974000Y-56308998I0J-249998D01*
G01*
X-5974000Y-56834002D01*
G75*
G02*
X-6223998Y-57084000I-249998J0D01*
G01*
G37*
%TD.AperFunction*%
%TO.P,R212,1*%
%TO.N,Net-(R212-Pad1)*%
%TA.AperFunction,SMDPad,CuDef*%
G36*
G01*
X-6223998Y-58909000D02*
X-7124002Y-58909000D01*
G75*
G02*
X-7374000Y-58659002I0J249998D01*
G01*
X-7374000Y-58133998D01*
G75*
G02*
X-7124002Y-57884000I249998J0D01*
G01*
X-6223998Y-57884000D01*
G75*
G02*
X-5974000Y-58133998I0J-249998D01*
G01*
X-5974000Y-58659002D01*
G75*
G02*
X-6223998Y-58909000I-249998J0D01*
G01*
G37*
%TD.AperFunction*%
%TD*%
D17*
%TO.P,Q205,3*%
%TO.N,Net-(Q205-Pad3)*%
X-9704000Y-30917200D03*
%TO.P,Q205,2*%
%TO.N,GND*%
X-8754000Y-33917200D03*
%TO.P,Q205,1*%
%TO.N,Net-(Q205-Pad1)*%
X-10654000Y-33917200D03*
%TD*%
%TO.P,U230,4*%
%TO.N,Net-(J203-Pad1)*%
%TA.AperFunction,SMDPad,CuDef*%
G36*
G01*
X-9437000Y-45895500D02*
X-9437000Y-45620500D01*
G75*
G02*
X-9299500Y-45483000I137500J0D01*
G01*
X-8124500Y-45483000D01*
G75*
G02*
X-7987000Y-45620500I0J-137500D01*
G01*
X-7987000Y-45895500D01*
G75*
G02*
X-8124500Y-46033000I-137500J0D01*
G01*
X-9299500Y-46033000D01*
G75*
G02*
X-9437000Y-45895500I0J137500D01*
G01*
G37*
%TD.AperFunction*%
%TO.P,U230,3*%
%TO.N,Net-(J203-Pad2)*%
%TA.AperFunction,SMDPad,CuDef*%
G36*
G01*
X-9437000Y-48435500D02*
X-9437000Y-48160500D01*
G75*
G02*
X-9299500Y-48023000I137500J0D01*
G01*
X-8124500Y-48023000D01*
G75*
G02*
X-7987000Y-48160500I0J-137500D01*
G01*
X-7987000Y-48435500D01*
G75*
G02*
X-8124500Y-48573000I-137500J0D01*
G01*
X-9299500Y-48573000D01*
G75*
G02*
X-9437000Y-48435500I0J137500D01*
G01*
G37*
%TD.AperFunction*%
%TO.P,U230,2*%
%TO.N,Net-(R210-Pad1)*%
%TA.AperFunction,SMDPad,CuDef*%
G36*
G01*
X-14937000Y-48435500D02*
X-14937000Y-48160500D01*
G75*
G02*
X-14799500Y-48023000I137500J0D01*
G01*
X-13624500Y-48023000D01*
G75*
G02*
X-13487000Y-48160500I0J-137500D01*
G01*
X-13487000Y-48435500D01*
G75*
G02*
X-13624500Y-48573000I-137500J0D01*
G01*
X-14799500Y-48573000D01*
G75*
G02*
X-14937000Y-48435500I0J137500D01*
G01*
G37*
%TD.AperFunction*%
%TO.P,U230,1*%
%TO.N,InhibV+*%
%TA.AperFunction,SMDPad,CuDef*%
G36*
G01*
X-14937000Y-45895500D02*
X-14937000Y-45620500D01*
G75*
G02*
X-14799500Y-45483000I137500J0D01*
G01*
X-13624500Y-45483000D01*
G75*
G02*
X-13487000Y-45620500I0J-137500D01*
G01*
X-13487000Y-45895500D01*
G75*
G02*
X-13624500Y-46033000I-137500J0D01*
G01*
X-14799500Y-46033000D01*
G75*
G02*
X-14937000Y-45895500I0J137500D01*
G01*
G37*
%TD.AperFunction*%
%TD*%
%TO.P,J201,1*%
%TO.N,+3V3*%
%TA.AperFunction,ComponentPad*%
G36*
G01*
X-86040000Y-17170000D02*
X-85140000Y-17170000D01*
G75*
G02*
X-84940000Y-17370000I0J-200000D01*
G01*
X-84940000Y-17770000D01*
G75*
G02*
X-85140000Y-17970000I-200000J0D01*
G01*
X-86040000Y-17970000D01*
G75*
G02*
X-86240000Y-17770000I0J200000D01*
G01*
X-86240000Y-17370000D01*
G75*
G02*
X-86040000Y-17170000I200000J0D01*
G01*
G37*
%TD.AperFunction*%
D21*
%TO.P,J201,2*%
X-85590000Y-18820000D03*
%TO.P,J201,3*%
%TO.N,I2C_DATA*%
X-85590000Y-20070000D03*
%TO.P,J201,4*%
%TO.N,I2C_CLK*%
X-85590000Y-21320000D03*
%TO.P,J201,5*%
%TO.N,GND*%
X-85590000Y-22570000D03*
%TO.P,J201,6*%
X-85590000Y-23820000D03*
%TO.P,J201,7*%
X-85590000Y-25070000D03*
%TD*%
%TO.P,SW201,1*%
%TO.N,Net-(SW201-Pad1)*%
%TA.AperFunction,ComponentPad*%
G36*
G01*
X-9815000Y-66950000D02*
X-8865000Y-66950000D01*
G75*
G02*
X-8640000Y-67175000I0J-225000D01*
G01*
X-8640000Y-67625000D01*
G75*
G02*
X-8865000Y-67850000I-225000J0D01*
G01*
X-9815000Y-67850000D01*
G75*
G02*
X-10040000Y-67625000I0J225000D01*
G01*
X-10040000Y-67175000D01*
G75*
G02*
X-9815000Y-66950000I225000J0D01*
G01*
G37*
%TD.AperFunction*%
D13*
%TO.P,SW201,2*%
%TO.N,+BATT*%
X-9340000Y-68650000D03*
%TD*%
D18*
%TO.P,H103,1*%
%TO.N,N/C*%
X-5120000Y-90760000D03*
D19*
X-5120000Y-90760000D03*
%TD*%
D13*
%TO.P,SW206,2*%
%TO.N,GND*%
X-6140000Y-78220000D03*
%TO.P,SW206,1*%
%TO.N,Net-(J202-Pad3)*%
%TA.AperFunction,ComponentPad*%
G36*
G01*
X-5665000Y-79920000D02*
X-6615000Y-79920000D01*
G75*
G02*
X-6840000Y-79695000I0J225000D01*
G01*
X-6840000Y-79245000D01*
G75*
G02*
X-6615000Y-79020000I225000J0D01*
G01*
X-5665000Y-79020000D01*
G75*
G02*
X-5440000Y-79245000I0J-225000D01*
G01*
X-5440000Y-79695000D01*
G75*
G02*
X-5665000Y-79920000I-225000J0D01*
G01*
G37*
%TD.AperFunction*%
%TD*%
D22*
%TO.P,SW202,1*%
%TO.N,Net-(SW201-Pad1)*%
X-8060000Y-73040000D03*
D13*
%TO.P,SW202,2*%
%TO.N,+BATT*%
X-8060000Y-74290000D03*
%TD*%
D23*
%TO.P,J203,3*%
%TO.N,Net-(J203-Pad3)*%
X-5292000Y-46150000D03*
%TO.P,J203,2*%
%TO.N,Net-(J203-Pad2)*%
X-5292000Y-47400000D03*
%TO.P,J203,1*%
%TO.N,Net-(J203-Pad1)*%
X-5292000Y-48650000D03*
D24*
%TO.P,J203,MP*%
%TO.N,N/C*%
X-2592000Y-50900000D03*
X-2592000Y-43900000D03*
%TD*%
D13*
%TO.P,J205,2*%
%TO.N,Net-(J205-Pad2)*%
X-2996000Y-37672800D03*
%TO.P,J205,1*%
%TO.N,Net-(J205-Pad1)*%
%TA.AperFunction,ComponentPad*%
G36*
G01*
X-3471000Y-35972800D02*
X-2521000Y-35972800D01*
G75*
G02*
X-2296000Y-36197800I0J-225000D01*
G01*
X-2296000Y-36647800D01*
G75*
G02*
X-2521000Y-36872800I-225000J0D01*
G01*
X-3471000Y-36872800D01*
G75*
G02*
X-3696000Y-36647800I0J225000D01*
G01*
X-3696000Y-36197800D01*
G75*
G02*
X-3471000Y-35972800I225000J0D01*
G01*
G37*
%TD.AperFunction*%
%TD*%
%TO.P,SW204,2*%
%TO.N,Net-(SW201-Pad1)*%
X-82090000Y-73040000D03*
D22*
%TO.P,SW204,1*%
%TO.N,A*%
X-82090000Y-74290000D03*
%TD*%
D13*
%TO.P,SW203,2*%
%TO.N,Net-(SW201-Pad1)*%
X-81820000Y-66530000D03*
D22*
%TO.P,SW203,1*%
%TO.N,A*%
X-81820000Y-67780000D03*
%TD*%
D14*
%TO.P,BT201,1*%
%TO.N,A*%
X-69130000Y-64510000D03*
%TO.P,BT201,2*%
%TO.N,Net-(BT201-Pad2)*%
X-69130000Y-93810000D03*
%TD*%
D13*
%TO.P,SW205,2*%
%TO.N,GND*%
X-84680000Y-79460000D03*
%TO.P,SW205,1*%
%TO.N,Net-(J202-Pad3)*%
%TA.AperFunction,ComponentPad*%
G36*
G01*
X-85155000Y-77760000D02*
X-84205000Y-77760000D01*
G75*
G02*
X-83980000Y-77985000I0J-225000D01*
G01*
X-83980000Y-78435000D01*
G75*
G02*
X-84205000Y-78660000I-225000J0D01*
G01*
X-85155000Y-78660000D01*
G75*
G02*
X-85380000Y-78435000I0J225000D01*
G01*
X-85380000Y-77985000D01*
G75*
G02*
X-85155000Y-77760000I225000J0D01*
G01*
G37*
%TD.AperFunction*%
%TD*%
D14*
%TO.P,BT202,1*%
%TO.N,A*%
X-45610000Y-64280000D03*
%TO.P,BT202,2*%
%TO.N,Net-(BT201-Pad2)*%
X-45610000Y-93580000D03*
%TD*%
D18*
%TO.P,H104,1*%
%TO.N,N/C*%
X-85120000Y-90860000D03*
D19*
X-85120000Y-90860000D03*
%TD*%
%TO.P,J206,1*%
%TO.N,Net-(J206-Pad1)*%
%TA.AperFunction,ComponentPad*%
G36*
G01*
X-86564700Y-36484900D02*
X-87514700Y-36484900D01*
G75*
G02*
X-87739700Y-36259900I0J225000D01*
G01*
X-87739700Y-35809900D01*
G75*
G02*
X-87514700Y-35584900I225000J0D01*
G01*
X-86564700Y-35584900D01*
G75*
G02*
X-86339700Y-35809900I0J-225000D01*
G01*
X-86339700Y-36259900D01*
G75*
G02*
X-86564700Y-36484900I-225000J0D01*
G01*
G37*
%TD.AperFunction*%
D13*
%TO.P,J206,2*%
%TO.N,Net-(J206-Pad2)*%
X-87039700Y-34784900D03*
%TD*%
%TO.P,J204,2*%
%TO.N,Net-(J204-Pad2)*%
X-2808000Y-62027000D03*
D22*
%TO.P,J204,1*%
%TO.N,Net-(J204-Pad1)*%
X-2808000Y-60777000D03*
%TD*%
D18*
%TO.P,H101,1*%
%TO.N,N/C*%
X-81270000Y-5070000D03*
D19*
X-81270000Y-5070000D03*
%TD*%
D25*
%TO.N,+BATT*%
X-30489140Y-49867720D03*
%TO.N,InhibV+*%
X-26875100Y-59366700D03*
X-75701400Y-36740600D03*
%TO.N,Net-(D204-Pad6)*%
X-30555900Y-43529800D03*
%TO.N,GND*%
X-8298000Y-25554700D03*
X-26800900Y-63724900D03*
X-40164500Y-39180500D03*
X-81567100Y-41103700D03*
X-8630500Y-32104800D03*
X-45787600Y-40257800D03*
X-52342900Y-31645700D03*
X-9274400Y-59912800D03*
X-67257000Y-52399200D03*
X-63496500Y-56794000D03*
X-52942600Y-39507100D03*
X-49013400Y-31827500D03*
X-41012300Y-52669300D03*
X-12212700Y-44815500D03*
%TO.N,+5V*%
X-27972800Y-22652600D03*
%TD*%
D26*
%TO.N,I2C_CLK*%
X-85590000Y-21320000D02*
X-73163500Y-21320000D01*
X-73163500Y-21320000D02*
X-72033500Y-20190000D01*
X-72033500Y-20190000D02*
X-67720000Y-20190000D01*
X-22780000Y-12620000D02*
X-23955300Y-12620000D01*
X-67720000Y-20190000D02*
X-59160400Y-20190000D01*
X-59160400Y-20190000D02*
X-51895400Y-12925000D01*
X-51895400Y-12925000D02*
X-51895400Y-12039000D01*
X-51895400Y-12039000D02*
X-51301100Y-11444700D01*
X-51301100Y-11444700D02*
X-24763200Y-11444700D01*
X-24763200Y-11444700D02*
X-23955300Y-12252600D01*
X-23955300Y-12252600D02*
X-23955300Y-12620000D01*
%TO.N,I2C_DATA*%
X-70500000Y-21120000D02*
X-70500000Y-21945300D01*
X-85590000Y-20070000D02*
X-86565300Y-20070000D01*
X-86565300Y-20070000D02*
X-86565300Y-25403500D01*
X-86565300Y-25403500D02*
X-86147800Y-25821000D01*
X-86147800Y-25821000D02*
X-74375700Y-25821000D01*
X-74375700Y-25821000D02*
X-70500000Y-21945300D01*
X-25320000Y-12620000D02*
X-26495300Y-12620000D01*
X-26495300Y-12620000D02*
X-26495300Y-12919900D01*
X-26495300Y-12919900D02*
X-31103700Y-17528300D01*
X-31103700Y-17528300D02*
X-52650300Y-17528300D01*
X-52650300Y-17528300D02*
X-56242000Y-21120000D01*
X-56242000Y-21120000D02*
X-70500000Y-21120000D01*
D27*
%TO.N,+BATT*%
X-39510000Y-47489000D02*
X-39361400Y-47637600D01*
X-39510000Y-43873300D02*
X-39510000Y-47489000D01*
X-36302400Y-47637600D02*
X-35490000Y-48450000D01*
X-39361400Y-47637600D02*
X-36302400Y-47637600D01*
X-30390000Y-48450000D02*
X-30230000Y-48290000D01*
X-35490000Y-48450000D02*
X-30390000Y-48450000D01*
X-30230000Y-49608580D02*
X-30489140Y-49867720D01*
X-30230000Y-48290000D02*
X-30230000Y-49608580D01*
D26*
%TO.N,Net-(J203-Pad2)*%
X-5292000Y-47400000D02*
X-7814000Y-47400000D01*
X-7814000Y-47400000D02*
X-8712000Y-48298000D01*
%TO.N,Net-(J203-Pad1)*%
X-5292000Y-48650000D02*
X-6517300Y-48650000D01*
X-6517300Y-48650000D02*
X-6785300Y-48918000D01*
X-6785300Y-48918000D02*
X-9478400Y-48918000D01*
X-9478400Y-48918000D02*
X-9797300Y-48599100D01*
X-9797300Y-48599100D02*
X-9797300Y-46843300D01*
X-9797300Y-46843300D02*
X-8712000Y-45758000D01*
%TO.N,Net-(J204-Pad2)*%
X-2808000Y-62027000D02*
X-5851000Y-62027000D01*
X-5851000Y-62027000D02*
X-6746000Y-62922000D01*
%TO.N,Net-(J204-Pad1)*%
X-2808000Y-60777000D02*
X-3833300Y-60777000D01*
X-3833300Y-60777000D02*
X-4228300Y-60382000D01*
X-4228300Y-60382000D02*
X-6746000Y-60382000D01*
%TO.N,Net-(J205-Pad2)*%
X-2996000Y-37672800D02*
X-2996000Y-38448100D01*
X-2996000Y-38448100D02*
X-6678000Y-38448100D01*
X-6678000Y-38448100D02*
X-6987000Y-38757100D01*
%TO.N,Net-(J205-Pad1)*%
X-2996000Y-36422800D02*
X-3201700Y-36217100D01*
X-3201700Y-36217100D02*
X-6987000Y-36217100D01*
%TO.N,Net-(J206-Pad1)*%
X-87039700Y-36034900D02*
X-83787700Y-36034900D01*
X-83787700Y-36034900D02*
X-83075100Y-36747500D01*
%TO.N,Net-(J206-Pad2)*%
X-87039700Y-34784900D02*
X-86014400Y-34784900D01*
X-86014400Y-34784900D02*
X-85437000Y-34207500D01*
X-85437000Y-34207500D02*
X-83075100Y-34207500D01*
D28*
%TO.N,InhibV+*%
X-5310000Y-23670000D02*
X-7686500Y-23670000D01*
X-7686500Y-23670000D02*
X-10609100Y-26592600D01*
X-10609100Y-26592600D02*
X-10609100Y-32097800D01*
X-10609100Y-32097800D02*
X-10240100Y-32466800D01*
X-10240100Y-32466800D02*
X-9978800Y-32466800D01*
X-9978800Y-32466800D02*
X-9753600Y-32692000D01*
X-9753600Y-32692000D02*
X-9753600Y-35093400D01*
X-9753600Y-35093400D02*
X-10877300Y-36217100D01*
X-10877300Y-36217100D02*
X-12487000Y-36217100D01*
X-14212000Y-36454100D02*
X-13975000Y-36217100D01*
X-13975000Y-36217100D02*
X-12487000Y-36217100D01*
X-16739700Y-35590000D02*
X-15875600Y-36454100D01*
X-15875600Y-36454100D02*
X-14212000Y-36454100D01*
X-14212000Y-45758000D02*
X-14212000Y-36454100D01*
X-26536500Y-60382000D02*
X-26900000Y-60745500D01*
X-12246000Y-60382000D02*
X-26536500Y-60382000D01*
X-26875100Y-59366700D02*
X-26875100Y-60043400D01*
X-26875100Y-60043400D02*
X-26536500Y-60382000D01*
X-75701400Y-36740600D02*
X-77568200Y-36740600D01*
X-77568200Y-36740600D02*
X-77575100Y-36747500D01*
X-18140000Y-35590000D02*
X-16739700Y-35590000D01*
D26*
%TO.N,Net-(Q204-Pad3)*%
X-9479000Y-54966000D02*
X-6719800Y-54966000D01*
X-6719800Y-54966000D02*
X-1773500Y-59912300D01*
X-1773500Y-59912300D02*
X-1773500Y-62378900D01*
X-1773500Y-62378900D02*
X-2917500Y-63522900D01*
X-2917500Y-63522900D02*
X-14995400Y-63522900D01*
X-14995400Y-63522900D02*
X-26563100Y-75090600D01*
X-26563100Y-75090600D02*
X-82902000Y-75090600D01*
X-82902000Y-75090600D02*
X-83129100Y-74863500D01*
X-83129100Y-74863500D02*
X-83129100Y-40497000D01*
X-83129100Y-40497000D02*
X-83114000Y-40481900D01*
%TO.N,Net-(Q204-Pad1)*%
X-10429000Y-57966000D02*
X-11154300Y-57966000D01*
X-11154300Y-57966000D02*
X-11593600Y-57526700D01*
X-11593600Y-57526700D02*
X-38626500Y-57526700D01*
X-38626500Y-57526700D02*
X-40823900Y-59724100D01*
X-40823900Y-59724100D02*
X-66964100Y-59724100D01*
X-66964100Y-59724100D02*
X-78572100Y-48116100D01*
X-78572100Y-48116100D02*
X-78572100Y-39730900D01*
X-78572100Y-39730900D02*
X-77510800Y-38669600D01*
%TO.N,Net-(Q205-Pad1)*%
X-10654000Y-33917200D02*
X-12054400Y-33917200D01*
X-12054400Y-33917200D02*
X-12488000Y-34350800D01*
%TO.N,Net-(Q206-Pad3)*%
X-80322600Y-42077800D02*
X-80322600Y-47649700D01*
X-80322600Y-47649700D02*
X-66332600Y-61639700D01*
X-66332600Y-61639700D02*
X-12107700Y-61639700D01*
X-12107700Y-61639700D02*
X-9479000Y-59011000D01*
X-9479000Y-59011000D02*
X-9479000Y-57053200D01*
X-9479000Y-57053200D02*
X-8997300Y-56571500D01*
X-8997300Y-56571500D02*
X-6674000Y-56571500D01*
%TO.N,Net-(Q206-Pad1)*%
X-12290000Y-58376500D02*
X-28564000Y-58376500D01*
X-28564000Y-58376500D02*
X-30362000Y-60174500D01*
X-30362000Y-60174500D02*
X-67156100Y-60174500D01*
X-67156100Y-60174500D02*
X-79372600Y-47958000D01*
X-79372600Y-47958000D02*
X-79372600Y-39077800D01*
%TO.N,Net-(R210-Pad1)*%
X-14212000Y-48298000D02*
X-10549500Y-44635500D01*
X-10549500Y-44635500D02*
X-10549500Y-43472000D01*
D28*
%TO.N,A*%
X-21630000Y-64510000D02*
X-23930300Y-64510000D01*
X-45610000Y-64280000D02*
X-43309700Y-64280000D01*
X-43309700Y-64280000D02*
X-42923900Y-64665800D01*
X-42923900Y-64665800D02*
X-24086100Y-64665800D01*
X-24086100Y-64665800D02*
X-23930300Y-64510000D01*
X-66829700Y-64510000D02*
X-66599700Y-64280000D01*
X-66599700Y-64280000D02*
X-45610000Y-64280000D01*
X-69130000Y-64510000D02*
X-66829700Y-64510000D01*
X-80889700Y-67780000D02*
X-81820000Y-67780000D01*
X-69130000Y-66310300D02*
X-70599700Y-67780000D01*
X-70599700Y-67780000D02*
X-80889700Y-67780000D01*
X-80889700Y-67780000D02*
X-80889700Y-74290000D01*
X-82090000Y-74290000D02*
X-80889700Y-74290000D01*
X-69130000Y-64510000D02*
X-69130000Y-66310300D01*
D26*
%TO.N,Net-(D102-Pad1)*%
X-48176200Y-37116900D02*
X-48409900Y-37116900D01*
X-43459900Y-33306900D02*
X-43841200Y-33306900D01*
X-43841200Y-33306900D02*
X-47651200Y-37116900D01*
X-47651200Y-37116900D02*
X-48176200Y-37116900D01*
X-46816300Y-47924700D02*
X-48176200Y-46564800D01*
X-48176200Y-46564800D02*
X-48176200Y-37116900D01*
X-46816300Y-48700000D02*
X-46816300Y-47924700D01*
X-42315400Y-32473200D02*
X-42626200Y-32473200D01*
X-42626200Y-32473200D02*
X-43459900Y-33306900D01*
X-60908200Y-34104500D02*
X-59692000Y-32888300D01*
X-59692000Y-32888300D02*
X-54334200Y-32888300D01*
X-54334200Y-32888300D02*
X-53832800Y-33389700D01*
X-53832800Y-33389700D02*
X-53832800Y-35093500D01*
X-53832800Y-35093500D02*
X-52446700Y-36479600D01*
X-52446700Y-36479600D02*
X-49047200Y-36479600D01*
X-49047200Y-36479600D02*
X-48409900Y-37116900D01*
X-42315400Y-32473200D02*
X-40214800Y-32473200D01*
X-42315400Y-32473200D02*
X-42315400Y-30015700D01*
%TO.N,Net-(D204-Pad6)*%
X-30230000Y-45630000D02*
X-30230000Y-44554700D01*
X-30230000Y-44554700D02*
X-30555900Y-44228800D01*
X-30555900Y-44228800D02*
X-30555900Y-43529800D01*
X-5310000Y-21170000D02*
X-27545300Y-21170000D01*
X-27545300Y-21170000D02*
X-28230000Y-20485300D01*
X-28230000Y-19660000D02*
X-28230000Y-20485300D01*
%TO.N,Net-(D204-Pad2)*%
X-29580000Y-48290000D02*
X-29580000Y-47214700D01*
X-23570000Y-49002500D02*
X-25357800Y-47214700D01*
X-25357800Y-47214700D02*
X-29580000Y-47214700D01*
%TO.N,Net-(J202-Pad3)*%
X-5310000Y-22420000D02*
X-4284700Y-22420000D01*
X-6140000Y-79470000D02*
X-5975200Y-79470000D01*
X-5975200Y-79470000D02*
X-2967100Y-76461900D01*
X-2967100Y-76461900D02*
X-2967100Y-66201800D01*
X-2967100Y-66201800D02*
X-612900Y-63847600D01*
X-612900Y-63847600D02*
X-612900Y-32544300D01*
X-612900Y-32544300D02*
X-4284700Y-28872500D01*
X-4284700Y-28872500D02*
X-4284700Y-22420000D01*
%TO.N,Net-(BT201-Pad2)*%
X-22692600Y-93810000D02*
X-22692600Y-84499600D01*
X-22692600Y-84499600D02*
X-1078600Y-62885600D01*
X-1078600Y-62885600D02*
X-1078600Y-35333300D01*
X-1078600Y-35333300D02*
X-5310000Y-31101900D01*
X-5310000Y-31101900D02*
X-5310000Y-24920000D01*
X-22692600Y-93810000D02*
X-23755300Y-93810000D01*
X-21630000Y-93810000D02*
X-22692600Y-93810000D01*
X-45610000Y-93580000D02*
X-23985300Y-93580000D01*
X-23985300Y-93580000D02*
X-23755300Y-93810000D01*
X-67004700Y-93810000D02*
X-66774700Y-93580000D01*
X-66774700Y-93580000D02*
X-45610000Y-93580000D01*
X-69130000Y-93810000D02*
X-67004700Y-93810000D01*
%TO.N,GND*%
X-8298000Y-25554700D02*
X-8300000Y-25556700D01*
X-8300000Y-25556700D02*
X-8300000Y-26800000D01*
X-26800900Y-63724900D02*
X-26900000Y-63625800D01*
X-26900000Y-63625800D02*
X-26900000Y-62570500D01*
X-40164500Y-39180500D02*
X-40237700Y-39253700D01*
X-40237700Y-39253700D02*
X-40237700Y-40601100D01*
X-81272600Y-39077800D02*
X-81272600Y-40353100D01*
X-81567100Y-41103700D02*
X-81567100Y-40647600D01*
X-81567100Y-40647600D02*
X-81272600Y-40353100D01*
X-8754000Y-33917200D02*
X-8754000Y-32641900D01*
X-8630500Y-32104800D02*
X-8630500Y-32518400D01*
X-8630500Y-32518400D02*
X-8754000Y-32641900D01*
X-8529000Y-59241300D02*
X-8602900Y-59241300D01*
X-8602900Y-59241300D02*
X-9274400Y-59912800D01*
X-45787600Y-40257800D02*
X-47248500Y-40257800D01*
X-47248500Y-40257800D02*
X-47262600Y-40243700D01*
X-52342900Y-31645700D02*
X-52608200Y-31911000D01*
X-52608200Y-31911000D02*
X-52608200Y-33042700D01*
X-8529000Y-57966000D02*
X-8529000Y-59241300D01*
X-67257000Y-52399200D02*
X-67369200Y-52287000D01*
X-67369200Y-52287000D02*
X-67369200Y-50688000D01*
X-63496500Y-56794000D02*
X-63151000Y-56448500D01*
X-63151000Y-56448500D02*
X-63151000Y-55383000D01*
X-52942600Y-39507100D02*
X-52599800Y-39849900D01*
X-52599800Y-39849900D02*
X-52599800Y-41057100D01*
X-49013400Y-31827500D02*
X-48409900Y-32431000D01*
X-48409900Y-32431000D02*
X-48409900Y-33306900D01*
X-48409900Y-34576900D02*
X-48409900Y-33306900D01*
X-41012300Y-52669300D02*
X-38751800Y-52669300D01*
X-38751800Y-52669300D02*
X-38622500Y-52540000D01*
X-12212700Y-44815500D02*
X-12374500Y-44653700D01*
X-12374500Y-44653700D02*
X-12374500Y-43472000D01*
D28*
%TO.N,+5V*%
X-28626300Y-45328100D02*
X-25419400Y-45328100D01*
X-25419400Y-45328100D02*
X-23570000Y-47177500D01*
X-28628100Y-45328100D02*
X-28626300Y-45328100D01*
D29*
X-28626300Y-45326300D02*
X-28626300Y-45328100D01*
X-28628100Y-45328100D02*
X-28930000Y-45630000D01*
D28*
X-28626300Y-23306100D02*
X-27972800Y-22652600D01*
X-43582800Y-20900400D02*
X-41177100Y-23306100D01*
X-41177100Y-23306100D02*
X-28626300Y-23306100D01*
X-28626300Y-23306100D02*
X-28626300Y-45326300D01*
X-43582800Y-19950100D02*
X-43582800Y-20900400D01*
X-24870000Y-54640000D02*
X-24870000Y-53639700D01*
X-24870000Y-53639700D02*
X-22338000Y-51107700D01*
X-22338000Y-51107700D02*
X-22338000Y-48409500D01*
X-22338000Y-48409500D02*
X-23570000Y-47177500D01*
D26*
%TO.N,Net-(C103-Pad1)*%
X-56277800Y-47966000D02*
X-54768400Y-49475400D01*
X-54768400Y-49475400D02*
X-46044900Y-49475400D01*
X-46044900Y-49475400D02*
X-44665800Y-48096300D01*
X-44665800Y-48096300D02*
X-44665800Y-45929100D01*
X-44665800Y-45929100D02*
X-42610000Y-43873300D01*
X-60133500Y-47879600D02*
X-56364200Y-47879600D01*
X-56364200Y-47879600D02*
X-56277800Y-47966000D01*
X-71997800Y-50404300D02*
X-71331500Y-49738000D01*
X-71331500Y-49738000D02*
X-65369200Y-49738000D01*
X-65369200Y-49012700D02*
X-64236100Y-47879600D01*
X-64236100Y-47879600D02*
X-60133500Y-47879600D01*
X-65369200Y-49738000D02*
X-65369200Y-49012700D01*
D28*
%TO.N,/Inhib_in*%
X-19593900Y-55647300D02*
X-19593900Y-32024200D01*
X-19593900Y-32024200D02*
X-18710000Y-31140300D01*
X-12290000Y-56551500D02*
X-18689700Y-56551500D01*
X-18689700Y-56551500D02*
X-19593900Y-55647300D01*
X-30011600Y-51659000D02*
X-26023300Y-55647300D01*
X-26023300Y-55647300D02*
X-19593900Y-55647300D01*
X-18710000Y-30140000D02*
X-18710000Y-31140300D01*
X-12488000Y-32525800D02*
X-13873500Y-31140300D01*
X-13873500Y-31140300D02*
X-18710000Y-31140300D01*
X-30011600Y-51659000D02*
X-30892600Y-52540000D01*
X-30892600Y-52540000D02*
X-36797500Y-52540000D01*
X-28879600Y-48290000D02*
X-28879600Y-50527000D01*
X-28879600Y-50527000D02*
X-30011600Y-51659000D01*
D29*
X-28879600Y-48290000D02*
X-28930000Y-48290000D01*
D28*
X-36797500Y-52540000D02*
X-43356000Y-59098500D01*
X-43356000Y-59098500D02*
X-66678400Y-59098500D01*
X-66678400Y-59098500D02*
X-77510800Y-48266100D01*
X-77510800Y-48266100D02*
X-77510800Y-40494600D01*
%TO.N,+3V3*%
X-43100000Y-7350000D02*
X-43100000Y-6160300D01*
X-85590000Y-17570000D02*
X-85590000Y-17131000D01*
X-85590000Y-17131000D02*
X-77174000Y-8715000D01*
X-77174000Y-8715000D02*
X-44465000Y-8715000D01*
X-44465000Y-8715000D02*
X-43100000Y-7350000D01*
X-43100000Y-4810000D02*
X-43100000Y-6160300D01*
X-85590000Y-18820000D02*
X-85590000Y-17570000D01*
X-43100000Y-4810000D02*
X-41732900Y-3442900D01*
X-41732900Y-3442900D02*
X-12076800Y-3442900D01*
X-12076800Y-3442900D02*
X-11269600Y-4250100D01*
X-11269600Y-4250100D02*
X-11269600Y-7581700D01*
X-11269600Y-7581700D02*
X-9350000Y-9501300D01*
X-9350000Y-9501300D02*
X-9350000Y-12670000D01*
%TO.N,USB_Charge*%
X-11262600Y-13970400D02*
X-26430700Y-13970400D01*
X-26430700Y-13970400D02*
X-26770000Y-14309700D01*
X-5310000Y-19920000D02*
X-11259600Y-13970400D01*
X-11259600Y-13970400D02*
X-11262600Y-13970400D01*
X-38020000Y-10080000D02*
X-36656800Y-8716800D01*
X-36656800Y-8716800D02*
X-12064700Y-8716800D01*
X-12064700Y-8716800D02*
X-11262600Y-9518900D01*
X-11262600Y-9518900D02*
X-11262600Y-13970400D01*
X-26770000Y-15310000D02*
X-26770000Y-14309700D01*
D26*
%TO.N,Net-(SW201-Pad1)*%
X-9340000Y-67400000D02*
X-11510000Y-65230000D01*
X-11510000Y-65230000D02*
X-13770000Y-65230000D01*
D29*
%TO.N,Inhib_EN*%
X-29580000Y-41350600D02*
X-29580000Y-45630000D01*
D28*
X-42315400Y-26915700D02*
X-29580000Y-39651100D01*
X-29580000Y-39651100D02*
X-29580000Y-41350600D01*
X-43582800Y-25648300D02*
X-42315400Y-26915700D01*
X-63735700Y-39042200D02*
X-63318600Y-39459400D01*
X-43582800Y-25648300D02*
X-54758900Y-25648300D01*
X-54758900Y-25648300D02*
X-64719700Y-35609100D01*
X-64719700Y-35609100D02*
X-64719700Y-38058300D01*
X-64719700Y-38058300D02*
X-63735700Y-39042200D01*
X-71997800Y-47304300D02*
X-63735700Y-39042200D01*
X-43582800Y-25648300D02*
X-43582800Y-24200400D01*
X-43582800Y-23250100D02*
X-43582800Y-24200400D01*
X-52599800Y-37957100D02*
X-61816300Y-37957100D01*
X-61816300Y-37957100D02*
X-63318600Y-39459400D01*
D26*
%TO.N,Net-(R212-Pad1)*%
X-12246000Y-62922000D02*
X-11199500Y-62922000D01*
X-11199500Y-62922000D02*
X-6674000Y-58396500D01*
%TO.N,Net-(R214-Pad1)*%
X-12487000Y-38757100D02*
X-11323400Y-38757100D01*
X-11323400Y-38757100D02*
X-6907000Y-34340700D01*
%TO.N,Net-(R216-Pad1)*%
X-77575100Y-34207500D02*
X-78664600Y-34207500D01*
X-78664600Y-34207500D02*
X-83114000Y-38656900D01*
%TO.N,Net-(Q205-Pad3)*%
X-6907000Y-32515700D02*
X-8505500Y-30917200D01*
X-8505500Y-30917200D02*
X-8978700Y-30917200D01*
X-9704000Y-30917200D02*
X-8978700Y-30917200D01*
%TO.N,Net-(C101-Pad1)*%
X-43459900Y-37116900D02*
X-44312600Y-37969600D01*
X-44312600Y-37969600D02*
X-44312600Y-40243700D01*
%TO.N,Net-(C102-Pad1)*%
X-43459900Y-35596100D02*
X-43459900Y-34576900D01*
X-43459900Y-35846900D02*
X-43459900Y-35596100D01*
X-43459900Y-35596100D02*
X-40237700Y-35596100D01*
X-40237700Y-35596100D02*
X-40214800Y-35573200D01*
X-40237700Y-37651100D02*
X-40237700Y-35596100D01*
%TO.N,Net-(Q101-Pad1)*%
X-52608200Y-34942700D02*
X-52608200Y-35668000D01*
X-48409900Y-35846900D02*
X-52429300Y-35846900D01*
X-52429300Y-35846900D02*
X-52608200Y-35668000D01*
%TO.N,Net-(C103-Pad2)*%
X-63151000Y-52283000D02*
X-64352400Y-53484400D01*
X-64352400Y-53484400D02*
X-64352400Y-56533900D01*
X-64352400Y-56533900D02*
X-65754500Y-57936000D01*
X-60133500Y-50872800D02*
X-61740800Y-50872800D01*
X-61740800Y-50872800D02*
X-63151000Y-52283000D01*
X-56277800Y-50916000D02*
X-60090300Y-50916000D01*
X-60090300Y-50916000D02*
X-60133500Y-50872800D01*
X-60133500Y-50872800D02*
X-60133500Y-50829600D01*
%TO.N,Net-(D102-Pad2)*%
X-46816300Y-52000000D02*
X-46816300Y-51224700D01*
X-46816300Y-51224700D02*
X-46048500Y-51224700D01*
X-46048500Y-51224700D02*
X-42461400Y-47637600D01*
%TO.N,Net-(Q101-Pad3)*%
X-57808200Y-34104500D02*
X-60063100Y-36359400D01*
X-60063100Y-36359400D02*
X-63318600Y-36359400D01*
X-54608200Y-33992700D02*
X-57696400Y-33992700D01*
X-57696400Y-33992700D02*
X-57808200Y-34104500D01*
%TO.N,Net-(Q102-Pad1)*%
X-65369200Y-51638000D02*
X-65369200Y-52363300D01*
X-65369200Y-52363300D02*
X-65754500Y-52748600D01*
X-65754500Y-52748600D02*
X-65754500Y-54836000D01*
%TD*%
D30*
%TO.N,+BATT*%
X-6648072Y-19904218D02*
X-6648072Y-20145000D01*
X-6631488Y-20313377D01*
X-6602178Y-20410000D01*
X-26743609Y-20410000D01*
X-26740498Y-20404180D01*
X-26704188Y-20284482D01*
X-26691928Y-20160000D01*
X-26691928Y-19160000D01*
X-26704188Y-19035518D01*
X-26740498Y-18915820D01*
X-26799463Y-18805506D01*
X-26878815Y-18708815D01*
X-26975506Y-18629463D01*
X-27085820Y-18570498D01*
X-27205518Y-18534188D01*
X-27330000Y-18521928D01*
X-29130000Y-18521928D01*
X-29254482Y-18534188D01*
X-29374180Y-18570498D01*
X-29484494Y-18629463D01*
X-29581185Y-18708815D01*
X-29660537Y-18805506D01*
X-29719502Y-18915820D01*
X-29755812Y-19035518D01*
X-29768072Y-19160000D01*
X-29768072Y-20160000D01*
X-29755812Y-20284482D01*
X-29719502Y-20404180D01*
X-29660537Y-20514494D01*
X-29581185Y-20611185D01*
X-29484494Y-20690537D01*
X-29374180Y-20749502D01*
X-29254482Y-20785812D01*
X-29130000Y-20798072D01*
X-28924575Y-20798072D01*
X-28864974Y-20909576D01*
X-28797750Y-20991488D01*
X-28770000Y-21025301D01*
X-28741002Y-21049099D01*
X-28156282Y-21633820D01*
X-28274698Y-21657374D01*
X-28463056Y-21735395D01*
X-28632574Y-21848663D01*
X-28776737Y-21992826D01*
X-28890005Y-22162344D01*
X-28950231Y-22307742D01*
X-29013589Y-22371100D01*
X-40789811Y-22371100D01*
X-42436259Y-20724652D01*
X-42393298Y-20644280D01*
X-42356988Y-20524582D01*
X-42344728Y-20400100D01*
X-42344728Y-19500100D01*
X-42356988Y-19375618D01*
X-42393298Y-19255920D01*
X-42452263Y-19145606D01*
X-42531615Y-19048915D01*
X-42628306Y-18969563D01*
X-42738620Y-18910598D01*
X-42858318Y-18874288D01*
X-42982800Y-18862028D01*
X-44182800Y-18862028D01*
X-44307282Y-18874288D01*
X-44426980Y-18910598D01*
X-44537294Y-18969563D01*
X-44633985Y-19048915D01*
X-44713337Y-19145606D01*
X-44772302Y-19255920D01*
X-44808612Y-19375618D01*
X-44820872Y-19500100D01*
X-44820872Y-20400100D01*
X-44808612Y-20524582D01*
X-44772302Y-20644280D01*
X-44713337Y-20754594D01*
X-44633985Y-20851285D01*
X-44537294Y-20930637D01*
X-44518348Y-20940764D01*
X-44504271Y-21083691D01*
X-44470112Y-21196297D01*
X-44450806Y-21259940D01*
X-44363985Y-21422372D01*
X-44247143Y-21564744D01*
X-44211464Y-21594025D01*
X-43643461Y-22162028D01*
X-44182800Y-22162028D01*
X-44307282Y-22174288D01*
X-44426980Y-22210598D01*
X-44537294Y-22269563D01*
X-44633985Y-22348915D01*
X-44713337Y-22445606D01*
X-44772302Y-22555920D01*
X-44808612Y-22675618D01*
X-44820872Y-22800100D01*
X-44820872Y-23700100D01*
X-44808612Y-23824582D01*
X-44772302Y-23944280D01*
X-44713337Y-24054594D01*
X-44633985Y-24151285D01*
X-44537294Y-24230637D01*
X-44517799Y-24241057D01*
X-44517799Y-24713300D01*
X-54712976Y-24713300D01*
X-54758901Y-24708777D01*
X-54804826Y-24713300D01*
X-54804832Y-24713300D01*
X-54923790Y-24725017D01*
X-54942193Y-24726829D01*
X-54983304Y-24739300D01*
X-55118440Y-24780293D01*
X-55280872Y-24867114D01*
X-55423244Y-24983956D01*
X-55452525Y-25019635D01*
X-65348359Y-34915470D01*
X-65384044Y-34944756D01*
X-65500886Y-35087129D01*
X-65587707Y-35249561D01*
X-65633471Y-35400425D01*
X-65641171Y-35425809D01*
X-65659224Y-35609100D01*
X-65654700Y-35655032D01*
X-65654699Y-38012380D01*
X-65659224Y-38058347D01*
X-65649615Y-38155853D01*
X-65641170Y-38241592D01*
X-65641165Y-38241609D01*
X-65641162Y-38241638D01*
X-65611145Y-38340571D01*
X-65587706Y-38417840D01*
X-65587695Y-38417860D01*
X-65587688Y-38417884D01*
X-65549124Y-38490023D01*
X-65500885Y-38580272D01*
X-65500867Y-38580294D01*
X-65500858Y-38580311D01*
X-65451457Y-38640500D01*
X-65384043Y-38722644D01*
X-65348344Y-38751941D01*
X-65058023Y-39042234D01*
X-72032017Y-46016228D01*
X-72622800Y-46016228D01*
X-72796054Y-46033292D01*
X-72962650Y-46083828D01*
X-73116186Y-46165895D01*
X-73250762Y-46276338D01*
X-73361205Y-46410914D01*
X-73443272Y-46564450D01*
X-73493808Y-46731046D01*
X-73510872Y-46904300D01*
X-73510872Y-47704300D01*
X-73493808Y-47877554D01*
X-73443272Y-48044150D01*
X-73361205Y-48197686D01*
X-73250762Y-48332262D01*
X-73116186Y-48442705D01*
X-72962650Y-48524772D01*
X-72796054Y-48575308D01*
X-72622800Y-48592372D01*
X-71372800Y-48592372D01*
X-71199546Y-48575308D01*
X-71032950Y-48524772D01*
X-70879414Y-48442705D01*
X-70744838Y-48332262D01*
X-70634395Y-48197686D01*
X-70552328Y-48044150D01*
X-70501792Y-47877554D01*
X-70484728Y-47704300D01*
X-70484728Y-47113517D01*
X-64102985Y-40731774D01*
X-63943600Y-40747472D01*
X-62693600Y-40747472D01*
X-62520346Y-40730408D01*
X-62353750Y-40679872D01*
X-62200214Y-40597805D01*
X-62065638Y-40487362D01*
X-61955195Y-40352786D01*
X-61873128Y-40199250D01*
X-61822592Y-40032654D01*
X-61805528Y-39859400D01*
X-61805528Y-39268618D01*
X-61429010Y-38892100D01*
X-53929053Y-38892100D01*
X-53852762Y-38985062D01*
X-53843596Y-38992585D01*
X-53859805Y-39016844D01*
X-53937826Y-39205202D01*
X-53977600Y-39405161D01*
X-53977600Y-39609039D01*
X-53937826Y-39808998D01*
X-53859805Y-39997356D01*
X-53843596Y-40021615D01*
X-53852762Y-40029138D01*
X-53963205Y-40163714D01*
X-54045272Y-40317250D01*
X-54095808Y-40483846D01*
X-54112872Y-40657100D01*
X-54112872Y-41457100D01*
X-54095808Y-41630354D01*
X-54045272Y-41796950D01*
X-53963205Y-41950486D01*
X-53852762Y-42085062D01*
X-53718186Y-42195505D01*
X-53564650Y-42277572D01*
X-53398054Y-42328108D01*
X-53224800Y-42345172D01*
X-51974800Y-42345172D01*
X-51801546Y-42328108D01*
X-51634950Y-42277572D01*
X-51481414Y-42195505D01*
X-51346838Y-42085062D01*
X-51236395Y-41950486D01*
X-51154328Y-41796950D01*
X-51103792Y-41630354D01*
X-51086728Y-41457100D01*
X-51086728Y-40657100D01*
X-51103792Y-40483846D01*
X-51154328Y-40317250D01*
X-51236395Y-40163714D01*
X-51346838Y-40029138D01*
X-51481414Y-39918695D01*
X-51634950Y-39836628D01*
X-51801546Y-39786092D01*
X-51842808Y-39782028D01*
X-51850797Y-39700914D01*
X-51894254Y-39557653D01*
X-51907600Y-39532685D01*
X-51907600Y-39405161D01*
X-51940103Y-39241755D01*
X-51801546Y-39228108D01*
X-51634950Y-39177572D01*
X-51481414Y-39095505D01*
X-51346838Y-38985062D01*
X-51236395Y-38850486D01*
X-51154328Y-38696950D01*
X-51103792Y-38530354D01*
X-51086728Y-38357100D01*
X-51086728Y-37557100D01*
X-51103792Y-37383846D01*
X-51147548Y-37239600D01*
X-50022972Y-37239600D01*
X-50022972Y-37266900D01*
X-50007829Y-37420645D01*
X-49962984Y-37568482D01*
X-49890158Y-37704729D01*
X-49792151Y-37824151D01*
X-49672729Y-37922158D01*
X-49536482Y-37994984D01*
X-49388645Y-38039829D01*
X-49234900Y-38054972D01*
X-48936199Y-38054972D01*
X-48936200Y-46527478D01*
X-48939876Y-46564800D01*
X-48936200Y-46602122D01*
X-48936200Y-46602132D01*
X-48925203Y-46713785D01*
X-48893602Y-46817960D01*
X-48881746Y-46857046D01*
X-48811174Y-46989076D01*
X-48790123Y-47014726D01*
X-48716201Y-47104801D01*
X-48687197Y-47128604D01*
X-47934873Y-47880928D01*
X-47946837Y-47895506D01*
X-48005802Y-48005820D01*
X-48042112Y-48125518D01*
X-48054372Y-48250000D01*
X-48054372Y-48715400D01*
X-54453598Y-48715400D01*
X-54752125Y-48416873D01*
X-54739728Y-48291001D01*
X-54739728Y-47640999D01*
X-54756792Y-47467745D01*
X-54807328Y-47301149D01*
X-54889395Y-47147613D01*
X-54999838Y-47013038D01*
X-55134413Y-46902595D01*
X-55287949Y-46820528D01*
X-55454545Y-46769992D01*
X-55627799Y-46752928D01*
X-56927801Y-46752928D01*
X-57101055Y-46769992D01*
X-57267651Y-46820528D01*
X-57421187Y-46902595D01*
X-57555762Y-47013038D01*
X-57643215Y-47119600D01*
X-58713886Y-47119600D01*
X-58745095Y-47061213D01*
X-58855538Y-46926638D01*
X-58990113Y-46816195D01*
X-59143649Y-46734128D01*
X-59310245Y-46683592D01*
X-59483499Y-46666528D01*
X-60783501Y-46666528D01*
X-60956755Y-46683592D01*
X-61123351Y-46734128D01*
X-61276887Y-46816195D01*
X-61411462Y-46926638D01*
X-61521905Y-47061213D01*
X-61553114Y-47119600D01*
X-64198778Y-47119600D01*
X-64236101Y-47115924D01*
X-64273424Y-47119600D01*
X-64273433Y-47119600D01*
X-64385086Y-47130597D01*
X-64528347Y-47174054D01*
X-64660376Y-47244626D01*
X-64660378Y-47244627D01*
X-64660377Y-47244627D01*
X-64747104Y-47315801D01*
X-64747108Y-47315805D01*
X-64776101Y-47339599D01*
X-64799895Y-47368592D01*
X-65880202Y-48448901D01*
X-65909200Y-48472699D01*
X-65932998Y-48501697D01*
X-65932999Y-48501698D01*
X-66004174Y-48588424D01*
X-66074746Y-48720454D01*
X-66085765Y-48756780D01*
X-66087098Y-48761176D01*
X-66173694Y-48807463D01*
X-66270385Y-48886815D01*
X-66345218Y-48978000D01*
X-71294178Y-48978000D01*
X-71331501Y-48974324D01*
X-71368824Y-48978000D01*
X-71368833Y-48978000D01*
X-71480486Y-48988997D01*
X-71623747Y-49032454D01*
X-71755776Y-49103026D01*
X-71755778Y-49103027D01*
X-71755777Y-49103027D01*
X-71771863Y-49116228D01*
X-72622800Y-49116228D01*
X-72796054Y-49133292D01*
X-72962650Y-49183828D01*
X-73116186Y-49265895D01*
X-73250762Y-49376338D01*
X-73361205Y-49510914D01*
X-73443272Y-49664450D01*
X-73493808Y-49831046D01*
X-73510872Y-50004300D01*
X-73510872Y-50804300D01*
X-73495638Y-50958973D01*
X-76575800Y-47878811D01*
X-76575800Y-41499988D01*
X-76567413Y-41495505D01*
X-76432838Y-41385062D01*
X-76322395Y-41250487D01*
X-76240328Y-41096952D01*
X-76189792Y-40930356D01*
X-76172728Y-40757102D01*
X-76172728Y-40232098D01*
X-76189792Y-40058844D01*
X-76240328Y-39892248D01*
X-76322395Y-39738713D01*
X-76432838Y-39604138D01*
X-76459691Y-39582100D01*
X-76432838Y-39560062D01*
X-76322395Y-39425487D01*
X-76240328Y-39271952D01*
X-76189792Y-39105356D01*
X-76172728Y-38932102D01*
X-76172728Y-38407098D01*
X-76189792Y-38233844D01*
X-76240328Y-38067248D01*
X-76322395Y-37913713D01*
X-76432838Y-37779138D01*
X-76558999Y-37675600D01*
X-76148695Y-37675600D01*
X-76003298Y-37735826D01*
X-75803339Y-37775600D01*
X-75599461Y-37775600D01*
X-75399502Y-37735826D01*
X-75211144Y-37657805D01*
X-75041626Y-37544537D01*
X-74897463Y-37400374D01*
X-74784195Y-37230856D01*
X-74706174Y-37042498D01*
X-74666400Y-36842539D01*
X-74666400Y-36638661D01*
X-74706174Y-36438702D01*
X-74784195Y-36250344D01*
X-74897463Y-36080826D01*
X-75041626Y-35936663D01*
X-75211144Y-35823395D01*
X-75399502Y-35745374D01*
X-75599461Y-35705600D01*
X-75803339Y-35705600D01*
X-76003298Y-35745374D01*
X-76148695Y-35805600D01*
X-77522269Y-35805600D01*
X-77568201Y-35801076D01*
X-77729724Y-35816985D01*
X-77751492Y-35819129D01*
X-77801926Y-35834428D01*
X-78162600Y-35834428D01*
X-78313907Y-35849330D01*
X-78459399Y-35893465D01*
X-78593485Y-35965135D01*
X-78711012Y-36061588D01*
X-78807465Y-36179115D01*
X-78879135Y-36313201D01*
X-78923270Y-36458693D01*
X-78938172Y-36610000D01*
X-78938172Y-36885000D01*
X-78923270Y-37036307D01*
X-78879135Y-37181799D01*
X-78807465Y-37315885D01*
X-78711012Y-37433412D01*
X-78593485Y-37529865D01*
X-78459399Y-37601535D01*
X-78375918Y-37626859D01*
X-78454187Y-37668695D01*
X-78498243Y-37704851D01*
X-78521415Y-37676615D01*
X-78618106Y-37597263D01*
X-78728420Y-37538298D01*
X-78848118Y-37501988D01*
X-78972600Y-37489728D01*
X-79772600Y-37489728D01*
X-79897082Y-37501988D01*
X-80016780Y-37538298D01*
X-80127094Y-37597263D01*
X-80223785Y-37676615D01*
X-80303137Y-37773306D01*
X-80322600Y-37809718D01*
X-80342063Y-37773306D01*
X-80421415Y-37676615D01*
X-80518106Y-37597263D01*
X-80628420Y-37538298D01*
X-80748118Y-37501988D01*
X-80872078Y-37489779D01*
X-78447456Y-35065158D01*
X-78313907Y-35105670D01*
X-78162600Y-35120572D01*
X-76987600Y-35120572D01*
X-76836293Y-35105670D01*
X-76690801Y-35061535D01*
X-76556715Y-34989865D01*
X-76439188Y-34893412D01*
X-76342735Y-34775885D01*
X-76271065Y-34641799D01*
X-76226930Y-34496307D01*
X-76212028Y-34345000D01*
X-76212028Y-34070000D01*
X-76226930Y-33918693D01*
X-76271065Y-33773201D01*
X-76342735Y-33639115D01*
X-76439188Y-33521588D01*
X-76556715Y-33425135D01*
X-76690801Y-33353465D01*
X-76836293Y-33309330D01*
X-76987600Y-33294428D01*
X-78162600Y-33294428D01*
X-78313907Y-33309330D01*
X-78459399Y-33353465D01*
X-78593485Y-33425135D01*
X-78620737Y-33447500D01*
X-78627277Y-33447500D01*
X-78664600Y-33443824D01*
X-78701923Y-33447500D01*
X-78701933Y-33447500D01*
X-78813586Y-33458497D01*
X-78956847Y-33501954D01*
X-79088876Y-33572526D01*
X-79204601Y-33667499D01*
X-79228399Y-33696497D01*
X-81796854Y-36264953D01*
X-81842735Y-36179115D01*
X-81939188Y-36061588D01*
X-82056715Y-35965135D01*
X-82190801Y-35893465D01*
X-82336293Y-35849330D01*
X-82487600Y-35834428D01*
X-82913371Y-35834428D01*
X-83223897Y-35523902D01*
X-83247699Y-35494899D01*
X-83363424Y-35399926D01*
X-83495453Y-35329354D01*
X-83638714Y-35285897D01*
X-83750367Y-35274900D01*
X-83750378Y-35274900D01*
X-83787700Y-35271224D01*
X-83825022Y-35274900D01*
X-85429599Y-35274900D01*
X-85122198Y-34967500D01*
X-84120737Y-34967500D01*
X-84093485Y-34989865D01*
X-83959399Y-35061535D01*
X-83813907Y-35105670D01*
X-83662600Y-35120572D01*
X-82487600Y-35120572D01*
X-82336293Y-35105670D01*
X-82190801Y-35061535D01*
X-82056715Y-34989865D01*
X-81939188Y-34893412D01*
X-81842735Y-34775885D01*
X-81771065Y-34641799D01*
X-81726930Y-34496307D01*
X-81712028Y-34345000D01*
X-81712028Y-34070000D01*
X-81726930Y-33918693D01*
X-81771065Y-33773201D01*
X-81842735Y-33639115D01*
X-81939188Y-33521588D01*
X-82056715Y-33425135D01*
X-82190801Y-33353465D01*
X-82336293Y-33309330D01*
X-82487600Y-33294428D01*
X-83662600Y-33294428D01*
X-83813907Y-33309330D01*
X-83959399Y-33353465D01*
X-84093485Y-33425135D01*
X-84120737Y-33447500D01*
X-85399677Y-33447500D01*
X-85437000Y-33443824D01*
X-85474323Y-33447500D01*
X-85474333Y-33447500D01*
X-85585986Y-33458497D01*
X-85726636Y-33501162D01*
X-85729247Y-33501954D01*
X-85861277Y-33572526D01*
X-85940207Y-33637303D01*
X-85977001Y-33667499D01*
X-86000800Y-33696498D01*
X-86183277Y-33878976D01*
X-86183990Y-33878391D01*
X-86372480Y-33777641D01*
X-86577003Y-33715600D01*
X-86736406Y-33699900D01*
X-87342994Y-33699900D01*
X-87502397Y-33715600D01*
X-87706920Y-33777641D01*
X-87895410Y-33878391D01*
X-88060622Y-34013978D01*
X-88196209Y-34179190D01*
X-88296959Y-34367680D01*
X-88359000Y-34572203D01*
X-88379949Y-34784900D01*
X-88359000Y-34997597D01*
X-88296959Y-35202120D01*
X-88229939Y-35327505D01*
X-88232318Y-35330403D01*
X-88312075Y-35479617D01*
X-88361188Y-35641523D01*
X-88377772Y-35809900D01*
X-88377772Y-36259900D01*
X-88361188Y-36428277D01*
X-88312075Y-36590183D01*
X-88232318Y-36739397D01*
X-88124984Y-36870184D01*
X-87994197Y-36977518D01*
X-87844983Y-37057275D01*
X-87683077Y-37106388D01*
X-87514700Y-37122972D01*
X-86564700Y-37122972D01*
X-86396323Y-37106388D01*
X-86234417Y-37057275D01*
X-86085203Y-36977518D01*
X-85954416Y-36870184D01*
X-85892632Y-36794900D01*
X-84438172Y-36794900D01*
X-84438172Y-36885000D01*
X-84423270Y-37036307D01*
X-84379135Y-37181799D01*
X-84307465Y-37315885D01*
X-84211012Y-37433412D01*
X-84093485Y-37529865D01*
X-83959399Y-37601535D01*
X-83956912Y-37602289D01*
X-84057387Y-37655995D01*
X-84191962Y-37766438D01*
X-84302405Y-37901013D01*
X-84384472Y-38054548D01*
X-84435008Y-38221144D01*
X-84452072Y-38394398D01*
X-84452072Y-38919402D01*
X-84435008Y-39092656D01*
X-84384472Y-39259252D01*
X-84302405Y-39412787D01*
X-84191962Y-39547362D01*
X-84165109Y-39569400D01*
X-84191962Y-39591438D01*
X-84302405Y-39726013D01*
X-84384472Y-39879548D01*
X-84435008Y-40046144D01*
X-84452072Y-40219398D01*
X-84452072Y-40744402D01*
X-84435008Y-40917656D01*
X-84384472Y-41084252D01*
X-84302405Y-41237787D01*
X-84191962Y-41372362D01*
X-84057387Y-41482805D01*
X-83903852Y-41564872D01*
X-83889099Y-41569347D01*
X-83889100Y-74826178D01*
X-83892776Y-74863500D01*
X-83889100Y-74900822D01*
X-83889100Y-74900832D01*
X-83878103Y-75012485D01*
X-83854407Y-75090600D01*
X-83834646Y-75155746D01*
X-83764074Y-75287776D01*
X-83729830Y-75329502D01*
X-83669101Y-75403501D01*
X-83640097Y-75427304D01*
X-83465804Y-75601597D01*
X-83442001Y-75630601D01*
X-83326276Y-75725574D01*
X-83194247Y-75796146D01*
X-83050986Y-75839603D01*
X-82939333Y-75850600D01*
X-82939323Y-75850600D01*
X-82902000Y-75854276D01*
X-82864677Y-75850600D01*
X-26600422Y-75850600D01*
X-26563100Y-75854276D01*
X-26525778Y-75850600D01*
X-26525767Y-75850600D01*
X-26414114Y-75839603D01*
X-26270853Y-75796146D01*
X-26138824Y-75725574D01*
X-26023099Y-75630601D01*
X-25999296Y-75601597D01*
X-19341700Y-68944001D01*
X-10634408Y-68944001D01*
X-10623279Y-69024563D01*
X-10530351Y-69218949D01*
X-10401286Y-69391470D01*
X-10241044Y-69535497D01*
X-10055782Y-69645495D01*
X-9852621Y-69717236D01*
X-9639367Y-69747964D01*
X-9467000Y-69583419D01*
X-9467000Y-68777000D01*
X-10507502Y-68777000D01*
X-10634408Y-68944001D01*
X-19341700Y-68944001D01*
X-15308072Y-64910374D01*
X-15308072Y-65730000D01*
X-15295812Y-65854482D01*
X-15259502Y-65974180D01*
X-15200537Y-66084494D01*
X-15121185Y-66181185D01*
X-15024494Y-66260537D01*
X-14914180Y-66319502D01*
X-14794482Y-66355812D01*
X-14670000Y-66368072D01*
X-12870000Y-66368072D01*
X-12745518Y-66355812D01*
X-12625820Y-66319502D01*
X-12515506Y-66260537D01*
X-12418815Y-66181185D01*
X-12339463Y-66084494D01*
X-12288954Y-65990000D01*
X-11824801Y-65990000D01*
X-10674641Y-67140162D01*
X-10678072Y-67175000D01*
X-10678072Y-67625000D01*
X-10661488Y-67793377D01*
X-10612375Y-67955283D01*
X-10537338Y-68095666D01*
X-10623279Y-68275437D01*
X-10634408Y-68355999D01*
X-10507502Y-68523000D01*
X-9467000Y-68523000D01*
X-9467000Y-68503000D01*
X-9213000Y-68503000D01*
X-9213000Y-68523000D01*
X-8172498Y-68523000D01*
X-8045592Y-68355999D01*
X-8056721Y-68275437D01*
X-8142662Y-68095666D01*
X-8067625Y-67955283D01*
X-8018512Y-67793377D01*
X-8001928Y-67625000D01*
X-8001928Y-67175000D01*
X-8018512Y-67006623D01*
X-8067625Y-66844717D01*
X-8147382Y-66695503D01*
X-8254716Y-66564716D01*
X-8385503Y-66457382D01*
X-8534717Y-66377625D01*
X-8696623Y-66328512D01*
X-8865000Y-66311928D01*
X-9353270Y-66311928D01*
X-10946196Y-64719002D01*
X-10969999Y-64689999D01*
X-11085724Y-64595026D01*
X-11217753Y-64524454D01*
X-11361014Y-64480997D01*
X-11472667Y-64470000D01*
X-11472678Y-64470000D01*
X-11510000Y-64466324D01*
X-11547322Y-64470000D01*
X-12288954Y-64470000D01*
X-12339463Y-64375506D01*
X-12415463Y-64282900D01*
X-3550702Y-64282900D01*
X-8117360Y-68849558D01*
X-8172498Y-68777000D01*
X-9213000Y-68777000D01*
X-9213000Y-69583419D01*
X-9040633Y-69747964D01*
X-9011579Y-69743778D01*
X-23203602Y-83935801D01*
X-23232600Y-83959599D01*
X-23256398Y-83988597D01*
X-23256399Y-83988598D01*
X-23327574Y-84075324D01*
X-23398146Y-84207354D01*
X-23441602Y-84350615D01*
X-23456276Y-84499600D01*
X-23452599Y-84536932D01*
X-23452600Y-91874154D01*
X-23554482Y-91884188D01*
X-23674180Y-91920498D01*
X-23784494Y-91979463D01*
X-23881185Y-92058815D01*
X-23960537Y-92155506D01*
X-24019502Y-92265820D01*
X-24055812Y-92385518D01*
X-24068072Y-92510000D01*
X-24068072Y-92820000D01*
X-43171928Y-92820000D01*
X-43171928Y-92280000D01*
X-43184188Y-92155518D01*
X-43220498Y-92035820D01*
X-43279463Y-91925506D01*
X-43358815Y-91828815D01*
X-43455506Y-91749463D01*
X-43565820Y-91690498D01*
X-43685518Y-91654188D01*
X-43810000Y-91641928D01*
X-47410000Y-91641928D01*
X-47534482Y-91654188D01*
X-47654180Y-91690498D01*
X-47764494Y-91749463D01*
X-47861185Y-91828815D01*
X-47940537Y-91925506D01*
X-47999502Y-92035820D01*
X-48035812Y-92155518D01*
X-48048072Y-92280000D01*
X-48048072Y-92820000D01*
X-66691928Y-92820000D01*
X-66691928Y-92510000D01*
X-66704188Y-92385518D01*
X-66740498Y-92265820D01*
X-66799463Y-92155506D01*
X-66878815Y-92058815D01*
X-66975506Y-91979463D01*
X-67085820Y-91920498D01*
X-67205518Y-91884188D01*
X-67330000Y-91871928D01*
X-70930000Y-91871928D01*
X-71054482Y-91884188D01*
X-71174180Y-91920498D01*
X-71284494Y-91979463D01*
X-71381185Y-92058815D01*
X-71460537Y-92155506D01*
X-71519502Y-92265820D01*
X-71555812Y-92385518D01*
X-71568072Y-92510000D01*
X-71568072Y-95110000D01*
X-71556253Y-95230000D01*
X-87760000Y-95230000D01*
X-87760000Y-93148534D01*
X-87341558Y-93566976D01*
X-86770766Y-93948367D01*
X-86136537Y-94211073D01*
X-85463242Y-94345000D01*
X-84776758Y-94345000D01*
X-84103463Y-94211073D01*
X-83469234Y-93948367D01*
X-82898442Y-93566976D01*
X-82413024Y-93081558D01*
X-82031633Y-92510766D01*
X-81768927Y-91876537D01*
X-81635000Y-91203242D01*
X-81635000Y-90516758D01*
X-81768927Y-89843463D01*
X-82031633Y-89209234D01*
X-82413024Y-88638442D01*
X-82898442Y-88153024D01*
X-83469234Y-87771633D01*
X-84103463Y-87508927D01*
X-84776758Y-87375000D01*
X-85463242Y-87375000D01*
X-86136537Y-87508927D01*
X-86770766Y-87771633D01*
X-87341558Y-88153024D01*
X-87760000Y-88571466D01*
X-87760000Y-87172281D01*
X-87755181Y-87123133D01*
X-87750282Y-87106908D01*
X-87742328Y-87091947D01*
X-87731614Y-87078811D01*
X-87718559Y-87068012D01*
X-87703651Y-87059951D01*
X-87687459Y-87054938D01*
X-87640475Y-87050000D01*
X-84887581Y-87050000D01*
X-84859499Y-87047234D01*
X-84854943Y-87047266D01*
X-84845772Y-87046366D01*
X-84700200Y-87031065D01*
X-84641648Y-87019046D01*
X-84582848Y-87007829D01*
X-84574026Y-87005165D01*
X-84434197Y-86961881D01*
X-84379067Y-86938706D01*
X-84323588Y-86916292D01*
X-84315452Y-86911965D01*
X-84186694Y-86842347D01*
X-84137110Y-86808902D01*
X-84087047Y-86776142D01*
X-84079906Y-86770317D01*
X-83967123Y-86677015D01*
X-83924982Y-86634579D01*
X-83882233Y-86592716D01*
X-83876359Y-86585616D01*
X-83783846Y-86472184D01*
X-83750754Y-86422375D01*
X-83716947Y-86373003D01*
X-83712564Y-86364896D01*
X-83643845Y-86235655D01*
X-83621060Y-86180374D01*
X-83597483Y-86125364D01*
X-83594758Y-86116561D01*
X-83552452Y-85976434D01*
X-83540836Y-85917768D01*
X-83528397Y-85859247D01*
X-83527434Y-85850082D01*
X-83513150Y-85704406D01*
X-83513150Y-85704402D01*
X-83510000Y-85672419D01*
X-83510000Y-82107581D01*
X-83512766Y-82079499D01*
X-83512734Y-82074943D01*
X-83513634Y-82065772D01*
X-83528935Y-81920200D01*
X-83540961Y-81861617D01*
X-83552171Y-81802848D01*
X-83554835Y-81794026D01*
X-83598119Y-81654197D01*
X-83621294Y-81599067D01*
X-83643708Y-81543588D01*
X-83648035Y-81535451D01*
X-83717654Y-81406694D01*
X-83751081Y-81357137D01*
X-83783858Y-81307047D01*
X-83789683Y-81299906D01*
X-83882985Y-81187123D01*
X-83925402Y-81145001D01*
X-83967284Y-81102232D01*
X-83974385Y-81096359D01*
X-84087816Y-81003846D01*
X-84137625Y-80970754D01*
X-84186997Y-80936947D01*
X-84195103Y-80932564D01*
X-84324345Y-80863845D01*
X-84379638Y-80841055D01*
X-84434636Y-80817483D01*
X-84443440Y-80814758D01*
X-84583566Y-80772452D01*
X-84642232Y-80760836D01*
X-84700753Y-80748397D01*
X-84709917Y-80747434D01*
X-84855594Y-80733150D01*
X-84855598Y-80733150D01*
X-84887581Y-80730000D01*
X-87637719Y-80730000D01*
X-87686868Y-80725181D01*
X-87703091Y-80720283D01*
X-87718055Y-80712326D01*
X-87731188Y-80701615D01*
X-87741989Y-80688559D01*
X-87750049Y-80673652D01*
X-87755062Y-80657459D01*
X-87760000Y-80610475D01*
X-87760000Y-79460000D01*
X-86020249Y-79460000D01*
X-85999300Y-79672697D01*
X-85937259Y-79877220D01*
X-85836509Y-80065710D01*
X-85700922Y-80230922D01*
X-85535710Y-80366509D01*
X-85347220Y-80467259D01*
X-85142697Y-80529300D01*
X-84983294Y-80545000D01*
X-84376706Y-80545000D01*
X-84217303Y-80529300D01*
X-84012780Y-80467259D01*
X-83824290Y-80366509D01*
X-83659078Y-80230922D01*
X-83523491Y-80065710D01*
X-83422741Y-79877220D01*
X-83360700Y-79672697D01*
X-83339751Y-79460000D01*
X-83360700Y-79247303D01*
X-83422741Y-79042780D01*
X-83489761Y-78917395D01*
X-83487382Y-78914497D01*
X-83407625Y-78765283D01*
X-83358512Y-78603377D01*
X-83341928Y-78435000D01*
X-83341928Y-77985000D01*
X-83358512Y-77816623D01*
X-83407625Y-77654717D01*
X-83487382Y-77505503D01*
X-83594716Y-77374716D01*
X-83725503Y-77267382D01*
X-83874717Y-77187625D01*
X-84036623Y-77138512D01*
X-84205000Y-77121928D01*
X-85155000Y-77121928D01*
X-85323377Y-77138512D01*
X-85485283Y-77187625D01*
X-85634497Y-77267382D01*
X-85765284Y-77374716D01*
X-85872618Y-77505503D01*
X-85952375Y-77654717D01*
X-86001488Y-77816623D01*
X-86018072Y-77985000D01*
X-86018072Y-78435000D01*
X-86001488Y-78603377D01*
X-85952375Y-78765283D01*
X-85872618Y-78914497D01*
X-85870239Y-78917395D01*
X-85937259Y-79042780D01*
X-85999300Y-79247303D01*
X-86020249Y-79460000D01*
X-87760000Y-79460000D01*
X-87760000Y-66607581D01*
X-87762766Y-66579499D01*
X-87762734Y-66574943D01*
X-87763634Y-66565772D01*
X-87778935Y-66420200D01*
X-87790961Y-66361617D01*
X-87802171Y-66302848D01*
X-87804835Y-66294026D01*
X-87848119Y-66154197D01*
X-87871294Y-66099067D01*
X-87893708Y-66043588D01*
X-87898035Y-66035451D01*
X-87967654Y-65906694D01*
X-88001081Y-65857137D01*
X-88033858Y-65807047D01*
X-88039683Y-65799906D01*
X-88132985Y-65687123D01*
X-88175402Y-65645001D01*
X-88217284Y-65602232D01*
X-88224385Y-65596359D01*
X-88337816Y-65503846D01*
X-88387625Y-65470754D01*
X-88436997Y-65436947D01*
X-88445103Y-65432564D01*
X-88574345Y-65363845D01*
X-88629638Y-65341055D01*
X-88684636Y-65317483D01*
X-88693440Y-65314758D01*
X-88833566Y-65272452D01*
X-88892232Y-65260836D01*
X-88950753Y-65248397D01*
X-88959917Y-65247434D01*
X-89105594Y-65233150D01*
X-89105598Y-65233150D01*
X-89137581Y-65230000D01*
X-89387719Y-65230000D01*
X-89436868Y-65225181D01*
X-89453091Y-65220283D01*
X-89468055Y-65212326D01*
X-89481188Y-65201615D01*
X-89491989Y-65188559D01*
X-89500049Y-65173652D01*
X-89505062Y-65157459D01*
X-89510000Y-65110475D01*
X-89510000Y-30782281D01*
X-89505181Y-30733133D01*
X-89500282Y-30716908D01*
X-89492328Y-30701947D01*
X-89481614Y-30688811D01*
X-89468559Y-30678012D01*
X-89453651Y-30669951D01*
X-89437459Y-30664938D01*
X-89390475Y-30660000D01*
X-88687581Y-30660000D01*
X-88659499Y-30657234D01*
X-88654943Y-30657266D01*
X-88645772Y-30656366D01*
X-88500200Y-30641065D01*
X-88441648Y-30629046D01*
X-88382848Y-30617829D01*
X-88374026Y-30615165D01*
X-88234197Y-30571881D01*
X-88179067Y-30548706D01*
X-88123588Y-30526292D01*
X-88115452Y-30521965D01*
X-87986694Y-30452347D01*
X-87937110Y-30418902D01*
X-87887047Y-30386142D01*
X-87879906Y-30380317D01*
X-87767123Y-30287015D01*
X-87724982Y-30244579D01*
X-87682233Y-30202716D01*
X-87676359Y-30195616D01*
X-87583846Y-30082184D01*
X-87550754Y-30032375D01*
X-87516947Y-29983003D01*
X-87512564Y-29974896D01*
X-87443845Y-29845655D01*
X-87421060Y-29790374D01*
X-87397483Y-29735364D01*
X-87394758Y-29726561D01*
X-87352452Y-29586434D01*
X-87340836Y-29527768D01*
X-87328397Y-29469247D01*
X-87327434Y-29460082D01*
X-87313150Y-29314406D01*
X-87313150Y-29314402D01*
X-87310000Y-29282419D01*
X-87310000Y-25566668D01*
X-87301120Y-25595942D01*
X-87270846Y-25695746D01*
X-87200274Y-25827776D01*
X-87129099Y-25914502D01*
X-87105300Y-25943501D01*
X-87076302Y-25967299D01*
X-86711604Y-26331997D01*
X-86687801Y-26361001D01*
X-86572076Y-26455974D01*
X-86440047Y-26526546D01*
X-86296786Y-26570003D01*
X-86185133Y-26581000D01*
X-86185124Y-26581000D01*
X-86147801Y-26584676D01*
X-86110478Y-26581000D01*
X-74413022Y-26581000D01*
X-74375700Y-26584676D01*
X-74338378Y-26581000D01*
X-74338367Y-26581000D01*
X-74226714Y-26570003D01*
X-74083453Y-26526546D01*
X-73951424Y-26455974D01*
X-73835699Y-26361001D01*
X-73811896Y-26331997D01*
X-69988997Y-22509099D01*
X-69959999Y-22485301D01*
X-69865026Y-22369576D01*
X-69805425Y-22258072D01*
X-69600000Y-22258072D01*
X-69475518Y-22245812D01*
X-69355820Y-22209502D01*
X-69245506Y-22150537D01*
X-69148815Y-22071185D01*
X-69069463Y-21974494D01*
X-69018954Y-21880000D01*
X-56279322Y-21880000D01*
X-56242000Y-21883676D01*
X-56204678Y-21880000D01*
X-56204667Y-21880000D01*
X-56093014Y-21869003D01*
X-55949753Y-21825546D01*
X-55817724Y-21754974D01*
X-55701999Y-21660001D01*
X-55678196Y-21630997D01*
X-52335498Y-18288300D01*
X-31141022Y-18288300D01*
X-31103700Y-18291976D01*
X-31066378Y-18288300D01*
X-31066367Y-18288300D01*
X-30954714Y-18277303D01*
X-30811453Y-18233846D01*
X-30679424Y-18163274D01*
X-30563699Y-18068301D01*
X-30539896Y-18039297D01*
X-28308072Y-15807473D01*
X-28308072Y-15810000D01*
X-28295812Y-15934482D01*
X-28259502Y-16054180D01*
X-28200537Y-16164494D01*
X-28121185Y-16261185D01*
X-28024494Y-16340537D01*
X-27914180Y-16399502D01*
X-27794482Y-16435812D01*
X-27670000Y-16448072D01*
X-25870000Y-16448072D01*
X-25745518Y-16435812D01*
X-25625820Y-16399502D01*
X-25515506Y-16340537D01*
X-25418815Y-16261185D01*
X-25339463Y-16164494D01*
X-25280498Y-16054180D01*
X-25244188Y-15934482D01*
X-25231928Y-15810000D01*
X-25231928Y-14905400D01*
X-11646889Y-14905400D01*
X-6648072Y-19904218D01*
%TA.AperFunction,Conductor*%
D31*
G36*
X-6648072Y-19904218D02*
G01*
X-6648072Y-20145000D01*
X-6631488Y-20313377D01*
X-6602178Y-20410000D01*
X-26743609Y-20410000D01*
X-26740498Y-20404180D01*
X-26704188Y-20284482D01*
X-26691928Y-20160000D01*
X-26691928Y-19160000D01*
X-26704188Y-19035518D01*
X-26740498Y-18915820D01*
X-26799463Y-18805506D01*
X-26878815Y-18708815D01*
X-26975506Y-18629463D01*
X-27085820Y-18570498D01*
X-27205518Y-18534188D01*
X-27330000Y-18521928D01*
X-29130000Y-18521928D01*
X-29254482Y-18534188D01*
X-29374180Y-18570498D01*
X-29484494Y-18629463D01*
X-29581185Y-18708815D01*
X-29660537Y-18805506D01*
X-29719502Y-18915820D01*
X-29755812Y-19035518D01*
X-29768072Y-19160000D01*
X-29768072Y-20160000D01*
X-29755812Y-20284482D01*
X-29719502Y-20404180D01*
X-29660537Y-20514494D01*
X-29581185Y-20611185D01*
X-29484494Y-20690537D01*
X-29374180Y-20749502D01*
X-29254482Y-20785812D01*
X-29130000Y-20798072D01*
X-28924575Y-20798072D01*
X-28864974Y-20909576D01*
X-28797750Y-20991488D01*
X-28770000Y-21025301D01*
X-28741002Y-21049099D01*
X-28156282Y-21633820D01*
X-28274698Y-21657374D01*
X-28463056Y-21735395D01*
X-28632574Y-21848663D01*
X-28776737Y-21992826D01*
X-28890005Y-22162344D01*
X-28950231Y-22307742D01*
X-29013589Y-22371100D01*
X-40789811Y-22371100D01*
X-42436259Y-20724652D01*
X-42393298Y-20644280D01*
X-42356988Y-20524582D01*
X-42344728Y-20400100D01*
X-42344728Y-19500100D01*
X-42356988Y-19375618D01*
X-42393298Y-19255920D01*
X-42452263Y-19145606D01*
X-42531615Y-19048915D01*
X-42628306Y-18969563D01*
X-42738620Y-18910598D01*
X-42858318Y-18874288D01*
X-42982800Y-18862028D01*
X-44182800Y-18862028D01*
X-44307282Y-18874288D01*
X-44426980Y-18910598D01*
X-44537294Y-18969563D01*
X-44633985Y-19048915D01*
X-44713337Y-19145606D01*
X-44772302Y-19255920D01*
X-44808612Y-19375618D01*
X-44820872Y-19500100D01*
X-44820872Y-20400100D01*
X-44808612Y-20524582D01*
X-44772302Y-20644280D01*
X-44713337Y-20754594D01*
X-44633985Y-20851285D01*
X-44537294Y-20930637D01*
X-44518348Y-20940764D01*
X-44504271Y-21083691D01*
X-44470112Y-21196297D01*
X-44450806Y-21259940D01*
X-44363985Y-21422372D01*
X-44247143Y-21564744D01*
X-44211464Y-21594025D01*
X-43643461Y-22162028D01*
X-44182800Y-22162028D01*
X-44307282Y-22174288D01*
X-44426980Y-22210598D01*
X-44537294Y-22269563D01*
X-44633985Y-22348915D01*
X-44713337Y-22445606D01*
X-44772302Y-22555920D01*
X-44808612Y-22675618D01*
X-44820872Y-22800100D01*
X-44820872Y-23700100D01*
X-44808612Y-23824582D01*
X-44772302Y-23944280D01*
X-44713337Y-24054594D01*
X-44633985Y-24151285D01*
X-44537294Y-24230637D01*
X-44517799Y-24241057D01*
X-44517799Y-24713300D01*
X-54712976Y-24713300D01*
X-54758901Y-24708777D01*
X-54804826Y-24713300D01*
X-54804832Y-24713300D01*
X-54923790Y-24725017D01*
X-54942193Y-24726829D01*
X-54983304Y-24739300D01*
X-55118440Y-24780293D01*
X-55280872Y-24867114D01*
X-55423244Y-24983956D01*
X-55452525Y-25019635D01*
X-65348359Y-34915470D01*
X-65384044Y-34944756D01*
X-65500886Y-35087129D01*
X-65587707Y-35249561D01*
X-65633471Y-35400425D01*
X-65641171Y-35425809D01*
X-65659224Y-35609100D01*
X-65654700Y-35655032D01*
X-65654699Y-38012380D01*
X-65659224Y-38058347D01*
X-65649615Y-38155853D01*
X-65641170Y-38241592D01*
X-65641165Y-38241609D01*
X-65641162Y-38241638D01*
X-65611145Y-38340571D01*
X-65587706Y-38417840D01*
X-65587695Y-38417860D01*
X-65587688Y-38417884D01*
X-65549124Y-38490023D01*
X-65500885Y-38580272D01*
X-65500867Y-38580294D01*
X-65500858Y-38580311D01*
X-65451457Y-38640500D01*
X-65384043Y-38722644D01*
X-65348344Y-38751941D01*
X-65058023Y-39042234D01*
X-72032017Y-46016228D01*
X-72622800Y-46016228D01*
X-72796054Y-46033292D01*
X-72962650Y-46083828D01*
X-73116186Y-46165895D01*
X-73250762Y-46276338D01*
X-73361205Y-46410914D01*
X-73443272Y-46564450D01*
X-73493808Y-46731046D01*
X-73510872Y-46904300D01*
X-73510872Y-47704300D01*
X-73493808Y-47877554D01*
X-73443272Y-48044150D01*
X-73361205Y-48197686D01*
X-73250762Y-48332262D01*
X-73116186Y-48442705D01*
X-72962650Y-48524772D01*
X-72796054Y-48575308D01*
X-72622800Y-48592372D01*
X-71372800Y-48592372D01*
X-71199546Y-48575308D01*
X-71032950Y-48524772D01*
X-70879414Y-48442705D01*
X-70744838Y-48332262D01*
X-70634395Y-48197686D01*
X-70552328Y-48044150D01*
X-70501792Y-47877554D01*
X-70484728Y-47704300D01*
X-70484728Y-47113517D01*
X-64102985Y-40731774D01*
X-63943600Y-40747472D01*
X-62693600Y-40747472D01*
X-62520346Y-40730408D01*
X-62353750Y-40679872D01*
X-62200214Y-40597805D01*
X-62065638Y-40487362D01*
X-61955195Y-40352786D01*
X-61873128Y-40199250D01*
X-61822592Y-40032654D01*
X-61805528Y-39859400D01*
X-61805528Y-39268618D01*
X-61429010Y-38892100D01*
X-53929053Y-38892100D01*
X-53852762Y-38985062D01*
X-53843596Y-38992585D01*
X-53859805Y-39016844D01*
X-53937826Y-39205202D01*
X-53977600Y-39405161D01*
X-53977600Y-39609039D01*
X-53937826Y-39808998D01*
X-53859805Y-39997356D01*
X-53843596Y-40021615D01*
X-53852762Y-40029138D01*
X-53963205Y-40163714D01*
X-54045272Y-40317250D01*
X-54095808Y-40483846D01*
X-54112872Y-40657100D01*
X-54112872Y-41457100D01*
X-54095808Y-41630354D01*
X-54045272Y-41796950D01*
X-53963205Y-41950486D01*
X-53852762Y-42085062D01*
X-53718186Y-42195505D01*
X-53564650Y-42277572D01*
X-53398054Y-42328108D01*
X-53224800Y-42345172D01*
X-51974800Y-42345172D01*
X-51801546Y-42328108D01*
X-51634950Y-42277572D01*
X-51481414Y-42195505D01*
X-51346838Y-42085062D01*
X-51236395Y-41950486D01*
X-51154328Y-41796950D01*
X-51103792Y-41630354D01*
X-51086728Y-41457100D01*
X-51086728Y-40657100D01*
X-51103792Y-40483846D01*
X-51154328Y-40317250D01*
X-51236395Y-40163714D01*
X-51346838Y-40029138D01*
X-51481414Y-39918695D01*
X-51634950Y-39836628D01*
X-51801546Y-39786092D01*
X-51842808Y-39782028D01*
X-51850797Y-39700914D01*
X-51894254Y-39557653D01*
X-51907600Y-39532685D01*
X-51907600Y-39405161D01*
X-51940103Y-39241755D01*
X-51801546Y-39228108D01*
X-51634950Y-39177572D01*
X-51481414Y-39095505D01*
X-51346838Y-38985062D01*
X-51236395Y-38850486D01*
X-51154328Y-38696950D01*
X-51103792Y-38530354D01*
X-51086728Y-38357100D01*
X-51086728Y-37557100D01*
X-51103792Y-37383846D01*
X-51147548Y-37239600D01*
X-50022972Y-37239600D01*
X-50022972Y-37266900D01*
X-50007829Y-37420645D01*
X-49962984Y-37568482D01*
X-49890158Y-37704729D01*
X-49792151Y-37824151D01*
X-49672729Y-37922158D01*
X-49536482Y-37994984D01*
X-49388645Y-38039829D01*
X-49234900Y-38054972D01*
X-48936199Y-38054972D01*
X-48936200Y-46527478D01*
X-48939876Y-46564800D01*
X-48936200Y-46602122D01*
X-48936200Y-46602132D01*
X-48925203Y-46713785D01*
X-48893602Y-46817960D01*
X-48881746Y-46857046D01*
X-48811174Y-46989076D01*
X-48790123Y-47014726D01*
X-48716201Y-47104801D01*
X-48687197Y-47128604D01*
X-47934873Y-47880928D01*
X-47946837Y-47895506D01*
X-48005802Y-48005820D01*
X-48042112Y-48125518D01*
X-48054372Y-48250000D01*
X-48054372Y-48715400D01*
X-54453598Y-48715400D01*
X-54752125Y-48416873D01*
X-54739728Y-48291001D01*
X-54739728Y-47640999D01*
X-54756792Y-47467745D01*
X-54807328Y-47301149D01*
X-54889395Y-47147613D01*
X-54999838Y-47013038D01*
X-55134413Y-46902595D01*
X-55287949Y-46820528D01*
X-55454545Y-46769992D01*
X-55627799Y-46752928D01*
X-56927801Y-46752928D01*
X-57101055Y-46769992D01*
X-57267651Y-46820528D01*
X-57421187Y-46902595D01*
X-57555762Y-47013038D01*
X-57643215Y-47119600D01*
X-58713886Y-47119600D01*
X-58745095Y-47061213D01*
X-58855538Y-46926638D01*
X-58990113Y-46816195D01*
X-59143649Y-46734128D01*
X-59310245Y-46683592D01*
X-59483499Y-46666528D01*
X-60783501Y-46666528D01*
X-60956755Y-46683592D01*
X-61123351Y-46734128D01*
X-61276887Y-46816195D01*
X-61411462Y-46926638D01*
X-61521905Y-47061213D01*
X-61553114Y-47119600D01*
X-64198778Y-47119600D01*
X-64236101Y-47115924D01*
X-64273424Y-47119600D01*
X-64273433Y-47119600D01*
X-64385086Y-47130597D01*
X-64528347Y-47174054D01*
X-64660376Y-47244626D01*
X-64660378Y-47244627D01*
X-64660377Y-47244627D01*
X-64747104Y-47315801D01*
X-64747108Y-47315805D01*
X-64776101Y-47339599D01*
X-64799895Y-47368592D01*
X-65880202Y-48448901D01*
X-65909200Y-48472699D01*
X-65932998Y-48501697D01*
X-65932999Y-48501698D01*
X-66004174Y-48588424D01*
X-66074746Y-48720454D01*
X-66085765Y-48756780D01*
X-66087098Y-48761176D01*
X-66173694Y-48807463D01*
X-66270385Y-48886815D01*
X-66345218Y-48978000D01*
X-71294178Y-48978000D01*
X-71331501Y-48974324D01*
X-71368824Y-48978000D01*
X-71368833Y-48978000D01*
X-71480486Y-48988997D01*
X-71623747Y-49032454D01*
X-71755776Y-49103026D01*
X-71755778Y-49103027D01*
X-71755777Y-49103027D01*
X-71771863Y-49116228D01*
X-72622800Y-49116228D01*
X-72796054Y-49133292D01*
X-72962650Y-49183828D01*
X-73116186Y-49265895D01*
X-73250762Y-49376338D01*
X-73361205Y-49510914D01*
X-73443272Y-49664450D01*
X-73493808Y-49831046D01*
X-73510872Y-50004300D01*
X-73510872Y-50804300D01*
X-73495638Y-50958973D01*
X-76575800Y-47878811D01*
X-76575800Y-41499988D01*
X-76567413Y-41495505D01*
X-76432838Y-41385062D01*
X-76322395Y-41250487D01*
X-76240328Y-41096952D01*
X-76189792Y-40930356D01*
X-76172728Y-40757102D01*
X-76172728Y-40232098D01*
X-76189792Y-40058844D01*
X-76240328Y-39892248D01*
X-76322395Y-39738713D01*
X-76432838Y-39604138D01*
X-76459691Y-39582100D01*
X-76432838Y-39560062D01*
X-76322395Y-39425487D01*
X-76240328Y-39271952D01*
X-76189792Y-39105356D01*
X-76172728Y-38932102D01*
X-76172728Y-38407098D01*
X-76189792Y-38233844D01*
X-76240328Y-38067248D01*
X-76322395Y-37913713D01*
X-76432838Y-37779138D01*
X-76558999Y-37675600D01*
X-76148695Y-37675600D01*
X-76003298Y-37735826D01*
X-75803339Y-37775600D01*
X-75599461Y-37775600D01*
X-75399502Y-37735826D01*
X-75211144Y-37657805D01*
X-75041626Y-37544537D01*
X-74897463Y-37400374D01*
X-74784195Y-37230856D01*
X-74706174Y-37042498D01*
X-74666400Y-36842539D01*
X-74666400Y-36638661D01*
X-74706174Y-36438702D01*
X-74784195Y-36250344D01*
X-74897463Y-36080826D01*
X-75041626Y-35936663D01*
X-75211144Y-35823395D01*
X-75399502Y-35745374D01*
X-75599461Y-35705600D01*
X-75803339Y-35705600D01*
X-76003298Y-35745374D01*
X-76148695Y-35805600D01*
X-77522269Y-35805600D01*
X-77568201Y-35801076D01*
X-77729724Y-35816985D01*
X-77751492Y-35819129D01*
X-77801926Y-35834428D01*
X-78162600Y-35834428D01*
X-78313907Y-35849330D01*
X-78459399Y-35893465D01*
X-78593485Y-35965135D01*
X-78711012Y-36061588D01*
X-78807465Y-36179115D01*
X-78879135Y-36313201D01*
X-78923270Y-36458693D01*
X-78938172Y-36610000D01*
X-78938172Y-36885000D01*
X-78923270Y-37036307D01*
X-78879135Y-37181799D01*
X-78807465Y-37315885D01*
X-78711012Y-37433412D01*
X-78593485Y-37529865D01*
X-78459399Y-37601535D01*
X-78375918Y-37626859D01*
X-78454187Y-37668695D01*
X-78498243Y-37704851D01*
X-78521415Y-37676615D01*
X-78618106Y-37597263D01*
X-78728420Y-37538298D01*
X-78848118Y-37501988D01*
X-78972600Y-37489728D01*
X-79772600Y-37489728D01*
X-79897082Y-37501988D01*
X-80016780Y-37538298D01*
X-80127094Y-37597263D01*
X-80223785Y-37676615D01*
X-80303137Y-37773306D01*
X-80322600Y-37809718D01*
X-80342063Y-37773306D01*
X-80421415Y-37676615D01*
X-80518106Y-37597263D01*
X-80628420Y-37538298D01*
X-80748118Y-37501988D01*
X-80872078Y-37489779D01*
X-78447456Y-35065158D01*
X-78313907Y-35105670D01*
X-78162600Y-35120572D01*
X-76987600Y-35120572D01*
X-76836293Y-35105670D01*
X-76690801Y-35061535D01*
X-76556715Y-34989865D01*
X-76439188Y-34893412D01*
X-76342735Y-34775885D01*
X-76271065Y-34641799D01*
X-76226930Y-34496307D01*
X-76212028Y-34345000D01*
X-76212028Y-34070000D01*
X-76226930Y-33918693D01*
X-76271065Y-33773201D01*
X-76342735Y-33639115D01*
X-76439188Y-33521588D01*
X-76556715Y-33425135D01*
X-76690801Y-33353465D01*
X-76836293Y-33309330D01*
X-76987600Y-33294428D01*
X-78162600Y-33294428D01*
X-78313907Y-33309330D01*
X-78459399Y-33353465D01*
X-78593485Y-33425135D01*
X-78620737Y-33447500D01*
X-78627277Y-33447500D01*
X-78664600Y-33443824D01*
X-78701923Y-33447500D01*
X-78701933Y-33447500D01*
X-78813586Y-33458497D01*
X-78956847Y-33501954D01*
X-79088876Y-33572526D01*
X-79204601Y-33667499D01*
X-79228399Y-33696497D01*
X-81796854Y-36264953D01*
X-81842735Y-36179115D01*
X-81939188Y-36061588D01*
X-82056715Y-35965135D01*
X-82190801Y-35893465D01*
X-82336293Y-35849330D01*
X-82487600Y-35834428D01*
X-82913371Y-35834428D01*
X-83223897Y-35523902D01*
X-83247699Y-35494899D01*
X-83363424Y-35399926D01*
X-83495453Y-35329354D01*
X-83638714Y-35285897D01*
X-83750367Y-35274900D01*
X-83750378Y-35274900D01*
X-83787700Y-35271224D01*
X-83825022Y-35274900D01*
X-85429599Y-35274900D01*
X-85122198Y-34967500D01*
X-84120737Y-34967500D01*
X-84093485Y-34989865D01*
X-83959399Y-35061535D01*
X-83813907Y-35105670D01*
X-83662600Y-35120572D01*
X-82487600Y-35120572D01*
X-82336293Y-35105670D01*
X-82190801Y-35061535D01*
X-82056715Y-34989865D01*
X-81939188Y-34893412D01*
X-81842735Y-34775885D01*
X-81771065Y-34641799D01*
X-81726930Y-34496307D01*
X-81712028Y-34345000D01*
X-81712028Y-34070000D01*
X-81726930Y-33918693D01*
X-81771065Y-33773201D01*
X-81842735Y-33639115D01*
X-81939188Y-33521588D01*
X-82056715Y-33425135D01*
X-82190801Y-33353465D01*
X-82336293Y-33309330D01*
X-82487600Y-33294428D01*
X-83662600Y-33294428D01*
X-83813907Y-33309330D01*
X-83959399Y-33353465D01*
X-84093485Y-33425135D01*
X-84120737Y-33447500D01*
X-85399677Y-33447500D01*
X-85437000Y-33443824D01*
X-85474323Y-33447500D01*
X-85474333Y-33447500D01*
X-85585986Y-33458497D01*
X-85726636Y-33501162D01*
X-85729247Y-33501954D01*
X-85861277Y-33572526D01*
X-85940207Y-33637303D01*
X-85977001Y-33667499D01*
X-86000800Y-33696498D01*
X-86183277Y-33878976D01*
X-86183990Y-33878391D01*
X-86372480Y-33777641D01*
X-86577003Y-33715600D01*
X-86736406Y-33699900D01*
X-87342994Y-33699900D01*
X-87502397Y-33715600D01*
X-87706920Y-33777641D01*
X-87895410Y-33878391D01*
X-88060622Y-34013978D01*
X-88196209Y-34179190D01*
X-88296959Y-34367680D01*
X-88359000Y-34572203D01*
X-88379949Y-34784900D01*
X-88359000Y-34997597D01*
X-88296959Y-35202120D01*
X-88229939Y-35327505D01*
X-88232318Y-35330403D01*
X-88312075Y-35479617D01*
X-88361188Y-35641523D01*
X-88377772Y-35809900D01*
X-88377772Y-36259900D01*
X-88361188Y-36428277D01*
X-88312075Y-36590183D01*
X-88232318Y-36739397D01*
X-88124984Y-36870184D01*
X-87994197Y-36977518D01*
X-87844983Y-37057275D01*
X-87683077Y-37106388D01*
X-87514700Y-37122972D01*
X-86564700Y-37122972D01*
X-86396323Y-37106388D01*
X-86234417Y-37057275D01*
X-86085203Y-36977518D01*
X-85954416Y-36870184D01*
X-85892632Y-36794900D01*
X-84438172Y-36794900D01*
X-84438172Y-36885000D01*
X-84423270Y-37036307D01*
X-84379135Y-37181799D01*
X-84307465Y-37315885D01*
X-84211012Y-37433412D01*
X-84093485Y-37529865D01*
X-83959399Y-37601535D01*
X-83956912Y-37602289D01*
X-84057387Y-37655995D01*
X-84191962Y-37766438D01*
X-84302405Y-37901013D01*
X-84384472Y-38054548D01*
X-84435008Y-38221144D01*
X-84452072Y-38394398D01*
X-84452072Y-38919402D01*
X-84435008Y-39092656D01*
X-84384472Y-39259252D01*
X-84302405Y-39412787D01*
X-84191962Y-39547362D01*
X-84165109Y-39569400D01*
X-84191962Y-39591438D01*
X-84302405Y-39726013D01*
X-84384472Y-39879548D01*
X-84435008Y-40046144D01*
X-84452072Y-40219398D01*
X-84452072Y-40744402D01*
X-84435008Y-40917656D01*
X-84384472Y-41084252D01*
X-84302405Y-41237787D01*
X-84191962Y-41372362D01*
X-84057387Y-41482805D01*
X-83903852Y-41564872D01*
X-83889099Y-41569347D01*
X-83889100Y-74826178D01*
X-83892776Y-74863500D01*
X-83889100Y-74900822D01*
X-83889100Y-74900832D01*
X-83878103Y-75012485D01*
X-83854407Y-75090600D01*
X-83834646Y-75155746D01*
X-83764074Y-75287776D01*
X-83729830Y-75329502D01*
X-83669101Y-75403501D01*
X-83640097Y-75427304D01*
X-83465804Y-75601597D01*
X-83442001Y-75630601D01*
X-83326276Y-75725574D01*
X-83194247Y-75796146D01*
X-83050986Y-75839603D01*
X-82939333Y-75850600D01*
X-82939323Y-75850600D01*
X-82902000Y-75854276D01*
X-82864677Y-75850600D01*
X-26600422Y-75850600D01*
X-26563100Y-75854276D01*
X-26525778Y-75850600D01*
X-26525767Y-75850600D01*
X-26414114Y-75839603D01*
X-26270853Y-75796146D01*
X-26138824Y-75725574D01*
X-26023099Y-75630601D01*
X-25999296Y-75601597D01*
X-19341700Y-68944001D01*
X-10634408Y-68944001D01*
X-10623279Y-69024563D01*
X-10530351Y-69218949D01*
X-10401286Y-69391470D01*
X-10241044Y-69535497D01*
X-10055782Y-69645495D01*
X-9852621Y-69717236D01*
X-9639367Y-69747964D01*
X-9467000Y-69583419D01*
X-9467000Y-68777000D01*
X-10507502Y-68777000D01*
X-10634408Y-68944001D01*
X-19341700Y-68944001D01*
X-15308072Y-64910374D01*
X-15308072Y-65730000D01*
X-15295812Y-65854482D01*
X-15259502Y-65974180D01*
X-15200537Y-66084494D01*
X-15121185Y-66181185D01*
X-15024494Y-66260537D01*
X-14914180Y-66319502D01*
X-14794482Y-66355812D01*
X-14670000Y-66368072D01*
X-12870000Y-66368072D01*
X-12745518Y-66355812D01*
X-12625820Y-66319502D01*
X-12515506Y-66260537D01*
X-12418815Y-66181185D01*
X-12339463Y-66084494D01*
X-12288954Y-65990000D01*
X-11824801Y-65990000D01*
X-10674641Y-67140162D01*
X-10678072Y-67175000D01*
X-10678072Y-67625000D01*
X-10661488Y-67793377D01*
X-10612375Y-67955283D01*
X-10537338Y-68095666D01*
X-10623279Y-68275437D01*
X-10634408Y-68355999D01*
X-10507502Y-68523000D01*
X-9467000Y-68523000D01*
X-9467000Y-68503000D01*
X-9213000Y-68503000D01*
X-9213000Y-68523000D01*
X-8172498Y-68523000D01*
X-8045592Y-68355999D01*
X-8056721Y-68275437D01*
X-8142662Y-68095666D01*
X-8067625Y-67955283D01*
X-8018512Y-67793377D01*
X-8001928Y-67625000D01*
X-8001928Y-67175000D01*
X-8018512Y-67006623D01*
X-8067625Y-66844717D01*
X-8147382Y-66695503D01*
X-8254716Y-66564716D01*
X-8385503Y-66457382D01*
X-8534717Y-66377625D01*
X-8696623Y-66328512D01*
X-8865000Y-66311928D01*
X-9353270Y-66311928D01*
X-10946196Y-64719002D01*
X-10969999Y-64689999D01*
X-11085724Y-64595026D01*
X-11217753Y-64524454D01*
X-11361014Y-64480997D01*
X-11472667Y-64470000D01*
X-11472678Y-64470000D01*
X-11510000Y-64466324D01*
X-11547322Y-64470000D01*
X-12288954Y-64470000D01*
X-12339463Y-64375506D01*
X-12415463Y-64282900D01*
X-3550702Y-64282900D01*
X-8117360Y-68849558D01*
X-8172498Y-68777000D01*
X-9213000Y-68777000D01*
X-9213000Y-69583419D01*
X-9040633Y-69747964D01*
X-9011579Y-69743778D01*
X-23203602Y-83935801D01*
X-23232600Y-83959599D01*
X-23256398Y-83988597D01*
X-23256399Y-83988598D01*
X-23327574Y-84075324D01*
X-23398146Y-84207354D01*
X-23441602Y-84350615D01*
X-23456276Y-84499600D01*
X-23452599Y-84536932D01*
X-23452600Y-91874154D01*
X-23554482Y-91884188D01*
X-23674180Y-91920498D01*
X-23784494Y-91979463D01*
X-23881185Y-92058815D01*
X-23960537Y-92155506D01*
X-24019502Y-92265820D01*
X-24055812Y-92385518D01*
X-24068072Y-92510000D01*
X-24068072Y-92820000D01*
X-43171928Y-92820000D01*
X-43171928Y-92280000D01*
X-43184188Y-92155518D01*
X-43220498Y-92035820D01*
X-43279463Y-91925506D01*
X-43358815Y-91828815D01*
X-43455506Y-91749463D01*
X-43565820Y-91690498D01*
X-43685518Y-91654188D01*
X-43810000Y-91641928D01*
X-47410000Y-91641928D01*
X-47534482Y-91654188D01*
X-47654180Y-91690498D01*
X-47764494Y-91749463D01*
X-47861185Y-91828815D01*
X-47940537Y-91925506D01*
X-47999502Y-92035820D01*
X-48035812Y-92155518D01*
X-48048072Y-92280000D01*
X-48048072Y-92820000D01*
X-66691928Y-92820000D01*
X-66691928Y-92510000D01*
X-66704188Y-92385518D01*
X-66740498Y-92265820D01*
X-66799463Y-92155506D01*
X-66878815Y-92058815D01*
X-66975506Y-91979463D01*
X-67085820Y-91920498D01*
X-67205518Y-91884188D01*
X-67330000Y-91871928D01*
X-70930000Y-91871928D01*
X-71054482Y-91884188D01*
X-71174180Y-91920498D01*
X-71284494Y-91979463D01*
X-71381185Y-92058815D01*
X-71460537Y-92155506D01*
X-71519502Y-92265820D01*
X-71555812Y-92385518D01*
X-71568072Y-92510000D01*
X-71568072Y-95110000D01*
X-71556253Y-95230000D01*
X-87760000Y-95230000D01*
X-87760000Y-93148534D01*
X-87341558Y-93566976D01*
X-86770766Y-93948367D01*
X-86136537Y-94211073D01*
X-85463242Y-94345000D01*
X-84776758Y-94345000D01*
X-84103463Y-94211073D01*
X-83469234Y-93948367D01*
X-82898442Y-93566976D01*
X-82413024Y-93081558D01*
X-82031633Y-92510766D01*
X-81768927Y-91876537D01*
X-81635000Y-91203242D01*
X-81635000Y-90516758D01*
X-81768927Y-89843463D01*
X-82031633Y-89209234D01*
X-82413024Y-88638442D01*
X-82898442Y-88153024D01*
X-83469234Y-87771633D01*
X-84103463Y-87508927D01*
X-84776758Y-87375000D01*
X-85463242Y-87375000D01*
X-86136537Y-87508927D01*
X-86770766Y-87771633D01*
X-87341558Y-88153024D01*
X-87760000Y-88571466D01*
X-87760000Y-87172281D01*
X-87755181Y-87123133D01*
X-87750282Y-87106908D01*
X-87742328Y-87091947D01*
X-87731614Y-87078811D01*
X-87718559Y-87068012D01*
X-87703651Y-87059951D01*
X-87687459Y-87054938D01*
X-87640475Y-87050000D01*
X-84887581Y-87050000D01*
X-84859499Y-87047234D01*
X-84854943Y-87047266D01*
X-84845772Y-87046366D01*
X-84700200Y-87031065D01*
X-84641648Y-87019046D01*
X-84582848Y-87007829D01*
X-84574026Y-87005165D01*
X-84434197Y-86961881D01*
X-84379067Y-86938706D01*
X-84323588Y-86916292D01*
X-84315452Y-86911965D01*
X-84186694Y-86842347D01*
X-84137110Y-86808902D01*
X-84087047Y-86776142D01*
X-84079906Y-86770317D01*
X-83967123Y-86677015D01*
X-83924982Y-86634579D01*
X-83882233Y-86592716D01*
X-83876359Y-86585616D01*
X-83783846Y-86472184D01*
X-83750754Y-86422375D01*
X-83716947Y-86373003D01*
X-83712564Y-86364896D01*
X-83643845Y-86235655D01*
X-83621060Y-86180374D01*
X-83597483Y-86125364D01*
X-83594758Y-86116561D01*
X-83552452Y-85976434D01*
X-83540836Y-85917768D01*
X-83528397Y-85859247D01*
X-83527434Y-85850082D01*
X-83513150Y-85704406D01*
X-83513150Y-85704402D01*
X-83510000Y-85672419D01*
X-83510000Y-82107581D01*
X-83512766Y-82079499D01*
X-83512734Y-82074943D01*
X-83513634Y-82065772D01*
X-83528935Y-81920200D01*
X-83540961Y-81861617D01*
X-83552171Y-81802848D01*
X-83554835Y-81794026D01*
X-83598119Y-81654197D01*
X-83621294Y-81599067D01*
X-83643708Y-81543588D01*
X-83648035Y-81535451D01*
X-83717654Y-81406694D01*
X-83751081Y-81357137D01*
X-83783858Y-81307047D01*
X-83789683Y-81299906D01*
X-83882985Y-81187123D01*
X-83925402Y-81145001D01*
X-83967284Y-81102232D01*
X-83974385Y-81096359D01*
X-84087816Y-81003846D01*
X-84137625Y-80970754D01*
X-84186997Y-80936947D01*
X-84195103Y-80932564D01*
X-84324345Y-80863845D01*
X-84379638Y-80841055D01*
X-84434636Y-80817483D01*
X-84443440Y-80814758D01*
X-84583566Y-80772452D01*
X-84642232Y-80760836D01*
X-84700753Y-80748397D01*
X-84709917Y-80747434D01*
X-84855594Y-80733150D01*
X-84855598Y-80733150D01*
X-84887581Y-80730000D01*
X-87637719Y-80730000D01*
X-87686868Y-80725181D01*
X-87703091Y-80720283D01*
X-87718055Y-80712326D01*
X-87731188Y-80701615D01*
X-87741989Y-80688559D01*
X-87750049Y-80673652D01*
X-87755062Y-80657459D01*
X-87760000Y-80610475D01*
X-87760000Y-79460000D01*
X-86020249Y-79460000D01*
X-85999300Y-79672697D01*
X-85937259Y-79877220D01*
X-85836509Y-80065710D01*
X-85700922Y-80230922D01*
X-85535710Y-80366509D01*
X-85347220Y-80467259D01*
X-85142697Y-80529300D01*
X-84983294Y-80545000D01*
X-84376706Y-80545000D01*
X-84217303Y-80529300D01*
X-84012780Y-80467259D01*
X-83824290Y-80366509D01*
X-83659078Y-80230922D01*
X-83523491Y-80065710D01*
X-83422741Y-79877220D01*
X-83360700Y-79672697D01*
X-83339751Y-79460000D01*
X-83360700Y-79247303D01*
X-83422741Y-79042780D01*
X-83489761Y-78917395D01*
X-83487382Y-78914497D01*
X-83407625Y-78765283D01*
X-83358512Y-78603377D01*
X-83341928Y-78435000D01*
X-83341928Y-77985000D01*
X-83358512Y-77816623D01*
X-83407625Y-77654717D01*
X-83487382Y-77505503D01*
X-83594716Y-77374716D01*
X-83725503Y-77267382D01*
X-83874717Y-77187625D01*
X-84036623Y-77138512D01*
X-84205000Y-77121928D01*
X-85155000Y-77121928D01*
X-85323377Y-77138512D01*
X-85485283Y-77187625D01*
X-85634497Y-77267382D01*
X-85765284Y-77374716D01*
X-85872618Y-77505503D01*
X-85952375Y-77654717D01*
X-86001488Y-77816623D01*
X-86018072Y-77985000D01*
X-86018072Y-78435000D01*
X-86001488Y-78603377D01*
X-85952375Y-78765283D01*
X-85872618Y-78914497D01*
X-85870239Y-78917395D01*
X-85937259Y-79042780D01*
X-85999300Y-79247303D01*
X-86020249Y-79460000D01*
X-87760000Y-79460000D01*
X-87760000Y-66607581D01*
X-87762766Y-66579499D01*
X-87762734Y-66574943D01*
X-87763634Y-66565772D01*
X-87778935Y-66420200D01*
X-87790961Y-66361617D01*
X-87802171Y-66302848D01*
X-87804835Y-66294026D01*
X-87848119Y-66154197D01*
X-87871294Y-66099067D01*
X-87893708Y-66043588D01*
X-87898035Y-66035451D01*
X-87967654Y-65906694D01*
X-88001081Y-65857137D01*
X-88033858Y-65807047D01*
X-88039683Y-65799906D01*
X-88132985Y-65687123D01*
X-88175402Y-65645001D01*
X-88217284Y-65602232D01*
X-88224385Y-65596359D01*
X-88337816Y-65503846D01*
X-88387625Y-65470754D01*
X-88436997Y-65436947D01*
X-88445103Y-65432564D01*
X-88574345Y-65363845D01*
X-88629638Y-65341055D01*
X-88684636Y-65317483D01*
X-88693440Y-65314758D01*
X-88833566Y-65272452D01*
X-88892232Y-65260836D01*
X-88950753Y-65248397D01*
X-88959917Y-65247434D01*
X-89105594Y-65233150D01*
X-89105598Y-65233150D01*
X-89137581Y-65230000D01*
X-89387719Y-65230000D01*
X-89436868Y-65225181D01*
X-89453091Y-65220283D01*
X-89468055Y-65212326D01*
X-89481188Y-65201615D01*
X-89491989Y-65188559D01*
X-89500049Y-65173652D01*
X-89505062Y-65157459D01*
X-89510000Y-65110475D01*
X-89510000Y-30782281D01*
X-89505181Y-30733133D01*
X-89500282Y-30716908D01*
X-89492328Y-30701947D01*
X-89481614Y-30688811D01*
X-89468559Y-30678012D01*
X-89453651Y-30669951D01*
X-89437459Y-30664938D01*
X-89390475Y-30660000D01*
X-88687581Y-30660000D01*
X-88659499Y-30657234D01*
X-88654943Y-30657266D01*
X-88645772Y-30656366D01*
X-88500200Y-30641065D01*
X-88441648Y-30629046D01*
X-88382848Y-30617829D01*
X-88374026Y-30615165D01*
X-88234197Y-30571881D01*
X-88179067Y-30548706D01*
X-88123588Y-30526292D01*
X-88115452Y-30521965D01*
X-87986694Y-30452347D01*
X-87937110Y-30418902D01*
X-87887047Y-30386142D01*
X-87879906Y-30380317D01*
X-87767123Y-30287015D01*
X-87724982Y-30244579D01*
X-87682233Y-30202716D01*
X-87676359Y-30195616D01*
X-87583846Y-30082184D01*
X-87550754Y-30032375D01*
X-87516947Y-29983003D01*
X-87512564Y-29974896D01*
X-87443845Y-29845655D01*
X-87421060Y-29790374D01*
X-87397483Y-29735364D01*
X-87394758Y-29726561D01*
X-87352452Y-29586434D01*
X-87340836Y-29527768D01*
X-87328397Y-29469247D01*
X-87327434Y-29460082D01*
X-87313150Y-29314406D01*
X-87313150Y-29314402D01*
X-87310000Y-29282419D01*
X-87310000Y-25566668D01*
X-87301120Y-25595942D01*
X-87270846Y-25695746D01*
X-87200274Y-25827776D01*
X-87129099Y-25914502D01*
X-87105300Y-25943501D01*
X-87076302Y-25967299D01*
X-86711604Y-26331997D01*
X-86687801Y-26361001D01*
X-86572076Y-26455974D01*
X-86440047Y-26526546D01*
X-86296786Y-26570003D01*
X-86185133Y-26581000D01*
X-86185124Y-26581000D01*
X-86147801Y-26584676D01*
X-86110478Y-26581000D01*
X-74413022Y-26581000D01*
X-74375700Y-26584676D01*
X-74338378Y-26581000D01*
X-74338367Y-26581000D01*
X-74226714Y-26570003D01*
X-74083453Y-26526546D01*
X-73951424Y-26455974D01*
X-73835699Y-26361001D01*
X-73811896Y-26331997D01*
X-69988997Y-22509099D01*
X-69959999Y-22485301D01*
X-69865026Y-22369576D01*
X-69805425Y-22258072D01*
X-69600000Y-22258072D01*
X-69475518Y-22245812D01*
X-69355820Y-22209502D01*
X-69245506Y-22150537D01*
X-69148815Y-22071185D01*
X-69069463Y-21974494D01*
X-69018954Y-21880000D01*
X-56279322Y-21880000D01*
X-56242000Y-21883676D01*
X-56204678Y-21880000D01*
X-56204667Y-21880000D01*
X-56093014Y-21869003D01*
X-55949753Y-21825546D01*
X-55817724Y-21754974D01*
X-55701999Y-21660001D01*
X-55678196Y-21630997D01*
X-52335498Y-18288300D01*
X-31141022Y-18288300D01*
X-31103700Y-18291976D01*
X-31066378Y-18288300D01*
X-31066367Y-18288300D01*
X-30954714Y-18277303D01*
X-30811453Y-18233846D01*
X-30679424Y-18163274D01*
X-30563699Y-18068301D01*
X-30539896Y-18039297D01*
X-28308072Y-15807473D01*
X-28308072Y-15810000D01*
X-28295812Y-15934482D01*
X-28259502Y-16054180D01*
X-28200537Y-16164494D01*
X-28121185Y-16261185D01*
X-28024494Y-16340537D01*
X-27914180Y-16399502D01*
X-27794482Y-16435812D01*
X-27670000Y-16448072D01*
X-25870000Y-16448072D01*
X-25745518Y-16435812D01*
X-25625820Y-16399502D01*
X-25515506Y-16340537D01*
X-25418815Y-16261185D01*
X-25339463Y-16164494D01*
X-25280498Y-16054180D01*
X-25244188Y-15934482D01*
X-25231928Y-15810000D01*
X-25231928Y-14905400D01*
X-11646889Y-14905400D01*
X-6648072Y-19904218D01*
G37*
%TD.AperFunction*%
D30*
X-3727100Y-76147098D02*
X-5078511Y-77498509D01*
X-5119078Y-77449078D01*
X-5284290Y-77313491D01*
X-5472780Y-77212741D01*
X-5677303Y-77150700D01*
X-5836706Y-77135000D01*
X-6443294Y-77135000D01*
X-6602697Y-77150700D01*
X-6807220Y-77212741D01*
X-6995710Y-77313491D01*
X-7160922Y-77449078D01*
X-7296509Y-77614290D01*
X-7397259Y-77802780D01*
X-7459300Y-78007303D01*
X-7480249Y-78220000D01*
X-7459300Y-78432697D01*
X-7397259Y-78637220D01*
X-7330239Y-78762605D01*
X-7332618Y-78765503D01*
X-7412375Y-78914717D01*
X-7461488Y-79076623D01*
X-7478072Y-79245000D01*
X-7478072Y-79695000D01*
X-7461488Y-79863377D01*
X-7412375Y-80025283D01*
X-7332618Y-80174497D01*
X-7225284Y-80305284D01*
X-7094497Y-80412618D01*
X-6945283Y-80492375D01*
X-6783377Y-80541488D01*
X-6615000Y-80558072D01*
X-5665000Y-80558072D01*
X-5496623Y-80541488D01*
X-5334717Y-80492375D01*
X-5185503Y-80412618D01*
X-5054716Y-80305284D01*
X-4947382Y-80174497D01*
X-4867625Y-80025283D01*
X-4818512Y-79863377D01*
X-4801928Y-79695000D01*
X-4801928Y-79371529D01*
X-2459999Y-77029601D01*
X-2459999Y-80607708D01*
X-2464819Y-80656868D01*
X-2469717Y-80673091D01*
X-2477674Y-80688055D01*
X-2488385Y-80701188D01*
X-2501441Y-80711989D01*
X-2516348Y-80720049D01*
X-2532541Y-80725062D01*
X-2579525Y-80730000D01*
X-5282419Y-80730000D01*
X-5310501Y-80732766D01*
X-5315057Y-80732734D01*
X-5324228Y-80733634D01*
X-5469800Y-80748935D01*
X-5528383Y-80760961D01*
X-5587152Y-80772171D01*
X-5595974Y-80774835D01*
X-5735803Y-80818119D01*
X-5790933Y-80841294D01*
X-5846412Y-80863708D01*
X-5854549Y-80868035D01*
X-5983306Y-80937654D01*
X-6032863Y-80971081D01*
X-6082953Y-81003858D01*
X-6090094Y-81009683D01*
X-6202877Y-81102985D01*
X-6244999Y-81145402D01*
X-6287768Y-81187284D01*
X-6293641Y-81194385D01*
X-6386154Y-81307816D01*
X-6419246Y-81357625D01*
X-6453053Y-81406997D01*
X-6457436Y-81415103D01*
X-6526155Y-81544345D01*
X-6548945Y-81599638D01*
X-6572517Y-81654636D01*
X-6575242Y-81663440D01*
X-6617548Y-81803566D01*
X-6629164Y-81862232D01*
X-6641603Y-81920753D01*
X-6642566Y-81929917D01*
X-6656850Y-82075594D01*
X-6656850Y-82075599D01*
X-6660000Y-82107582D01*
X-6659999Y-85672419D01*
X-6657234Y-85700492D01*
X-6657266Y-85705057D01*
X-6656366Y-85714228D01*
X-6641065Y-85859800D01*
X-6629046Y-85918352D01*
X-6617829Y-85977152D01*
X-6615165Y-85985974D01*
X-6571881Y-86125803D01*
X-6548706Y-86180933D01*
X-6526292Y-86236412D01*
X-6521965Y-86244548D01*
X-6452347Y-86373306D01*
X-6418902Y-86422890D01*
X-6386142Y-86472953D01*
X-6380317Y-86480094D01*
X-6287015Y-86592877D01*
X-6244579Y-86635018D01*
X-6202716Y-86677767D01*
X-6195616Y-86683641D01*
X-6082184Y-86776154D01*
X-6032375Y-86809246D01*
X-5983003Y-86843053D01*
X-5974896Y-86847436D01*
X-5845655Y-86916155D01*
X-5790374Y-86938940D01*
X-5735364Y-86962517D01*
X-5726561Y-86965242D01*
X-5586434Y-87007548D01*
X-5527768Y-87019164D01*
X-5469247Y-87031603D01*
X-5460082Y-87032566D01*
X-5314406Y-87046850D01*
X-5314402Y-87046850D01*
X-5282419Y-87050000D01*
X-2582281Y-87050000D01*
X-2533133Y-87054819D01*
X-2516908Y-87059718D01*
X-2501947Y-87067672D01*
X-2488811Y-87078386D01*
X-2478012Y-87091441D01*
X-2469951Y-87106349D01*
X-2464938Y-87122541D01*
X-2460000Y-87169525D01*
X-2460000Y-88491466D01*
X-2898442Y-88053024D01*
X-3469234Y-87671633D01*
X-4103463Y-87408927D01*
X-4776758Y-87275000D01*
X-5463242Y-87275000D01*
X-6136537Y-87408927D01*
X-6770766Y-87671633D01*
X-7341558Y-88053024D01*
X-7826976Y-88538442D01*
X-8208367Y-89109234D01*
X-8471073Y-89743463D01*
X-8605000Y-90416758D01*
X-8605000Y-91103242D01*
X-8471073Y-91776537D01*
X-8208367Y-92410766D01*
X-7826976Y-92981558D01*
X-7341558Y-93466976D01*
X-6770766Y-93848367D01*
X-6136537Y-94111073D01*
X-5463242Y-94245000D01*
X-4776758Y-94245000D01*
X-4103463Y-94111073D01*
X-3469234Y-93848367D01*
X-2898442Y-93466976D01*
X-2459999Y-93028533D01*
X-2459999Y-95230000D01*
X-19203747Y-95230000D01*
X-19191928Y-95110000D01*
X-19191928Y-92510000D01*
X-19204188Y-92385518D01*
X-19240498Y-92265820D01*
X-19299463Y-92155506D01*
X-19378815Y-92058815D01*
X-19475506Y-91979463D01*
X-19585820Y-91920498D01*
X-19705518Y-91884188D01*
X-19830000Y-91871928D01*
X-21932600Y-91871928D01*
X-21932600Y-84814401D01*
X-11702200Y-74584001D01*
X-9354408Y-74584001D01*
X-9343279Y-74664563D01*
X-9250351Y-74858949D01*
X-9121286Y-75031470D01*
X-8961044Y-75175497D01*
X-8775782Y-75285495D01*
X-8572621Y-75357236D01*
X-8359367Y-75387964D01*
X-8187000Y-75223419D01*
X-8187000Y-74417000D01*
X-7933000Y-74417000D01*
X-7933000Y-75223419D01*
X-7760633Y-75387964D01*
X-7547379Y-75357236D01*
X-7344218Y-75285495D01*
X-7158956Y-75175497D01*
X-6998714Y-75031470D01*
X-6869649Y-74858949D01*
X-6776721Y-74664563D01*
X-6765592Y-74584001D01*
X-6892498Y-74417000D01*
X-7933000Y-74417000D01*
X-8187000Y-74417000D01*
X-9227502Y-74417000D01*
X-9354408Y-74584001D01*
X-11702200Y-74584001D01*
X-9708199Y-72590000D01*
X-9398072Y-72590000D01*
X-9398072Y-73490000D01*
X-9385812Y-73614482D01*
X-9349502Y-73734180D01*
X-9300475Y-73825901D01*
X-9343279Y-73915437D01*
X-9354408Y-73995999D01*
X-9227502Y-74163000D01*
X-8187000Y-74163000D01*
X-8187000Y-74143000D01*
X-7933000Y-74143000D01*
X-7933000Y-74163000D01*
X-6892498Y-74163000D01*
X-6765592Y-73995999D01*
X-6776721Y-73915437D01*
X-6819525Y-73825901D01*
X-6770498Y-73734180D01*
X-6734188Y-73614482D01*
X-6721928Y-73490000D01*
X-6721928Y-72590000D01*
X-6734188Y-72465518D01*
X-6770498Y-72345820D01*
X-6829463Y-72235506D01*
X-6908815Y-72138815D01*
X-7005506Y-72059463D01*
X-7115820Y-72000498D01*
X-7235518Y-71964188D01*
X-7360000Y-71951928D01*
X-8760000Y-71951928D01*
X-8884482Y-71964188D01*
X-9004180Y-72000498D01*
X-9114494Y-72059463D01*
X-9211185Y-72138815D01*
X-9290537Y-72235506D01*
X-9349502Y-72345820D01*
X-9385812Y-72465518D01*
X-9398072Y-72590000D01*
X-9708199Y-72590000D01*
X-3727099Y-66608901D01*
X-3727100Y-76147098D01*
%TA.AperFunction,Conductor*%
D31*
G36*
X-3727100Y-76147098D02*
G01*
X-5078511Y-77498509D01*
X-5119078Y-77449078D01*
X-5284290Y-77313491D01*
X-5472780Y-77212741D01*
X-5677303Y-77150700D01*
X-5836706Y-77135000D01*
X-6443294Y-77135000D01*
X-6602697Y-77150700D01*
X-6807220Y-77212741D01*
X-6995710Y-77313491D01*
X-7160922Y-77449078D01*
X-7296509Y-77614290D01*
X-7397259Y-77802780D01*
X-7459300Y-78007303D01*
X-7480249Y-78220000D01*
X-7459300Y-78432697D01*
X-7397259Y-78637220D01*
X-7330239Y-78762605D01*
X-7332618Y-78765503D01*
X-7412375Y-78914717D01*
X-7461488Y-79076623D01*
X-7478072Y-79245000D01*
X-7478072Y-79695000D01*
X-7461488Y-79863377D01*
X-7412375Y-80025283D01*
X-7332618Y-80174497D01*
X-7225284Y-80305284D01*
X-7094497Y-80412618D01*
X-6945283Y-80492375D01*
X-6783377Y-80541488D01*
X-6615000Y-80558072D01*
X-5665000Y-80558072D01*
X-5496623Y-80541488D01*
X-5334717Y-80492375D01*
X-5185503Y-80412618D01*
X-5054716Y-80305284D01*
X-4947382Y-80174497D01*
X-4867625Y-80025283D01*
X-4818512Y-79863377D01*
X-4801928Y-79695000D01*
X-4801928Y-79371529D01*
X-2459999Y-77029601D01*
X-2459999Y-80607708D01*
X-2464819Y-80656868D01*
X-2469717Y-80673091D01*
X-2477674Y-80688055D01*
X-2488385Y-80701188D01*
X-2501441Y-80711989D01*
X-2516348Y-80720049D01*
X-2532541Y-80725062D01*
X-2579525Y-80730000D01*
X-5282419Y-80730000D01*
X-5310501Y-80732766D01*
X-5315057Y-80732734D01*
X-5324228Y-80733634D01*
X-5469800Y-80748935D01*
X-5528383Y-80760961D01*
X-5587152Y-80772171D01*
X-5595974Y-80774835D01*
X-5735803Y-80818119D01*
X-5790933Y-80841294D01*
X-5846412Y-80863708D01*
X-5854549Y-80868035D01*
X-5983306Y-80937654D01*
X-6032863Y-80971081D01*
X-6082953Y-81003858D01*
X-6090094Y-81009683D01*
X-6202877Y-81102985D01*
X-6244999Y-81145402D01*
X-6287768Y-81187284D01*
X-6293641Y-81194385D01*
X-6386154Y-81307816D01*
X-6419246Y-81357625D01*
X-6453053Y-81406997D01*
X-6457436Y-81415103D01*
X-6526155Y-81544345D01*
X-6548945Y-81599638D01*
X-6572517Y-81654636D01*
X-6575242Y-81663440D01*
X-6617548Y-81803566D01*
X-6629164Y-81862232D01*
X-6641603Y-81920753D01*
X-6642566Y-81929917D01*
X-6656850Y-82075594D01*
X-6656850Y-82075599D01*
X-6660000Y-82107582D01*
X-6659999Y-85672419D01*
X-6657234Y-85700492D01*
X-6657266Y-85705057D01*
X-6656366Y-85714228D01*
X-6641065Y-85859800D01*
X-6629046Y-85918352D01*
X-6617829Y-85977152D01*
X-6615165Y-85985974D01*
X-6571881Y-86125803D01*
X-6548706Y-86180933D01*
X-6526292Y-86236412D01*
X-6521965Y-86244548D01*
X-6452347Y-86373306D01*
X-6418902Y-86422890D01*
X-6386142Y-86472953D01*
X-6380317Y-86480094D01*
X-6287015Y-86592877D01*
X-6244579Y-86635018D01*
X-6202716Y-86677767D01*
X-6195616Y-86683641D01*
X-6082184Y-86776154D01*
X-6032375Y-86809246D01*
X-5983003Y-86843053D01*
X-5974896Y-86847436D01*
X-5845655Y-86916155D01*
X-5790374Y-86938940D01*
X-5735364Y-86962517D01*
X-5726561Y-86965242D01*
X-5586434Y-87007548D01*
X-5527768Y-87019164D01*
X-5469247Y-87031603D01*
X-5460082Y-87032566D01*
X-5314406Y-87046850D01*
X-5314402Y-87046850D01*
X-5282419Y-87050000D01*
X-2582281Y-87050000D01*
X-2533133Y-87054819D01*
X-2516908Y-87059718D01*
X-2501947Y-87067672D01*
X-2488811Y-87078386D01*
X-2478012Y-87091441D01*
X-2469951Y-87106349D01*
X-2464938Y-87122541D01*
X-2460000Y-87169525D01*
X-2460000Y-88491466D01*
X-2898442Y-88053024D01*
X-3469234Y-87671633D01*
X-4103463Y-87408927D01*
X-4776758Y-87275000D01*
X-5463242Y-87275000D01*
X-6136537Y-87408927D01*
X-6770766Y-87671633D01*
X-7341558Y-88053024D01*
X-7826976Y-88538442D01*
X-8208367Y-89109234D01*
X-8471073Y-89743463D01*
X-8605000Y-90416758D01*
X-8605000Y-91103242D01*
X-8471073Y-91776537D01*
X-8208367Y-92410766D01*
X-7826976Y-92981558D01*
X-7341558Y-93466976D01*
X-6770766Y-93848367D01*
X-6136537Y-94111073D01*
X-5463242Y-94245000D01*
X-4776758Y-94245000D01*
X-4103463Y-94111073D01*
X-3469234Y-93848367D01*
X-2898442Y-93466976D01*
X-2459999Y-93028533D01*
X-2459999Y-95230000D01*
X-19203747Y-95230000D01*
X-19191928Y-95110000D01*
X-19191928Y-92510000D01*
X-19204188Y-92385518D01*
X-19240498Y-92265820D01*
X-19299463Y-92155506D01*
X-19378815Y-92058815D01*
X-19475506Y-91979463D01*
X-19585820Y-91920498D01*
X-19705518Y-91884188D01*
X-19830000Y-91871928D01*
X-21932600Y-91871928D01*
X-21932600Y-84814401D01*
X-11702200Y-74584001D01*
X-9354408Y-74584001D01*
X-9343279Y-74664563D01*
X-9250351Y-74858949D01*
X-9121286Y-75031470D01*
X-8961044Y-75175497D01*
X-8775782Y-75285495D01*
X-8572621Y-75357236D01*
X-8359367Y-75387964D01*
X-8187000Y-75223419D01*
X-8187000Y-74417000D01*
X-7933000Y-74417000D01*
X-7933000Y-75223419D01*
X-7760633Y-75387964D01*
X-7547379Y-75357236D01*
X-7344218Y-75285495D01*
X-7158956Y-75175497D01*
X-6998714Y-75031470D01*
X-6869649Y-74858949D01*
X-6776721Y-74664563D01*
X-6765592Y-74584001D01*
X-6892498Y-74417000D01*
X-7933000Y-74417000D01*
X-8187000Y-74417000D01*
X-9227502Y-74417000D01*
X-9354408Y-74584001D01*
X-11702200Y-74584001D01*
X-9708199Y-72590000D01*
X-9398072Y-72590000D01*
X-9398072Y-73490000D01*
X-9385812Y-73614482D01*
X-9349502Y-73734180D01*
X-9300475Y-73825901D01*
X-9343279Y-73915437D01*
X-9354408Y-73995999D01*
X-9227502Y-74163000D01*
X-8187000Y-74163000D01*
X-8187000Y-74143000D01*
X-7933000Y-74143000D01*
X-7933000Y-74163000D01*
X-6892498Y-74163000D01*
X-6765592Y-73995999D01*
X-6776721Y-73915437D01*
X-6819525Y-73825901D01*
X-6770498Y-73734180D01*
X-6734188Y-73614482D01*
X-6721928Y-73490000D01*
X-6721928Y-72590000D01*
X-6734188Y-72465518D01*
X-6770498Y-72345820D01*
X-6829463Y-72235506D01*
X-6908815Y-72138815D01*
X-7005506Y-72059463D01*
X-7115820Y-72000498D01*
X-7235518Y-71964188D01*
X-7360000Y-71951928D01*
X-8760000Y-71951928D01*
X-8884482Y-71964188D01*
X-9004180Y-72000498D01*
X-9114494Y-72059463D01*
X-9211185Y-72138815D01*
X-9290537Y-72235506D01*
X-9349502Y-72345820D01*
X-9385812Y-72465518D01*
X-9398072Y-72590000D01*
X-9708199Y-72590000D01*
X-3727099Y-66608901D01*
X-3727100Y-76147098D01*
G37*
%TD.AperFunction*%
D30*
X-30515000Y-40038390D02*
X-30514999Y-41396532D01*
X-30501470Y-41533892D01*
X-30448006Y-41710140D01*
X-30414900Y-41772078D01*
X-30414900Y-42502570D01*
X-30453961Y-42494800D01*
X-30657839Y-42494800D01*
X-30857798Y-42534574D01*
X-31046156Y-42612595D01*
X-31215674Y-42725863D01*
X-31359837Y-42870026D01*
X-31473105Y-43039544D01*
X-31551126Y-43227902D01*
X-31590900Y-43427861D01*
X-31590900Y-43631739D01*
X-31551126Y-43831698D01*
X-31473105Y-44020056D01*
X-31359837Y-44189574D01*
X-31319463Y-44229948D01*
X-31315900Y-44266122D01*
X-31315900Y-44266132D01*
X-31304903Y-44377785D01*
X-31271664Y-44487361D01*
X-31261446Y-44521046D01*
X-31190874Y-44653076D01*
X-31159724Y-44691032D01*
X-31095901Y-44768801D01*
X-31066897Y-44792604D01*
X-31060131Y-44799370D01*
X-31068072Y-44880000D01*
X-31068072Y-46380000D01*
X-31055812Y-46504482D01*
X-31019502Y-46624180D01*
X-30960537Y-46734494D01*
X-30881185Y-46831185D01*
X-30784494Y-46910537D01*
X-30692692Y-46959607D01*
X-30792343Y-47014792D01*
X-30887844Y-47095574D01*
X-30965750Y-47193434D01*
X-31023067Y-47304613D01*
X-31057593Y-47424838D01*
X-31068001Y-47549488D01*
X-31065000Y-48004250D01*
X-30906250Y-48163000D01*
X-30418072Y-48163000D01*
X-30418072Y-48417000D01*
X-30906250Y-48417000D01*
X-31065000Y-48575750D01*
X-31068001Y-49030512D01*
X-31057593Y-49155162D01*
X-31023067Y-49275387D01*
X-30965750Y-49386566D01*
X-30887844Y-49484426D01*
X-30792343Y-49565208D01*
X-30682918Y-49625806D01*
X-30563773Y-49663891D01*
X-30461750Y-49675000D01*
X-30303000Y-49516250D01*
X-30303000Y-49403678D01*
X-30231185Y-49491185D01*
X-30134494Y-49570537D01*
X-30066218Y-49607032D01*
X-29998250Y-49675000D01*
X-29906962Y-49665060D01*
X-29904482Y-49665812D01*
X-29814599Y-49674664D01*
X-29814599Y-50139710D01*
X-30640261Y-50965372D01*
X-30640267Y-50965377D01*
X-30640275Y-50965385D01*
X-30675943Y-50994657D01*
X-30705216Y-51030326D01*
X-31279889Y-51605000D01*
X-35792112Y-51605000D01*
X-35796595Y-51596613D01*
X-35907038Y-51462038D01*
X-36041613Y-51351595D01*
X-36195148Y-51269528D01*
X-36361744Y-51218992D01*
X-36534998Y-51201928D01*
X-37060002Y-51201928D01*
X-37233256Y-51218992D01*
X-37399852Y-51269528D01*
X-37553387Y-51351595D01*
X-37687962Y-51462038D01*
X-37710000Y-51488891D01*
X-37732038Y-51462038D01*
X-37866613Y-51351595D01*
X-38020148Y-51269528D01*
X-38186744Y-51218992D01*
X-38359998Y-51201928D01*
X-38885002Y-51201928D01*
X-39058256Y-51218992D01*
X-39224852Y-51269528D01*
X-39378387Y-51351595D01*
X-39512962Y-51462038D01*
X-39623405Y-51596613D01*
X-39705472Y-51750148D01*
X-39753750Y-51909300D01*
X-40308589Y-51909300D01*
X-40352526Y-51865363D01*
X-40522044Y-51752095D01*
X-40710402Y-51674074D01*
X-40910361Y-51634300D01*
X-41114239Y-51634300D01*
X-41314198Y-51674074D01*
X-41502556Y-51752095D01*
X-41672074Y-51865363D01*
X-41816237Y-52009526D01*
X-41929505Y-52179044D01*
X-42007526Y-52367402D01*
X-42047300Y-52567361D01*
X-42047300Y-52771239D01*
X-42007526Y-52971198D01*
X-41929505Y-53159556D01*
X-41816237Y-53329074D01*
X-41672074Y-53473237D01*
X-41502556Y-53586505D01*
X-41314198Y-53664526D01*
X-41114239Y-53704300D01*
X-40910361Y-53704300D01*
X-40710402Y-53664526D01*
X-40522044Y-53586505D01*
X-40352526Y-53473237D01*
X-40308589Y-53429300D01*
X-39652315Y-53429300D01*
X-39623405Y-53483387D01*
X-39512962Y-53617962D01*
X-39378387Y-53728405D01*
X-39332644Y-53752855D01*
X-43743289Y-58163500D01*
X-64241428Y-58163500D01*
X-64241428Y-57536000D01*
X-64243964Y-57510247D01*
X-64156274Y-57597937D01*
X-63986756Y-57711205D01*
X-63798398Y-57789226D01*
X-63598439Y-57829000D01*
X-63394561Y-57829000D01*
X-63194602Y-57789226D01*
X-63006244Y-57711205D01*
X-62836726Y-57597937D01*
X-62692563Y-57453774D01*
X-62579295Y-57284256D01*
X-62501274Y-57095898D01*
X-62461500Y-56895939D01*
X-62461500Y-56770767D01*
X-62445454Y-56740747D01*
X-62421187Y-56660749D01*
X-62352746Y-56654008D01*
X-62186150Y-56603472D01*
X-62032614Y-56521405D01*
X-61898038Y-56410962D01*
X-61787595Y-56276386D01*
X-61705528Y-56122850D01*
X-61654992Y-55956254D01*
X-61637928Y-55783000D01*
X-61637928Y-54983000D01*
X-61654992Y-54809746D01*
X-61705528Y-54643150D01*
X-61787595Y-54489614D01*
X-61898038Y-54355038D01*
X-62032614Y-54244595D01*
X-62186150Y-54162528D01*
X-62352746Y-54111992D01*
X-62526000Y-54094928D01*
X-63592400Y-54094928D01*
X-63592400Y-53799201D01*
X-63364271Y-53571072D01*
X-62526000Y-53571072D01*
X-62352746Y-53554008D01*
X-62186150Y-53503472D01*
X-62032614Y-53421405D01*
X-61898038Y-53310962D01*
X-61787595Y-53176386D01*
X-61705528Y-53022850D01*
X-61654992Y-52856254D01*
X-61637928Y-52683000D01*
X-61637928Y-51883000D01*
X-61641359Y-51848161D01*
X-61485520Y-51692322D01*
X-61411462Y-51782562D01*
X-61276887Y-51893005D01*
X-61123351Y-51975072D01*
X-60956755Y-52025608D01*
X-60783501Y-52042672D01*
X-59483499Y-52042672D01*
X-59310245Y-52025608D01*
X-59143649Y-51975072D01*
X-58990113Y-51893005D01*
X-58855538Y-51782562D01*
X-58768085Y-51676000D01*
X-57697414Y-51676000D01*
X-57666205Y-51734387D01*
X-57555762Y-51868962D01*
X-57421187Y-51979405D01*
X-57267651Y-52061472D01*
X-57101055Y-52112008D01*
X-56927801Y-52129072D01*
X-55627799Y-52129072D01*
X-55454545Y-52112008D01*
X-55287949Y-52061472D01*
X-55134413Y-51979405D01*
X-54999838Y-51868962D01*
X-54889395Y-51734387D01*
X-54807328Y-51580851D01*
X-54756792Y-51414255D01*
X-54739728Y-51241001D01*
X-54739728Y-50590999D01*
X-54756792Y-50417745D01*
X-54807328Y-50251149D01*
X-54816302Y-50234359D01*
X-54805733Y-50235400D01*
X-54805723Y-50235400D01*
X-54768400Y-50239076D01*
X-54731077Y-50235400D01*
X-46134001Y-50235400D01*
X-46363301Y-50464700D01*
X-46778967Y-50464700D01*
X-46816300Y-50461023D01*
X-46853633Y-50464700D01*
X-46965286Y-50475697D01*
X-47108547Y-50519154D01*
X-47240576Y-50589726D01*
X-47356301Y-50684699D01*
X-47451274Y-50800424D01*
X-47516130Y-50921760D01*
X-47540782Y-50924188D01*
X-47660480Y-50960498D01*
X-47770794Y-51019463D01*
X-47867485Y-51098815D01*
X-47946837Y-51195506D01*
X-48005802Y-51305820D01*
X-48042112Y-51425518D01*
X-48054372Y-51550000D01*
X-48054372Y-52450000D01*
X-48042112Y-52574482D01*
X-48005802Y-52694180D01*
X-47946837Y-52804494D01*
X-47867485Y-52901185D01*
X-47770794Y-52980537D01*
X-47660480Y-53039502D01*
X-47540782Y-53075812D01*
X-47416300Y-53088072D01*
X-46216300Y-53088072D01*
X-46091818Y-53075812D01*
X-45972120Y-53039502D01*
X-45861806Y-52980537D01*
X-45765115Y-52901185D01*
X-45685763Y-52804494D01*
X-45626798Y-52694180D01*
X-45590488Y-52574482D01*
X-45578228Y-52450000D01*
X-45578228Y-51821926D01*
X-45508499Y-51764701D01*
X-45484696Y-51735697D01*
X-42896238Y-49147241D01*
X-42861400Y-49150672D01*
X-42061400Y-49150672D01*
X-41888146Y-49133608D01*
X-41721550Y-49083072D01*
X-41568014Y-49001005D01*
X-41433438Y-48890562D01*
X-41322995Y-48755986D01*
X-41240928Y-48602450D01*
X-41213673Y-48512600D01*
X-40649472Y-48512600D01*
X-40637212Y-48637082D01*
X-40600902Y-48756780D01*
X-40541937Y-48867094D01*
X-40462585Y-48963785D01*
X-40365894Y-49043137D01*
X-40255580Y-49102102D01*
X-40135882Y-49138412D01*
X-40011400Y-49150672D01*
X-39647150Y-49147600D01*
X-39488400Y-48988850D01*
X-39488400Y-47764600D01*
X-39234400Y-47764600D01*
X-39234400Y-48988850D01*
X-39075650Y-49147600D01*
X-38711400Y-49150672D01*
X-38586918Y-49138412D01*
X-38467220Y-49102102D01*
X-38356906Y-49043137D01*
X-38260215Y-48963785D01*
X-38248902Y-48950000D01*
X-37028072Y-48950000D01*
X-37015812Y-49074482D01*
X-36979502Y-49194180D01*
X-36920537Y-49304494D01*
X-36841185Y-49401185D01*
X-36744494Y-49480537D01*
X-36634180Y-49539502D01*
X-36514482Y-49575812D01*
X-36390000Y-49588072D01*
X-35775750Y-49585000D01*
X-35617000Y-49426250D01*
X-35617000Y-48577000D01*
X-35363000Y-48577000D01*
X-35363000Y-49426250D01*
X-35204250Y-49585000D01*
X-34590000Y-49588072D01*
X-34465518Y-49575812D01*
X-34345820Y-49539502D01*
X-34235506Y-49480537D01*
X-34138815Y-49401185D01*
X-34059463Y-49304494D01*
X-34000498Y-49194180D01*
X-33964188Y-49074482D01*
X-33951928Y-48950000D01*
X-33955000Y-48735750D01*
X-34113750Y-48577000D01*
X-35363000Y-48577000D01*
X-35617000Y-48577000D01*
X-36866250Y-48577000D01*
X-37025000Y-48735750D01*
X-37028072Y-48950000D01*
X-38248902Y-48950000D01*
X-38180863Y-48867094D01*
X-38121898Y-48756780D01*
X-38085588Y-48637082D01*
X-38073328Y-48512600D01*
X-38076261Y-47950000D01*
X-37028072Y-47950000D01*
X-37025000Y-48164250D01*
X-36866250Y-48323000D01*
X-35617000Y-48323000D01*
X-35617000Y-47473750D01*
X-35363000Y-47473750D01*
X-35363000Y-48323000D01*
X-34113750Y-48323000D01*
X-33955000Y-48164250D01*
X-33951928Y-47950000D01*
X-33964188Y-47825518D01*
X-34000498Y-47705820D01*
X-34059463Y-47595506D01*
X-34138815Y-47498815D01*
X-34235506Y-47419463D01*
X-34345820Y-47360498D01*
X-34465518Y-47324188D01*
X-34590000Y-47311928D01*
X-35204250Y-47315000D01*
X-35363000Y-47473750D01*
X-35617000Y-47473750D01*
X-35775750Y-47315000D01*
X-36390000Y-47311928D01*
X-36514482Y-47324188D01*
X-36634180Y-47360498D01*
X-36744494Y-47419463D01*
X-36841185Y-47498815D01*
X-36920537Y-47595506D01*
X-36979502Y-47705820D01*
X-37015812Y-47825518D01*
X-37028072Y-47950000D01*
X-38076261Y-47950000D01*
X-38076400Y-47923350D01*
X-38235150Y-47764600D01*
X-39234400Y-47764600D01*
X-39488400Y-47764600D01*
X-40487650Y-47764600D01*
X-40646400Y-47923350D01*
X-40649472Y-48512600D01*
X-41213673Y-48512600D01*
X-41190392Y-48435854D01*
X-41173328Y-48262600D01*
X-41173328Y-47012600D01*
X-41190392Y-46839346D01*
X-41213672Y-46762600D01*
X-40649472Y-46762600D01*
X-40646400Y-47351850D01*
X-40487650Y-47510600D01*
X-39488400Y-47510600D01*
X-39488400Y-46286350D01*
X-39234400Y-46286350D01*
X-39234400Y-47510600D01*
X-38235150Y-47510600D01*
X-38076400Y-47351850D01*
X-38073328Y-46762600D01*
X-38085588Y-46638118D01*
X-38121898Y-46518420D01*
X-38180863Y-46408106D01*
X-38260215Y-46311415D01*
X-38356906Y-46232063D01*
X-38467220Y-46173098D01*
X-38586918Y-46136788D01*
X-38711400Y-46124528D01*
X-39075650Y-46127600D01*
X-39234400Y-46286350D01*
X-39488400Y-46286350D01*
X-39647150Y-46127600D01*
X-40011400Y-46124528D01*
X-40135882Y-46136788D01*
X-40255580Y-46173098D01*
X-40365894Y-46232063D01*
X-40462585Y-46311415D01*
X-40541937Y-46408106D01*
X-40600902Y-46518420D01*
X-40637212Y-46638118D01*
X-40649472Y-46762600D01*
X-41213672Y-46762600D01*
X-41240928Y-46672750D01*
X-41322995Y-46519214D01*
X-41433438Y-46384638D01*
X-41568014Y-46274195D01*
X-41721550Y-46192128D01*
X-41888146Y-46141592D01*
X-42061400Y-46124528D01*
X-42861400Y-46124528D01*
X-43034654Y-46141592D01*
X-43201250Y-46192128D01*
X-43354786Y-46274195D01*
X-43489362Y-46384638D01*
X-43599805Y-46519214D01*
X-43681872Y-46672750D01*
X-43732408Y-46839346D01*
X-43749472Y-47012600D01*
X-43749472Y-47850869D01*
X-43905800Y-48007198D01*
X-43905800Y-46243901D01*
X-43044839Y-45382941D01*
X-43010000Y-45386372D01*
X-42210000Y-45386372D01*
X-42036746Y-45369308D01*
X-41870150Y-45318772D01*
X-41716614Y-45236705D01*
X-41582038Y-45126262D01*
X-41471595Y-44991686D01*
X-41389528Y-44838150D01*
X-41362273Y-44748300D01*
X-40798072Y-44748300D01*
X-40785812Y-44872782D01*
X-40749502Y-44992480D01*
X-40690537Y-45102794D01*
X-40611185Y-45199485D01*
X-40514494Y-45278837D01*
X-40404180Y-45337802D01*
X-40284482Y-45374112D01*
X-40160000Y-45386372D01*
X-39795750Y-45383300D01*
X-39637000Y-45224550D01*
X-39637000Y-44000300D01*
X-39383000Y-44000300D01*
X-39383000Y-45224550D01*
X-39224250Y-45383300D01*
X-38860000Y-45386372D01*
X-38735518Y-45374112D01*
X-38615820Y-45337802D01*
X-38505506Y-45278837D01*
X-38408815Y-45199485D01*
X-38329463Y-45102794D01*
X-38270498Y-44992480D01*
X-38234188Y-44872782D01*
X-38221928Y-44748300D01*
X-38225000Y-44159050D01*
X-38383750Y-44000300D01*
X-39383000Y-44000300D01*
X-39637000Y-44000300D01*
X-40636250Y-44000300D01*
X-40795000Y-44159050D01*
X-40798072Y-44748300D01*
X-41362273Y-44748300D01*
X-41338992Y-44671554D01*
X-41321928Y-44498300D01*
X-41321928Y-43248300D01*
X-41338992Y-43075046D01*
X-41362272Y-42998300D01*
X-40798072Y-42998300D01*
X-40795000Y-43587550D01*
X-40636250Y-43746300D01*
X-39637000Y-43746300D01*
X-39637000Y-42522050D01*
X-39383000Y-42522050D01*
X-39383000Y-43746300D01*
X-38383750Y-43746300D01*
X-38225000Y-43587550D01*
X-38221928Y-42998300D01*
X-38234188Y-42873818D01*
X-38270498Y-42754120D01*
X-38329463Y-42643806D01*
X-38408815Y-42547115D01*
X-38505506Y-42467763D01*
X-38615820Y-42408798D01*
X-38735518Y-42372488D01*
X-38860000Y-42360228D01*
X-39224250Y-42363300D01*
X-39383000Y-42522050D01*
X-39637000Y-42522050D01*
X-39795750Y-42363300D01*
X-40160000Y-42360228D01*
X-40284482Y-42372488D01*
X-40404180Y-42408798D01*
X-40514494Y-42467763D01*
X-40611185Y-42547115D01*
X-40690537Y-42643806D01*
X-40749502Y-42754120D01*
X-40785812Y-42873818D01*
X-40798072Y-42998300D01*
X-41362272Y-42998300D01*
X-41389528Y-42908450D01*
X-41471595Y-42754914D01*
X-41582038Y-42620338D01*
X-41716614Y-42509895D01*
X-41870150Y-42427828D01*
X-42036746Y-42377292D01*
X-42210000Y-42360228D01*
X-43010000Y-42360228D01*
X-43183254Y-42377292D01*
X-43349850Y-42427828D01*
X-43503386Y-42509895D01*
X-43637962Y-42620338D01*
X-43748405Y-42754914D01*
X-43830472Y-42908450D01*
X-43881008Y-43075046D01*
X-43898072Y-43248300D01*
X-43898072Y-44086570D01*
X-45176802Y-45365301D01*
X-45205800Y-45389099D01*
X-45229598Y-45418097D01*
X-45229599Y-45418098D01*
X-45300774Y-45504824D01*
X-45371346Y-45636854D01*
X-45375075Y-45649148D01*
X-45414802Y-45780114D01*
X-45422597Y-45859254D01*
X-45429476Y-45929100D01*
X-45425799Y-45966432D01*
X-45425800Y-47781498D01*
X-45634922Y-47990621D01*
X-45685763Y-47895506D01*
X-45765115Y-47798815D01*
X-45861806Y-47719463D01*
X-45972120Y-47660498D01*
X-46091818Y-47624188D01*
X-46116470Y-47621760D01*
X-46124372Y-47606976D01*
X-46181326Y-47500423D01*
X-46252501Y-47413697D01*
X-46276299Y-47384699D01*
X-46305297Y-47360901D01*
X-47416200Y-46249999D01*
X-47416200Y-41781772D01*
X-46937599Y-41781772D01*
X-46764345Y-41764708D01*
X-46597749Y-41714172D01*
X-46444213Y-41632105D01*
X-46309638Y-41521662D01*
X-46199195Y-41387087D01*
X-46120642Y-41240126D01*
X-46089498Y-41253026D01*
X-45889539Y-41292800D01*
X-45685661Y-41292800D01*
X-45485702Y-41253026D01*
X-45454558Y-41240126D01*
X-45376005Y-41387087D01*
X-45265562Y-41521662D01*
X-45130987Y-41632105D01*
X-44977451Y-41714172D01*
X-44810855Y-41764708D01*
X-44637601Y-41781772D01*
X-43987599Y-41781772D01*
X-43814345Y-41764708D01*
X-43647749Y-41714172D01*
X-43494213Y-41632105D01*
X-43359638Y-41521662D01*
X-43249195Y-41387087D01*
X-43167128Y-41233551D01*
X-43116592Y-41066955D01*
X-43099528Y-40893701D01*
X-43099528Y-39593699D01*
X-43116592Y-39420445D01*
X-43167128Y-39253849D01*
X-43249195Y-39100313D01*
X-43359638Y-38965738D01*
X-43494213Y-38855295D01*
X-43552600Y-38824086D01*
X-43552600Y-38284401D01*
X-43323170Y-38054972D01*
X-42634900Y-38054972D01*
X-42481155Y-38039829D01*
X-42333318Y-37994984D01*
X-42197071Y-37922158D01*
X-42077649Y-37824151D01*
X-41979642Y-37704729D01*
X-41906816Y-37568482D01*
X-41861971Y-37420645D01*
X-41846828Y-37266900D01*
X-41846828Y-36966900D01*
X-41861971Y-36813155D01*
X-41906816Y-36665318D01*
X-41979642Y-36529071D01*
X-42018354Y-36481900D01*
X-41979642Y-36434729D01*
X-41937614Y-36356100D01*
X-41637261Y-36356100D01*
X-41578205Y-36466586D01*
X-41467762Y-36601162D01*
X-41432629Y-36629995D01*
X-41515662Y-36698138D01*
X-41626105Y-36832713D01*
X-41708172Y-36986249D01*
X-41758708Y-37152845D01*
X-41775772Y-37326099D01*
X-41775772Y-37976101D01*
X-41758708Y-38149355D01*
X-41708172Y-38315951D01*
X-41626105Y-38469487D01*
X-41515662Y-38604062D01*
X-41381087Y-38714505D01*
X-41227551Y-38796572D01*
X-41137112Y-38824006D01*
X-41159726Y-38878602D01*
X-41199500Y-39078561D01*
X-41199500Y-39282439D01*
X-41168607Y-39437748D01*
X-41227551Y-39455628D01*
X-41381087Y-39537695D01*
X-41515662Y-39648138D01*
X-41626105Y-39782713D01*
X-41708172Y-39936249D01*
X-41758708Y-40102845D01*
X-41775772Y-40276099D01*
X-41775772Y-40926101D01*
X-41758708Y-41099355D01*
X-41708172Y-41265951D01*
X-41626105Y-41419487D01*
X-41515662Y-41554062D01*
X-41381087Y-41664505D01*
X-41227551Y-41746572D01*
X-41060955Y-41797108D01*
X-40887701Y-41814172D01*
X-39587699Y-41814172D01*
X-39414445Y-41797108D01*
X-39247849Y-41746572D01*
X-39094313Y-41664505D01*
X-38959738Y-41554062D01*
X-38849295Y-41419487D01*
X-38767228Y-41265951D01*
X-38716692Y-41099355D01*
X-38699628Y-40926101D01*
X-38699628Y-40276099D01*
X-38716692Y-40102845D01*
X-38767228Y-39936249D01*
X-38849295Y-39782713D01*
X-38959738Y-39648138D01*
X-39094313Y-39537695D01*
X-39174439Y-39494867D01*
X-39169274Y-39482398D01*
X-39129500Y-39282439D01*
X-39129500Y-39078561D01*
X-39169274Y-38878602D01*
X-39211336Y-38777055D01*
X-39094313Y-38714505D01*
X-38959738Y-38604062D01*
X-38849295Y-38469487D01*
X-38767228Y-38315951D01*
X-38716692Y-38149355D01*
X-38699628Y-37976101D01*
X-38699628Y-37326099D01*
X-38716692Y-37152845D01*
X-38767228Y-36986249D01*
X-38849295Y-36832713D01*
X-38959738Y-36698138D01*
X-39019871Y-36648788D01*
X-38961838Y-36601162D01*
X-38851395Y-36466586D01*
X-38769328Y-36313050D01*
X-38718792Y-36146454D01*
X-38701728Y-35973200D01*
X-38701728Y-35173200D01*
X-38718792Y-34999946D01*
X-38769328Y-34833350D01*
X-38851395Y-34679814D01*
X-38961838Y-34545238D01*
X-39096414Y-34434795D01*
X-39249950Y-34352728D01*
X-39416546Y-34302192D01*
X-39589800Y-34285128D01*
X-40839800Y-34285128D01*
X-41013054Y-34302192D01*
X-41179650Y-34352728D01*
X-41333186Y-34434795D01*
X-41467762Y-34545238D01*
X-41578205Y-34679814D01*
X-41660272Y-34833350D01*
X-41661106Y-34836100D01*
X-41857584Y-34836100D01*
X-41846828Y-34726900D01*
X-41846828Y-34426900D01*
X-41861971Y-34273155D01*
X-41906816Y-34125318D01*
X-41979642Y-33989071D01*
X-42018354Y-33941900D01*
X-41979642Y-33894729D01*
X-41906816Y-33758482D01*
X-41861971Y-33610645D01*
X-41846828Y-33456900D01*
X-41846828Y-33233200D01*
X-41649502Y-33233200D01*
X-41578205Y-33366586D01*
X-41467762Y-33501162D01*
X-41333186Y-33611605D01*
X-41179650Y-33693672D01*
X-41013054Y-33744208D01*
X-40839800Y-33761272D01*
X-39589800Y-33761272D01*
X-39416546Y-33744208D01*
X-39249950Y-33693672D01*
X-39096414Y-33611605D01*
X-38961838Y-33501162D01*
X-38851395Y-33366586D01*
X-38769328Y-33213050D01*
X-38718792Y-33046454D01*
X-38701728Y-32873200D01*
X-38701728Y-32073200D01*
X-38718792Y-31899946D01*
X-38747247Y-31806143D01*
X-30515000Y-40038390D01*
%TA.AperFunction,Conductor*%
D31*
G36*
X-30515000Y-40038390D02*
G01*
X-30514999Y-41396532D01*
X-30501470Y-41533892D01*
X-30448006Y-41710140D01*
X-30414900Y-41772078D01*
X-30414900Y-42502570D01*
X-30453961Y-42494800D01*
X-30657839Y-42494800D01*
X-30857798Y-42534574D01*
X-31046156Y-42612595D01*
X-31215674Y-42725863D01*
X-31359837Y-42870026D01*
X-31473105Y-43039544D01*
X-31551126Y-43227902D01*
X-31590900Y-43427861D01*
X-31590900Y-43631739D01*
X-31551126Y-43831698D01*
X-31473105Y-44020056D01*
X-31359837Y-44189574D01*
X-31319463Y-44229948D01*
X-31315900Y-44266122D01*
X-31315900Y-44266132D01*
X-31304903Y-44377785D01*
X-31271664Y-44487361D01*
X-31261446Y-44521046D01*
X-31190874Y-44653076D01*
X-31159724Y-44691032D01*
X-31095901Y-44768801D01*
X-31066897Y-44792604D01*
X-31060131Y-44799370D01*
X-31068072Y-44880000D01*
X-31068072Y-46380000D01*
X-31055812Y-46504482D01*
X-31019502Y-46624180D01*
X-30960537Y-46734494D01*
X-30881185Y-46831185D01*
X-30784494Y-46910537D01*
X-30692692Y-46959607D01*
X-30792343Y-47014792D01*
X-30887844Y-47095574D01*
X-30965750Y-47193434D01*
X-31023067Y-47304613D01*
X-31057593Y-47424838D01*
X-31068001Y-47549488D01*
X-31065000Y-48004250D01*
X-30906250Y-48163000D01*
X-30418072Y-48163000D01*
X-30418072Y-48417000D01*
X-30906250Y-48417000D01*
X-31065000Y-48575750D01*
X-31068001Y-49030512D01*
X-31057593Y-49155162D01*
X-31023067Y-49275387D01*
X-30965750Y-49386566D01*
X-30887844Y-49484426D01*
X-30792343Y-49565208D01*
X-30682918Y-49625806D01*
X-30563773Y-49663891D01*
X-30461750Y-49675000D01*
X-30303000Y-49516250D01*
X-30303000Y-49403678D01*
X-30231185Y-49491185D01*
X-30134494Y-49570537D01*
X-30066218Y-49607032D01*
X-29998250Y-49675000D01*
X-29906962Y-49665060D01*
X-29904482Y-49665812D01*
X-29814599Y-49674664D01*
X-29814599Y-50139710D01*
X-30640261Y-50965372D01*
X-30640267Y-50965377D01*
X-30640275Y-50965385D01*
X-30675943Y-50994657D01*
X-30705216Y-51030326D01*
X-31279889Y-51605000D01*
X-35792112Y-51605000D01*
X-35796595Y-51596613D01*
X-35907038Y-51462038D01*
X-36041613Y-51351595D01*
X-36195148Y-51269528D01*
X-36361744Y-51218992D01*
X-36534998Y-51201928D01*
X-37060002Y-51201928D01*
X-37233256Y-51218992D01*
X-37399852Y-51269528D01*
X-37553387Y-51351595D01*
X-37687962Y-51462038D01*
X-37710000Y-51488891D01*
X-37732038Y-51462038D01*
X-37866613Y-51351595D01*
X-38020148Y-51269528D01*
X-38186744Y-51218992D01*
X-38359998Y-51201928D01*
X-38885002Y-51201928D01*
X-39058256Y-51218992D01*
X-39224852Y-51269528D01*
X-39378387Y-51351595D01*
X-39512962Y-51462038D01*
X-39623405Y-51596613D01*
X-39705472Y-51750148D01*
X-39753750Y-51909300D01*
X-40308589Y-51909300D01*
X-40352526Y-51865363D01*
X-40522044Y-51752095D01*
X-40710402Y-51674074D01*
X-40910361Y-51634300D01*
X-41114239Y-51634300D01*
X-41314198Y-51674074D01*
X-41502556Y-51752095D01*
X-41672074Y-51865363D01*
X-41816237Y-52009526D01*
X-41929505Y-52179044D01*
X-42007526Y-52367402D01*
X-42047300Y-52567361D01*
X-42047300Y-52771239D01*
X-42007526Y-52971198D01*
X-41929505Y-53159556D01*
X-41816237Y-53329074D01*
X-41672074Y-53473237D01*
X-41502556Y-53586505D01*
X-41314198Y-53664526D01*
X-41114239Y-53704300D01*
X-40910361Y-53704300D01*
X-40710402Y-53664526D01*
X-40522044Y-53586505D01*
X-40352526Y-53473237D01*
X-40308589Y-53429300D01*
X-39652315Y-53429300D01*
X-39623405Y-53483387D01*
X-39512962Y-53617962D01*
X-39378387Y-53728405D01*
X-39332644Y-53752855D01*
X-43743289Y-58163500D01*
X-64241428Y-58163500D01*
X-64241428Y-57536000D01*
X-64243964Y-57510247D01*
X-64156274Y-57597937D01*
X-63986756Y-57711205D01*
X-63798398Y-57789226D01*
X-63598439Y-57829000D01*
X-63394561Y-57829000D01*
X-63194602Y-57789226D01*
X-63006244Y-57711205D01*
X-62836726Y-57597937D01*
X-62692563Y-57453774D01*
X-62579295Y-57284256D01*
X-62501274Y-57095898D01*
X-62461500Y-56895939D01*
X-62461500Y-56770767D01*
X-62445454Y-56740747D01*
X-62421187Y-56660749D01*
X-62352746Y-56654008D01*
X-62186150Y-56603472D01*
X-62032614Y-56521405D01*
X-61898038Y-56410962D01*
X-61787595Y-56276386D01*
X-61705528Y-56122850D01*
X-61654992Y-55956254D01*
X-61637928Y-55783000D01*
X-61637928Y-54983000D01*
X-61654992Y-54809746D01*
X-61705528Y-54643150D01*
X-61787595Y-54489614D01*
X-61898038Y-54355038D01*
X-62032614Y-54244595D01*
X-62186150Y-54162528D01*
X-62352746Y-54111992D01*
X-62526000Y-54094928D01*
X-63592400Y-54094928D01*
X-63592400Y-53799201D01*
X-63364271Y-53571072D01*
X-62526000Y-53571072D01*
X-62352746Y-53554008D01*
X-62186150Y-53503472D01*
X-62032614Y-53421405D01*
X-61898038Y-53310962D01*
X-61787595Y-53176386D01*
X-61705528Y-53022850D01*
X-61654992Y-52856254D01*
X-61637928Y-52683000D01*
X-61637928Y-51883000D01*
X-61641359Y-51848161D01*
X-61485520Y-51692322D01*
X-61411462Y-51782562D01*
X-61276887Y-51893005D01*
X-61123351Y-51975072D01*
X-60956755Y-52025608D01*
X-60783501Y-52042672D01*
X-59483499Y-52042672D01*
X-59310245Y-52025608D01*
X-59143649Y-51975072D01*
X-58990113Y-51893005D01*
X-58855538Y-51782562D01*
X-58768085Y-51676000D01*
X-57697414Y-51676000D01*
X-57666205Y-51734387D01*
X-57555762Y-51868962D01*
X-57421187Y-51979405D01*
X-57267651Y-52061472D01*
X-57101055Y-52112008D01*
X-56927801Y-52129072D01*
X-55627799Y-52129072D01*
X-55454545Y-52112008D01*
X-55287949Y-52061472D01*
X-55134413Y-51979405D01*
X-54999838Y-51868962D01*
X-54889395Y-51734387D01*
X-54807328Y-51580851D01*
X-54756792Y-51414255D01*
X-54739728Y-51241001D01*
X-54739728Y-50590999D01*
X-54756792Y-50417745D01*
X-54807328Y-50251149D01*
X-54816302Y-50234359D01*
X-54805733Y-50235400D01*
X-54805723Y-50235400D01*
X-54768400Y-50239076D01*
X-54731077Y-50235400D01*
X-46134001Y-50235400D01*
X-46363301Y-50464700D01*
X-46778967Y-50464700D01*
X-46816300Y-50461023D01*
X-46853633Y-50464700D01*
X-46965286Y-50475697D01*
X-47108547Y-50519154D01*
X-47240576Y-50589726D01*
X-47356301Y-50684699D01*
X-47451274Y-50800424D01*
X-47516130Y-50921760D01*
X-47540782Y-50924188D01*
X-47660480Y-50960498D01*
X-47770794Y-51019463D01*
X-47867485Y-51098815D01*
X-47946837Y-51195506D01*
X-48005802Y-51305820D01*
X-48042112Y-51425518D01*
X-48054372Y-51550000D01*
X-48054372Y-52450000D01*
X-48042112Y-52574482D01*
X-48005802Y-52694180D01*
X-47946837Y-52804494D01*
X-47867485Y-52901185D01*
X-47770794Y-52980537D01*
X-47660480Y-53039502D01*
X-47540782Y-53075812D01*
X-47416300Y-53088072D01*
X-46216300Y-53088072D01*
X-46091818Y-53075812D01*
X-45972120Y-53039502D01*
X-45861806Y-52980537D01*
X-45765115Y-52901185D01*
X-45685763Y-52804494D01*
X-45626798Y-52694180D01*
X-45590488Y-52574482D01*
X-45578228Y-52450000D01*
X-45578228Y-51821926D01*
X-45508499Y-51764701D01*
X-45484696Y-51735697D01*
X-42896238Y-49147241D01*
X-42861400Y-49150672D01*
X-42061400Y-49150672D01*
X-41888146Y-49133608D01*
X-41721550Y-49083072D01*
X-41568014Y-49001005D01*
X-41433438Y-48890562D01*
X-41322995Y-48755986D01*
X-41240928Y-48602450D01*
X-41213673Y-48512600D01*
X-40649472Y-48512600D01*
X-40637212Y-48637082D01*
X-40600902Y-48756780D01*
X-40541937Y-48867094D01*
X-40462585Y-48963785D01*
X-40365894Y-49043137D01*
X-40255580Y-49102102D01*
X-40135882Y-49138412D01*
X-40011400Y-49150672D01*
X-39647150Y-49147600D01*
X-39488400Y-48988850D01*
X-39488400Y-47764600D01*
X-39234400Y-47764600D01*
X-39234400Y-48988850D01*
X-39075650Y-49147600D01*
X-38711400Y-49150672D01*
X-38586918Y-49138412D01*
X-38467220Y-49102102D01*
X-38356906Y-49043137D01*
X-38260215Y-48963785D01*
X-38248902Y-48950000D01*
X-37028072Y-48950000D01*
X-37015812Y-49074482D01*
X-36979502Y-49194180D01*
X-36920537Y-49304494D01*
X-36841185Y-49401185D01*
X-36744494Y-49480537D01*
X-36634180Y-49539502D01*
X-36514482Y-49575812D01*
X-36390000Y-49588072D01*
X-35775750Y-49585000D01*
X-35617000Y-49426250D01*
X-35617000Y-48577000D01*
X-35363000Y-48577000D01*
X-35363000Y-49426250D01*
X-35204250Y-49585000D01*
X-34590000Y-49588072D01*
X-34465518Y-49575812D01*
X-34345820Y-49539502D01*
X-34235506Y-49480537D01*
X-34138815Y-49401185D01*
X-34059463Y-49304494D01*
X-34000498Y-49194180D01*
X-33964188Y-49074482D01*
X-33951928Y-48950000D01*
X-33955000Y-48735750D01*
X-34113750Y-48577000D01*
X-35363000Y-48577000D01*
X-35617000Y-48577000D01*
X-36866250Y-48577000D01*
X-37025000Y-48735750D01*
X-37028072Y-48950000D01*
X-38248902Y-48950000D01*
X-38180863Y-48867094D01*
X-38121898Y-48756780D01*
X-38085588Y-48637082D01*
X-38073328Y-48512600D01*
X-38076261Y-47950000D01*
X-37028072Y-47950000D01*
X-37025000Y-48164250D01*
X-36866250Y-48323000D01*
X-35617000Y-48323000D01*
X-35617000Y-47473750D01*
X-35363000Y-47473750D01*
X-35363000Y-48323000D01*
X-34113750Y-48323000D01*
X-33955000Y-48164250D01*
X-33951928Y-47950000D01*
X-33964188Y-47825518D01*
X-34000498Y-47705820D01*
X-34059463Y-47595506D01*
X-34138815Y-47498815D01*
X-34235506Y-47419463D01*
X-34345820Y-47360498D01*
X-34465518Y-47324188D01*
X-34590000Y-47311928D01*
X-35204250Y-47315000D01*
X-35363000Y-47473750D01*
X-35617000Y-47473750D01*
X-35775750Y-47315000D01*
X-36390000Y-47311928D01*
X-36514482Y-47324188D01*
X-36634180Y-47360498D01*
X-36744494Y-47419463D01*
X-36841185Y-47498815D01*
X-36920537Y-47595506D01*
X-36979502Y-47705820D01*
X-37015812Y-47825518D01*
X-37028072Y-47950000D01*
X-38076261Y-47950000D01*
X-38076400Y-47923350D01*
X-38235150Y-47764600D01*
X-39234400Y-47764600D01*
X-39488400Y-47764600D01*
X-40487650Y-47764600D01*
X-40646400Y-47923350D01*
X-40649472Y-48512600D01*
X-41213673Y-48512600D01*
X-41190392Y-48435854D01*
X-41173328Y-48262600D01*
X-41173328Y-47012600D01*
X-41190392Y-46839346D01*
X-41213672Y-46762600D01*
X-40649472Y-46762600D01*
X-40646400Y-47351850D01*
X-40487650Y-47510600D01*
X-39488400Y-47510600D01*
X-39488400Y-46286350D01*
X-39234400Y-46286350D01*
X-39234400Y-47510600D01*
X-38235150Y-47510600D01*
X-38076400Y-47351850D01*
X-38073328Y-46762600D01*
X-38085588Y-46638118D01*
X-38121898Y-46518420D01*
X-38180863Y-46408106D01*
X-38260215Y-46311415D01*
X-38356906Y-46232063D01*
X-38467220Y-46173098D01*
X-38586918Y-46136788D01*
X-38711400Y-46124528D01*
X-39075650Y-46127600D01*
X-39234400Y-46286350D01*
X-39488400Y-46286350D01*
X-39647150Y-46127600D01*
X-40011400Y-46124528D01*
X-40135882Y-46136788D01*
X-40255580Y-46173098D01*
X-40365894Y-46232063D01*
X-40462585Y-46311415D01*
X-40541937Y-46408106D01*
X-40600902Y-46518420D01*
X-40637212Y-46638118D01*
X-40649472Y-46762600D01*
X-41213672Y-46762600D01*
X-41240928Y-46672750D01*
X-41322995Y-46519214D01*
X-41433438Y-46384638D01*
X-41568014Y-46274195D01*
X-41721550Y-46192128D01*
X-41888146Y-46141592D01*
X-42061400Y-46124528D01*
X-42861400Y-46124528D01*
X-43034654Y-46141592D01*
X-43201250Y-46192128D01*
X-43354786Y-46274195D01*
X-43489362Y-46384638D01*
X-43599805Y-46519214D01*
X-43681872Y-46672750D01*
X-43732408Y-46839346D01*
X-43749472Y-47012600D01*
X-43749472Y-47850869D01*
X-43905800Y-48007198D01*
X-43905800Y-46243901D01*
X-43044839Y-45382941D01*
X-43010000Y-45386372D01*
X-42210000Y-45386372D01*
X-42036746Y-45369308D01*
X-41870150Y-45318772D01*
X-41716614Y-45236705D01*
X-41582038Y-45126262D01*
X-41471595Y-44991686D01*
X-41389528Y-44838150D01*
X-41362273Y-44748300D01*
X-40798072Y-44748300D01*
X-40785812Y-44872782D01*
X-40749502Y-44992480D01*
X-40690537Y-45102794D01*
X-40611185Y-45199485D01*
X-40514494Y-45278837D01*
X-40404180Y-45337802D01*
X-40284482Y-45374112D01*
X-40160000Y-45386372D01*
X-39795750Y-45383300D01*
X-39637000Y-45224550D01*
X-39637000Y-44000300D01*
X-39383000Y-44000300D01*
X-39383000Y-45224550D01*
X-39224250Y-45383300D01*
X-38860000Y-45386372D01*
X-38735518Y-45374112D01*
X-38615820Y-45337802D01*
X-38505506Y-45278837D01*
X-38408815Y-45199485D01*
X-38329463Y-45102794D01*
X-38270498Y-44992480D01*
X-38234188Y-44872782D01*
X-38221928Y-44748300D01*
X-38225000Y-44159050D01*
X-38383750Y-44000300D01*
X-39383000Y-44000300D01*
X-39637000Y-44000300D01*
X-40636250Y-44000300D01*
X-40795000Y-44159050D01*
X-40798072Y-44748300D01*
X-41362273Y-44748300D01*
X-41338992Y-44671554D01*
X-41321928Y-44498300D01*
X-41321928Y-43248300D01*
X-41338992Y-43075046D01*
X-41362272Y-42998300D01*
X-40798072Y-42998300D01*
X-40795000Y-43587550D01*
X-40636250Y-43746300D01*
X-39637000Y-43746300D01*
X-39637000Y-42522050D01*
X-39383000Y-42522050D01*
X-39383000Y-43746300D01*
X-38383750Y-43746300D01*
X-38225000Y-43587550D01*
X-38221928Y-42998300D01*
X-38234188Y-42873818D01*
X-38270498Y-42754120D01*
X-38329463Y-42643806D01*
X-38408815Y-42547115D01*
X-38505506Y-42467763D01*
X-38615820Y-42408798D01*
X-38735518Y-42372488D01*
X-38860000Y-42360228D01*
X-39224250Y-42363300D01*
X-39383000Y-42522050D01*
X-39637000Y-42522050D01*
X-39795750Y-42363300D01*
X-40160000Y-42360228D01*
X-40284482Y-42372488D01*
X-40404180Y-42408798D01*
X-40514494Y-42467763D01*
X-40611185Y-42547115D01*
X-40690537Y-42643806D01*
X-40749502Y-42754120D01*
X-40785812Y-42873818D01*
X-40798072Y-42998300D01*
X-41362272Y-42998300D01*
X-41389528Y-42908450D01*
X-41471595Y-42754914D01*
X-41582038Y-42620338D01*
X-41716614Y-42509895D01*
X-41870150Y-42427828D01*
X-42036746Y-42377292D01*
X-42210000Y-42360228D01*
X-43010000Y-42360228D01*
X-43183254Y-42377292D01*
X-43349850Y-42427828D01*
X-43503386Y-42509895D01*
X-43637962Y-42620338D01*
X-43748405Y-42754914D01*
X-43830472Y-42908450D01*
X-43881008Y-43075046D01*
X-43898072Y-43248300D01*
X-43898072Y-44086570D01*
X-45176802Y-45365301D01*
X-45205800Y-45389099D01*
X-45229598Y-45418097D01*
X-45229599Y-45418098D01*
X-45300774Y-45504824D01*
X-45371346Y-45636854D01*
X-45375075Y-45649148D01*
X-45414802Y-45780114D01*
X-45422597Y-45859254D01*
X-45429476Y-45929100D01*
X-45425799Y-45966432D01*
X-45425800Y-47781498D01*
X-45634922Y-47990621D01*
X-45685763Y-47895506D01*
X-45765115Y-47798815D01*
X-45861806Y-47719463D01*
X-45972120Y-47660498D01*
X-46091818Y-47624188D01*
X-46116470Y-47621760D01*
X-46124372Y-47606976D01*
X-46181326Y-47500423D01*
X-46252501Y-47413697D01*
X-46276299Y-47384699D01*
X-46305297Y-47360901D01*
X-47416200Y-46249999D01*
X-47416200Y-41781772D01*
X-46937599Y-41781772D01*
X-46764345Y-41764708D01*
X-46597749Y-41714172D01*
X-46444213Y-41632105D01*
X-46309638Y-41521662D01*
X-46199195Y-41387087D01*
X-46120642Y-41240126D01*
X-46089498Y-41253026D01*
X-45889539Y-41292800D01*
X-45685661Y-41292800D01*
X-45485702Y-41253026D01*
X-45454558Y-41240126D01*
X-45376005Y-41387087D01*
X-45265562Y-41521662D01*
X-45130987Y-41632105D01*
X-44977451Y-41714172D01*
X-44810855Y-41764708D01*
X-44637601Y-41781772D01*
X-43987599Y-41781772D01*
X-43814345Y-41764708D01*
X-43647749Y-41714172D01*
X-43494213Y-41632105D01*
X-43359638Y-41521662D01*
X-43249195Y-41387087D01*
X-43167128Y-41233551D01*
X-43116592Y-41066955D01*
X-43099528Y-40893701D01*
X-43099528Y-39593699D01*
X-43116592Y-39420445D01*
X-43167128Y-39253849D01*
X-43249195Y-39100313D01*
X-43359638Y-38965738D01*
X-43494213Y-38855295D01*
X-43552600Y-38824086D01*
X-43552600Y-38284401D01*
X-43323170Y-38054972D01*
X-42634900Y-38054972D01*
X-42481155Y-38039829D01*
X-42333318Y-37994984D01*
X-42197071Y-37922158D01*
X-42077649Y-37824151D01*
X-41979642Y-37704729D01*
X-41906816Y-37568482D01*
X-41861971Y-37420645D01*
X-41846828Y-37266900D01*
X-41846828Y-36966900D01*
X-41861971Y-36813155D01*
X-41906816Y-36665318D01*
X-41979642Y-36529071D01*
X-42018354Y-36481900D01*
X-41979642Y-36434729D01*
X-41937614Y-36356100D01*
X-41637261Y-36356100D01*
X-41578205Y-36466586D01*
X-41467762Y-36601162D01*
X-41432629Y-36629995D01*
X-41515662Y-36698138D01*
X-41626105Y-36832713D01*
X-41708172Y-36986249D01*
X-41758708Y-37152845D01*
X-41775772Y-37326099D01*
X-41775772Y-37976101D01*
X-41758708Y-38149355D01*
X-41708172Y-38315951D01*
X-41626105Y-38469487D01*
X-41515662Y-38604062D01*
X-41381087Y-38714505D01*
X-41227551Y-38796572D01*
X-41137112Y-38824006D01*
X-41159726Y-38878602D01*
X-41199500Y-39078561D01*
X-41199500Y-39282439D01*
X-41168607Y-39437748D01*
X-41227551Y-39455628D01*
X-41381087Y-39537695D01*
X-41515662Y-39648138D01*
X-41626105Y-39782713D01*
X-41708172Y-39936249D01*
X-41758708Y-40102845D01*
X-41775772Y-40276099D01*
X-41775772Y-40926101D01*
X-41758708Y-41099355D01*
X-41708172Y-41265951D01*
X-41626105Y-41419487D01*
X-41515662Y-41554062D01*
X-41381087Y-41664505D01*
X-41227551Y-41746572D01*
X-41060955Y-41797108D01*
X-40887701Y-41814172D01*
X-39587699Y-41814172D01*
X-39414445Y-41797108D01*
X-39247849Y-41746572D01*
X-39094313Y-41664505D01*
X-38959738Y-41554062D01*
X-38849295Y-41419487D01*
X-38767228Y-41265951D01*
X-38716692Y-41099355D01*
X-38699628Y-40926101D01*
X-38699628Y-40276099D01*
X-38716692Y-40102845D01*
X-38767228Y-39936249D01*
X-38849295Y-39782713D01*
X-38959738Y-39648138D01*
X-39094313Y-39537695D01*
X-39174439Y-39494867D01*
X-39169274Y-39482398D01*
X-39129500Y-39282439D01*
X-39129500Y-39078561D01*
X-39169274Y-38878602D01*
X-39211336Y-38777055D01*
X-39094313Y-38714505D01*
X-38959738Y-38604062D01*
X-38849295Y-38469487D01*
X-38767228Y-38315951D01*
X-38716692Y-38149355D01*
X-38699628Y-37976101D01*
X-38699628Y-37326099D01*
X-38716692Y-37152845D01*
X-38767228Y-36986249D01*
X-38849295Y-36832713D01*
X-38959738Y-36698138D01*
X-39019871Y-36648788D01*
X-38961838Y-36601162D01*
X-38851395Y-36466586D01*
X-38769328Y-36313050D01*
X-38718792Y-36146454D01*
X-38701728Y-35973200D01*
X-38701728Y-35173200D01*
X-38718792Y-34999946D01*
X-38769328Y-34833350D01*
X-38851395Y-34679814D01*
X-38961838Y-34545238D01*
X-39096414Y-34434795D01*
X-39249950Y-34352728D01*
X-39416546Y-34302192D01*
X-39589800Y-34285128D01*
X-40839800Y-34285128D01*
X-41013054Y-34302192D01*
X-41179650Y-34352728D01*
X-41333186Y-34434795D01*
X-41467762Y-34545238D01*
X-41578205Y-34679814D01*
X-41660272Y-34833350D01*
X-41661106Y-34836100D01*
X-41857584Y-34836100D01*
X-41846828Y-34726900D01*
X-41846828Y-34426900D01*
X-41861971Y-34273155D01*
X-41906816Y-34125318D01*
X-41979642Y-33989071D01*
X-42018354Y-33941900D01*
X-41979642Y-33894729D01*
X-41906816Y-33758482D01*
X-41861971Y-33610645D01*
X-41846828Y-33456900D01*
X-41846828Y-33233200D01*
X-41649502Y-33233200D01*
X-41578205Y-33366586D01*
X-41467762Y-33501162D01*
X-41333186Y-33611605D01*
X-41179650Y-33693672D01*
X-41013054Y-33744208D01*
X-40839800Y-33761272D01*
X-39589800Y-33761272D01*
X-39416546Y-33744208D01*
X-39249950Y-33693672D01*
X-39096414Y-33611605D01*
X-38961838Y-33501162D01*
X-38851395Y-33366586D01*
X-38769328Y-33213050D01*
X-38718792Y-33046454D01*
X-38701728Y-32873200D01*
X-38701728Y-32073200D01*
X-38718792Y-31899946D01*
X-38747247Y-31806143D01*
X-30515000Y-40038390D01*
G37*
%TD.AperFunction*%
%TD*%
M02*
