M48
; DRILL file {KiCad (5.1.12)-1} date 02/07/23 17:32:09
; FORMAT={-:-/ absolute / inch / decimal}
; #@! TF.CreationDate,2023-02-07T17:32:09-05:00
; #@! TF.GenerationSoftware,Kicad,Pcbnew,(5.1.12)-1
; #@! TF.FileFunction,Plated,1,2,PTH
FMAT,2
INCH
T1C0.0157
T2C0.0197
T3C0.0236
T4C0.0394
T5C0.1260
%
G90
G05
T1
X-3.2113Y-1.6183
X-2.9804Y-1.4465
X-2.6479Y-2.063
X-2.4999Y-2.236
X-2.0844Y-1.5554
X-2.0607Y-1.2459
X-1.9297Y-1.2531
X-1.8027Y-1.585
X-1.6147Y-2.0736
X-1.5813Y-1.5425
X-1.203Y-1.7138
X-1.2004Y-1.9633
X-1.1013Y-0.8918
X-1.0581Y-2.3373
X-1.0552Y-2.5089
X-0.4808Y-1.7644
X-0.3651Y-2.3588
X-0.3398Y-1.264
X-0.3267Y-1.0061
T2
X-3.3697Y-0.6917
X-3.3697Y-0.7409
X-3.3697Y-0.7902
X-3.3697Y-0.8394
X-3.3697Y-0.8886
X-3.3697Y-0.9378
X-3.3697Y-0.987
T3
X-3.4268Y-1.3695
X-3.4268Y-1.4187
X-3.3339Y-3.0791
X-3.3339Y-3.1283
X-3.2319Y-2.8756
X-3.2319Y-2.9248
X-3.2213Y-2.6193
X-3.2213Y-2.6685
X-0.3677Y-2.6535
X-0.3677Y-2.7028
X-0.3173Y-2.8756
X-0.3173Y-2.9248
X-0.2417Y-3.0795
X-0.2417Y-3.1287
X-0.2091Y-0.7843
X-0.2091Y-0.8335
X-0.2091Y-0.8827
X-0.2091Y-0.9319
X-0.2091Y-0.9811
X-0.118Y-1.434
X-0.118Y-1.4832
X-0.1106Y-2.3928
X-0.1106Y-2.442
T4
X-2.9969Y-0.1894
X-2.9969Y-0.2894
X-2.9969Y-0.3969
X-2.9969Y-0.4969
X-2.8969Y-0.1894
X-2.8969Y-0.2894
X-2.8969Y-0.3969
X-2.8969Y-0.4969
X-2.7969Y-0.1894
X-2.7969Y-0.2894
X-2.7969Y-0.3969
X-2.7969Y-0.4969
X-2.6969Y-0.1894
X-2.6969Y-0.2894
X-2.6969Y-0.3969
X-2.6969Y-0.4969
X-2.5969Y-0.1894
X-2.5969Y-0.2894
X-2.5969Y-0.3969
X-2.5969Y-0.4969
X-2.4969Y-0.1894
X-2.4969Y-0.2894
X-2.4969Y-0.3969
X-2.4969Y-0.4969
X-2.3969Y-0.1894
X-2.3969Y-0.2894
X-2.3969Y-0.3969
X-2.3969Y-0.4969
X-2.2969Y-0.1894
X-2.2969Y-0.2894
X-2.2969Y-0.3969
X-2.2969Y-0.4969
X-2.1969Y-0.1894
X-2.1969Y-0.2894
X-2.1969Y-0.3969
X-2.1969Y-0.4969
X-2.0969Y-0.1894
X-2.0969Y-0.2894
X-2.0969Y-0.3969
X-2.0969Y-0.4969
X-1.9969Y-0.1894
X-1.9969Y-0.2894
X-1.9969Y-0.3969
X-1.9969Y-0.4969
X-1.8969Y-0.1894
X-1.8969Y-0.2894
X-1.8969Y-0.3969
X-1.8969Y-0.4969
X-1.7969Y-0.1894
X-1.7969Y-0.2894
X-1.7969Y-0.3969
X-1.7969Y-0.4969
X-1.6969Y-0.1894
X-1.6969Y-0.2894
X-1.6969Y-0.3969
X-1.6969Y-0.4969
X-1.5969Y-0.1894
X-1.5969Y-0.2894
X-1.5969Y-0.3969
X-1.5969Y-0.4969
X-1.4969Y-0.1894
X-1.4969Y-0.2894
X-1.4969Y-0.3969
X-1.4969Y-0.4969
X-1.3969Y-0.1894
X-1.3969Y-0.2894
X-1.3969Y-0.3969
X-1.3969Y-0.4969
X-1.2969Y-0.1894
X-1.2969Y-0.2894
X-1.2969Y-0.3969
X-1.2969Y-0.4969
X-1.1969Y-0.1894
X-1.1969Y-0.2894
X-1.1969Y-0.3969
X-1.1969Y-0.4969
X-1.0969Y-0.1894
X-1.0969Y-0.2894
X-1.0969Y-0.3969
X-1.0969Y-0.4969
X-0.9969Y-0.1894
X-0.9969Y-0.2894
X-0.9969Y-0.3969
X-0.9969Y-0.4969
X-0.8969Y-0.1894
X-0.8969Y-0.2894
X-0.8969Y-0.3969
X-0.8969Y-0.4969
X-0.7969Y-0.1894
X-0.7969Y-0.2894
X-0.7969Y-0.3969
X-0.7969Y-0.4969
X-0.6969Y-0.1894
X-0.6969Y-0.2894
X-0.6969Y-0.3969
X-0.6969Y-0.4969
X-0.5969Y-0.1894
X-0.5969Y-0.2894
X-0.5969Y-0.3969
X-0.5969Y-0.4969
X-0.4969Y-0.1894
X-0.4969Y-0.2894
X-0.4969Y-0.3969
X-0.4969Y-0.4969
T5
X-3.3512Y-3.5772
X-3.1996Y-0.1996
X-0.3012Y-0.1996
X-0.2016Y-3.5732
T0
M30
