%TF.GenerationSoftware,KiCad,Pcbnew,(5.1.12)-1*%
%TF.CreationDate,2022-07-05T07:26:00-06:00*%
%TF.ProjectId,RADSAT-SK Timer 2,52414453-4154-42d5-934b-2054696d6572,rev?*%
%TF.SameCoordinates,PX7735940PY2faf080*%
%TF.FileFunction,Copper,L2,Bot*%
%TF.FilePolarity,Positive*%
%FSLAX46Y46*%
G04 Gerber Fmt 4.6, Leading zero omitted, Abs format (unit mm)*
G04 Created by KiCad (PCBNEW (5.1.12)-1) date 2022-07-05 07:26:00*
%MOMM*%
%LPD*%
G01*
G04 APERTURE LIST*
%TA.AperFunction,ComponentPad*%
%ADD10O,1.600000X1.600000*%
%TD*%
%TA.AperFunction,ComponentPad*%
%ADD11C,1.600000*%
%TD*%
%TA.AperFunction,ComponentPad*%
%ADD12C,2.000000*%
%TD*%
%TA.AperFunction,ComponentPad*%
%ADD13O,1.400000X0.900000*%
%TD*%
%TA.AperFunction,ComponentPad*%
%ADD14O,1.700000X1.700000*%
%TD*%
%TA.AperFunction,ComponentPad*%
%ADD15R,1.700000X1.700000*%
%TD*%
%TA.AperFunction,ConnectorPad*%
%ADD16C,5.700000*%
%TD*%
%TA.AperFunction,ComponentPad*%
%ADD17C,3.600000*%
%TD*%
%TA.AperFunction,ComponentPad*%
%ADD18O,1.300000X0.800000*%
%TD*%
%TA.AperFunction,ComponentPad*%
%ADD19R,1.400000X0.900000*%
%TD*%
%TA.AperFunction,ViaPad*%
%ADD20C,0.800000*%
%TD*%
%TA.AperFunction,Conductor*%
%ADD21C,0.250000*%
%TD*%
%TA.AperFunction,Conductor*%
%ADD22C,0.254000*%
%TD*%
%TA.AperFunction,Conductor*%
%ADD23C,0.100000*%
%TD*%
G04 APERTURE END LIST*
D10*
%TO.P,R111,2*%
%TO.N,Net-(D102-Pad1)*%
X-56680000Y-56490000D03*
D11*
%TO.P,R111,1*%
%TO.N,GND*%
X-56680000Y-69190000D03*
%TD*%
D12*
%TO.P,U102,18*%
%TO.N,N/C*%
X-41040000Y-39850000D03*
%TO.P,U102,17*%
X-38540000Y-39850000D03*
%TO.P,U102,16*%
X-36040000Y-39850000D03*
%TO.P,U102,24*%
%TO.N,GND*%
X-56040000Y-39850000D03*
%TO.P,U102,15*%
%TO.N,N/C*%
X-33540000Y-39850000D03*
%TO.P,U102,14*%
X-31040000Y-39850000D03*
%TO.P,U102,23*%
X-53540000Y-39850000D03*
%TO.P,U102,20*%
X-46040000Y-39850000D03*
%TO.P,U102,22*%
X-51040000Y-39850000D03*
%TO.P,U102,21*%
X-48540000Y-39850000D03*
%TO.P,U102,19*%
X-43540000Y-39850000D03*
%TO.P,U102,13*%
%TO.N,Inhib_EN*%
X-28540000Y-39850000D03*
%TO.P,U102,12*%
%TO.N,+5V*%
X-28540000Y-23850000D03*
%TO.P,U102,11*%
%TO.N,N/C*%
X-31040000Y-23850000D03*
%TO.P,U102,10*%
X-33540000Y-23850000D03*
%TO.P,U102,9*%
X-36040000Y-23850000D03*
%TO.P,U102,8*%
X-38540000Y-23850000D03*
%TO.P,U102,7*%
X-41040000Y-23850000D03*
%TO.P,U102,6*%
X-43540000Y-23850000D03*
%TO.P,U102,5*%
X-46040000Y-23850000D03*
%TO.P,U102,4*%
X-48540000Y-23850000D03*
%TO.P,U102,3*%
X-51040000Y-23850000D03*
%TO.P,U102,2*%
X-53540000Y-23850000D03*
%TO.P,U102,1*%
%TO.N,B*%
X-56040000Y-23850000D03*
%TD*%
D13*
%TO.P,J202,5*%
%TO.N,Net-(BT201-Pad2)*%
X-5310000Y-24920000D03*
%TO.P,J202,4*%
%TO.N,InhibV+*%
X-5310000Y-23670000D03*
%TO.P,J202,3*%
%TO.N,Net-(J202-Pad3)*%
X-5310000Y-22420000D03*
%TO.P,J202,2*%
%TO.N,Net-(D204-Pad6)*%
X-5310000Y-21170000D03*
%TO.P,J202,1*%
%TO.N,USB_Charge*%
%TA.AperFunction,ComponentPad*%
G36*
G01*
X-5785000Y-19470000D02*
X-4835000Y-19470000D01*
G75*
G02*
X-4610000Y-19695000I0J-225000D01*
G01*
X-4610000Y-20145000D01*
G75*
G02*
X-4835000Y-20370000I-225000J0D01*
G01*
X-5785000Y-20370000D01*
G75*
G02*
X-6010000Y-20145000I0J225000D01*
G01*
X-6010000Y-19695000D01*
G75*
G02*
X-5785000Y-19470000I225000J0D01*
G01*
G37*
%TD.AperFunction*%
%TD*%
D14*
%TO.P,J207,52*%
%TO.N,N/C*%
X-12620000Y-7350000D03*
%TO.P,J207,51*%
X-12620000Y-4810000D03*
%TO.P,J207,50*%
X-15160000Y-7350000D03*
%TO.P,J207,49*%
X-15160000Y-4810000D03*
%TO.P,J207,48*%
X-17700000Y-7350000D03*
%TO.P,J207,47*%
X-17700000Y-4810000D03*
%TO.P,J207,46*%
X-20240000Y-7350000D03*
%TO.P,J207,45*%
X-20240000Y-4810000D03*
%TO.P,J207,44*%
X-22780000Y-7350000D03*
%TO.P,J207,43*%
X-22780000Y-4810000D03*
%TO.P,J207,42*%
X-25320000Y-7350000D03*
%TO.P,J207,41*%
X-25320000Y-4810000D03*
%TO.P,J207,40*%
X-27860000Y-7350000D03*
%TO.P,J207,39*%
X-27860000Y-4810000D03*
%TO.P,J207,38*%
X-30400000Y-7350000D03*
%TO.P,J207,37*%
X-30400000Y-4810000D03*
%TO.P,J207,36*%
X-32940000Y-7350000D03*
%TO.P,J207,35*%
X-32940000Y-4810000D03*
%TO.P,J207,34*%
X-35480000Y-7350000D03*
%TO.P,J207,33*%
X-35480000Y-4810000D03*
%TO.P,J207,32*%
%TO.N,GND*%
X-38020000Y-7350000D03*
%TO.P,J207,31*%
%TO.N,N/C*%
X-38020000Y-4810000D03*
%TO.P,J207,30*%
%TO.N,GND*%
X-40560000Y-7350000D03*
%TO.P,J207,29*%
X-40560000Y-4810000D03*
%TO.P,J207,28*%
%TO.N,+3V3*%
X-43100000Y-7350000D03*
%TO.P,J207,27*%
X-43100000Y-4810000D03*
%TO.P,J207,26*%
%TO.N,+5V*%
X-45640000Y-7350000D03*
%TO.P,J207,25*%
X-45640000Y-4810000D03*
%TO.P,J207,24*%
%TO.N,N/C*%
X-48180000Y-7350000D03*
%TO.P,J207,23*%
X-48180000Y-4810000D03*
%TO.P,J207,22*%
X-50720000Y-7350000D03*
%TO.P,J207,21*%
X-50720000Y-4810000D03*
%TO.P,J207,20*%
X-53260000Y-7350000D03*
%TO.P,J207,19*%
X-53260000Y-4810000D03*
%TO.P,J207,18*%
X-55800000Y-7350000D03*
%TO.P,J207,17*%
X-55800000Y-4810000D03*
%TO.P,J207,16*%
X-58340000Y-7350000D03*
%TO.P,J207,15*%
X-58340000Y-4810000D03*
%TO.P,J207,14*%
X-60880000Y-7350000D03*
%TO.P,J207,13*%
X-60880000Y-4810000D03*
%TO.P,J207,12*%
X-63420000Y-7350000D03*
%TO.P,J207,11*%
X-63420000Y-4810000D03*
%TO.P,J207,10*%
X-65960000Y-7350000D03*
%TO.P,J207,9*%
X-65960000Y-4810000D03*
%TO.P,J207,8*%
X-68500000Y-7350000D03*
%TO.P,J207,7*%
X-68500000Y-4810000D03*
%TO.P,J207,6*%
X-71040000Y-7350000D03*
%TO.P,J207,5*%
X-71040000Y-4810000D03*
%TO.P,J207,4*%
X-73580000Y-7350000D03*
%TO.P,J207,3*%
X-73580000Y-4810000D03*
%TO.P,J207,2*%
X-76120000Y-7350000D03*
D15*
%TO.P,J207,1*%
X-76120000Y-4810000D03*
%TD*%
D14*
%TO.P,J208,52*%
%TO.N,N/C*%
X-12620000Y-12620000D03*
%TO.P,J208,51*%
X-12620000Y-10080000D03*
%TO.P,J208,50*%
X-15160000Y-12620000D03*
%TO.P,J208,49*%
X-15160000Y-10080000D03*
%TO.P,J208,48*%
X-17700000Y-12620000D03*
%TO.P,J208,47*%
X-17700000Y-10080000D03*
%TO.P,J208,46*%
X-20240000Y-12620000D03*
%TO.P,J208,45*%
X-20240000Y-10080000D03*
%TO.P,J208,44*%
X-22780000Y-12620000D03*
%TO.P,J208,43*%
%TO.N,I2C_CLK*%
X-22780000Y-10080000D03*
%TO.P,J208,42*%
%TO.N,N/C*%
X-25320000Y-12620000D03*
%TO.P,J208,41*%
%TO.N,I2C_DATA*%
X-25320000Y-10080000D03*
%TO.P,J208,40*%
%TO.N,N/C*%
X-27860000Y-12620000D03*
%TO.P,J208,39*%
X-27860000Y-10080000D03*
%TO.P,J208,38*%
X-30400000Y-12620000D03*
%TO.P,J208,37*%
X-30400000Y-10080000D03*
%TO.P,J208,36*%
X-32940000Y-12620000D03*
%TO.P,J208,35*%
X-32940000Y-10080000D03*
%TO.P,J208,34*%
X-35480000Y-12620000D03*
%TO.P,J208,33*%
X-35480000Y-10080000D03*
%TO.P,J208,32*%
%TO.N,USB_Charge*%
X-38020000Y-12620000D03*
%TO.P,J208,31*%
%TO.N,N/C*%
X-38020000Y-10080000D03*
%TO.P,J208,30*%
X-40560000Y-12620000D03*
%TO.P,J208,29*%
X-40560000Y-10080000D03*
%TO.P,J208,28*%
X-43100000Y-12620000D03*
%TO.P,J208,27*%
X-43100000Y-10080000D03*
%TO.P,J208,26*%
X-45640000Y-12620000D03*
%TO.P,J208,25*%
X-45640000Y-10080000D03*
%TO.P,J208,24*%
X-48180000Y-12620000D03*
%TO.P,J208,23*%
X-48180000Y-10080000D03*
%TO.P,J208,22*%
X-50720000Y-12620000D03*
%TO.P,J208,21*%
X-50720000Y-10080000D03*
%TO.P,J208,20*%
X-53260000Y-12620000D03*
%TO.P,J208,19*%
X-53260000Y-10080000D03*
%TO.P,J208,18*%
X-55800000Y-12620000D03*
%TO.P,J208,17*%
X-55800000Y-10080000D03*
%TO.P,J208,16*%
X-58340000Y-12620000D03*
%TO.P,J208,15*%
X-58340000Y-10080000D03*
%TO.P,J208,14*%
X-60880000Y-12620000D03*
%TO.P,J208,13*%
X-60880000Y-10080000D03*
%TO.P,J208,12*%
X-63420000Y-12620000D03*
%TO.P,J208,11*%
X-63420000Y-10080000D03*
%TO.P,J208,10*%
X-65960000Y-12620000D03*
%TO.P,J208,9*%
X-65960000Y-10080000D03*
%TO.P,J208,8*%
X-68500000Y-12620000D03*
%TO.P,J208,7*%
X-68500000Y-10080000D03*
%TO.P,J208,6*%
X-71040000Y-12620000D03*
%TO.P,J208,5*%
X-71040000Y-10080000D03*
%TO.P,J208,4*%
X-73580000Y-12620000D03*
%TO.P,J208,3*%
X-73580000Y-10080000D03*
%TO.P,J208,2*%
X-76120000Y-12620000D03*
D15*
%TO.P,J208,1*%
X-76120000Y-10080000D03*
%TD*%
D16*
%TO.P,H102,1*%
%TO.N,N/C*%
X-7650000Y-5070000D03*
D17*
X-7650000Y-5070000D03*
%TD*%
%TO.P,J201,1*%
%TO.N,+3V3*%
%TA.AperFunction,ComponentPad*%
G36*
G01*
X-86040000Y-17170000D02*
X-85140000Y-17170000D01*
G75*
G02*
X-84940000Y-17370000I0J-200000D01*
G01*
X-84940000Y-17770000D01*
G75*
G02*
X-85140000Y-17970000I-200000J0D01*
G01*
X-86040000Y-17970000D01*
G75*
G02*
X-86240000Y-17770000I0J200000D01*
G01*
X-86240000Y-17370000D01*
G75*
G02*
X-86040000Y-17170000I200000J0D01*
G01*
G37*
%TD.AperFunction*%
D18*
%TO.P,J201,2*%
X-85590000Y-18820000D03*
%TO.P,J201,3*%
%TO.N,I2C_DATA*%
X-85590000Y-20070000D03*
%TO.P,J201,4*%
%TO.N,I2C_CLK*%
X-85590000Y-21320000D03*
%TO.P,J201,5*%
%TO.N,GND*%
X-85590000Y-22570000D03*
%TO.P,J201,6*%
X-85590000Y-23820000D03*
%TO.P,J201,7*%
X-85590000Y-25070000D03*
%TD*%
%TO.P,SW201,1*%
%TO.N,Net-(SW201-Pad1)*%
%TA.AperFunction,ComponentPad*%
G36*
G01*
X-9815000Y-66950000D02*
X-8865000Y-66950000D01*
G75*
G02*
X-8640000Y-67175000I0J-225000D01*
G01*
X-8640000Y-67625000D01*
G75*
G02*
X-8865000Y-67850000I-225000J0D01*
G01*
X-9815000Y-67850000D01*
G75*
G02*
X-10040000Y-67625000I0J225000D01*
G01*
X-10040000Y-67175000D01*
G75*
G02*
X-9815000Y-66950000I225000J0D01*
G01*
G37*
%TD.AperFunction*%
D13*
%TO.P,SW201,2*%
%TO.N,B*%
X-9340000Y-68650000D03*
%TD*%
D16*
%TO.P,H103,1*%
%TO.N,N/C*%
X-5120000Y-90760000D03*
D17*
X-5120000Y-90760000D03*
%TD*%
D13*
%TO.P,SW206,2*%
%TO.N,GND*%
X-6140000Y-78220000D03*
%TO.P,SW206,1*%
%TO.N,Net-(J202-Pad3)*%
%TA.AperFunction,ComponentPad*%
G36*
G01*
X-5665000Y-79920000D02*
X-6615000Y-79920000D01*
G75*
G02*
X-6840000Y-79695000I0J225000D01*
G01*
X-6840000Y-79245000D01*
G75*
G02*
X-6615000Y-79020000I225000J0D01*
G01*
X-5665000Y-79020000D01*
G75*
G02*
X-5440000Y-79245000I0J-225000D01*
G01*
X-5440000Y-79695000D01*
G75*
G02*
X-5665000Y-79920000I-225000J0D01*
G01*
G37*
%TD.AperFunction*%
%TD*%
D19*
%TO.P,SW202,1*%
%TO.N,Net-(SW201-Pad1)*%
X-8060000Y-73040000D03*
D13*
%TO.P,SW202,2*%
%TO.N,B*%
X-8060000Y-74290000D03*
%TD*%
%TO.P,J205,2*%
%TO.N,Net-(J205-Pad2)*%
X-2996000Y-37672800D03*
%TO.P,J205,1*%
%TO.N,Net-(J205-Pad1)*%
%TA.AperFunction,ComponentPad*%
G36*
G01*
X-3471000Y-35972800D02*
X-2521000Y-35972800D01*
G75*
G02*
X-2296000Y-36197800I0J-225000D01*
G01*
X-2296000Y-36647800D01*
G75*
G02*
X-2521000Y-36872800I-225000J0D01*
G01*
X-3471000Y-36872800D01*
G75*
G02*
X-3696000Y-36647800I0J225000D01*
G01*
X-3696000Y-36197800D01*
G75*
G02*
X-3471000Y-35972800I225000J0D01*
G01*
G37*
%TD.AperFunction*%
%TD*%
%TO.P,SW204,2*%
%TO.N,Net-(SW201-Pad1)*%
X-82090000Y-73040000D03*
D19*
%TO.P,SW204,1*%
%TO.N,A*%
X-82090000Y-74290000D03*
%TD*%
D13*
%TO.P,SW203,2*%
%TO.N,Net-(SW201-Pad1)*%
X-81820000Y-66530000D03*
D19*
%TO.P,SW203,1*%
%TO.N,A*%
X-81820000Y-67780000D03*
%TD*%
D13*
%TO.P,SW205,2*%
%TO.N,GND*%
X-84680000Y-79460000D03*
%TO.P,SW205,1*%
%TO.N,Net-(J202-Pad3)*%
%TA.AperFunction,ComponentPad*%
G36*
G01*
X-85155000Y-77760000D02*
X-84205000Y-77760000D01*
G75*
G02*
X-83980000Y-77985000I0J-225000D01*
G01*
X-83980000Y-78435000D01*
G75*
G02*
X-84205000Y-78660000I-225000J0D01*
G01*
X-85155000Y-78660000D01*
G75*
G02*
X-85380000Y-78435000I0J225000D01*
G01*
X-85380000Y-77985000D01*
G75*
G02*
X-85155000Y-77760000I225000J0D01*
G01*
G37*
%TD.AperFunction*%
%TD*%
D16*
%TO.P,H104,1*%
%TO.N,N/C*%
X-85120000Y-90860000D03*
D17*
X-85120000Y-90860000D03*
%TD*%
%TO.P,J206,1*%
%TO.N,Net-(J206-Pad1)*%
%TA.AperFunction,ComponentPad*%
G36*
G01*
X-86564700Y-36484900D02*
X-87514700Y-36484900D01*
G75*
G02*
X-87739700Y-36259900I0J225000D01*
G01*
X-87739700Y-35809900D01*
G75*
G02*
X-87514700Y-35584900I225000J0D01*
G01*
X-86564700Y-35584900D01*
G75*
G02*
X-86339700Y-35809900I0J-225000D01*
G01*
X-86339700Y-36259900D01*
G75*
G02*
X-86564700Y-36484900I-225000J0D01*
G01*
G37*
%TD.AperFunction*%
D13*
%TO.P,J206,2*%
%TO.N,Net-(J206-Pad2)*%
X-87039700Y-34784900D03*
%TD*%
%TO.P,J204,2*%
%TO.N,Net-(J204-Pad2)*%
X-2808000Y-62027000D03*
D19*
%TO.P,J204,1*%
%TO.N,Net-(J204-Pad1)*%
X-2808000Y-60777000D03*
%TD*%
D16*
%TO.P,H101,1*%
%TO.N,N/C*%
X-81270000Y-5070000D03*
D17*
X-81270000Y-5070000D03*
%TD*%
D20*
%TO.N,InhibV+*%
X-64730200Y-36414200D03*
%TO.N,Net-(Q204-Pad1)*%
X-63129600Y-38700000D03*
X-10429000Y-56351000D03*
%TO.N,Net-(Q206-Pad1)*%
X-22483800Y-52767100D03*
X-78020000Y-42210000D03*
%TO.N,B*%
X-35966800Y-50530900D03*
%TO.N,GND*%
X-61914800Y-49188900D03*
X-49117000Y-55392200D03*
X-69474500Y-47023900D03*
X-38330900Y-50698400D03*
X-67879000Y-56132800D03*
X-9721400Y-24630800D03*
X-37141500Y-58144400D03*
X-26800900Y-64162600D03*
X-79454300Y-60496800D03*
X-10136700Y-36186300D03*
X-80280000Y-36970000D03*
X-12570000Y-45450000D03*
X-35120000Y-64550000D03*
X-8330000Y-55160000D03*
X-57080000Y-70890000D03*
%TO.N,+5V*%
X-25258500Y-35390800D03*
%TO.N,/Inhib_in*%
X-20969900Y-48434500D03*
X-28066400Y-48121200D03*
%TO.N,Net-(Q205-Pad3)*%
X-7170000Y-31370000D03*
X-8580000Y-30570000D03*
%TD*%
D21*
%TO.N,I2C_CLK*%
X-85590000Y-21320000D02*
X-70457600Y-21320000D01*
X-70457600Y-21320000D02*
X-62055400Y-12917800D01*
X-62055400Y-12917800D02*
X-62055400Y-12035900D01*
X-62055400Y-12035900D02*
X-61369500Y-11350000D01*
X-61369500Y-11350000D02*
X-24050000Y-11350000D01*
X-24050000Y-11350000D02*
X-22780000Y-10080000D01*
%TO.N,InhibV+*%
X-5310000Y-23670000D02*
X-6335300Y-23670000D01*
X-64730200Y-36414200D02*
X-19079500Y-36414200D01*
X-19079500Y-36414200D02*
X-6335300Y-23670000D01*
%TO.N,Net-(Q204-Pad1)*%
X-57243200Y-44586400D02*
X-63129600Y-38700000D01*
X-21472600Y-44586400D02*
X-57243200Y-44586400D01*
X-10429000Y-56351000D02*
X-21472600Y-44586400D01*
%TO.N,Net-(Q206-Pad1)*%
X-67462300Y-52767100D02*
X-22483800Y-52767100D01*
X-78020000Y-42210000D02*
X-67462300Y-52767100D01*
%TO.N,B*%
X-56040000Y-23850000D02*
X-65458500Y-33268500D01*
X-65458500Y-33268500D02*
X-65458500Y-37396800D01*
X-65458500Y-37396800D02*
X-57380200Y-45475100D01*
X-57380200Y-45475100D02*
X-41022600Y-45475100D01*
X-41022600Y-45475100D02*
X-35966800Y-50530900D01*
X-9340000Y-68650000D02*
X-9080700Y-68650000D01*
X-9080700Y-68650000D02*
X-8295500Y-67864800D01*
X-8295500Y-67864800D02*
X-8295500Y-65927900D01*
X-8295500Y-65927900D02*
X-23692500Y-50530900D01*
X-23692500Y-50530900D02*
X-35966800Y-50530900D01*
%TO.N,Net-(J202-Pad3)*%
X-7209100Y-78210000D02*
X-7209100Y-74785700D01*
X-7209100Y-74785700D02*
X-4284600Y-71861200D01*
X-4284600Y-71861200D02*
X-4284600Y-23307600D01*
X-4284600Y-23307600D02*
X-5172200Y-22420000D01*
X-5172200Y-22420000D02*
X-5310000Y-22420000D01*
X-6140000Y-79470000D02*
X-6273800Y-79470000D01*
X-6273800Y-79470000D02*
X-7209100Y-78534700D01*
X-7209100Y-78534700D02*
X-7209100Y-78210000D01*
X-84680000Y-78210000D02*
X-7209100Y-78210000D01*
%TO.N,+5V*%
X-25258500Y-35390800D02*
X-28540000Y-32109300D01*
X-28540000Y-32109300D02*
X-28540000Y-23850000D01*
%TO.N,/Inhib_in*%
X-20969900Y-48434500D02*
X-21283200Y-48121200D01*
X-21283200Y-48121200D02*
X-28066400Y-48121200D01*
%TO.N,+3V3*%
X-43180000Y-7380000D02*
X-44355300Y-7380000D01*
X-85590000Y-17570000D02*
X-79275400Y-11255400D01*
X-79275400Y-11255400D02*
X-73054400Y-11255400D01*
X-73054400Y-11255400D02*
X-72310000Y-10511000D01*
X-72310000Y-10511000D02*
X-72310000Y-9607400D01*
X-72310000Y-9607400D02*
X-71257900Y-8555300D01*
X-71257900Y-8555300D02*
X-45163200Y-8555300D01*
X-45163200Y-8555300D02*
X-44355300Y-7747400D01*
X-44355300Y-7747400D02*
X-44355300Y-7380000D01*
%TO.N,Net-(SW201-Pad1)*%
X-80742500Y-67400000D02*
X-80742500Y-71692500D01*
X-80742500Y-71692500D02*
X-82090000Y-73040000D01*
X-81820000Y-66530000D02*
X-81441700Y-66530000D01*
X-81441700Y-66530000D02*
X-80742500Y-67229200D01*
X-80742500Y-67229200D02*
X-80742500Y-67400000D01*
X-80742500Y-67400000D02*
X-9340000Y-67400000D01*
%TO.N,Net-(Q205-Pad3)*%
X-7780000Y-31370000D02*
X-8580000Y-30570000D01*
X-7170000Y-31370000D02*
X-7780000Y-31370000D01*
%TD*%
D22*
%TO.N,GND*%
X-2659999Y-8717709D02*
X-2664819Y-8766868D01*
X-2669717Y-8783091D01*
X-2677674Y-8798055D01*
X-2688385Y-8811188D01*
X-2701441Y-8821989D01*
X-2716348Y-8830049D01*
X-2732541Y-8835062D01*
X-2779525Y-8840000D01*
X-5282419Y-8840000D01*
X-5310501Y-8842766D01*
X-5315057Y-8842734D01*
X-5324228Y-8843634D01*
X-5469800Y-8858935D01*
X-5528383Y-8870961D01*
X-5587152Y-8882171D01*
X-5595974Y-8884835D01*
X-5735803Y-8928119D01*
X-5790933Y-8951294D01*
X-5846412Y-8973708D01*
X-5854549Y-8978035D01*
X-5983306Y-9047654D01*
X-6032863Y-9081081D01*
X-6082953Y-9113858D01*
X-6090094Y-9119683D01*
X-6202877Y-9212985D01*
X-6244999Y-9255402D01*
X-6287768Y-9297284D01*
X-6293641Y-9304385D01*
X-6386154Y-9417816D01*
X-6419246Y-9467625D01*
X-6453053Y-9516997D01*
X-6457436Y-9525103D01*
X-6526155Y-9654345D01*
X-6548945Y-9709638D01*
X-6572517Y-9764636D01*
X-6575242Y-9773440D01*
X-6617548Y-9913566D01*
X-6629164Y-9972232D01*
X-6641603Y-10030753D01*
X-6642566Y-10039917D01*
X-6656850Y-10185594D01*
X-6656850Y-10185599D01*
X-6660000Y-10217582D01*
X-6659999Y-13782419D01*
X-6657234Y-13810492D01*
X-6657266Y-13815057D01*
X-6656366Y-13824228D01*
X-6641065Y-13969800D01*
X-6629046Y-14028352D01*
X-6617829Y-14087152D01*
X-6615165Y-14095974D01*
X-6571881Y-14235803D01*
X-6548706Y-14290933D01*
X-6526292Y-14346412D01*
X-6521965Y-14354548D01*
X-6452347Y-14483306D01*
X-6418902Y-14532890D01*
X-6386142Y-14582953D01*
X-6380317Y-14590094D01*
X-6287015Y-14702877D01*
X-6244579Y-14745018D01*
X-6202716Y-14787767D01*
X-6195616Y-14793641D01*
X-6082184Y-14886154D01*
X-6032375Y-14919246D01*
X-5983003Y-14953053D01*
X-5974896Y-14957436D01*
X-5845655Y-15026155D01*
X-5790374Y-15048940D01*
X-5735364Y-15072517D01*
X-5726561Y-15075242D01*
X-5586434Y-15117548D01*
X-5527768Y-15129164D01*
X-5469247Y-15141603D01*
X-5460082Y-15142566D01*
X-5314406Y-15156850D01*
X-5314402Y-15156850D01*
X-5282419Y-15160000D01*
X-2802281Y-15160000D01*
X-2753133Y-15164819D01*
X-2736908Y-15169718D01*
X-2721947Y-15177672D01*
X-2708811Y-15188386D01*
X-2698012Y-15201441D01*
X-2689951Y-15216349D01*
X-2684938Y-15232541D01*
X-2680000Y-15279525D01*
X-2679999Y-29282419D01*
X-2677234Y-29310492D01*
X-2677266Y-29315057D01*
X-2676366Y-29324228D01*
X-2661065Y-29469800D01*
X-2649046Y-29528352D01*
X-2637829Y-29587152D01*
X-2635165Y-29595974D01*
X-2591881Y-29735803D01*
X-2568706Y-29790933D01*
X-2546292Y-29846412D01*
X-2541965Y-29854548D01*
X-2472347Y-29983306D01*
X-2438902Y-30032890D01*
X-2406142Y-30082953D01*
X-2400317Y-30090094D01*
X-2307015Y-30202877D01*
X-2264579Y-30245018D01*
X-2222716Y-30287767D01*
X-2215616Y-30293641D01*
X-2102184Y-30386154D01*
X-2052375Y-30419246D01*
X-2003003Y-30453053D01*
X-1994896Y-30457436D01*
X-1865655Y-30526155D01*
X-1810374Y-30548940D01*
X-1755364Y-30572517D01*
X-1746561Y-30575242D01*
X-1606434Y-30617548D01*
X-1547768Y-30629164D01*
X-1489247Y-30641603D01*
X-1480082Y-30642566D01*
X-1334406Y-30656850D01*
X-1334402Y-30656850D01*
X-1302419Y-30660000D01*
X-782281Y-30660000D01*
X-733133Y-30664819D01*
X-716908Y-30669718D01*
X-701947Y-30677672D01*
X-688811Y-30688386D01*
X-678012Y-30701441D01*
X-669951Y-30716349D01*
X-664938Y-30732541D01*
X-660000Y-30779525D01*
X-659999Y-65107708D01*
X-664819Y-65156868D01*
X-669717Y-65173091D01*
X-677674Y-65188055D01*
X-688385Y-65201188D01*
X-701441Y-65211989D01*
X-716348Y-65220049D01*
X-732541Y-65225062D01*
X-779525Y-65230000D01*
X-1082419Y-65230000D01*
X-1110501Y-65232766D01*
X-1115057Y-65232734D01*
X-1124228Y-65233634D01*
X-1269800Y-65248935D01*
X-1328383Y-65260961D01*
X-1387152Y-65272171D01*
X-1395974Y-65274835D01*
X-1535803Y-65318119D01*
X-1590933Y-65341294D01*
X-1646412Y-65363708D01*
X-1654549Y-65368035D01*
X-1783306Y-65437654D01*
X-1832863Y-65471081D01*
X-1882953Y-65503858D01*
X-1890094Y-65509683D01*
X-2002877Y-65602985D01*
X-2044999Y-65645402D01*
X-2087768Y-65687284D01*
X-2093641Y-65694385D01*
X-2186154Y-65807816D01*
X-2219246Y-65857625D01*
X-2253053Y-65906997D01*
X-2257436Y-65915103D01*
X-2326155Y-66044345D01*
X-2348945Y-66099638D01*
X-2372517Y-66154636D01*
X-2375242Y-66163440D01*
X-2417548Y-66303566D01*
X-2429164Y-66362232D01*
X-2441603Y-66420753D01*
X-2442566Y-66429917D01*
X-2456850Y-66575594D01*
X-2456850Y-66575599D01*
X-2460000Y-66607582D01*
X-2459999Y-80607708D01*
X-2464819Y-80656868D01*
X-2469717Y-80673091D01*
X-2477674Y-80688055D01*
X-2488385Y-80701188D01*
X-2501441Y-80711989D01*
X-2516348Y-80720049D01*
X-2532541Y-80725062D01*
X-2579525Y-80730000D01*
X-5282419Y-80730000D01*
X-5310501Y-80732766D01*
X-5315057Y-80732734D01*
X-5324228Y-80733634D01*
X-5469800Y-80748935D01*
X-5528383Y-80760961D01*
X-5587152Y-80772171D01*
X-5595974Y-80774835D01*
X-5735803Y-80818119D01*
X-5790933Y-80841294D01*
X-5846412Y-80863708D01*
X-5854549Y-80868035D01*
X-5983306Y-80937654D01*
X-6032863Y-80971081D01*
X-6082953Y-81003858D01*
X-6090094Y-81009683D01*
X-6202877Y-81102985D01*
X-6244999Y-81145402D01*
X-6287768Y-81187284D01*
X-6293641Y-81194385D01*
X-6386154Y-81307816D01*
X-6419246Y-81357625D01*
X-6453053Y-81406997D01*
X-6457436Y-81415103D01*
X-6526155Y-81544345D01*
X-6548945Y-81599638D01*
X-6572517Y-81654636D01*
X-6575242Y-81663440D01*
X-6617548Y-81803566D01*
X-6629164Y-81862232D01*
X-6641603Y-81920753D01*
X-6642566Y-81929917D01*
X-6656850Y-82075594D01*
X-6656850Y-82075599D01*
X-6660000Y-82107582D01*
X-6659999Y-85672419D01*
X-6657234Y-85700492D01*
X-6657266Y-85705057D01*
X-6656366Y-85714228D01*
X-6641065Y-85859800D01*
X-6629046Y-85918352D01*
X-6617829Y-85977152D01*
X-6615165Y-85985974D01*
X-6571881Y-86125803D01*
X-6548706Y-86180933D01*
X-6526292Y-86236412D01*
X-6521965Y-86244548D01*
X-6452347Y-86373306D01*
X-6418902Y-86422890D01*
X-6386142Y-86472953D01*
X-6380317Y-86480094D01*
X-6287015Y-86592877D01*
X-6244579Y-86635018D01*
X-6202716Y-86677767D01*
X-6195616Y-86683641D01*
X-6082184Y-86776154D01*
X-6032375Y-86809246D01*
X-5983003Y-86843053D01*
X-5974896Y-86847436D01*
X-5845655Y-86916155D01*
X-5790374Y-86938940D01*
X-5735364Y-86962517D01*
X-5726561Y-86965242D01*
X-5586434Y-87007548D01*
X-5527768Y-87019164D01*
X-5469247Y-87031603D01*
X-5460082Y-87032566D01*
X-5314406Y-87046850D01*
X-5314402Y-87046850D01*
X-5282419Y-87050000D01*
X-2582281Y-87050000D01*
X-2533133Y-87054819D01*
X-2516908Y-87059718D01*
X-2501947Y-87067672D01*
X-2488811Y-87078386D01*
X-2478012Y-87091441D01*
X-2469951Y-87106349D01*
X-2464938Y-87122541D01*
X-2460000Y-87169525D01*
X-2460000Y-88491466D01*
X-2898442Y-88053024D01*
X-3469234Y-87671633D01*
X-4103463Y-87408927D01*
X-4776758Y-87275000D01*
X-5463242Y-87275000D01*
X-6136537Y-87408927D01*
X-6770766Y-87671633D01*
X-7341558Y-88053024D01*
X-7826976Y-88538442D01*
X-8208367Y-89109234D01*
X-8471073Y-89743463D01*
X-8605000Y-90416758D01*
X-8605000Y-91103242D01*
X-8471073Y-91776537D01*
X-8208367Y-92410766D01*
X-7826976Y-92981558D01*
X-7341558Y-93466976D01*
X-6770766Y-93848367D01*
X-6136537Y-94111073D01*
X-5463242Y-94245000D01*
X-4776758Y-94245000D01*
X-4103463Y-94111073D01*
X-3469234Y-93848367D01*
X-2898442Y-93466976D01*
X-2459999Y-93028533D01*
X-2459999Y-95230000D01*
X-87760000Y-95230000D01*
X-87760000Y-93148534D01*
X-87341558Y-93566976D01*
X-86770766Y-93948367D01*
X-86136537Y-94211073D01*
X-85463242Y-94345000D01*
X-84776758Y-94345000D01*
X-84103463Y-94211073D01*
X-83469234Y-93948367D01*
X-82898442Y-93566976D01*
X-82413024Y-93081558D01*
X-82031633Y-92510766D01*
X-81768927Y-91876537D01*
X-81635000Y-91203242D01*
X-81635000Y-90516758D01*
X-81768927Y-89843463D01*
X-82031633Y-89209234D01*
X-82413024Y-88638442D01*
X-82898442Y-88153024D01*
X-83469234Y-87771633D01*
X-84103463Y-87508927D01*
X-84776758Y-87375000D01*
X-85463242Y-87375000D01*
X-86136537Y-87508927D01*
X-86770766Y-87771633D01*
X-87341558Y-88153024D01*
X-87760000Y-88571466D01*
X-87760000Y-87172281D01*
X-87755181Y-87123133D01*
X-87750282Y-87106908D01*
X-87742328Y-87091947D01*
X-87731614Y-87078811D01*
X-87718559Y-87068012D01*
X-87703651Y-87059951D01*
X-87687459Y-87054938D01*
X-87640475Y-87050000D01*
X-84887581Y-87050000D01*
X-84859499Y-87047234D01*
X-84854943Y-87047266D01*
X-84845772Y-87046366D01*
X-84700200Y-87031065D01*
X-84641648Y-87019046D01*
X-84582848Y-87007829D01*
X-84574026Y-87005165D01*
X-84434197Y-86961881D01*
X-84379067Y-86938706D01*
X-84323588Y-86916292D01*
X-84315452Y-86911965D01*
X-84186694Y-86842347D01*
X-84137110Y-86808902D01*
X-84087047Y-86776142D01*
X-84079906Y-86770317D01*
X-83967123Y-86677015D01*
X-83924982Y-86634579D01*
X-83882233Y-86592716D01*
X-83876359Y-86585616D01*
X-83783846Y-86472184D01*
X-83750754Y-86422375D01*
X-83716947Y-86373003D01*
X-83712564Y-86364896D01*
X-83643845Y-86235655D01*
X-83621060Y-86180374D01*
X-83597483Y-86125364D01*
X-83594758Y-86116561D01*
X-83552452Y-85976434D01*
X-83540836Y-85917768D01*
X-83528397Y-85859247D01*
X-83527434Y-85850082D01*
X-83513150Y-85704406D01*
X-83513150Y-85704402D01*
X-83510000Y-85672419D01*
X-83510000Y-82107581D01*
X-83512766Y-82079499D01*
X-83512734Y-82074943D01*
X-83513634Y-82065772D01*
X-83528935Y-81920200D01*
X-83540961Y-81861617D01*
X-83552171Y-81802848D01*
X-83554835Y-81794026D01*
X-83598119Y-81654197D01*
X-83621294Y-81599067D01*
X-83643708Y-81543588D01*
X-83648035Y-81535451D01*
X-83717654Y-81406694D01*
X-83751081Y-81357137D01*
X-83783858Y-81307047D01*
X-83789683Y-81299906D01*
X-83882985Y-81187123D01*
X-83925402Y-81145001D01*
X-83967284Y-81102232D01*
X-83974385Y-81096359D01*
X-84087816Y-81003846D01*
X-84137625Y-80970754D01*
X-84186997Y-80936947D01*
X-84195103Y-80932564D01*
X-84324345Y-80863845D01*
X-84379638Y-80841055D01*
X-84434636Y-80817483D01*
X-84443440Y-80814758D01*
X-84583566Y-80772452D01*
X-84642232Y-80760836D01*
X-84700753Y-80748397D01*
X-84709917Y-80747434D01*
X-84855594Y-80733150D01*
X-84855598Y-80733150D01*
X-84887581Y-80730000D01*
X-87637719Y-80730000D01*
X-87686868Y-80725181D01*
X-87703091Y-80720283D01*
X-87718055Y-80712326D01*
X-87731188Y-80701615D01*
X-87741989Y-80688559D01*
X-87750049Y-80673652D01*
X-87755062Y-80657459D01*
X-87760000Y-80610475D01*
X-87760000Y-79754001D01*
X-85974408Y-79754001D01*
X-85963279Y-79834563D01*
X-85870351Y-80028949D01*
X-85741286Y-80201470D01*
X-85581044Y-80345497D01*
X-85395782Y-80455495D01*
X-85192621Y-80527236D01*
X-84979367Y-80557964D01*
X-84807000Y-80393419D01*
X-84807000Y-79587000D01*
X-84553000Y-79587000D01*
X-84553000Y-80393419D01*
X-84380633Y-80557964D01*
X-84167379Y-80527236D01*
X-83964218Y-80455495D01*
X-83778956Y-80345497D01*
X-83618714Y-80201470D01*
X-83489649Y-80028949D01*
X-83396721Y-79834563D01*
X-83385592Y-79754001D01*
X-83512498Y-79587000D01*
X-84553000Y-79587000D01*
X-84807000Y-79587000D01*
X-85847502Y-79587000D01*
X-85974408Y-79754001D01*
X-87760000Y-79754001D01*
X-87760000Y-77985000D01*
X-86018072Y-77985000D01*
X-86018072Y-78435000D01*
X-86001488Y-78603377D01*
X-85952375Y-78765283D01*
X-85877338Y-78905666D01*
X-85963279Y-79085437D01*
X-85974408Y-79165999D01*
X-85847502Y-79333000D01*
X-84807000Y-79333000D01*
X-84807000Y-79313000D01*
X-84553000Y-79313000D01*
X-84553000Y-79333000D01*
X-83512498Y-79333000D01*
X-83385592Y-79165999D01*
X-83396721Y-79085437D01*
X-83451907Y-78970000D01*
X-7835027Y-78970000D01*
X-7804229Y-79007526D01*
X-7749101Y-79074701D01*
X-7720098Y-79098504D01*
X-7478072Y-79340529D01*
X-7478072Y-79695000D01*
X-7461488Y-79863377D01*
X-7412375Y-80025283D01*
X-7332618Y-80174497D01*
X-7225284Y-80305284D01*
X-7094497Y-80412618D01*
X-6945283Y-80492375D01*
X-6783377Y-80541488D01*
X-6615000Y-80558072D01*
X-5665000Y-80558072D01*
X-5496623Y-80541488D01*
X-5334717Y-80492375D01*
X-5185503Y-80412618D01*
X-5054716Y-80305284D01*
X-4947382Y-80174497D01*
X-4867625Y-80025283D01*
X-4818512Y-79863377D01*
X-4801928Y-79695000D01*
X-4801928Y-79245000D01*
X-4818512Y-79076623D01*
X-4867625Y-78914717D01*
X-4942662Y-78774334D01*
X-4856721Y-78594563D01*
X-4845592Y-78514001D01*
X-4972498Y-78347000D01*
X-6013000Y-78347000D01*
X-6013000Y-78367000D01*
X-6267000Y-78367000D01*
X-6267000Y-78347000D01*
X-6287000Y-78347000D01*
X-6287000Y-78093000D01*
X-6267000Y-78093000D01*
X-6267000Y-77286581D01*
X-6013000Y-77286581D01*
X-6013000Y-78093000D01*
X-4972498Y-78093000D01*
X-4845592Y-77925999D01*
X-4856721Y-77845437D01*
X-4949649Y-77651051D01*
X-5078714Y-77478530D01*
X-5238956Y-77334503D01*
X-5424218Y-77224505D01*
X-5627379Y-77152764D01*
X-5840633Y-77122036D01*
X-6013000Y-77286581D01*
X-6267000Y-77286581D01*
X-6439367Y-77122036D01*
X-6449100Y-77123438D01*
X-6449100Y-75100501D01*
X-3773596Y-72424998D01*
X-3744599Y-72401201D01*
X-3649626Y-72285476D01*
X-3579054Y-72153447D01*
X-3535597Y-72010186D01*
X-3524600Y-71898533D01*
X-3524600Y-71898532D01*
X-3520923Y-71861200D01*
X-3524600Y-71823867D01*
X-3524600Y-63007865D01*
X-3475220Y-63034259D01*
X-3270697Y-63096300D01*
X-3111294Y-63112000D01*
X-2504706Y-63112000D01*
X-2345303Y-63096300D01*
X-2140780Y-63034259D01*
X-1952290Y-62933509D01*
X-1787078Y-62797922D01*
X-1651491Y-62632710D01*
X-1550741Y-62444220D01*
X-1488700Y-62239697D01*
X-1467751Y-62027000D01*
X-1488700Y-61814303D01*
X-1550741Y-61609780D01*
X-1571662Y-61570640D01*
X-1518498Y-61471180D01*
X-1482188Y-61351482D01*
X-1469928Y-61227000D01*
X-1469928Y-60327000D01*
X-1482188Y-60202518D01*
X-1518498Y-60082820D01*
X-1577463Y-59972506D01*
X-1656815Y-59875815D01*
X-1753506Y-59796463D01*
X-1863820Y-59737498D01*
X-1983518Y-59701188D01*
X-2108000Y-59688928D01*
X-3508000Y-59688928D01*
X-3524600Y-59690563D01*
X-3524600Y-38722109D01*
X-3458697Y-38742100D01*
X-3299294Y-38757800D01*
X-2692706Y-38757800D01*
X-2533303Y-38742100D01*
X-2328780Y-38680059D01*
X-2140290Y-38579309D01*
X-1975078Y-38443722D01*
X-1839491Y-38278510D01*
X-1738741Y-38090020D01*
X-1676700Y-37885497D01*
X-1655751Y-37672800D01*
X-1676700Y-37460103D01*
X-1738741Y-37255580D01*
X-1805761Y-37130195D01*
X-1803382Y-37127297D01*
X-1723625Y-36978083D01*
X-1674512Y-36816177D01*
X-1657928Y-36647800D01*
X-1657928Y-36197800D01*
X-1674512Y-36029423D01*
X-1723625Y-35867517D01*
X-1803382Y-35718303D01*
X-1910716Y-35587516D01*
X-2041503Y-35480182D01*
X-2190717Y-35400425D01*
X-2352623Y-35351312D01*
X-2521000Y-35334728D01*
X-3471000Y-35334728D01*
X-3524600Y-35340007D01*
X-3524600Y-23344923D01*
X-3520924Y-23307600D01*
X-3524600Y-23270277D01*
X-3524600Y-23270267D01*
X-3535597Y-23158614D01*
X-3579054Y-23015353D01*
X-3606260Y-22964454D01*
X-3649626Y-22883323D01*
X-3720801Y-22796597D01*
X-3744599Y-22767599D01*
X-3773597Y-22743801D01*
X-3981196Y-22536202D01*
X-3969751Y-22420000D01*
X-3990700Y-22207303D01*
X-4052741Y-22002780D01*
X-4153491Y-21814290D01*
X-4169322Y-21795000D01*
X-4153491Y-21775710D01*
X-4052741Y-21587220D01*
X-3990700Y-21382697D01*
X-3969751Y-21170000D01*
X-3990700Y-20957303D01*
X-4052741Y-20752780D01*
X-4119761Y-20627395D01*
X-4117382Y-20624497D01*
X-4037625Y-20475283D01*
X-3988512Y-20313377D01*
X-3971928Y-20145000D01*
X-3971928Y-19695000D01*
X-3988512Y-19526623D01*
X-4037625Y-19364717D01*
X-4117382Y-19215503D01*
X-4224716Y-19084716D01*
X-4355503Y-18977382D01*
X-4504717Y-18897625D01*
X-4666623Y-18848512D01*
X-4835000Y-18831928D01*
X-5785000Y-18831928D01*
X-5953377Y-18848512D01*
X-6115283Y-18897625D01*
X-6264497Y-18977382D01*
X-6395284Y-19084716D01*
X-6502618Y-19215503D01*
X-6582375Y-19364717D01*
X-6631488Y-19526623D01*
X-6648072Y-19695000D01*
X-6648072Y-20145000D01*
X-6631488Y-20313377D01*
X-6582375Y-20475283D01*
X-6502618Y-20624497D01*
X-6500239Y-20627395D01*
X-6567259Y-20752780D01*
X-6629300Y-20957303D01*
X-6650249Y-21170000D01*
X-6629300Y-21382697D01*
X-6567259Y-21587220D01*
X-6466509Y-21775710D01*
X-6450678Y-21795000D01*
X-6466509Y-21814290D01*
X-6567259Y-22002780D01*
X-6629300Y-22207303D01*
X-6650249Y-22420000D01*
X-6629300Y-22632697D01*
X-6567259Y-22837220D01*
X-6517151Y-22930966D01*
X-6627547Y-22964454D01*
X-6759576Y-23035026D01*
X-6759578Y-23035027D01*
X-6759577Y-23035027D01*
X-6846304Y-23106201D01*
X-6846308Y-23106205D01*
X-6875301Y-23129999D01*
X-6899095Y-23158992D01*
X-19394301Y-35654200D01*
X-24255616Y-35654200D01*
X-24223500Y-35492739D01*
X-24223500Y-35288861D01*
X-24263274Y-35088902D01*
X-24341295Y-34900544D01*
X-24454563Y-34731026D01*
X-24598726Y-34586863D01*
X-24768244Y-34473595D01*
X-24956602Y-34395574D01*
X-25156561Y-34355800D01*
X-25218698Y-34355800D01*
X-27780000Y-31794499D01*
X-27780000Y-25304909D01*
X-27765537Y-25298918D01*
X-27497748Y-25119987D01*
X-27270013Y-24892252D01*
X-27091082Y-24624463D01*
X-26967832Y-24326912D01*
X-26905000Y-24011033D01*
X-26905000Y-23688967D01*
X-26967832Y-23373088D01*
X-27091082Y-23075537D01*
X-27270013Y-22807748D01*
X-27497748Y-22580013D01*
X-27765537Y-22401082D01*
X-28063088Y-22277832D01*
X-28378967Y-22215000D01*
X-28701033Y-22215000D01*
X-29016912Y-22277832D01*
X-29314463Y-22401082D01*
X-29582252Y-22580013D01*
X-29790000Y-22787761D01*
X-29997748Y-22580013D01*
X-30265537Y-22401082D01*
X-30563088Y-22277832D01*
X-30878967Y-22215000D01*
X-31201033Y-22215000D01*
X-31516912Y-22277832D01*
X-31814463Y-22401082D01*
X-32082252Y-22580013D01*
X-32290000Y-22787761D01*
X-32497748Y-22580013D01*
X-32765537Y-22401082D01*
X-33063088Y-22277832D01*
X-33378967Y-22215000D01*
X-33701033Y-22215000D01*
X-34016912Y-22277832D01*
X-34314463Y-22401082D01*
X-34582252Y-22580013D01*
X-34790000Y-22787761D01*
X-34997748Y-22580013D01*
X-35265537Y-22401082D01*
X-35563088Y-22277832D01*
X-35878967Y-22215000D01*
X-36201033Y-22215000D01*
X-36516912Y-22277832D01*
X-36814463Y-22401082D01*
X-37082252Y-22580013D01*
X-37290000Y-22787761D01*
X-37497748Y-22580013D01*
X-37765537Y-22401082D01*
X-38063088Y-22277832D01*
X-38378967Y-22215000D01*
X-38701033Y-22215000D01*
X-39016912Y-22277832D01*
X-39314463Y-22401082D01*
X-39582252Y-22580013D01*
X-39790000Y-22787761D01*
X-39997748Y-22580013D01*
X-40265537Y-22401082D01*
X-40563088Y-22277832D01*
X-40878967Y-22215000D01*
X-41201033Y-22215000D01*
X-41516912Y-22277832D01*
X-41814463Y-22401082D01*
X-42082252Y-22580013D01*
X-42290000Y-22787761D01*
X-42497748Y-22580013D01*
X-42765537Y-22401082D01*
X-43063088Y-22277832D01*
X-43378967Y-22215000D01*
X-43701033Y-22215000D01*
X-44016912Y-22277832D01*
X-44314463Y-22401082D01*
X-44582252Y-22580013D01*
X-44790000Y-22787761D01*
X-44997748Y-22580013D01*
X-45265537Y-22401082D01*
X-45563088Y-22277832D01*
X-45878967Y-22215000D01*
X-46201033Y-22215000D01*
X-46516912Y-22277832D01*
X-46814463Y-22401082D01*
X-47082252Y-22580013D01*
X-47290000Y-22787761D01*
X-47497748Y-22580013D01*
X-47765537Y-22401082D01*
X-48063088Y-22277832D01*
X-48378967Y-22215000D01*
X-48701033Y-22215000D01*
X-49016912Y-22277832D01*
X-49314463Y-22401082D01*
X-49582252Y-22580013D01*
X-49790000Y-22787761D01*
X-49997748Y-22580013D01*
X-50265537Y-22401082D01*
X-50563088Y-22277832D01*
X-50878967Y-22215000D01*
X-51201033Y-22215000D01*
X-51516912Y-22277832D01*
X-51814463Y-22401082D01*
X-52082252Y-22580013D01*
X-52290000Y-22787761D01*
X-52497748Y-22580013D01*
X-52765537Y-22401082D01*
X-53063088Y-22277832D01*
X-53378967Y-22215000D01*
X-53701033Y-22215000D01*
X-54016912Y-22277832D01*
X-54314463Y-22401082D01*
X-54582252Y-22580013D01*
X-54790000Y-22787761D01*
X-54997748Y-22580013D01*
X-55265537Y-22401082D01*
X-55563088Y-22277832D01*
X-55878967Y-22215000D01*
X-56201033Y-22215000D01*
X-56516912Y-22277832D01*
X-56814463Y-22401082D01*
X-57082252Y-22580013D01*
X-57309987Y-22807748D01*
X-57488918Y-23075537D01*
X-57612168Y-23373088D01*
X-57675000Y-23688967D01*
X-57675000Y-24011033D01*
X-57612168Y-24326912D01*
X-57606177Y-24341375D01*
X-65969497Y-32704696D01*
X-65998501Y-32728499D01*
X-66053629Y-32795674D01*
X-66093474Y-32844224D01*
X-66164045Y-32976253D01*
X-66164046Y-32976254D01*
X-66207503Y-33119515D01*
X-66218500Y-33231168D01*
X-66218500Y-33231178D01*
X-66222176Y-33268500D01*
X-66218500Y-33305823D01*
X-66218499Y-37359468D01*
X-66222176Y-37396800D01*
X-66207502Y-37545785D01*
X-66164046Y-37689046D01*
X-66093474Y-37821076D01*
X-66040604Y-37885497D01*
X-65998500Y-37936801D01*
X-65969502Y-37960599D01*
X-57943995Y-45986108D01*
X-57920201Y-46015101D01*
X-57891208Y-46038895D01*
X-57891204Y-46038899D01*
X-57820515Y-46096911D01*
X-57804476Y-46110074D01*
X-57672447Y-46180646D01*
X-57529186Y-46224103D01*
X-57417533Y-46235100D01*
X-57417524Y-46235100D01*
X-57380201Y-46238776D01*
X-57342878Y-46235100D01*
X-41337401Y-46235100D01*
X-37001800Y-50570702D01*
X-37001800Y-50632839D01*
X-36962026Y-50832798D01*
X-36884005Y-51021156D01*
X-36770737Y-51190674D01*
X-36626574Y-51334837D01*
X-36457056Y-51448105D01*
X-36268698Y-51526126D01*
X-36068739Y-51565900D01*
X-35864861Y-51565900D01*
X-35664902Y-51526126D01*
X-35476544Y-51448105D01*
X-35307026Y-51334837D01*
X-35263089Y-51290900D01*
X-24007301Y-51290900D01*
X-23291101Y-52007100D01*
X-67147511Y-52007100D01*
X-76985000Y-42170170D01*
X-76985000Y-42108061D01*
X-77024774Y-41908102D01*
X-77102795Y-41719744D01*
X-77216063Y-41550226D01*
X-77360226Y-41406063D01*
X-77529744Y-41292795D01*
X-77718102Y-41214774D01*
X-77918061Y-41175000D01*
X-78121939Y-41175000D01*
X-78321898Y-41214774D01*
X-78510256Y-41292795D01*
X-78679774Y-41406063D01*
X-78823937Y-41550226D01*
X-78937205Y-41719744D01*
X-79015226Y-41908102D01*
X-79055000Y-42108061D01*
X-79055000Y-42311939D01*
X-79015226Y-42511898D01*
X-78937205Y-42700256D01*
X-78823937Y-42869774D01*
X-78679774Y-43013937D01*
X-78510256Y-43127205D01*
X-78321898Y-43205226D01*
X-78121939Y-43245000D01*
X-78059773Y-43245000D01*
X-68026095Y-53278108D01*
X-68002301Y-53307101D01*
X-67973292Y-53330908D01*
X-67973287Y-53330913D01*
X-67954093Y-53346664D01*
X-67886576Y-53402074D01*
X-67886566Y-53402080D01*
X-67886559Y-53402085D01*
X-67831688Y-53431413D01*
X-67754547Y-53472646D01*
X-67754535Y-53472650D01*
X-67754527Y-53472654D01*
X-67702305Y-53488493D01*
X-67611286Y-53516103D01*
X-67611270Y-53516105D01*
X-67611265Y-53516106D01*
X-67576790Y-53519501D01*
X-67499633Y-53527100D01*
X-67499612Y-53527100D01*
X-67462279Y-53530776D01*
X-67424967Y-53527100D01*
X-23187511Y-53527100D01*
X-23143574Y-53571037D01*
X-22974056Y-53684305D01*
X-22785698Y-53762326D01*
X-22585739Y-53802100D01*
X-22381861Y-53802100D01*
X-22181902Y-53762326D01*
X-21993544Y-53684305D01*
X-21824026Y-53571037D01*
X-21775595Y-53522606D01*
X-9055499Y-66242703D01*
X-9055499Y-66311928D01*
X-9815000Y-66311928D01*
X-9983377Y-66328512D01*
X-10145283Y-66377625D01*
X-10294497Y-66457382D01*
X-10425284Y-66564716D01*
X-10487068Y-66640000D01*
X-80256898Y-66640000D01*
X-80492080Y-66404818D01*
X-80500700Y-66317303D01*
X-80562741Y-66112780D01*
X-80663491Y-65924290D01*
X-80799078Y-65759078D01*
X-80964290Y-65623491D01*
X-81152780Y-65522741D01*
X-81357303Y-65460700D01*
X-81516706Y-65445000D01*
X-82123294Y-65445000D01*
X-82282697Y-65460700D01*
X-82487220Y-65522741D01*
X-82675710Y-65623491D01*
X-82840922Y-65759078D01*
X-82976509Y-65924290D01*
X-83077259Y-66112780D01*
X-83139300Y-66317303D01*
X-83160249Y-66530000D01*
X-83139300Y-66742697D01*
X-83077259Y-66947220D01*
X-83056338Y-66986360D01*
X-83109502Y-67085820D01*
X-83145812Y-67205518D01*
X-83158072Y-67330000D01*
X-83158072Y-68230000D01*
X-83145812Y-68354482D01*
X-83109502Y-68474180D01*
X-83050537Y-68584494D01*
X-82971185Y-68681185D01*
X-82874494Y-68760537D01*
X-82764180Y-68819502D01*
X-82644482Y-68855812D01*
X-82520000Y-68868072D01*
X-81502500Y-68868072D01*
X-81502499Y-71377697D01*
X-82079801Y-71955000D01*
X-82393294Y-71955000D01*
X-82552697Y-71970700D01*
X-82757220Y-72032741D01*
X-82945710Y-72133491D01*
X-83110922Y-72269078D01*
X-83246509Y-72434290D01*
X-83347259Y-72622780D01*
X-83409300Y-72827303D01*
X-83430249Y-73040000D01*
X-83409300Y-73252697D01*
X-83347259Y-73457220D01*
X-83326338Y-73496360D01*
X-83379502Y-73595820D01*
X-83415812Y-73715518D01*
X-83428072Y-73840000D01*
X-83428072Y-74740000D01*
X-83415812Y-74864482D01*
X-83379502Y-74984180D01*
X-83320537Y-75094494D01*
X-83241185Y-75191185D01*
X-83144494Y-75270537D01*
X-83034180Y-75329502D01*
X-82914482Y-75365812D01*
X-82790000Y-75378072D01*
X-81390000Y-75378072D01*
X-81265518Y-75365812D01*
X-81145820Y-75329502D01*
X-81035506Y-75270537D01*
X-80938815Y-75191185D01*
X-80859463Y-75094494D01*
X-80800498Y-74984180D01*
X-80764188Y-74864482D01*
X-80751928Y-74740000D01*
X-80751928Y-73840000D01*
X-80764188Y-73715518D01*
X-80800498Y-73595820D01*
X-80853662Y-73496360D01*
X-80832741Y-73457220D01*
X-80770700Y-73252697D01*
X-80749751Y-73040000D01*
X-80770700Y-72827303D01*
X-80778102Y-72802903D01*
X-80231497Y-72256299D01*
X-80202499Y-72232501D01*
X-80107526Y-72116776D01*
X-80036954Y-71984747D01*
X-79993497Y-71841486D01*
X-79982500Y-71729833D01*
X-79982500Y-71729825D01*
X-79978824Y-71692500D01*
X-79982500Y-71655175D01*
X-79982500Y-70182702D01*
X-57493097Y-70182702D01*
X-57421514Y-70426671D01*
X-57166004Y-70547571D01*
X-56891816Y-70616300D01*
X-56609488Y-70630217D01*
X-56329870Y-70588787D01*
X-56063708Y-70493603D01*
X-55938486Y-70426671D01*
X-55866903Y-70182702D01*
X-56680000Y-69369605D01*
X-57493097Y-70182702D01*
X-79982500Y-70182702D01*
X-79982500Y-69260512D01*
X-58120217Y-69260512D01*
X-58078787Y-69540130D01*
X-57983603Y-69806292D01*
X-57916671Y-69931514D01*
X-57672702Y-70003097D01*
X-56859605Y-69190000D01*
X-56500395Y-69190000D01*
X-55687298Y-70003097D01*
X-55443329Y-69931514D01*
X-55322429Y-69676004D01*
X-55253700Y-69401816D01*
X-55239783Y-69119488D01*
X-55281213Y-68839870D01*
X-55376397Y-68573708D01*
X-55443329Y-68448486D01*
X-55687298Y-68376903D01*
X-56500395Y-69190000D01*
X-56859605Y-69190000D01*
X-57672702Y-68376903D01*
X-57916671Y-68448486D01*
X-58037571Y-68703996D01*
X-58106300Y-68978184D01*
X-58120217Y-69260512D01*
X-79982500Y-69260512D01*
X-79982500Y-68160000D01*
X-57482153Y-68160000D01*
X-57493097Y-68197298D01*
X-56680000Y-69010395D01*
X-55866903Y-68197298D01*
X-55877847Y-68160000D01*
X-10558357Y-68160000D01*
X-10597259Y-68232780D01*
X-10659300Y-68437303D01*
X-10680249Y-68650000D01*
X-10659300Y-68862697D01*
X-10597259Y-69067220D01*
X-10496509Y-69255710D01*
X-10360922Y-69420922D01*
X-10195710Y-69556509D01*
X-10007220Y-69657259D01*
X-9802697Y-69719300D01*
X-9643294Y-69735000D01*
X-9036706Y-69735000D01*
X-8877303Y-69719300D01*
X-8672780Y-69657259D01*
X-8484290Y-69556509D01*
X-8319078Y-69420922D01*
X-8183491Y-69255710D01*
X-8082741Y-69067220D01*
X-8020700Y-68862697D01*
X-7999751Y-68650000D01*
X-8000302Y-68644404D01*
X-7784491Y-68428594D01*
X-7755499Y-68404801D01*
X-7731705Y-68375808D01*
X-7731701Y-68375804D01*
X-7660527Y-68289077D01*
X-7660526Y-68289076D01*
X-7589954Y-68157047D01*
X-7546497Y-68013786D01*
X-7535500Y-67902133D01*
X-7535500Y-67902124D01*
X-7531824Y-67864801D01*
X-7535500Y-67827478D01*
X-7535500Y-65965222D01*
X-7531824Y-65927899D01*
X-7535500Y-65890576D01*
X-7535500Y-65890567D01*
X-7546497Y-65778914D01*
X-7589954Y-65635653D01*
X-7660526Y-65503624D01*
X-7755499Y-65387899D01*
X-7784497Y-65364101D01*
X-23128696Y-50019903D01*
X-23152499Y-49990899D01*
X-23268224Y-49895926D01*
X-23400253Y-49825354D01*
X-23543514Y-49781897D01*
X-23655167Y-49770900D01*
X-23655178Y-49770900D01*
X-23692500Y-49767224D01*
X-23729822Y-49770900D01*
X-35263089Y-49770900D01*
X-35307026Y-49726963D01*
X-35476544Y-49613695D01*
X-35664902Y-49535674D01*
X-35864861Y-49495900D01*
X-35926998Y-49495900D01*
X-37403637Y-48019261D01*
X-29101400Y-48019261D01*
X-29101400Y-48223139D01*
X-29061626Y-48423098D01*
X-28983605Y-48611456D01*
X-28870337Y-48780974D01*
X-28726174Y-48925137D01*
X-28556656Y-49038405D01*
X-28368298Y-49116426D01*
X-28168339Y-49156200D01*
X-27964461Y-49156200D01*
X-27764502Y-49116426D01*
X-27576144Y-49038405D01*
X-27406626Y-48925137D01*
X-27362689Y-48881200D01*
X-21905147Y-48881200D01*
X-21887105Y-48924756D01*
X-21773837Y-49094274D01*
X-21629674Y-49238437D01*
X-21460156Y-49351705D01*
X-21271798Y-49429726D01*
X-21071839Y-49469500D01*
X-20867961Y-49469500D01*
X-20668002Y-49429726D01*
X-20479644Y-49351705D01*
X-20310126Y-49238437D01*
X-20165963Y-49094274D01*
X-20052695Y-48924756D01*
X-19974674Y-48736398D01*
X-19934900Y-48536439D01*
X-19934900Y-48332561D01*
X-19974674Y-48132602D01*
X-20052695Y-47944244D01*
X-20165963Y-47774726D01*
X-20310126Y-47630563D01*
X-20479644Y-47517295D01*
X-20668002Y-47439274D01*
X-20867961Y-47399500D01*
X-21044207Y-47399500D01*
X-21134214Y-47372197D01*
X-21245867Y-47361200D01*
X-21245878Y-47361200D01*
X-21283200Y-47357524D01*
X-21320522Y-47361200D01*
X-27362689Y-47361200D01*
X-27406626Y-47317263D01*
X-27576144Y-47203995D01*
X-27764502Y-47125974D01*
X-27964461Y-47086200D01*
X-28168339Y-47086200D01*
X-28368298Y-47125974D01*
X-28556656Y-47203995D01*
X-28726174Y-47317263D01*
X-28870337Y-47461426D01*
X-28983605Y-47630944D01*
X-29061626Y-47819302D01*
X-29101400Y-48019261D01*
X-37403637Y-48019261D01*
X-40076499Y-45346400D01*
X-21801563Y-45346400D01*
X-11464000Y-56358870D01*
X-11464000Y-56452939D01*
X-11424226Y-56652898D01*
X-11346205Y-56841256D01*
X-11232937Y-57010774D01*
X-11088774Y-57154937D01*
X-10919256Y-57268205D01*
X-10730898Y-57346226D01*
X-10530939Y-57386000D01*
X-10327061Y-57386000D01*
X-10127102Y-57346226D01*
X-9938744Y-57268205D01*
X-9769226Y-57154937D01*
X-9625063Y-57010774D01*
X-9511795Y-56841256D01*
X-9433774Y-56652898D01*
X-9394000Y-56452939D01*
X-9394000Y-56249061D01*
X-9433774Y-56049102D01*
X-9511795Y-55860744D01*
X-9625063Y-55691226D01*
X-9769226Y-55547063D01*
X-9938744Y-55433795D01*
X-10127102Y-55355774D01*
X-10327061Y-55316000D01*
X-10358182Y-55316000D01*
X-20901167Y-44084699D01*
X-20932599Y-44046399D01*
X-20981193Y-44006519D01*
X-21028474Y-43965149D01*
X-21038961Y-43959110D01*
X-21048324Y-43951426D01*
X-21103764Y-43921792D01*
X-21158208Y-43890440D01*
X-21169673Y-43886563D01*
X-21180353Y-43880854D01*
X-21240517Y-43862604D01*
X-21300024Y-43842479D01*
X-21312023Y-43840913D01*
X-21323614Y-43837397D01*
X-21386181Y-43831235D01*
X-21448472Y-43823105D01*
X-21497893Y-43826400D01*
X-56928398Y-43826400D01*
X-59769385Y-40985413D01*
X-56995808Y-40985413D01*
X-56900044Y-41249814D01*
X-56610429Y-41390704D01*
X-56298892Y-41472384D01*
X-55977405Y-41491718D01*
X-55658325Y-41447961D01*
X-55353912Y-41342795D01*
X-55179956Y-41249814D01*
X-55084192Y-40985413D01*
X-56040000Y-40029605D01*
X-56995808Y-40985413D01*
X-59769385Y-40985413D01*
X-60842203Y-39912595D01*
X-57681718Y-39912595D01*
X-57637961Y-40231675D01*
X-57532795Y-40536088D01*
X-57439814Y-40710044D01*
X-57175413Y-40805808D01*
X-56219605Y-39850000D01*
X-55860395Y-39850000D01*
X-54904587Y-40805808D01*
X-54874925Y-40795065D01*
X-54809987Y-40892252D01*
X-54582252Y-41119987D01*
X-54314463Y-41298918D01*
X-54016912Y-41422168D01*
X-53701033Y-41485000D01*
X-53378967Y-41485000D01*
X-53063088Y-41422168D01*
X-52765537Y-41298918D01*
X-52497748Y-41119987D01*
X-52290000Y-40912239D01*
X-52082252Y-41119987D01*
X-51814463Y-41298918D01*
X-51516912Y-41422168D01*
X-51201033Y-41485000D01*
X-50878967Y-41485000D01*
X-50563088Y-41422168D01*
X-50265537Y-41298918D01*
X-49997748Y-41119987D01*
X-49790000Y-40912239D01*
X-49582252Y-41119987D01*
X-49314463Y-41298918D01*
X-49016912Y-41422168D01*
X-48701033Y-41485000D01*
X-48378967Y-41485000D01*
X-48063088Y-41422168D01*
X-47765537Y-41298918D01*
X-47497748Y-41119987D01*
X-47290000Y-40912239D01*
X-47082252Y-41119987D01*
X-46814463Y-41298918D01*
X-46516912Y-41422168D01*
X-46201033Y-41485000D01*
X-45878967Y-41485000D01*
X-45563088Y-41422168D01*
X-45265537Y-41298918D01*
X-44997748Y-41119987D01*
X-44790000Y-40912239D01*
X-44582252Y-41119987D01*
X-44314463Y-41298918D01*
X-44016912Y-41422168D01*
X-43701033Y-41485000D01*
X-43378967Y-41485000D01*
X-43063088Y-41422168D01*
X-42765537Y-41298918D01*
X-42497748Y-41119987D01*
X-42290000Y-40912239D01*
X-42082252Y-41119987D01*
X-41814463Y-41298918D01*
X-41516912Y-41422168D01*
X-41201033Y-41485000D01*
X-40878967Y-41485000D01*
X-40563088Y-41422168D01*
X-40265537Y-41298918D01*
X-39997748Y-41119987D01*
X-39790000Y-40912239D01*
X-39582252Y-41119987D01*
X-39314463Y-41298918D01*
X-39016912Y-41422168D01*
X-38701033Y-41485000D01*
X-38378967Y-41485000D01*
X-38063088Y-41422168D01*
X-37765537Y-41298918D01*
X-37497748Y-41119987D01*
X-37290000Y-40912239D01*
X-37082252Y-41119987D01*
X-36814463Y-41298918D01*
X-36516912Y-41422168D01*
X-36201033Y-41485000D01*
X-35878967Y-41485000D01*
X-35563088Y-41422168D01*
X-35265537Y-41298918D01*
X-34997748Y-41119987D01*
X-34790000Y-40912239D01*
X-34582252Y-41119987D01*
X-34314463Y-41298918D01*
X-34016912Y-41422168D01*
X-33701033Y-41485000D01*
X-33378967Y-41485000D01*
X-33063088Y-41422168D01*
X-32765537Y-41298918D01*
X-32497748Y-41119987D01*
X-32290000Y-40912239D01*
X-32082252Y-41119987D01*
X-31814463Y-41298918D01*
X-31516912Y-41422168D01*
X-31201033Y-41485000D01*
X-30878967Y-41485000D01*
X-30563088Y-41422168D01*
X-30265537Y-41298918D01*
X-29997748Y-41119987D01*
X-29790000Y-40912239D01*
X-29582252Y-41119987D01*
X-29314463Y-41298918D01*
X-29016912Y-41422168D01*
X-28701033Y-41485000D01*
X-28378967Y-41485000D01*
X-28063088Y-41422168D01*
X-27765537Y-41298918D01*
X-27497748Y-41119987D01*
X-27270013Y-40892252D01*
X-27091082Y-40624463D01*
X-26967832Y-40326912D01*
X-26905000Y-40011033D01*
X-26905000Y-39688967D01*
X-26967832Y-39373088D01*
X-27091082Y-39075537D01*
X-27270013Y-38807748D01*
X-27497748Y-38580013D01*
X-27765537Y-38401082D01*
X-28063088Y-38277832D01*
X-28378967Y-38215000D01*
X-28701033Y-38215000D01*
X-29016912Y-38277832D01*
X-29314463Y-38401082D01*
X-29582252Y-38580013D01*
X-29790000Y-38787761D01*
X-29997748Y-38580013D01*
X-30265537Y-38401082D01*
X-30563088Y-38277832D01*
X-30878967Y-38215000D01*
X-31201033Y-38215000D01*
X-31516912Y-38277832D01*
X-31814463Y-38401082D01*
X-32082252Y-38580013D01*
X-32290000Y-38787761D01*
X-32497748Y-38580013D01*
X-32765537Y-38401082D01*
X-33063088Y-38277832D01*
X-33378967Y-38215000D01*
X-33701033Y-38215000D01*
X-34016912Y-38277832D01*
X-34314463Y-38401082D01*
X-34582252Y-38580013D01*
X-34790000Y-38787761D01*
X-34997748Y-38580013D01*
X-35265537Y-38401082D01*
X-35563088Y-38277832D01*
X-35878967Y-38215000D01*
X-36201033Y-38215000D01*
X-36516912Y-38277832D01*
X-36814463Y-38401082D01*
X-37082252Y-38580013D01*
X-37290000Y-38787761D01*
X-37497748Y-38580013D01*
X-37765537Y-38401082D01*
X-38063088Y-38277832D01*
X-38378967Y-38215000D01*
X-38701033Y-38215000D01*
X-39016912Y-38277832D01*
X-39314463Y-38401082D01*
X-39582252Y-38580013D01*
X-39790000Y-38787761D01*
X-39997748Y-38580013D01*
X-40265537Y-38401082D01*
X-40563088Y-38277832D01*
X-40878967Y-38215000D01*
X-41201033Y-38215000D01*
X-41516912Y-38277832D01*
X-41814463Y-38401082D01*
X-42082252Y-38580013D01*
X-42290000Y-38787761D01*
X-42497748Y-38580013D01*
X-42765537Y-38401082D01*
X-43063088Y-38277832D01*
X-43378967Y-38215000D01*
X-43701033Y-38215000D01*
X-44016912Y-38277832D01*
X-44314463Y-38401082D01*
X-44582252Y-38580013D01*
X-44790000Y-38787761D01*
X-44997748Y-38580013D01*
X-45265537Y-38401082D01*
X-45563088Y-38277832D01*
X-45878967Y-38215000D01*
X-46201033Y-38215000D01*
X-46516912Y-38277832D01*
X-46814463Y-38401082D01*
X-47082252Y-38580013D01*
X-47290000Y-38787761D01*
X-47497748Y-38580013D01*
X-47765537Y-38401082D01*
X-48063088Y-38277832D01*
X-48378967Y-38215000D01*
X-48701033Y-38215000D01*
X-49016912Y-38277832D01*
X-49314463Y-38401082D01*
X-49582252Y-38580013D01*
X-49790000Y-38787761D01*
X-49997748Y-38580013D01*
X-50265537Y-38401082D01*
X-50563088Y-38277832D01*
X-50878967Y-38215000D01*
X-51201033Y-38215000D01*
X-51516912Y-38277832D01*
X-51814463Y-38401082D01*
X-52082252Y-38580013D01*
X-52290000Y-38787761D01*
X-52497748Y-38580013D01*
X-52765537Y-38401082D01*
X-53063088Y-38277832D01*
X-53378967Y-38215000D01*
X-53701033Y-38215000D01*
X-54016912Y-38277832D01*
X-54314463Y-38401082D01*
X-54582252Y-38580013D01*
X-54809987Y-38807748D01*
X-54874925Y-38904935D01*
X-54904587Y-38894192D01*
X-55860395Y-39850000D01*
X-56219605Y-39850000D01*
X-57175413Y-38894192D01*
X-57439814Y-38989956D01*
X-57580704Y-39279571D01*
X-57662384Y-39591108D01*
X-57681718Y-39912595D01*
X-60842203Y-39912595D01*
X-62040211Y-38714587D01*
X-56995808Y-38714587D01*
X-56040000Y-39670395D01*
X-55084192Y-38714587D01*
X-55179956Y-38450186D01*
X-55469571Y-38309296D01*
X-55781108Y-38227616D01*
X-56102595Y-38208282D01*
X-56421675Y-38252039D01*
X-56726088Y-38357205D01*
X-56900044Y-38450186D01*
X-56995808Y-38714587D01*
X-62040211Y-38714587D01*
X-62094600Y-38660199D01*
X-62094600Y-38598061D01*
X-62134374Y-38398102D01*
X-62212395Y-38209744D01*
X-62325663Y-38040226D01*
X-62469826Y-37896063D01*
X-62639344Y-37782795D01*
X-62827702Y-37704774D01*
X-63027661Y-37665000D01*
X-63231539Y-37665000D01*
X-63431498Y-37704774D01*
X-63619856Y-37782795D01*
X-63789374Y-37896063D01*
X-63836905Y-37943594D01*
X-64387835Y-37392664D01*
X-64239944Y-37331405D01*
X-64070426Y-37218137D01*
X-64026489Y-37174200D01*
X-19116822Y-37174200D01*
X-19079500Y-37177876D01*
X-19042178Y-37174200D01*
X-19042167Y-37174200D01*
X-18930514Y-37163203D01*
X-18787253Y-37119746D01*
X-18655224Y-37049174D01*
X-18539499Y-36954201D01*
X-18515696Y-36925197D01*
X-12058559Y-30468061D01*
X-9615000Y-30468061D01*
X-9615000Y-30671939D01*
X-9575226Y-30871898D01*
X-9497205Y-31060256D01*
X-9383937Y-31229774D01*
X-9239774Y-31373937D01*
X-9070256Y-31487205D01*
X-8881898Y-31565226D01*
X-8681939Y-31605000D01*
X-8619802Y-31605000D01*
X-8343799Y-31881002D01*
X-8320001Y-31910001D01*
X-8204276Y-32004974D01*
X-8072247Y-32075546D01*
X-7928986Y-32119003D01*
X-7879870Y-32123841D01*
X-7829774Y-32173937D01*
X-7660256Y-32287205D01*
X-7471898Y-32365226D01*
X-7271939Y-32405000D01*
X-7068061Y-32405000D01*
X-6868102Y-32365226D01*
X-6679744Y-32287205D01*
X-6510226Y-32173937D01*
X-6366063Y-32029774D01*
X-6252795Y-31860256D01*
X-6174774Y-31671898D01*
X-6135000Y-31471939D01*
X-6135000Y-31268061D01*
X-6174774Y-31068102D01*
X-6252795Y-30879744D01*
X-6366063Y-30710226D01*
X-6510226Y-30566063D01*
X-6679744Y-30452795D01*
X-6868102Y-30374774D01*
X-7068061Y-30335000D01*
X-7271939Y-30335000D01*
X-7471898Y-30374774D01*
X-7556579Y-30409850D01*
X-7584774Y-30268102D01*
X-7662795Y-30079744D01*
X-7776063Y-29910226D01*
X-7920226Y-29766063D01*
X-8089744Y-29652795D01*
X-8278102Y-29574774D01*
X-8478061Y-29535000D01*
X-8681939Y-29535000D01*
X-8881898Y-29574774D01*
X-9070256Y-29652795D01*
X-9239774Y-29766063D01*
X-9383937Y-29910226D01*
X-9497205Y-30079744D01*
X-9575226Y-30268102D01*
X-9615000Y-30468061D01*
X-12058559Y-30468061D01*
X-6637719Y-25047222D01*
X-6629300Y-25132697D01*
X-6567259Y-25337220D01*
X-6466509Y-25525710D01*
X-6330922Y-25690922D01*
X-6165710Y-25826509D01*
X-5977220Y-25927259D01*
X-5772697Y-25989300D01*
X-5613294Y-26005000D01*
X-5044599Y-26005000D01*
X-5044600Y-71546398D01*
X-6721928Y-73223727D01*
X-6721928Y-72590000D01*
X-6734188Y-72465518D01*
X-6770498Y-72345820D01*
X-6829463Y-72235506D01*
X-6908815Y-72138815D01*
X-7005506Y-72059463D01*
X-7115820Y-72000498D01*
X-7235518Y-71964188D01*
X-7360000Y-71951928D01*
X-8760000Y-71951928D01*
X-8884482Y-71964188D01*
X-9004180Y-72000498D01*
X-9114494Y-72059463D01*
X-9211185Y-72138815D01*
X-9290537Y-72235506D01*
X-9349502Y-72345820D01*
X-9385812Y-72465518D01*
X-9398072Y-72590000D01*
X-9398072Y-73490000D01*
X-9385812Y-73614482D01*
X-9349502Y-73734180D01*
X-9296338Y-73833640D01*
X-9317259Y-73872780D01*
X-9379300Y-74077303D01*
X-9400249Y-74290000D01*
X-9379300Y-74502697D01*
X-9317259Y-74707220D01*
X-9216509Y-74895710D01*
X-9080922Y-75060922D01*
X-8915710Y-75196509D01*
X-8727220Y-75297259D01*
X-8522697Y-75359300D01*
X-8363294Y-75375000D01*
X-7969099Y-75375000D01*
X-7969100Y-77450000D01*
X-83532932Y-77450000D01*
X-83594716Y-77374716D01*
X-83725503Y-77267382D01*
X-83874717Y-77187625D01*
X-84036623Y-77138512D01*
X-84205000Y-77121928D01*
X-85155000Y-77121928D01*
X-85323377Y-77138512D01*
X-85485283Y-77187625D01*
X-85634497Y-77267382D01*
X-85765284Y-77374716D01*
X-85872618Y-77505503D01*
X-85952375Y-77654717D01*
X-86001488Y-77816623D01*
X-86018072Y-77985000D01*
X-87760000Y-77985000D01*
X-87760000Y-66607581D01*
X-87762766Y-66579499D01*
X-87762734Y-66574943D01*
X-87763634Y-66565772D01*
X-87778935Y-66420200D01*
X-87790961Y-66361617D01*
X-87802171Y-66302848D01*
X-87804835Y-66294026D01*
X-87848119Y-66154197D01*
X-87871294Y-66099067D01*
X-87893708Y-66043588D01*
X-87898035Y-66035451D01*
X-87967654Y-65906694D01*
X-88001081Y-65857137D01*
X-88033858Y-65807047D01*
X-88039683Y-65799906D01*
X-88132985Y-65687123D01*
X-88175402Y-65645001D01*
X-88217284Y-65602232D01*
X-88224385Y-65596359D01*
X-88337816Y-65503846D01*
X-88387625Y-65470754D01*
X-88436997Y-65436947D01*
X-88445103Y-65432564D01*
X-88574345Y-65363845D01*
X-88629638Y-65341055D01*
X-88684636Y-65317483D01*
X-88693440Y-65314758D01*
X-88833566Y-65272452D01*
X-88892232Y-65260836D01*
X-88950753Y-65248397D01*
X-88959917Y-65247434D01*
X-89105594Y-65233150D01*
X-89105598Y-65233150D01*
X-89137581Y-65230000D01*
X-89387719Y-65230000D01*
X-89436868Y-65225181D01*
X-89453091Y-65220283D01*
X-89468055Y-65212326D01*
X-89481188Y-65201615D01*
X-89491989Y-65188559D01*
X-89500049Y-65173652D01*
X-89505062Y-65157459D01*
X-89510000Y-65110475D01*
X-89510000Y-56348665D01*
X-58115000Y-56348665D01*
X-58115000Y-56631335D01*
X-58059853Y-56908574D01*
X-57951680Y-57169727D01*
X-57794637Y-57404759D01*
X-57594759Y-57604637D01*
X-57359727Y-57761680D01*
X-57098574Y-57869853D01*
X-56821335Y-57925000D01*
X-56538665Y-57925000D01*
X-56261426Y-57869853D01*
X-56000273Y-57761680D01*
X-55765241Y-57604637D01*
X-55565363Y-57404759D01*
X-55408320Y-57169727D01*
X-55300147Y-56908574D01*
X-55245000Y-56631335D01*
X-55245000Y-56348665D01*
X-55300147Y-56071426D01*
X-55408320Y-55810273D01*
X-55565363Y-55575241D01*
X-55765241Y-55375363D01*
X-56000273Y-55218320D01*
X-56261426Y-55110147D01*
X-56538665Y-55055000D01*
X-56821335Y-55055000D01*
X-57098574Y-55110147D01*
X-57359727Y-55218320D01*
X-57594759Y-55375363D01*
X-57794637Y-55575241D01*
X-57951680Y-55810273D01*
X-58059853Y-56071426D01*
X-58115000Y-56348665D01*
X-89510000Y-56348665D01*
X-89510000Y-34784900D01*
X-88379949Y-34784900D01*
X-88359000Y-34997597D01*
X-88296959Y-35202120D01*
X-88229939Y-35327505D01*
X-88232318Y-35330403D01*
X-88312075Y-35479617D01*
X-88361188Y-35641523D01*
X-88377772Y-35809900D01*
X-88377772Y-36259900D01*
X-88361188Y-36428277D01*
X-88312075Y-36590183D01*
X-88232318Y-36739397D01*
X-88124984Y-36870184D01*
X-87994197Y-36977518D01*
X-87844983Y-37057275D01*
X-87683077Y-37106388D01*
X-87514700Y-37122972D01*
X-86564700Y-37122972D01*
X-86396323Y-37106388D01*
X-86234417Y-37057275D01*
X-86085203Y-36977518D01*
X-85954416Y-36870184D01*
X-85847082Y-36739397D01*
X-85767325Y-36590183D01*
X-85718212Y-36428277D01*
X-85701628Y-36259900D01*
X-85701628Y-35809900D01*
X-85718212Y-35641523D01*
X-85767325Y-35479617D01*
X-85847082Y-35330403D01*
X-85849461Y-35327505D01*
X-85782441Y-35202120D01*
X-85720400Y-34997597D01*
X-85699451Y-34784900D01*
X-85720400Y-34572203D01*
X-85782441Y-34367680D01*
X-85883191Y-34179190D01*
X-86018778Y-34013978D01*
X-86183990Y-33878391D01*
X-86372480Y-33777641D01*
X-86577003Y-33715600D01*
X-86736406Y-33699900D01*
X-87342994Y-33699900D01*
X-87502397Y-33715600D01*
X-87706920Y-33777641D01*
X-87895410Y-33878391D01*
X-88060622Y-34013978D01*
X-88196209Y-34179190D01*
X-88296959Y-34367680D01*
X-88359000Y-34572203D01*
X-88379949Y-34784900D01*
X-89510000Y-34784900D01*
X-89510000Y-30782281D01*
X-89505181Y-30733133D01*
X-89500282Y-30716908D01*
X-89492328Y-30701947D01*
X-89481614Y-30688811D01*
X-89468559Y-30678012D01*
X-89453651Y-30669951D01*
X-89437459Y-30664938D01*
X-89390475Y-30660000D01*
X-88687581Y-30660000D01*
X-88659499Y-30657234D01*
X-88654943Y-30657266D01*
X-88645772Y-30656366D01*
X-88500200Y-30641065D01*
X-88441648Y-30629046D01*
X-88382848Y-30617829D01*
X-88374026Y-30615165D01*
X-88234197Y-30571881D01*
X-88179067Y-30548706D01*
X-88123588Y-30526292D01*
X-88115452Y-30521965D01*
X-87986694Y-30452347D01*
X-87937110Y-30418902D01*
X-87887047Y-30386142D01*
X-87879906Y-30380317D01*
X-87767123Y-30287015D01*
X-87724982Y-30244579D01*
X-87682233Y-30202716D01*
X-87676359Y-30195616D01*
X-87583846Y-30082184D01*
X-87550754Y-30032375D01*
X-87516947Y-29983003D01*
X-87512564Y-29974896D01*
X-87443845Y-29845655D01*
X-87421060Y-29790374D01*
X-87397483Y-29735364D01*
X-87394758Y-29726561D01*
X-87352452Y-29586434D01*
X-87340836Y-29527768D01*
X-87328397Y-29469247D01*
X-87327434Y-29460082D01*
X-87313150Y-29314406D01*
X-87313150Y-29314402D01*
X-87310000Y-29282419D01*
X-87310000Y-25356123D01*
X-86834666Y-25356123D01*
X-86824994Y-25432972D01*
X-86735255Y-25618160D01*
X-86611112Y-25782283D01*
X-86457336Y-25919033D01*
X-86279836Y-26023155D01*
X-86085433Y-26090648D01*
X-85881599Y-26118918D01*
X-85717000Y-25953762D01*
X-85717000Y-25197000D01*
X-85463000Y-25197000D01*
X-85463000Y-25953762D01*
X-85298401Y-26118918D01*
X-85094567Y-26090648D01*
X-84900164Y-26023155D01*
X-84722664Y-25919033D01*
X-84568888Y-25782283D01*
X-84444745Y-25618160D01*
X-84355006Y-25432972D01*
X-84345334Y-25356123D01*
X-84473002Y-25197000D01*
X-85463000Y-25197000D01*
X-85717000Y-25197000D01*
X-86706998Y-25197000D01*
X-86834666Y-25356123D01*
X-87310000Y-25356123D01*
X-87310000Y-24106123D01*
X-86834666Y-24106123D01*
X-86824994Y-24182972D01*
X-86735255Y-24368160D01*
X-86677133Y-24445000D01*
X-86735255Y-24521840D01*
X-86824994Y-24707028D01*
X-86834666Y-24783877D01*
X-86706998Y-24943000D01*
X-85717000Y-24943000D01*
X-85717000Y-23947000D01*
X-85463000Y-23947000D01*
X-85463000Y-24943000D01*
X-84473002Y-24943000D01*
X-84345334Y-24783877D01*
X-84355006Y-24707028D01*
X-84444745Y-24521840D01*
X-84502867Y-24445000D01*
X-84444745Y-24368160D01*
X-84355006Y-24182972D01*
X-84345334Y-24106123D01*
X-84473002Y-23947000D01*
X-85463000Y-23947000D01*
X-85717000Y-23947000D01*
X-86706998Y-23947000D01*
X-86834666Y-24106123D01*
X-87310000Y-24106123D01*
X-87310000Y-22856123D01*
X-86834666Y-22856123D01*
X-86824994Y-22932972D01*
X-86735255Y-23118160D01*
X-86677133Y-23195000D01*
X-86735255Y-23271840D01*
X-86824994Y-23457028D01*
X-86834666Y-23533877D01*
X-86706998Y-23693000D01*
X-85717000Y-23693000D01*
X-85717000Y-22697000D01*
X-85463000Y-22697000D01*
X-85463000Y-23693000D01*
X-84473002Y-23693000D01*
X-84345334Y-23533877D01*
X-84355006Y-23457028D01*
X-84444745Y-23271840D01*
X-84502867Y-23195000D01*
X-84444745Y-23118160D01*
X-84355006Y-22932972D01*
X-84345334Y-22856123D01*
X-84473002Y-22697000D01*
X-85463000Y-22697000D01*
X-85717000Y-22697000D01*
X-86706998Y-22697000D01*
X-86834666Y-22856123D01*
X-87310000Y-22856123D01*
X-87310000Y-18820000D01*
X-86880007Y-18820000D01*
X-86860024Y-19022895D01*
X-86800841Y-19217993D01*
X-86704734Y-19397797D01*
X-86665996Y-19445000D01*
X-86704734Y-19492203D01*
X-86800841Y-19672007D01*
X-86860024Y-19867105D01*
X-86880007Y-20070000D01*
X-86860024Y-20272895D01*
X-86800841Y-20467993D01*
X-86704734Y-20647797D01*
X-86665996Y-20695000D01*
X-86704734Y-20742203D01*
X-86800841Y-20922007D01*
X-86860024Y-21117105D01*
X-86880007Y-21320000D01*
X-86860024Y-21522895D01*
X-86800841Y-21717993D01*
X-86704734Y-21897797D01*
X-86671791Y-21937938D01*
X-86735255Y-22021840D01*
X-86824994Y-22207028D01*
X-86834666Y-22283877D01*
X-86706998Y-22443000D01*
X-85717000Y-22443000D01*
X-85717000Y-22423000D01*
X-85463000Y-22423000D01*
X-85463000Y-22443000D01*
X-84473002Y-22443000D01*
X-84345334Y-22283877D01*
X-84355006Y-22207028D01*
X-84416562Y-22080000D01*
X-70494922Y-22080000D01*
X-70457600Y-22083676D01*
X-70420278Y-22080000D01*
X-70420267Y-22080000D01*
X-70308614Y-22069003D01*
X-70165353Y-22025546D01*
X-70033324Y-21954974D01*
X-69917599Y-21860001D01*
X-69893796Y-21830997D01*
X-61831453Y-13768654D01*
X-61826632Y-13773475D01*
X-61583411Y-13935990D01*
X-61313158Y-14047932D01*
X-61026260Y-14105000D01*
X-60733740Y-14105000D01*
X-60446842Y-14047932D01*
X-60176589Y-13935990D01*
X-59933368Y-13773475D01*
X-59726525Y-13566632D01*
X-59610000Y-13392240D01*
X-59493475Y-13566632D01*
X-59286632Y-13773475D01*
X-59043411Y-13935990D01*
X-58773158Y-14047932D01*
X-58486260Y-14105000D01*
X-58193740Y-14105000D01*
X-57906842Y-14047932D01*
X-57636589Y-13935990D01*
X-57393368Y-13773475D01*
X-57186525Y-13566632D01*
X-57070000Y-13392240D01*
X-56953475Y-13566632D01*
X-56746632Y-13773475D01*
X-56503411Y-13935990D01*
X-56233158Y-14047932D01*
X-55946260Y-14105000D01*
X-55653740Y-14105000D01*
X-55366842Y-14047932D01*
X-55096589Y-13935990D01*
X-54853368Y-13773475D01*
X-54646525Y-13566632D01*
X-54530000Y-13392240D01*
X-54413475Y-13566632D01*
X-54206632Y-13773475D01*
X-53963411Y-13935990D01*
X-53693158Y-14047932D01*
X-53406260Y-14105000D01*
X-53113740Y-14105000D01*
X-52826842Y-14047932D01*
X-52556589Y-13935990D01*
X-52313368Y-13773475D01*
X-52106525Y-13566632D01*
X-51990000Y-13392240D01*
X-51873475Y-13566632D01*
X-51666632Y-13773475D01*
X-51423411Y-13935990D01*
X-51153158Y-14047932D01*
X-50866260Y-14105000D01*
X-50573740Y-14105000D01*
X-50286842Y-14047932D01*
X-50016589Y-13935990D01*
X-49773368Y-13773475D01*
X-49566525Y-13566632D01*
X-49450000Y-13392240D01*
X-49333475Y-13566632D01*
X-49126632Y-13773475D01*
X-48883411Y-13935990D01*
X-48613158Y-14047932D01*
X-48326260Y-14105000D01*
X-48033740Y-14105000D01*
X-47746842Y-14047932D01*
X-47476589Y-13935990D01*
X-47233368Y-13773475D01*
X-47026525Y-13566632D01*
X-46910000Y-13392240D01*
X-46793475Y-13566632D01*
X-46586632Y-13773475D01*
X-46343411Y-13935990D01*
X-46073158Y-14047932D01*
X-45786260Y-14105000D01*
X-45493740Y-14105000D01*
X-45206842Y-14047932D01*
X-44936589Y-13935990D01*
X-44693368Y-13773475D01*
X-44486525Y-13566632D01*
X-44370000Y-13392240D01*
X-44253475Y-13566632D01*
X-44046632Y-13773475D01*
X-43803411Y-13935990D01*
X-43533158Y-14047932D01*
X-43246260Y-14105000D01*
X-42953740Y-14105000D01*
X-42666842Y-14047932D01*
X-42396589Y-13935990D01*
X-42153368Y-13773475D01*
X-41946525Y-13566632D01*
X-41830000Y-13392240D01*
X-41713475Y-13566632D01*
X-41506632Y-13773475D01*
X-41263411Y-13935990D01*
X-40993158Y-14047932D01*
X-40706260Y-14105000D01*
X-40413740Y-14105000D01*
X-40126842Y-14047932D01*
X-39856589Y-13935990D01*
X-39613368Y-13773475D01*
X-39406525Y-13566632D01*
X-39290000Y-13392240D01*
X-39173475Y-13566632D01*
X-38966632Y-13773475D01*
X-38723411Y-13935990D01*
X-38453158Y-14047932D01*
X-38166260Y-14105000D01*
X-37873740Y-14105000D01*
X-37586842Y-14047932D01*
X-37316589Y-13935990D01*
X-37073368Y-13773475D01*
X-36866525Y-13566632D01*
X-36750000Y-13392240D01*
X-36633475Y-13566632D01*
X-36426632Y-13773475D01*
X-36183411Y-13935990D01*
X-35913158Y-14047932D01*
X-35626260Y-14105000D01*
X-35333740Y-14105000D01*
X-35046842Y-14047932D01*
X-34776589Y-13935990D01*
X-34533368Y-13773475D01*
X-34326525Y-13566632D01*
X-34210000Y-13392240D01*
X-34093475Y-13566632D01*
X-33886632Y-13773475D01*
X-33643411Y-13935990D01*
X-33373158Y-14047932D01*
X-33086260Y-14105000D01*
X-32793740Y-14105000D01*
X-32506842Y-14047932D01*
X-32236589Y-13935990D01*
X-31993368Y-13773475D01*
X-31786525Y-13566632D01*
X-31670000Y-13392240D01*
X-31553475Y-13566632D01*
X-31346632Y-13773475D01*
X-31103411Y-13935990D01*
X-30833158Y-14047932D01*
X-30546260Y-14105000D01*
X-30253740Y-14105000D01*
X-29966842Y-14047932D01*
X-29696589Y-13935990D01*
X-29453368Y-13773475D01*
X-29246525Y-13566632D01*
X-29130000Y-13392240D01*
X-29013475Y-13566632D01*
X-28806632Y-13773475D01*
X-28563411Y-13935990D01*
X-28293158Y-14047932D01*
X-28006260Y-14105000D01*
X-27713740Y-14105000D01*
X-27426842Y-14047932D01*
X-27156589Y-13935990D01*
X-26913368Y-13773475D01*
X-26706525Y-13566632D01*
X-26590000Y-13392240D01*
X-26473475Y-13566632D01*
X-26266632Y-13773475D01*
X-26023411Y-13935990D01*
X-25753158Y-14047932D01*
X-25466260Y-14105000D01*
X-25173740Y-14105000D01*
X-24886842Y-14047932D01*
X-24616589Y-13935990D01*
X-24373368Y-13773475D01*
X-24166525Y-13566632D01*
X-24050000Y-13392240D01*
X-23933475Y-13566632D01*
X-23726632Y-13773475D01*
X-23483411Y-13935990D01*
X-23213158Y-14047932D01*
X-22926260Y-14105000D01*
X-22633740Y-14105000D01*
X-22346842Y-14047932D01*
X-22076589Y-13935990D01*
X-21833368Y-13773475D01*
X-21626525Y-13566632D01*
X-21510000Y-13392240D01*
X-21393475Y-13566632D01*
X-21186632Y-13773475D01*
X-20943411Y-13935990D01*
X-20673158Y-14047932D01*
X-20386260Y-14105000D01*
X-20093740Y-14105000D01*
X-19806842Y-14047932D01*
X-19536589Y-13935990D01*
X-19293368Y-13773475D01*
X-19086525Y-13566632D01*
X-18970000Y-13392240D01*
X-18853475Y-13566632D01*
X-18646632Y-13773475D01*
X-18403411Y-13935990D01*
X-18133158Y-14047932D01*
X-17846260Y-14105000D01*
X-17553740Y-14105000D01*
X-17266842Y-14047932D01*
X-16996589Y-13935990D01*
X-16753368Y-13773475D01*
X-16546525Y-13566632D01*
X-16430000Y-13392240D01*
X-16313475Y-13566632D01*
X-16106632Y-13773475D01*
X-15863411Y-13935990D01*
X-15593158Y-14047932D01*
X-15306260Y-14105000D01*
X-15013740Y-14105000D01*
X-14726842Y-14047932D01*
X-14456589Y-13935990D01*
X-14213368Y-13773475D01*
X-14006525Y-13566632D01*
X-13890000Y-13392240D01*
X-13773475Y-13566632D01*
X-13566632Y-13773475D01*
X-13323411Y-13935990D01*
X-13053158Y-14047932D01*
X-12766260Y-14105000D01*
X-12473740Y-14105000D01*
X-12186842Y-14047932D01*
X-11916589Y-13935990D01*
X-11673368Y-13773475D01*
X-11466525Y-13566632D01*
X-11304010Y-13323411D01*
X-11192068Y-13053158D01*
X-11135000Y-12766260D01*
X-11135000Y-12473740D01*
X-11192068Y-12186842D01*
X-11304010Y-11916589D01*
X-11466525Y-11673368D01*
X-11673368Y-11466525D01*
X-11847760Y-11350000D01*
X-11673368Y-11233475D01*
X-11466525Y-11026632D01*
X-11304010Y-10783411D01*
X-11192068Y-10513158D01*
X-11135000Y-10226260D01*
X-11135000Y-9933740D01*
X-11192068Y-9646842D01*
X-11304010Y-9376589D01*
X-11466525Y-9133368D01*
X-11673368Y-8926525D01*
X-11916589Y-8764010D01*
X-12034910Y-8715000D01*
X-11916589Y-8665990D01*
X-11673368Y-8503475D01*
X-11466525Y-8296632D01*
X-11304010Y-8053411D01*
X-11192068Y-7783158D01*
X-11135000Y-7496260D01*
X-11135000Y-7203740D01*
X-11192068Y-6916842D01*
X-11304010Y-6646589D01*
X-11466525Y-6403368D01*
X-11673368Y-6196525D01*
X-11847760Y-6080000D01*
X-11673368Y-5963475D01*
X-11466525Y-5756632D01*
X-11304010Y-5513411D01*
X-11192068Y-5243158D01*
X-11135000Y-4956260D01*
X-11135000Y-5413242D01*
X-11001073Y-6086537D01*
X-10738367Y-6720766D01*
X-10356976Y-7291558D01*
X-9871558Y-7776976D01*
X-9300766Y-8158367D01*
X-8666537Y-8421073D01*
X-7993242Y-8555000D01*
X-7306758Y-8555000D01*
X-6633463Y-8421073D01*
X-5999234Y-8158367D01*
X-5428442Y-7776976D01*
X-4943024Y-7291558D01*
X-4561633Y-6720766D01*
X-4298927Y-6086537D01*
X-4165000Y-5413242D01*
X-4165000Y-4726758D01*
X-4298927Y-4053463D01*
X-4561633Y-3419234D01*
X-4943024Y-2848442D01*
X-5428442Y-2363024D01*
X-5999234Y-1981633D01*
X-6633463Y-1718927D01*
X-7306758Y-1585000D01*
X-7993242Y-1585000D01*
X-8666537Y-1718927D01*
X-9300766Y-1981633D01*
X-9871558Y-2363024D01*
X-10356976Y-2848442D01*
X-10738367Y-3419234D01*
X-11001073Y-4053463D01*
X-11135000Y-4726758D01*
X-11135000Y-4663740D01*
X-11192068Y-4376842D01*
X-11304010Y-4106589D01*
X-11466525Y-3863368D01*
X-11673368Y-3656525D01*
X-11916589Y-3494010D01*
X-12186842Y-3382068D01*
X-12473740Y-3325000D01*
X-12766260Y-3325000D01*
X-13053158Y-3382068D01*
X-13323411Y-3494010D01*
X-13566632Y-3656525D01*
X-13773475Y-3863368D01*
X-13890000Y-4037760D01*
X-14006525Y-3863368D01*
X-14213368Y-3656525D01*
X-14456589Y-3494010D01*
X-14726842Y-3382068D01*
X-15013740Y-3325000D01*
X-15306260Y-3325000D01*
X-15593158Y-3382068D01*
X-15863411Y-3494010D01*
X-16106632Y-3656525D01*
X-16313475Y-3863368D01*
X-16430000Y-4037760D01*
X-16546525Y-3863368D01*
X-16753368Y-3656525D01*
X-16996589Y-3494010D01*
X-17266842Y-3382068D01*
X-17553740Y-3325000D01*
X-17846260Y-3325000D01*
X-18133158Y-3382068D01*
X-18403411Y-3494010D01*
X-18646632Y-3656525D01*
X-18853475Y-3863368D01*
X-18970000Y-4037760D01*
X-19086525Y-3863368D01*
X-19293368Y-3656525D01*
X-19536589Y-3494010D01*
X-19806842Y-3382068D01*
X-20093740Y-3325000D01*
X-20386260Y-3325000D01*
X-20673158Y-3382068D01*
X-20943411Y-3494010D01*
X-21186632Y-3656525D01*
X-21393475Y-3863368D01*
X-21510000Y-4037760D01*
X-21626525Y-3863368D01*
X-21833368Y-3656525D01*
X-22076589Y-3494010D01*
X-22346842Y-3382068D01*
X-22633740Y-3325000D01*
X-22926260Y-3325000D01*
X-23213158Y-3382068D01*
X-23483411Y-3494010D01*
X-23726632Y-3656525D01*
X-23933475Y-3863368D01*
X-24050000Y-4037760D01*
X-24166525Y-3863368D01*
X-24373368Y-3656525D01*
X-24616589Y-3494010D01*
X-24886842Y-3382068D01*
X-25173740Y-3325000D01*
X-25466260Y-3325000D01*
X-25753158Y-3382068D01*
X-26023411Y-3494010D01*
X-26266632Y-3656525D01*
X-26473475Y-3863368D01*
X-26590000Y-4037760D01*
X-26706525Y-3863368D01*
X-26913368Y-3656525D01*
X-27156589Y-3494010D01*
X-27426842Y-3382068D01*
X-27713740Y-3325000D01*
X-28006260Y-3325000D01*
X-28293158Y-3382068D01*
X-28563411Y-3494010D01*
X-28806632Y-3656525D01*
X-29013475Y-3863368D01*
X-29130000Y-4037760D01*
X-29246525Y-3863368D01*
X-29453368Y-3656525D01*
X-29696589Y-3494010D01*
X-29966842Y-3382068D01*
X-30253740Y-3325000D01*
X-30546260Y-3325000D01*
X-30833158Y-3382068D01*
X-31103411Y-3494010D01*
X-31346632Y-3656525D01*
X-31553475Y-3863368D01*
X-31670000Y-4037760D01*
X-31786525Y-3863368D01*
X-31993368Y-3656525D01*
X-32236589Y-3494010D01*
X-32506842Y-3382068D01*
X-32793740Y-3325000D01*
X-33086260Y-3325000D01*
X-33373158Y-3382068D01*
X-33643411Y-3494010D01*
X-33886632Y-3656525D01*
X-34093475Y-3863368D01*
X-34210000Y-4037760D01*
X-34326525Y-3863368D01*
X-34533368Y-3656525D01*
X-34776589Y-3494010D01*
X-35046842Y-3382068D01*
X-35333740Y-3325000D01*
X-35626260Y-3325000D01*
X-35913158Y-3382068D01*
X-36183411Y-3494010D01*
X-36426632Y-3656525D01*
X-36633475Y-3863368D01*
X-36750000Y-4037760D01*
X-36866525Y-3863368D01*
X-37073368Y-3656525D01*
X-37316589Y-3494010D01*
X-37586842Y-3382068D01*
X-37873740Y-3325000D01*
X-38166260Y-3325000D01*
X-38453158Y-3382068D01*
X-38723411Y-3494010D01*
X-38966632Y-3656525D01*
X-39173475Y-3863368D01*
X-39295195Y-4045534D01*
X-39364822Y-3928645D01*
X-39559731Y-3712412D01*
X-39793080Y-3538359D01*
X-40055901Y-3413175D01*
X-40203110Y-3368524D01*
X-40433000Y-3489845D01*
X-40433000Y-4683000D01*
X-40413000Y-4683000D01*
X-40413000Y-4937000D01*
X-40433000Y-4937000D01*
X-40433000Y-7223000D01*
X-38147000Y-7223000D01*
X-38147000Y-7203000D01*
X-37893000Y-7203000D01*
X-37893000Y-7223000D01*
X-37873000Y-7223000D01*
X-37873000Y-7477000D01*
X-37893000Y-7477000D01*
X-37893000Y-7497000D01*
X-38147000Y-7497000D01*
X-38147000Y-7477000D01*
X-40433000Y-7477000D01*
X-40433000Y-7497000D01*
X-40687000Y-7497000D01*
X-40687000Y-7477000D01*
X-40707000Y-7477000D01*
X-40707000Y-7223000D01*
X-40687000Y-7223000D01*
X-40687000Y-4937000D01*
X-40707000Y-4937000D01*
X-40707000Y-4683000D01*
X-40687000Y-4683000D01*
X-40687000Y-3489845D01*
X-40916890Y-3368524D01*
X-41064099Y-3413175D01*
X-41326920Y-3538359D01*
X-41560269Y-3712412D01*
X-41755178Y-3928645D01*
X-41824805Y-4045534D01*
X-41946525Y-3863368D01*
X-42153368Y-3656525D01*
X-42396589Y-3494010D01*
X-42666842Y-3382068D01*
X-42953740Y-3325000D01*
X-43246260Y-3325000D01*
X-43533158Y-3382068D01*
X-43803411Y-3494010D01*
X-44046632Y-3656525D01*
X-44253475Y-3863368D01*
X-44370000Y-4037760D01*
X-44486525Y-3863368D01*
X-44693368Y-3656525D01*
X-44936589Y-3494010D01*
X-45206842Y-3382068D01*
X-45493740Y-3325000D01*
X-45786260Y-3325000D01*
X-46073158Y-3382068D01*
X-46343411Y-3494010D01*
X-46586632Y-3656525D01*
X-46793475Y-3863368D01*
X-46910000Y-4037760D01*
X-47026525Y-3863368D01*
X-47233368Y-3656525D01*
X-47476589Y-3494010D01*
X-47746842Y-3382068D01*
X-48033740Y-3325000D01*
X-48326260Y-3325000D01*
X-48613158Y-3382068D01*
X-48883411Y-3494010D01*
X-49126632Y-3656525D01*
X-49333475Y-3863368D01*
X-49450000Y-4037760D01*
X-49566525Y-3863368D01*
X-49773368Y-3656525D01*
X-50016589Y-3494010D01*
X-50286842Y-3382068D01*
X-50573740Y-3325000D01*
X-50866260Y-3325000D01*
X-51153158Y-3382068D01*
X-51423411Y-3494010D01*
X-51666632Y-3656525D01*
X-51873475Y-3863368D01*
X-51990000Y-4037760D01*
X-52106525Y-3863368D01*
X-52313368Y-3656525D01*
X-52556589Y-3494010D01*
X-52826842Y-3382068D01*
X-53113740Y-3325000D01*
X-53406260Y-3325000D01*
X-53693158Y-3382068D01*
X-53963411Y-3494010D01*
X-54206632Y-3656525D01*
X-54413475Y-3863368D01*
X-54530000Y-4037760D01*
X-54646525Y-3863368D01*
X-54853368Y-3656525D01*
X-55096589Y-3494010D01*
X-55366842Y-3382068D01*
X-55653740Y-3325000D01*
X-55946260Y-3325000D01*
X-56233158Y-3382068D01*
X-56503411Y-3494010D01*
X-56746632Y-3656525D01*
X-56953475Y-3863368D01*
X-57070000Y-4037760D01*
X-57186525Y-3863368D01*
X-57393368Y-3656525D01*
X-57636589Y-3494010D01*
X-57906842Y-3382068D01*
X-58193740Y-3325000D01*
X-58486260Y-3325000D01*
X-58773158Y-3382068D01*
X-59043411Y-3494010D01*
X-59286632Y-3656525D01*
X-59493475Y-3863368D01*
X-59610000Y-4037760D01*
X-59726525Y-3863368D01*
X-59933368Y-3656525D01*
X-60176589Y-3494010D01*
X-60446842Y-3382068D01*
X-60733740Y-3325000D01*
X-61026260Y-3325000D01*
X-61313158Y-3382068D01*
X-61583411Y-3494010D01*
X-61826632Y-3656525D01*
X-62033475Y-3863368D01*
X-62150000Y-4037760D01*
X-62266525Y-3863368D01*
X-62473368Y-3656525D01*
X-62716589Y-3494010D01*
X-62986842Y-3382068D01*
X-63273740Y-3325000D01*
X-63566260Y-3325000D01*
X-63853158Y-3382068D01*
X-64123411Y-3494010D01*
X-64366632Y-3656525D01*
X-64573475Y-3863368D01*
X-64690000Y-4037760D01*
X-64806525Y-3863368D01*
X-65013368Y-3656525D01*
X-65256589Y-3494010D01*
X-65526842Y-3382068D01*
X-65813740Y-3325000D01*
X-66106260Y-3325000D01*
X-66393158Y-3382068D01*
X-66663411Y-3494010D01*
X-66906632Y-3656525D01*
X-67113475Y-3863368D01*
X-67230000Y-4037760D01*
X-67346525Y-3863368D01*
X-67553368Y-3656525D01*
X-67796589Y-3494010D01*
X-68066842Y-3382068D01*
X-68353740Y-3325000D01*
X-68646260Y-3325000D01*
X-68933158Y-3382068D01*
X-69203411Y-3494010D01*
X-69446632Y-3656525D01*
X-69653475Y-3863368D01*
X-69770000Y-4037760D01*
X-69886525Y-3863368D01*
X-70093368Y-3656525D01*
X-70336589Y-3494010D01*
X-70606842Y-3382068D01*
X-70893740Y-3325000D01*
X-71186260Y-3325000D01*
X-71473158Y-3382068D01*
X-71743411Y-3494010D01*
X-71986632Y-3656525D01*
X-72193475Y-3863368D01*
X-72310000Y-4037760D01*
X-72426525Y-3863368D01*
X-72633368Y-3656525D01*
X-72876589Y-3494010D01*
X-73146842Y-3382068D01*
X-73433740Y-3325000D01*
X-73726260Y-3325000D01*
X-74013158Y-3382068D01*
X-74283411Y-3494010D01*
X-74526632Y-3656525D01*
X-74658487Y-3788380D01*
X-74680498Y-3715820D01*
X-74739463Y-3605506D01*
X-74818815Y-3508815D01*
X-74915506Y-3429463D01*
X-75025820Y-3370498D01*
X-75145518Y-3334188D01*
X-75270000Y-3321928D01*
X-76970000Y-3321928D01*
X-77094482Y-3334188D01*
X-77214180Y-3370498D01*
X-77324494Y-3429463D01*
X-77421185Y-3508815D01*
X-77500537Y-3605506D01*
X-77559502Y-3715820D01*
X-77595812Y-3835518D01*
X-77608072Y-3960000D01*
X-77608072Y-5660000D01*
X-77595812Y-5784482D01*
X-77559502Y-5904180D01*
X-77500537Y-6014494D01*
X-77421185Y-6111185D01*
X-77324494Y-6190537D01*
X-77214180Y-6249502D01*
X-77141620Y-6271513D01*
X-77273475Y-6403368D01*
X-77435990Y-6646589D01*
X-77547932Y-6916842D01*
X-77605000Y-7203740D01*
X-77605000Y-7496260D01*
X-77547932Y-7783158D01*
X-77435990Y-8053411D01*
X-77273475Y-8296632D01*
X-77066632Y-8503475D01*
X-76934253Y-8591928D01*
X-76970000Y-8591928D01*
X-77094482Y-8604188D01*
X-77214180Y-8640498D01*
X-77324494Y-8699463D01*
X-77421185Y-8778815D01*
X-77500537Y-8875506D01*
X-77559502Y-8985820D01*
X-77595812Y-9105518D01*
X-77608072Y-9230000D01*
X-77608072Y-10495400D01*
X-79238077Y-10495400D01*
X-79275400Y-10491724D01*
X-79312723Y-10495400D01*
X-79312733Y-10495400D01*
X-79424386Y-10506397D01*
X-79562633Y-10548333D01*
X-79567647Y-10549854D01*
X-79699677Y-10620426D01*
X-79774629Y-10681938D01*
X-79815401Y-10715399D01*
X-79839199Y-10744397D01*
X-85626729Y-16531928D01*
X-86040000Y-16531928D01*
X-86203500Y-16548031D01*
X-86360716Y-16595722D01*
X-86505608Y-16673169D01*
X-86632606Y-16777394D01*
X-86736831Y-16904392D01*
X-86814278Y-17049284D01*
X-86861969Y-17206500D01*
X-86878072Y-17370000D01*
X-86878072Y-17770000D01*
X-86861969Y-17933500D01*
X-86814278Y-18090716D01*
X-86736831Y-18235608D01*
X-86715259Y-18261894D01*
X-86800841Y-18422007D01*
X-86860024Y-18617105D01*
X-86880007Y-18820000D01*
X-87310000Y-18820000D01*
X-87310000Y-15282281D01*
X-87305181Y-15233133D01*
X-87300282Y-15216908D01*
X-87292328Y-15201947D01*
X-87281614Y-15188811D01*
X-87268559Y-15178012D01*
X-87253651Y-15169951D01*
X-87237459Y-15164938D01*
X-87190475Y-15160000D01*
X-84887581Y-15160000D01*
X-84859499Y-15157234D01*
X-84854943Y-15157266D01*
X-84845772Y-15156366D01*
X-84700200Y-15141065D01*
X-84641648Y-15129046D01*
X-84582848Y-15117829D01*
X-84574026Y-15115165D01*
X-84434197Y-15071881D01*
X-84379067Y-15048706D01*
X-84323588Y-15026292D01*
X-84315452Y-15021965D01*
X-84186694Y-14952347D01*
X-84137110Y-14918902D01*
X-84087047Y-14886142D01*
X-84079906Y-14880317D01*
X-83967123Y-14787015D01*
X-83924982Y-14744579D01*
X-83882233Y-14702716D01*
X-83876359Y-14695616D01*
X-83783846Y-14582184D01*
X-83750754Y-14532375D01*
X-83716947Y-14483003D01*
X-83712564Y-14474896D01*
X-83643845Y-14345655D01*
X-83621060Y-14290374D01*
X-83597483Y-14235364D01*
X-83594758Y-14226561D01*
X-83552452Y-14086434D01*
X-83540836Y-14027768D01*
X-83528397Y-13969247D01*
X-83527434Y-13960082D01*
X-83513150Y-13814406D01*
X-83513150Y-13814402D01*
X-83510000Y-13782419D01*
X-83510000Y-10217581D01*
X-83512766Y-10189499D01*
X-83512734Y-10184943D01*
X-83513634Y-10175772D01*
X-83528935Y-10030200D01*
X-83540961Y-9971617D01*
X-83552171Y-9912848D01*
X-83554835Y-9904026D01*
X-83598119Y-9764197D01*
X-83621294Y-9709067D01*
X-83643708Y-9653588D01*
X-83648035Y-9645451D01*
X-83717654Y-9516694D01*
X-83751081Y-9467137D01*
X-83783858Y-9417047D01*
X-83789683Y-9409906D01*
X-83882985Y-9297123D01*
X-83925402Y-9255001D01*
X-83967284Y-9212232D01*
X-83974385Y-9206359D01*
X-84087816Y-9113846D01*
X-84137625Y-9080754D01*
X-84186997Y-9046947D01*
X-84195103Y-9042564D01*
X-84324345Y-8973845D01*
X-84379638Y-8951055D01*
X-84434636Y-8927483D01*
X-84443440Y-8924758D01*
X-84583566Y-8882452D01*
X-84642232Y-8870836D01*
X-84700753Y-8858397D01*
X-84709917Y-8857434D01*
X-84855594Y-8843150D01*
X-84855598Y-8843150D01*
X-84887581Y-8840000D01*
X-87187719Y-8840000D01*
X-87236868Y-8835181D01*
X-87253091Y-8830283D01*
X-87268055Y-8822326D01*
X-87281188Y-8811615D01*
X-87291989Y-8798559D01*
X-87300049Y-8783652D01*
X-87305062Y-8767459D01*
X-87310000Y-8720475D01*
X-87310000Y-4726758D01*
X-84755000Y-4726758D01*
X-84755000Y-5413242D01*
X-84621073Y-6086537D01*
X-84358367Y-6720766D01*
X-83976976Y-7291558D01*
X-83491558Y-7776976D01*
X-82920766Y-8158367D01*
X-82286537Y-8421073D01*
X-81613242Y-8555000D01*
X-80926758Y-8555000D01*
X-80253463Y-8421073D01*
X-79619234Y-8158367D01*
X-79048442Y-7776976D01*
X-78563024Y-7291558D01*
X-78181633Y-6720766D01*
X-77918927Y-6086537D01*
X-77785000Y-5413242D01*
X-77785000Y-4726758D01*
X-77918927Y-4053463D01*
X-78181633Y-3419234D01*
X-78563024Y-2848442D01*
X-79048442Y-2363024D01*
X-79619234Y-1981633D01*
X-80253463Y-1718927D01*
X-80926758Y-1585000D01*
X-81613242Y-1585000D01*
X-82286537Y-1718927D01*
X-82920766Y-1981633D01*
X-83491558Y-2363024D01*
X-83976976Y-2848442D01*
X-84358367Y-3419234D01*
X-84621073Y-4053463D01*
X-84755000Y-4726758D01*
X-87310000Y-4726758D01*
X-87310000Y-660000D01*
X-2660000Y-660000D01*
X-2659999Y-8717709D01*
%TA.AperFunction,Conductor*%
D23*
G36*
X-2659999Y-8717709D02*
G01*
X-2664819Y-8766868D01*
X-2669717Y-8783091D01*
X-2677674Y-8798055D01*
X-2688385Y-8811188D01*
X-2701441Y-8821989D01*
X-2716348Y-8830049D01*
X-2732541Y-8835062D01*
X-2779525Y-8840000D01*
X-5282419Y-8840000D01*
X-5310501Y-8842766D01*
X-5315057Y-8842734D01*
X-5324228Y-8843634D01*
X-5469800Y-8858935D01*
X-5528383Y-8870961D01*
X-5587152Y-8882171D01*
X-5595974Y-8884835D01*
X-5735803Y-8928119D01*
X-5790933Y-8951294D01*
X-5846412Y-8973708D01*
X-5854549Y-8978035D01*
X-5983306Y-9047654D01*
X-6032863Y-9081081D01*
X-6082953Y-9113858D01*
X-6090094Y-9119683D01*
X-6202877Y-9212985D01*
X-6244999Y-9255402D01*
X-6287768Y-9297284D01*
X-6293641Y-9304385D01*
X-6386154Y-9417816D01*
X-6419246Y-9467625D01*
X-6453053Y-9516997D01*
X-6457436Y-9525103D01*
X-6526155Y-9654345D01*
X-6548945Y-9709638D01*
X-6572517Y-9764636D01*
X-6575242Y-9773440D01*
X-6617548Y-9913566D01*
X-6629164Y-9972232D01*
X-6641603Y-10030753D01*
X-6642566Y-10039917D01*
X-6656850Y-10185594D01*
X-6656850Y-10185599D01*
X-6660000Y-10217582D01*
X-6659999Y-13782419D01*
X-6657234Y-13810492D01*
X-6657266Y-13815057D01*
X-6656366Y-13824228D01*
X-6641065Y-13969800D01*
X-6629046Y-14028352D01*
X-6617829Y-14087152D01*
X-6615165Y-14095974D01*
X-6571881Y-14235803D01*
X-6548706Y-14290933D01*
X-6526292Y-14346412D01*
X-6521965Y-14354548D01*
X-6452347Y-14483306D01*
X-6418902Y-14532890D01*
X-6386142Y-14582953D01*
X-6380317Y-14590094D01*
X-6287015Y-14702877D01*
X-6244579Y-14745018D01*
X-6202716Y-14787767D01*
X-6195616Y-14793641D01*
X-6082184Y-14886154D01*
X-6032375Y-14919246D01*
X-5983003Y-14953053D01*
X-5974896Y-14957436D01*
X-5845655Y-15026155D01*
X-5790374Y-15048940D01*
X-5735364Y-15072517D01*
X-5726561Y-15075242D01*
X-5586434Y-15117548D01*
X-5527768Y-15129164D01*
X-5469247Y-15141603D01*
X-5460082Y-15142566D01*
X-5314406Y-15156850D01*
X-5314402Y-15156850D01*
X-5282419Y-15160000D01*
X-2802281Y-15160000D01*
X-2753133Y-15164819D01*
X-2736908Y-15169718D01*
X-2721947Y-15177672D01*
X-2708811Y-15188386D01*
X-2698012Y-15201441D01*
X-2689951Y-15216349D01*
X-2684938Y-15232541D01*
X-2680000Y-15279525D01*
X-2679999Y-29282419D01*
X-2677234Y-29310492D01*
X-2677266Y-29315057D01*
X-2676366Y-29324228D01*
X-2661065Y-29469800D01*
X-2649046Y-29528352D01*
X-2637829Y-29587152D01*
X-2635165Y-29595974D01*
X-2591881Y-29735803D01*
X-2568706Y-29790933D01*
X-2546292Y-29846412D01*
X-2541965Y-29854548D01*
X-2472347Y-29983306D01*
X-2438902Y-30032890D01*
X-2406142Y-30082953D01*
X-2400317Y-30090094D01*
X-2307015Y-30202877D01*
X-2264579Y-30245018D01*
X-2222716Y-30287767D01*
X-2215616Y-30293641D01*
X-2102184Y-30386154D01*
X-2052375Y-30419246D01*
X-2003003Y-30453053D01*
X-1994896Y-30457436D01*
X-1865655Y-30526155D01*
X-1810374Y-30548940D01*
X-1755364Y-30572517D01*
X-1746561Y-30575242D01*
X-1606434Y-30617548D01*
X-1547768Y-30629164D01*
X-1489247Y-30641603D01*
X-1480082Y-30642566D01*
X-1334406Y-30656850D01*
X-1334402Y-30656850D01*
X-1302419Y-30660000D01*
X-782281Y-30660000D01*
X-733133Y-30664819D01*
X-716908Y-30669718D01*
X-701947Y-30677672D01*
X-688811Y-30688386D01*
X-678012Y-30701441D01*
X-669951Y-30716349D01*
X-664938Y-30732541D01*
X-660000Y-30779525D01*
X-659999Y-65107708D01*
X-664819Y-65156868D01*
X-669717Y-65173091D01*
X-677674Y-65188055D01*
X-688385Y-65201188D01*
X-701441Y-65211989D01*
X-716348Y-65220049D01*
X-732541Y-65225062D01*
X-779525Y-65230000D01*
X-1082419Y-65230000D01*
X-1110501Y-65232766D01*
X-1115057Y-65232734D01*
X-1124228Y-65233634D01*
X-1269800Y-65248935D01*
X-1328383Y-65260961D01*
X-1387152Y-65272171D01*
X-1395974Y-65274835D01*
X-1535803Y-65318119D01*
X-1590933Y-65341294D01*
X-1646412Y-65363708D01*
X-1654549Y-65368035D01*
X-1783306Y-65437654D01*
X-1832863Y-65471081D01*
X-1882953Y-65503858D01*
X-1890094Y-65509683D01*
X-2002877Y-65602985D01*
X-2044999Y-65645402D01*
X-2087768Y-65687284D01*
X-2093641Y-65694385D01*
X-2186154Y-65807816D01*
X-2219246Y-65857625D01*
X-2253053Y-65906997D01*
X-2257436Y-65915103D01*
X-2326155Y-66044345D01*
X-2348945Y-66099638D01*
X-2372517Y-66154636D01*
X-2375242Y-66163440D01*
X-2417548Y-66303566D01*
X-2429164Y-66362232D01*
X-2441603Y-66420753D01*
X-2442566Y-66429917D01*
X-2456850Y-66575594D01*
X-2456850Y-66575599D01*
X-2460000Y-66607582D01*
X-2459999Y-80607708D01*
X-2464819Y-80656868D01*
X-2469717Y-80673091D01*
X-2477674Y-80688055D01*
X-2488385Y-80701188D01*
X-2501441Y-80711989D01*
X-2516348Y-80720049D01*
X-2532541Y-80725062D01*
X-2579525Y-80730000D01*
X-5282419Y-80730000D01*
X-5310501Y-80732766D01*
X-5315057Y-80732734D01*
X-5324228Y-80733634D01*
X-5469800Y-80748935D01*
X-5528383Y-80760961D01*
X-5587152Y-80772171D01*
X-5595974Y-80774835D01*
X-5735803Y-80818119D01*
X-5790933Y-80841294D01*
X-5846412Y-80863708D01*
X-5854549Y-80868035D01*
X-5983306Y-80937654D01*
X-6032863Y-80971081D01*
X-6082953Y-81003858D01*
X-6090094Y-81009683D01*
X-6202877Y-81102985D01*
X-6244999Y-81145402D01*
X-6287768Y-81187284D01*
X-6293641Y-81194385D01*
X-6386154Y-81307816D01*
X-6419246Y-81357625D01*
X-6453053Y-81406997D01*
X-6457436Y-81415103D01*
X-6526155Y-81544345D01*
X-6548945Y-81599638D01*
X-6572517Y-81654636D01*
X-6575242Y-81663440D01*
X-6617548Y-81803566D01*
X-6629164Y-81862232D01*
X-6641603Y-81920753D01*
X-6642566Y-81929917D01*
X-6656850Y-82075594D01*
X-6656850Y-82075599D01*
X-6660000Y-82107582D01*
X-6659999Y-85672419D01*
X-6657234Y-85700492D01*
X-6657266Y-85705057D01*
X-6656366Y-85714228D01*
X-6641065Y-85859800D01*
X-6629046Y-85918352D01*
X-6617829Y-85977152D01*
X-6615165Y-85985974D01*
X-6571881Y-86125803D01*
X-6548706Y-86180933D01*
X-6526292Y-86236412D01*
X-6521965Y-86244548D01*
X-6452347Y-86373306D01*
X-6418902Y-86422890D01*
X-6386142Y-86472953D01*
X-6380317Y-86480094D01*
X-6287015Y-86592877D01*
X-6244579Y-86635018D01*
X-6202716Y-86677767D01*
X-6195616Y-86683641D01*
X-6082184Y-86776154D01*
X-6032375Y-86809246D01*
X-5983003Y-86843053D01*
X-5974896Y-86847436D01*
X-5845655Y-86916155D01*
X-5790374Y-86938940D01*
X-5735364Y-86962517D01*
X-5726561Y-86965242D01*
X-5586434Y-87007548D01*
X-5527768Y-87019164D01*
X-5469247Y-87031603D01*
X-5460082Y-87032566D01*
X-5314406Y-87046850D01*
X-5314402Y-87046850D01*
X-5282419Y-87050000D01*
X-2582281Y-87050000D01*
X-2533133Y-87054819D01*
X-2516908Y-87059718D01*
X-2501947Y-87067672D01*
X-2488811Y-87078386D01*
X-2478012Y-87091441D01*
X-2469951Y-87106349D01*
X-2464938Y-87122541D01*
X-2460000Y-87169525D01*
X-2460000Y-88491466D01*
X-2898442Y-88053024D01*
X-3469234Y-87671633D01*
X-4103463Y-87408927D01*
X-4776758Y-87275000D01*
X-5463242Y-87275000D01*
X-6136537Y-87408927D01*
X-6770766Y-87671633D01*
X-7341558Y-88053024D01*
X-7826976Y-88538442D01*
X-8208367Y-89109234D01*
X-8471073Y-89743463D01*
X-8605000Y-90416758D01*
X-8605000Y-91103242D01*
X-8471073Y-91776537D01*
X-8208367Y-92410766D01*
X-7826976Y-92981558D01*
X-7341558Y-93466976D01*
X-6770766Y-93848367D01*
X-6136537Y-94111073D01*
X-5463242Y-94245000D01*
X-4776758Y-94245000D01*
X-4103463Y-94111073D01*
X-3469234Y-93848367D01*
X-2898442Y-93466976D01*
X-2459999Y-93028533D01*
X-2459999Y-95230000D01*
X-87760000Y-95230000D01*
X-87760000Y-93148534D01*
X-87341558Y-93566976D01*
X-86770766Y-93948367D01*
X-86136537Y-94211073D01*
X-85463242Y-94345000D01*
X-84776758Y-94345000D01*
X-84103463Y-94211073D01*
X-83469234Y-93948367D01*
X-82898442Y-93566976D01*
X-82413024Y-93081558D01*
X-82031633Y-92510766D01*
X-81768927Y-91876537D01*
X-81635000Y-91203242D01*
X-81635000Y-90516758D01*
X-81768927Y-89843463D01*
X-82031633Y-89209234D01*
X-82413024Y-88638442D01*
X-82898442Y-88153024D01*
X-83469234Y-87771633D01*
X-84103463Y-87508927D01*
X-84776758Y-87375000D01*
X-85463242Y-87375000D01*
X-86136537Y-87508927D01*
X-86770766Y-87771633D01*
X-87341558Y-88153024D01*
X-87760000Y-88571466D01*
X-87760000Y-87172281D01*
X-87755181Y-87123133D01*
X-87750282Y-87106908D01*
X-87742328Y-87091947D01*
X-87731614Y-87078811D01*
X-87718559Y-87068012D01*
X-87703651Y-87059951D01*
X-87687459Y-87054938D01*
X-87640475Y-87050000D01*
X-84887581Y-87050000D01*
X-84859499Y-87047234D01*
X-84854943Y-87047266D01*
X-84845772Y-87046366D01*
X-84700200Y-87031065D01*
X-84641648Y-87019046D01*
X-84582848Y-87007829D01*
X-84574026Y-87005165D01*
X-84434197Y-86961881D01*
X-84379067Y-86938706D01*
X-84323588Y-86916292D01*
X-84315452Y-86911965D01*
X-84186694Y-86842347D01*
X-84137110Y-86808902D01*
X-84087047Y-86776142D01*
X-84079906Y-86770317D01*
X-83967123Y-86677015D01*
X-83924982Y-86634579D01*
X-83882233Y-86592716D01*
X-83876359Y-86585616D01*
X-83783846Y-86472184D01*
X-83750754Y-86422375D01*
X-83716947Y-86373003D01*
X-83712564Y-86364896D01*
X-83643845Y-86235655D01*
X-83621060Y-86180374D01*
X-83597483Y-86125364D01*
X-83594758Y-86116561D01*
X-83552452Y-85976434D01*
X-83540836Y-85917768D01*
X-83528397Y-85859247D01*
X-83527434Y-85850082D01*
X-83513150Y-85704406D01*
X-83513150Y-85704402D01*
X-83510000Y-85672419D01*
X-83510000Y-82107581D01*
X-83512766Y-82079499D01*
X-83512734Y-82074943D01*
X-83513634Y-82065772D01*
X-83528935Y-81920200D01*
X-83540961Y-81861617D01*
X-83552171Y-81802848D01*
X-83554835Y-81794026D01*
X-83598119Y-81654197D01*
X-83621294Y-81599067D01*
X-83643708Y-81543588D01*
X-83648035Y-81535451D01*
X-83717654Y-81406694D01*
X-83751081Y-81357137D01*
X-83783858Y-81307047D01*
X-83789683Y-81299906D01*
X-83882985Y-81187123D01*
X-83925402Y-81145001D01*
X-83967284Y-81102232D01*
X-83974385Y-81096359D01*
X-84087816Y-81003846D01*
X-84137625Y-80970754D01*
X-84186997Y-80936947D01*
X-84195103Y-80932564D01*
X-84324345Y-80863845D01*
X-84379638Y-80841055D01*
X-84434636Y-80817483D01*
X-84443440Y-80814758D01*
X-84583566Y-80772452D01*
X-84642232Y-80760836D01*
X-84700753Y-80748397D01*
X-84709917Y-80747434D01*
X-84855594Y-80733150D01*
X-84855598Y-80733150D01*
X-84887581Y-80730000D01*
X-87637719Y-80730000D01*
X-87686868Y-80725181D01*
X-87703091Y-80720283D01*
X-87718055Y-80712326D01*
X-87731188Y-80701615D01*
X-87741989Y-80688559D01*
X-87750049Y-80673652D01*
X-87755062Y-80657459D01*
X-87760000Y-80610475D01*
X-87760000Y-79754001D01*
X-85974408Y-79754001D01*
X-85963279Y-79834563D01*
X-85870351Y-80028949D01*
X-85741286Y-80201470D01*
X-85581044Y-80345497D01*
X-85395782Y-80455495D01*
X-85192621Y-80527236D01*
X-84979367Y-80557964D01*
X-84807000Y-80393419D01*
X-84807000Y-79587000D01*
X-84553000Y-79587000D01*
X-84553000Y-80393419D01*
X-84380633Y-80557964D01*
X-84167379Y-80527236D01*
X-83964218Y-80455495D01*
X-83778956Y-80345497D01*
X-83618714Y-80201470D01*
X-83489649Y-80028949D01*
X-83396721Y-79834563D01*
X-83385592Y-79754001D01*
X-83512498Y-79587000D01*
X-84553000Y-79587000D01*
X-84807000Y-79587000D01*
X-85847502Y-79587000D01*
X-85974408Y-79754001D01*
X-87760000Y-79754001D01*
X-87760000Y-77985000D01*
X-86018072Y-77985000D01*
X-86018072Y-78435000D01*
X-86001488Y-78603377D01*
X-85952375Y-78765283D01*
X-85877338Y-78905666D01*
X-85963279Y-79085437D01*
X-85974408Y-79165999D01*
X-85847502Y-79333000D01*
X-84807000Y-79333000D01*
X-84807000Y-79313000D01*
X-84553000Y-79313000D01*
X-84553000Y-79333000D01*
X-83512498Y-79333000D01*
X-83385592Y-79165999D01*
X-83396721Y-79085437D01*
X-83451907Y-78970000D01*
X-7835027Y-78970000D01*
X-7804229Y-79007526D01*
X-7749101Y-79074701D01*
X-7720098Y-79098504D01*
X-7478072Y-79340529D01*
X-7478072Y-79695000D01*
X-7461488Y-79863377D01*
X-7412375Y-80025283D01*
X-7332618Y-80174497D01*
X-7225284Y-80305284D01*
X-7094497Y-80412618D01*
X-6945283Y-80492375D01*
X-6783377Y-80541488D01*
X-6615000Y-80558072D01*
X-5665000Y-80558072D01*
X-5496623Y-80541488D01*
X-5334717Y-80492375D01*
X-5185503Y-80412618D01*
X-5054716Y-80305284D01*
X-4947382Y-80174497D01*
X-4867625Y-80025283D01*
X-4818512Y-79863377D01*
X-4801928Y-79695000D01*
X-4801928Y-79245000D01*
X-4818512Y-79076623D01*
X-4867625Y-78914717D01*
X-4942662Y-78774334D01*
X-4856721Y-78594563D01*
X-4845592Y-78514001D01*
X-4972498Y-78347000D01*
X-6013000Y-78347000D01*
X-6013000Y-78367000D01*
X-6267000Y-78367000D01*
X-6267000Y-78347000D01*
X-6287000Y-78347000D01*
X-6287000Y-78093000D01*
X-6267000Y-78093000D01*
X-6267000Y-77286581D01*
X-6013000Y-77286581D01*
X-6013000Y-78093000D01*
X-4972498Y-78093000D01*
X-4845592Y-77925999D01*
X-4856721Y-77845437D01*
X-4949649Y-77651051D01*
X-5078714Y-77478530D01*
X-5238956Y-77334503D01*
X-5424218Y-77224505D01*
X-5627379Y-77152764D01*
X-5840633Y-77122036D01*
X-6013000Y-77286581D01*
X-6267000Y-77286581D01*
X-6439367Y-77122036D01*
X-6449100Y-77123438D01*
X-6449100Y-75100501D01*
X-3773596Y-72424998D01*
X-3744599Y-72401201D01*
X-3649626Y-72285476D01*
X-3579054Y-72153447D01*
X-3535597Y-72010186D01*
X-3524600Y-71898533D01*
X-3524600Y-71898532D01*
X-3520923Y-71861200D01*
X-3524600Y-71823867D01*
X-3524600Y-63007865D01*
X-3475220Y-63034259D01*
X-3270697Y-63096300D01*
X-3111294Y-63112000D01*
X-2504706Y-63112000D01*
X-2345303Y-63096300D01*
X-2140780Y-63034259D01*
X-1952290Y-62933509D01*
X-1787078Y-62797922D01*
X-1651491Y-62632710D01*
X-1550741Y-62444220D01*
X-1488700Y-62239697D01*
X-1467751Y-62027000D01*
X-1488700Y-61814303D01*
X-1550741Y-61609780D01*
X-1571662Y-61570640D01*
X-1518498Y-61471180D01*
X-1482188Y-61351482D01*
X-1469928Y-61227000D01*
X-1469928Y-60327000D01*
X-1482188Y-60202518D01*
X-1518498Y-60082820D01*
X-1577463Y-59972506D01*
X-1656815Y-59875815D01*
X-1753506Y-59796463D01*
X-1863820Y-59737498D01*
X-1983518Y-59701188D01*
X-2108000Y-59688928D01*
X-3508000Y-59688928D01*
X-3524600Y-59690563D01*
X-3524600Y-38722109D01*
X-3458697Y-38742100D01*
X-3299294Y-38757800D01*
X-2692706Y-38757800D01*
X-2533303Y-38742100D01*
X-2328780Y-38680059D01*
X-2140290Y-38579309D01*
X-1975078Y-38443722D01*
X-1839491Y-38278510D01*
X-1738741Y-38090020D01*
X-1676700Y-37885497D01*
X-1655751Y-37672800D01*
X-1676700Y-37460103D01*
X-1738741Y-37255580D01*
X-1805761Y-37130195D01*
X-1803382Y-37127297D01*
X-1723625Y-36978083D01*
X-1674512Y-36816177D01*
X-1657928Y-36647800D01*
X-1657928Y-36197800D01*
X-1674512Y-36029423D01*
X-1723625Y-35867517D01*
X-1803382Y-35718303D01*
X-1910716Y-35587516D01*
X-2041503Y-35480182D01*
X-2190717Y-35400425D01*
X-2352623Y-35351312D01*
X-2521000Y-35334728D01*
X-3471000Y-35334728D01*
X-3524600Y-35340007D01*
X-3524600Y-23344923D01*
X-3520924Y-23307600D01*
X-3524600Y-23270277D01*
X-3524600Y-23270267D01*
X-3535597Y-23158614D01*
X-3579054Y-23015353D01*
X-3606260Y-22964454D01*
X-3649626Y-22883323D01*
X-3720801Y-22796597D01*
X-3744599Y-22767599D01*
X-3773597Y-22743801D01*
X-3981196Y-22536202D01*
X-3969751Y-22420000D01*
X-3990700Y-22207303D01*
X-4052741Y-22002780D01*
X-4153491Y-21814290D01*
X-4169322Y-21795000D01*
X-4153491Y-21775710D01*
X-4052741Y-21587220D01*
X-3990700Y-21382697D01*
X-3969751Y-21170000D01*
X-3990700Y-20957303D01*
X-4052741Y-20752780D01*
X-4119761Y-20627395D01*
X-4117382Y-20624497D01*
X-4037625Y-20475283D01*
X-3988512Y-20313377D01*
X-3971928Y-20145000D01*
X-3971928Y-19695000D01*
X-3988512Y-19526623D01*
X-4037625Y-19364717D01*
X-4117382Y-19215503D01*
X-4224716Y-19084716D01*
X-4355503Y-18977382D01*
X-4504717Y-18897625D01*
X-4666623Y-18848512D01*
X-4835000Y-18831928D01*
X-5785000Y-18831928D01*
X-5953377Y-18848512D01*
X-6115283Y-18897625D01*
X-6264497Y-18977382D01*
X-6395284Y-19084716D01*
X-6502618Y-19215503D01*
X-6582375Y-19364717D01*
X-6631488Y-19526623D01*
X-6648072Y-19695000D01*
X-6648072Y-20145000D01*
X-6631488Y-20313377D01*
X-6582375Y-20475283D01*
X-6502618Y-20624497D01*
X-6500239Y-20627395D01*
X-6567259Y-20752780D01*
X-6629300Y-20957303D01*
X-6650249Y-21170000D01*
X-6629300Y-21382697D01*
X-6567259Y-21587220D01*
X-6466509Y-21775710D01*
X-6450678Y-21795000D01*
X-6466509Y-21814290D01*
X-6567259Y-22002780D01*
X-6629300Y-22207303D01*
X-6650249Y-22420000D01*
X-6629300Y-22632697D01*
X-6567259Y-22837220D01*
X-6517151Y-22930966D01*
X-6627547Y-22964454D01*
X-6759576Y-23035026D01*
X-6759578Y-23035027D01*
X-6759577Y-23035027D01*
X-6846304Y-23106201D01*
X-6846308Y-23106205D01*
X-6875301Y-23129999D01*
X-6899095Y-23158992D01*
X-19394301Y-35654200D01*
X-24255616Y-35654200D01*
X-24223500Y-35492739D01*
X-24223500Y-35288861D01*
X-24263274Y-35088902D01*
X-24341295Y-34900544D01*
X-24454563Y-34731026D01*
X-24598726Y-34586863D01*
X-24768244Y-34473595D01*
X-24956602Y-34395574D01*
X-25156561Y-34355800D01*
X-25218698Y-34355800D01*
X-27780000Y-31794499D01*
X-27780000Y-25304909D01*
X-27765537Y-25298918D01*
X-27497748Y-25119987D01*
X-27270013Y-24892252D01*
X-27091082Y-24624463D01*
X-26967832Y-24326912D01*
X-26905000Y-24011033D01*
X-26905000Y-23688967D01*
X-26967832Y-23373088D01*
X-27091082Y-23075537D01*
X-27270013Y-22807748D01*
X-27497748Y-22580013D01*
X-27765537Y-22401082D01*
X-28063088Y-22277832D01*
X-28378967Y-22215000D01*
X-28701033Y-22215000D01*
X-29016912Y-22277832D01*
X-29314463Y-22401082D01*
X-29582252Y-22580013D01*
X-29790000Y-22787761D01*
X-29997748Y-22580013D01*
X-30265537Y-22401082D01*
X-30563088Y-22277832D01*
X-30878967Y-22215000D01*
X-31201033Y-22215000D01*
X-31516912Y-22277832D01*
X-31814463Y-22401082D01*
X-32082252Y-22580013D01*
X-32290000Y-22787761D01*
X-32497748Y-22580013D01*
X-32765537Y-22401082D01*
X-33063088Y-22277832D01*
X-33378967Y-22215000D01*
X-33701033Y-22215000D01*
X-34016912Y-22277832D01*
X-34314463Y-22401082D01*
X-34582252Y-22580013D01*
X-34790000Y-22787761D01*
X-34997748Y-22580013D01*
X-35265537Y-22401082D01*
X-35563088Y-22277832D01*
X-35878967Y-22215000D01*
X-36201033Y-22215000D01*
X-36516912Y-22277832D01*
X-36814463Y-22401082D01*
X-37082252Y-22580013D01*
X-37290000Y-22787761D01*
X-37497748Y-22580013D01*
X-37765537Y-22401082D01*
X-38063088Y-22277832D01*
X-38378967Y-22215000D01*
X-38701033Y-22215000D01*
X-39016912Y-22277832D01*
X-39314463Y-22401082D01*
X-39582252Y-22580013D01*
X-39790000Y-22787761D01*
X-39997748Y-22580013D01*
X-40265537Y-22401082D01*
X-40563088Y-22277832D01*
X-40878967Y-22215000D01*
X-41201033Y-22215000D01*
X-41516912Y-22277832D01*
X-41814463Y-22401082D01*
X-42082252Y-22580013D01*
X-42290000Y-22787761D01*
X-42497748Y-22580013D01*
X-42765537Y-22401082D01*
X-43063088Y-22277832D01*
X-43378967Y-22215000D01*
X-43701033Y-22215000D01*
X-44016912Y-22277832D01*
X-44314463Y-22401082D01*
X-44582252Y-22580013D01*
X-44790000Y-22787761D01*
X-44997748Y-22580013D01*
X-45265537Y-22401082D01*
X-45563088Y-22277832D01*
X-45878967Y-22215000D01*
X-46201033Y-22215000D01*
X-46516912Y-22277832D01*
X-46814463Y-22401082D01*
X-47082252Y-22580013D01*
X-47290000Y-22787761D01*
X-47497748Y-22580013D01*
X-47765537Y-22401082D01*
X-48063088Y-22277832D01*
X-48378967Y-22215000D01*
X-48701033Y-22215000D01*
X-49016912Y-22277832D01*
X-49314463Y-22401082D01*
X-49582252Y-22580013D01*
X-49790000Y-22787761D01*
X-49997748Y-22580013D01*
X-50265537Y-22401082D01*
X-50563088Y-22277832D01*
X-50878967Y-22215000D01*
X-51201033Y-22215000D01*
X-51516912Y-22277832D01*
X-51814463Y-22401082D01*
X-52082252Y-22580013D01*
X-52290000Y-22787761D01*
X-52497748Y-22580013D01*
X-52765537Y-22401082D01*
X-53063088Y-22277832D01*
X-53378967Y-22215000D01*
X-53701033Y-22215000D01*
X-54016912Y-22277832D01*
X-54314463Y-22401082D01*
X-54582252Y-22580013D01*
X-54790000Y-22787761D01*
X-54997748Y-22580013D01*
X-55265537Y-22401082D01*
X-55563088Y-22277832D01*
X-55878967Y-22215000D01*
X-56201033Y-22215000D01*
X-56516912Y-22277832D01*
X-56814463Y-22401082D01*
X-57082252Y-22580013D01*
X-57309987Y-22807748D01*
X-57488918Y-23075537D01*
X-57612168Y-23373088D01*
X-57675000Y-23688967D01*
X-57675000Y-24011033D01*
X-57612168Y-24326912D01*
X-57606177Y-24341375D01*
X-65969497Y-32704696D01*
X-65998501Y-32728499D01*
X-66053629Y-32795674D01*
X-66093474Y-32844224D01*
X-66164045Y-32976253D01*
X-66164046Y-32976254D01*
X-66207503Y-33119515D01*
X-66218500Y-33231168D01*
X-66218500Y-33231178D01*
X-66222176Y-33268500D01*
X-66218500Y-33305823D01*
X-66218499Y-37359468D01*
X-66222176Y-37396800D01*
X-66207502Y-37545785D01*
X-66164046Y-37689046D01*
X-66093474Y-37821076D01*
X-66040604Y-37885497D01*
X-65998500Y-37936801D01*
X-65969502Y-37960599D01*
X-57943995Y-45986108D01*
X-57920201Y-46015101D01*
X-57891208Y-46038895D01*
X-57891204Y-46038899D01*
X-57820515Y-46096911D01*
X-57804476Y-46110074D01*
X-57672447Y-46180646D01*
X-57529186Y-46224103D01*
X-57417533Y-46235100D01*
X-57417524Y-46235100D01*
X-57380201Y-46238776D01*
X-57342878Y-46235100D01*
X-41337401Y-46235100D01*
X-37001800Y-50570702D01*
X-37001800Y-50632839D01*
X-36962026Y-50832798D01*
X-36884005Y-51021156D01*
X-36770737Y-51190674D01*
X-36626574Y-51334837D01*
X-36457056Y-51448105D01*
X-36268698Y-51526126D01*
X-36068739Y-51565900D01*
X-35864861Y-51565900D01*
X-35664902Y-51526126D01*
X-35476544Y-51448105D01*
X-35307026Y-51334837D01*
X-35263089Y-51290900D01*
X-24007301Y-51290900D01*
X-23291101Y-52007100D01*
X-67147511Y-52007100D01*
X-76985000Y-42170170D01*
X-76985000Y-42108061D01*
X-77024774Y-41908102D01*
X-77102795Y-41719744D01*
X-77216063Y-41550226D01*
X-77360226Y-41406063D01*
X-77529744Y-41292795D01*
X-77718102Y-41214774D01*
X-77918061Y-41175000D01*
X-78121939Y-41175000D01*
X-78321898Y-41214774D01*
X-78510256Y-41292795D01*
X-78679774Y-41406063D01*
X-78823937Y-41550226D01*
X-78937205Y-41719744D01*
X-79015226Y-41908102D01*
X-79055000Y-42108061D01*
X-79055000Y-42311939D01*
X-79015226Y-42511898D01*
X-78937205Y-42700256D01*
X-78823937Y-42869774D01*
X-78679774Y-43013937D01*
X-78510256Y-43127205D01*
X-78321898Y-43205226D01*
X-78121939Y-43245000D01*
X-78059773Y-43245000D01*
X-68026095Y-53278108D01*
X-68002301Y-53307101D01*
X-67973292Y-53330908D01*
X-67973287Y-53330913D01*
X-67954093Y-53346664D01*
X-67886576Y-53402074D01*
X-67886566Y-53402080D01*
X-67886559Y-53402085D01*
X-67831688Y-53431413D01*
X-67754547Y-53472646D01*
X-67754535Y-53472650D01*
X-67754527Y-53472654D01*
X-67702305Y-53488493D01*
X-67611286Y-53516103D01*
X-67611270Y-53516105D01*
X-67611265Y-53516106D01*
X-67576790Y-53519501D01*
X-67499633Y-53527100D01*
X-67499612Y-53527100D01*
X-67462279Y-53530776D01*
X-67424967Y-53527100D01*
X-23187511Y-53527100D01*
X-23143574Y-53571037D01*
X-22974056Y-53684305D01*
X-22785698Y-53762326D01*
X-22585739Y-53802100D01*
X-22381861Y-53802100D01*
X-22181902Y-53762326D01*
X-21993544Y-53684305D01*
X-21824026Y-53571037D01*
X-21775595Y-53522606D01*
X-9055499Y-66242703D01*
X-9055499Y-66311928D01*
X-9815000Y-66311928D01*
X-9983377Y-66328512D01*
X-10145283Y-66377625D01*
X-10294497Y-66457382D01*
X-10425284Y-66564716D01*
X-10487068Y-66640000D01*
X-80256898Y-66640000D01*
X-80492080Y-66404818D01*
X-80500700Y-66317303D01*
X-80562741Y-66112780D01*
X-80663491Y-65924290D01*
X-80799078Y-65759078D01*
X-80964290Y-65623491D01*
X-81152780Y-65522741D01*
X-81357303Y-65460700D01*
X-81516706Y-65445000D01*
X-82123294Y-65445000D01*
X-82282697Y-65460700D01*
X-82487220Y-65522741D01*
X-82675710Y-65623491D01*
X-82840922Y-65759078D01*
X-82976509Y-65924290D01*
X-83077259Y-66112780D01*
X-83139300Y-66317303D01*
X-83160249Y-66530000D01*
X-83139300Y-66742697D01*
X-83077259Y-66947220D01*
X-83056338Y-66986360D01*
X-83109502Y-67085820D01*
X-83145812Y-67205518D01*
X-83158072Y-67330000D01*
X-83158072Y-68230000D01*
X-83145812Y-68354482D01*
X-83109502Y-68474180D01*
X-83050537Y-68584494D01*
X-82971185Y-68681185D01*
X-82874494Y-68760537D01*
X-82764180Y-68819502D01*
X-82644482Y-68855812D01*
X-82520000Y-68868072D01*
X-81502500Y-68868072D01*
X-81502499Y-71377697D01*
X-82079801Y-71955000D01*
X-82393294Y-71955000D01*
X-82552697Y-71970700D01*
X-82757220Y-72032741D01*
X-82945710Y-72133491D01*
X-83110922Y-72269078D01*
X-83246509Y-72434290D01*
X-83347259Y-72622780D01*
X-83409300Y-72827303D01*
X-83430249Y-73040000D01*
X-83409300Y-73252697D01*
X-83347259Y-73457220D01*
X-83326338Y-73496360D01*
X-83379502Y-73595820D01*
X-83415812Y-73715518D01*
X-83428072Y-73840000D01*
X-83428072Y-74740000D01*
X-83415812Y-74864482D01*
X-83379502Y-74984180D01*
X-83320537Y-75094494D01*
X-83241185Y-75191185D01*
X-83144494Y-75270537D01*
X-83034180Y-75329502D01*
X-82914482Y-75365812D01*
X-82790000Y-75378072D01*
X-81390000Y-75378072D01*
X-81265518Y-75365812D01*
X-81145820Y-75329502D01*
X-81035506Y-75270537D01*
X-80938815Y-75191185D01*
X-80859463Y-75094494D01*
X-80800498Y-74984180D01*
X-80764188Y-74864482D01*
X-80751928Y-74740000D01*
X-80751928Y-73840000D01*
X-80764188Y-73715518D01*
X-80800498Y-73595820D01*
X-80853662Y-73496360D01*
X-80832741Y-73457220D01*
X-80770700Y-73252697D01*
X-80749751Y-73040000D01*
X-80770700Y-72827303D01*
X-80778102Y-72802903D01*
X-80231497Y-72256299D01*
X-80202499Y-72232501D01*
X-80107526Y-72116776D01*
X-80036954Y-71984747D01*
X-79993497Y-71841486D01*
X-79982500Y-71729833D01*
X-79982500Y-71729825D01*
X-79978824Y-71692500D01*
X-79982500Y-71655175D01*
X-79982500Y-70182702D01*
X-57493097Y-70182702D01*
X-57421514Y-70426671D01*
X-57166004Y-70547571D01*
X-56891816Y-70616300D01*
X-56609488Y-70630217D01*
X-56329870Y-70588787D01*
X-56063708Y-70493603D01*
X-55938486Y-70426671D01*
X-55866903Y-70182702D01*
X-56680000Y-69369605D01*
X-57493097Y-70182702D01*
X-79982500Y-70182702D01*
X-79982500Y-69260512D01*
X-58120217Y-69260512D01*
X-58078787Y-69540130D01*
X-57983603Y-69806292D01*
X-57916671Y-69931514D01*
X-57672702Y-70003097D01*
X-56859605Y-69190000D01*
X-56500395Y-69190000D01*
X-55687298Y-70003097D01*
X-55443329Y-69931514D01*
X-55322429Y-69676004D01*
X-55253700Y-69401816D01*
X-55239783Y-69119488D01*
X-55281213Y-68839870D01*
X-55376397Y-68573708D01*
X-55443329Y-68448486D01*
X-55687298Y-68376903D01*
X-56500395Y-69190000D01*
X-56859605Y-69190000D01*
X-57672702Y-68376903D01*
X-57916671Y-68448486D01*
X-58037571Y-68703996D01*
X-58106300Y-68978184D01*
X-58120217Y-69260512D01*
X-79982500Y-69260512D01*
X-79982500Y-68160000D01*
X-57482153Y-68160000D01*
X-57493097Y-68197298D01*
X-56680000Y-69010395D01*
X-55866903Y-68197298D01*
X-55877847Y-68160000D01*
X-10558357Y-68160000D01*
X-10597259Y-68232780D01*
X-10659300Y-68437303D01*
X-10680249Y-68650000D01*
X-10659300Y-68862697D01*
X-10597259Y-69067220D01*
X-10496509Y-69255710D01*
X-10360922Y-69420922D01*
X-10195710Y-69556509D01*
X-10007220Y-69657259D01*
X-9802697Y-69719300D01*
X-9643294Y-69735000D01*
X-9036706Y-69735000D01*
X-8877303Y-69719300D01*
X-8672780Y-69657259D01*
X-8484290Y-69556509D01*
X-8319078Y-69420922D01*
X-8183491Y-69255710D01*
X-8082741Y-69067220D01*
X-8020700Y-68862697D01*
X-7999751Y-68650000D01*
X-8000302Y-68644404D01*
X-7784491Y-68428594D01*
X-7755499Y-68404801D01*
X-7731705Y-68375808D01*
X-7731701Y-68375804D01*
X-7660527Y-68289077D01*
X-7660526Y-68289076D01*
X-7589954Y-68157047D01*
X-7546497Y-68013786D01*
X-7535500Y-67902133D01*
X-7535500Y-67902124D01*
X-7531824Y-67864801D01*
X-7535500Y-67827478D01*
X-7535500Y-65965222D01*
X-7531824Y-65927899D01*
X-7535500Y-65890576D01*
X-7535500Y-65890567D01*
X-7546497Y-65778914D01*
X-7589954Y-65635653D01*
X-7660526Y-65503624D01*
X-7755499Y-65387899D01*
X-7784497Y-65364101D01*
X-23128696Y-50019903D01*
X-23152499Y-49990899D01*
X-23268224Y-49895926D01*
X-23400253Y-49825354D01*
X-23543514Y-49781897D01*
X-23655167Y-49770900D01*
X-23655178Y-49770900D01*
X-23692500Y-49767224D01*
X-23729822Y-49770900D01*
X-35263089Y-49770900D01*
X-35307026Y-49726963D01*
X-35476544Y-49613695D01*
X-35664902Y-49535674D01*
X-35864861Y-49495900D01*
X-35926998Y-49495900D01*
X-37403637Y-48019261D01*
X-29101400Y-48019261D01*
X-29101400Y-48223139D01*
X-29061626Y-48423098D01*
X-28983605Y-48611456D01*
X-28870337Y-48780974D01*
X-28726174Y-48925137D01*
X-28556656Y-49038405D01*
X-28368298Y-49116426D01*
X-28168339Y-49156200D01*
X-27964461Y-49156200D01*
X-27764502Y-49116426D01*
X-27576144Y-49038405D01*
X-27406626Y-48925137D01*
X-27362689Y-48881200D01*
X-21905147Y-48881200D01*
X-21887105Y-48924756D01*
X-21773837Y-49094274D01*
X-21629674Y-49238437D01*
X-21460156Y-49351705D01*
X-21271798Y-49429726D01*
X-21071839Y-49469500D01*
X-20867961Y-49469500D01*
X-20668002Y-49429726D01*
X-20479644Y-49351705D01*
X-20310126Y-49238437D01*
X-20165963Y-49094274D01*
X-20052695Y-48924756D01*
X-19974674Y-48736398D01*
X-19934900Y-48536439D01*
X-19934900Y-48332561D01*
X-19974674Y-48132602D01*
X-20052695Y-47944244D01*
X-20165963Y-47774726D01*
X-20310126Y-47630563D01*
X-20479644Y-47517295D01*
X-20668002Y-47439274D01*
X-20867961Y-47399500D01*
X-21044207Y-47399500D01*
X-21134214Y-47372197D01*
X-21245867Y-47361200D01*
X-21245878Y-47361200D01*
X-21283200Y-47357524D01*
X-21320522Y-47361200D01*
X-27362689Y-47361200D01*
X-27406626Y-47317263D01*
X-27576144Y-47203995D01*
X-27764502Y-47125974D01*
X-27964461Y-47086200D01*
X-28168339Y-47086200D01*
X-28368298Y-47125974D01*
X-28556656Y-47203995D01*
X-28726174Y-47317263D01*
X-28870337Y-47461426D01*
X-28983605Y-47630944D01*
X-29061626Y-47819302D01*
X-29101400Y-48019261D01*
X-37403637Y-48019261D01*
X-40076499Y-45346400D01*
X-21801563Y-45346400D01*
X-11464000Y-56358870D01*
X-11464000Y-56452939D01*
X-11424226Y-56652898D01*
X-11346205Y-56841256D01*
X-11232937Y-57010774D01*
X-11088774Y-57154937D01*
X-10919256Y-57268205D01*
X-10730898Y-57346226D01*
X-10530939Y-57386000D01*
X-10327061Y-57386000D01*
X-10127102Y-57346226D01*
X-9938744Y-57268205D01*
X-9769226Y-57154937D01*
X-9625063Y-57010774D01*
X-9511795Y-56841256D01*
X-9433774Y-56652898D01*
X-9394000Y-56452939D01*
X-9394000Y-56249061D01*
X-9433774Y-56049102D01*
X-9511795Y-55860744D01*
X-9625063Y-55691226D01*
X-9769226Y-55547063D01*
X-9938744Y-55433795D01*
X-10127102Y-55355774D01*
X-10327061Y-55316000D01*
X-10358182Y-55316000D01*
X-20901167Y-44084699D01*
X-20932599Y-44046399D01*
X-20981193Y-44006519D01*
X-21028474Y-43965149D01*
X-21038961Y-43959110D01*
X-21048324Y-43951426D01*
X-21103764Y-43921792D01*
X-21158208Y-43890440D01*
X-21169673Y-43886563D01*
X-21180353Y-43880854D01*
X-21240517Y-43862604D01*
X-21300024Y-43842479D01*
X-21312023Y-43840913D01*
X-21323614Y-43837397D01*
X-21386181Y-43831235D01*
X-21448472Y-43823105D01*
X-21497893Y-43826400D01*
X-56928398Y-43826400D01*
X-59769385Y-40985413D01*
X-56995808Y-40985413D01*
X-56900044Y-41249814D01*
X-56610429Y-41390704D01*
X-56298892Y-41472384D01*
X-55977405Y-41491718D01*
X-55658325Y-41447961D01*
X-55353912Y-41342795D01*
X-55179956Y-41249814D01*
X-55084192Y-40985413D01*
X-56040000Y-40029605D01*
X-56995808Y-40985413D01*
X-59769385Y-40985413D01*
X-60842203Y-39912595D01*
X-57681718Y-39912595D01*
X-57637961Y-40231675D01*
X-57532795Y-40536088D01*
X-57439814Y-40710044D01*
X-57175413Y-40805808D01*
X-56219605Y-39850000D01*
X-55860395Y-39850000D01*
X-54904587Y-40805808D01*
X-54874925Y-40795065D01*
X-54809987Y-40892252D01*
X-54582252Y-41119987D01*
X-54314463Y-41298918D01*
X-54016912Y-41422168D01*
X-53701033Y-41485000D01*
X-53378967Y-41485000D01*
X-53063088Y-41422168D01*
X-52765537Y-41298918D01*
X-52497748Y-41119987D01*
X-52290000Y-40912239D01*
X-52082252Y-41119987D01*
X-51814463Y-41298918D01*
X-51516912Y-41422168D01*
X-51201033Y-41485000D01*
X-50878967Y-41485000D01*
X-50563088Y-41422168D01*
X-50265537Y-41298918D01*
X-49997748Y-41119987D01*
X-49790000Y-40912239D01*
X-49582252Y-41119987D01*
X-49314463Y-41298918D01*
X-49016912Y-41422168D01*
X-48701033Y-41485000D01*
X-48378967Y-41485000D01*
X-48063088Y-41422168D01*
X-47765537Y-41298918D01*
X-47497748Y-41119987D01*
X-47290000Y-40912239D01*
X-47082252Y-41119987D01*
X-46814463Y-41298918D01*
X-46516912Y-41422168D01*
X-46201033Y-41485000D01*
X-45878967Y-41485000D01*
X-45563088Y-41422168D01*
X-45265537Y-41298918D01*
X-44997748Y-41119987D01*
X-44790000Y-40912239D01*
X-44582252Y-41119987D01*
X-44314463Y-41298918D01*
X-44016912Y-41422168D01*
X-43701033Y-41485000D01*
X-43378967Y-41485000D01*
X-43063088Y-41422168D01*
X-42765537Y-41298918D01*
X-42497748Y-41119987D01*
X-42290000Y-40912239D01*
X-42082252Y-41119987D01*
X-41814463Y-41298918D01*
X-41516912Y-41422168D01*
X-41201033Y-41485000D01*
X-40878967Y-41485000D01*
X-40563088Y-41422168D01*
X-40265537Y-41298918D01*
X-39997748Y-41119987D01*
X-39790000Y-40912239D01*
X-39582252Y-41119987D01*
X-39314463Y-41298918D01*
X-39016912Y-41422168D01*
X-38701033Y-41485000D01*
X-38378967Y-41485000D01*
X-38063088Y-41422168D01*
X-37765537Y-41298918D01*
X-37497748Y-41119987D01*
X-37290000Y-40912239D01*
X-37082252Y-41119987D01*
X-36814463Y-41298918D01*
X-36516912Y-41422168D01*
X-36201033Y-41485000D01*
X-35878967Y-41485000D01*
X-35563088Y-41422168D01*
X-35265537Y-41298918D01*
X-34997748Y-41119987D01*
X-34790000Y-40912239D01*
X-34582252Y-41119987D01*
X-34314463Y-41298918D01*
X-34016912Y-41422168D01*
X-33701033Y-41485000D01*
X-33378967Y-41485000D01*
X-33063088Y-41422168D01*
X-32765537Y-41298918D01*
X-32497748Y-41119987D01*
X-32290000Y-40912239D01*
X-32082252Y-41119987D01*
X-31814463Y-41298918D01*
X-31516912Y-41422168D01*
X-31201033Y-41485000D01*
X-30878967Y-41485000D01*
X-30563088Y-41422168D01*
X-30265537Y-41298918D01*
X-29997748Y-41119987D01*
X-29790000Y-40912239D01*
X-29582252Y-41119987D01*
X-29314463Y-41298918D01*
X-29016912Y-41422168D01*
X-28701033Y-41485000D01*
X-28378967Y-41485000D01*
X-28063088Y-41422168D01*
X-27765537Y-41298918D01*
X-27497748Y-41119987D01*
X-27270013Y-40892252D01*
X-27091082Y-40624463D01*
X-26967832Y-40326912D01*
X-26905000Y-40011033D01*
X-26905000Y-39688967D01*
X-26967832Y-39373088D01*
X-27091082Y-39075537D01*
X-27270013Y-38807748D01*
X-27497748Y-38580013D01*
X-27765537Y-38401082D01*
X-28063088Y-38277832D01*
X-28378967Y-38215000D01*
X-28701033Y-38215000D01*
X-29016912Y-38277832D01*
X-29314463Y-38401082D01*
X-29582252Y-38580013D01*
X-29790000Y-38787761D01*
X-29997748Y-38580013D01*
X-30265537Y-38401082D01*
X-30563088Y-38277832D01*
X-30878967Y-38215000D01*
X-31201033Y-38215000D01*
X-31516912Y-38277832D01*
X-31814463Y-38401082D01*
X-32082252Y-38580013D01*
X-32290000Y-38787761D01*
X-32497748Y-38580013D01*
X-32765537Y-38401082D01*
X-33063088Y-38277832D01*
X-33378967Y-38215000D01*
X-33701033Y-38215000D01*
X-34016912Y-38277832D01*
X-34314463Y-38401082D01*
X-34582252Y-38580013D01*
X-34790000Y-38787761D01*
X-34997748Y-38580013D01*
X-35265537Y-38401082D01*
X-35563088Y-38277832D01*
X-35878967Y-38215000D01*
X-36201033Y-38215000D01*
X-36516912Y-38277832D01*
X-36814463Y-38401082D01*
X-37082252Y-38580013D01*
X-37290000Y-38787761D01*
X-37497748Y-38580013D01*
X-37765537Y-38401082D01*
X-38063088Y-38277832D01*
X-38378967Y-38215000D01*
X-38701033Y-38215000D01*
X-39016912Y-38277832D01*
X-39314463Y-38401082D01*
X-39582252Y-38580013D01*
X-39790000Y-38787761D01*
X-39997748Y-38580013D01*
X-40265537Y-38401082D01*
X-40563088Y-38277832D01*
X-40878967Y-38215000D01*
X-41201033Y-38215000D01*
X-41516912Y-38277832D01*
X-41814463Y-38401082D01*
X-42082252Y-38580013D01*
X-42290000Y-38787761D01*
X-42497748Y-38580013D01*
X-42765537Y-38401082D01*
X-43063088Y-38277832D01*
X-43378967Y-38215000D01*
X-43701033Y-38215000D01*
X-44016912Y-38277832D01*
X-44314463Y-38401082D01*
X-44582252Y-38580013D01*
X-44790000Y-38787761D01*
X-44997748Y-38580013D01*
X-45265537Y-38401082D01*
X-45563088Y-38277832D01*
X-45878967Y-38215000D01*
X-46201033Y-38215000D01*
X-46516912Y-38277832D01*
X-46814463Y-38401082D01*
X-47082252Y-38580013D01*
X-47290000Y-38787761D01*
X-47497748Y-38580013D01*
X-47765537Y-38401082D01*
X-48063088Y-38277832D01*
X-48378967Y-38215000D01*
X-48701033Y-38215000D01*
X-49016912Y-38277832D01*
X-49314463Y-38401082D01*
X-49582252Y-38580013D01*
X-49790000Y-38787761D01*
X-49997748Y-38580013D01*
X-50265537Y-38401082D01*
X-50563088Y-38277832D01*
X-50878967Y-38215000D01*
X-51201033Y-38215000D01*
X-51516912Y-38277832D01*
X-51814463Y-38401082D01*
X-52082252Y-38580013D01*
X-52290000Y-38787761D01*
X-52497748Y-38580013D01*
X-52765537Y-38401082D01*
X-53063088Y-38277832D01*
X-53378967Y-38215000D01*
X-53701033Y-38215000D01*
X-54016912Y-38277832D01*
X-54314463Y-38401082D01*
X-54582252Y-38580013D01*
X-54809987Y-38807748D01*
X-54874925Y-38904935D01*
X-54904587Y-38894192D01*
X-55860395Y-39850000D01*
X-56219605Y-39850000D01*
X-57175413Y-38894192D01*
X-57439814Y-38989956D01*
X-57580704Y-39279571D01*
X-57662384Y-39591108D01*
X-57681718Y-39912595D01*
X-60842203Y-39912595D01*
X-62040211Y-38714587D01*
X-56995808Y-38714587D01*
X-56040000Y-39670395D01*
X-55084192Y-38714587D01*
X-55179956Y-38450186D01*
X-55469571Y-38309296D01*
X-55781108Y-38227616D01*
X-56102595Y-38208282D01*
X-56421675Y-38252039D01*
X-56726088Y-38357205D01*
X-56900044Y-38450186D01*
X-56995808Y-38714587D01*
X-62040211Y-38714587D01*
X-62094600Y-38660199D01*
X-62094600Y-38598061D01*
X-62134374Y-38398102D01*
X-62212395Y-38209744D01*
X-62325663Y-38040226D01*
X-62469826Y-37896063D01*
X-62639344Y-37782795D01*
X-62827702Y-37704774D01*
X-63027661Y-37665000D01*
X-63231539Y-37665000D01*
X-63431498Y-37704774D01*
X-63619856Y-37782795D01*
X-63789374Y-37896063D01*
X-63836905Y-37943594D01*
X-64387835Y-37392664D01*
X-64239944Y-37331405D01*
X-64070426Y-37218137D01*
X-64026489Y-37174200D01*
X-19116822Y-37174200D01*
X-19079500Y-37177876D01*
X-19042178Y-37174200D01*
X-19042167Y-37174200D01*
X-18930514Y-37163203D01*
X-18787253Y-37119746D01*
X-18655224Y-37049174D01*
X-18539499Y-36954201D01*
X-18515696Y-36925197D01*
X-12058559Y-30468061D01*
X-9615000Y-30468061D01*
X-9615000Y-30671939D01*
X-9575226Y-30871898D01*
X-9497205Y-31060256D01*
X-9383937Y-31229774D01*
X-9239774Y-31373937D01*
X-9070256Y-31487205D01*
X-8881898Y-31565226D01*
X-8681939Y-31605000D01*
X-8619802Y-31605000D01*
X-8343799Y-31881002D01*
X-8320001Y-31910001D01*
X-8204276Y-32004974D01*
X-8072247Y-32075546D01*
X-7928986Y-32119003D01*
X-7879870Y-32123841D01*
X-7829774Y-32173937D01*
X-7660256Y-32287205D01*
X-7471898Y-32365226D01*
X-7271939Y-32405000D01*
X-7068061Y-32405000D01*
X-6868102Y-32365226D01*
X-6679744Y-32287205D01*
X-6510226Y-32173937D01*
X-6366063Y-32029774D01*
X-6252795Y-31860256D01*
X-6174774Y-31671898D01*
X-6135000Y-31471939D01*
X-6135000Y-31268061D01*
X-6174774Y-31068102D01*
X-6252795Y-30879744D01*
X-6366063Y-30710226D01*
X-6510226Y-30566063D01*
X-6679744Y-30452795D01*
X-6868102Y-30374774D01*
X-7068061Y-30335000D01*
X-7271939Y-30335000D01*
X-7471898Y-30374774D01*
X-7556579Y-30409850D01*
X-7584774Y-30268102D01*
X-7662795Y-30079744D01*
X-7776063Y-29910226D01*
X-7920226Y-29766063D01*
X-8089744Y-29652795D01*
X-8278102Y-29574774D01*
X-8478061Y-29535000D01*
X-8681939Y-29535000D01*
X-8881898Y-29574774D01*
X-9070256Y-29652795D01*
X-9239774Y-29766063D01*
X-9383937Y-29910226D01*
X-9497205Y-30079744D01*
X-9575226Y-30268102D01*
X-9615000Y-30468061D01*
X-12058559Y-30468061D01*
X-6637719Y-25047222D01*
X-6629300Y-25132697D01*
X-6567259Y-25337220D01*
X-6466509Y-25525710D01*
X-6330922Y-25690922D01*
X-6165710Y-25826509D01*
X-5977220Y-25927259D01*
X-5772697Y-25989300D01*
X-5613294Y-26005000D01*
X-5044599Y-26005000D01*
X-5044600Y-71546398D01*
X-6721928Y-73223727D01*
X-6721928Y-72590000D01*
X-6734188Y-72465518D01*
X-6770498Y-72345820D01*
X-6829463Y-72235506D01*
X-6908815Y-72138815D01*
X-7005506Y-72059463D01*
X-7115820Y-72000498D01*
X-7235518Y-71964188D01*
X-7360000Y-71951928D01*
X-8760000Y-71951928D01*
X-8884482Y-71964188D01*
X-9004180Y-72000498D01*
X-9114494Y-72059463D01*
X-9211185Y-72138815D01*
X-9290537Y-72235506D01*
X-9349502Y-72345820D01*
X-9385812Y-72465518D01*
X-9398072Y-72590000D01*
X-9398072Y-73490000D01*
X-9385812Y-73614482D01*
X-9349502Y-73734180D01*
X-9296338Y-73833640D01*
X-9317259Y-73872780D01*
X-9379300Y-74077303D01*
X-9400249Y-74290000D01*
X-9379300Y-74502697D01*
X-9317259Y-74707220D01*
X-9216509Y-74895710D01*
X-9080922Y-75060922D01*
X-8915710Y-75196509D01*
X-8727220Y-75297259D01*
X-8522697Y-75359300D01*
X-8363294Y-75375000D01*
X-7969099Y-75375000D01*
X-7969100Y-77450000D01*
X-83532932Y-77450000D01*
X-83594716Y-77374716D01*
X-83725503Y-77267382D01*
X-83874717Y-77187625D01*
X-84036623Y-77138512D01*
X-84205000Y-77121928D01*
X-85155000Y-77121928D01*
X-85323377Y-77138512D01*
X-85485283Y-77187625D01*
X-85634497Y-77267382D01*
X-85765284Y-77374716D01*
X-85872618Y-77505503D01*
X-85952375Y-77654717D01*
X-86001488Y-77816623D01*
X-86018072Y-77985000D01*
X-87760000Y-77985000D01*
X-87760000Y-66607581D01*
X-87762766Y-66579499D01*
X-87762734Y-66574943D01*
X-87763634Y-66565772D01*
X-87778935Y-66420200D01*
X-87790961Y-66361617D01*
X-87802171Y-66302848D01*
X-87804835Y-66294026D01*
X-87848119Y-66154197D01*
X-87871294Y-66099067D01*
X-87893708Y-66043588D01*
X-87898035Y-66035451D01*
X-87967654Y-65906694D01*
X-88001081Y-65857137D01*
X-88033858Y-65807047D01*
X-88039683Y-65799906D01*
X-88132985Y-65687123D01*
X-88175402Y-65645001D01*
X-88217284Y-65602232D01*
X-88224385Y-65596359D01*
X-88337816Y-65503846D01*
X-88387625Y-65470754D01*
X-88436997Y-65436947D01*
X-88445103Y-65432564D01*
X-88574345Y-65363845D01*
X-88629638Y-65341055D01*
X-88684636Y-65317483D01*
X-88693440Y-65314758D01*
X-88833566Y-65272452D01*
X-88892232Y-65260836D01*
X-88950753Y-65248397D01*
X-88959917Y-65247434D01*
X-89105594Y-65233150D01*
X-89105598Y-65233150D01*
X-89137581Y-65230000D01*
X-89387719Y-65230000D01*
X-89436868Y-65225181D01*
X-89453091Y-65220283D01*
X-89468055Y-65212326D01*
X-89481188Y-65201615D01*
X-89491989Y-65188559D01*
X-89500049Y-65173652D01*
X-89505062Y-65157459D01*
X-89510000Y-65110475D01*
X-89510000Y-56348665D01*
X-58115000Y-56348665D01*
X-58115000Y-56631335D01*
X-58059853Y-56908574D01*
X-57951680Y-57169727D01*
X-57794637Y-57404759D01*
X-57594759Y-57604637D01*
X-57359727Y-57761680D01*
X-57098574Y-57869853D01*
X-56821335Y-57925000D01*
X-56538665Y-57925000D01*
X-56261426Y-57869853D01*
X-56000273Y-57761680D01*
X-55765241Y-57604637D01*
X-55565363Y-57404759D01*
X-55408320Y-57169727D01*
X-55300147Y-56908574D01*
X-55245000Y-56631335D01*
X-55245000Y-56348665D01*
X-55300147Y-56071426D01*
X-55408320Y-55810273D01*
X-55565363Y-55575241D01*
X-55765241Y-55375363D01*
X-56000273Y-55218320D01*
X-56261426Y-55110147D01*
X-56538665Y-55055000D01*
X-56821335Y-55055000D01*
X-57098574Y-55110147D01*
X-57359727Y-55218320D01*
X-57594759Y-55375363D01*
X-57794637Y-55575241D01*
X-57951680Y-55810273D01*
X-58059853Y-56071426D01*
X-58115000Y-56348665D01*
X-89510000Y-56348665D01*
X-89510000Y-34784900D01*
X-88379949Y-34784900D01*
X-88359000Y-34997597D01*
X-88296959Y-35202120D01*
X-88229939Y-35327505D01*
X-88232318Y-35330403D01*
X-88312075Y-35479617D01*
X-88361188Y-35641523D01*
X-88377772Y-35809900D01*
X-88377772Y-36259900D01*
X-88361188Y-36428277D01*
X-88312075Y-36590183D01*
X-88232318Y-36739397D01*
X-88124984Y-36870184D01*
X-87994197Y-36977518D01*
X-87844983Y-37057275D01*
X-87683077Y-37106388D01*
X-87514700Y-37122972D01*
X-86564700Y-37122972D01*
X-86396323Y-37106388D01*
X-86234417Y-37057275D01*
X-86085203Y-36977518D01*
X-85954416Y-36870184D01*
X-85847082Y-36739397D01*
X-85767325Y-36590183D01*
X-85718212Y-36428277D01*
X-85701628Y-36259900D01*
X-85701628Y-35809900D01*
X-85718212Y-35641523D01*
X-85767325Y-35479617D01*
X-85847082Y-35330403D01*
X-85849461Y-35327505D01*
X-85782441Y-35202120D01*
X-85720400Y-34997597D01*
X-85699451Y-34784900D01*
X-85720400Y-34572203D01*
X-85782441Y-34367680D01*
X-85883191Y-34179190D01*
X-86018778Y-34013978D01*
X-86183990Y-33878391D01*
X-86372480Y-33777641D01*
X-86577003Y-33715600D01*
X-86736406Y-33699900D01*
X-87342994Y-33699900D01*
X-87502397Y-33715600D01*
X-87706920Y-33777641D01*
X-87895410Y-33878391D01*
X-88060622Y-34013978D01*
X-88196209Y-34179190D01*
X-88296959Y-34367680D01*
X-88359000Y-34572203D01*
X-88379949Y-34784900D01*
X-89510000Y-34784900D01*
X-89510000Y-30782281D01*
X-89505181Y-30733133D01*
X-89500282Y-30716908D01*
X-89492328Y-30701947D01*
X-89481614Y-30688811D01*
X-89468559Y-30678012D01*
X-89453651Y-30669951D01*
X-89437459Y-30664938D01*
X-89390475Y-30660000D01*
X-88687581Y-30660000D01*
X-88659499Y-30657234D01*
X-88654943Y-30657266D01*
X-88645772Y-30656366D01*
X-88500200Y-30641065D01*
X-88441648Y-30629046D01*
X-88382848Y-30617829D01*
X-88374026Y-30615165D01*
X-88234197Y-30571881D01*
X-88179067Y-30548706D01*
X-88123588Y-30526292D01*
X-88115452Y-30521965D01*
X-87986694Y-30452347D01*
X-87937110Y-30418902D01*
X-87887047Y-30386142D01*
X-87879906Y-30380317D01*
X-87767123Y-30287015D01*
X-87724982Y-30244579D01*
X-87682233Y-30202716D01*
X-87676359Y-30195616D01*
X-87583846Y-30082184D01*
X-87550754Y-30032375D01*
X-87516947Y-29983003D01*
X-87512564Y-29974896D01*
X-87443845Y-29845655D01*
X-87421060Y-29790374D01*
X-87397483Y-29735364D01*
X-87394758Y-29726561D01*
X-87352452Y-29586434D01*
X-87340836Y-29527768D01*
X-87328397Y-29469247D01*
X-87327434Y-29460082D01*
X-87313150Y-29314406D01*
X-87313150Y-29314402D01*
X-87310000Y-29282419D01*
X-87310000Y-25356123D01*
X-86834666Y-25356123D01*
X-86824994Y-25432972D01*
X-86735255Y-25618160D01*
X-86611112Y-25782283D01*
X-86457336Y-25919033D01*
X-86279836Y-26023155D01*
X-86085433Y-26090648D01*
X-85881599Y-26118918D01*
X-85717000Y-25953762D01*
X-85717000Y-25197000D01*
X-85463000Y-25197000D01*
X-85463000Y-25953762D01*
X-85298401Y-26118918D01*
X-85094567Y-26090648D01*
X-84900164Y-26023155D01*
X-84722664Y-25919033D01*
X-84568888Y-25782283D01*
X-84444745Y-25618160D01*
X-84355006Y-25432972D01*
X-84345334Y-25356123D01*
X-84473002Y-25197000D01*
X-85463000Y-25197000D01*
X-85717000Y-25197000D01*
X-86706998Y-25197000D01*
X-86834666Y-25356123D01*
X-87310000Y-25356123D01*
X-87310000Y-24106123D01*
X-86834666Y-24106123D01*
X-86824994Y-24182972D01*
X-86735255Y-24368160D01*
X-86677133Y-24445000D01*
X-86735255Y-24521840D01*
X-86824994Y-24707028D01*
X-86834666Y-24783877D01*
X-86706998Y-24943000D01*
X-85717000Y-24943000D01*
X-85717000Y-23947000D01*
X-85463000Y-23947000D01*
X-85463000Y-24943000D01*
X-84473002Y-24943000D01*
X-84345334Y-24783877D01*
X-84355006Y-24707028D01*
X-84444745Y-24521840D01*
X-84502867Y-24445000D01*
X-84444745Y-24368160D01*
X-84355006Y-24182972D01*
X-84345334Y-24106123D01*
X-84473002Y-23947000D01*
X-85463000Y-23947000D01*
X-85717000Y-23947000D01*
X-86706998Y-23947000D01*
X-86834666Y-24106123D01*
X-87310000Y-24106123D01*
X-87310000Y-22856123D01*
X-86834666Y-22856123D01*
X-86824994Y-22932972D01*
X-86735255Y-23118160D01*
X-86677133Y-23195000D01*
X-86735255Y-23271840D01*
X-86824994Y-23457028D01*
X-86834666Y-23533877D01*
X-86706998Y-23693000D01*
X-85717000Y-23693000D01*
X-85717000Y-22697000D01*
X-85463000Y-22697000D01*
X-85463000Y-23693000D01*
X-84473002Y-23693000D01*
X-84345334Y-23533877D01*
X-84355006Y-23457028D01*
X-84444745Y-23271840D01*
X-84502867Y-23195000D01*
X-84444745Y-23118160D01*
X-84355006Y-22932972D01*
X-84345334Y-22856123D01*
X-84473002Y-22697000D01*
X-85463000Y-22697000D01*
X-85717000Y-22697000D01*
X-86706998Y-22697000D01*
X-86834666Y-22856123D01*
X-87310000Y-22856123D01*
X-87310000Y-18820000D01*
X-86880007Y-18820000D01*
X-86860024Y-19022895D01*
X-86800841Y-19217993D01*
X-86704734Y-19397797D01*
X-86665996Y-19445000D01*
X-86704734Y-19492203D01*
X-86800841Y-19672007D01*
X-86860024Y-19867105D01*
X-86880007Y-20070000D01*
X-86860024Y-20272895D01*
X-86800841Y-20467993D01*
X-86704734Y-20647797D01*
X-86665996Y-20695000D01*
X-86704734Y-20742203D01*
X-86800841Y-20922007D01*
X-86860024Y-21117105D01*
X-86880007Y-21320000D01*
X-86860024Y-21522895D01*
X-86800841Y-21717993D01*
X-86704734Y-21897797D01*
X-86671791Y-21937938D01*
X-86735255Y-22021840D01*
X-86824994Y-22207028D01*
X-86834666Y-22283877D01*
X-86706998Y-22443000D01*
X-85717000Y-22443000D01*
X-85717000Y-22423000D01*
X-85463000Y-22423000D01*
X-85463000Y-22443000D01*
X-84473002Y-22443000D01*
X-84345334Y-22283877D01*
X-84355006Y-22207028D01*
X-84416562Y-22080000D01*
X-70494922Y-22080000D01*
X-70457600Y-22083676D01*
X-70420278Y-22080000D01*
X-70420267Y-22080000D01*
X-70308614Y-22069003D01*
X-70165353Y-22025546D01*
X-70033324Y-21954974D01*
X-69917599Y-21860001D01*
X-69893796Y-21830997D01*
X-61831453Y-13768654D01*
X-61826632Y-13773475D01*
X-61583411Y-13935990D01*
X-61313158Y-14047932D01*
X-61026260Y-14105000D01*
X-60733740Y-14105000D01*
X-60446842Y-14047932D01*
X-60176589Y-13935990D01*
X-59933368Y-13773475D01*
X-59726525Y-13566632D01*
X-59610000Y-13392240D01*
X-59493475Y-13566632D01*
X-59286632Y-13773475D01*
X-59043411Y-13935990D01*
X-58773158Y-14047932D01*
X-58486260Y-14105000D01*
X-58193740Y-14105000D01*
X-57906842Y-14047932D01*
X-57636589Y-13935990D01*
X-57393368Y-13773475D01*
X-57186525Y-13566632D01*
X-57070000Y-13392240D01*
X-56953475Y-13566632D01*
X-56746632Y-13773475D01*
X-56503411Y-13935990D01*
X-56233158Y-14047932D01*
X-55946260Y-14105000D01*
X-55653740Y-14105000D01*
X-55366842Y-14047932D01*
X-55096589Y-13935990D01*
X-54853368Y-13773475D01*
X-54646525Y-13566632D01*
X-54530000Y-13392240D01*
X-54413475Y-13566632D01*
X-54206632Y-13773475D01*
X-53963411Y-13935990D01*
X-53693158Y-14047932D01*
X-53406260Y-14105000D01*
X-53113740Y-14105000D01*
X-52826842Y-14047932D01*
X-52556589Y-13935990D01*
X-52313368Y-13773475D01*
X-52106525Y-13566632D01*
X-51990000Y-13392240D01*
X-51873475Y-13566632D01*
X-51666632Y-13773475D01*
X-51423411Y-13935990D01*
X-51153158Y-14047932D01*
X-50866260Y-14105000D01*
X-50573740Y-14105000D01*
X-50286842Y-14047932D01*
X-50016589Y-13935990D01*
X-49773368Y-13773475D01*
X-49566525Y-13566632D01*
X-49450000Y-13392240D01*
X-49333475Y-13566632D01*
X-49126632Y-13773475D01*
X-48883411Y-13935990D01*
X-48613158Y-14047932D01*
X-48326260Y-14105000D01*
X-48033740Y-14105000D01*
X-47746842Y-14047932D01*
X-47476589Y-13935990D01*
X-47233368Y-13773475D01*
X-47026525Y-13566632D01*
X-46910000Y-13392240D01*
X-46793475Y-13566632D01*
X-46586632Y-13773475D01*
X-46343411Y-13935990D01*
X-46073158Y-14047932D01*
X-45786260Y-14105000D01*
X-45493740Y-14105000D01*
X-45206842Y-14047932D01*
X-44936589Y-13935990D01*
X-44693368Y-13773475D01*
X-44486525Y-13566632D01*
X-44370000Y-13392240D01*
X-44253475Y-13566632D01*
X-44046632Y-13773475D01*
X-43803411Y-13935990D01*
X-43533158Y-14047932D01*
X-43246260Y-14105000D01*
X-42953740Y-14105000D01*
X-42666842Y-14047932D01*
X-42396589Y-13935990D01*
X-42153368Y-13773475D01*
X-41946525Y-13566632D01*
X-41830000Y-13392240D01*
X-41713475Y-13566632D01*
X-41506632Y-13773475D01*
X-41263411Y-13935990D01*
X-40993158Y-14047932D01*
X-40706260Y-14105000D01*
X-40413740Y-14105000D01*
X-40126842Y-14047932D01*
X-39856589Y-13935990D01*
X-39613368Y-13773475D01*
X-39406525Y-13566632D01*
X-39290000Y-13392240D01*
X-39173475Y-13566632D01*
X-38966632Y-13773475D01*
X-38723411Y-13935990D01*
X-38453158Y-14047932D01*
X-38166260Y-14105000D01*
X-37873740Y-14105000D01*
X-37586842Y-14047932D01*
X-37316589Y-13935990D01*
X-37073368Y-13773475D01*
X-36866525Y-13566632D01*
X-36750000Y-13392240D01*
X-36633475Y-13566632D01*
X-36426632Y-13773475D01*
X-36183411Y-13935990D01*
X-35913158Y-14047932D01*
X-35626260Y-14105000D01*
X-35333740Y-14105000D01*
X-35046842Y-14047932D01*
X-34776589Y-13935990D01*
X-34533368Y-13773475D01*
X-34326525Y-13566632D01*
X-34210000Y-13392240D01*
X-34093475Y-13566632D01*
X-33886632Y-13773475D01*
X-33643411Y-13935990D01*
X-33373158Y-14047932D01*
X-33086260Y-14105000D01*
X-32793740Y-14105000D01*
X-32506842Y-14047932D01*
X-32236589Y-13935990D01*
X-31993368Y-13773475D01*
X-31786525Y-13566632D01*
X-31670000Y-13392240D01*
X-31553475Y-13566632D01*
X-31346632Y-13773475D01*
X-31103411Y-13935990D01*
X-30833158Y-14047932D01*
X-30546260Y-14105000D01*
X-30253740Y-14105000D01*
X-29966842Y-14047932D01*
X-29696589Y-13935990D01*
X-29453368Y-13773475D01*
X-29246525Y-13566632D01*
X-29130000Y-13392240D01*
X-29013475Y-13566632D01*
X-28806632Y-13773475D01*
X-28563411Y-13935990D01*
X-28293158Y-14047932D01*
X-28006260Y-14105000D01*
X-27713740Y-14105000D01*
X-27426842Y-14047932D01*
X-27156589Y-13935990D01*
X-26913368Y-13773475D01*
X-26706525Y-13566632D01*
X-26590000Y-13392240D01*
X-26473475Y-13566632D01*
X-26266632Y-13773475D01*
X-26023411Y-13935990D01*
X-25753158Y-14047932D01*
X-25466260Y-14105000D01*
X-25173740Y-14105000D01*
X-24886842Y-14047932D01*
X-24616589Y-13935990D01*
X-24373368Y-13773475D01*
X-24166525Y-13566632D01*
X-24050000Y-13392240D01*
X-23933475Y-13566632D01*
X-23726632Y-13773475D01*
X-23483411Y-13935990D01*
X-23213158Y-14047932D01*
X-22926260Y-14105000D01*
X-22633740Y-14105000D01*
X-22346842Y-14047932D01*
X-22076589Y-13935990D01*
X-21833368Y-13773475D01*
X-21626525Y-13566632D01*
X-21510000Y-13392240D01*
X-21393475Y-13566632D01*
X-21186632Y-13773475D01*
X-20943411Y-13935990D01*
X-20673158Y-14047932D01*
X-20386260Y-14105000D01*
X-20093740Y-14105000D01*
X-19806842Y-14047932D01*
X-19536589Y-13935990D01*
X-19293368Y-13773475D01*
X-19086525Y-13566632D01*
X-18970000Y-13392240D01*
X-18853475Y-13566632D01*
X-18646632Y-13773475D01*
X-18403411Y-13935990D01*
X-18133158Y-14047932D01*
X-17846260Y-14105000D01*
X-17553740Y-14105000D01*
X-17266842Y-14047932D01*
X-16996589Y-13935990D01*
X-16753368Y-13773475D01*
X-16546525Y-13566632D01*
X-16430000Y-13392240D01*
X-16313475Y-13566632D01*
X-16106632Y-13773475D01*
X-15863411Y-13935990D01*
X-15593158Y-14047932D01*
X-15306260Y-14105000D01*
X-15013740Y-14105000D01*
X-14726842Y-14047932D01*
X-14456589Y-13935990D01*
X-14213368Y-13773475D01*
X-14006525Y-13566632D01*
X-13890000Y-13392240D01*
X-13773475Y-13566632D01*
X-13566632Y-13773475D01*
X-13323411Y-13935990D01*
X-13053158Y-14047932D01*
X-12766260Y-14105000D01*
X-12473740Y-14105000D01*
X-12186842Y-14047932D01*
X-11916589Y-13935990D01*
X-11673368Y-13773475D01*
X-11466525Y-13566632D01*
X-11304010Y-13323411D01*
X-11192068Y-13053158D01*
X-11135000Y-12766260D01*
X-11135000Y-12473740D01*
X-11192068Y-12186842D01*
X-11304010Y-11916589D01*
X-11466525Y-11673368D01*
X-11673368Y-11466525D01*
X-11847760Y-11350000D01*
X-11673368Y-11233475D01*
X-11466525Y-11026632D01*
X-11304010Y-10783411D01*
X-11192068Y-10513158D01*
X-11135000Y-10226260D01*
X-11135000Y-9933740D01*
X-11192068Y-9646842D01*
X-11304010Y-9376589D01*
X-11466525Y-9133368D01*
X-11673368Y-8926525D01*
X-11916589Y-8764010D01*
X-12034910Y-8715000D01*
X-11916589Y-8665990D01*
X-11673368Y-8503475D01*
X-11466525Y-8296632D01*
X-11304010Y-8053411D01*
X-11192068Y-7783158D01*
X-11135000Y-7496260D01*
X-11135000Y-7203740D01*
X-11192068Y-6916842D01*
X-11304010Y-6646589D01*
X-11466525Y-6403368D01*
X-11673368Y-6196525D01*
X-11847760Y-6080000D01*
X-11673368Y-5963475D01*
X-11466525Y-5756632D01*
X-11304010Y-5513411D01*
X-11192068Y-5243158D01*
X-11135000Y-4956260D01*
X-11135000Y-5413242D01*
X-11001073Y-6086537D01*
X-10738367Y-6720766D01*
X-10356976Y-7291558D01*
X-9871558Y-7776976D01*
X-9300766Y-8158367D01*
X-8666537Y-8421073D01*
X-7993242Y-8555000D01*
X-7306758Y-8555000D01*
X-6633463Y-8421073D01*
X-5999234Y-8158367D01*
X-5428442Y-7776976D01*
X-4943024Y-7291558D01*
X-4561633Y-6720766D01*
X-4298927Y-6086537D01*
X-4165000Y-5413242D01*
X-4165000Y-4726758D01*
X-4298927Y-4053463D01*
X-4561633Y-3419234D01*
X-4943024Y-2848442D01*
X-5428442Y-2363024D01*
X-5999234Y-1981633D01*
X-6633463Y-1718927D01*
X-7306758Y-1585000D01*
X-7993242Y-1585000D01*
X-8666537Y-1718927D01*
X-9300766Y-1981633D01*
X-9871558Y-2363024D01*
X-10356976Y-2848442D01*
X-10738367Y-3419234D01*
X-11001073Y-4053463D01*
X-11135000Y-4726758D01*
X-11135000Y-4663740D01*
X-11192068Y-4376842D01*
X-11304010Y-4106589D01*
X-11466525Y-3863368D01*
X-11673368Y-3656525D01*
X-11916589Y-3494010D01*
X-12186842Y-3382068D01*
X-12473740Y-3325000D01*
X-12766260Y-3325000D01*
X-13053158Y-3382068D01*
X-13323411Y-3494010D01*
X-13566632Y-3656525D01*
X-13773475Y-3863368D01*
X-13890000Y-4037760D01*
X-14006525Y-3863368D01*
X-14213368Y-3656525D01*
X-14456589Y-3494010D01*
X-14726842Y-3382068D01*
X-15013740Y-3325000D01*
X-15306260Y-3325000D01*
X-15593158Y-3382068D01*
X-15863411Y-3494010D01*
X-16106632Y-3656525D01*
X-16313475Y-3863368D01*
X-16430000Y-4037760D01*
X-16546525Y-3863368D01*
X-16753368Y-3656525D01*
X-16996589Y-3494010D01*
X-17266842Y-3382068D01*
X-17553740Y-3325000D01*
X-17846260Y-3325000D01*
X-18133158Y-3382068D01*
X-18403411Y-3494010D01*
X-18646632Y-3656525D01*
X-18853475Y-3863368D01*
X-18970000Y-4037760D01*
X-19086525Y-3863368D01*
X-19293368Y-3656525D01*
X-19536589Y-3494010D01*
X-19806842Y-3382068D01*
X-20093740Y-3325000D01*
X-20386260Y-3325000D01*
X-20673158Y-3382068D01*
X-20943411Y-3494010D01*
X-21186632Y-3656525D01*
X-21393475Y-3863368D01*
X-21510000Y-4037760D01*
X-21626525Y-3863368D01*
X-21833368Y-3656525D01*
X-22076589Y-3494010D01*
X-22346842Y-3382068D01*
X-22633740Y-3325000D01*
X-22926260Y-3325000D01*
X-23213158Y-3382068D01*
X-23483411Y-3494010D01*
X-23726632Y-3656525D01*
X-23933475Y-3863368D01*
X-24050000Y-4037760D01*
X-24166525Y-3863368D01*
X-24373368Y-3656525D01*
X-24616589Y-3494010D01*
X-24886842Y-3382068D01*
X-25173740Y-3325000D01*
X-25466260Y-3325000D01*
X-25753158Y-3382068D01*
X-26023411Y-3494010D01*
X-26266632Y-3656525D01*
X-26473475Y-3863368D01*
X-26590000Y-4037760D01*
X-26706525Y-3863368D01*
X-26913368Y-3656525D01*
X-27156589Y-3494010D01*
X-27426842Y-3382068D01*
X-27713740Y-3325000D01*
X-28006260Y-3325000D01*
X-28293158Y-3382068D01*
X-28563411Y-3494010D01*
X-28806632Y-3656525D01*
X-29013475Y-3863368D01*
X-29130000Y-4037760D01*
X-29246525Y-3863368D01*
X-29453368Y-3656525D01*
X-29696589Y-3494010D01*
X-29966842Y-3382068D01*
X-30253740Y-3325000D01*
X-30546260Y-3325000D01*
X-30833158Y-3382068D01*
X-31103411Y-3494010D01*
X-31346632Y-3656525D01*
X-31553475Y-3863368D01*
X-31670000Y-4037760D01*
X-31786525Y-3863368D01*
X-31993368Y-3656525D01*
X-32236589Y-3494010D01*
X-32506842Y-3382068D01*
X-32793740Y-3325000D01*
X-33086260Y-3325000D01*
X-33373158Y-3382068D01*
X-33643411Y-3494010D01*
X-33886632Y-3656525D01*
X-34093475Y-3863368D01*
X-34210000Y-4037760D01*
X-34326525Y-3863368D01*
X-34533368Y-3656525D01*
X-34776589Y-3494010D01*
X-35046842Y-3382068D01*
X-35333740Y-3325000D01*
X-35626260Y-3325000D01*
X-35913158Y-3382068D01*
X-36183411Y-3494010D01*
X-36426632Y-3656525D01*
X-36633475Y-3863368D01*
X-36750000Y-4037760D01*
X-36866525Y-3863368D01*
X-37073368Y-3656525D01*
X-37316589Y-3494010D01*
X-37586842Y-3382068D01*
X-37873740Y-3325000D01*
X-38166260Y-3325000D01*
X-38453158Y-3382068D01*
X-38723411Y-3494010D01*
X-38966632Y-3656525D01*
X-39173475Y-3863368D01*
X-39295195Y-4045534D01*
X-39364822Y-3928645D01*
X-39559731Y-3712412D01*
X-39793080Y-3538359D01*
X-40055901Y-3413175D01*
X-40203110Y-3368524D01*
X-40433000Y-3489845D01*
X-40433000Y-4683000D01*
X-40413000Y-4683000D01*
X-40413000Y-4937000D01*
X-40433000Y-4937000D01*
X-40433000Y-7223000D01*
X-38147000Y-7223000D01*
X-38147000Y-7203000D01*
X-37893000Y-7203000D01*
X-37893000Y-7223000D01*
X-37873000Y-7223000D01*
X-37873000Y-7477000D01*
X-37893000Y-7477000D01*
X-37893000Y-7497000D01*
X-38147000Y-7497000D01*
X-38147000Y-7477000D01*
X-40433000Y-7477000D01*
X-40433000Y-7497000D01*
X-40687000Y-7497000D01*
X-40687000Y-7477000D01*
X-40707000Y-7477000D01*
X-40707000Y-7223000D01*
X-40687000Y-7223000D01*
X-40687000Y-4937000D01*
X-40707000Y-4937000D01*
X-40707000Y-4683000D01*
X-40687000Y-4683000D01*
X-40687000Y-3489845D01*
X-40916890Y-3368524D01*
X-41064099Y-3413175D01*
X-41326920Y-3538359D01*
X-41560269Y-3712412D01*
X-41755178Y-3928645D01*
X-41824805Y-4045534D01*
X-41946525Y-3863368D01*
X-42153368Y-3656525D01*
X-42396589Y-3494010D01*
X-42666842Y-3382068D01*
X-42953740Y-3325000D01*
X-43246260Y-3325000D01*
X-43533158Y-3382068D01*
X-43803411Y-3494010D01*
X-44046632Y-3656525D01*
X-44253475Y-3863368D01*
X-44370000Y-4037760D01*
X-44486525Y-3863368D01*
X-44693368Y-3656525D01*
X-44936589Y-3494010D01*
X-45206842Y-3382068D01*
X-45493740Y-3325000D01*
X-45786260Y-3325000D01*
X-46073158Y-3382068D01*
X-46343411Y-3494010D01*
X-46586632Y-3656525D01*
X-46793475Y-3863368D01*
X-46910000Y-4037760D01*
X-47026525Y-3863368D01*
X-47233368Y-3656525D01*
X-47476589Y-3494010D01*
X-47746842Y-3382068D01*
X-48033740Y-3325000D01*
X-48326260Y-3325000D01*
X-48613158Y-3382068D01*
X-48883411Y-3494010D01*
X-49126632Y-3656525D01*
X-49333475Y-3863368D01*
X-49450000Y-4037760D01*
X-49566525Y-3863368D01*
X-49773368Y-3656525D01*
X-50016589Y-3494010D01*
X-50286842Y-3382068D01*
X-50573740Y-3325000D01*
X-50866260Y-3325000D01*
X-51153158Y-3382068D01*
X-51423411Y-3494010D01*
X-51666632Y-3656525D01*
X-51873475Y-3863368D01*
X-51990000Y-4037760D01*
X-52106525Y-3863368D01*
X-52313368Y-3656525D01*
X-52556589Y-3494010D01*
X-52826842Y-3382068D01*
X-53113740Y-3325000D01*
X-53406260Y-3325000D01*
X-53693158Y-3382068D01*
X-53963411Y-3494010D01*
X-54206632Y-3656525D01*
X-54413475Y-3863368D01*
X-54530000Y-4037760D01*
X-54646525Y-3863368D01*
X-54853368Y-3656525D01*
X-55096589Y-3494010D01*
X-55366842Y-3382068D01*
X-55653740Y-3325000D01*
X-55946260Y-3325000D01*
X-56233158Y-3382068D01*
X-56503411Y-3494010D01*
X-56746632Y-3656525D01*
X-56953475Y-3863368D01*
X-57070000Y-4037760D01*
X-57186525Y-3863368D01*
X-57393368Y-3656525D01*
X-57636589Y-3494010D01*
X-57906842Y-3382068D01*
X-58193740Y-3325000D01*
X-58486260Y-3325000D01*
X-58773158Y-3382068D01*
X-59043411Y-3494010D01*
X-59286632Y-3656525D01*
X-59493475Y-3863368D01*
X-59610000Y-4037760D01*
X-59726525Y-3863368D01*
X-59933368Y-3656525D01*
X-60176589Y-3494010D01*
X-60446842Y-3382068D01*
X-60733740Y-3325000D01*
X-61026260Y-3325000D01*
X-61313158Y-3382068D01*
X-61583411Y-3494010D01*
X-61826632Y-3656525D01*
X-62033475Y-3863368D01*
X-62150000Y-4037760D01*
X-62266525Y-3863368D01*
X-62473368Y-3656525D01*
X-62716589Y-3494010D01*
X-62986842Y-3382068D01*
X-63273740Y-3325000D01*
X-63566260Y-3325000D01*
X-63853158Y-3382068D01*
X-64123411Y-3494010D01*
X-64366632Y-3656525D01*
X-64573475Y-3863368D01*
X-64690000Y-4037760D01*
X-64806525Y-3863368D01*
X-65013368Y-3656525D01*
X-65256589Y-3494010D01*
X-65526842Y-3382068D01*
X-65813740Y-3325000D01*
X-66106260Y-3325000D01*
X-66393158Y-3382068D01*
X-66663411Y-3494010D01*
X-66906632Y-3656525D01*
X-67113475Y-3863368D01*
X-67230000Y-4037760D01*
X-67346525Y-3863368D01*
X-67553368Y-3656525D01*
X-67796589Y-3494010D01*
X-68066842Y-3382068D01*
X-68353740Y-3325000D01*
X-68646260Y-3325000D01*
X-68933158Y-3382068D01*
X-69203411Y-3494010D01*
X-69446632Y-3656525D01*
X-69653475Y-3863368D01*
X-69770000Y-4037760D01*
X-69886525Y-3863368D01*
X-70093368Y-3656525D01*
X-70336589Y-3494010D01*
X-70606842Y-3382068D01*
X-70893740Y-3325000D01*
X-71186260Y-3325000D01*
X-71473158Y-3382068D01*
X-71743411Y-3494010D01*
X-71986632Y-3656525D01*
X-72193475Y-3863368D01*
X-72310000Y-4037760D01*
X-72426525Y-3863368D01*
X-72633368Y-3656525D01*
X-72876589Y-3494010D01*
X-73146842Y-3382068D01*
X-73433740Y-3325000D01*
X-73726260Y-3325000D01*
X-74013158Y-3382068D01*
X-74283411Y-3494010D01*
X-74526632Y-3656525D01*
X-74658487Y-3788380D01*
X-74680498Y-3715820D01*
X-74739463Y-3605506D01*
X-74818815Y-3508815D01*
X-74915506Y-3429463D01*
X-75025820Y-3370498D01*
X-75145518Y-3334188D01*
X-75270000Y-3321928D01*
X-76970000Y-3321928D01*
X-77094482Y-3334188D01*
X-77214180Y-3370498D01*
X-77324494Y-3429463D01*
X-77421185Y-3508815D01*
X-77500537Y-3605506D01*
X-77559502Y-3715820D01*
X-77595812Y-3835518D01*
X-77608072Y-3960000D01*
X-77608072Y-5660000D01*
X-77595812Y-5784482D01*
X-77559502Y-5904180D01*
X-77500537Y-6014494D01*
X-77421185Y-6111185D01*
X-77324494Y-6190537D01*
X-77214180Y-6249502D01*
X-77141620Y-6271513D01*
X-77273475Y-6403368D01*
X-77435990Y-6646589D01*
X-77547932Y-6916842D01*
X-77605000Y-7203740D01*
X-77605000Y-7496260D01*
X-77547932Y-7783158D01*
X-77435990Y-8053411D01*
X-77273475Y-8296632D01*
X-77066632Y-8503475D01*
X-76934253Y-8591928D01*
X-76970000Y-8591928D01*
X-77094482Y-8604188D01*
X-77214180Y-8640498D01*
X-77324494Y-8699463D01*
X-77421185Y-8778815D01*
X-77500537Y-8875506D01*
X-77559502Y-8985820D01*
X-77595812Y-9105518D01*
X-77608072Y-9230000D01*
X-77608072Y-10495400D01*
X-79238077Y-10495400D01*
X-79275400Y-10491724D01*
X-79312723Y-10495400D01*
X-79312733Y-10495400D01*
X-79424386Y-10506397D01*
X-79562633Y-10548333D01*
X-79567647Y-10549854D01*
X-79699677Y-10620426D01*
X-79774629Y-10681938D01*
X-79815401Y-10715399D01*
X-79839199Y-10744397D01*
X-85626729Y-16531928D01*
X-86040000Y-16531928D01*
X-86203500Y-16548031D01*
X-86360716Y-16595722D01*
X-86505608Y-16673169D01*
X-86632606Y-16777394D01*
X-86736831Y-16904392D01*
X-86814278Y-17049284D01*
X-86861969Y-17206500D01*
X-86878072Y-17370000D01*
X-86878072Y-17770000D01*
X-86861969Y-17933500D01*
X-86814278Y-18090716D01*
X-86736831Y-18235608D01*
X-86715259Y-18261894D01*
X-86800841Y-18422007D01*
X-86860024Y-18617105D01*
X-86880007Y-18820000D01*
X-87310000Y-18820000D01*
X-87310000Y-15282281D01*
X-87305181Y-15233133D01*
X-87300282Y-15216908D01*
X-87292328Y-15201947D01*
X-87281614Y-15188811D01*
X-87268559Y-15178012D01*
X-87253651Y-15169951D01*
X-87237459Y-15164938D01*
X-87190475Y-15160000D01*
X-84887581Y-15160000D01*
X-84859499Y-15157234D01*
X-84854943Y-15157266D01*
X-84845772Y-15156366D01*
X-84700200Y-15141065D01*
X-84641648Y-15129046D01*
X-84582848Y-15117829D01*
X-84574026Y-15115165D01*
X-84434197Y-15071881D01*
X-84379067Y-15048706D01*
X-84323588Y-15026292D01*
X-84315452Y-15021965D01*
X-84186694Y-14952347D01*
X-84137110Y-14918902D01*
X-84087047Y-14886142D01*
X-84079906Y-14880317D01*
X-83967123Y-14787015D01*
X-83924982Y-14744579D01*
X-83882233Y-14702716D01*
X-83876359Y-14695616D01*
X-83783846Y-14582184D01*
X-83750754Y-14532375D01*
X-83716947Y-14483003D01*
X-83712564Y-14474896D01*
X-83643845Y-14345655D01*
X-83621060Y-14290374D01*
X-83597483Y-14235364D01*
X-83594758Y-14226561D01*
X-83552452Y-14086434D01*
X-83540836Y-14027768D01*
X-83528397Y-13969247D01*
X-83527434Y-13960082D01*
X-83513150Y-13814406D01*
X-83513150Y-13814402D01*
X-83510000Y-13782419D01*
X-83510000Y-10217581D01*
X-83512766Y-10189499D01*
X-83512734Y-10184943D01*
X-83513634Y-10175772D01*
X-83528935Y-10030200D01*
X-83540961Y-9971617D01*
X-83552171Y-9912848D01*
X-83554835Y-9904026D01*
X-83598119Y-9764197D01*
X-83621294Y-9709067D01*
X-83643708Y-9653588D01*
X-83648035Y-9645451D01*
X-83717654Y-9516694D01*
X-83751081Y-9467137D01*
X-83783858Y-9417047D01*
X-83789683Y-9409906D01*
X-83882985Y-9297123D01*
X-83925402Y-9255001D01*
X-83967284Y-9212232D01*
X-83974385Y-9206359D01*
X-84087816Y-9113846D01*
X-84137625Y-9080754D01*
X-84186997Y-9046947D01*
X-84195103Y-9042564D01*
X-84324345Y-8973845D01*
X-84379638Y-8951055D01*
X-84434636Y-8927483D01*
X-84443440Y-8924758D01*
X-84583566Y-8882452D01*
X-84642232Y-8870836D01*
X-84700753Y-8858397D01*
X-84709917Y-8857434D01*
X-84855594Y-8843150D01*
X-84855598Y-8843150D01*
X-84887581Y-8840000D01*
X-87187719Y-8840000D01*
X-87236868Y-8835181D01*
X-87253091Y-8830283D01*
X-87268055Y-8822326D01*
X-87281188Y-8811615D01*
X-87291989Y-8798559D01*
X-87300049Y-8783652D01*
X-87305062Y-8767459D01*
X-87310000Y-8720475D01*
X-87310000Y-4726758D01*
X-84755000Y-4726758D01*
X-84755000Y-5413242D01*
X-84621073Y-6086537D01*
X-84358367Y-6720766D01*
X-83976976Y-7291558D01*
X-83491558Y-7776976D01*
X-82920766Y-8158367D01*
X-82286537Y-8421073D01*
X-81613242Y-8555000D01*
X-80926758Y-8555000D01*
X-80253463Y-8421073D01*
X-79619234Y-8158367D01*
X-79048442Y-7776976D01*
X-78563024Y-7291558D01*
X-78181633Y-6720766D01*
X-77918927Y-6086537D01*
X-77785000Y-5413242D01*
X-77785000Y-4726758D01*
X-77918927Y-4053463D01*
X-78181633Y-3419234D01*
X-78563024Y-2848442D01*
X-79048442Y-2363024D01*
X-79619234Y-1981633D01*
X-80253463Y-1718927D01*
X-80926758Y-1585000D01*
X-81613242Y-1585000D01*
X-82286537Y-1718927D01*
X-82920766Y-1981633D01*
X-83491558Y-2363024D01*
X-83976976Y-2848442D01*
X-84358367Y-3419234D01*
X-84621073Y-4053463D01*
X-84755000Y-4726758D01*
X-87310000Y-4726758D01*
X-87310000Y-660000D01*
X-2660000Y-660000D01*
X-2659999Y-8717709D01*
G37*
%TD.AperFunction*%
%TD*%
M02*
