%TF.GenerationSoftware,KiCad,Pcbnew,(5.1.12)-1*%
%TF.CreationDate,2022-07-05T07:26:00-06:00*%
%TF.ProjectId,RADSAT-SK Timer 2,52414453-4154-42d5-934b-2054696d6572,rev?*%
%TF.SameCoordinates,PX7735940PY2faf080*%
%TF.FileFunction,Legend,Bot*%
%TF.FilePolarity,Positive*%
%FSLAX46Y46*%
G04 Gerber Fmt 4.6, Leading zero omitted, Abs format (unit mm)*
G04 Created by KiCad (PCBNEW (5.1.12)-1) date 2022-07-05 07:26:00*
%MOMM*%
%LPD*%
G01*
G04 APERTURE LIST*
%ADD10C,0.300000*%
G04 APERTURE END LIST*
D10*
X-32110953Y-84214761D02*
X-31158572Y-84214761D01*
X-31158572Y-82214761D01*
X-33634762Y-82881428D02*
X-33634762Y-84214761D01*
X-32777620Y-82881428D02*
X-32777620Y-83929047D01*
X-32872858Y-84119523D01*
X-33063334Y-84214761D01*
X-33349048Y-84214761D01*
X-33539524Y-84119523D01*
X-33634762Y-84024285D01*
X-35444286Y-84119523D02*
X-35253810Y-84214761D01*
X-34872858Y-84214761D01*
X-34682381Y-84119523D01*
X-34587143Y-84024285D01*
X-34491905Y-83833809D01*
X-34491905Y-83262380D01*
X-34587143Y-83071904D01*
X-34682381Y-82976666D01*
X-34872858Y-82881428D01*
X-35253810Y-82881428D01*
X-35444286Y-82976666D01*
X-38968096Y-84024285D02*
X-38872858Y-84119523D01*
X-38587143Y-84214761D01*
X-38396667Y-84214761D01*
X-38110953Y-84119523D01*
X-37920477Y-83929047D01*
X-37825239Y-83738571D01*
X-37730000Y-83357619D01*
X-37730000Y-83071904D01*
X-37825239Y-82690952D01*
X-37920477Y-82500476D01*
X-38110953Y-82310000D01*
X-38396667Y-82214761D01*
X-38587143Y-82214761D01*
X-38872858Y-82310000D01*
X-38968096Y-82405238D01*
X-39825239Y-84214761D02*
X-39825239Y-82214761D01*
X-40682381Y-84214761D02*
X-40682381Y-83167142D01*
X-40587143Y-82976666D01*
X-40396667Y-82881428D01*
X-40110953Y-82881428D01*
X-39920477Y-82976666D01*
X-39825239Y-83071904D01*
X-42491905Y-84214761D02*
X-42491905Y-83167142D01*
X-42396667Y-82976666D01*
X-42206191Y-82881428D01*
X-41825239Y-82881428D01*
X-41634762Y-82976666D01*
X-42491905Y-84119523D02*
X-42301429Y-84214761D01*
X-41825239Y-84214761D01*
X-41634762Y-84119523D01*
X-41539524Y-83929047D01*
X-41539524Y-83738571D01*
X-41634762Y-83548095D01*
X-41825239Y-83452857D01*
X-42301429Y-83452857D01*
X-42491905Y-83357619D01*
X-43444286Y-84214761D02*
X-43444286Y-82881428D01*
X-43444286Y-83262380D02*
X-43539524Y-83071904D01*
X-43634762Y-82976666D01*
X-43825239Y-82881428D01*
X-44015715Y-82881428D01*
X-44682381Y-84214761D02*
X-44682381Y-82214761D01*
X-44682381Y-82976666D02*
X-44872858Y-82881428D01*
X-45253810Y-82881428D01*
X-45444286Y-82976666D01*
X-45539524Y-83071904D01*
X-45634762Y-83262380D01*
X-45634762Y-83833809D01*
X-45539524Y-84024285D01*
X-45444286Y-84119523D01*
X-45253810Y-84214761D01*
X-44872858Y-84214761D01*
X-44682381Y-84119523D01*
X-46777620Y-84214761D02*
X-46587143Y-84119523D01*
X-46491905Y-84024285D01*
X-46396667Y-83833809D01*
X-46396667Y-83262380D01*
X-46491905Y-83071904D01*
X-46587143Y-82976666D01*
X-46777620Y-82881428D01*
X-47063334Y-82881428D01*
X-47253810Y-82976666D01*
X-47349048Y-83071904D01*
X-47444286Y-83262380D01*
X-47444286Y-83833809D01*
X-47349048Y-84024285D01*
X-47253810Y-84119523D01*
X-47063334Y-84214761D01*
X-46777620Y-84214761D01*
X-48301429Y-82881428D02*
X-48301429Y-84214761D01*
X-48301429Y-83071904D02*
X-48396667Y-82976666D01*
X-48587143Y-82881428D01*
X-48872858Y-82881428D01*
X-49063334Y-82976666D01*
X-49158572Y-83167142D01*
X-49158572Y-84214761D01*
X-50110953Y-82881428D02*
X-50110953Y-84214761D01*
X-50110953Y-83071904D02*
X-50206191Y-82976666D01*
X-50396667Y-82881428D01*
X-50682381Y-82881428D01*
X-50872858Y-82976666D01*
X-50968096Y-83167142D01*
X-50968096Y-84214761D01*
X-52682381Y-84119523D02*
X-52491905Y-84214761D01*
X-52110953Y-84214761D01*
X-51920477Y-84119523D01*
X-51825239Y-83929047D01*
X-51825239Y-83167142D01*
X-51920477Y-82976666D01*
X-52110953Y-82881428D01*
X-52491905Y-82881428D01*
X-52682381Y-82976666D01*
X-52777620Y-83167142D01*
X-52777620Y-83357619D01*
X-51825239Y-83548095D01*
X-54491905Y-84214761D02*
X-54491905Y-83167142D01*
X-54396667Y-82976666D01*
X-54206191Y-82881428D01*
X-53825239Y-82881428D01*
X-53634762Y-82976666D01*
X-54491905Y-84119523D02*
X-54301429Y-84214761D01*
X-53825239Y-84214761D01*
X-53634762Y-84119523D01*
X-53539524Y-83929047D01*
X-53539524Y-83738571D01*
X-53634762Y-83548095D01*
X-53825239Y-83452857D01*
X-54301429Y-83452857D01*
X-54491905Y-83357619D01*
X-56301429Y-82881428D02*
X-56301429Y-84214761D01*
X-55444286Y-82881428D02*
X-55444286Y-83929047D01*
X-55539524Y-84119523D01*
X-55730000Y-84214761D01*
X-56015715Y-84214761D01*
X-56206191Y-84119523D01*
X-56301429Y-84024285D01*
X-33110953Y-87514761D02*
X-32158572Y-87514761D01*
X-32158572Y-85514761D01*
X-34634762Y-86181428D02*
X-34634762Y-87514761D01*
X-33777620Y-86181428D02*
X-33777620Y-87229047D01*
X-33872858Y-87419523D01*
X-34063334Y-87514761D01*
X-34349048Y-87514761D01*
X-34539524Y-87419523D01*
X-34634762Y-87324285D01*
X-36444286Y-87419523D02*
X-36253810Y-87514761D01*
X-35872858Y-87514761D01*
X-35682381Y-87419523D01*
X-35587143Y-87324285D01*
X-35491905Y-87133809D01*
X-35491905Y-86562380D01*
X-35587143Y-86371904D01*
X-35682381Y-86276666D01*
X-35872858Y-86181428D01*
X-36253810Y-86181428D01*
X-36444286Y-86276666D01*
X-38158572Y-86181428D02*
X-38158572Y-87514761D01*
X-37301429Y-86181428D02*
X-37301429Y-87229047D01*
X-37396667Y-87419523D01*
X-37587143Y-87514761D01*
X-37872858Y-87514761D01*
X-38063334Y-87419523D01*
X-38158572Y-87324285D01*
X-39015715Y-87419523D02*
X-39206191Y-87514761D01*
X-39587143Y-87514761D01*
X-39777620Y-87419523D01*
X-39872858Y-87229047D01*
X-39872858Y-87133809D01*
X-39777620Y-86943333D01*
X-39587143Y-86848095D01*
X-39301429Y-86848095D01*
X-39110953Y-86752857D01*
X-39015715Y-86562380D01*
X-39015715Y-86467142D01*
X-39110953Y-86276666D01*
X-39301429Y-86181428D01*
X-39587143Y-86181428D01*
X-39777620Y-86276666D01*
X-43396667Y-87514761D02*
X-42730000Y-86562380D01*
X-42253810Y-87514761D02*
X-42253810Y-85514761D01*
X-43015715Y-85514761D01*
X-43206191Y-85610000D01*
X-43301429Y-85705238D01*
X-43396667Y-85895714D01*
X-43396667Y-86181428D01*
X-43301429Y-86371904D01*
X-43206191Y-86467142D01*
X-43015715Y-86562380D01*
X-42253810Y-86562380D01*
X-44539524Y-87514761D02*
X-44349048Y-87419523D01*
X-44253810Y-87324285D01*
X-44158572Y-87133809D01*
X-44158572Y-86562380D01*
X-44253810Y-86371904D01*
X-44349048Y-86276666D01*
X-44539524Y-86181428D01*
X-44825239Y-86181428D01*
X-45015715Y-86276666D01*
X-45110953Y-86371904D01*
X-45206191Y-86562380D01*
X-45206191Y-87133809D01*
X-45110953Y-87324285D01*
X-45015715Y-87419523D01*
X-44825239Y-87514761D01*
X-44539524Y-87514761D01*
X-45872858Y-86181428D02*
X-46253810Y-87514761D01*
X-46634762Y-86562380D01*
X-47015715Y-87514761D01*
X-47396667Y-86181428D01*
X-48444286Y-87514761D02*
X-48253810Y-87419523D01*
X-48158572Y-87229047D01*
X-48158572Y-85514761D01*
X-50063334Y-87514761D02*
X-50063334Y-86467142D01*
X-49968096Y-86276666D01*
X-49777620Y-86181428D01*
X-49396667Y-86181428D01*
X-49206191Y-86276666D01*
X-50063334Y-87419523D02*
X-49872858Y-87514761D01*
X-49396667Y-87514761D01*
X-49206191Y-87419523D01*
X-49110953Y-87229047D01*
X-49110953Y-87038571D01*
X-49206191Y-86848095D01*
X-49396667Y-86752857D01*
X-49872858Y-86752857D01*
X-50063334Y-86657619D01*
X-51015715Y-86181428D02*
X-51015715Y-87514761D01*
X-51015715Y-86371904D02*
X-51110953Y-86276666D01*
X-51301429Y-86181428D01*
X-51587143Y-86181428D01*
X-51777620Y-86276666D01*
X-51872858Y-86467142D01*
X-51872858Y-87514761D01*
X-53682381Y-87514761D02*
X-53682381Y-85514761D01*
X-53682381Y-87419523D02*
X-53491905Y-87514761D01*
X-53110953Y-87514761D01*
X-52920477Y-87419523D01*
X-52825239Y-87324285D01*
X-52730000Y-87133809D01*
X-52730000Y-86562380D01*
X-52825239Y-86371904D01*
X-52920477Y-86276666D01*
X-53110953Y-86181428D01*
X-53491905Y-86181428D01*
X-53682381Y-86276666D01*
X-54539524Y-87419523D02*
X-54730000Y-87514761D01*
X-55110953Y-87514761D01*
X-55301429Y-87419523D01*
X-55396667Y-87229047D01*
X-55396667Y-87133809D01*
X-55301429Y-86943333D01*
X-55110953Y-86848095D01*
X-54825239Y-86848095D01*
X-54634762Y-86752857D01*
X-54539524Y-86562380D01*
X-54539524Y-86467142D01*
X-54634762Y-86276666D01*
X-54825239Y-86181428D01*
X-55110953Y-86181428D01*
X-55301429Y-86276666D01*
X-27201429Y-90404285D02*
X-27106191Y-90499523D01*
X-26820477Y-90594761D01*
X-26630000Y-90594761D01*
X-26344286Y-90499523D01*
X-26153810Y-90309047D01*
X-26058572Y-90118571D01*
X-25963334Y-89737619D01*
X-25963334Y-89451904D01*
X-26058572Y-89070952D01*
X-26153810Y-88880476D01*
X-26344286Y-88690000D01*
X-26630000Y-88594761D01*
X-26820477Y-88594761D01*
X-27106191Y-88690000D01*
X-27201429Y-88785238D01*
X-28915715Y-90594761D02*
X-28915715Y-89547142D01*
X-28820477Y-89356666D01*
X-28630000Y-89261428D01*
X-28249048Y-89261428D01*
X-28058572Y-89356666D01*
X-28915715Y-90499523D02*
X-28725239Y-90594761D01*
X-28249048Y-90594761D01*
X-28058572Y-90499523D01*
X-27963334Y-90309047D01*
X-27963334Y-90118571D01*
X-28058572Y-89928095D01*
X-28249048Y-89832857D01*
X-28725239Y-89832857D01*
X-28915715Y-89737619D01*
X-29868096Y-89261428D02*
X-29868096Y-90594761D01*
X-29868096Y-89451904D02*
X-29963334Y-89356666D01*
X-30153810Y-89261428D01*
X-30439524Y-89261428D01*
X-30630000Y-89356666D01*
X-30725239Y-89547142D01*
X-30725239Y-90594761D01*
X-32534762Y-90594761D02*
X-32534762Y-89547142D01*
X-32439524Y-89356666D01*
X-32249048Y-89261428D01*
X-31868096Y-89261428D01*
X-31677620Y-89356666D01*
X-32534762Y-90499523D02*
X-32344286Y-90594761D01*
X-31868096Y-90594761D01*
X-31677620Y-90499523D01*
X-31582381Y-90309047D01*
X-31582381Y-90118571D01*
X-31677620Y-89928095D01*
X-31868096Y-89832857D01*
X-32344286Y-89832857D01*
X-32534762Y-89737619D01*
X-34344286Y-90594761D02*
X-34344286Y-88594761D01*
X-34344286Y-90499523D02*
X-34153810Y-90594761D01*
X-33772858Y-90594761D01*
X-33582381Y-90499523D01*
X-33487143Y-90404285D01*
X-33391905Y-90213809D01*
X-33391905Y-89642380D01*
X-33487143Y-89451904D01*
X-33582381Y-89356666D01*
X-33772858Y-89261428D01*
X-34153810Y-89261428D01*
X-34344286Y-89356666D01*
X-35296667Y-90594761D02*
X-35296667Y-89261428D01*
X-35296667Y-88594761D02*
X-35201429Y-88690000D01*
X-35296667Y-88785238D01*
X-35391905Y-88690000D01*
X-35296667Y-88594761D01*
X-35296667Y-88785238D01*
X-37106191Y-90594761D02*
X-37106191Y-89547142D01*
X-37010953Y-89356666D01*
X-36820477Y-89261428D01*
X-36439524Y-89261428D01*
X-36249048Y-89356666D01*
X-37106191Y-90499523D02*
X-36915715Y-90594761D01*
X-36439524Y-90594761D01*
X-36249048Y-90499523D01*
X-36153810Y-90309047D01*
X-36153810Y-90118571D01*
X-36249048Y-89928095D01*
X-36439524Y-89832857D01*
X-36915715Y-89832857D01*
X-37106191Y-89737619D01*
X-38058572Y-89261428D02*
X-38058572Y-90594761D01*
X-38058572Y-89451904D02*
X-38153810Y-89356666D01*
X-38344286Y-89261428D01*
X-38630000Y-89261428D01*
X-38820477Y-89356666D01*
X-38915715Y-89547142D01*
X-38915715Y-90594761D01*
X-41296667Y-90499523D02*
X-41582381Y-90594761D01*
X-42058572Y-90594761D01*
X-42249048Y-90499523D01*
X-42344286Y-90404285D01*
X-42439524Y-90213809D01*
X-42439524Y-90023333D01*
X-42344286Y-89832857D01*
X-42249048Y-89737619D01*
X-42058572Y-89642380D01*
X-41677620Y-89547142D01*
X-41487143Y-89451904D01*
X-41391905Y-89356666D01*
X-41296667Y-89166190D01*
X-41296667Y-88975714D01*
X-41391905Y-88785238D01*
X-41487143Y-88690000D01*
X-41677620Y-88594761D01*
X-42153810Y-88594761D01*
X-42439524Y-88690000D01*
X-43296667Y-89261428D02*
X-43296667Y-91261428D01*
X-43296667Y-89356666D02*
X-43487143Y-89261428D01*
X-43868096Y-89261428D01*
X-44058572Y-89356666D01*
X-44153810Y-89451904D01*
X-44249048Y-89642380D01*
X-44249048Y-90213809D01*
X-44153810Y-90404285D01*
X-44058572Y-90499523D01*
X-43868096Y-90594761D01*
X-43487143Y-90594761D01*
X-43296667Y-90499523D01*
X-45963334Y-90594761D02*
X-45963334Y-89547142D01*
X-45868096Y-89356666D01*
X-45677620Y-89261428D01*
X-45296667Y-89261428D01*
X-45106191Y-89356666D01*
X-45963334Y-90499523D02*
X-45772858Y-90594761D01*
X-45296667Y-90594761D01*
X-45106191Y-90499523D01*
X-45010953Y-90309047D01*
X-45010953Y-90118571D01*
X-45106191Y-89928095D01*
X-45296667Y-89832857D01*
X-45772858Y-89832857D01*
X-45963334Y-89737619D01*
X-47772858Y-90499523D02*
X-47582381Y-90594761D01*
X-47201429Y-90594761D01*
X-47010953Y-90499523D01*
X-46915715Y-90404285D01*
X-46820477Y-90213809D01*
X-46820477Y-89642380D01*
X-46915715Y-89451904D01*
X-47010953Y-89356666D01*
X-47201429Y-89261428D01*
X-47582381Y-89261428D01*
X-47772858Y-89356666D01*
X-49391905Y-90499523D02*
X-49201429Y-90594761D01*
X-48820477Y-90594761D01*
X-48630000Y-90499523D01*
X-48534762Y-90309047D01*
X-48534762Y-89547142D01*
X-48630000Y-89356666D01*
X-48820477Y-89261428D01*
X-49201429Y-89261428D01*
X-49391905Y-89356666D01*
X-49487143Y-89547142D01*
X-49487143Y-89737619D01*
X-48534762Y-89928095D01*
X-51772858Y-90023333D02*
X-52725239Y-90023333D01*
X-51582381Y-90594761D02*
X-52249048Y-88594761D01*
X-52915715Y-90594761D01*
X-54439524Y-89261428D02*
X-54439524Y-90880476D01*
X-54344286Y-91070952D01*
X-54249048Y-91166190D01*
X-54058572Y-91261428D01*
X-53772858Y-91261428D01*
X-53582381Y-91166190D01*
X-54439524Y-90499523D02*
X-54249048Y-90594761D01*
X-53868096Y-90594761D01*
X-53677620Y-90499523D01*
X-53582381Y-90404285D01*
X-53487143Y-90213809D01*
X-53487143Y-89642380D01*
X-53582381Y-89451904D01*
X-53677620Y-89356666D01*
X-53868096Y-89261428D01*
X-54249048Y-89261428D01*
X-54439524Y-89356666D01*
X-56153810Y-90499523D02*
X-55963334Y-90594761D01*
X-55582381Y-90594761D01*
X-55391905Y-90499523D01*
X-55296667Y-90309047D01*
X-55296667Y-89547142D01*
X-55391905Y-89356666D01*
X-55582381Y-89261428D01*
X-55963334Y-89261428D01*
X-56153810Y-89356666D01*
X-56249048Y-89547142D01*
X-56249048Y-89737619D01*
X-55296667Y-89928095D01*
X-57106191Y-89261428D02*
X-57106191Y-90594761D01*
X-57106191Y-89451904D02*
X-57201429Y-89356666D01*
X-57391905Y-89261428D01*
X-57677620Y-89261428D01*
X-57868096Y-89356666D01*
X-57963334Y-89547142D01*
X-57963334Y-90594761D01*
X-59772858Y-90499523D02*
X-59582381Y-90594761D01*
X-59201429Y-90594761D01*
X-59010953Y-90499523D01*
X-58915715Y-90404285D01*
X-58820477Y-90213809D01*
X-58820477Y-89642380D01*
X-58915715Y-89451904D01*
X-59010953Y-89356666D01*
X-59201429Y-89261428D01*
X-59582381Y-89261428D01*
X-59772858Y-89356666D01*
X-60439524Y-89261428D02*
X-60915715Y-90594761D01*
X-61391905Y-89261428D02*
X-60915715Y-90594761D01*
X-60725239Y-91070952D01*
X-60630000Y-91166190D01*
X-60439524Y-91261428D01*
X-24351191Y-68334761D02*
X-24351191Y-66334761D01*
X-25113096Y-66334761D01*
X-25303572Y-66430000D01*
X-25398810Y-66525238D01*
X-25494048Y-66715714D01*
X-25494048Y-67001428D01*
X-25398810Y-67191904D01*
X-25303572Y-67287142D01*
X-25113096Y-67382380D01*
X-24351191Y-67382380D01*
X-26351191Y-68334761D02*
X-26351191Y-67001428D01*
X-26351191Y-67382380D02*
X-26446429Y-67191904D01*
X-26541667Y-67096666D01*
X-26732143Y-67001428D01*
X-26922620Y-67001428D01*
X-27875000Y-68334761D02*
X-27684524Y-68239523D01*
X-27589286Y-68144285D01*
X-27494048Y-67953809D01*
X-27494048Y-67382380D01*
X-27589286Y-67191904D01*
X-27684524Y-67096666D01*
X-27875000Y-67001428D01*
X-28160715Y-67001428D01*
X-28351191Y-67096666D01*
X-28446429Y-67191904D01*
X-28541667Y-67382380D01*
X-28541667Y-67953809D01*
X-28446429Y-68144285D01*
X-28351191Y-68239523D01*
X-28160715Y-68334761D01*
X-27875000Y-68334761D01*
X-29398810Y-67001428D02*
X-29398810Y-68715714D01*
X-29303572Y-68906190D01*
X-29113096Y-69001428D01*
X-29017858Y-69001428D01*
X-29398810Y-66334761D02*
X-29303572Y-66430000D01*
X-29398810Y-66525238D01*
X-29494048Y-66430000D01*
X-29398810Y-66334761D01*
X-29398810Y-66525238D01*
X-31113096Y-68239523D02*
X-30922620Y-68334761D01*
X-30541667Y-68334761D01*
X-30351191Y-68239523D01*
X-30255953Y-68049047D01*
X-30255953Y-67287142D01*
X-30351191Y-67096666D01*
X-30541667Y-67001428D01*
X-30922620Y-67001428D01*
X-31113096Y-67096666D01*
X-31208334Y-67287142D01*
X-31208334Y-67477619D01*
X-30255953Y-67668095D01*
X-32922620Y-68239523D02*
X-32732143Y-68334761D01*
X-32351191Y-68334761D01*
X-32160715Y-68239523D01*
X-32065477Y-68144285D01*
X-31970239Y-67953809D01*
X-31970239Y-67382380D01*
X-32065477Y-67191904D01*
X-32160715Y-67096666D01*
X-32351191Y-67001428D01*
X-32732143Y-67001428D01*
X-32922620Y-67096666D01*
X-33494048Y-67001428D02*
X-34255953Y-67001428D01*
X-33779762Y-66334761D02*
X-33779762Y-68049047D01*
X-33875000Y-68239523D01*
X-34065477Y-68334761D01*
X-34255953Y-68334761D01*
X-36446429Y-68334761D02*
X-36446429Y-66334761D01*
X-37113096Y-67763333D01*
X-37779762Y-66334761D01*
X-37779762Y-68334761D01*
X-39589286Y-68334761D02*
X-39589286Y-67287142D01*
X-39494048Y-67096666D01*
X-39303572Y-67001428D01*
X-38922620Y-67001428D01*
X-38732143Y-67096666D01*
X-39589286Y-68239523D02*
X-39398810Y-68334761D01*
X-38922620Y-68334761D01*
X-38732143Y-68239523D01*
X-38636905Y-68049047D01*
X-38636905Y-67858571D01*
X-38732143Y-67668095D01*
X-38922620Y-67572857D01*
X-39398810Y-67572857D01*
X-39589286Y-67477619D01*
X-41398810Y-68334761D02*
X-41398810Y-66334761D01*
X-41398810Y-68239523D02*
X-41208334Y-68334761D01*
X-40827381Y-68334761D01*
X-40636905Y-68239523D01*
X-40541667Y-68144285D01*
X-40446429Y-67953809D01*
X-40446429Y-67382380D01*
X-40541667Y-67191904D01*
X-40636905Y-67096666D01*
X-40827381Y-67001428D01*
X-41208334Y-67001428D01*
X-41398810Y-67096666D01*
X-43113096Y-68239523D02*
X-42922620Y-68334761D01*
X-42541667Y-68334761D01*
X-42351191Y-68239523D01*
X-42255953Y-68049047D01*
X-42255953Y-67287142D01*
X-42351191Y-67096666D01*
X-42541667Y-67001428D01*
X-42922620Y-67001428D01*
X-43113096Y-67096666D01*
X-43208334Y-67287142D01*
X-43208334Y-67477619D01*
X-42255953Y-67668095D01*
X-45589286Y-68334761D02*
X-45589286Y-66334761D01*
X-46351191Y-66334761D01*
X-46541667Y-66430000D01*
X-46636905Y-66525238D01*
X-46732143Y-66715714D01*
X-46732143Y-67001428D01*
X-46636905Y-67191904D01*
X-46541667Y-67287142D01*
X-46351191Y-67382380D01*
X-45589286Y-67382380D01*
X-47875000Y-68334761D02*
X-47684524Y-68239523D01*
X-47589286Y-68144285D01*
X-47494048Y-67953809D01*
X-47494048Y-67382380D01*
X-47589286Y-67191904D01*
X-47684524Y-67096666D01*
X-47875000Y-67001428D01*
X-48160715Y-67001428D01*
X-48351191Y-67096666D01*
X-48446429Y-67191904D01*
X-48541667Y-67382380D01*
X-48541667Y-67953809D01*
X-48446429Y-68144285D01*
X-48351191Y-68239523D01*
X-48160715Y-68334761D01*
X-47875000Y-68334761D01*
X-49303572Y-68239523D02*
X-49494048Y-68334761D01*
X-49875000Y-68334761D01*
X-50065477Y-68239523D01*
X-50160715Y-68049047D01*
X-50160715Y-67953809D01*
X-50065477Y-67763333D01*
X-49875000Y-67668095D01*
X-49589286Y-67668095D01*
X-49398810Y-67572857D01*
X-49303572Y-67382380D01*
X-49303572Y-67287142D01*
X-49398810Y-67096666D01*
X-49589286Y-67001428D01*
X-49875000Y-67001428D01*
X-50065477Y-67096666D01*
X-50922620Y-68239523D02*
X-51113096Y-68334761D01*
X-51494048Y-68334761D01*
X-51684524Y-68239523D01*
X-51779762Y-68049047D01*
X-51779762Y-67953809D01*
X-51684524Y-67763333D01*
X-51494048Y-67668095D01*
X-51208334Y-67668095D01*
X-51017858Y-67572857D01*
X-50922620Y-67382380D01*
X-50922620Y-67287142D01*
X-51017858Y-67096666D01*
X-51208334Y-67001428D01*
X-51494048Y-67001428D01*
X-51684524Y-67096666D01*
X-52636905Y-68334761D02*
X-52636905Y-67001428D01*
X-52636905Y-66334761D02*
X-52541667Y-66430000D01*
X-52636905Y-66525238D01*
X-52732143Y-66430000D01*
X-52636905Y-66334761D01*
X-52636905Y-66525238D01*
X-53589286Y-68334761D02*
X-53589286Y-66334761D01*
X-53589286Y-67096666D02*
X-53779762Y-67001428D01*
X-54160715Y-67001428D01*
X-54351191Y-67096666D01*
X-54446429Y-67191904D01*
X-54541667Y-67382380D01*
X-54541667Y-67953809D01*
X-54446429Y-68144285D01*
X-54351191Y-68239523D01*
X-54160715Y-68334761D01*
X-53779762Y-68334761D01*
X-53589286Y-68239523D01*
X-55684524Y-68334761D02*
X-55494048Y-68239523D01*
X-55398810Y-68049047D01*
X-55398810Y-66334761D01*
X-57208334Y-68239523D02*
X-57017858Y-68334761D01*
X-56636905Y-68334761D01*
X-56446429Y-68239523D01*
X-56351191Y-68049047D01*
X-56351191Y-67287142D01*
X-56446429Y-67096666D01*
X-56636905Y-67001428D01*
X-57017858Y-67001428D01*
X-57208334Y-67096666D01*
X-57303572Y-67287142D01*
X-57303572Y-67477619D01*
X-56351191Y-67668095D01*
X-60351191Y-67287142D02*
X-60636905Y-67382380D01*
X-60732143Y-67477619D01*
X-60827381Y-67668095D01*
X-60827381Y-67953809D01*
X-60732143Y-68144285D01*
X-60636905Y-68239523D01*
X-60446429Y-68334761D01*
X-59684524Y-68334761D01*
X-59684524Y-66334761D01*
X-60351191Y-66334761D01*
X-60541667Y-66430000D01*
X-60636905Y-66525238D01*
X-60732143Y-66715714D01*
X-60732143Y-66906190D01*
X-60636905Y-67096666D01*
X-60541667Y-67191904D01*
X-60351191Y-67287142D01*
X-59684524Y-67287142D01*
X-61494048Y-67001428D02*
X-61970239Y-68334761D01*
X-62446429Y-67001428D02*
X-61970239Y-68334761D01*
X-61779762Y-68810952D01*
X-61684524Y-68906190D01*
X-61494048Y-69001428D01*
X-35017858Y-71634761D02*
X-35017858Y-69634761D01*
X-35494048Y-69634761D01*
X-35779762Y-69730000D01*
X-35970239Y-69920476D01*
X-36065477Y-70110952D01*
X-36160715Y-70491904D01*
X-36160715Y-70777619D01*
X-36065477Y-71158571D01*
X-35970239Y-71349047D01*
X-35779762Y-71539523D01*
X-35494048Y-71634761D01*
X-35017858Y-71634761D01*
X-37303572Y-71634761D02*
X-37113096Y-71539523D01*
X-37017858Y-71444285D01*
X-36922620Y-71253809D01*
X-36922620Y-70682380D01*
X-37017858Y-70491904D01*
X-37113096Y-70396666D01*
X-37303572Y-70301428D01*
X-37589286Y-70301428D01*
X-37779762Y-70396666D01*
X-37875000Y-70491904D01*
X-37970239Y-70682380D01*
X-37970239Y-71253809D01*
X-37875000Y-71444285D01*
X-37779762Y-71539523D01*
X-37589286Y-71634761D01*
X-37303572Y-71634761D01*
X-38827381Y-70301428D02*
X-38827381Y-71634761D01*
X-38827381Y-70491904D02*
X-38922620Y-70396666D01*
X-39113096Y-70301428D01*
X-39398810Y-70301428D01*
X-39589286Y-70396666D01*
X-39684524Y-70587142D01*
X-39684524Y-71634761D01*
X-42065477Y-71539523D02*
X-42351191Y-71634761D01*
X-42827381Y-71634761D01*
X-43017858Y-71539523D01*
X-43113096Y-71444285D01*
X-43208334Y-71253809D01*
X-43208334Y-71063333D01*
X-43113096Y-70872857D01*
X-43017858Y-70777619D01*
X-42827381Y-70682380D01*
X-42446429Y-70587142D01*
X-42255953Y-70491904D01*
X-42160715Y-70396666D01*
X-42065477Y-70206190D01*
X-42065477Y-70015714D01*
X-42160715Y-69825238D01*
X-42255953Y-69730000D01*
X-42446429Y-69634761D01*
X-42922620Y-69634761D01*
X-43208334Y-69730000D01*
X-44827381Y-71539523D02*
X-44636905Y-71634761D01*
X-44255953Y-71634761D01*
X-44065477Y-71539523D01*
X-43970239Y-71349047D01*
X-43970239Y-70587142D01*
X-44065477Y-70396666D01*
X-44255953Y-70301428D01*
X-44636905Y-70301428D01*
X-44827381Y-70396666D01*
X-44922620Y-70587142D01*
X-44922620Y-70777619D01*
X-43970239Y-70968095D01*
X-46636905Y-71634761D02*
X-46636905Y-70587142D01*
X-46541667Y-70396666D01*
X-46351191Y-70301428D01*
X-45970239Y-70301428D01*
X-45779762Y-70396666D01*
X-46636905Y-71539523D02*
X-46446429Y-71634761D01*
X-45970239Y-71634761D01*
X-45779762Y-71539523D01*
X-45684524Y-71349047D01*
X-45684524Y-71158571D01*
X-45779762Y-70968095D01*
X-45970239Y-70872857D01*
X-46446429Y-70872857D01*
X-46636905Y-70777619D01*
X-47589286Y-71634761D02*
X-47589286Y-70301428D01*
X-47589286Y-70491904D02*
X-47684524Y-70396666D01*
X-47875000Y-70301428D01*
X-48160715Y-70301428D01*
X-48351191Y-70396666D01*
X-48446429Y-70587142D01*
X-48446429Y-71634761D01*
X-48446429Y-70587142D02*
X-48541667Y-70396666D01*
X-48732143Y-70301428D01*
X-49017858Y-70301428D01*
X-49208334Y-70396666D01*
X-49303572Y-70587142D01*
X-49303572Y-71634761D01*
X-51113096Y-71634761D02*
X-51113096Y-70587142D01*
X-51017858Y-70396666D01*
X-50827381Y-70301428D01*
X-50446429Y-70301428D01*
X-50255953Y-70396666D01*
X-51113096Y-71539523D02*
X-50922620Y-71634761D01*
X-50446429Y-71634761D01*
X-50255953Y-71539523D01*
X-50160715Y-71349047D01*
X-50160715Y-71158571D01*
X-50255953Y-70968095D01*
X-50446429Y-70872857D01*
X-50922620Y-70872857D01*
X-51113096Y-70777619D01*
X-52065477Y-70301428D02*
X-52065477Y-71634761D01*
X-52065477Y-70491904D02*
X-52160715Y-70396666D01*
X-52351191Y-70301428D01*
X-52636905Y-70301428D01*
X-52827381Y-70396666D01*
X-52922620Y-70587142D01*
X-52922620Y-71634761D01*
X-35589286Y-72934761D02*
X-35589286Y-74363333D01*
X-35494048Y-74649047D01*
X-35303572Y-74839523D01*
X-35017858Y-74934761D01*
X-34827381Y-74934761D01*
X-36827381Y-74934761D02*
X-36636905Y-74839523D01*
X-36541667Y-74744285D01*
X-36446429Y-74553809D01*
X-36446429Y-73982380D01*
X-36541667Y-73791904D01*
X-36636905Y-73696666D01*
X-36827381Y-73601428D01*
X-37113096Y-73601428D01*
X-37303572Y-73696666D01*
X-37398810Y-73791904D01*
X-37494048Y-73982380D01*
X-37494048Y-74553809D01*
X-37398810Y-74744285D01*
X-37303572Y-74839523D01*
X-37113096Y-74934761D01*
X-36827381Y-74934761D01*
X-38255953Y-74839523D02*
X-38446429Y-74934761D01*
X-38827381Y-74934761D01*
X-39017858Y-74839523D01*
X-39113096Y-74649047D01*
X-39113096Y-74553809D01*
X-39017858Y-74363333D01*
X-38827381Y-74268095D01*
X-38541667Y-74268095D01*
X-38351191Y-74172857D01*
X-38255953Y-73982380D01*
X-38255953Y-73887142D01*
X-38351191Y-73696666D01*
X-38541667Y-73601428D01*
X-38827381Y-73601428D01*
X-39017858Y-73696666D01*
X-40732143Y-74839523D02*
X-40541667Y-74934761D01*
X-40160715Y-74934761D01*
X-39970239Y-74839523D01*
X-39875000Y-74649047D01*
X-39875000Y-73887142D01*
X-39970239Y-73696666D01*
X-40160715Y-73601428D01*
X-40541667Y-73601428D01*
X-40732143Y-73696666D01*
X-40827381Y-73887142D01*
X-40827381Y-74077619D01*
X-39875000Y-74268095D01*
X-41684524Y-73601428D02*
X-41684524Y-75601428D01*
X-41684524Y-73696666D02*
X-41875000Y-73601428D01*
X-42255953Y-73601428D01*
X-42446429Y-73696666D01*
X-42541667Y-73791904D01*
X-42636905Y-73982380D01*
X-42636905Y-74553809D01*
X-42541667Y-74744285D01*
X-42446429Y-74839523D01*
X-42255953Y-74934761D01*
X-41875000Y-74934761D01*
X-41684524Y-74839523D01*
X-43494048Y-74934761D02*
X-43494048Y-72934761D01*
X-44351191Y-74934761D02*
X-44351191Y-73887142D01*
X-44255953Y-73696666D01*
X-44065477Y-73601428D01*
X-43779762Y-73601428D01*
X-43589286Y-73696666D01*
X-43494048Y-73791904D01*
X-47970239Y-74934761D02*
X-47303572Y-73982380D01*
X-46827381Y-74934761D02*
X-46827381Y-72934761D01*
X-47589286Y-72934761D01*
X-47779762Y-73030000D01*
X-47875000Y-73125238D01*
X-47970239Y-73315714D01*
X-47970239Y-73601428D01*
X-47875000Y-73791904D01*
X-47779762Y-73887142D01*
X-47589286Y-73982380D01*
X-46827381Y-73982380D01*
X-49589286Y-74839523D02*
X-49398810Y-74934761D01*
X-49017858Y-74934761D01*
X-48827381Y-74839523D01*
X-48732143Y-74649047D01*
X-48732143Y-73887142D01*
X-48827381Y-73696666D01*
X-49017858Y-73601428D01*
X-49398810Y-73601428D01*
X-49589286Y-73696666D01*
X-49684524Y-73887142D01*
X-49684524Y-74077619D01*
X-48732143Y-74268095D01*
X-50541667Y-74934761D02*
X-50541667Y-73601428D01*
X-50541667Y-73791904D02*
X-50636905Y-73696666D01*
X-50827381Y-73601428D01*
X-51113096Y-73601428D01*
X-51303572Y-73696666D01*
X-51398810Y-73887142D01*
X-51398810Y-74934761D01*
X-51398810Y-73887142D02*
X-51494048Y-73696666D01*
X-51684524Y-73601428D01*
X-51970239Y-73601428D01*
X-52160715Y-73696666D01*
X-52255953Y-73887142D01*
X-52255953Y-74934761D01*
X-54065477Y-74934761D02*
X-54065477Y-73887142D01*
X-53970239Y-73696666D01*
X-53779762Y-73601428D01*
X-53398810Y-73601428D01*
X-53208334Y-73696666D01*
X-54065477Y-74839523D02*
X-53875000Y-74934761D01*
X-53398810Y-74934761D01*
X-53208334Y-74839523D01*
X-53113096Y-74649047D01*
X-53113096Y-74458571D01*
X-53208334Y-74268095D01*
X-53398810Y-74172857D01*
X-53875000Y-74172857D01*
X-54065477Y-74077619D01*
X-55017858Y-74934761D02*
X-55017858Y-73601428D01*
X-55017858Y-72934761D02*
X-54922620Y-73030000D01*
X-55017858Y-73125238D01*
X-55113096Y-73030000D01*
X-55017858Y-72934761D01*
X-55017858Y-73125238D01*
X-35017858Y-78234761D02*
X-35017858Y-76234761D01*
X-35494048Y-76234761D01*
X-35779762Y-76330000D01*
X-35970239Y-76520476D01*
X-36065477Y-76710952D01*
X-36160715Y-77091904D01*
X-36160715Y-77377619D01*
X-36065477Y-77758571D01*
X-35970239Y-77949047D01*
X-35779762Y-78139523D01*
X-35494048Y-78234761D01*
X-35017858Y-78234761D01*
X-37303572Y-78234761D02*
X-37113096Y-78139523D01*
X-37017858Y-78044285D01*
X-36922620Y-77853809D01*
X-36922620Y-77282380D01*
X-37017858Y-77091904D01*
X-37113096Y-76996666D01*
X-37303572Y-76901428D01*
X-37589286Y-76901428D01*
X-37779762Y-76996666D01*
X-37875000Y-77091904D01*
X-37970239Y-77282380D01*
X-37970239Y-77853809D01*
X-37875000Y-78044285D01*
X-37779762Y-78139523D01*
X-37589286Y-78234761D01*
X-37303572Y-78234761D01*
X-38827381Y-76901428D02*
X-38827381Y-78234761D01*
X-38827381Y-77091904D02*
X-38922620Y-76996666D01*
X-39113096Y-76901428D01*
X-39398810Y-76901428D01*
X-39589286Y-76996666D01*
X-39684524Y-77187142D01*
X-39684524Y-78234761D01*
X-43113096Y-78234761D02*
X-42160715Y-78234761D01*
X-42160715Y-76234761D01*
X-43779762Y-78234761D02*
X-43779762Y-76901428D01*
X-43779762Y-76234761D02*
X-43684524Y-76330000D01*
X-43779762Y-76425238D01*
X-43875000Y-76330000D01*
X-43779762Y-76234761D01*
X-43779762Y-76425238D01*
X-44636905Y-78139523D02*
X-44827381Y-78234761D01*
X-45208334Y-78234761D01*
X-45398810Y-78139523D01*
X-45494048Y-77949047D01*
X-45494048Y-77853809D01*
X-45398810Y-77663333D01*
X-45208334Y-77568095D01*
X-44922620Y-77568095D01*
X-44732143Y-77472857D01*
X-44636905Y-77282380D01*
X-44636905Y-77187142D01*
X-44732143Y-76996666D01*
X-44922620Y-76901428D01*
X-45208334Y-76901428D01*
X-45398810Y-76996666D01*
X-46065477Y-76901428D02*
X-46827381Y-76901428D01*
X-46351191Y-76234761D02*
X-46351191Y-77949047D01*
X-46446429Y-78139523D01*
X-46636905Y-78234761D01*
X-46827381Y-78234761D01*
X-47303572Y-76901428D02*
X-47684524Y-78234761D01*
X-48065477Y-77282380D01*
X-48446429Y-78234761D01*
X-48827381Y-76901428D01*
X-49589286Y-78234761D02*
X-49589286Y-76901428D01*
X-49589286Y-76234761D02*
X-49494048Y-76330000D01*
X-49589286Y-76425238D01*
X-49684524Y-76330000D01*
X-49589286Y-76234761D01*
X-49589286Y-76425238D01*
X-50541667Y-76901428D02*
X-50541667Y-78234761D01*
X-50541667Y-77091904D02*
X-50636905Y-76996666D01*
X-50827381Y-76901428D01*
X-51113096Y-76901428D01*
X-51303572Y-76996666D01*
X-51398810Y-77187142D01*
X-51398810Y-78234761D01*
X-35017858Y-81534761D02*
X-35017858Y-79534761D01*
X-35684524Y-80963333D01*
X-36351191Y-79534761D01*
X-36351191Y-81534761D01*
X-38160715Y-81534761D02*
X-38160715Y-80487142D01*
X-38065477Y-80296666D01*
X-37875000Y-80201428D01*
X-37494048Y-80201428D01*
X-37303572Y-80296666D01*
X-38160715Y-81439523D02*
X-37970239Y-81534761D01*
X-37494048Y-81534761D01*
X-37303572Y-81439523D01*
X-37208334Y-81249047D01*
X-37208334Y-81058571D01*
X-37303572Y-80868095D01*
X-37494048Y-80772857D01*
X-37970239Y-80772857D01*
X-38160715Y-80677619D01*
X-39113096Y-81534761D02*
X-39113096Y-80201428D01*
X-39113096Y-80582380D02*
X-39208334Y-80391904D01*
X-39303572Y-80296666D01*
X-39494048Y-80201428D01*
X-39684524Y-80201428D01*
X-40351191Y-81534761D02*
X-40351191Y-79534761D01*
X-40541667Y-80772857D02*
X-41113096Y-81534761D01*
X-41113096Y-80201428D02*
X-40351191Y-80963333D01*
X-43208334Y-79534761D02*
X-44351191Y-79534761D01*
X-43779762Y-81534761D02*
X-43779762Y-79534761D01*
X-45779762Y-81439523D02*
X-45589286Y-81534761D01*
X-45208334Y-81534761D01*
X-45017858Y-81439523D01*
X-44922620Y-81249047D01*
X-44922620Y-80487142D01*
X-45017858Y-80296666D01*
X-45208334Y-80201428D01*
X-45589286Y-80201428D01*
X-45779762Y-80296666D01*
X-45875000Y-80487142D01*
X-45875000Y-80677619D01*
X-44922620Y-80868095D01*
X-47494048Y-81439523D02*
X-47303572Y-81534761D01*
X-46922620Y-81534761D01*
X-46732143Y-81439523D01*
X-46636905Y-81249047D01*
X-46636905Y-80487142D01*
X-46732143Y-80296666D01*
X-46922620Y-80201428D01*
X-47303572Y-80201428D01*
X-47494048Y-80296666D01*
X-47589286Y-80487142D01*
X-47589286Y-80677619D01*
X-46636905Y-80868095D01*
X-49303572Y-81534761D02*
X-49303572Y-79534761D01*
X-49303572Y-81439523D02*
X-49113096Y-81534761D01*
X-48732143Y-81534761D01*
X-48541667Y-81439523D01*
X-48446429Y-81344285D01*
X-48351191Y-81153809D01*
X-48351191Y-80582380D01*
X-48446429Y-80391904D01*
X-48541667Y-80296666D01*
X-48732143Y-80201428D01*
X-49113096Y-80201428D01*
X-49303572Y-80296666D01*
M02*
