M48
; DRILL file {KiCad (5.1.12)-1} date 07/05/22 07:26:06
; FORMAT={-:-/ absolute / inch / decimal}
; #@! TF.CreationDate,2022-07-05T07:26:06-06:00
; #@! TF.GenerationSoftware,Kicad,Pcbnew,(5.1.12)-1
; #@! TF.FileFunction,Plated,1,2,PTH
FMAT,2
INCH
T1C0.0157
T2C0.0197
T3C0.0236
T4C0.0315
T5C0.0394
T6C0.1260
%
G90
G05
T1
X-3.1606Y-1.4555
X-3.1281Y-2.3818
X-3.0717Y-1.6618
X-2.7352Y-1.8513
X-2.6724Y-2.21
X-2.5484Y-1.4336
X-2.4854Y-1.5236
X-2.4376Y-1.9366
X-2.2472Y-2.7909
X-1.9337Y-2.1808
X-1.5091Y-1.996
X-1.4623Y-2.2891
X-1.416Y-1.9894
X-1.3827Y-2.5413
X-1.105Y-1.8945
X-1.0552Y-2.5261
X-0.9944Y-1.3933
X-0.8852Y-2.0774
X-0.8256Y-1.9069
X-0.4949Y-1.7894
X-0.4106Y-2.2185
X-0.3991Y-1.4247
X-0.3827Y-0.9697
X-0.3378Y-1.2035
X-0.328Y-2.1717
X-0.2823Y-1.235
T2
X-3.3697Y-0.6917
X-3.3697Y-0.7409
X-3.3697Y-0.7902
X-3.3697Y-0.8394
X-3.3697Y-0.8886
X-3.3697Y-0.9378
X-3.3697Y-0.987
T3
X-3.4268Y-1.3695
X-3.4268Y-1.4187
X-3.3339Y-3.0791
X-3.3339Y-3.1283
X-3.2319Y-2.8756
X-3.2319Y-2.9248
X-3.2213Y-2.6193
X-3.2213Y-2.6685
X-0.3677Y-2.6535
X-0.3677Y-2.7028
X-0.3173Y-2.8756
X-0.3173Y-2.9248
X-0.2417Y-3.0795
X-0.2417Y-3.1287
X-0.2091Y-0.7843
X-0.2091Y-0.8335
X-0.2091Y-0.8827
X-0.2091Y-0.9319
X-0.2091Y-0.9811
X-0.118Y-1.434
X-0.118Y-1.4832
X-0.1106Y-2.3928
X-0.1106Y-2.442
T4
X-2.2315Y-2.224
X-2.2315Y-2.724
T5
X-2.9969Y-0.1894
X-2.9969Y-0.2894
X-2.9969Y-0.3969
X-2.9969Y-0.4969
X-2.8969Y-0.1894
X-2.8969Y-0.2894
X-2.8969Y-0.3969
X-2.8969Y-0.4969
X-2.7969Y-0.1894
X-2.7969Y-0.2894
X-2.7969Y-0.3969
X-2.7969Y-0.4969
X-2.6969Y-0.1894
X-2.6969Y-0.2894
X-2.6969Y-0.3969
X-2.6969Y-0.4969
X-2.5969Y-0.1894
X-2.5969Y-0.2894
X-2.5969Y-0.3969
X-2.5969Y-0.4969
X-2.4969Y-0.1894
X-2.4969Y-0.2894
X-2.4969Y-0.3969
X-2.4969Y-0.4969
X-2.3969Y-0.1894
X-2.3969Y-0.2894
X-2.3969Y-0.3969
X-2.3969Y-0.4969
X-2.2969Y-0.1894
X-2.2969Y-0.2894
X-2.2969Y-0.3969
X-2.2969Y-0.4969
X-2.2063Y-0.939
X-2.2063Y-1.5689
X-2.1969Y-0.1894
X-2.1969Y-0.2894
X-2.1969Y-0.3969
X-2.1969Y-0.4969
X-2.1079Y-0.939
X-2.1079Y-1.5689
X-2.0969Y-0.1894
X-2.0969Y-0.2894
X-2.0969Y-0.3969
X-2.0969Y-0.4969
X-2.0094Y-0.939
X-2.0094Y-1.5689
X-1.9969Y-0.1894
X-1.9969Y-0.2894
X-1.9969Y-0.3969
X-1.9969Y-0.4969
X-1.911Y-0.939
X-1.911Y-1.5689
X-1.8969Y-0.1894
X-1.8969Y-0.2894
X-1.8969Y-0.3969
X-1.8969Y-0.4969
X-1.8126Y-0.939
X-1.8126Y-1.5689
X-1.7969Y-0.1894
X-1.7969Y-0.2894
X-1.7969Y-0.3969
X-1.7969Y-0.4969
X-1.7142Y-0.939
X-1.7142Y-1.5689
X-1.6969Y-0.1894
X-1.6969Y-0.2894
X-1.6969Y-0.3969
X-1.6969Y-0.4969
X-1.6157Y-0.939
X-1.6157Y-1.5689
X-1.5969Y-0.1894
X-1.5969Y-0.2894
X-1.5969Y-0.3969
X-1.5969Y-0.4969
X-1.5173Y-0.939
X-1.5173Y-1.5689
X-1.4969Y-0.1894
X-1.4969Y-0.2894
X-1.4969Y-0.3969
X-1.4969Y-0.4969
X-1.4189Y-0.939
X-1.4189Y-1.5689
X-1.3969Y-0.1894
X-1.3969Y-0.2894
X-1.3969Y-0.3969
X-1.3969Y-0.4969
X-1.3205Y-0.939
X-1.3205Y-1.5689
X-1.2969Y-0.1894
X-1.2969Y-0.2894
X-1.2969Y-0.3969
X-1.2969Y-0.4969
X-1.222Y-0.939
X-1.222Y-1.5689
X-1.1969Y-0.1894
X-1.1969Y-0.2894
X-1.1969Y-0.3969
X-1.1969Y-0.4969
X-1.1236Y-0.939
X-1.1236Y-1.5689
X-1.0969Y-0.1894
X-1.0969Y-0.2894
X-1.0969Y-0.3969
X-1.0969Y-0.4969
X-0.9969Y-0.1894
X-0.9969Y-0.2894
X-0.9969Y-0.3969
X-0.9969Y-0.4969
X-0.8969Y-0.1894
X-0.8969Y-0.2894
X-0.8969Y-0.3969
X-0.8969Y-0.4969
X-0.7969Y-0.1894
X-0.7969Y-0.2894
X-0.7969Y-0.3969
X-0.7969Y-0.4969
X-0.6969Y-0.1894
X-0.6969Y-0.2894
X-0.6969Y-0.3969
X-0.6969Y-0.4969
X-0.5969Y-0.1894
X-0.5969Y-0.2894
X-0.5969Y-0.3969
X-0.5969Y-0.4969
X-0.4969Y-0.1894
X-0.4969Y-0.2894
X-0.4969Y-0.3969
X-0.4969Y-0.4969
T6
X-3.3512Y-3.5772
X-3.1996Y-0.1996
X-0.3012Y-0.1996
X-0.2016Y-3.5732
T0
M30
