%TF.GenerationSoftware,KiCad,Pcbnew,(5.1.12)-1*%
%TF.CreationDate,2022-07-05T07:26:00-06:00*%
%TF.ProjectId,RADSAT-SK Timer 2,52414453-4154-42d5-934b-2054696d6572,rev?*%
%TF.SameCoordinates,PX7735940PY2faf080*%
%TF.FileFunction,Soldermask,Bot*%
%TF.FilePolarity,Negative*%
%FSLAX46Y46*%
G04 Gerber Fmt 4.6, Leading zero omitted, Abs format (unit mm)*
G04 Created by KiCad (PCBNEW (5.1.12)-1) date 2022-07-05 07:26:00*
%MOMM*%
%LPD*%
G01*
G04 APERTURE LIST*
%ADD10O,1.600000X1.600000*%
%ADD11C,1.600000*%
%ADD12C,2.000000*%
%ADD13O,1.400000X0.900000*%
%ADD14O,1.700000X1.700000*%
%ADD15R,1.700000X1.700000*%
%ADD16C,5.700000*%
%ADD17C,3.600000*%
%ADD18O,1.300000X0.800000*%
%ADD19R,1.400000X0.900000*%
G04 APERTURE END LIST*
D10*
%TO.C,R111*%
X-56680000Y-56490000D03*
D11*
X-56680000Y-69190000D03*
%TD*%
D12*
%TO.C,U102*%
X-41040000Y-39850000D03*
X-38540000Y-39850000D03*
X-36040000Y-39850000D03*
X-56040000Y-39850000D03*
X-33540000Y-39850000D03*
X-31040000Y-39850000D03*
X-53540000Y-39850000D03*
X-46040000Y-39850000D03*
X-51040000Y-39850000D03*
X-48540000Y-39850000D03*
X-43540000Y-39850000D03*
X-28540000Y-39850000D03*
X-28540000Y-23850000D03*
X-31040000Y-23850000D03*
X-33540000Y-23850000D03*
X-36040000Y-23850000D03*
X-38540000Y-23850000D03*
X-41040000Y-23850000D03*
X-43540000Y-23850000D03*
X-46040000Y-23850000D03*
X-48540000Y-23850000D03*
X-51040000Y-23850000D03*
X-53540000Y-23850000D03*
X-56040000Y-23850000D03*
%TD*%
D13*
%TO.C,J202*%
X-5310000Y-24920000D03*
X-5310000Y-23670000D03*
X-5310000Y-22420000D03*
X-5310000Y-21170000D03*
G36*
G01*
X-5785000Y-19470000D02*
X-4835000Y-19470000D01*
G75*
G02*
X-4610000Y-19695000I0J-225000D01*
G01*
X-4610000Y-20145000D01*
G75*
G02*
X-4835000Y-20370000I-225000J0D01*
G01*
X-5785000Y-20370000D01*
G75*
G02*
X-6010000Y-20145000I0J225000D01*
G01*
X-6010000Y-19695000D01*
G75*
G02*
X-5785000Y-19470000I225000J0D01*
G01*
G37*
%TD*%
D14*
%TO.C,J207*%
X-12620000Y-7350000D03*
X-12620000Y-4810000D03*
X-15160000Y-7350000D03*
X-15160000Y-4810000D03*
X-17700000Y-7350000D03*
X-17700000Y-4810000D03*
X-20240000Y-7350000D03*
X-20240000Y-4810000D03*
X-22780000Y-7350000D03*
X-22780000Y-4810000D03*
X-25320000Y-7350000D03*
X-25320000Y-4810000D03*
X-27860000Y-7350000D03*
X-27860000Y-4810000D03*
X-30400000Y-7350000D03*
X-30400000Y-4810000D03*
X-32940000Y-7350000D03*
X-32940000Y-4810000D03*
X-35480000Y-7350000D03*
X-35480000Y-4810000D03*
X-38020000Y-7350000D03*
X-38020000Y-4810000D03*
X-40560000Y-7350000D03*
X-40560000Y-4810000D03*
X-43100000Y-7350000D03*
X-43100000Y-4810000D03*
X-45640000Y-7350000D03*
X-45640000Y-4810000D03*
X-48180000Y-7350000D03*
X-48180000Y-4810000D03*
X-50720000Y-7350000D03*
X-50720000Y-4810000D03*
X-53260000Y-7350000D03*
X-53260000Y-4810000D03*
X-55800000Y-7350000D03*
X-55800000Y-4810000D03*
X-58340000Y-7350000D03*
X-58340000Y-4810000D03*
X-60880000Y-7350000D03*
X-60880000Y-4810000D03*
X-63420000Y-7350000D03*
X-63420000Y-4810000D03*
X-65960000Y-7350000D03*
X-65960000Y-4810000D03*
X-68500000Y-7350000D03*
X-68500000Y-4810000D03*
X-71040000Y-7350000D03*
X-71040000Y-4810000D03*
X-73580000Y-7350000D03*
X-73580000Y-4810000D03*
X-76120000Y-7350000D03*
D15*
X-76120000Y-4810000D03*
%TD*%
D14*
%TO.C,J208*%
X-12620000Y-12620000D03*
X-12620000Y-10080000D03*
X-15160000Y-12620000D03*
X-15160000Y-10080000D03*
X-17700000Y-12620000D03*
X-17700000Y-10080000D03*
X-20240000Y-12620000D03*
X-20240000Y-10080000D03*
X-22780000Y-12620000D03*
X-22780000Y-10080000D03*
X-25320000Y-12620000D03*
X-25320000Y-10080000D03*
X-27860000Y-12620000D03*
X-27860000Y-10080000D03*
X-30400000Y-12620000D03*
X-30400000Y-10080000D03*
X-32940000Y-12620000D03*
X-32940000Y-10080000D03*
X-35480000Y-12620000D03*
X-35480000Y-10080000D03*
X-38020000Y-12620000D03*
X-38020000Y-10080000D03*
X-40560000Y-12620000D03*
X-40560000Y-10080000D03*
X-43100000Y-12620000D03*
X-43100000Y-10080000D03*
X-45640000Y-12620000D03*
X-45640000Y-10080000D03*
X-48180000Y-12620000D03*
X-48180000Y-10080000D03*
X-50720000Y-12620000D03*
X-50720000Y-10080000D03*
X-53260000Y-12620000D03*
X-53260000Y-10080000D03*
X-55800000Y-12620000D03*
X-55800000Y-10080000D03*
X-58340000Y-12620000D03*
X-58340000Y-10080000D03*
X-60880000Y-12620000D03*
X-60880000Y-10080000D03*
X-63420000Y-12620000D03*
X-63420000Y-10080000D03*
X-65960000Y-12620000D03*
X-65960000Y-10080000D03*
X-68500000Y-12620000D03*
X-68500000Y-10080000D03*
X-71040000Y-12620000D03*
X-71040000Y-10080000D03*
X-73580000Y-12620000D03*
X-73580000Y-10080000D03*
X-76120000Y-12620000D03*
D15*
X-76120000Y-10080000D03*
%TD*%
D16*
%TO.C,H102*%
X-7650000Y-5070000D03*
D17*
X-7650000Y-5070000D03*
%TD*%
%TO.C,J201*%
G36*
G01*
X-86040000Y-17170000D02*
X-85140000Y-17170000D01*
G75*
G02*
X-84940000Y-17370000I0J-200000D01*
G01*
X-84940000Y-17770000D01*
G75*
G02*
X-85140000Y-17970000I-200000J0D01*
G01*
X-86040000Y-17970000D01*
G75*
G02*
X-86240000Y-17770000I0J200000D01*
G01*
X-86240000Y-17370000D01*
G75*
G02*
X-86040000Y-17170000I200000J0D01*
G01*
G37*
D18*
X-85590000Y-18820000D03*
X-85590000Y-20070000D03*
X-85590000Y-21320000D03*
X-85590000Y-22570000D03*
X-85590000Y-23820000D03*
X-85590000Y-25070000D03*
%TD*%
%TO.C,SW201*%
G36*
G01*
X-9815000Y-66950000D02*
X-8865000Y-66950000D01*
G75*
G02*
X-8640000Y-67175000I0J-225000D01*
G01*
X-8640000Y-67625000D01*
G75*
G02*
X-8865000Y-67850000I-225000J0D01*
G01*
X-9815000Y-67850000D01*
G75*
G02*
X-10040000Y-67625000I0J225000D01*
G01*
X-10040000Y-67175000D01*
G75*
G02*
X-9815000Y-66950000I225000J0D01*
G01*
G37*
D13*
X-9340000Y-68650000D03*
%TD*%
D16*
%TO.C,H103*%
X-5120000Y-90760000D03*
D17*
X-5120000Y-90760000D03*
%TD*%
D13*
%TO.C,SW206*%
X-6140000Y-78220000D03*
G36*
G01*
X-5665000Y-79920000D02*
X-6615000Y-79920000D01*
G75*
G02*
X-6840000Y-79695000I0J225000D01*
G01*
X-6840000Y-79245000D01*
G75*
G02*
X-6615000Y-79020000I225000J0D01*
G01*
X-5665000Y-79020000D01*
G75*
G02*
X-5440000Y-79245000I0J-225000D01*
G01*
X-5440000Y-79695000D01*
G75*
G02*
X-5665000Y-79920000I-225000J0D01*
G01*
G37*
%TD*%
D19*
%TO.C,SW202*%
X-8060000Y-73040000D03*
D13*
X-8060000Y-74290000D03*
%TD*%
%TO.C,J205*%
X-2996000Y-37672800D03*
G36*
G01*
X-3471000Y-35972800D02*
X-2521000Y-35972800D01*
G75*
G02*
X-2296000Y-36197800I0J-225000D01*
G01*
X-2296000Y-36647800D01*
G75*
G02*
X-2521000Y-36872800I-225000J0D01*
G01*
X-3471000Y-36872800D01*
G75*
G02*
X-3696000Y-36647800I0J225000D01*
G01*
X-3696000Y-36197800D01*
G75*
G02*
X-3471000Y-35972800I225000J0D01*
G01*
G37*
%TD*%
%TO.C,SW204*%
X-82090000Y-73040000D03*
D19*
X-82090000Y-74290000D03*
%TD*%
D13*
%TO.C,SW203*%
X-81820000Y-66530000D03*
D19*
X-81820000Y-67780000D03*
%TD*%
D13*
%TO.C,SW205*%
X-84680000Y-79460000D03*
G36*
G01*
X-85155000Y-77760000D02*
X-84205000Y-77760000D01*
G75*
G02*
X-83980000Y-77985000I0J-225000D01*
G01*
X-83980000Y-78435000D01*
G75*
G02*
X-84205000Y-78660000I-225000J0D01*
G01*
X-85155000Y-78660000D01*
G75*
G02*
X-85380000Y-78435000I0J225000D01*
G01*
X-85380000Y-77985000D01*
G75*
G02*
X-85155000Y-77760000I225000J0D01*
G01*
G37*
%TD*%
D16*
%TO.C,H104*%
X-85120000Y-90860000D03*
D17*
X-85120000Y-90860000D03*
%TD*%
%TO.C,J206*%
G36*
G01*
X-86564700Y-36484900D02*
X-87514700Y-36484900D01*
G75*
G02*
X-87739700Y-36259900I0J225000D01*
G01*
X-87739700Y-35809900D01*
G75*
G02*
X-87514700Y-35584900I225000J0D01*
G01*
X-86564700Y-35584900D01*
G75*
G02*
X-86339700Y-35809900I0J-225000D01*
G01*
X-86339700Y-36259900D01*
G75*
G02*
X-86564700Y-36484900I-225000J0D01*
G01*
G37*
D13*
X-87039700Y-34784900D03*
%TD*%
%TO.C,J204*%
X-2808000Y-62027000D03*
D19*
X-2808000Y-60777000D03*
%TD*%
D16*
%TO.C,H101*%
X-81270000Y-5070000D03*
D17*
X-81270000Y-5070000D03*
%TD*%
M02*
