%TF.GenerationSoftware,KiCad,Pcbnew,(5.1.12)-1*%
%TF.CreationDate,2022-07-05T07:26:00-06:00*%
%TF.ProjectId,RADSAT-SK Timer 2,52414453-4154-42d5-934b-2054696d6572,rev?*%
%TF.SameCoordinates,PX7735940PY2faf080*%
%TF.FileFunction,Copper,L1,Top*%
%TF.FilePolarity,Positive*%
%FSLAX46Y46*%
G04 Gerber Fmt 4.6, Leading zero omitted, Abs format (unit mm)*
G04 Created by KiCad (PCBNEW (5.1.12)-1) date 2022-07-05 07:26:00*
%MOMM*%
%LPD*%
G01*
G04 APERTURE LIST*
%TA.AperFunction,ComponentPad*%
%ADD10O,1.600000X1.600000*%
%TD*%
%TA.AperFunction,ComponentPad*%
%ADD11C,1.600000*%
%TD*%
%TA.AperFunction,ComponentPad*%
%ADD12C,2.000000*%
%TD*%
%TA.AperFunction,SMDPad,CuDef*%
%ADD13R,1.800000X1.000000*%
%TD*%
%TA.AperFunction,ComponentPad*%
%ADD14O,1.400000X0.900000*%
%TD*%
%TA.AperFunction,SMDPad,CuDef*%
%ADD15R,1.220000X0.650000*%
%TD*%
%TA.AperFunction,SMDPad,CuDef*%
%ADD16R,1.981200X0.533400*%
%TD*%
%TA.AperFunction,SMDPad,CuDef*%
%ADD17R,0.600000X0.450000*%
%TD*%
%TA.AperFunction,SMDPad,CuDef*%
%ADD18R,3.600000X2.600000*%
%TD*%
%TA.AperFunction,ComponentPad*%
%ADD19O,1.700000X1.700000*%
%TD*%
%TA.AperFunction,ComponentPad*%
%ADD20R,1.700000X1.700000*%
%TD*%
%TA.AperFunction,SMDPad,CuDef*%
%ADD21R,0.800000X1.900000*%
%TD*%
%TA.AperFunction,ConnectorPad*%
%ADD22C,5.700000*%
%TD*%
%TA.AperFunction,ComponentPad*%
%ADD23C,3.600000*%
%TD*%
%TA.AperFunction,SMDPad,CuDef*%
%ADD24R,0.400000X1.500000*%
%TD*%
%TA.AperFunction,ComponentPad*%
%ADD25O,1.300000X0.800000*%
%TD*%
%TA.AperFunction,ComponentPad*%
%ADD26R,1.400000X0.900000*%
%TD*%
%TA.AperFunction,SMDPad,CuDef*%
%ADD27R,1.800000X0.700000*%
%TD*%
%TA.AperFunction,SMDPad,CuDef*%
%ADD28R,2.200000X1.600000*%
%TD*%
%TA.AperFunction,ViaPad*%
%ADD29C,0.800000*%
%TD*%
%TA.AperFunction,Conductor*%
%ADD30C,0.250000*%
%TD*%
G04 APERTURE END LIST*
D10*
%TO.P,R111,2*%
%TO.N,Net-(D102-Pad1)*%
X-56680000Y-56490000D03*
D11*
%TO.P,R111,1*%
%TO.N,GND*%
X-56680000Y-69190000D03*
%TD*%
D12*
%TO.P,U102,18*%
%TO.N,N/C*%
X-41040000Y-39850000D03*
%TO.P,U102,17*%
X-38540000Y-39850000D03*
%TO.P,U102,16*%
X-36040000Y-39850000D03*
%TO.P,U102,24*%
%TO.N,GND*%
X-56040000Y-39850000D03*
%TO.P,U102,15*%
%TO.N,N/C*%
X-33540000Y-39850000D03*
%TO.P,U102,14*%
X-31040000Y-39850000D03*
%TO.P,U102,23*%
X-53540000Y-39850000D03*
%TO.P,U102,20*%
X-46040000Y-39850000D03*
%TO.P,U102,22*%
X-51040000Y-39850000D03*
%TO.P,U102,21*%
X-48540000Y-39850000D03*
%TO.P,U102,19*%
X-43540000Y-39850000D03*
%TO.P,U102,13*%
%TO.N,Inhib_EN*%
X-28540000Y-39850000D03*
%TO.P,U102,12*%
%TO.N,+5V*%
X-28540000Y-23850000D03*
%TO.P,U102,11*%
%TO.N,N/C*%
X-31040000Y-23850000D03*
%TO.P,U102,10*%
X-33540000Y-23850000D03*
%TO.P,U102,9*%
X-36040000Y-23850000D03*
%TO.P,U102,8*%
X-38540000Y-23850000D03*
%TO.P,U102,7*%
X-41040000Y-23850000D03*
%TO.P,U102,6*%
X-43540000Y-23850000D03*
%TO.P,U102,5*%
X-46040000Y-23850000D03*
%TO.P,U102,4*%
X-48540000Y-23850000D03*
%TO.P,U102,3*%
X-51040000Y-23850000D03*
%TO.P,U102,2*%
X-53540000Y-23850000D03*
%TO.P,U102,1*%
%TO.N,B*%
X-56040000Y-23850000D03*
%TD*%
D13*
%TO.P,TP116,1*%
%TO.N,/Inhib_in*%
X-18710000Y-30140000D03*
%TD*%
%TO.P,TP115,1*%
%TO.N,CHRG_ON-OFF*%
X-31050000Y-53330000D03*
%TD*%
%TO.P,TP114,1*%
%TO.N,Net-(R105-Pad1)*%
X-22050000Y-58790000D03*
%TD*%
%TO.P,TP113,1*%
%TO.N,A*%
X-31610000Y-66400000D03*
%TD*%
%TO.P,TP112,1*%
%TO.N,Net-(R102-Pad1)*%
X-48410000Y-60540000D03*
%TD*%
%TO.P,TP111,1*%
%TO.N,+5V*%
X-22290000Y-43180000D03*
%TD*%
%TO.P,TP110,1*%
%TO.N,I2C_CLK*%
X-70500000Y-21120000D03*
%TD*%
%TO.P,TP109,1*%
%TO.N,InhibV+*%
X-18140000Y-35590000D03*
%TD*%
%TO.P,TP108,1*%
%TO.N,I2C_DATA*%
X-67720000Y-20190000D03*
%TD*%
%TO.P,TP107,1*%
%TO.N,GND*%
X-8300000Y-26800000D03*
%TD*%
%TO.P,TP106,1*%
%TO.N,Net-(D204-Pad6)*%
X-28230000Y-19660000D03*
%TD*%
%TO.P,TP105,1*%
%TO.N,+3V3*%
X-9350000Y-12670000D03*
%TD*%
%TO.P,TP104,1*%
%TO.N,USB_Charge*%
X-26770000Y-15310000D03*
%TD*%
%TO.P,TP103,1*%
%TO.N,Net-(SW201-Pad1)*%
X-13770000Y-65230000D03*
%TD*%
%TO.P,TP102,1*%
%TO.N,+5V*%
X-24870000Y-54640000D03*
%TD*%
%TO.P,TP101,1*%
%TO.N,B*%
X-35490000Y-48450000D03*
%TD*%
D14*
%TO.P,J202,5*%
%TO.N,Net-(BT201-Pad2)*%
X-5310000Y-24920000D03*
%TO.P,J202,4*%
%TO.N,InhibV+*%
X-5310000Y-23670000D03*
%TO.P,J202,3*%
%TO.N,Net-(J202-Pad3)*%
X-5310000Y-22420000D03*
%TO.P,J202,2*%
%TO.N,Net-(D204-Pad6)*%
X-5310000Y-21170000D03*
%TO.P,J202,1*%
%TO.N,USB_Charge*%
%TA.AperFunction,ComponentPad*%
G36*
G01*
X-5785000Y-19470000D02*
X-4835000Y-19470000D01*
G75*
G02*
X-4610000Y-19695000I0J-225000D01*
G01*
X-4610000Y-20145000D01*
G75*
G02*
X-4835000Y-20370000I-225000J0D01*
G01*
X-5785000Y-20370000D01*
G75*
G02*
X-6010000Y-20145000I0J225000D01*
G01*
X-6010000Y-19695000D01*
G75*
G02*
X-5785000Y-19470000I225000J0D01*
G01*
G37*
%TD.AperFunction*%
%TD*%
D15*
%TO.P,U202,6*%
%TO.N,CHRG_ON-OFF*%
X-35810000Y-56740000D03*
%TO.P,U202,5*%
%TO.N,+5V*%
X-35810000Y-57690000D03*
%TO.P,U202,4*%
%TO.N,Net-(R105-Pad1)*%
X-35810000Y-58640000D03*
%TO.P,U202,3*%
%TO.N,Net-(R102-Pad1)*%
X-38430000Y-58640000D03*
%TO.P,U202,2*%
%TO.N,GND*%
X-38430000Y-57690000D03*
%TO.P,U202,1*%
%TO.N,CHRG_ON-OFF*%
X-38430000Y-56740000D03*
%TD*%
D16*
%TO.P,U101,8*%
%TO.N,+5V*%
X-65126200Y-53175000D03*
%TO.P,U101,7*%
%TO.N,GND*%
X-65126200Y-54445000D03*
%TO.P,U101,6*%
X-65126200Y-55715000D03*
%TO.P,U101,5*%
%TO.N,CHRG_ON-OFF*%
X-65126200Y-56985000D03*
%TO.P,U101,4*%
%TO.N,N/C*%
X-70053800Y-56985000D03*
%TO.P,U101,3*%
%TO.N,GND*%
X-70053800Y-55715000D03*
%TO.P,U101,2*%
%TO.N,Net-(R103-Pad2)*%
X-70053800Y-54445000D03*
%TO.P,U101,1*%
%TO.N,Net-(C103-Pad1)*%
X-70053800Y-53175000D03*
%TD*%
%TO.P,R110,2*%
%TO.N,+5V*%
%TA.AperFunction,SMDPad,CuDef*%
G36*
G01*
X-23119998Y-47690000D02*
X-24020002Y-47690000D01*
G75*
G02*
X-24270000Y-47440002I0J249998D01*
G01*
X-24270000Y-46914998D01*
G75*
G02*
X-24020002Y-46665000I249998J0D01*
G01*
X-23119998Y-46665000D01*
G75*
G02*
X-22870000Y-46914998I0J-249998D01*
G01*
X-22870000Y-47440002D01*
G75*
G02*
X-23119998Y-47690000I-249998J0D01*
G01*
G37*
%TD.AperFunction*%
%TO.P,R110,1*%
%TO.N,Net-(D204-Pad2)*%
%TA.AperFunction,SMDPad,CuDef*%
G36*
G01*
X-23119998Y-49515000D02*
X-24020002Y-49515000D01*
G75*
G02*
X-24270000Y-49265002I0J249998D01*
G01*
X-24270000Y-48739998D01*
G75*
G02*
X-24020002Y-48490000I249998J0D01*
G01*
X-23119998Y-48490000D01*
G75*
G02*
X-22870000Y-48739998I0J-249998D01*
G01*
X-22870000Y-49265002D01*
G75*
G02*
X-23119998Y-49515000I-249998J0D01*
G01*
G37*
%TD.AperFunction*%
%TD*%
%TO.P,R109,2*%
%TO.N,GND*%
%TA.AperFunction,SMDPad,CuDef*%
G36*
G01*
X-27350002Y-62058000D02*
X-26449998Y-62058000D01*
G75*
G02*
X-26200000Y-62307998I0J-249998D01*
G01*
X-26200000Y-62833002D01*
G75*
G02*
X-26449998Y-63083000I-249998J0D01*
G01*
X-27350002Y-63083000D01*
G75*
G02*
X-27600000Y-62833002I0J249998D01*
G01*
X-27600000Y-62307998D01*
G75*
G02*
X-27350002Y-62058000I249998J0D01*
G01*
G37*
%TD.AperFunction*%
%TO.P,R109,1*%
%TO.N,InhibV+*%
%TA.AperFunction,SMDPad,CuDef*%
G36*
G01*
X-27350002Y-60233000D02*
X-26449998Y-60233000D01*
G75*
G02*
X-26200000Y-60482998I0J-249998D01*
G01*
X-26200000Y-61008002D01*
G75*
G02*
X-26449998Y-61258000I-249998J0D01*
G01*
X-27350002Y-61258000D01*
G75*
G02*
X-27600000Y-61008002I0J249998D01*
G01*
X-27600000Y-60482998D01*
G75*
G02*
X-27350002Y-60233000I249998J0D01*
G01*
G37*
%TD.AperFunction*%
%TD*%
%TO.P,R108,2*%
%TO.N,Net-(R105-Pad1)*%
%TA.AperFunction,SMDPad,CuDef*%
G36*
G01*
X-32322500Y-63980002D02*
X-32322500Y-63079998D01*
G75*
G02*
X-32072502Y-62830000I249998J0D01*
G01*
X-31547498Y-62830000D01*
G75*
G02*
X-31297500Y-63079998I0J-249998D01*
G01*
X-31297500Y-63980002D01*
G75*
G02*
X-31547498Y-64230000I-249998J0D01*
G01*
X-32072502Y-64230000D01*
G75*
G02*
X-32322500Y-63980002I0J249998D01*
G01*
G37*
%TD.AperFunction*%
%TO.P,R108,1*%
%TO.N,GND*%
%TA.AperFunction,SMDPad,CuDef*%
G36*
G01*
X-34147500Y-63980002D02*
X-34147500Y-63079998D01*
G75*
G02*
X-33897502Y-62830000I249998J0D01*
G01*
X-33372498Y-62830000D01*
G75*
G02*
X-33122500Y-63079998I0J-249998D01*
G01*
X-33122500Y-63980002D01*
G75*
G02*
X-33372498Y-64230000I-249998J0D01*
G01*
X-33897502Y-64230000D01*
G75*
G02*
X-34147500Y-63980002I0J249998D01*
G01*
G37*
%TD.AperFunction*%
%TD*%
%TO.P,R107,2*%
%TO.N,Net-(D102-Pad1)*%
%TA.AperFunction,SMDPad,CuDef*%
G36*
G01*
X-62840000Y-62170002D02*
X-62840000Y-61269998D01*
G75*
G02*
X-62590002Y-61020000I249998J0D01*
G01*
X-62064998Y-61020000D01*
G75*
G02*
X-61815000Y-61269998I0J-249998D01*
G01*
X-61815000Y-62170002D01*
G75*
G02*
X-62064998Y-62420000I-249998J0D01*
G01*
X-62590002Y-62420000D01*
G75*
G02*
X-62840000Y-62170002I0J249998D01*
G01*
G37*
%TD.AperFunction*%
%TO.P,R107,1*%
%TO.N,A*%
%TA.AperFunction,SMDPad,CuDef*%
G36*
G01*
X-64665000Y-62170002D02*
X-64665000Y-61269998D01*
G75*
G02*
X-64415002Y-61020000I249998J0D01*
G01*
X-63889998Y-61020000D01*
G75*
G02*
X-63640000Y-61269998I0J-249998D01*
G01*
X-63640000Y-62170002D01*
G75*
G02*
X-63889998Y-62420000I-249998J0D01*
G01*
X-64415002Y-62420000D01*
G75*
G02*
X-64665000Y-62170002I0J249998D01*
G01*
G37*
%TD.AperFunction*%
%TD*%
%TO.P,R106,2*%
%TO.N,GND*%
%TA.AperFunction,SMDPad,CuDef*%
G36*
G01*
X-38110000Y-52089998D02*
X-38110000Y-52990002D01*
G75*
G02*
X-38359998Y-53240000I-249998J0D01*
G01*
X-38885002Y-53240000D01*
G75*
G02*
X-39135000Y-52990002I0J249998D01*
G01*
X-39135000Y-52089998D01*
G75*
G02*
X-38885002Y-51840000I249998J0D01*
G01*
X-38359998Y-51840000D01*
G75*
G02*
X-38110000Y-52089998I0J-249998D01*
G01*
G37*
%TD.AperFunction*%
%TO.P,R106,1*%
%TO.N,/Inhib_in*%
%TA.AperFunction,SMDPad,CuDef*%
G36*
G01*
X-36285000Y-52089998D02*
X-36285000Y-52990002D01*
G75*
G02*
X-36534998Y-53240000I-249998J0D01*
G01*
X-37060002Y-53240000D01*
G75*
G02*
X-37310000Y-52990002I0J249998D01*
G01*
X-37310000Y-52089998D01*
G75*
G02*
X-37060002Y-51840000I249998J0D01*
G01*
X-36534998Y-51840000D01*
G75*
G02*
X-36285000Y-52089998I0J-249998D01*
G01*
G37*
%TD.AperFunction*%
%TD*%
%TO.P,R105,2*%
%TO.N,Net-(R102-Pad1)*%
%TA.AperFunction,SMDPad,CuDef*%
G36*
G01*
X-38370000Y-62369998D02*
X-38370000Y-63270002D01*
G75*
G02*
X-38619998Y-63520000I-249998J0D01*
G01*
X-39145002Y-63520000D01*
G75*
G02*
X-39395000Y-63270002I0J249998D01*
G01*
X-39395000Y-62369998D01*
G75*
G02*
X-39145002Y-62120000I249998J0D01*
G01*
X-38619998Y-62120000D01*
G75*
G02*
X-38370000Y-62369998I0J-249998D01*
G01*
G37*
%TD.AperFunction*%
%TO.P,R105,1*%
%TO.N,Net-(R105-Pad1)*%
%TA.AperFunction,SMDPad,CuDef*%
G36*
G01*
X-36545000Y-62369998D02*
X-36545000Y-63270002D01*
G75*
G02*
X-36794998Y-63520000I-249998J0D01*
G01*
X-37320002Y-63520000D01*
G75*
G02*
X-37570000Y-63270002I0J249998D01*
G01*
X-37570000Y-62369998D01*
G75*
G02*
X-37320002Y-62120000I249998J0D01*
G01*
X-36794998Y-62120000D01*
G75*
G02*
X-36545000Y-62369998I0J-249998D01*
G01*
G37*
%TD.AperFunction*%
%TD*%
%TO.P,R104,2*%
%TO.N,GND*%
%TA.AperFunction,SMDPad,CuDef*%
G36*
G01*
X-80180002Y-58570000D02*
X-79279998Y-58570000D01*
G75*
G02*
X-79030000Y-58819998I0J-249998D01*
G01*
X-79030000Y-59345002D01*
G75*
G02*
X-79279998Y-59595000I-249998J0D01*
G01*
X-80180002Y-59595000D01*
G75*
G02*
X-80430000Y-59345002I0J249998D01*
G01*
X-80430000Y-58819998D01*
G75*
G02*
X-80180002Y-58570000I249998J0D01*
G01*
G37*
%TD.AperFunction*%
%TO.P,R104,1*%
%TO.N,Net-(R103-Pad2)*%
%TA.AperFunction,SMDPad,CuDef*%
G36*
G01*
X-80180002Y-56745000D02*
X-79279998Y-56745000D01*
G75*
G02*
X-79030000Y-56994998I0J-249998D01*
G01*
X-79030000Y-57520002D01*
G75*
G02*
X-79279998Y-57770000I-249998J0D01*
G01*
X-80180002Y-57770000D01*
G75*
G02*
X-80430000Y-57520002I0J249998D01*
G01*
X-80430000Y-56994998D01*
G75*
G02*
X-80180002Y-56745000I249998J0D01*
G01*
G37*
%TD.AperFunction*%
%TD*%
%TO.P,R103,2*%
%TO.N,Net-(R103-Pad2)*%
%TA.AperFunction,SMDPad,CuDef*%
G36*
G01*
X-79610002Y-51610000D02*
X-78709998Y-51610000D01*
G75*
G02*
X-78460000Y-51859998I0J-249998D01*
G01*
X-78460000Y-52385002D01*
G75*
G02*
X-78709998Y-52635000I-249998J0D01*
G01*
X-79610002Y-52635000D01*
G75*
G02*
X-79860000Y-52385002I0J249998D01*
G01*
X-79860000Y-51859998D01*
G75*
G02*
X-79610002Y-51610000I249998J0D01*
G01*
G37*
%TD.AperFunction*%
%TO.P,R103,1*%
%TO.N,Net-(C103-Pad1)*%
%TA.AperFunction,SMDPad,CuDef*%
G36*
G01*
X-79610002Y-49785000D02*
X-78709998Y-49785000D01*
G75*
G02*
X-78460000Y-50034998I0J-249998D01*
G01*
X-78460000Y-50560002D01*
G75*
G02*
X-78709998Y-50810000I-249998J0D01*
G01*
X-79610002Y-50810000D01*
G75*
G02*
X-79860000Y-50560002I0J249998D01*
G01*
X-79860000Y-50034998D01*
G75*
G02*
X-79610002Y-49785000I249998J0D01*
G01*
G37*
%TD.AperFunction*%
%TD*%
%TO.P,R102,2*%
%TO.N,B*%
%TA.AperFunction,SMDPad,CuDef*%
G36*
G01*
X-42479998Y-59278000D02*
X-43380002Y-59278000D01*
G75*
G02*
X-43630000Y-59028002I0J249998D01*
G01*
X-43630000Y-58502998D01*
G75*
G02*
X-43380002Y-58253000I249998J0D01*
G01*
X-42479998Y-58253000D01*
G75*
G02*
X-42230000Y-58502998I0J-249998D01*
G01*
X-42230000Y-59028002D01*
G75*
G02*
X-42479998Y-59278000I-249998J0D01*
G01*
G37*
%TD.AperFunction*%
%TO.P,R102,1*%
%TO.N,Net-(R102-Pad1)*%
%TA.AperFunction,SMDPad,CuDef*%
G36*
G01*
X-42479998Y-61103000D02*
X-43380002Y-61103000D01*
G75*
G02*
X-43630000Y-60853002I0J249998D01*
G01*
X-43630000Y-60327998D01*
G75*
G02*
X-43380002Y-60078000I249998J0D01*
G01*
X-42479998Y-60078000D01*
G75*
G02*
X-42230000Y-60327998I0J-249998D01*
G01*
X-42230000Y-60853002D01*
G75*
G02*
X-42479998Y-61103000I-249998J0D01*
G01*
G37*
%TD.AperFunction*%
%TD*%
%TO.P,R101,2*%
%TO.N,CHRG_ON-OFF*%
%TA.AperFunction,SMDPad,CuDef*%
G36*
G01*
X-30609998Y-57480000D02*
X-31510002Y-57480000D01*
G75*
G02*
X-31760000Y-57230002I0J249998D01*
G01*
X-31760000Y-56704998D01*
G75*
G02*
X-31510002Y-56455000I249998J0D01*
G01*
X-30609998Y-56455000D01*
G75*
G02*
X-30360000Y-56704998I0J-249998D01*
G01*
X-30360000Y-57230002D01*
G75*
G02*
X-30609998Y-57480000I-249998J0D01*
G01*
G37*
%TD.AperFunction*%
%TO.P,R101,1*%
%TO.N,+5V*%
%TA.AperFunction,SMDPad,CuDef*%
G36*
G01*
X-30609998Y-59305000D02*
X-31510002Y-59305000D01*
G75*
G02*
X-31760000Y-59055002I0J249998D01*
G01*
X-31760000Y-58529998D01*
G75*
G02*
X-31510002Y-58280000I249998J0D01*
G01*
X-30609998Y-58280000D01*
G75*
G02*
X-30360000Y-58529998I0J-249998D01*
G01*
X-30360000Y-59055002D01*
G75*
G02*
X-30609998Y-59305000I-249998J0D01*
G01*
G37*
%TD.AperFunction*%
%TD*%
D17*
%TO.P,D102,2*%
%TO.N,Net-(C103-Pad1)*%
X-74700000Y-61150000D03*
%TO.P,D102,1*%
%TO.N,Net-(D102-Pad1)*%
X-72600000Y-61150000D03*
%TD*%
%TO.P,C103,2*%
%TO.N,GND*%
%TA.AperFunction,SMDPad,CuDef*%
G36*
G01*
X-71130000Y-47535000D02*
X-71130000Y-46585000D01*
G75*
G02*
X-70880000Y-46335000I250000J0D01*
G01*
X-70380000Y-46335000D01*
G75*
G02*
X-70130000Y-46585000I0J-250000D01*
G01*
X-70130000Y-47535000D01*
G75*
G02*
X-70380000Y-47785000I-250000J0D01*
G01*
X-70880000Y-47785000D01*
G75*
G02*
X-71130000Y-47535000I0J250000D01*
G01*
G37*
%TD.AperFunction*%
%TO.P,C103,1*%
%TO.N,Net-(C103-Pad1)*%
%TA.AperFunction,SMDPad,CuDef*%
G36*
G01*
X-73030000Y-47535000D02*
X-73030000Y-46585000D01*
G75*
G02*
X-72780000Y-46335000I250000J0D01*
G01*
X-72280000Y-46335000D01*
G75*
G02*
X-72030000Y-46585000I0J-250000D01*
G01*
X-72030000Y-47535000D01*
G75*
G02*
X-72280000Y-47785000I-250000J0D01*
G01*
X-72780000Y-47785000D01*
G75*
G02*
X-73030000Y-47535000I0J250000D01*
G01*
G37*
%TD.AperFunction*%
%TD*%
%TO.P,C102,2*%
%TO.N,GND*%
%TA.AperFunction,SMDPad,CuDef*%
G36*
G01*
X-62265000Y-47510000D02*
X-61315000Y-47510000D01*
G75*
G02*
X-61065000Y-47760000I0J-250000D01*
G01*
X-61065000Y-48260000D01*
G75*
G02*
X-61315000Y-48510000I-250000J0D01*
G01*
X-62265000Y-48510000D01*
G75*
G02*
X-62515000Y-48260000I0J250000D01*
G01*
X-62515000Y-47760000D01*
G75*
G02*
X-62265000Y-47510000I250000J0D01*
G01*
G37*
%TD.AperFunction*%
%TO.P,C102,1*%
%TO.N,+5V*%
%TA.AperFunction,SMDPad,CuDef*%
G36*
G01*
X-62265000Y-45610000D02*
X-61315000Y-45610000D01*
G75*
G02*
X-61065000Y-45860000I0J-250000D01*
G01*
X-61065000Y-46360000D01*
G75*
G02*
X-61315000Y-46610000I-250000J0D01*
G01*
X-62265000Y-46610000D01*
G75*
G02*
X-62515000Y-46360000I0J250000D01*
G01*
X-62515000Y-45860000D01*
G75*
G02*
X-62265000Y-45610000I250000J0D01*
G01*
G37*
%TD.AperFunction*%
%TD*%
%TO.P,C101,2*%
%TO.N,GND*%
%TA.AperFunction,SMDPad,CuDef*%
G36*
G01*
X-47485000Y-55400000D02*
X-46535000Y-55400000D01*
G75*
G02*
X-46285000Y-55650000I0J-250000D01*
G01*
X-46285000Y-56150000D01*
G75*
G02*
X-46535000Y-56400000I-250000J0D01*
G01*
X-47485000Y-56400000D01*
G75*
G02*
X-47735000Y-56150000I0J250000D01*
G01*
X-47735000Y-55650000D01*
G75*
G02*
X-47485000Y-55400000I250000J0D01*
G01*
G37*
%TD.AperFunction*%
%TO.P,C101,1*%
%TO.N,+5V*%
%TA.AperFunction,SMDPad,CuDef*%
G36*
G01*
X-47485000Y-53500000D02*
X-46535000Y-53500000D01*
G75*
G02*
X-46285000Y-53750000I0J-250000D01*
G01*
X-46285000Y-54250000D01*
G75*
G02*
X-46535000Y-54500000I-250000J0D01*
G01*
X-47485000Y-54500000D01*
G75*
G02*
X-47735000Y-54250000I0J250000D01*
G01*
X-47735000Y-53750000D01*
G75*
G02*
X-47485000Y-53500000I250000J0D01*
G01*
G37*
%TD.AperFunction*%
%TD*%
D18*
%TO.P,BT203,1*%
%TO.N,A*%
X-21630000Y-64510000D03*
%TO.P,BT203,2*%
%TO.N,Net-(BT201-Pad2)*%
X-21630000Y-93810000D03*
%TD*%
D19*
%TO.P,J207,52*%
%TO.N,N/C*%
X-12620000Y-7350000D03*
%TO.P,J207,51*%
X-12620000Y-4810000D03*
%TO.P,J207,50*%
X-15160000Y-7350000D03*
%TO.P,J207,49*%
X-15160000Y-4810000D03*
%TO.P,J207,48*%
X-17700000Y-7350000D03*
%TO.P,J207,47*%
X-17700000Y-4810000D03*
%TO.P,J207,46*%
X-20240000Y-7350000D03*
%TO.P,J207,45*%
X-20240000Y-4810000D03*
%TO.P,J207,44*%
X-22780000Y-7350000D03*
%TO.P,J207,43*%
X-22780000Y-4810000D03*
%TO.P,J207,42*%
X-25320000Y-7350000D03*
%TO.P,J207,41*%
X-25320000Y-4810000D03*
%TO.P,J207,40*%
X-27860000Y-7350000D03*
%TO.P,J207,39*%
X-27860000Y-4810000D03*
%TO.P,J207,38*%
X-30400000Y-7350000D03*
%TO.P,J207,37*%
X-30400000Y-4810000D03*
%TO.P,J207,36*%
X-32940000Y-7350000D03*
%TO.P,J207,35*%
X-32940000Y-4810000D03*
%TO.P,J207,34*%
X-35480000Y-7350000D03*
%TO.P,J207,33*%
X-35480000Y-4810000D03*
%TO.P,J207,32*%
%TO.N,GND*%
X-38020000Y-7350000D03*
%TO.P,J207,31*%
%TO.N,N/C*%
X-38020000Y-4810000D03*
%TO.P,J207,30*%
%TO.N,GND*%
X-40560000Y-7350000D03*
%TO.P,J207,29*%
X-40560000Y-4810000D03*
%TO.P,J207,28*%
%TO.N,+3V3*%
X-43100000Y-7350000D03*
%TO.P,J207,27*%
X-43100000Y-4810000D03*
%TO.P,J207,26*%
%TO.N,+5V*%
X-45640000Y-7350000D03*
%TO.P,J207,25*%
X-45640000Y-4810000D03*
%TO.P,J207,24*%
%TO.N,N/C*%
X-48180000Y-7350000D03*
%TO.P,J207,23*%
X-48180000Y-4810000D03*
%TO.P,J207,22*%
X-50720000Y-7350000D03*
%TO.P,J207,21*%
X-50720000Y-4810000D03*
%TO.P,J207,20*%
X-53260000Y-7350000D03*
%TO.P,J207,19*%
X-53260000Y-4810000D03*
%TO.P,J207,18*%
X-55800000Y-7350000D03*
%TO.P,J207,17*%
X-55800000Y-4810000D03*
%TO.P,J207,16*%
X-58340000Y-7350000D03*
%TO.P,J207,15*%
X-58340000Y-4810000D03*
%TO.P,J207,14*%
X-60880000Y-7350000D03*
%TO.P,J207,13*%
X-60880000Y-4810000D03*
%TO.P,J207,12*%
X-63420000Y-7350000D03*
%TO.P,J207,11*%
X-63420000Y-4810000D03*
%TO.P,J207,10*%
X-65960000Y-7350000D03*
%TO.P,J207,9*%
X-65960000Y-4810000D03*
%TO.P,J207,8*%
X-68500000Y-7350000D03*
%TO.P,J207,7*%
X-68500000Y-4810000D03*
%TO.P,J207,6*%
X-71040000Y-7350000D03*
%TO.P,J207,5*%
X-71040000Y-4810000D03*
%TO.P,J207,4*%
X-73580000Y-7350000D03*
%TO.P,J207,3*%
X-73580000Y-4810000D03*
%TO.P,J207,2*%
X-76120000Y-7350000D03*
D20*
%TO.P,J207,1*%
X-76120000Y-4810000D03*
%TD*%
%TO.P,R215,2*%
%TO.N,Net-(Q204-Pad1)*%
%TA.AperFunction,SMDPad,CuDef*%
G36*
G01*
X-77060798Y-39182100D02*
X-77960802Y-39182100D01*
G75*
G02*
X-78210800Y-38932102I0J249998D01*
G01*
X-78210800Y-38407098D01*
G75*
G02*
X-77960802Y-38157100I249998J0D01*
G01*
X-77060798Y-38157100D01*
G75*
G02*
X-76810800Y-38407098I0J-249998D01*
G01*
X-76810800Y-38932102D01*
G75*
G02*
X-77060798Y-39182100I-249998J0D01*
G01*
G37*
%TD.AperFunction*%
%TO.P,R215,1*%
%TO.N,/Inhib_in*%
%TA.AperFunction,SMDPad,CuDef*%
G36*
G01*
X-77060798Y-41007100D02*
X-77960802Y-41007100D01*
G75*
G02*
X-78210800Y-40757102I0J249998D01*
G01*
X-78210800Y-40232098D01*
G75*
G02*
X-77960802Y-39982100I249998J0D01*
G01*
X-77060798Y-39982100D01*
G75*
G02*
X-76810800Y-40232098I0J-249998D01*
G01*
X-76810800Y-40757102D01*
G75*
G02*
X-77060798Y-41007100I-249998J0D01*
G01*
G37*
%TD.AperFunction*%
%TD*%
D21*
%TO.P,Q206,3*%
%TO.N,Net-(Q206-Pad3)*%
X-80322600Y-42077800D03*
%TO.P,Q206,2*%
%TO.N,GND*%
X-81272600Y-39077800D03*
%TO.P,Q206,1*%
%TO.N,Net-(Q206-Pad1)*%
X-79372600Y-39077800D03*
%TD*%
%TO.P,Q204,3*%
%TO.N,Net-(Q204-Pad3)*%
X-9479000Y-54966000D03*
%TO.P,Q204,2*%
%TO.N,GND*%
X-8529000Y-57966000D03*
%TO.P,Q204,1*%
%TO.N,Net-(Q204-Pad1)*%
X-10429000Y-57966000D03*
%TD*%
%TO.P,R210,2*%
%TO.N,GND*%
%TA.AperFunction,SMDPad,CuDef*%
G36*
G01*
X-11862000Y-43021998D02*
X-11862000Y-43922002D01*
G75*
G02*
X-12111998Y-44172000I-249998J0D01*
G01*
X-12637002Y-44172000D01*
G75*
G02*
X-12887000Y-43922002I0J249998D01*
G01*
X-12887000Y-43021998D01*
G75*
G02*
X-12637002Y-42772000I249998J0D01*
G01*
X-12111998Y-42772000D01*
G75*
G02*
X-11862000Y-43021998I0J-249998D01*
G01*
G37*
%TD.AperFunction*%
%TO.P,R210,1*%
%TO.N,Net-(R210-Pad1)*%
%TA.AperFunction,SMDPad,CuDef*%
G36*
G01*
X-10037000Y-43021998D02*
X-10037000Y-43922002D01*
G75*
G02*
X-10286998Y-44172000I-249998J0D01*
G01*
X-10812002Y-44172000D01*
G75*
G02*
X-11062000Y-43922002I0J249998D01*
G01*
X-11062000Y-43021998D01*
G75*
G02*
X-10812002Y-42772000I249998J0D01*
G01*
X-10286998Y-42772000D01*
G75*
G02*
X-10037000Y-43021998I0J-249998D01*
G01*
G37*
%TD.AperFunction*%
%TD*%
D19*
%TO.P,J208,52*%
%TO.N,N/C*%
X-12620000Y-12620000D03*
%TO.P,J208,51*%
X-12620000Y-10080000D03*
%TO.P,J208,50*%
X-15160000Y-12620000D03*
%TO.P,J208,49*%
X-15160000Y-10080000D03*
%TO.P,J208,48*%
X-17700000Y-12620000D03*
%TO.P,J208,47*%
X-17700000Y-10080000D03*
%TO.P,J208,46*%
X-20240000Y-12620000D03*
%TO.P,J208,45*%
X-20240000Y-10080000D03*
%TO.P,J208,44*%
X-22780000Y-12620000D03*
%TO.P,J208,43*%
%TO.N,I2C_CLK*%
X-22780000Y-10080000D03*
%TO.P,J208,42*%
%TO.N,N/C*%
X-25320000Y-12620000D03*
%TO.P,J208,41*%
%TO.N,I2C_DATA*%
X-25320000Y-10080000D03*
%TO.P,J208,40*%
%TO.N,N/C*%
X-27860000Y-12620000D03*
%TO.P,J208,39*%
X-27860000Y-10080000D03*
%TO.P,J208,38*%
X-30400000Y-12620000D03*
%TO.P,J208,37*%
X-30400000Y-10080000D03*
%TO.P,J208,36*%
X-32940000Y-12620000D03*
%TO.P,J208,35*%
X-32940000Y-10080000D03*
%TO.P,J208,34*%
X-35480000Y-12620000D03*
%TO.P,J208,33*%
X-35480000Y-10080000D03*
%TO.P,J208,32*%
%TO.N,USB_Charge*%
X-38020000Y-12620000D03*
%TO.P,J208,31*%
%TO.N,N/C*%
X-38020000Y-10080000D03*
%TO.P,J208,30*%
X-40560000Y-12620000D03*
%TO.P,J208,29*%
X-40560000Y-10080000D03*
%TO.P,J208,28*%
X-43100000Y-12620000D03*
%TO.P,J208,27*%
X-43100000Y-10080000D03*
%TO.P,J208,26*%
X-45640000Y-12620000D03*
%TO.P,J208,25*%
X-45640000Y-10080000D03*
%TO.P,J208,24*%
X-48180000Y-12620000D03*
%TO.P,J208,23*%
X-48180000Y-10080000D03*
%TO.P,J208,22*%
X-50720000Y-12620000D03*
%TO.P,J208,21*%
X-50720000Y-10080000D03*
%TO.P,J208,20*%
X-53260000Y-12620000D03*
%TO.P,J208,19*%
X-53260000Y-10080000D03*
%TO.P,J208,18*%
X-55800000Y-12620000D03*
%TO.P,J208,17*%
X-55800000Y-10080000D03*
%TO.P,J208,16*%
X-58340000Y-12620000D03*
%TO.P,J208,15*%
X-58340000Y-10080000D03*
%TO.P,J208,14*%
X-60880000Y-12620000D03*
%TO.P,J208,13*%
X-60880000Y-10080000D03*
%TO.P,J208,12*%
X-63420000Y-12620000D03*
%TO.P,J208,11*%
X-63420000Y-10080000D03*
%TO.P,J208,10*%
X-65960000Y-12620000D03*
%TO.P,J208,9*%
X-65960000Y-10080000D03*
%TO.P,J208,8*%
X-68500000Y-12620000D03*
%TO.P,J208,7*%
X-68500000Y-10080000D03*
%TO.P,J208,6*%
X-71040000Y-12620000D03*
%TO.P,J208,5*%
X-71040000Y-10080000D03*
%TO.P,J208,4*%
X-73580000Y-12620000D03*
%TO.P,J208,3*%
X-73580000Y-10080000D03*
%TO.P,J208,2*%
X-76120000Y-12620000D03*
D20*
%TO.P,J208,1*%
X-76120000Y-10080000D03*
%TD*%
D22*
%TO.P,H102,1*%
%TO.N,N/C*%
X-7650000Y-5070000D03*
D23*
X-7650000Y-5070000D03*
%TD*%
D24*
%TO.P,D204,6*%
%TO.N,Net-(D204-Pad6)*%
X-30230000Y-45630000D03*
%TO.P,D204,5*%
%TO.N,Inhib_EN*%
X-29580000Y-45630000D03*
%TO.P,D204,4*%
%TO.N,+5V*%
X-28930000Y-45630000D03*
%TO.P,D204,3*%
%TO.N,/Inhib_in*%
X-28930000Y-48290000D03*
%TO.P,D204,2*%
%TO.N,Net-(D204-Pad2)*%
X-29580000Y-48290000D03*
%TO.P,D204,1*%
%TO.N,B*%
X-30230000Y-48290000D03*
%TD*%
%TO.P,R211,2*%
%TO.N,Net-(Q206-Pad1)*%
%TA.AperFunction,SMDPad,CuDef*%
G36*
G01*
X-12740002Y-57864000D02*
X-11839998Y-57864000D01*
G75*
G02*
X-11590000Y-58113998I0J-249998D01*
G01*
X-11590000Y-58639002D01*
G75*
G02*
X-11839998Y-58889000I-249998J0D01*
G01*
X-12740002Y-58889000D01*
G75*
G02*
X-12990000Y-58639002I0J249998D01*
G01*
X-12990000Y-58113998D01*
G75*
G02*
X-12740002Y-57864000I249998J0D01*
G01*
G37*
%TD.AperFunction*%
%TO.P,R211,1*%
%TO.N,/Inhib_in*%
%TA.AperFunction,SMDPad,CuDef*%
G36*
G01*
X-12740002Y-56039000D02*
X-11839998Y-56039000D01*
G75*
G02*
X-11590000Y-56288998I0J-249998D01*
G01*
X-11590000Y-56814002D01*
G75*
G02*
X-11839998Y-57064000I-249998J0D01*
G01*
X-12740002Y-57064000D01*
G75*
G02*
X-12990000Y-56814002I0J249998D01*
G01*
X-12990000Y-56288998D01*
G75*
G02*
X-12740002Y-56039000I249998J0D01*
G01*
G37*
%TD.AperFunction*%
%TD*%
%TO.P,R214,2*%
%TO.N,Net-(Q205-Pad3)*%
%TA.AperFunction,SMDPad,CuDef*%
G36*
G01*
X-6456998Y-33028200D02*
X-7357002Y-33028200D01*
G75*
G02*
X-7607000Y-32778202I0J249998D01*
G01*
X-7607000Y-32253198D01*
G75*
G02*
X-7357002Y-32003200I249998J0D01*
G01*
X-6456998Y-32003200D01*
G75*
G02*
X-6207000Y-32253198I0J-249998D01*
G01*
X-6207000Y-32778202D01*
G75*
G02*
X-6456998Y-33028200I-249998J0D01*
G01*
G37*
%TD.AperFunction*%
%TO.P,R214,1*%
%TO.N,Net-(R214-Pad1)*%
%TA.AperFunction,SMDPad,CuDef*%
G36*
G01*
X-6456998Y-34853200D02*
X-7357002Y-34853200D01*
G75*
G02*
X-7607000Y-34603202I0J249998D01*
G01*
X-7607000Y-34078198D01*
G75*
G02*
X-7357002Y-33828200I249998J0D01*
G01*
X-6456998Y-33828200D01*
G75*
G02*
X-6207000Y-34078198I0J-249998D01*
G01*
X-6207000Y-34603202D01*
G75*
G02*
X-6456998Y-34853200I-249998J0D01*
G01*
G37*
%TD.AperFunction*%
%TD*%
%TO.P,U260,4*%
%TO.N,Net-(J206-Pad1)*%
%TA.AperFunction,SMDPad,CuDef*%
G36*
G01*
X-82350100Y-36610000D02*
X-82350100Y-36885000D01*
G75*
G02*
X-82487600Y-37022500I-137500J0D01*
G01*
X-83662600Y-37022500D01*
G75*
G02*
X-83800100Y-36885000I0J137500D01*
G01*
X-83800100Y-36610000D01*
G75*
G02*
X-83662600Y-36472500I137500J0D01*
G01*
X-82487600Y-36472500D01*
G75*
G02*
X-82350100Y-36610000I0J-137500D01*
G01*
G37*
%TD.AperFunction*%
%TO.P,U260,3*%
%TO.N,Net-(J206-Pad2)*%
%TA.AperFunction,SMDPad,CuDef*%
G36*
G01*
X-82350100Y-34070000D02*
X-82350100Y-34345000D01*
G75*
G02*
X-82487600Y-34482500I-137500J0D01*
G01*
X-83662600Y-34482500D01*
G75*
G02*
X-83800100Y-34345000I0J137500D01*
G01*
X-83800100Y-34070000D01*
G75*
G02*
X-83662600Y-33932500I137500J0D01*
G01*
X-82487600Y-33932500D01*
G75*
G02*
X-82350100Y-34070000I0J-137500D01*
G01*
G37*
%TD.AperFunction*%
%TO.P,U260,2*%
%TO.N,Net-(R216-Pad1)*%
%TA.AperFunction,SMDPad,CuDef*%
G36*
G01*
X-76850100Y-34070000D02*
X-76850100Y-34345000D01*
G75*
G02*
X-76987600Y-34482500I-137500J0D01*
G01*
X-78162600Y-34482500D01*
G75*
G02*
X-78300100Y-34345000I0J137500D01*
G01*
X-78300100Y-34070000D01*
G75*
G02*
X-78162600Y-33932500I137500J0D01*
G01*
X-76987600Y-33932500D01*
G75*
G02*
X-76850100Y-34070000I0J-137500D01*
G01*
G37*
%TD.AperFunction*%
%TO.P,U260,1*%
%TO.N,InhibV+*%
%TA.AperFunction,SMDPad,CuDef*%
G36*
G01*
X-76850100Y-36610000D02*
X-76850100Y-36885000D01*
G75*
G02*
X-76987600Y-37022500I-137500J0D01*
G01*
X-78162600Y-37022500D01*
G75*
G02*
X-78300100Y-36885000I0J137500D01*
G01*
X-78300100Y-36610000D01*
G75*
G02*
X-78162600Y-36472500I137500J0D01*
G01*
X-76987600Y-36472500D01*
G75*
G02*
X-76850100Y-36610000I0J-137500D01*
G01*
G37*
%TD.AperFunction*%
%TD*%
%TO.P,U240,4*%
%TO.N,Net-(J204-Pad1)*%
%TA.AperFunction,SMDPad,CuDef*%
G36*
G01*
X-7471000Y-60519500D02*
X-7471000Y-60244500D01*
G75*
G02*
X-7333500Y-60107000I137500J0D01*
G01*
X-6158500Y-60107000D01*
G75*
G02*
X-6021000Y-60244500I0J-137500D01*
G01*
X-6021000Y-60519500D01*
G75*
G02*
X-6158500Y-60657000I-137500J0D01*
G01*
X-7333500Y-60657000D01*
G75*
G02*
X-7471000Y-60519500I0J137500D01*
G01*
G37*
%TD.AperFunction*%
%TO.P,U240,3*%
%TO.N,Net-(J204-Pad2)*%
%TA.AperFunction,SMDPad,CuDef*%
G36*
G01*
X-7471000Y-63059500D02*
X-7471000Y-62784500D01*
G75*
G02*
X-7333500Y-62647000I137500J0D01*
G01*
X-6158500Y-62647000D01*
G75*
G02*
X-6021000Y-62784500I0J-137500D01*
G01*
X-6021000Y-63059500D01*
G75*
G02*
X-6158500Y-63197000I-137500J0D01*
G01*
X-7333500Y-63197000D01*
G75*
G02*
X-7471000Y-63059500I0J137500D01*
G01*
G37*
%TD.AperFunction*%
%TO.P,U240,2*%
%TO.N,Net-(R212-Pad1)*%
%TA.AperFunction,SMDPad,CuDef*%
G36*
G01*
X-12971000Y-63059500D02*
X-12971000Y-62784500D01*
G75*
G02*
X-12833500Y-62647000I137500J0D01*
G01*
X-11658500Y-62647000D01*
G75*
G02*
X-11521000Y-62784500I0J-137500D01*
G01*
X-11521000Y-63059500D01*
G75*
G02*
X-11658500Y-63197000I-137500J0D01*
G01*
X-12833500Y-63197000D01*
G75*
G02*
X-12971000Y-63059500I0J137500D01*
G01*
G37*
%TD.AperFunction*%
%TO.P,U240,1*%
%TO.N,InhibV+*%
%TA.AperFunction,SMDPad,CuDef*%
G36*
G01*
X-12971000Y-60519500D02*
X-12971000Y-60244500D01*
G75*
G02*
X-12833500Y-60107000I137500J0D01*
G01*
X-11658500Y-60107000D01*
G75*
G02*
X-11521000Y-60244500I0J-137500D01*
G01*
X-11521000Y-60519500D01*
G75*
G02*
X-11658500Y-60657000I-137500J0D01*
G01*
X-12833500Y-60657000D01*
G75*
G02*
X-12971000Y-60519500I0J137500D01*
G01*
G37*
%TD.AperFunction*%
%TD*%
%TO.P,R213,2*%
%TO.N,Net-(Q205-Pad1)*%
%TA.AperFunction,SMDPad,CuDef*%
G36*
G01*
X-12938002Y-33838300D02*
X-12037998Y-33838300D01*
G75*
G02*
X-11788000Y-34088298I0J-249998D01*
G01*
X-11788000Y-34613302D01*
G75*
G02*
X-12037998Y-34863300I-249998J0D01*
G01*
X-12938002Y-34863300D01*
G75*
G02*
X-13188000Y-34613302I0J249998D01*
G01*
X-13188000Y-34088298D01*
G75*
G02*
X-12938002Y-33838300I249998J0D01*
G01*
G37*
%TD.AperFunction*%
%TO.P,R213,1*%
%TO.N,/Inhib_in*%
%TA.AperFunction,SMDPad,CuDef*%
G36*
G01*
X-12938002Y-32013300D02*
X-12037998Y-32013300D01*
G75*
G02*
X-11788000Y-32263298I0J-249998D01*
G01*
X-11788000Y-32788302D01*
G75*
G02*
X-12037998Y-33038300I-249998J0D01*
G01*
X-12938002Y-33038300D01*
G75*
G02*
X-13188000Y-32788302I0J249998D01*
G01*
X-13188000Y-32263298D01*
G75*
G02*
X-12938002Y-32013300I249998J0D01*
G01*
G37*
%TD.AperFunction*%
%TD*%
%TO.P,R216,2*%
%TO.N,Net-(Q204-Pad3)*%
%TA.AperFunction,SMDPad,CuDef*%
G36*
G01*
X-83564002Y-39969400D02*
X-82663998Y-39969400D01*
G75*
G02*
X-82414000Y-40219398I0J-249998D01*
G01*
X-82414000Y-40744402D01*
G75*
G02*
X-82663998Y-40994400I-249998J0D01*
G01*
X-83564002Y-40994400D01*
G75*
G02*
X-83814000Y-40744402I0J249998D01*
G01*
X-83814000Y-40219398D01*
G75*
G02*
X-83564002Y-39969400I249998J0D01*
G01*
G37*
%TD.AperFunction*%
%TO.P,R216,1*%
%TO.N,Net-(R216-Pad1)*%
%TA.AperFunction,SMDPad,CuDef*%
G36*
G01*
X-83564002Y-38144400D02*
X-82663998Y-38144400D01*
G75*
G02*
X-82414000Y-38394398I0J-249998D01*
G01*
X-82414000Y-38919402D01*
G75*
G02*
X-82663998Y-39169400I-249998J0D01*
G01*
X-83564002Y-39169400D01*
G75*
G02*
X-83814000Y-38919402I0J249998D01*
G01*
X-83814000Y-38394398D01*
G75*
G02*
X-83564002Y-38144400I249998J0D01*
G01*
G37*
%TD.AperFunction*%
%TD*%
%TO.P,U250,4*%
%TO.N,Net-(J205-Pad1)*%
%TA.AperFunction,SMDPad,CuDef*%
G36*
G01*
X-7712000Y-36354600D02*
X-7712000Y-36079600D01*
G75*
G02*
X-7574500Y-35942100I137500J0D01*
G01*
X-6399500Y-35942100D01*
G75*
G02*
X-6262000Y-36079600I0J-137500D01*
G01*
X-6262000Y-36354600D01*
G75*
G02*
X-6399500Y-36492100I-137500J0D01*
G01*
X-7574500Y-36492100D01*
G75*
G02*
X-7712000Y-36354600I0J137500D01*
G01*
G37*
%TD.AperFunction*%
%TO.P,U250,3*%
%TO.N,Net-(J205-Pad2)*%
%TA.AperFunction,SMDPad,CuDef*%
G36*
G01*
X-7712000Y-38894600D02*
X-7712000Y-38619600D01*
G75*
G02*
X-7574500Y-38482100I137500J0D01*
G01*
X-6399500Y-38482100D01*
G75*
G02*
X-6262000Y-38619600I0J-137500D01*
G01*
X-6262000Y-38894600D01*
G75*
G02*
X-6399500Y-39032100I-137500J0D01*
G01*
X-7574500Y-39032100D01*
G75*
G02*
X-7712000Y-38894600I0J137500D01*
G01*
G37*
%TD.AperFunction*%
%TO.P,U250,2*%
%TO.N,Net-(R214-Pad1)*%
%TA.AperFunction,SMDPad,CuDef*%
G36*
G01*
X-13212000Y-38894600D02*
X-13212000Y-38619600D01*
G75*
G02*
X-13074500Y-38482100I137500J0D01*
G01*
X-11899500Y-38482100D01*
G75*
G02*
X-11762000Y-38619600I0J-137500D01*
G01*
X-11762000Y-38894600D01*
G75*
G02*
X-11899500Y-39032100I-137500J0D01*
G01*
X-13074500Y-39032100D01*
G75*
G02*
X-13212000Y-38894600I0J137500D01*
G01*
G37*
%TD.AperFunction*%
%TO.P,U250,1*%
%TO.N,InhibV+*%
%TA.AperFunction,SMDPad,CuDef*%
G36*
G01*
X-13212000Y-36354600D02*
X-13212000Y-36079600D01*
G75*
G02*
X-13074500Y-35942100I137500J0D01*
G01*
X-11899500Y-35942100D01*
G75*
G02*
X-11762000Y-36079600I0J-137500D01*
G01*
X-11762000Y-36354600D01*
G75*
G02*
X-11899500Y-36492100I-137500J0D01*
G01*
X-13074500Y-36492100D01*
G75*
G02*
X-13212000Y-36354600I0J137500D01*
G01*
G37*
%TD.AperFunction*%
%TD*%
%TO.P,R212,2*%
%TO.N,Net-(Q206-Pad3)*%
%TA.AperFunction,SMDPad,CuDef*%
G36*
G01*
X-6223998Y-57084000D02*
X-7124002Y-57084000D01*
G75*
G02*
X-7374000Y-56834002I0J249998D01*
G01*
X-7374000Y-56308998D01*
G75*
G02*
X-7124002Y-56059000I249998J0D01*
G01*
X-6223998Y-56059000D01*
G75*
G02*
X-5974000Y-56308998I0J-249998D01*
G01*
X-5974000Y-56834002D01*
G75*
G02*
X-6223998Y-57084000I-249998J0D01*
G01*
G37*
%TD.AperFunction*%
%TO.P,R212,1*%
%TO.N,Net-(R212-Pad1)*%
%TA.AperFunction,SMDPad,CuDef*%
G36*
G01*
X-6223998Y-58909000D02*
X-7124002Y-58909000D01*
G75*
G02*
X-7374000Y-58659002I0J249998D01*
G01*
X-7374000Y-58133998D01*
G75*
G02*
X-7124002Y-57884000I249998J0D01*
G01*
X-6223998Y-57884000D01*
G75*
G02*
X-5974000Y-58133998I0J-249998D01*
G01*
X-5974000Y-58659002D01*
G75*
G02*
X-6223998Y-58909000I-249998J0D01*
G01*
G37*
%TD.AperFunction*%
%TD*%
D21*
%TO.P,Q205,3*%
%TO.N,Net-(Q205-Pad3)*%
X-9704000Y-30917200D03*
%TO.P,Q205,2*%
%TO.N,GND*%
X-8754000Y-33917200D03*
%TO.P,Q205,1*%
%TO.N,Net-(Q205-Pad1)*%
X-10654000Y-33917200D03*
%TD*%
%TO.P,U230,4*%
%TO.N,Net-(J203-Pad1)*%
%TA.AperFunction,SMDPad,CuDef*%
G36*
G01*
X-9437000Y-45895500D02*
X-9437000Y-45620500D01*
G75*
G02*
X-9299500Y-45483000I137500J0D01*
G01*
X-8124500Y-45483000D01*
G75*
G02*
X-7987000Y-45620500I0J-137500D01*
G01*
X-7987000Y-45895500D01*
G75*
G02*
X-8124500Y-46033000I-137500J0D01*
G01*
X-9299500Y-46033000D01*
G75*
G02*
X-9437000Y-45895500I0J137500D01*
G01*
G37*
%TD.AperFunction*%
%TO.P,U230,3*%
%TO.N,Net-(J203-Pad2)*%
%TA.AperFunction,SMDPad,CuDef*%
G36*
G01*
X-9437000Y-48435500D02*
X-9437000Y-48160500D01*
G75*
G02*
X-9299500Y-48023000I137500J0D01*
G01*
X-8124500Y-48023000D01*
G75*
G02*
X-7987000Y-48160500I0J-137500D01*
G01*
X-7987000Y-48435500D01*
G75*
G02*
X-8124500Y-48573000I-137500J0D01*
G01*
X-9299500Y-48573000D01*
G75*
G02*
X-9437000Y-48435500I0J137500D01*
G01*
G37*
%TD.AperFunction*%
%TO.P,U230,2*%
%TO.N,Net-(R210-Pad1)*%
%TA.AperFunction,SMDPad,CuDef*%
G36*
G01*
X-14937000Y-48435500D02*
X-14937000Y-48160500D01*
G75*
G02*
X-14799500Y-48023000I137500J0D01*
G01*
X-13624500Y-48023000D01*
G75*
G02*
X-13487000Y-48160500I0J-137500D01*
G01*
X-13487000Y-48435500D01*
G75*
G02*
X-13624500Y-48573000I-137500J0D01*
G01*
X-14799500Y-48573000D01*
G75*
G02*
X-14937000Y-48435500I0J137500D01*
G01*
G37*
%TD.AperFunction*%
%TO.P,U230,1*%
%TO.N,InhibV+*%
%TA.AperFunction,SMDPad,CuDef*%
G36*
G01*
X-14937000Y-45895500D02*
X-14937000Y-45620500D01*
G75*
G02*
X-14799500Y-45483000I137500J0D01*
G01*
X-13624500Y-45483000D01*
G75*
G02*
X-13487000Y-45620500I0J-137500D01*
G01*
X-13487000Y-45895500D01*
G75*
G02*
X-13624500Y-46033000I-137500J0D01*
G01*
X-14799500Y-46033000D01*
G75*
G02*
X-14937000Y-45895500I0J137500D01*
G01*
G37*
%TD.AperFunction*%
%TD*%
%TO.P,J201,1*%
%TO.N,+3V3*%
%TA.AperFunction,ComponentPad*%
G36*
G01*
X-86040000Y-17170000D02*
X-85140000Y-17170000D01*
G75*
G02*
X-84940000Y-17370000I0J-200000D01*
G01*
X-84940000Y-17770000D01*
G75*
G02*
X-85140000Y-17970000I-200000J0D01*
G01*
X-86040000Y-17970000D01*
G75*
G02*
X-86240000Y-17770000I0J200000D01*
G01*
X-86240000Y-17370000D01*
G75*
G02*
X-86040000Y-17170000I200000J0D01*
G01*
G37*
%TD.AperFunction*%
D25*
%TO.P,J201,2*%
X-85590000Y-18820000D03*
%TO.P,J201,3*%
%TO.N,I2C_DATA*%
X-85590000Y-20070000D03*
%TO.P,J201,4*%
%TO.N,I2C_CLK*%
X-85590000Y-21320000D03*
%TO.P,J201,5*%
%TO.N,GND*%
X-85590000Y-22570000D03*
%TO.P,J201,6*%
X-85590000Y-23820000D03*
%TO.P,J201,7*%
X-85590000Y-25070000D03*
%TD*%
%TO.P,SW201,1*%
%TO.N,Net-(SW201-Pad1)*%
%TA.AperFunction,ComponentPad*%
G36*
G01*
X-9815000Y-66950000D02*
X-8865000Y-66950000D01*
G75*
G02*
X-8640000Y-67175000I0J-225000D01*
G01*
X-8640000Y-67625000D01*
G75*
G02*
X-8865000Y-67850000I-225000J0D01*
G01*
X-9815000Y-67850000D01*
G75*
G02*
X-10040000Y-67625000I0J225000D01*
G01*
X-10040000Y-67175000D01*
G75*
G02*
X-9815000Y-66950000I225000J0D01*
G01*
G37*
%TD.AperFunction*%
D14*
%TO.P,SW201,2*%
%TO.N,B*%
X-9340000Y-68650000D03*
%TD*%
D22*
%TO.P,H103,1*%
%TO.N,N/C*%
X-5120000Y-90760000D03*
D23*
X-5120000Y-90760000D03*
%TD*%
D14*
%TO.P,SW206,2*%
%TO.N,GND*%
X-6140000Y-78220000D03*
%TO.P,SW206,1*%
%TO.N,Net-(J202-Pad3)*%
%TA.AperFunction,ComponentPad*%
G36*
G01*
X-5665000Y-79920000D02*
X-6615000Y-79920000D01*
G75*
G02*
X-6840000Y-79695000I0J225000D01*
G01*
X-6840000Y-79245000D01*
G75*
G02*
X-6615000Y-79020000I225000J0D01*
G01*
X-5665000Y-79020000D01*
G75*
G02*
X-5440000Y-79245000I0J-225000D01*
G01*
X-5440000Y-79695000D01*
G75*
G02*
X-5665000Y-79920000I-225000J0D01*
G01*
G37*
%TD.AperFunction*%
%TD*%
D26*
%TO.P,SW202,1*%
%TO.N,Net-(SW201-Pad1)*%
X-8060000Y-73040000D03*
D14*
%TO.P,SW202,2*%
%TO.N,B*%
X-8060000Y-74290000D03*
%TD*%
D27*
%TO.P,J203,3*%
%TO.N,N/C*%
X-5292000Y-46150000D03*
%TO.P,J203,2*%
%TO.N,Net-(J203-Pad2)*%
X-5292000Y-47400000D03*
%TO.P,J203,1*%
%TO.N,Net-(J203-Pad1)*%
X-5292000Y-48650000D03*
D28*
%TO.P,J203,MP*%
%TO.N,N/C*%
X-2592000Y-50900000D03*
X-2592000Y-43900000D03*
%TD*%
D14*
%TO.P,J205,2*%
%TO.N,Net-(J205-Pad2)*%
X-2996000Y-37672800D03*
%TO.P,J205,1*%
%TO.N,Net-(J205-Pad1)*%
%TA.AperFunction,ComponentPad*%
G36*
G01*
X-3471000Y-35972800D02*
X-2521000Y-35972800D01*
G75*
G02*
X-2296000Y-36197800I0J-225000D01*
G01*
X-2296000Y-36647800D01*
G75*
G02*
X-2521000Y-36872800I-225000J0D01*
G01*
X-3471000Y-36872800D01*
G75*
G02*
X-3696000Y-36647800I0J225000D01*
G01*
X-3696000Y-36197800D01*
G75*
G02*
X-3471000Y-35972800I225000J0D01*
G01*
G37*
%TD.AperFunction*%
%TD*%
%TO.P,SW204,2*%
%TO.N,Net-(SW201-Pad1)*%
X-82090000Y-73040000D03*
D26*
%TO.P,SW204,1*%
%TO.N,A*%
X-82090000Y-74290000D03*
%TD*%
D14*
%TO.P,SW203,2*%
%TO.N,Net-(SW201-Pad1)*%
X-81820000Y-66530000D03*
D26*
%TO.P,SW203,1*%
%TO.N,A*%
X-81820000Y-67780000D03*
%TD*%
D18*
%TO.P,BT201,1*%
%TO.N,A*%
X-69130000Y-64510000D03*
%TO.P,BT201,2*%
%TO.N,Net-(BT201-Pad2)*%
X-69130000Y-93810000D03*
%TD*%
D14*
%TO.P,SW205,2*%
%TO.N,GND*%
X-84680000Y-79460000D03*
%TO.P,SW205,1*%
%TO.N,Net-(J202-Pad3)*%
%TA.AperFunction,ComponentPad*%
G36*
G01*
X-85155000Y-77760000D02*
X-84205000Y-77760000D01*
G75*
G02*
X-83980000Y-77985000I0J-225000D01*
G01*
X-83980000Y-78435000D01*
G75*
G02*
X-84205000Y-78660000I-225000J0D01*
G01*
X-85155000Y-78660000D01*
G75*
G02*
X-85380000Y-78435000I0J225000D01*
G01*
X-85380000Y-77985000D01*
G75*
G02*
X-85155000Y-77760000I225000J0D01*
G01*
G37*
%TD.AperFunction*%
%TD*%
D18*
%TO.P,BT202,1*%
%TO.N,A*%
X-45610000Y-64280000D03*
%TO.P,BT202,2*%
%TO.N,Net-(BT201-Pad2)*%
X-45610000Y-93580000D03*
%TD*%
D22*
%TO.P,H104,1*%
%TO.N,N/C*%
X-85120000Y-90860000D03*
D23*
X-85120000Y-90860000D03*
%TD*%
%TO.P,J206,1*%
%TO.N,Net-(J206-Pad1)*%
%TA.AperFunction,ComponentPad*%
G36*
G01*
X-86564700Y-36484900D02*
X-87514700Y-36484900D01*
G75*
G02*
X-87739700Y-36259900I0J225000D01*
G01*
X-87739700Y-35809900D01*
G75*
G02*
X-87514700Y-35584900I225000J0D01*
G01*
X-86564700Y-35584900D01*
G75*
G02*
X-86339700Y-35809900I0J-225000D01*
G01*
X-86339700Y-36259900D01*
G75*
G02*
X-86564700Y-36484900I-225000J0D01*
G01*
G37*
%TD.AperFunction*%
D14*
%TO.P,J206,2*%
%TO.N,Net-(J206-Pad2)*%
X-87039700Y-34784900D03*
%TD*%
%TO.P,J204,2*%
%TO.N,Net-(J204-Pad2)*%
X-2808000Y-62027000D03*
D26*
%TO.P,J204,1*%
%TO.N,Net-(J204-Pad1)*%
X-2808000Y-60777000D03*
%TD*%
D22*
%TO.P,H101,1*%
%TO.N,N/C*%
X-81270000Y-5070000D03*
D23*
X-81270000Y-5070000D03*
%TD*%
D29*
%TO.N,InhibV+*%
X-64730200Y-36414200D03*
%TO.N,Net-(Q204-Pad1)*%
X-63129600Y-38700000D03*
X-10429000Y-56351000D03*
%TO.N,Net-(Q206-Pad1)*%
X-22483800Y-52767100D03*
X-78020000Y-42210000D03*
%TO.N,B*%
X-35966800Y-50530900D03*
%TO.N,GND*%
X-61914800Y-49188900D03*
X-49117000Y-55392200D03*
X-69474500Y-47023900D03*
X-38330900Y-50698400D03*
X-67879000Y-56132800D03*
X-9721400Y-24630800D03*
X-37141500Y-58144400D03*
X-26800900Y-64162600D03*
X-79454300Y-60496800D03*
X-10136700Y-36186300D03*
X-80280000Y-36970000D03*
X-12570000Y-45450000D03*
X-35120000Y-64550000D03*
X-8330000Y-55160000D03*
X-57080000Y-70890000D03*
%TO.N,+5V*%
X-25258500Y-35390800D03*
%TO.N,/Inhib_in*%
X-20969900Y-48434500D03*
X-28066400Y-48121200D03*
%TO.N,Net-(Q205-Pad3)*%
X-7170000Y-31370000D03*
X-8580000Y-30570000D03*
%TD*%
D30*
%TO.N,I2C_CLK*%
X-70500000Y-21120000D02*
X-71725300Y-21120000D01*
X-85590000Y-21320000D02*
X-71925300Y-21320000D01*
X-71925300Y-21320000D02*
X-71725300Y-21120000D01*
%TO.N,I2C_DATA*%
X-44370000Y-4516500D02*
X-44370000Y-10518300D01*
X-44370000Y-10518300D02*
X-43590300Y-11298000D01*
X-43590300Y-11298000D02*
X-26538000Y-11298000D01*
X-26538000Y-11298000D02*
X-25320000Y-10080000D01*
X-68332600Y-20190000D02*
X-67720000Y-20190000D01*
X-68332600Y-20190000D02*
X-68945300Y-20190000D01*
X-85590000Y-20070000D02*
X-69065300Y-20070000D01*
X-69065300Y-20070000D02*
X-68945300Y-20190000D01*
X-44730000Y-2150000D02*
X-44520000Y-2360000D01*
X-48710800Y-2150000D02*
X-44730000Y-2150000D01*
X-48840400Y-2279600D02*
X-48710800Y-2150000D01*
X-48840400Y-3661600D02*
X-48840400Y-2279600D01*
X-49530000Y-4351200D02*
X-48840400Y-3661600D01*
X-49530000Y-5234200D02*
X-49530000Y-4351200D01*
X-50500400Y-6204600D02*
X-49530000Y-5234200D01*
X-52070000Y-6912400D02*
X-51362200Y-6204600D01*
X-44473250Y-4413250D02*
X-44370000Y-4516500D01*
X-44520000Y-2360000D02*
X-44520000Y-4366500D01*
X-67720000Y-20190000D02*
X-64247600Y-20190000D01*
X-44520000Y-4366500D02*
X-44473250Y-4413250D01*
X-51362200Y-6204600D02*
X-50500400Y-6204600D01*
X-64247600Y-20190000D02*
X-56975400Y-12917800D01*
X-54530000Y-10511000D02*
X-54530000Y-9669000D01*
X-56975400Y-12917800D02*
X-56975400Y-12094400D01*
X-56975400Y-12094400D02*
X-56136400Y-11255400D01*
X-56136400Y-11255400D02*
X-55274400Y-11255400D01*
X-55274400Y-11255400D02*
X-54530000Y-10511000D01*
X-54530000Y-9669000D02*
X-53472000Y-8611000D01*
X-53472000Y-8611000D02*
X-52858500Y-8611000D01*
X-52858500Y-8611000D02*
X-52070000Y-7822500D01*
X-52070000Y-7822500D02*
X-52070000Y-6912400D01*
%TO.N,Net-(J203-Pad2)*%
X-5292000Y-47400000D02*
X-7814000Y-47400000D01*
X-7814000Y-47400000D02*
X-8712000Y-48298000D01*
%TO.N,Net-(J203-Pad1)*%
X-5292000Y-48650000D02*
X-6517300Y-48650000D01*
X-8712000Y-45758000D02*
X-9809900Y-46855900D01*
X-9809900Y-46855900D02*
X-9809900Y-48662900D01*
X-9809900Y-48662900D02*
X-9545800Y-48927000D01*
X-9545800Y-48927000D02*
X-6794300Y-48927000D01*
X-6794300Y-48927000D02*
X-6517300Y-48650000D01*
%TO.N,Net-(J204-Pad2)*%
X-2808000Y-62027000D02*
X-5851000Y-62027000D01*
X-5851000Y-62027000D02*
X-6746000Y-62922000D01*
%TO.N,Net-(J204-Pad1)*%
X-2808000Y-60777000D02*
X-3833300Y-60777000D01*
X-3833300Y-60777000D02*
X-4228300Y-60382000D01*
X-4228300Y-60382000D02*
X-6746000Y-60382000D01*
%TO.N,Net-(J205-Pad2)*%
X-2996000Y-37672800D02*
X-4080300Y-38757100D01*
X-4080300Y-38757100D02*
X-6987000Y-38757100D01*
%TO.N,Net-(J205-Pad1)*%
X-2996000Y-36422800D02*
X-3201700Y-36217100D01*
X-3201700Y-36217100D02*
X-6987000Y-36217100D01*
%TO.N,Net-(J206-Pad1)*%
X-87039700Y-36034900D02*
X-83787700Y-36034900D01*
X-83787700Y-36034900D02*
X-83075100Y-36747500D01*
%TO.N,Net-(J206-Pad2)*%
X-87039700Y-34784900D02*
X-86014400Y-34784900D01*
X-86014400Y-34784900D02*
X-85437000Y-34207500D01*
X-85437000Y-34207500D02*
X-83075100Y-34207500D01*
%TO.N,InhibV+*%
X-14212000Y-45758000D02*
X-15308500Y-46854500D01*
X-15308500Y-46854500D02*
X-15308500Y-49914600D01*
X-15308500Y-49914600D02*
X-11243300Y-53979800D01*
X-11243300Y-53979800D02*
X-11243300Y-59379300D01*
X-11243300Y-59379300D02*
X-12246000Y-60382000D01*
X-14212000Y-37942100D02*
X-14212000Y-45758000D01*
X-14212000Y-37942100D02*
X-12487000Y-36217100D01*
X-14212000Y-37942100D02*
X-15787900Y-37942100D01*
X-15787900Y-37942100D02*
X-18140000Y-35590000D01*
X-12246000Y-60382000D02*
X-26536500Y-60382000D01*
X-26536500Y-60382000D02*
X-26900000Y-60745500D01*
X-77575100Y-36747500D02*
X-65063500Y-36747500D01*
X-65063500Y-36747500D02*
X-64730200Y-36414200D01*
X-5310000Y-23670000D02*
X-6335300Y-23670000D01*
X-6335300Y-23670000D02*
X-6335300Y-29375700D01*
X-6335300Y-29375700D02*
X-9928700Y-32969100D01*
X-9928700Y-32969100D02*
X-9928700Y-35002000D01*
X-9928700Y-35002000D02*
X-10350900Y-35424200D01*
X-10350900Y-35424200D02*
X-11694100Y-35424200D01*
X-11694100Y-35424200D02*
X-12487000Y-36217100D01*
%TO.N,Net-(Q204-Pad3)*%
X-9479000Y-54966000D02*
X-9479000Y-59005900D01*
X-9479000Y-59005900D02*
X-12125100Y-61652000D01*
X-12125100Y-61652000D02*
X-14899500Y-61652000D01*
X-14899500Y-61652000D02*
X-28338100Y-75090600D01*
X-28338100Y-75090600D02*
X-82944500Y-75090600D01*
X-82944500Y-75090600D02*
X-83187300Y-74847800D01*
X-83187300Y-74847800D02*
X-83187300Y-40555200D01*
X-83187300Y-40555200D02*
X-83114000Y-40481900D01*
%TO.N,Net-(Q204-Pad1)*%
X-63129600Y-38700000D02*
X-77480400Y-38700000D01*
X-77480400Y-38700000D02*
X-77510800Y-38669600D01*
X-10429000Y-56351000D02*
X-10429000Y-57966000D01*
%TO.N,Net-(Q205-Pad1)*%
X-10654000Y-33917200D02*
X-12054400Y-33917200D01*
X-12054400Y-33917200D02*
X-12488000Y-34350800D01*
%TO.N,Net-(Q206-Pad3)*%
X-80322600Y-42077800D02*
X-82071600Y-40328800D01*
X-82071600Y-40328800D02*
X-82071600Y-39949000D01*
X-82071600Y-39949000D02*
X-82385600Y-39635000D01*
X-82385600Y-39635000D02*
X-83814000Y-39635000D01*
X-83814000Y-39635000D02*
X-84144100Y-39965100D01*
X-84144100Y-39965100D02*
X-84144100Y-74579500D01*
X-84144100Y-74579500D02*
X-83169500Y-75554100D01*
X-83169500Y-75554100D02*
X-27314100Y-75554100D01*
X-27314100Y-75554100D02*
X-16164300Y-64404300D01*
X-16164300Y-64404300D02*
X-3771300Y-64404300D01*
X-3771300Y-64404300D02*
X-1782600Y-62415600D01*
X-1782600Y-62415600D02*
X-1782600Y-60178900D01*
X-1782600Y-60178900D02*
X-5390000Y-56571500D01*
X-5390000Y-56571500D02*
X-6674000Y-56571500D01*
%TO.N,Net-(Q206-Pad1)*%
X-22483800Y-52767100D02*
X-16874400Y-58376500D01*
X-16874400Y-58376500D02*
X-12290000Y-58376500D01*
X-79202500Y-39247900D02*
X-79372600Y-39077800D01*
X-79372600Y-40857400D02*
X-79372600Y-39077800D01*
X-78020000Y-42210000D02*
X-79372600Y-40857400D01*
%TO.N,Net-(R210-Pad1)*%
X-14212000Y-48298000D02*
X-10549500Y-44635500D01*
X-10549500Y-44635500D02*
X-10549500Y-43472000D01*
%TO.N,A*%
X-45610000Y-64280000D02*
X-54795000Y-64280000D01*
X-44547300Y-64280000D02*
X-45610000Y-64280000D01*
X-81026600Y-67780000D02*
X-81820000Y-67780000D01*
X-69130000Y-64510000D02*
X-72400000Y-67780000D01*
X-72400000Y-67780000D02*
X-81026600Y-67780000D01*
X-81026600Y-67780000D02*
X-81026600Y-73392700D01*
X-81026600Y-73392700D02*
X-81923900Y-74290000D01*
X-81923900Y-74290000D02*
X-82090000Y-74290000D01*
X-69130000Y-64510000D02*
X-60605000Y-64510000D01*
X-44547300Y-64280000D02*
X-43484700Y-64280000D01*
X-43484700Y-64280000D02*
X-42190000Y-65574700D01*
X-42190000Y-65574700D02*
X-31610000Y-65574700D01*
X-31610000Y-66400000D02*
X-31610000Y-65574700D01*
X-31610000Y-66400000D02*
X-30384700Y-66400000D01*
X-21630000Y-64510000D02*
X-21630000Y-66135300D01*
X-21630000Y-66135300D02*
X-30120000Y-66135300D01*
X-30120000Y-66135300D02*
X-30384700Y-66400000D01*
X-61362500Y-64510000D02*
X-64152500Y-61720000D01*
X-60605000Y-64510000D02*
X-61362500Y-64510000D01*
X-55025000Y-64510000D02*
X-54795000Y-64280000D01*
X-60605000Y-64510000D02*
X-55025000Y-64510000D01*
%TO.N,Net-(D102-Pad1)*%
X-59082300Y-58474800D02*
X-62327500Y-61720000D01*
X-58664800Y-58474800D02*
X-56680000Y-56490000D01*
X-69924800Y-58474800D02*
X-58664800Y-58474800D01*
X-72600000Y-61150000D02*
X-69924800Y-58474800D01*
%TO.N,Net-(D204-Pad6)*%
X-30230000Y-45630000D02*
X-30230000Y-43865600D01*
X-26730000Y-21170000D02*
X-28330000Y-19570000D01*
X-26656700Y-21170000D02*
X-26730000Y-21170000D01*
X-30230000Y-43865600D02*
X-27555600Y-43865600D01*
X-26220000Y-42530000D02*
X-26220000Y-21170000D01*
X-27555600Y-43865600D02*
X-26220000Y-42530000D01*
X-26220000Y-21170000D02*
X-26656700Y-21170000D01*
X-5310000Y-21170000D02*
X-26220000Y-21170000D01*
%TO.N,Net-(D204-Pad2)*%
X-29580000Y-48290000D02*
X-29580000Y-49365300D01*
X-29580000Y-49365300D02*
X-23932800Y-49365300D01*
X-23932800Y-49365300D02*
X-23570000Y-49002500D01*
%TO.N,B*%
X-35966800Y-50530900D02*
X-35490000Y-50054100D01*
X-35490000Y-50054100D02*
X-35490000Y-49275300D01*
X-42930000Y-58765500D02*
X-39281300Y-55116800D01*
X-39281300Y-55116800D02*
X-37840100Y-55116800D01*
X-37840100Y-55116800D02*
X-35896000Y-53172700D01*
X-35896000Y-53172700D02*
X-35896000Y-50601700D01*
X-35896000Y-50601700D02*
X-35966800Y-50530900D01*
X-30230000Y-48290000D02*
X-35330000Y-48290000D01*
X-35330000Y-48290000D02*
X-35490000Y-48450000D01*
X-35490000Y-48450000D02*
X-35490000Y-49275300D01*
X-9340000Y-68650000D02*
X-9340000Y-69425300D01*
X-8060000Y-74290000D02*
X-9085300Y-74290000D01*
X-9085300Y-74290000D02*
X-9085300Y-69680000D01*
X-9085300Y-69680000D02*
X-9340000Y-69425300D01*
%TO.N,CHRG_ON-OFF*%
X-38430000Y-56740000D02*
X-39023700Y-56740000D01*
X-39023700Y-56740000D02*
X-41903700Y-59620000D01*
X-41903700Y-59620000D02*
X-49533500Y-59620000D01*
X-49533500Y-59620000D02*
X-53962100Y-55191400D01*
X-53962100Y-55191400D02*
X-58442500Y-55191400D01*
X-58442500Y-55191400D02*
X-60236100Y-56985000D01*
X-60236100Y-56985000D02*
X-65126200Y-56985000D01*
X-35810000Y-56740000D02*
X-38430000Y-56740000D01*
X-31060000Y-56957500D02*
X-35592500Y-56957500D01*
X-35592500Y-56957500D02*
X-35810000Y-56740000D01*
X-31050000Y-53330000D02*
X-31050000Y-56947500D01*
X-31050000Y-56947500D02*
X-31060000Y-56957500D01*
X-31060000Y-56957500D02*
X-31060000Y-56967500D01*
%TO.N,Net-(R103-Pad2)*%
X-76877500Y-54405000D02*
X-76837500Y-54445000D01*
X-76837500Y-54445000D02*
X-70053800Y-54445000D01*
X-79160000Y-52122500D02*
X-76877500Y-54405000D01*
X-76877500Y-54405000D02*
X-79730000Y-57257500D01*
%TO.N,Net-(BT201-Pad2)*%
X-23256600Y-93810000D02*
X-4933700Y-75487100D01*
X-4933700Y-75487100D02*
X-4933700Y-67046300D01*
X-4933700Y-67046300D02*
X-1051900Y-63164500D01*
X-1051900Y-63164500D02*
X-1051900Y-36844600D01*
X-1051900Y-36844600D02*
X-5310000Y-32586500D01*
X-5310000Y-32586500D02*
X-5310000Y-24920000D01*
X-23256600Y-93810000D02*
X-23755300Y-93810000D01*
X-21630000Y-93810000D02*
X-23256600Y-93810000D01*
X-45610000Y-93580000D02*
X-23985300Y-93580000D01*
X-23985300Y-93580000D02*
X-23755300Y-93810000D01*
X-67004700Y-93810000D02*
X-66774700Y-93580000D01*
X-66774700Y-93580000D02*
X-45610000Y-93580000D01*
X-69130000Y-93810000D02*
X-67004700Y-93810000D01*
%TO.N,GND*%
X-61914800Y-49188900D02*
X-61790000Y-49064100D01*
X-61790000Y-49064100D02*
X-61790000Y-48010000D01*
X-38622500Y-52540000D02*
X-38622500Y-50990000D01*
X-38622500Y-50990000D02*
X-38330900Y-50698400D01*
X-37494700Y-57690000D02*
X-37494700Y-57791200D01*
X-37494700Y-57791200D02*
X-37141500Y-58144400D01*
X-49117000Y-55392200D02*
X-47517800Y-55392200D01*
X-47517800Y-55392200D02*
X-47010000Y-55900000D01*
X-69474500Y-47023900D02*
X-70593900Y-47023900D01*
X-70593900Y-47023900D02*
X-70630000Y-47060000D01*
X-67879000Y-56132800D02*
X-65544000Y-56132800D01*
X-65544000Y-56132800D02*
X-65126200Y-55715000D01*
X-70053800Y-55715000D02*
X-69636000Y-56132800D01*
X-69636000Y-56132800D02*
X-67879000Y-56132800D01*
X-65126200Y-54445000D02*
X-65126200Y-55715000D01*
X-8300000Y-26800000D02*
X-8300000Y-25974700D01*
X-9721400Y-24630800D02*
X-8377500Y-25974700D01*
X-8377500Y-25974700D02*
X-8300000Y-25974700D01*
X-38430000Y-57690000D02*
X-37494700Y-57690000D01*
X-26800900Y-64162600D02*
X-26900000Y-64063500D01*
X-26900000Y-64063500D02*
X-26900000Y-62570500D01*
X-79454300Y-60496800D02*
X-79730000Y-60221100D01*
X-79730000Y-60221100D02*
X-79730000Y-59082500D01*
X-8754000Y-33917200D02*
X-8754000Y-35192500D01*
X-10136700Y-36186300D02*
X-9142900Y-35192500D01*
X-9142900Y-35192500D02*
X-8754000Y-35192500D01*
X-81272600Y-37651200D02*
X-81272600Y-39077800D01*
X-80280000Y-36970000D02*
X-81272600Y-37651200D01*
X-12374500Y-44665900D02*
X-12374500Y-43472000D01*
X-12570000Y-45450000D02*
X-12374500Y-44665900D01*
X-33635000Y-63666200D02*
X-33635000Y-63530000D01*
X-35120000Y-64550000D02*
X-33635000Y-63666200D01*
X-8417900Y-57854900D02*
X-8529000Y-57966000D01*
X-8330000Y-55160000D02*
X-8417900Y-57854900D01*
X-56680000Y-69190000D02*
X-56680000Y-70490000D01*
X-56680000Y-70490000D02*
X-57080000Y-70890000D01*
%TO.N,+5V*%
X-61790000Y-46110000D02*
X-65126200Y-49446200D01*
X-65126200Y-49446200D02*
X-65126200Y-53175000D01*
X-57425600Y-46110000D02*
X-54900000Y-46110000D01*
X-54900000Y-46110000D02*
X-47010000Y-54000000D01*
X-46835600Y-15532800D02*
X-49597200Y-15532800D01*
X-23570000Y-47177500D02*
X-22528300Y-48219200D01*
X-22528300Y-48219200D02*
X-22528300Y-50502400D01*
X-22528300Y-50502400D02*
X-24870000Y-52844100D01*
X-24870000Y-52844100D02*
X-24870000Y-54640000D01*
X-24870000Y-54640000D02*
X-26907500Y-54640000D01*
X-26907500Y-54640000D02*
X-31060000Y-58792500D01*
X-25117500Y-45630000D02*
X-23570000Y-47177500D01*
X-23089900Y-43180000D02*
X-23089900Y-37559400D01*
X-23089900Y-37559400D02*
X-25258500Y-35390800D01*
X-22290000Y-43180000D02*
X-23089900Y-43180000D01*
X-23089900Y-43180000D02*
X-23089900Y-43602400D01*
X-23089900Y-43602400D02*
X-25117500Y-45630000D01*
X-28930000Y-45630000D02*
X-25117500Y-45630000D01*
X-46835600Y-15532800D02*
X-46835600Y-8495600D01*
X-46835600Y-8495600D02*
X-45720000Y-7380000D01*
X-31060000Y-58792500D02*
X-32162500Y-57690000D01*
X-32162500Y-57690000D02*
X-35810000Y-57690000D01*
X-45720000Y-4840000D02*
X-45720000Y-7380000D01*
X-49597200Y-15532800D02*
X-57292800Y-15532800D01*
X-59500000Y-17740000D02*
X-59500000Y-46110000D01*
X-59500000Y-46110000D02*
X-61790000Y-46110000D01*
X-57292800Y-15532800D02*
X-59500000Y-17740000D01*
X-57425600Y-46110000D02*
X-59500000Y-46110000D01*
X-28540000Y-23850000D02*
X-28540000Y-21790000D01*
X-28540000Y-21790000D02*
X-28570000Y-21790000D01*
X-28570000Y-21790000D02*
X-31590000Y-18770000D01*
X-36235600Y-18770000D02*
X-39472800Y-15532800D01*
X-31590000Y-18770000D02*
X-36235600Y-18770000D01*
X-46835600Y-15532800D02*
X-39472800Y-15532800D01*
%TO.N,Net-(C103-Pad1)*%
X-74700000Y-61150000D02*
X-74700000Y-58643800D01*
X-74700000Y-58643800D02*
X-71179100Y-55122900D01*
X-71179100Y-55122900D02*
X-68998900Y-55122900D01*
X-68998900Y-55122900D02*
X-68737800Y-54861800D01*
X-68737800Y-54861800D02*
X-68737800Y-54012400D01*
X-68737800Y-54012400D02*
X-69575200Y-53175000D01*
X-69575200Y-53175000D02*
X-70053800Y-53175000D01*
X-72900000Y-50297500D02*
X-70053800Y-53143700D01*
X-70053800Y-53143700D02*
X-70053800Y-53175000D01*
X-72900000Y-50297500D02*
X-79160000Y-50297500D01*
X-72530000Y-47060000D02*
X-72530000Y-49927500D01*
X-72530000Y-49927500D02*
X-72900000Y-50297500D01*
%TO.N,/Inhib_in*%
X-36797500Y-52540000D02*
X-37823900Y-53566400D01*
X-37823900Y-53566400D02*
X-41477400Y-53566400D01*
X-41477400Y-53566400D02*
X-42784000Y-54873000D01*
X-42784000Y-54873000D02*
X-47951700Y-54873000D01*
X-47951700Y-54873000D02*
X-49448900Y-53375800D01*
X-49448900Y-53375800D02*
X-62923400Y-53375800D01*
X-62923400Y-53375800D02*
X-63335200Y-53787600D01*
X-63335200Y-53787600D02*
X-66246400Y-53787600D01*
X-66246400Y-53787600D02*
X-71580000Y-48454000D01*
X-71580000Y-48454000D02*
X-71580000Y-46425400D01*
X-71580000Y-46425400D02*
X-77510800Y-40494600D01*
X-28930000Y-47214700D02*
X-36126400Y-47214700D01*
X-36126400Y-47214700D02*
X-36797500Y-47885800D01*
X-36797500Y-47885800D02*
X-36797500Y-52540000D01*
X-20969900Y-48434500D02*
X-20407000Y-48434500D01*
X-20407000Y-48434500D02*
X-12290000Y-56551500D01*
X-16667100Y-32182900D02*
X-20969900Y-36485700D01*
X-20969900Y-36485700D02*
X-20969900Y-48434500D01*
X-16667100Y-32182900D02*
X-18710000Y-30140000D01*
X-12488000Y-32525800D02*
X-16324200Y-32525800D01*
X-16324200Y-32525800D02*
X-16667100Y-32182900D01*
X-28930000Y-47864900D02*
X-28930000Y-47214700D01*
X-28930000Y-47864900D02*
X-28322700Y-47864900D01*
X-28322700Y-47864900D02*
X-28066400Y-48121200D01*
X-28930000Y-48290000D02*
X-28930000Y-47864900D01*
%TO.N,+3V3*%
X-43180000Y-7380000D02*
X-42004700Y-7380000D01*
X-42004700Y-7380000D02*
X-42004700Y-7747400D01*
X-42004700Y-7747400D02*
X-41196800Y-8555300D01*
X-41196800Y-8555300D02*
X-12412900Y-8555300D01*
X-12412900Y-8555300D02*
X-9350000Y-11618200D01*
X-9350000Y-11618200D02*
X-9350000Y-12670000D01*
X-43180000Y-4840000D02*
X-43180000Y-7380000D01*
X-85590000Y-18820000D02*
X-85590000Y-17570000D01*
%TO.N,USB_Charge*%
X-38020000Y-13290000D02*
X-38020000Y-12620000D01*
X-5310000Y-19920000D02*
X-9910011Y-15319989D01*
X-35320011Y-15319989D02*
X-34489989Y-15319989D01*
X-38020000Y-12620000D02*
X-35320011Y-15319989D01*
X-9910011Y-15319989D02*
X-34489989Y-15319989D01*
%TO.N,Net-(R102-Pad1)*%
X-40746200Y-60956200D02*
X-38882500Y-62820000D01*
X-42930000Y-60590500D02*
X-41112000Y-60590500D01*
X-41112000Y-60590500D02*
X-40746200Y-60956200D01*
X-38430000Y-58640000D02*
X-40746200Y-60956200D01*
X-47184700Y-60540000D02*
X-47134200Y-60590500D01*
X-47134200Y-60590500D02*
X-42930000Y-60590500D01*
X-48410000Y-60540000D02*
X-47184700Y-60540000D01*
%TO.N,Net-(R105-Pad1)*%
X-35810000Y-61572500D02*
X-35810000Y-58640000D01*
X-37057500Y-62820000D02*
X-35810000Y-61572500D01*
X-35810000Y-61572500D02*
X-33767500Y-61572500D01*
X-33767500Y-61572500D02*
X-31810000Y-63530000D01*
X-31810000Y-63530000D02*
X-27070000Y-58790000D01*
X-27070000Y-58790000D02*
X-22050000Y-58790000D01*
%TO.N,Net-(SW201-Pad1)*%
X-9340000Y-67400000D02*
X-11600000Y-67400000D01*
X-11600000Y-67400000D02*
X-13770000Y-65230000D01*
X-8060000Y-73040000D02*
X-8060000Y-68564000D01*
X-8060000Y-68564000D02*
X-9224000Y-67400000D01*
X-9224000Y-67400000D02*
X-9340000Y-67400000D01*
%TO.N,Inhib_EN*%
X-29580000Y-45630000D02*
X-29580000Y-46467900D01*
X-29580000Y-46467900D02*
X-29817500Y-46705400D01*
X-29817500Y-46705400D02*
X-30638200Y-46705400D01*
X-30638200Y-46705400D02*
X-30767600Y-46576000D01*
X-30767600Y-46576000D02*
X-30767600Y-42077600D01*
X-30767600Y-42077600D02*
X-29437600Y-42077600D01*
X-28540000Y-41180000D02*
X-28540000Y-39850000D01*
X-29437600Y-42077600D02*
X-28540000Y-41180000D01*
%TO.N,Net-(R212-Pad1)*%
X-12246000Y-62922000D02*
X-11199500Y-62922000D01*
X-11199500Y-62922000D02*
X-6674000Y-58396500D01*
%TO.N,Net-(R214-Pad1)*%
X-12487000Y-38757100D02*
X-11323400Y-38757100D01*
X-11323400Y-38757100D02*
X-6907000Y-34340700D01*
%TO.N,Net-(R216-Pad1)*%
X-77575100Y-34207500D02*
X-78854600Y-34207500D01*
X-78854600Y-34207500D02*
X-83114000Y-38466900D01*
X-83114000Y-38466900D02*
X-83114000Y-38656900D01*
%TO.N,Net-(Q205-Pad3)*%
X-6907000Y-31633000D02*
X-7170000Y-31370000D01*
X-6907000Y-32515700D02*
X-6907000Y-31633000D01*
X-9356800Y-30570000D02*
X-9704000Y-30917200D01*
X-8580000Y-30570000D02*
X-9356800Y-30570000D01*
%TD*%
M02*
