%TF.GenerationSoftware,KiCad,Pcbnew,(5.1.12)-1*%
%TF.CreationDate,2022-07-05T07:26:00-06:00*%
%TF.ProjectId,RADSAT-SK Timer 2,52414453-4154-42d5-934b-2054696d6572,rev?*%
%TF.SameCoordinates,PX7735940PY2faf080*%
%TF.FileFunction,Paste,Top*%
%TF.FilePolarity,Positive*%
%FSLAX46Y46*%
G04 Gerber Fmt 4.6, Leading zero omitted, Abs format (unit mm)*
G04 Created by KiCad (PCBNEW (5.1.12)-1) date 2022-07-05 07:26:00*
%MOMM*%
%LPD*%
G01*
G04 APERTURE LIST*
%ADD10R,1.800000X1.000000*%
%ADD11R,1.220000X0.650000*%
%ADD12R,1.981200X0.533400*%
%ADD13R,0.600000X0.450000*%
%ADD14R,3.600000X2.600000*%
%ADD15R,0.800000X1.900000*%
%ADD16R,0.400000X1.500000*%
%ADD17R,1.800000X0.700000*%
%ADD18R,2.200000X1.600000*%
G04 APERTURE END LIST*
D10*
%TO.C,TP116*%
X-18710000Y-30140000D03*
%TD*%
%TO.C,TP115*%
X-31050000Y-53330000D03*
%TD*%
%TO.C,TP114*%
X-22050000Y-58790000D03*
%TD*%
%TO.C,TP113*%
X-31610000Y-66400000D03*
%TD*%
%TO.C,TP112*%
X-48410000Y-60540000D03*
%TD*%
%TO.C,TP111*%
X-22290000Y-43180000D03*
%TD*%
%TO.C,TP110*%
X-70500000Y-21120000D03*
%TD*%
%TO.C,TP109*%
X-18140000Y-35590000D03*
%TD*%
%TO.C,TP108*%
X-67720000Y-20190000D03*
%TD*%
%TO.C,TP107*%
X-8300000Y-26800000D03*
%TD*%
%TO.C,TP106*%
X-28230000Y-19660000D03*
%TD*%
%TO.C,TP105*%
X-9350000Y-12670000D03*
%TD*%
%TO.C,TP104*%
X-26770000Y-15310000D03*
%TD*%
%TO.C,TP103*%
X-13770000Y-65230000D03*
%TD*%
%TO.C,TP102*%
X-24870000Y-54640000D03*
%TD*%
%TO.C,TP101*%
X-35490000Y-48450000D03*
%TD*%
D11*
%TO.C,U202*%
X-35810000Y-56740000D03*
X-35810000Y-57690000D03*
X-35810000Y-58640000D03*
X-38430000Y-58640000D03*
X-38430000Y-57690000D03*
X-38430000Y-56740000D03*
%TD*%
D12*
%TO.C,U101*%
X-65126200Y-53175000D03*
X-65126200Y-54445000D03*
X-65126200Y-55715000D03*
X-65126200Y-56985000D03*
X-70053800Y-56985000D03*
X-70053800Y-55715000D03*
X-70053800Y-54445000D03*
X-70053800Y-53175000D03*
%TD*%
%TO.C,R110*%
G36*
G01*
X-23119998Y-47690000D02*
X-24020002Y-47690000D01*
G75*
G02*
X-24270000Y-47440002I0J249998D01*
G01*
X-24270000Y-46914998D01*
G75*
G02*
X-24020002Y-46665000I249998J0D01*
G01*
X-23119998Y-46665000D01*
G75*
G02*
X-22870000Y-46914998I0J-249998D01*
G01*
X-22870000Y-47440002D01*
G75*
G02*
X-23119998Y-47690000I-249998J0D01*
G01*
G37*
G36*
G01*
X-23119998Y-49515000D02*
X-24020002Y-49515000D01*
G75*
G02*
X-24270000Y-49265002I0J249998D01*
G01*
X-24270000Y-48739998D01*
G75*
G02*
X-24020002Y-48490000I249998J0D01*
G01*
X-23119998Y-48490000D01*
G75*
G02*
X-22870000Y-48739998I0J-249998D01*
G01*
X-22870000Y-49265002D01*
G75*
G02*
X-23119998Y-49515000I-249998J0D01*
G01*
G37*
%TD*%
%TO.C,R109*%
G36*
G01*
X-27350002Y-62058000D02*
X-26449998Y-62058000D01*
G75*
G02*
X-26200000Y-62307998I0J-249998D01*
G01*
X-26200000Y-62833002D01*
G75*
G02*
X-26449998Y-63083000I-249998J0D01*
G01*
X-27350002Y-63083000D01*
G75*
G02*
X-27600000Y-62833002I0J249998D01*
G01*
X-27600000Y-62307998D01*
G75*
G02*
X-27350002Y-62058000I249998J0D01*
G01*
G37*
G36*
G01*
X-27350002Y-60233000D02*
X-26449998Y-60233000D01*
G75*
G02*
X-26200000Y-60482998I0J-249998D01*
G01*
X-26200000Y-61008002D01*
G75*
G02*
X-26449998Y-61258000I-249998J0D01*
G01*
X-27350002Y-61258000D01*
G75*
G02*
X-27600000Y-61008002I0J249998D01*
G01*
X-27600000Y-60482998D01*
G75*
G02*
X-27350002Y-60233000I249998J0D01*
G01*
G37*
%TD*%
%TO.C,R108*%
G36*
G01*
X-32322500Y-63980002D02*
X-32322500Y-63079998D01*
G75*
G02*
X-32072502Y-62830000I249998J0D01*
G01*
X-31547498Y-62830000D01*
G75*
G02*
X-31297500Y-63079998I0J-249998D01*
G01*
X-31297500Y-63980002D01*
G75*
G02*
X-31547498Y-64230000I-249998J0D01*
G01*
X-32072502Y-64230000D01*
G75*
G02*
X-32322500Y-63980002I0J249998D01*
G01*
G37*
G36*
G01*
X-34147500Y-63980002D02*
X-34147500Y-63079998D01*
G75*
G02*
X-33897502Y-62830000I249998J0D01*
G01*
X-33372498Y-62830000D01*
G75*
G02*
X-33122500Y-63079998I0J-249998D01*
G01*
X-33122500Y-63980002D01*
G75*
G02*
X-33372498Y-64230000I-249998J0D01*
G01*
X-33897502Y-64230000D01*
G75*
G02*
X-34147500Y-63980002I0J249998D01*
G01*
G37*
%TD*%
%TO.C,R107*%
G36*
G01*
X-62840000Y-62170002D02*
X-62840000Y-61269998D01*
G75*
G02*
X-62590002Y-61020000I249998J0D01*
G01*
X-62064998Y-61020000D01*
G75*
G02*
X-61815000Y-61269998I0J-249998D01*
G01*
X-61815000Y-62170002D01*
G75*
G02*
X-62064998Y-62420000I-249998J0D01*
G01*
X-62590002Y-62420000D01*
G75*
G02*
X-62840000Y-62170002I0J249998D01*
G01*
G37*
G36*
G01*
X-64665000Y-62170002D02*
X-64665000Y-61269998D01*
G75*
G02*
X-64415002Y-61020000I249998J0D01*
G01*
X-63889998Y-61020000D01*
G75*
G02*
X-63640000Y-61269998I0J-249998D01*
G01*
X-63640000Y-62170002D01*
G75*
G02*
X-63889998Y-62420000I-249998J0D01*
G01*
X-64415002Y-62420000D01*
G75*
G02*
X-64665000Y-62170002I0J249998D01*
G01*
G37*
%TD*%
%TO.C,R106*%
G36*
G01*
X-38110000Y-52089998D02*
X-38110000Y-52990002D01*
G75*
G02*
X-38359998Y-53240000I-249998J0D01*
G01*
X-38885002Y-53240000D01*
G75*
G02*
X-39135000Y-52990002I0J249998D01*
G01*
X-39135000Y-52089998D01*
G75*
G02*
X-38885002Y-51840000I249998J0D01*
G01*
X-38359998Y-51840000D01*
G75*
G02*
X-38110000Y-52089998I0J-249998D01*
G01*
G37*
G36*
G01*
X-36285000Y-52089998D02*
X-36285000Y-52990002D01*
G75*
G02*
X-36534998Y-53240000I-249998J0D01*
G01*
X-37060002Y-53240000D01*
G75*
G02*
X-37310000Y-52990002I0J249998D01*
G01*
X-37310000Y-52089998D01*
G75*
G02*
X-37060002Y-51840000I249998J0D01*
G01*
X-36534998Y-51840000D01*
G75*
G02*
X-36285000Y-52089998I0J-249998D01*
G01*
G37*
%TD*%
%TO.C,R105*%
G36*
G01*
X-38370000Y-62369998D02*
X-38370000Y-63270002D01*
G75*
G02*
X-38619998Y-63520000I-249998J0D01*
G01*
X-39145002Y-63520000D01*
G75*
G02*
X-39395000Y-63270002I0J249998D01*
G01*
X-39395000Y-62369998D01*
G75*
G02*
X-39145002Y-62120000I249998J0D01*
G01*
X-38619998Y-62120000D01*
G75*
G02*
X-38370000Y-62369998I0J-249998D01*
G01*
G37*
G36*
G01*
X-36545000Y-62369998D02*
X-36545000Y-63270002D01*
G75*
G02*
X-36794998Y-63520000I-249998J0D01*
G01*
X-37320002Y-63520000D01*
G75*
G02*
X-37570000Y-63270002I0J249998D01*
G01*
X-37570000Y-62369998D01*
G75*
G02*
X-37320002Y-62120000I249998J0D01*
G01*
X-36794998Y-62120000D01*
G75*
G02*
X-36545000Y-62369998I0J-249998D01*
G01*
G37*
%TD*%
%TO.C,R104*%
G36*
G01*
X-80180002Y-58570000D02*
X-79279998Y-58570000D01*
G75*
G02*
X-79030000Y-58819998I0J-249998D01*
G01*
X-79030000Y-59345002D01*
G75*
G02*
X-79279998Y-59595000I-249998J0D01*
G01*
X-80180002Y-59595000D01*
G75*
G02*
X-80430000Y-59345002I0J249998D01*
G01*
X-80430000Y-58819998D01*
G75*
G02*
X-80180002Y-58570000I249998J0D01*
G01*
G37*
G36*
G01*
X-80180002Y-56745000D02*
X-79279998Y-56745000D01*
G75*
G02*
X-79030000Y-56994998I0J-249998D01*
G01*
X-79030000Y-57520002D01*
G75*
G02*
X-79279998Y-57770000I-249998J0D01*
G01*
X-80180002Y-57770000D01*
G75*
G02*
X-80430000Y-57520002I0J249998D01*
G01*
X-80430000Y-56994998D01*
G75*
G02*
X-80180002Y-56745000I249998J0D01*
G01*
G37*
%TD*%
%TO.C,R103*%
G36*
G01*
X-79610002Y-51610000D02*
X-78709998Y-51610000D01*
G75*
G02*
X-78460000Y-51859998I0J-249998D01*
G01*
X-78460000Y-52385002D01*
G75*
G02*
X-78709998Y-52635000I-249998J0D01*
G01*
X-79610002Y-52635000D01*
G75*
G02*
X-79860000Y-52385002I0J249998D01*
G01*
X-79860000Y-51859998D01*
G75*
G02*
X-79610002Y-51610000I249998J0D01*
G01*
G37*
G36*
G01*
X-79610002Y-49785000D02*
X-78709998Y-49785000D01*
G75*
G02*
X-78460000Y-50034998I0J-249998D01*
G01*
X-78460000Y-50560002D01*
G75*
G02*
X-78709998Y-50810000I-249998J0D01*
G01*
X-79610002Y-50810000D01*
G75*
G02*
X-79860000Y-50560002I0J249998D01*
G01*
X-79860000Y-50034998D01*
G75*
G02*
X-79610002Y-49785000I249998J0D01*
G01*
G37*
%TD*%
%TO.C,R102*%
G36*
G01*
X-42479998Y-59278000D02*
X-43380002Y-59278000D01*
G75*
G02*
X-43630000Y-59028002I0J249998D01*
G01*
X-43630000Y-58502998D01*
G75*
G02*
X-43380002Y-58253000I249998J0D01*
G01*
X-42479998Y-58253000D01*
G75*
G02*
X-42230000Y-58502998I0J-249998D01*
G01*
X-42230000Y-59028002D01*
G75*
G02*
X-42479998Y-59278000I-249998J0D01*
G01*
G37*
G36*
G01*
X-42479998Y-61103000D02*
X-43380002Y-61103000D01*
G75*
G02*
X-43630000Y-60853002I0J249998D01*
G01*
X-43630000Y-60327998D01*
G75*
G02*
X-43380002Y-60078000I249998J0D01*
G01*
X-42479998Y-60078000D01*
G75*
G02*
X-42230000Y-60327998I0J-249998D01*
G01*
X-42230000Y-60853002D01*
G75*
G02*
X-42479998Y-61103000I-249998J0D01*
G01*
G37*
%TD*%
%TO.C,R101*%
G36*
G01*
X-30609998Y-57480000D02*
X-31510002Y-57480000D01*
G75*
G02*
X-31760000Y-57230002I0J249998D01*
G01*
X-31760000Y-56704998D01*
G75*
G02*
X-31510002Y-56455000I249998J0D01*
G01*
X-30609998Y-56455000D01*
G75*
G02*
X-30360000Y-56704998I0J-249998D01*
G01*
X-30360000Y-57230002D01*
G75*
G02*
X-30609998Y-57480000I-249998J0D01*
G01*
G37*
G36*
G01*
X-30609998Y-59305000D02*
X-31510002Y-59305000D01*
G75*
G02*
X-31760000Y-59055002I0J249998D01*
G01*
X-31760000Y-58529998D01*
G75*
G02*
X-31510002Y-58280000I249998J0D01*
G01*
X-30609998Y-58280000D01*
G75*
G02*
X-30360000Y-58529998I0J-249998D01*
G01*
X-30360000Y-59055002D01*
G75*
G02*
X-30609998Y-59305000I-249998J0D01*
G01*
G37*
%TD*%
D13*
%TO.C,D102*%
X-74700000Y-61150000D03*
X-72600000Y-61150000D03*
%TD*%
%TO.C,C103*%
G36*
G01*
X-71130000Y-47535000D02*
X-71130000Y-46585000D01*
G75*
G02*
X-70880000Y-46335000I250000J0D01*
G01*
X-70380000Y-46335000D01*
G75*
G02*
X-70130000Y-46585000I0J-250000D01*
G01*
X-70130000Y-47535000D01*
G75*
G02*
X-70380000Y-47785000I-250000J0D01*
G01*
X-70880000Y-47785000D01*
G75*
G02*
X-71130000Y-47535000I0J250000D01*
G01*
G37*
G36*
G01*
X-73030000Y-47535000D02*
X-73030000Y-46585000D01*
G75*
G02*
X-72780000Y-46335000I250000J0D01*
G01*
X-72280000Y-46335000D01*
G75*
G02*
X-72030000Y-46585000I0J-250000D01*
G01*
X-72030000Y-47535000D01*
G75*
G02*
X-72280000Y-47785000I-250000J0D01*
G01*
X-72780000Y-47785000D01*
G75*
G02*
X-73030000Y-47535000I0J250000D01*
G01*
G37*
%TD*%
%TO.C,C102*%
G36*
G01*
X-62265000Y-47510000D02*
X-61315000Y-47510000D01*
G75*
G02*
X-61065000Y-47760000I0J-250000D01*
G01*
X-61065000Y-48260000D01*
G75*
G02*
X-61315000Y-48510000I-250000J0D01*
G01*
X-62265000Y-48510000D01*
G75*
G02*
X-62515000Y-48260000I0J250000D01*
G01*
X-62515000Y-47760000D01*
G75*
G02*
X-62265000Y-47510000I250000J0D01*
G01*
G37*
G36*
G01*
X-62265000Y-45610000D02*
X-61315000Y-45610000D01*
G75*
G02*
X-61065000Y-45860000I0J-250000D01*
G01*
X-61065000Y-46360000D01*
G75*
G02*
X-61315000Y-46610000I-250000J0D01*
G01*
X-62265000Y-46610000D01*
G75*
G02*
X-62515000Y-46360000I0J250000D01*
G01*
X-62515000Y-45860000D01*
G75*
G02*
X-62265000Y-45610000I250000J0D01*
G01*
G37*
%TD*%
%TO.C,C101*%
G36*
G01*
X-47485000Y-55400000D02*
X-46535000Y-55400000D01*
G75*
G02*
X-46285000Y-55650000I0J-250000D01*
G01*
X-46285000Y-56150000D01*
G75*
G02*
X-46535000Y-56400000I-250000J0D01*
G01*
X-47485000Y-56400000D01*
G75*
G02*
X-47735000Y-56150000I0J250000D01*
G01*
X-47735000Y-55650000D01*
G75*
G02*
X-47485000Y-55400000I250000J0D01*
G01*
G37*
G36*
G01*
X-47485000Y-53500000D02*
X-46535000Y-53500000D01*
G75*
G02*
X-46285000Y-53750000I0J-250000D01*
G01*
X-46285000Y-54250000D01*
G75*
G02*
X-46535000Y-54500000I-250000J0D01*
G01*
X-47485000Y-54500000D01*
G75*
G02*
X-47735000Y-54250000I0J250000D01*
G01*
X-47735000Y-53750000D01*
G75*
G02*
X-47485000Y-53500000I250000J0D01*
G01*
G37*
%TD*%
D14*
%TO.C,BT203*%
X-21630000Y-64510000D03*
X-21630000Y-93810000D03*
%TD*%
%TO.C,R215*%
G36*
G01*
X-77060798Y-39182100D02*
X-77960802Y-39182100D01*
G75*
G02*
X-78210800Y-38932102I0J249998D01*
G01*
X-78210800Y-38407098D01*
G75*
G02*
X-77960802Y-38157100I249998J0D01*
G01*
X-77060798Y-38157100D01*
G75*
G02*
X-76810800Y-38407098I0J-249998D01*
G01*
X-76810800Y-38932102D01*
G75*
G02*
X-77060798Y-39182100I-249998J0D01*
G01*
G37*
G36*
G01*
X-77060798Y-41007100D02*
X-77960802Y-41007100D01*
G75*
G02*
X-78210800Y-40757102I0J249998D01*
G01*
X-78210800Y-40232098D01*
G75*
G02*
X-77960802Y-39982100I249998J0D01*
G01*
X-77060798Y-39982100D01*
G75*
G02*
X-76810800Y-40232098I0J-249998D01*
G01*
X-76810800Y-40757102D01*
G75*
G02*
X-77060798Y-41007100I-249998J0D01*
G01*
G37*
%TD*%
D15*
%TO.C,Q206*%
X-80322600Y-42077800D03*
X-81272600Y-39077800D03*
X-79372600Y-39077800D03*
%TD*%
%TO.C,Q204*%
X-9479000Y-54966000D03*
X-8529000Y-57966000D03*
X-10429000Y-57966000D03*
%TD*%
%TO.C,R210*%
G36*
G01*
X-11862000Y-43021998D02*
X-11862000Y-43922002D01*
G75*
G02*
X-12111998Y-44172000I-249998J0D01*
G01*
X-12637002Y-44172000D01*
G75*
G02*
X-12887000Y-43922002I0J249998D01*
G01*
X-12887000Y-43021998D01*
G75*
G02*
X-12637002Y-42772000I249998J0D01*
G01*
X-12111998Y-42772000D01*
G75*
G02*
X-11862000Y-43021998I0J-249998D01*
G01*
G37*
G36*
G01*
X-10037000Y-43021998D02*
X-10037000Y-43922002D01*
G75*
G02*
X-10286998Y-44172000I-249998J0D01*
G01*
X-10812002Y-44172000D01*
G75*
G02*
X-11062000Y-43922002I0J249998D01*
G01*
X-11062000Y-43021998D01*
G75*
G02*
X-10812002Y-42772000I249998J0D01*
G01*
X-10286998Y-42772000D01*
G75*
G02*
X-10037000Y-43021998I0J-249998D01*
G01*
G37*
%TD*%
D16*
%TO.C,D204*%
X-30230000Y-45630000D03*
X-29580000Y-45630000D03*
X-28930000Y-45630000D03*
X-28930000Y-48290000D03*
X-29580000Y-48290000D03*
X-30230000Y-48290000D03*
%TD*%
%TO.C,R211*%
G36*
G01*
X-12740002Y-57864000D02*
X-11839998Y-57864000D01*
G75*
G02*
X-11590000Y-58113998I0J-249998D01*
G01*
X-11590000Y-58639002D01*
G75*
G02*
X-11839998Y-58889000I-249998J0D01*
G01*
X-12740002Y-58889000D01*
G75*
G02*
X-12990000Y-58639002I0J249998D01*
G01*
X-12990000Y-58113998D01*
G75*
G02*
X-12740002Y-57864000I249998J0D01*
G01*
G37*
G36*
G01*
X-12740002Y-56039000D02*
X-11839998Y-56039000D01*
G75*
G02*
X-11590000Y-56288998I0J-249998D01*
G01*
X-11590000Y-56814002D01*
G75*
G02*
X-11839998Y-57064000I-249998J0D01*
G01*
X-12740002Y-57064000D01*
G75*
G02*
X-12990000Y-56814002I0J249998D01*
G01*
X-12990000Y-56288998D01*
G75*
G02*
X-12740002Y-56039000I249998J0D01*
G01*
G37*
%TD*%
%TO.C,R214*%
G36*
G01*
X-6456998Y-33028200D02*
X-7357002Y-33028200D01*
G75*
G02*
X-7607000Y-32778202I0J249998D01*
G01*
X-7607000Y-32253198D01*
G75*
G02*
X-7357002Y-32003200I249998J0D01*
G01*
X-6456998Y-32003200D01*
G75*
G02*
X-6207000Y-32253198I0J-249998D01*
G01*
X-6207000Y-32778202D01*
G75*
G02*
X-6456998Y-33028200I-249998J0D01*
G01*
G37*
G36*
G01*
X-6456998Y-34853200D02*
X-7357002Y-34853200D01*
G75*
G02*
X-7607000Y-34603202I0J249998D01*
G01*
X-7607000Y-34078198D01*
G75*
G02*
X-7357002Y-33828200I249998J0D01*
G01*
X-6456998Y-33828200D01*
G75*
G02*
X-6207000Y-34078198I0J-249998D01*
G01*
X-6207000Y-34603202D01*
G75*
G02*
X-6456998Y-34853200I-249998J0D01*
G01*
G37*
%TD*%
%TO.C,U260*%
G36*
G01*
X-82350100Y-36610000D02*
X-82350100Y-36885000D01*
G75*
G02*
X-82487600Y-37022500I-137500J0D01*
G01*
X-83662600Y-37022500D01*
G75*
G02*
X-83800100Y-36885000I0J137500D01*
G01*
X-83800100Y-36610000D01*
G75*
G02*
X-83662600Y-36472500I137500J0D01*
G01*
X-82487600Y-36472500D01*
G75*
G02*
X-82350100Y-36610000I0J-137500D01*
G01*
G37*
G36*
G01*
X-82350100Y-34070000D02*
X-82350100Y-34345000D01*
G75*
G02*
X-82487600Y-34482500I-137500J0D01*
G01*
X-83662600Y-34482500D01*
G75*
G02*
X-83800100Y-34345000I0J137500D01*
G01*
X-83800100Y-34070000D01*
G75*
G02*
X-83662600Y-33932500I137500J0D01*
G01*
X-82487600Y-33932500D01*
G75*
G02*
X-82350100Y-34070000I0J-137500D01*
G01*
G37*
G36*
G01*
X-76850100Y-34070000D02*
X-76850100Y-34345000D01*
G75*
G02*
X-76987600Y-34482500I-137500J0D01*
G01*
X-78162600Y-34482500D01*
G75*
G02*
X-78300100Y-34345000I0J137500D01*
G01*
X-78300100Y-34070000D01*
G75*
G02*
X-78162600Y-33932500I137500J0D01*
G01*
X-76987600Y-33932500D01*
G75*
G02*
X-76850100Y-34070000I0J-137500D01*
G01*
G37*
G36*
G01*
X-76850100Y-36610000D02*
X-76850100Y-36885000D01*
G75*
G02*
X-76987600Y-37022500I-137500J0D01*
G01*
X-78162600Y-37022500D01*
G75*
G02*
X-78300100Y-36885000I0J137500D01*
G01*
X-78300100Y-36610000D01*
G75*
G02*
X-78162600Y-36472500I137500J0D01*
G01*
X-76987600Y-36472500D01*
G75*
G02*
X-76850100Y-36610000I0J-137500D01*
G01*
G37*
%TD*%
%TO.C,U240*%
G36*
G01*
X-7471000Y-60519500D02*
X-7471000Y-60244500D01*
G75*
G02*
X-7333500Y-60107000I137500J0D01*
G01*
X-6158500Y-60107000D01*
G75*
G02*
X-6021000Y-60244500I0J-137500D01*
G01*
X-6021000Y-60519500D01*
G75*
G02*
X-6158500Y-60657000I-137500J0D01*
G01*
X-7333500Y-60657000D01*
G75*
G02*
X-7471000Y-60519500I0J137500D01*
G01*
G37*
G36*
G01*
X-7471000Y-63059500D02*
X-7471000Y-62784500D01*
G75*
G02*
X-7333500Y-62647000I137500J0D01*
G01*
X-6158500Y-62647000D01*
G75*
G02*
X-6021000Y-62784500I0J-137500D01*
G01*
X-6021000Y-63059500D01*
G75*
G02*
X-6158500Y-63197000I-137500J0D01*
G01*
X-7333500Y-63197000D01*
G75*
G02*
X-7471000Y-63059500I0J137500D01*
G01*
G37*
G36*
G01*
X-12971000Y-63059500D02*
X-12971000Y-62784500D01*
G75*
G02*
X-12833500Y-62647000I137500J0D01*
G01*
X-11658500Y-62647000D01*
G75*
G02*
X-11521000Y-62784500I0J-137500D01*
G01*
X-11521000Y-63059500D01*
G75*
G02*
X-11658500Y-63197000I-137500J0D01*
G01*
X-12833500Y-63197000D01*
G75*
G02*
X-12971000Y-63059500I0J137500D01*
G01*
G37*
G36*
G01*
X-12971000Y-60519500D02*
X-12971000Y-60244500D01*
G75*
G02*
X-12833500Y-60107000I137500J0D01*
G01*
X-11658500Y-60107000D01*
G75*
G02*
X-11521000Y-60244500I0J-137500D01*
G01*
X-11521000Y-60519500D01*
G75*
G02*
X-11658500Y-60657000I-137500J0D01*
G01*
X-12833500Y-60657000D01*
G75*
G02*
X-12971000Y-60519500I0J137500D01*
G01*
G37*
%TD*%
%TO.C,R213*%
G36*
G01*
X-12938002Y-33838300D02*
X-12037998Y-33838300D01*
G75*
G02*
X-11788000Y-34088298I0J-249998D01*
G01*
X-11788000Y-34613302D01*
G75*
G02*
X-12037998Y-34863300I-249998J0D01*
G01*
X-12938002Y-34863300D01*
G75*
G02*
X-13188000Y-34613302I0J249998D01*
G01*
X-13188000Y-34088298D01*
G75*
G02*
X-12938002Y-33838300I249998J0D01*
G01*
G37*
G36*
G01*
X-12938002Y-32013300D02*
X-12037998Y-32013300D01*
G75*
G02*
X-11788000Y-32263298I0J-249998D01*
G01*
X-11788000Y-32788302D01*
G75*
G02*
X-12037998Y-33038300I-249998J0D01*
G01*
X-12938002Y-33038300D01*
G75*
G02*
X-13188000Y-32788302I0J249998D01*
G01*
X-13188000Y-32263298D01*
G75*
G02*
X-12938002Y-32013300I249998J0D01*
G01*
G37*
%TD*%
%TO.C,R216*%
G36*
G01*
X-83564002Y-39969400D02*
X-82663998Y-39969400D01*
G75*
G02*
X-82414000Y-40219398I0J-249998D01*
G01*
X-82414000Y-40744402D01*
G75*
G02*
X-82663998Y-40994400I-249998J0D01*
G01*
X-83564002Y-40994400D01*
G75*
G02*
X-83814000Y-40744402I0J249998D01*
G01*
X-83814000Y-40219398D01*
G75*
G02*
X-83564002Y-39969400I249998J0D01*
G01*
G37*
G36*
G01*
X-83564002Y-38144400D02*
X-82663998Y-38144400D01*
G75*
G02*
X-82414000Y-38394398I0J-249998D01*
G01*
X-82414000Y-38919402D01*
G75*
G02*
X-82663998Y-39169400I-249998J0D01*
G01*
X-83564002Y-39169400D01*
G75*
G02*
X-83814000Y-38919402I0J249998D01*
G01*
X-83814000Y-38394398D01*
G75*
G02*
X-83564002Y-38144400I249998J0D01*
G01*
G37*
%TD*%
%TO.C,U250*%
G36*
G01*
X-7712000Y-36354600D02*
X-7712000Y-36079600D01*
G75*
G02*
X-7574500Y-35942100I137500J0D01*
G01*
X-6399500Y-35942100D01*
G75*
G02*
X-6262000Y-36079600I0J-137500D01*
G01*
X-6262000Y-36354600D01*
G75*
G02*
X-6399500Y-36492100I-137500J0D01*
G01*
X-7574500Y-36492100D01*
G75*
G02*
X-7712000Y-36354600I0J137500D01*
G01*
G37*
G36*
G01*
X-7712000Y-38894600D02*
X-7712000Y-38619600D01*
G75*
G02*
X-7574500Y-38482100I137500J0D01*
G01*
X-6399500Y-38482100D01*
G75*
G02*
X-6262000Y-38619600I0J-137500D01*
G01*
X-6262000Y-38894600D01*
G75*
G02*
X-6399500Y-39032100I-137500J0D01*
G01*
X-7574500Y-39032100D01*
G75*
G02*
X-7712000Y-38894600I0J137500D01*
G01*
G37*
G36*
G01*
X-13212000Y-38894600D02*
X-13212000Y-38619600D01*
G75*
G02*
X-13074500Y-38482100I137500J0D01*
G01*
X-11899500Y-38482100D01*
G75*
G02*
X-11762000Y-38619600I0J-137500D01*
G01*
X-11762000Y-38894600D01*
G75*
G02*
X-11899500Y-39032100I-137500J0D01*
G01*
X-13074500Y-39032100D01*
G75*
G02*
X-13212000Y-38894600I0J137500D01*
G01*
G37*
G36*
G01*
X-13212000Y-36354600D02*
X-13212000Y-36079600D01*
G75*
G02*
X-13074500Y-35942100I137500J0D01*
G01*
X-11899500Y-35942100D01*
G75*
G02*
X-11762000Y-36079600I0J-137500D01*
G01*
X-11762000Y-36354600D01*
G75*
G02*
X-11899500Y-36492100I-137500J0D01*
G01*
X-13074500Y-36492100D01*
G75*
G02*
X-13212000Y-36354600I0J137500D01*
G01*
G37*
%TD*%
%TO.C,R212*%
G36*
G01*
X-6223998Y-57084000D02*
X-7124002Y-57084000D01*
G75*
G02*
X-7374000Y-56834002I0J249998D01*
G01*
X-7374000Y-56308998D01*
G75*
G02*
X-7124002Y-56059000I249998J0D01*
G01*
X-6223998Y-56059000D01*
G75*
G02*
X-5974000Y-56308998I0J-249998D01*
G01*
X-5974000Y-56834002D01*
G75*
G02*
X-6223998Y-57084000I-249998J0D01*
G01*
G37*
G36*
G01*
X-6223998Y-58909000D02*
X-7124002Y-58909000D01*
G75*
G02*
X-7374000Y-58659002I0J249998D01*
G01*
X-7374000Y-58133998D01*
G75*
G02*
X-7124002Y-57884000I249998J0D01*
G01*
X-6223998Y-57884000D01*
G75*
G02*
X-5974000Y-58133998I0J-249998D01*
G01*
X-5974000Y-58659002D01*
G75*
G02*
X-6223998Y-58909000I-249998J0D01*
G01*
G37*
%TD*%
D15*
%TO.C,Q205*%
X-9704000Y-30917200D03*
X-8754000Y-33917200D03*
X-10654000Y-33917200D03*
%TD*%
%TO.C,U230*%
G36*
G01*
X-9437000Y-45895500D02*
X-9437000Y-45620500D01*
G75*
G02*
X-9299500Y-45483000I137500J0D01*
G01*
X-8124500Y-45483000D01*
G75*
G02*
X-7987000Y-45620500I0J-137500D01*
G01*
X-7987000Y-45895500D01*
G75*
G02*
X-8124500Y-46033000I-137500J0D01*
G01*
X-9299500Y-46033000D01*
G75*
G02*
X-9437000Y-45895500I0J137500D01*
G01*
G37*
G36*
G01*
X-9437000Y-48435500D02*
X-9437000Y-48160500D01*
G75*
G02*
X-9299500Y-48023000I137500J0D01*
G01*
X-8124500Y-48023000D01*
G75*
G02*
X-7987000Y-48160500I0J-137500D01*
G01*
X-7987000Y-48435500D01*
G75*
G02*
X-8124500Y-48573000I-137500J0D01*
G01*
X-9299500Y-48573000D01*
G75*
G02*
X-9437000Y-48435500I0J137500D01*
G01*
G37*
G36*
G01*
X-14937000Y-48435500D02*
X-14937000Y-48160500D01*
G75*
G02*
X-14799500Y-48023000I137500J0D01*
G01*
X-13624500Y-48023000D01*
G75*
G02*
X-13487000Y-48160500I0J-137500D01*
G01*
X-13487000Y-48435500D01*
G75*
G02*
X-13624500Y-48573000I-137500J0D01*
G01*
X-14799500Y-48573000D01*
G75*
G02*
X-14937000Y-48435500I0J137500D01*
G01*
G37*
G36*
G01*
X-14937000Y-45895500D02*
X-14937000Y-45620500D01*
G75*
G02*
X-14799500Y-45483000I137500J0D01*
G01*
X-13624500Y-45483000D01*
G75*
G02*
X-13487000Y-45620500I0J-137500D01*
G01*
X-13487000Y-45895500D01*
G75*
G02*
X-13624500Y-46033000I-137500J0D01*
G01*
X-14799500Y-46033000D01*
G75*
G02*
X-14937000Y-45895500I0J137500D01*
G01*
G37*
%TD*%
D17*
%TO.C,J203*%
X-5292000Y-46150000D03*
X-5292000Y-47400000D03*
X-5292000Y-48650000D03*
D18*
X-2592000Y-50900000D03*
X-2592000Y-43900000D03*
%TD*%
D14*
%TO.C,BT201*%
X-69130000Y-64510000D03*
X-69130000Y-93810000D03*
%TD*%
%TO.C,BT202*%
X-45610000Y-64280000D03*
X-45610000Y-93580000D03*
%TD*%
M02*
